<?xml version="1.0" encoding="UTF-8"?>
<svg id="Layer_1" data-name="Layer 1" xmlns="http://www.w3.org/2000/svg" version="1.1" viewBox="0 0 1920 1080">
  <defs>
    <style>
      .cls-1 {
        fill: #dac042;
      }

      .cls-1, .cls-2, .cls-3, .cls-4, .cls-5, .cls-6, .cls-7, .cls-8, .cls-9, .cls-10, .cls-11, .cls-12, .cls-13, .cls-14, .cls-15, .cls-16, .cls-17, .cls-18, .cls-19, .cls-20, .cls-21, .cls-22, .cls-23, .cls-24, .cls-25, .cls-26, .cls-27, .cls-28 {
        stroke-width: 0px;
      }

      .cls-2 {
        fill: #040404;
      }

      .cls-3 {
        fill: #f0e1d5;
      }

      .cls-4 {
        fill: #0b0a08;
      }

      .cls-5 {
        fill: #0a0903;
      }

      .cls-6 {
        fill: #c52727;
      }

      .cls-7 {
        fill: #110f0e;
      }

      .cls-8 {
        fill: #2492b5;
      }

      .cls-9 {
        fill: #f7ebab;
      }

      .cls-10 {
        fill: #c3c3c3;
      }

      .cls-11 {
        fill: #8b8b8b;
      }

      .cls-12 {
        fill: #e2cc61;
      }

      .cls-13 {
        fill: #f7e8dd;
      }

      .cls-14 {
        fill: #dcc142;
      }

      .cls-15 {
        fill: #edccb6;
      }

      .cls-16 {
        fill: #9f7e56;
      }

      .cls-17 {
        fill: #6bbbd5;
      }

      .cls-18 {
        fill: #e1c95b;
      }

      .cls-19 {
        fill: #121007;
      }

      .cls-20 {
        fill: #f6eaaa;
      }

      .cls-21 {
        fill: #e3ce69;
      }

      .cls-22 {
        fill: #dbc142;
      }

      .cls-23 {
        fill: #ecdd98;
      }

      .cls-24 {
        fill: #7b5f3c;
      }

      .cls-25 {
        fill: #f5e8df;
      }

      .cls-26 {
        fill: #f0f0f0;
      }

      .cls-27 {
        fill: #f7eaa7;
      }

      .cls-28 {
        fill: #e77272;
      }
    </style>
  </defs>
  <path class="cls-14" d="M1372.82,583.28c.16.98.33,1.96.49,2.94.02,1.66-.2,3.38.12,4.98.41,2.09,1.5,4.06,1.86,6.15,1.49,8.54,1.77,17.46,4.47,25.59,3.03,9.13,1.82,18.29,2.25,27.32.49,10.44-1.57,21.01-2.67,31.51-.2,1.92-1.13,3.75-1.64,5.65-.51,1.89-.92,3.81-1.34,5.72-.75,3.37-1.06,6.91-2.28,10.09-2.69,6.99-5.81,13.81-8.81,20.68-2.93,6.7-5.31,13.74-9.02,19.98-5.45,9.16-11.76,17.81-17.92,26.53-1.67,2.36-4.19,4.12-6.22,6.25-2.26,2.37-4.37,4.9-6.63,7.28-1.93,2.03-3.92,4.02-6.01,5.88-2.93,2.61-5.8,5.33-9.01,7.55-4.06,2.81-8.39,5.23-12.67,7.71-4.08,2.37-8.09,4.95-12.41,6.8-5.89,2.53-11.99,4.64-18.11,6.6-4.47,1.43-9.05,2.79-13.68,3.35-4.99.6-10.22-.4-15.14.45-8.59,1.48-16.96,2.67-25.15-1.48-1.91-.97-3.89-1.79-6.15-2.83-.97,1.72-1.84,3.27-2.71,4.82-.06.29-.05.58.02.86-.96-.03-1.92-.05-2.89-.08.08-.24.08-.49,0-.74-.59-.84-1.18-1.67-1.77-2.51-.43.53-.86,1.06-1.29,1.6-1.33.32-2.67.65-4,.97-1.74-3.58-4.14-4.84-7.88-2.55-7.14,4.37-14.38,8.57-21.52,12.93-1.02.62-1.73,1.76-2.58,2.65-5.32,1-10.64,2-15.96,2.99-1.45-.64-2.87-1.73-4.37-1.84-5.59-.41-11.3.08-16.77-.85-7.62-1.29-15.23-3.09-22.56-5.52-10.43-3.45-21.02-6.76-29.84-13.82-5.37-4.3-15.98-5.32-20.33-2.09-1.32-.34-2.64-.67-3.95-1-.72-1.41-1.11-3.25-2.24-4.15-3.35-2.66-6.85-5.18-10.54-7.32-10.31-5.98-17.85-14.91-25.48-23.72-2.69-3.11-4.52-6.97-7.18-10.11-7.44-8.79-12.61-18.64-14.91-29.95-.12-2.59.01-5.23-.44-7.76-.43-2.4-1.74-4.64-2.21-7.04-.79-4.05-.91-8.25-1.86-12.25-1.49-6.26-4.02-12.32-5.06-18.63-1.76-10.77-3.29-21.65-3.85-32.54-.67-12.9-.99-25.91.04-38.76.69-8.61,3.22-17.3,6.34-25.41,3.27-8.47,8.63-16.11,12.39-24.42,9.38-20.71,16.8-42.33,30.1-61.15,7.56-10.69,13.38-22.79,21.92-32.56,12.2-13.95,26.03-26.51,39.45-39.36,11.1-10.63,23.34-19.86,37.8-25.49,7.07-2.75,13.94-5.61,20.38-9.7,4.13-2.63,8.84-4.59,13.55-6.02,7.29-2.22,14.76-3.86,22.21-5.51,12.78-2.82,25.56-5.68,38.42-8.09,8.46-1.58,17.06-2.43,25.61-3.56.97-.13,2.32-.34,2.93.16,4.98,4.11,10.35,1.03,15.56,1.22,6.9.25,14.38-.01,20.5,2.58,8.93,3.79,17.71,7.28,27.36,8.33,5.76.63,11.52,1.3,17.29,1.74,11.03.84,21.36,2.91,30.47,10.22,8.77,7.03,18.53,12.8,27.89,19.09.61.41,1.48.43,2.23.63,0,0-.01,0-.01,0,.38.66.77,1.32,1.15,1.99,0,0-.07-.15-.07-.15,1.75,3.31,3.63,6.56,5.24,9.94,5.63,11.8,11.03,23.7,16.77,35.44,7.48,15.29,16.3,29.93,21.6,46.27,2.7,8.32,6.12,16.42,9.43,24.54,1.02,2.5,2.9,5,6.09,3.49,2.79-1.33,2.27-3.75,1.24-6.4-2.1-5.37-3.77-10.9-5.61-16.37,2.68,2.82,5.36,5.64,8.04,8.46,1.93,4.39,4.52,8.62,5.68,13.21,3.57,14.07-2.59,28.22-14.68,35.06-13.02,7.36-28.15,5.52-39.39-5.72-7.86-7.86-14.81-16.62-22.18-24.98-1.05-1.19-2.16-2.34-3.56-3.85-1.27,7.03-2.44,13.49-3.61,19.95-5.45,8.9-5.57,11.73-.75,18.12ZM1292.37,401.42c-4.77-2.03-5.71-1.46-5.89,3.55.34,6.38,4.29,2.64,6.66,2.08,1.2-.28,2.03-2.19,3.02-3.37-1.27-.76-2.53-1.51-3.8-2.27ZM1016.39,610.89c1.65-5.61-3.31-6.17-6.35-7.73-1.61-.82-4.02-.09-6.06-.06l2.83,5.01c.4,5.46,3.15,8.47,7.73,8.08,1.29-.11,2.51-1.12,3.76-1.72-.63-1.19-1.27-2.39-1.9-3.58ZM1069.15,605.25c-3.54-.62-7.06-1.49-10.62-1.73-1.26-.08-2.62,1.37-3.93,2.13,1,1.23,2.01,2.46,3.01,3.69.97,1.26,1.99,3.61,2.9,3.57,3.4-.15,6.86-.82,10.11-1.86,1.21-.39,1.91-2.34,2.84-3.58-1.43-.74-2.87-1.48-4.3-2.22ZM1342.13,450.75c3.79,2.67,6.93,4.33,9.39,6.7,17.53,16.92,33.47,35.15,46.08,56.14,3.91,6.51,9.39,12.22,12.48,19.05,4.15,9.19,10.64,16.41,16.86,23.93,1.03,1.25,4.1,2.24,5.34,1.61,2.88-1.47,1.34-3.76-.12-5.8-7.6-10.59-15.87-20.79-22.52-31.95-11.62-19.52-24.48-37.97-40.09-54.52-8.37-8.87-16.71-17.52-27.96-22.95-8.35-4.03-16.32-8.86-24.44-13.35-6.81-3.76-13.21-9.09-20.5-11-13.08-3.42-26.62-5.54-40.11-6.81-11.55-1.09-23.29.04-34.93-.32-7.62-.24-14.38,2.15-21.09,5.12-12.74,5.64-25.37,11.53-38.22,16.91-15.33,6.42-30.91,12.23-46.22,18.69-4.52,1.91-9.31,4.35-12.56,7.86-9.46,10.23-18.39,20.97-27.09,31.86-2.16,2.7-2.63,6.73-3.96,10.12-1.86,4.74-3.58,9.56-5.78,14.15-1.79,3.73-4.48,7.02-6.26,10.75-6.13,12.88-11.29,26.29-18.27,38.68-5.87,10.44-11.99,20.4-13.89,32.54-.99,6.33-3.59,12.41-5.45,18.61-2.99,9.98-5.74,20.03-8.99,29.92-5.96,18.08-5.28,35.72,1.88,53.4,3.29,8.12,5.22,16.78,8.08,25.09,4.21,12.22,7.71,24.82,13.36,36.36,4.84,9.89,12.11,18.63,18.65,27.62,2.7,3.71,6.14,6.97,9.65,9.97,1.02.87,3.44.08,5.21.06-.32-1.72-.1-3.86-1.05-5.11-7.74-10.12-16.44-19.59-23.4-30.2-9.57-14.61-13.24-31.73-17.94-48.34-1.89-6.69-4.3-13.27-6.89-19.73-5.83-14.56-6.36-29.26-1.87-44.22,1.89-6.3,3.65-12.65,5.53-18.95,3.74-12.58,7.31-25.21,11.36-37.69,2.2-6.76,5-13.35,7.98-19.81,2.98-6.46,6.63-12.6,9.78-18.99,1.85-3.75,3.3-7.71,5.14-12.08,14.7,7.8,26.57,17.91,38.56,27.86,6.51,5.4,13.05,10.78,19.71,16,6.13,4.8,13,8.79,18.55,14.16,9.41,9.11,17.68,19.4,27.13,28.47,8,7.69,17.29,14.02,25.47,21.53,19.24,17.66,38.32,35.5,57.11,53.64,6.53,6.3,12.27,13.48,17.88,20.63,4.02,5.13,8.91,7.82,15.08,6.36,7.67-1.82,14.78-5.14,19.7-11.82,3.45-4.69,6.97-9.33,10.37-14.06,7.6-10.58,12.12-22.41,11.44-35.42-.91-17.51,3.09-33.66,9.24-49.92,5.33-14.07,9.43-28.81,12.09-43.61,2.4-13.33,2.45-27.14,2.91-40.76.96-28.36,3.61-56.79-2.43-86.4ZM1141.74,718.26c6.45-.17,9.97-3.58,12.76-7.5.73-1.02-.65-3.69-1.43-5.44-.1-.22-3.43.3-3.59.92-1.11,4.17-3.95,5.67-7.82,6.51-1.02.22-2.12,2.32-2.23,3.64-.06.7,1.93,1.57,2.31,1.86ZM1082.01,466.07c-2.37-1.34-3.74-2.75-4.74-2.52-1.38.31-2.48,1.86-3.7,2.87,1.22.87,2.38,2.33,3.66,2.44,1.12.1,2.38-1.31,4.77-2.8Z"/>
  <path class="cls-4" d="M988.41,738.58c2.3,11.31,7.47,21.16,14.91,29.95,2.66,3.14,4.49,7,7.18,10.11,7.62,8.81,15.16,17.73,25.48,23.72,3.69,2.14,7.2,4.67,10.54,7.32,1.13.9,1.51,2.74,2.24,4.15-1.88,3.06-4.27,2.65-6.77.93-11.29-7.78-23.55-14.55-31.8-25.87-8.65-11.88-16.46-24.38-24.81-36.49-1.26-1.83-3.39-4.16-5.26-4.28-12.34-.85-23.98-4.84-35.96-7.08-10.09-1.89-16.96-8.36-24.89-13.1-12.98-7.76-20.32-21.07-28.06-33.65-2.08-3.38-3.89-6.94-6.26-11.2-7.13,9.33-18.04,15.03-23.06,26.32-.81,1.82-3.63,3.05-5.78,3.9-4.87,1.92-9.89,2-14.23,6.81-2.82,3.13-10.55,2.73-16,2.43-14.8-.81-27.89-7.38-40.5-14.4-15.92-8.86-31.39-18.54-46.94-28.05-7.88-4.82-15.53-10.03-23.28-15.06-3.14-4.68-6.56-9.07-11.28-12.1-.33.34-.67.68-1,1.01,3.62,3.74,7.24,7.49,10.86,11.23,4.04,4.13,7.83,8.54,12.16,12.35,13.83,12.17,24.49,26.93,34.91,41.9.97,1.39.86,3.53,1.3,5.3.23.91.38,1.91.87,2.67,8.38,13.11,16.72,26.25,25.29,39.25,2.73,4.14,6.27,7.74,9.04,11.85.73,1.09-.02,3.18-.09,4.81-4.04-4.75-8.57-9.16-12.02-14.31-8.69-12.95-16.52-26.49-25.38-39.32-9.33-13.5-18.33-27.5-29.5-39.37-13.86-14.72-28.5-28.71-41.26-44.47-2.08-2.57-4.82-4.66-6.69-7.36-8.29-11.98-16.13-24.29-24.64-36.1-4.8-6.66-10.63-12.59-15.94-18.89-3.64-4.32-7.3-8.63-10.74-13.09-2.59-3.36-5.08-3.91-7.99-.55-1.82,1.05-3.64,2.11-5.49,3.18,5.81,7.55,11.29,14.13,16.16,21.13,7.11,10.2,13.59,20.85,20.72,31.04,7.2,10.31,14.36,20.73,22.46,30.32,7.46,8.84,15.93,16.59,25.77,23.32,8.76,5.99,15.45,15.39,22.05,24.05,6.7,8.79,12.56,18.3,18.07,27.9,6.49,11.31,13.78,21.74,23.6,30.52,7.28,6.51,13.67,14,20.46,21.06,1.74,1.9,3.48,3.79,5.22,5.69-.57,3.45-1.22,4.68-4.38,1.3-9.87-10.56-20.14-20.75-30.17-31.15-2.76-2.87-5.39-5.89-7.84-9.03-4.37-5.6-8.82-11.16-12.75-17.06-5.32-8-9.52-16.84-15.43-24.35-6.04-7.67-11.62-15.77-19.89-21.78-9.08-6.6-16.96-14.85-25.33-22.42-11.63-10.51-19.17-24.06-27.65-36.95-10.02-15.24-20.56-30.15-30.93-45.16-1.03-1.48-2.44-2.7-3.96-4.35-4.63,4.62-10.43,5.48-16.12,3.88-7.9-2.22-5.02-9.26-5.31-13.7-4.46-1.53-9-2.14-12.35-4.46-4.56-3.17-2.15-7.69-.56-10.59-3.36-3.67-7.8-6.5-8.92-10.31-1.05-3.57,1.4-8.18,2.65-13.9-2.13-2.77-5.55-7.23-8.99-11.66-2.43-3.13-4.87-6.26-7.35-9.34-5.29-6.57-11-12.85-15.83-19.74-5.59-7.99-10.41-16.51-15.59-24.79-1.92-3.07-4.09-6.01-5.8-9.19-2.48-4.61-4.65-9.38-6.93-14.09-.43-.88-.5-2.11-1.17-2.66-5.12-4.18-9.97-8.88-15.64-12.14-5.29-3.04-6.9-7.26-7.63-12.64-1.73-12.76-3.46-25.53-5.52-38.24-.79-4.89.87-7.44,5.84-7.15,11.77.67,19.04,8.42,26.07,16.58,3.34,3.88,7.01,7.51,10,11.64,1.93,2.67,3.72,5.93,4.16,9.11,1.35,9.94,1.5,20.07,3.22,29.94.75,4.31,3.94,8.33,6.49,12.18,4.75,7.18,9.99,13.75,16.87,19.38,5.42,4.44,9.19,11.27,12.72,17.57,4.98,8.88,10.43,17.2,18.24,23.88,3.54,3.03,6.72,6.48,10.14,9.81,2.24-1.62,4.1-2.75,5.7-4.17,12.69-11.28,27.23-11.87,41.36-4.72,16.11,8.15,31.33,18.08,46.76,27.53,8.8,5.39,12.36,14.94,17.27,23.36,1.66,2.85,3.32,5.71,5.07,8.51,3.22,5.16,6.51,10.28,9.78,15.4.89,1.4,1.55,3.22,2.83,4.06,10.19,6.67,14.75,17.8,21.6,27.08,6.49,8.81,12.38,18.06,18.84,26.91,1.58,2.17,4.09,4.07,6.58,5.08,6.88,2.8,13.95,5.16,21.01,7.52,7.53,2.52,15.09,4.98,22.72,7.19,7.64,2.22,15.12.4,22.41-1.89,1.04-.33,2.11-2.73,2.03-4.11-.81-14.82,4.29-28.39,8.66-42.12.15-.47.44-.93.48-1.41.84-11.21,8.86-16.08,17.92-19.5,5.51-2.08,8.76-4.41,9.03-11.12.22-5.39,2.09-10.52-.52-15.93-1.63-3.37-3.68-4.66-7.06-3.28-14.89,6.07-29.85,4.29-44.87.63-2.57-.63-5.33-1.42-7.86-1.09-9.6,1.25-16.38-3.78-23.28-9.26-4.1-3.26-8.71-5.97-13.35-8.44-6.88-3.65-13.98-6.87-21.01-10.23-4.44-2.12-7.06-5.45-8.83-10.18-1.88-5.01-5.54-9.34-7.54-14.32-2.76-6.87-4.89-14.02-6.89-21.17-.83-2.98-.29-6.33-.99-9.38-.47-2.06-1.53-4.49-3.13-5.71-9.02-6.91-13.44-15.12-11.62-27.09,1.77-11.57,1.42-23.44,2.55-35.13.47-4.85,2.62-9.52,3.59-14.35.77-3.85.92-7.82,1.41-12.34-7.13,2.19-7.46,1.86-7.21-4.22.1-2.48.2-5.07-.36-7.45-5.36-22.85,1.68-42.79,15.05-60.76,10.61-14.26,21.98-28.02,36.33-38.85,3.42-2.58,7.13-4.92,11-6.74,18.77-8.86,37.5-17.82,56.52-26.13,15.36-6.72,31.24-12.25,46.65-18.88,13.72-5.91,27.08-12.65,40.64-18.92,5.45-2.52,9.31-1.01,12.14,4.43,1.69,3.24,3.22,6.57,4.99,9.76,8.54,15.37,17.18,30.68,25.69,46.07,1.34,2.42,2.19,5.11,3.36,7.89,23.04-5.2,43.1,3.34,62.39,14.3,11.58,6.58,24.13,8.32,36.92,8.96,15.79.79,31.49,2.05,46.95,5.39,12.02,2.6,22.94,7.93,33.13,14.65,14.82,9.78,29.22,20.21,44.19,29.75,12.58,8.01,25.74,15.08,38.59,22.67,2.38,1.41,4.42,3.38,6.7,4.96.96.66,2.23,1.49,3.25,1.36,15.42-2.06,30.47,1.01,45.58,3.15,11.52,1.63,23.11,3.06,34.44,5.63,19.55,4.44,38.54,10.61,53.38,25.11,10.08,9.85,20.13,19.78,29.6,30.21,10.77,11.85,16.61,26.69,23.01,41.1,5.78,13.02,11.32,26.16,17.26,39.11,1.57,3.42,4.14,6.39,6.35,9.5,2.69,3.8,2.32,4.98-2.26,6.65-2.68-2.82-5.36-5.64-8.04-8.46-4.16-8.67-8.37-17.32-12.48-26.02-7.93-16.78-15.05-33.99-24.01-50.2-4.34-7.86-12.08-13.85-18.27-20.68,0,0,.07.15.07.15-.39-.66-.77-1.32-1.15-1.98,0,0,.01,0,.01,0-.94-1.31-1.69-2.82-2.85-3.88-5.38-4.95-10.73-9.97-16.37-14.62-12.37-10.2-27.45-14.91-42.46-18.89-12.46-3.3-25.48-4.64-38.32-6.3-11.5-1.48-23.09-2.85-34.67-3.09-10.06-.21-20.25.58-30.22,2.04-33.35,4.87-66.06,11.36-96.75,26.95-22.84,11.61-43.96,25.3-61.96,43.01-16.9,16.63-30.51,36.33-42.83,56.7-5.07,8.39-9.74,17.01-14.67,25.48-14.81,25.45-27.89,51.51-34.58,80.58-4.26,18.53-6.31,37.06-4.68,55.86.81,9.34,3.53,18.53,5.68,27.72,1.36,5.81,3.5,11.43,4.86,17.24,2.13,9.15,5.18,17.84,10.8,25.48ZM1206.73,358.22c-.52-.47-1.03-.94-1.55-1.4-11.53-7.84-22.98-15.79-34.6-23.49-10.37-6.87-20.64-13.97-31.49-20.01-6.87-3.83-14.52-6.64-22.16-8.6-14.02-3.6-28.39-5-42.91-5.45-16.9-.53-32.98-3.75-48.08-12.68-9.38-5.55-20.51-8.44-31.17-11.39-6.94-1.92-14.44-1.69-20.32.47,0,9.35-.15,17.97.14,26.56.05,1.49,1.96,2.92,3.01,4.38,13.2,6.52,26.05,13.95,39.72,19.28,11.59,4.52,24.19,6.39,36.23,9.85,10.12,2.91,20.13,6.23,30.08,9.7,10.12,3.52,20.79,6.24,29.98,11.48,11.28,6.43,22.06,14.41,26.39,27.86.68,2.1.62,4.44.93,6.87,1.46-.26,2.62-.36,3.72-.66,12.3-3.44,24.49-7.29,36.9-10.27,10.3-2.48,20.85-3.96,31.28-5.88,6.42-.83,12.85-1.65,20.65-2.65-9.4-4.9-17.43-9.08-25.47-13.27-.43-.22-.85-.44-1.28-.66ZM899.54,697.41l.2-.32-.22.3c2.4,3.64,4.8,7.29,7.2,10.93,5.95,5.78,11.32,12.37,17.99,17.16,10.19,7.31,21.44,13.01,34.06,15.24,7.83,1.27,15.65,2.55,23.22,3.78-3.76-10.1-7.38-19.33-10.61-28.7-1.73-5.01-2.27-10.46-4.25-15.34-8.32-20.52-7.68-41.99-7.31-63.46.03-1.79.83-3.55,1.2-5.34,1.58-7.75,3.14-15.5,4.78-23.62-1.99.67-3.51,1.42-5.1,1.63-.93.12-1.98-.63-2.97-1,.5-.91.78-2.19,1.54-2.64,1.56-.9,3.57-1.07,5.04-2.07,1.62-1.1,3.72-2.59,4.09-4.25,4.36-19.56,13.27-37.18,22.76-54.58,15.93-29.19,32.33-58.07,53.3-84.05,4.6-5.69,8.99-11.73,14.44-16.53,18.98-16.74,38.43-32.9,62.14-42.88,5.27-2.22,10.27-5.08,16.6-8.25-4.35-6.84-7.44-13.43-12.13-18.56-4.45-4.87-10.26-8.8-16.07-12.06-4.96-2.79-10.79-4.04-16.22-6.01-7.61-2.77-15.15-5.71-22.8-8.35-4.67-1.61-9.5-2.75-14.23-4.18-1.73-.52-3.35-1.42-5.09-1.89-11.78-3.16-23.86-5.45-35.28-9.59-11.49-4.16-22.35-10.08-33.41-15.38-3.1-1.49-5.94-3.54-8.63-5.18-1.41,2.14-2.61,3.95-3.8,5.75,12.08,8.04,24.86,15.32,39.88,18.35-1.74,1.1-3.47,2.01-5.27,2.13-9.82.7-18.5-2.97-26.93-7.43-5.18-2.74-10.04-5.82-12.76-11.36-.48-.97-1.48-2.3-2.33-2.38-5.88-.52-11.78-.75-17.74-1.08.73,14.72,4.2,28.15,9.63,41.12-2.88,10.67-11.63,14.77-22.36,18.06,2.48,1.23,3.46,1.72,4.44,2.21,1.84,3.88.61,6.51-2.98,5.57-4.74-1.23-9.69-2.79-13.65-5.53-2.52-1.74-3.39-5.87-5-8.93,1.84-.59,3.68-1.17,5.11-1.63v-14.96c-.74.08-1.97.22-3.2.35-2.65.14-5.3.31-7.96.4-7.27.26-14.53.56-21.8.65-1.11.01-2.48-.77-3.22-1.63-.32-.38.47-2.59,1.05-2.72,3.38-.78,2.62-3.31,2.66-5.53.4-19.29.97-38.54,4.78-57.59.89-4.45,2.73-6.35,6.5-7.4,1.76-.49,3.53-1.03,5.33-1.29,16.91-2.4,30.86,5.74,45.11,12.78.38.16.76.32,1.14.48-.1-.49-.2-.97-.31-1.46-.67-1.13-1.23-2.35-2.02-3.39-14-18.28-32.35-27.93-55.54-28.17-6.21-.07-12.38-.25-17.52,3.92-2.93,2.38-6.21,4.74-8.14,7.84-5.45,8.75-12.77,12.13-23.06,11.17-6.41-.6-9.87-3.87-8.5-10.32.63-2.94.9-5.96,1.44-9.66-4.78.87-8.69,1.43-12.52,2.31-13.85,3.18-28.03,5.63-36.66,19.09-1.77,2.75-4.88,4.64-8.09,7.58,1.73.1,2.35.28,2.91.15,3.22-.75,6.4-1.78,9.65-2.29,2.28-.36,4.67-.05,7.01-.03-.11,2.38-.13,4.77-.38,7.14-.1.95-.74,1.84-1.07,2.78-5.97,16.83-8.52,34.36-10.83,51.97-.28,2.16-1.63,4.92-3.36,6.01-7.99,5.04-16.29,9.59-24.47,14.31-9.08,2.95-18.15,5.91-27.66,9.01,1.29,4.25,2.31,7.61,3.26,10.71,4.77-3.72,8.57-7.85,13.27-10.03,4.93-2.28,10.72-2.7,16.14-3.93,1.41,1.1,2.9,2.11,4.21,3.31,4.66,4.27,6.28,11.6,3.75,16.61-6.89,5.6-15.06,8.29-23.63,8.98-4.01.32-8.21-1.7-12.33-2.66-.97-1.15-1.93-2.3-2.9-3.45-.57.09-1.15.18-1.72.27-1.15,5.78-2.77,11.52-3.34,17.36-1.13,11.55-1.92,23.14-2.33,34.74-.11,3.11.69,7.35,2.75,9.23,8,7.33,14.73,17.15,27.59,16.66,1.1-.04,2.25,1.41,3.38,2.17-.96,1.23-1.76,3.31-2.92,3.54-2.7.52-5.86.91-8.3-.02-4.79-1.83-6.29-.05-5.91,4.27.21,2.36,1.09,4.73,2.05,6.93,1.18,2.71,2.97,5.15,4.14,7.86,2.76,6.41,5.07,13.02,8.06,19.31,1.14,2.4,3.28,4.81,5.59,6.07,6.69,3.64,13.8,6.52,20.55,10.06,5.25,2.74,10.53,5.61,15.24,9.16,5.75,4.32,11.02,8.82,19.06,7.58,2.78-.43,5.86.78,8.76,1.41,13.75,3.01,27.41,4.82,41.1-.57,9.43-3.71,18.82-7.83,28.61-10.25,16.38-4.05,28.72-14.49,40.87-24.83,10.87-9.25,19.24-20.91,25.45-34.09,8.52-18.09,16.46-36.46,28.92-52.51,5.43-6.99,9.17-15.37,13.21-23.35,5.16-10.2,9.56-20.81,17.25-29.49,1.44-1.63,3.2-2.97,4.82-4.44.47,2.04.31,3.54-.32,4.81-8.06,16.36-15.93,32.83-24.45,48.96-3.13,5.93-8.37,10.73-11.68,16.59-5.47,9.66-10.5,19.61-15.1,29.71-6.14,13.49-12.11,27.09-22.64,37.81-7.03,7.15-15.11,13.25-22.2,20.35-7.15,7.16-15.61,11.52-25.1,14.48-6.5,2.03-12.83,4.59-19.2,6.99-3,1.13-5.74,2.66-3.8,6.57,3.05,6.17,3.4,12.36,2.57,19.26-.85,7.09-2.52,12.59-9.72,15.12-6.19,2.13-11.45,5.41-15.44,10.86-8.13,11.11-9.75,24.42-12.45,37.23-.87,4.14-2.89,9.93,2.35,13.65-1.12,1.42-1.96,3.5-3.42,4.12-4.02,1.71-8.3,2.81-12.48,4.15-8.11,1.44-16.07,1.33-23.93-1.58-5.71-2.11-11.63-3.64-17.32-5.8-9.24-3.5-18.37-7.29-27.54-10.96-.91-.96-1.96-1.82-2.71-2.9-6.42-9.24-12.56-18.69-19.24-27.74-6.74-9.13-11.21-20.07-21.23-26.68-1.66-1.1-2.51-3.45-3.68-5.27-3.2-4.97-6.4-9.93-9.53-14.95-1.92-3.08-3.85-6.17-5.53-9.39-5.1-9.78-10.52-19.2-20.61-24.9-12.71-7.19-25.05-15.1-38.08-21.62-5.99-3-13.21-4.4-19.97-4.82-10.62-.67-17.49,7.72-25.7,12.76-1.88,1.01-3.81,1.94-5.63,3.05-4.61,2.82-9.37,5.45-13.68,8.68-2.79,2.08-4.95,5.06-1.43,8.57,5.39,4.54,8.22,3.87,11.17-2.41,3.49-7.43,9.92-10.71,17.63-11.85,2.49-.37,4.44.33,3.13,3.58-2.14.81-4.35,1.49-6.42,2.46-7.46,3.5-12.64,9.15-15.51,16.9-.73,1.07-1.56,2.08-2.16,3.22-2.56,4.9-1.79,6.06,3.68,6.11,2.2.02,4.39.4,7.07.66,6.73-5.35,10.13-15.49,21.49-18.04-.38,1.75-.27,3.29-.98,4.16-2.87,3.5-5.99,6.78-9.02,10.15-2.6,2.5-6.04,4.59-7.56,7.63-1.44,2.89-.88,6.78-1.19,10.23l6.73.08c2.03-1.26,4.09-2.47,6.07-3.79,5.6-3.73,10.7-8.93,16.86-10.97,11.58-3.84,23.75,1.55,29.9,12.25,6.11,10.63,11.76,21.54,17.12,32.57,11.61,23.87,29.08,43.33,49.81,58.78,20.78,15.49,44.04,27.71,66.53,40.81,10.17,5.92,21.08,10.87,33.08,11.74,4.75.35,10.59.41,14.19-2,3.95-2.65,7.55-4.97,12.23-5.82,2.05-.37,5.19-.87,5.78-2.21,4.12-9.44,12.6-14.93,19.26-22.01,3.45-3.66,4.98-6.9,3.1-11.84-.96-2.53-.9-5.59-.71-8.37.08-1.17,1.65-2.25,2.55-3.36.36,1.88.61,3.79,1.1,5.64,1.01,3.78,1.41,7.98,3.39,11.19,3.96,6.41,8.81,12.28,13.29,18.36.3.41.6.82.9,1.23ZM901.51,218.08h-.03c-2,.75-4.05,1.38-6.01,2.24-8.49,3.71-16.86,7.7-25.44,11.18-24.85,10.07-49.92,19.64-73.54,32.49-.67.35-1.34.69-2.01,1.04-.95.32-1.9.61-2.84.95-21.04,7.64-34.2,24.49-47.75,40.88-11.32,11.5-17.4,25.54-20.05,41.25v28.31c9.32-3.47,17.32-6.17,25.1-9.42,8.54-3.57,17.13-7.19,25.18-11.71,3.28-1.84,6.8-5.8,7.49-9.32,3.39-17.4,5.28-35.11,11.7-51.84.19-.48.15-1.05.2-1.46-5.9,1.05-11.42,2.26-17,2.9-1.99.23-4.14-.92-6.22-1.44.92-1.82,1.48-3.97,2.81-5.39,7.26-7.74,14.71-15.29,22.09-22.91.69-.32,1.39-.63,2.08-.95,7.62-2.11,15.16-4.62,22.9-6.21,7.01-1.44,14.23-1.87,21.36-2.74.07,4.9.13,9.81.2,14.71-.99,3.43-.05,5.13,3.83,4.48,1.46-.24,3.06-.43,4.46-.08,3.8.93,6.06-.66,8.31-3.6,3.32-4.33,6.79-8.7,10.91-12.21,6.57-5.59,14.49-6.92,23.19-6.79,22.43.35,40.86,8.89,55.76,25.33,2.87,3.16,5.51,6.77,7.23,10.63,1.04,2.32.1,5.53.05,8.34-2.61-.46-5.38-.51-7.79-1.47-9.52-3.78-18.92-7.85-28.37-11.81-4.82-.27-9.65-.55-14.47-.82-4.87-.06-7.56,2.02-7.93,7.2-1.31,18.35-2.78,36.68-4.24,55.01-.27,3.35,1.46,3.55,3.97,2.81,16.52,2.25,31.57-2.98,46.73-9.39-.92-2.86-2.17-5.77-2.73-8.8-.57-3.08-.24-6.32-.67-9.43-1.36-9.78-1.42-9.78,8.97-9.09,1.49.1,2.97.54,4.45.56,4.75.07,9.51.03,14.75.03,0-11.09.43-21.86-.18-32.56-.3-5.16-1.67-10.67-4.07-15.23-9.43-17.92-19.54-35.5-29.24-53.28-3.57-6.54-3.83-6.77-10.93-2.94-6.95,3.27-13.91,6.53-20.86,9.8-.45.25-.89.5-1.34.75ZM518.8,440.64c-.47-.29-.95-.58-1.42-.87.14.65.28,1.3.42,1.95,2.25,3.81,4.38,7.71,6.79,11.42,3.94,6.06,8.1,11.99,12.11,18.01,2.2,3.31,3.95,6.98,6.46,10.03,8.54,10.34,17.33,20.46,26,30.68.63.75,1.13,1.62,1.63,2.47,2.41,4.12,4.8,8.26,7.4,12.75,2.69-2.05,4.39-3.34,6.09-4.64,2.32-1.06,4.65-2.12,7.88-3.59-3.87-2.33-7.57-3.48-9.61-5.98-6.48-7.93-13.19-15.88-18.22-24.72-5.03-8.84-9.29-17.86-18.55-23.17-1.09-.63-1.95-1.79-2.71-2.85-5.21-7.23-11.61-13.72-14.14-22.96-.95,3.79-3.06,4.92-6.41,3.73-1.24-.75-2.48-1.51-3.72-2.25ZM501.18,418.67c5.02,5.43,9.39,11.44,16.68,14.45,5.56,2.3,6.94,1.88,6.59-4.17-.51-9.08-1.2-18.15-2.04-27.21-.13-1.46-1.26-2.96-2.26-4.17-2.2-2.67-4.67-5.11-6.94-7.73-5.55-6.39-11.05-12.82-18.97-16.46-1.3-.23-2.61-.45-3.91-.68-.2,1.21-.67,2.46-.54,3.63.22,1.95.95,3.85,1.24,5.8,1.45,9.66,3,19.32,4.16,29.02.48,3.99,2.54,6.16,5.97,7.52ZM633.54,565.4c1.7,1.96,2.96,3.42,4.23,4.89,9.83,11.4,19.66,22.8,29.3,33.98-.01-.26.2-1.2-.14-1.85-5-9.68-9.57-19.65-15.32-28.87-3.66-5.86-9.83-8.96-18.06-8.15ZM945.69,359.24c1.5-3.78-.1-9.89-2.89-11.72-2.18-1.43-10.97.8-13.09,3.94-2.19,3.25-5.87,6.84-2.43,11.1,1.88,2.34,4.36,5.35,8.67,3.61-4.14-4.92-3.87-10.54.91-13.35,6.92-4.06,5.61,4.15,8.83,6.42ZM750.17,387.23c5.61-.65,8.32,1.6,7.76,8.02,3.32-1.47,6.9-2.8,8.08-5.28.74-1.54-1.58-5.54-3.57-7.15-2.7-2.18-8.87.34-12.27,4.42Z"/>
  <path class="cls-24" d="M792.06,788.09c-1.74-1.9-3.48-3.79-5.22-5.69,2.64-3.35,1.74-5.99-1.57-8.23-1.08-.73-2.12-1.59-2.98-2.57-5.62-6.45-11.41-12.77-16.71-19.47-10.15-12.83-20.02-25.89-30-38.85-4.52-5.87-9.02-11.76-13.57-17.61-1.42-1.83-3.11-3.45-4.43-5.34-5.41-7.77-11.19-14.87-19.64-19.91-6.39-3.81-12.14-9.05-17.3-14.48-3.79-3.99-6.31-9.24-9.16-14.07-6.29-10.65-12.02-21.66-18.76-32.01-5.29-8.13-11.83-15.43-17.67-23.21-4.13-5.49-8.02-11.17-12.01-16.76,2.91-3.37,5.4-2.82,7.99.55,3.45,4.47,7.1,8.78,10.74,13.09,5.31,6.3,11.14,12.22,15.94,18.89,8.51,11.82,16.35,24.12,24.64,36.1,1.87,2.7,4.61,4.79,6.69,7.36,12.76,15.76,27.4,29.74,41.26,44.47,11.17,11.87,20.18,25.87,29.5,39.37,8.86,12.83,16.69,26.36,25.38,39.32,3.45,5.14,7.98,9.56,12.02,14.31-.46,2.95-1.6,5.16-5.15,4.77Z"/>
  <path class="cls-12" d="M1204.45,822.81c.87-1.55,1.74-3.1,2.71-4.82,2.26,1.04,4.24,1.86,6.15,2.83,8.19,4.15,16.56,2.97,25.15,1.48,4.92-.85,10.15.16,15.14-.45,4.63-.56,9.21-1.91,13.68-3.35,6.12-1.96,12.21-4.07,18.11-6.6,4.31-1.85,8.32-4.43,12.41-6.8,4.28-2.48,8.61-4.9,12.67-7.71,3.21-2.22,6.08-4.94,9.01-7.55,2.09-1.86,4.08-3.85,6.01-5.88,2.26-2.38,4.37-4.9,6.63-7.28,2.03-2.13,4.54-3.89,6.22-6.25,6.16-8.71,12.48-17.37,17.92-26.53,3.71-6.24,6.1-13.28,9.02-19.98,3-6.87,6.12-13.69,8.81-20.68,1.23-3.19,1.54-6.72,2.28-10.09.42-1.91.84-3.83,1.34-5.72.51-1.9,1.44-3.73,1.64-5.65,1.1-10.5,3.15-21.07,2.67-31.51-.42-9.03.79-18.2-2.25-27.32-2.7-8.13-2.98-17.04-4.47-25.59-.36-2.1-1.45-4.06-1.86-6.15-.32-1.61-.1-3.32-.12-4.98,5.95,13.31,9.37,27.38,10.65,41.78,2.51,28.29.28,56.33-10.03,82.95-16.02,41.36-40.32,76.73-78.24,101.31-22.26,14.43-47.06,17.22-72.79,15.12-4.1-.33-8.14-1.26-12.22-1.91-.71-.23-1.43-.46-2.14-.68-.62-.08-1.25-.16-1.87-.24-.74-.58-1.48-1.16-2.22-1.74Z"/>
  <path class="cls-18" d="M1052.71,814.83c4.36-3.23,14.96-2.21,20.33,2.09,8.82,7.05,19.41,10.36,29.84,13.82,7.33,2.43,14.94,4.23,22.56,5.52,5.48.93,11.19.44,16.77.85,1.49.11,2.91,1.2,4.37,1.84-6.63.67-13.27,1.31-19.9,2.03-2.04.22-4.06.65-6.09.99l-2.97-.1c-.67-.3-1.35-.6-2.02-.9-4.65-1.05-9.31-2.09-13.96-3.14-9.33-5.5-18.84-10.7-27.89-16.63-3.83-2.51-7.14-4.76-12.03-4.47-2.96.18-6.01-1.21-9.02-1.9Z"/>
  <path class="cls-23" d="M1101.64,837.83c4.65,1.05,9.31,2.09,13.96,3.14.67.3,1.35.6,2.02.9.99.03,1.98.06,2.97.1.4.28.76.75,1.19.82,17,2.77,33.72,1.47,49.49-5.44,7.87-3.45,14.89-8.84,22.3-13.35.31-.36.62-.72.94-1.08,1.33-.32,2.67-.65,4-.97,1.02.3,2.04.61,3.06.91.08.25.08.49,0,.74-10.61,10.56-23.43,17.18-37.83,20.76-19.72,4.91-39.11,3.82-57.99-3.95-1.48-.61-2.75-1.7-4.12-2.57Z"/>
  <path class="cls-12" d="M1372.82,583.28c-4.82-6.39-4.7-9.22.75-18.12-.25,6.04-.5,12.08-.75,18.12Z"/>
  <path class="cls-3" d="M713.74,665.19c-3.62-3.74-7.24-7.49-10.86-11.23.33-.34.67-.68,1-1.01,4.72,3.04,8.14,7.42,11.28,12.1-.47.05-.95.1-1.42.15Z"/>
  <path class="cls-23" d="M1204.45,822.81c.74.58,1.48,1.16,2.22,1.74-.73-.29-1.47-.59-2.2-.88-.07-.29-.08-.57-.02-.86Z"/>
  <path class="cls-23" d="M1208.55,824.78c.71.23,1.42.46,2.14.68-.71-.23-1.43-.46-2.14-.68Z"/>
  <path class="cls-5" d="M1342.13,450.75c6.03,29.61,3.39,58.04,2.43,86.4-.46,13.62-.52,27.42-2.91,40.76-2.66,14.8-6.76,29.54-12.09,43.61-6.15,16.25-10.16,32.41-9.24,49.92.68,13.01-3.84,24.84-11.44,35.42-3.4,4.73-6.92,9.37-10.37,14.06-4.92,6.68-12.03,10.01-19.7,11.82-6.16,1.46-11.06-1.23-15.08-6.36-5.61-7.16-11.35-14.34-17.88-20.63-18.79-18.14-37.87-35.97-57.11-53.64-8.18-7.51-17.47-13.85-25.47-21.53-9.44-9.07-17.71-19.37-27.13-28.47-5.55-5.37-12.42-9.36-18.55-14.16-6.66-5.22-13.2-10.6-19.71-16-11.99-9.95-23.86-20.06-38.56-27.86-1.85,4.38-3.29,8.33-5.14,12.08-3.15,6.38-6.8,12.53-9.78,18.99-2.98,6.46-5.79,13.05-7.98,19.81-4.05,12.48-7.62,25.11-11.36,37.69-1.88,6.31-3.64,12.65-5.53,18.95-4.49,14.96-3.96,29.66,1.87,44.22,2.59,6.46,4.99,13.04,6.89,19.73,4.7,16.61,8.37,33.74,17.94,48.34,6.96,10.62,15.66,20.08,23.4,30.2.95,1.24.73,3.38,1.05,5.11-1.78.03-4.2.81-5.21-.06-3.51-2.99-6.94-6.25-9.65-9.97-6.54-8.99-13.81-17.73-18.65-27.62-5.65-11.54-9.15-24.14-13.36-36.36-2.86-8.31-4.79-16.97-8.08-25.09-7.17-17.67-7.84-35.31-1.88-53.4,3.26-9.89,6-19.94,8.99-29.92,1.86-6.2,4.46-12.28,5.45-18.61,1.9-12.14,8.02-22.11,13.89-32.54,6.97-12.39,12.13-25.8,18.27-38.68,1.78-3.73,4.47-7.02,6.26-10.75,2.2-4.59,3.92-9.41,5.78-14.15,1.33-3.39,1.8-7.42,3.96-10.12,8.7-10.89,17.63-21.63,27.09-31.86,3.25-3.51,8.04-5.95,12.56-7.86,15.31-6.46,30.89-12.27,46.22-18.69,12.85-5.38,25.48-11.27,38.22-16.91,6.71-2.97,13.47-5.36,21.09-5.12,11.64.37,23.38-.77,34.93.32,13.48,1.27,27.03,3.39,40.11,6.81,7.29,1.91,13.69,7.23,20.5,11,8.13,4.49,16.09,9.32,24.44,13.35,11.25,5.43,19.59,14.08,27.96,22.95,15.61,16.55,28.47,35,40.09,54.52,6.65,11.16,14.92,21.36,22.52,31.95,1.46,2.03,3.01,4.32.12,5.8-1.24.63-4.31-.36-5.34-1.61-6.22-7.52-12.71-14.75-16.86-23.93-3.08-6.83-8.56-12.54-12.48-19.05-12.62-20.99-28.55-39.22-46.08-56.14-2.46-2.37-5.61-4.04-9.39-6.7ZM1078.91,506.18c-2.65,5.32-5.22,10.69-7.99,15.95-2.92,5.54-6.04,10.97-9.2,16.68,4.17,2.33,8.09,3.93,11.31,6.43,10.61,8.26,20.96,16.85,31.43,25.29,4.91,3.97,9.47,8.56,14.87,11.7,12.99,7.55,24.21,17.25,33.56,28.69,9.03,11.05,19.22,20.53,30.31,29.37,9.21,7.34,17.66,15.64,26.32,23.65,12.57,11.63,25.25,23.15,37.43,35.18,7.64,7.54,14.57,15.83,21.56,23.99,2.66,3.1,5.93,5.35,9.47,3.81,5.5-2.39,11.08-5.32,15.49-9.29,4.36-3.93,7.39-9.37,10.85-14.25,6.73-9.48,10.88-20.04,10.24-31.69-1.02-18.34,3.21-35.31,9.66-52.35,5.37-14.2,10.47-29.14,11.81-44.11,2.77-30.75,3.33-61.73,3.98-92.64.2-9.67-2.02-19.43-3.58-29.08-.44-2.71-1.75-6.21-3.82-7.55-8.46-5.46-17.38-10.22-26.13-15.24-3.2-1.76-6.4-3.52-9.61-5.28.4,3.04,1.59,5.21,2.46,7.49,2.63,6.96,6.78,13.84,7.35,20.99,1.11,13.88.82,27.96-.09,41.87-.85,12.89-3.79,25.64-4.88,38.53-1.56,18.54-2.16,37.16-3.4,55.73-.88,13.09-1.07,26.37-3.53,39.18-2.62,13.62-7.42,26.83-11.66,40.1-.44,1.39-3.93,3.19-5.24,2.71-10.14-3.73-19.97-8.07-27.79-16-8.28-8.4-16.8-16.58-25.31-24.74-6.76-6.48-14.04-12.46-20.42-19.29-5-5.35-8.68-11.92-13.46-17.5-14.67-17.12-29.61-34.02-44.41-51.03-2.4-2.75-5.31-5.31-6.85-8.51-4.87-10.14-13.71-14.24-23.7-17.19-3.75-1.11-7.36-2.95-10.77-4.91-4.86-2.79-9.26-6.48-14.3-8.84-3.26-1.53-7.3-1.38-11.48-2.07-.16,1.38-.33,2.79-.49,4.19ZM1081.35,496.36c10.45-1.1,17.34,3.1,24.18,8.27,4.11,3.1,9.16,5.12,14.02,7.01,10.14,3.95,20.18,7.68,25.19,18.68,1.4,3.08,4.05,5.66,6.39,8.22,6.71,7.32,13.66,14.44,20.33,21.8,4.91,5.41,9.48,11.13,14.28,16.64,13.86,15.89,27.5,31.98,41.75,47.51,7.51,8.19,16.56,14.97,24.05,23.17,7.18,7.87,15.49,13.35,26.12,16.83,3.42-11.35,7.34-22.48,10-33.91,1.6-6.86,1.23-14.19,1.72-21.31,1.12-16.24,2.19-32.49,3.33-48.73.74-10.62.55-21.43,2.57-31.8,4.01-20.54,5.14-41.15,5.23-62,.05-10.99-1.95-20.98-7.22-30.57-2.15-3.91-3.24-8.4-5.21-13.68-9.86-1.26-20.99-3.24-32.19-3.95-11.27-.71-22.65-.66-33.93.04-6.29.39-12.75,2.03-18.62,4.39-13.23,5.32-26.03,11.66-39.19,17.16-15.17,6.35-30.58,12.12-45.78,18.41-3.62,1.5-7.04,3.78-10.11,6.26-3.21,2.59-6.09,5.66-8.73,8.84-5.9,7.1-11.56,14.4-18.2,22.71Z"/>
  <path class="cls-9" d="M988.41,738.58c-5.62-7.64-8.67-16.33-10.8-25.48-1.35-5.81-3.5-11.43-4.86-17.24-2.15-9.19-4.87-18.39-5.68-27.72-1.62-18.79.42-37.32,4.68-55.86,6.68-29.07,19.77-55.13,34.58-80.58,4.93-8.47,9.6-17.1,14.67-25.48,12.32-20.37,25.93-40.07,42.83-56.7,18-17.71,39.12-31.41,61.96-43.01,30.69-15.6,63.39-22.08,96.75-26.95,9.97-1.46,20.16-2.25,30.22-2.04,11.58.24,23.16,1.61,34.67,3.09,12.84,1.66,25.86,2.99,38.32,6.3,15.02,3.98,30.09,8.69,42.46,18.89,5.64,4.65,10.98,9.66,16.37,14.62,1.16,1.07,1.91,2.58,2.85,3.88-.75-.2-1.62-.22-2.23-.63-9.36-6.28-19.13-12.06-27.89-19.09-9.12-7.31-19.44-9.38-30.47-10.22-5.78-.44-11.53-1.11-17.29-1.74-9.65-1.05-18.44-4.54-27.36-8.33-6.11-2.59-13.6-2.33-20.5-2.58-5.21-.19-10.58,2.89-15.56-1.22-.61-.5-1.96-.29-2.93-.16-8.54,1.13-17.14,1.97-25.61,3.56-12.86,2.41-25.64,5.26-38.42,8.09-7.45,1.64-14.92,3.29-22.21,5.51-4.7,1.43-9.41,3.39-13.55,6.02-6.44,4.1-13.31,6.95-20.38,9.7-14.46,5.63-26.7,14.86-37.8,25.49-13.42,12.85-27.25,25.41-39.45,39.36-8.54,9.77-14.37,21.87-21.92,32.56-13.3,18.82-20.72,40.44-30.1,61.15-3.76,8.31-9.12,15.95-12.39,24.42-3.13,8.11-5.65,16.8-6.34,25.41-1.03,12.85-.7,25.86-.04,38.76.56,10.89,2.08,21.77,3.85,32.54,1.03,6.32,3.57,12.37,5.06,18.63.95,4,1.08,8.2,1.86,12.25.47,2.4,1.78,4.64,2.21,7.04.46,2.53.32,5.17.44,7.76Z"/>
  <path class="cls-9" d="M1388.5,426.12c6.2,6.84,13.93,12.82,18.27,20.68,8.96,16.21,16.08,33.42,24.01,50.2,4.11,8.7,8.32,17.35,12.48,26.02,1.84,5.46,3.51,11,5.61,16.37,1.04,2.65,1.56,5.08-1.24,6.4-3.19,1.52-5.07-.98-6.09-3.49-3.31-8.12-6.73-16.22-9.43-24.54-5.31-16.34-14.12-30.98-21.6-46.27-5.74-11.74-11.14-23.65-16.77-35.44-1.61-3.38-3.49-6.63-5.24-9.94Z"/>
  <path class="cls-21" d="M1193.58,823.99c-7.41,4.51-14.43,9.9-22.3,13.35-15.77,6.91-32.49,8.22-49.49,5.44-.43-.07-.8-.54-1.19-.82,2.03-.34,4.05-.77,6.09-.99,6.63-.72,13.26-1.36,19.9-2.03,5.32-1,10.64-2,15.96-2.99,8.52-3.35,17.04-6.7,25.57-10.03,1.8-.7,3.64-1.29,5.47-1.93Z"/>
  <path class="cls-12" d="M1193.58,823.99c-1.82.64-3.67,1.23-5.47,1.93-8.53,3.33-17.05,6.68-25.57,10.03.85-.9,1.56-2.03,2.58-2.65,7.14-4.36,14.38-8.57,21.52-12.93,3.75-2.29,6.14-1.03,7.88,2.55-.31.36-.63.72-.94,1.08Z"/>
  <path class="cls-19" d="M1141.74,718.26c-.39-.29-2.37-1.16-2.31-1.86.11-1.32,1.2-3.42,2.23-3.64,3.88-.84,6.71-2.35,7.82-6.51.17-.62,3.5-1.14,3.59-.92.78,1.75,2.16,4.42,1.43,5.44-2.79,3.92-6.31,7.32-12.76,7.5Z"/>
  <path class="cls-19" d="M1057.61,609.34c-1-1.23-2.01-2.46-3.01-3.69,1.31-.75,2.68-2.21,3.93-2.13,3.56.24,7.09,1.11,10.62,1.73.19,3.01-1.44,4.04-4.21,3.99-2.44-.04-4.89.06-7.33.1Z"/>
  <path class="cls-19" d="M1006.8,608.12c-.94-1.67-1.88-3.34-2.83-5.01,2.05-.03,4.45-.76,6.06.06,3.04,1.56,8.01,2.12,6.35,7.73-3.2-.93-6.39-1.85-9.59-2.78Z"/>
  <path class="cls-27" d="M1057.61,609.34c2.44-.04,4.89-.14,7.33-.1,2.77.05,4.4-.98,4.21-3.99,1.43.74,2.87,1.48,4.3,2.22-.93,1.24-1.64,3.19-2.84,3.58-3.25,1.04-6.71,1.71-10.11,1.86-.91.04-1.93-2.32-2.9-3.57Z"/>
  <path class="cls-27" d="M1006.8,608.12c3.2.93,6.39,1.85,9.59,2.78.63,1.19,1.27,2.39,1.9,3.58-1.25.6-2.47,1.61-3.76,1.72-4.58.39-7.33-2.62-7.73-8.08Z"/>
  <path class="cls-7" d="M1082.01,466.07c-2.39,1.48-3.65,2.9-4.77,2.8-1.28-.11-2.45-1.57-3.66-2.44,1.22-1.02,2.32-2.56,3.7-2.87,1-.23,2.37,1.18,4.74,2.52Z"/>
  <path class="cls-27" d="M1292.37,401.42c1.27.76,2.53,1.51,3.8,2.27-1,1.17-1.82,3.08-3.02,3.37-2.36.55-6.31,4.3-6.66-2.08,4.43,1.82,5.44,1.2,5.89-3.55Z"/>
  <path class="cls-7" d="M1292.37,401.42c-.44,4.75-1.46,5.36-5.89,3.55.18-5.01,1.12-5.58,5.89-3.55Z"/>
  <path class="cls-12" d="M1201.58,822.85c-1.02-.3-2.04-.61-3.06-.91.43-.53.86-1.06,1.29-1.6.59.84,1.18,1.67,1.77,2.51Z"/>
  <path class="cls-9" d="M1387.42,424.29c.38.66.77,1.32,1.15,1.98-.38-.66-.77-1.32-1.15-1.98Z"/>
  <path class="cls-15" d="M880.86,660.98c-.9,1.12-2.47,2.19-2.55,3.36-.18,2.78-.25,5.84.71,8.37,1.88,4.94.35,8.18-3.1,11.84-6.66,7.07-15.15,12.57-19.26,22.01-.58,1.34-3.72,1.84-5.78,2.21-4.67.85-8.27,3.17-12.23,5.82-3.6,2.41-9.44,2.34-14.19,2-12-.87-22.91-5.82-33.08-11.74-22.49-13.1-45.75-25.32-66.53-40.81-20.73-15.45-38.2-34.91-49.81-58.78-5.36-11.03-11.01-21.95-17.12-32.57-6.15-10.7-18.32-16.09-29.9-12.25-6.15,2.04-11.26,7.24-16.86,10.97-1.98,1.32-4.04,2.53-6.07,3.79.64-3.47.18-7.93,2.19-10.17,3.01-3.36,3.15-5.22-.17-7.77,3.03-3.36,6.15-6.65,9.02-10.15.71-.87.6-2.42.98-4.16-11.36,2.55-14.76,12.69-21.49,18.04-2.68-.26-4.88-.64-7.07-.66-5.47-.05-6.23-1.21-3.68-6.11.59-1.14,1.43-2.15,2.16-3.22-.17,2.93.64,5.99,3.85,5.67,2.2-.22,4.54-2.5,6.16-4.41,3.12-3.71,5.19-8.49,8.78-11.55,3.27-2.79,4.83-5.06,3.14-9.06,1.31-3.25-.64-3.95-3.13-3.58-7.71,1.15-14.14,4.42-17.63,11.85-2.95,6.28-5.78,6.95-11.17,2.41,2.29-1.31,4.75-2.39,6.83-3.99,4.66-3.58,9.26-7.27,13.54-11.29.9-.85.29-3.31.38-5.02,8.21-5.04,15.08-13.42,25.7-12.76,6.77.42,13.98,1.82,19.97,4.82,13.04,6.52,25.37,14.44,38.08,21.62,10.08,5.7,15.5,15.12,20.61,24.9,1.68,3.22,3.61,6.3,5.53,9.39,3.13,5.01,6.33,9.98,9.53,14.95,1.17,1.81,2.02,4.17,3.68,5.27,10.01,6.61,14.48,17.56,21.23,26.68,6.68,9.05,12.82,18.5,19.24,27.74.75,1.07,1.8,1.94,2.71,2.9.5,1.46.57,3.78,1.55,4.26,10.82,5.3,21.5,11.13,32.81,15.14,9.21,3.26,19.22,4.23,28.87,6.26,2.57.54,5.12,1.77,7.65,1.69,1.54-.05,3.85-1.76,4.25-3.17.31-1.07-1.68-3.02-2.96-4.25-.85-.82-2.23-1.09-3.38-1.6,4.18-1.34,8.46-2.44,12.48-4.15,1.46-.62,2.3-2.71,3.42-4.12,1.03-2.78,1.99-5.58,3.11-8.32,1.25-3.05,3.64-6,3.76-9.06.26-6.8,1.08-13.28,2.99-19.89,2.12-7.34,4.14-9.55,11.92-11.42,2.77-.67,5.44-4.04,6.88-6.83.62-1.22-1.99-4.09-3.13-6.22,7.2-2.53,8.87-8.03,9.72-15.12.83-6.9.48-13.09-2.57-19.26-1.94-3.91.81-5.44,3.8-6.57,6.38-2.4,12.71-4.96,19.2-6.99,9.5-2.96,17.95-7.32,25.1-14.48,7.09-7.1,15.17-13.2,22.2-20.35,10.54-10.71,16.5-24.32,22.64-37.81,4.6-10.1,9.63-20.05,15.1-29.71,3.32-5.86,8.55-10.66,11.68-16.59,8.51-16.13,16.38-32.6,24.45-48.96.63-1.27.79-2.77.32-4.81-1.61,1.47-3.38,2.81-4.82,4.44-7.7,8.68-12.1,19.29-17.25,29.49-4.04,7.98-7.78,16.36-13.21,23.35-12.46,16.04-20.4,34.42-28.92,52.51-6.21,13.18-14.58,24.84-25.45,34.09-12.15,10.34-24.5,20.78-40.87,24.83-9.78,2.42-19.18,6.53-28.61,10.25-13.69,5.39-27.35,3.58-41.1.57-2.9-.64-5.98-1.84-8.76-1.41-8.05,1.24-13.31-3.26-19.06-7.58-4.72-3.54-9.99-6.41-15.24-9.16-6.76-3.53-13.86-6.41-20.55-10.06-2.31-1.26-4.45-3.67-5.59-6.07-2.99-6.29-5.3-12.9-8.06-19.31-1.17-2.71-2.96-5.15-4.14-7.86-.96-2.2-1.84-4.57-2.05-6.93-.38-4.32,1.12-6.09,5.91-4.27,2.45.93,5.61.54,8.3.02,1.16-.22,1.96-2.3,2.92-3.54-1.13-.76-2.28-2.21-3.38-2.17-12.86.49-19.59-9.34-27.59-16.66-2.06-1.89-2.86-6.13-2.75-9.23.41-11.59,1.19-23.19,2.33-34.74.57-5.84,2.2-11.58,3.34-17.36.57-.09,1.15-.18,1.72-.27.97,1.15,1.93,2.3,2.9,3.45-1.2,1.43-2.39,2.85-3.59,4.28,1.89,1.17,3.77,3.29,5.66,3.31,5.03.04,10.08-.77,15.1-1.38,2.59-.31,5.13-1.25,7.71-1.34,7.9-.26,11.01-3.28,11.07-11.19,2.53-5.01.91-12.34-3.75-16.61-1.31-1.2-2.8-2.21-4.21-3.31-1.67-1.92-3.33-3.84-5-5.76,8.19-4.72,16.49-9.27,24.47-14.31,1.73-1.09,3.07-3.86,3.36-6.01,2.31-17.6,4.85-35.14,10.83-51.97.33-.94.97-1.83,1.07-2.78.25-2.37.27-4.76.38-7.14-2.34-.01-4.73-.33-7.01.03-3.26.51-6.43,1.54-9.65,2.29-.55.13-1.18-.05-2.91-.15,3.2-2.94,6.32-4.83,8.09-7.58,8.63-13.46,22.81-15.91,36.66-19.09,3.84-.88,7.75-1.44,12.52-2.31-.54,3.7-.81,6.71-1.44,9.66-1.37,6.45,2.08,9.71,8.5,10.32,10.29.97,17.6-2.42,23.06-11.17,1.94-3.11,5.22-5.47,8.14-7.84,5.13-4.16,11.31-3.98,17.52-3.92,23.19.25,41.54,9.89,55.54,28.17.79,1.04,1.35,2.25,2.02,3.39-.28.32-.56.65-.84.97-14.25-7.04-28.2-15.18-45.11-12.78-1.8.26-3.57.79-5.33,1.29-3.77,1.05-5.61,2.96-6.5,7.4-3.81,19.05-4.37,38.3-4.78,57.59-.05,2.22.71,4.74-2.66,5.53-.58.13-1.37,2.35-1.05,2.72.74.86,2.11,1.64,3.22,1.63,7.27-.09,14.53-.39,21.8-.65,2.65-.09,5.31-.27,7.96-.4-3.67,5.06-3.39,10.58-1.9,16.24,1.61,3.06,2.48,7.18,5,8.93,3.95,2.74,8.9,4.3,13.65,5.53,3.59.93,4.83-1.7,2.98-5.57,6.64-2.96,13.03-6.33,17.66-12.16,1.98-2.5,4.74-5.26.26-8.1-5.43-12.97-8.9-26.4-9.63-41.12,5.96.33,11.86.56,17.74,1.08.86.08,1.86,1.41,2.33,2.38,2.73,5.54,7.58,8.62,12.76,11.36,8.43,4.46,17.11,8.13,26.93,7.43,1.79-.13,3.53-1.03,5.27-2.13-15.02-3.03-27.8-10.31-39.88-18.35,1.19-1.8,2.39-3.62,3.8-5.75,2.69,1.63,5.53,3.69,8.63,5.18,11.06,5.31,21.92,11.22,33.41,15.38,11.42,4.14,23.5,6.43,35.28,9.59,1.74.47,3.36,1.37,5.09,1.89,4.73,1.43,9.56,2.57,14.23,4.18,7.65,2.64,15.2,5.58,22.8,8.35,5.43,1.98,11.25,3.22,16.22,6.01,5.81,3.27,11.61,7.19,16.07,12.06,4.69,5.13,7.78,11.72,12.13,18.56-6.33,3.17-11.33,6.04-16.6,8.25-23.71,9.97-43.16,26.14-62.14,42.88-5.44,4.8-9.84,10.83-14.44,16.53-20.97,25.98-37.38,54.87-53.3,84.05-9.49,17.4-18.4,35.02-22.76,54.58-.37,1.66-2.47,3.15-4.09,4.25-1.47,1-3.48,1.16-5.04,2.07-.77.44-1.04,1.73-1.54,2.64,1,.36,2.04,1.11,2.97,1,1.59-.2,3.11-.96,5.1-1.63-1.64,8.12-3.2,15.87-4.78,23.62-.37,1.79-1.17,3.55-1.2,5.34-.37,21.47-1.01,42.94,7.31,63.46,1.98,4.88,2.52,10.34,4.25,15.34,3.23,9.37,6.85,18.6,10.61,28.7-7.56-1.23-15.39-2.5-23.22-3.78,2.39.12,4.84.57,7.16.23,1.58-.24,3.82-1.32,4.24-2.55.38-1.12-1.18-3.02-2.14-4.4-.39-.56-1.44-.7-2.23-.93-9.3-2.73-18.71-5.16-27.86-8.31-3.08-1.06-6.28-3.41-8.12-6.08-3.01-4.34-6.38-7.41-11.55-8.77-1.35-.35-3.33-2.34-3.25-3.46.52-7.82-3.69-12.33-9.89-15.89-1.39-.8-2.46-2.48-3.23-3.98-2.25-4.37-4.31-8.84-6.37-13.31-.57-1.25-1.52-2.79-1.21-3.9,1.3-4.62-.77-6.02-4.95-6.37-1.71-.14-3.3-1.37-5.02-1.84-1.09-.31-2.32-.15-3.48-.2ZM938.4,572.09c3.39,2.11,5.56.54,8-2.04,4.58-4.84,3.25-10.65,3.37-16.25.09-4.14-1.96-6.44-6.2-6.6-.93-.63-1.86-1.25-2.79-1.88-.63,1.55-1.9,3.15-1.77,4.63.75,8.34-.57,15.83-6.96,21.91-.94.89-.85,2.85-1.24,4.31,1.41-.39,2.94-.54,4.19-1.22,1.27-.69,2.27-1.89,3.39-2.86ZM909.85,408.46c.5-.71.99-1.41,1.49-2.12.59-1,1.19-2,1.78-2.99,7.23-8.62,8.39-14.62,3.17-19.18-1.15,1.58-3.03,3.03-3.24,4.69-.74,5.87-4.61,5.94-8.95,5.49-1.31-.14-2.62-.42-3.91-.7-11.98-2.61-23.66-3.9-35.21,2.54-8.95,4.98-18.59,8.7-27.86,13.11-8.66,4.11-16.71,2.98-24.38-2.43,3.41-4.89,8.24-5.71,13.78-5.14,3.83.39,7.71.22,11.57.29,3.32.25,4.31-1.89,4.73-4.62,2.61.97,4.81,1.01,7.09-1.27,5.04-5.03,11.37-7.56,18.35-8.83,3.31-.6,6.39-2.03,6.63-6.2,5.44.05,10.9.31,16.33.02,1.76-.09,3.45-1.62,5.17-2.49-1.78-1.38-3.44-3.74-5.35-3.97-5.37-.65-11.07-1.44-16.23-.3-7.85,1.73-15.74,4.25-22.89,7.88-7.82,3.97-13.77,12.5-24.35,8.2-.68-.28-1.63.11-2.46.17-15.43,1.18-26.22,10.28-35.78,21.26-2.19,2.52-3.82,5.73-.37,8.8,2.02,5.17,4.77,1.96,6.73.25,3.81-3.33,7.24-7.1,10.82-10.69q5.8,5.64.53,12.39c-.92,1.18-1.93,2.3-2.99,3.35-7.19,7.13-15.13,12.28-26.06,9.71,0-1.87.43-3.82-.12-5.44-.61-1.79-2.11-3.27-3.23-4.89-1.09,1.46-2.34,2.83-3.21,4.41-.44.79-.39,1.99-.23,2.95,1.02,6.14-2.31,10.52-6.07,14.56-1.65,1.77-4.4,2.56-5.95,4.39-1.28,1.51-2.67,4.58-1.98,5.77,1.64,2.79,4.09,1.47,6.19-.42,5.67-5.11,11.42-9.37,19.86-5.57,6.35,2.85,13.51,4.15,16.69,9.2-3.9,5.91-7.86,10.4-10.03,15.62-2.27,5.45-.39,12.24-4.71,17.35-.44.52-.27,1.61-.28,2.44-.06,4.77,1.63,5.81,6.24,4.47,5.26-1.53,5.72-6.45,7.81-10.25,1.28-1.49,2.73-2.87,3.78-4.51.65-1.03.28-2.99,1.08-3.61,4.36-3.37,7.44-9.09,14.4-7.92,1.69.28,3.54-.52,5.32-.63,4.26-.26,5.06-2.32,3.26-5.88,3.24-.69,6.56-1.17,9.7-2.18,1.24-.4,2.1-1.97,3.13-3.01-1.16-1.03-2.17-2.4-3.53-2.98-1.3-.56-2.96-.31-5.27-.47,7.22-5.53,13.69-10.34,19.98-15.36,5.76-4.6,11.33-9.45,16.98-14.19,1.71-1.69,3.42-3.38,5.14-5.07,1.83-7.19,8.06-7.24,13.63-8.85,2.94-.85,5.81-2.91,7.99-5.14,2.13-2.18,3.9-2.59,6.36-1.18.66,2.83,1.45,5.64,1.95,8.5,1.5,8.62,2.74,17.29,4.42,25.87.33,1.67,1.96,3.28,3.38,4.42.47.38,3.15-.77,3.18-1.29.08-1.81-.3-3.75-.98-5.45-4.3-10.69-8.26-21.37-2.99-32.92,0,0-.04.04-.04.04ZM1045.38,365.89c-2.78-2.44-4.15-.67-4,1.88.35,6.23.1,12.84,2.13,18.57,3.8,10.7,8.84,20.97,13.77,31.23,2.27,4.73,6.53,7.53,12.21,8.36-.41-2.06-1.33-3.69-2.6-4.99-1.92-1.98-4.08-3.74-6.14-5.59,3.49-.08,5.56-1.74,4.56-5.3-.8-2.82-2.02-5.7-3.74-8.05-6.15-8.38-10.1-17.35-8.9-28.01.24-2.13,1.22-4.38.76-6.31-.46-1.92-2.3-3.51-3.54-5.24-1.51,1.15-3.01,2.3-4.52,3.45ZM772.96,465.35c-1.28-1.63-2.55-3.26-3.83-4.88-1.11,1.8-2.6,3.47-3.22,5.42-.53,1.65.02,3.63-.04,5.45-.09,2.96.65,6.4-.6,8.79-6.34,12.11-2.38,22.84,4.6,32.59,2.13,2.97,7.69,5.07,11.52,4.84,5.26-.32,10.4-3.14,15.49-5.13,1.45-.57,2.84-1.77,3.79-3.03,2.48-3.3,4.47-6.96,7.06-10.16,4.82-5.97,9.99-11.51,17.82-13.81,5.25-1.54,10.38-3.58,15.38-5.8,1.21-.54,1.69-2.7,2.51-4.11-1.2-.59-2.62-1.94-3.56-1.66-6.67,1.95-13.34,3.97-19.82,6.47-7.86,3.03-13.15,9.34-18.6,15.46-4.37,4.89-6.91,11.24-14.36,13.62-8.71,2.79-13.65.85-15.42-8.39,4.49-8.77,9.73-17.28,9.3-27.72-.25-6.11-1.96-7.91-8.01-7.93ZM786.74,390.27c-4.17.06-9.12,8.51-7.24,11.34.62.93,3.42,1.68,3.59,1.43,2.13-3.21,4.12-6.56,5.73-10.06.25-.55-1.55-2.05-2.08-2.7Z"/>
  <path class="cls-6" d="M1212.82,374.81c-10.44,1.92-20.98,3.4-31.28,5.88-12.4,2.98-24.6,6.83-36.9,10.27-1.1.31-2.25.41-3.72.66-.31-2.43-.25-4.77-.93-6.87-4.34-13.44-15.12-21.42-26.39-27.86-9.19-5.24-19.86-7.96-29.98-11.48-9.95-3.46-19.96-6.79-30.08-9.7-12.04-3.46-24.64-5.33-36.23-9.85-13.67-5.33-26.52-12.76-39.72-19.28,4.88-4.92,5.72-9.97,2.26-13.47-4.98-5.05-3.76-10.5,3.3-12.18,5.07-1.21,10.48-1.41,15.73-1.31,2.5.05,5.04,1.71,7.44,2.9,4.65,2.31,9.09,5.06,13.83,7.14,4.79,2.1,9.86,3.55,14.77,5.41,7.09,2.68,13.94,6.41,21.26,7.94,6.54,1.37,13.57.43,20.38.42,14.97-.01,29.67.87,43.92,6.56,5.42,2.16,10.56,4.07,15.31,7.66,3.28,2.48,7.86,3.23,11.83,4.85,2.25.91,4.73,1.61,6.57,3.08,8.23,6.59,16.31,13.38,24.36,20.18,2.26,1.91,4.31,4.07,6.36,6.21,8.36,8.76,16.27,18.06,27.91,22.81Z"/>
  <path class="cls-1" d="M796.49,263.99c23.62-12.85,48.69-22.42,73.55-32.49,8.58-3.48,16.95-7.48,25.44-11.18,1.95-.85,4-1.49,6.01-2.22-.99,1.45-1.76,3.11-2.99,4.3-6.28,6.09-12.68,12.05-19.03,18.06-.84.8-1.95,1.49-2.41,2.47-.49,1.03-.82,3.15-.39,3.4,1.08.64,2.66.77,3.96.57.83-.13,1.54-1.19,2.26-1.87,9.89-9.28,19.73-18.61,29.67-27.84,3.6-3.35,7.43-6.45,11.16-9.67,7.1-3.83,7.36-3.6,10.93,2.94,9.7,17.79,19.8,35.36,29.24,53.28,2.4,4.56,3.78,10.07,4.07,15.23.61,10.7.18,21.46.18,32.56-5.24,0-10,.05-14.75-.03-1.49-.02-2.96-.46-4.45-.56-10.39-.69-10.33-.68-8.97,9.09.43,3.12.1,6.35.67,9.43.56,3.03,1.81,5.94,2.73,8.8-15.16,6.41-30.2,11.64-46.72,9.39.27-1.58.71-3.14.77-4.73.19-4.89-.61-9.99.51-14.64,3.56-14.75,7.26-29.42,6.99-44.74,4.8-.03,9.6-.06,14.41-.09,9.45,3.96,18.85,8.03,28.37,11.81,2.41.96,5.18,1,7.79,1.47.05-2.81.99-6.01-.05-8.34-1.72-3.86-4.37-7.47-7.23-10.63-14.9-16.44-33.33-24.99-55.76-25.33-8.7-.13-16.62,1.2-23.19,6.79-4.12,3.51-7.59,7.88-10.91,12.21-2.26,2.94-4.52,4.53-8.31,3.6-1.4-.34-3-.16-4.46.08-3.88.65-4.82-1.05-3.83-4.48,1.94-3.22,4.18-6.32,5.7-9.73.72-1.61.81-4.37-.12-5.66-1.72-2.4-4.03-1.36-5.77.68-7.13.87-14.35,1.3-21.36,2.74-7.73,1.59-15.27,4.1-22.9,6.21-.26-.3-.51-.59-.77-.89Z"/>
  <path class="cls-1" d="M743.88,306.86c13.55-16.39,26.71-33.24,47.75-40.88.94-.34,1.89-.63,2.84-.95.23.27.47.53.7.8-7.38,7.62-14.83,15.17-22.09,22.91-1.34,1.42-1.9,3.58-2.81,5.39,2.08.52,4.23,1.67,6.22,1.44,5.58-.64,11.1-1.85,17-2.9-.05.41-.01.98-.2,1.46-6.42,16.72-8.32,34.43-11.7,51.84-.69,3.52-4.2,7.48-7.49,9.32-8.05,4.52-16.64,8.14-25.18,11.71-7.77,3.25-15.77,5.95-25.1,9.42,0-9.69,0-19,0-28.31.08,2.06.25,4.12.23,6.18-.02,3-.56,6.64,3.52,7.03,4.21.41,4.62-3.11,4.33-6.21-1.01-10.69,1.88-20.6,5.76-30.33,1.34-3.35,2.31-7.07,4.48-9.8,2.16-2.71,2.56-5.12,1.73-8.13Z"/>
  <path class="cls-28" d="M1212.82,374.81c-11.64-4.75-19.54-14.06-27.91-22.81-2.05-2.14-4.1-4.3-6.36-6.21-8.05-6.81-16.13-13.6-24.36-20.18-1.84-1.47-4.33-2.17-6.57-3.08-3.96-1.61-8.55-2.36-11.83-4.85-4.74-3.59-9.89-5.5-15.31-7.66-14.25-5.69-28.96-6.57-43.92-6.56-6.81,0-13.85.95-20.38-.42-7.32-1.54-14.17-5.26-21.26-7.94-4.9-1.86-9.98-3.31-14.77-5.41-4.74-2.08-9.19-4.83-13.83-7.14-2.39-1.19-4.93-2.85-7.44-2.9-5.25-.1-10.66.1-15.73,1.31-7.06,1.68-8.28,7.13-3.3,12.18,3.46,3.51,2.61,8.55-2.26,13.47-1.05-1.46-2.96-2.89-3.01-4.38-.29-8.6-.14-17.21-.14-26.56,5.88-2.16,13.38-2.39,20.32-.47,10.66,2.95,21.79,5.85,31.17,11.39,15.1,8.93,31.19,12.15,48.08,12.68,14.52.46,28.89,1.85,42.91,5.45,7.64,1.96,15.29,4.78,22.16,8.6,10.85,6.04,21.12,13.14,31.49,20.01,11.62,7.7,23.08,15.65,34.6,23.49-.28.28-.56.57-.84.85-1.32-.35-2.63-.69-3.95-1.04-.13.27-.26.53-.38.8,3.83,2.68,7.66,5.35,11.48,8.03.68.31,1.36.63,2.04.94.12.08.23.16.35.24-.13-.06-.27-.13-.4-.19-.64-.35-1.28-.71-1.93-1.06-1.4-1.93-2.8-3.85-4.2-5.78.23-.23.44-.47.65-.72,8.03,4.19,16.07,8.37,25.46,13.27-7.8,1-14.22,1.83-20.65,2.65Z"/>
  <path class="cls-16" d="M623.04,569.88c4,5.59,7.89,11.27,12.01,16.76,5.84,7.78,12.38,15.08,17.67,23.21,6.74,10.35,12.47,21.36,18.76,32.01,2.85,4.83,5.36,10.08,9.16,14.07,5.16,5.43,10.91,10.66,17.3,14.48,8.45,5.04,14.24,12.15,19.64,19.91,1.32,1.89,3.01,3.52,4.43,5.34,4.55,5.85,9.05,11.74,13.57,17.61,9.98,12.96,19.85,26.02,30,38.85,5.3,6.7,11.09,13.02,16.71,19.47.85.98,1.9,1.84,2.98,2.57,3.32,2.25,4.21,4.88,1.57,8.23-6.79-7.05-13.19-14.55-20.46-21.06-9.82-8.78-17.11-19.22-23.6-30.52-5.52-9.6-11.37-19.11-18.07-27.9-6.6-8.66-13.29-18.05-22.05-24.05-9.84-6.73-18.3-14.48-25.77-23.32-8.1-9.59-15.26-20.01-22.46-30.32-7.12-10.2-13.6-20.84-20.72-31.04-4.88-7-10.35-13.58-16.16-21.13,1.85-1.07,3.67-2.13,5.49-3.18Z"/>
  <path class="cls-13" d="M880.86,660.98c1.17.05,2.39-.11,3.48.2,1.72.48,3.31,1.7,5.02,1.84,4.17.34,6.25,1.74,4.95,6.37-.31,1.1.63,2.65,1.21,3.9,2.06,4.47,4.12,8.94,6.37,13.31.77,1.5,1.84,3.18,3.23,3.98,6.2,3.56,10.41,8.07,9.89,15.89-.07,1.12,1.9,3.11,3.25,3.46,5.16,1.36,8.54,4.43,11.55,8.77,1.85,2.66,5.04,5.02,8.12,6.08,9.16,3.15,18.56,5.58,27.86,8.31.78.23,1.84.37,2.23.93.96,1.38,2.52,3.28,2.14,4.4-.41,1.22-2.65,2.31-4.24,2.55-2.32.35-4.77-.11-7.16-.23-12.62-2.23-23.87-7.93-34.06-15.24-6.67-4.78-12.04-11.38-17.99-17.16.3-7.71-.77-9.34-7.2-10.93l.22-.3s-.2.32-.2.32c-.3-.41-.6-.82-.9-1.23-4.48-6.09-9.33-11.95-13.29-18.36-1.98-3.21-2.38-7.41-3.39-11.19-.49-1.85-.74-3.76-1.1-5.64Z"/>
  <path class="cls-11" d="M494.25,373.38c7.93,3.64,13.43,10.07,18.97,16.46,2.27,2.61,4.73,5.06,6.94,7.73,1,1.21,2.12,2.71,2.26,4.17.84,9.06,1.52,18.13,2.04,27.21.34,6.05-1.04,6.47-6.59,4.17-7.29-3.01-11.66-9.02-16.68-14.45-.69-2.97-1.75-5.9-1.98-8.91-.54-6.88-.61-13.8-1.04-20.7-.13-2.07-.2-4.71-1.44-6.04-2.72-2.95-2.8-6.14-2.46-9.64Z"/>
  <path class="cls-16" d="M584.28,522.44c-1.7,1.29-3.4,2.59-6.09,4.64-2.6-4.48-4.99-8.62-7.4-12.75-.5-.85-.99-1.72-1.63-2.47-8.67-10.22-17.47-20.35-26-30.68-2.51-3.04-4.26-6.71-6.46-10.03-4-6.02-8.17-11.95-12.11-18.01-2.41-3.71-4.54-7.6-6.79-11.42.33-.36.67-.73,1-1.09,1.24.75,2.48,1.51,3.72,2.26.86,1.25,1.58,2.61,2.6,3.71,2.22,2.41,5.27,4.31,6.79,7.07,7.45,13.62,17.66,25.06,27.67,36.74,5.76,6.73,12,13.22,14.93,22.1.9,2.72,4.33,4.61,6.62,6.87,1.04,1.03,2.11,2.03,3.16,3.04Z"/>
  <path class="cls-24" d="M584.28,522.44c-1.05-1.01-2.12-2.01-3.16-3.04-2.29-2.26-5.72-4.15-6.62-6.87-2.93-8.88-9.17-15.38-14.93-22.1-10.01-11.68-20.21-23.12-27.67-36.74-1.51-2.76-4.56-4.66-6.79-7.07-1.01-1.1-1.74-2.46-2.6-3.71,3.35,1.19,5.46.06,6.41-3.73,2.53,9.24,8.93,15.73,14.14,22.96.76,1.06,1.62,2.22,2.71,2.85,9.27,5.31,13.52,14.33,18.55,23.17,5.03,8.85,11.74,16.8,18.22,24.72,2.04,2.5,5.74,3.65,9.61,5.98-3.23,1.47-5.56,2.53-7.88,3.59Z"/>
  <path class="cls-25" d="M874.28,595.84c1.14,2.12,3.76,5,3.13,6.22-1.43,2.79-4.11,6.16-6.88,6.83-7.79,1.87-9.81,4.08-11.92,11.42-1.91,6.61-2.73,13.09-2.99,19.89-.12,3.06-2.51,6.01-3.76,9.06-1.12,2.74-2.08,5.54-3.11,8.32-5.25-3.73-3.23-9.51-2.35-13.65,2.7-12.81,4.32-26.12,12.45-37.23,3.98-5.44,9.24-8.73,15.44-10.86Z"/>
  <path class="cls-25" d="M832.86,665.85c1.15.51,2.53.78,3.38,1.6,1.27,1.24,3.26,3.18,2.96,4.25-.4,1.41-2.71,3.12-4.25,3.17-2.53.08-5.08-1.15-7.65-1.69-9.65-2.03-19.67-2.99-28.87-6.26-11.31-4.01-21.98-9.85-32.81-15.14-.98-.48-1.06-2.79-1.55-4.26,9.17,3.67,18.3,7.46,27.54,10.95,5.69,2.15,11.61,3.69,17.32,5.8,7.86,2.91,15.83,3.02,23.93,1.58Z"/>
  <path class="cls-20" d="M904.89,283.55c.28,15.33-3.43,29.99-6.99,44.74-1.12,4.65-.32,9.75-.51,14.64-.06,1.58-.5,3.15-.77,4.73-2.51.74-4.24.54-3.97-2.81,1.46-18.33,2.94-36.67,4.24-55.01.37-5.18,3.06-7.25,7.93-7.2-.04.31-.01.61.07.91Z"/>
  <path class="cls-27" d="M743.88,306.86c.83,3.01.43,5.41-1.73,8.13-2.17,2.73-3.14,6.45-4.48,9.8-3.88,9.73-6.77,19.64-5.76,30.33.29,3.1-.12,6.62-4.33,6.21-4.07-.4-3.54-4.03-3.52-7.03.02-2.06-.15-4.12-.23-6.18,2.64-15.71,8.73-29.75,20.05-41.25Z"/>
  <path class="cls-27" d="M923.7,207.53c-3.73,3.21-7.55,6.32-11.16,9.67-9.94,9.23-19.78,18.56-29.67,27.84-.73.68-1.43,1.74-2.26,1.87-1.3.2-2.88.07-3.96-.57-.43-.26-.1-2.37.39-3.4.46-.99,1.57-1.68,2.41-2.47,6.35-6.01,12.75-11.97,19.03-18.06,1.23-1.19,2.01-2.85,2.99-4.3,0,0,.03-.01.03-.01.45-.25.89-.5,1.34-.75,6.95-3.27,13.91-6.53,20.86-9.8Z"/>
  <path class="cls-13" d="M608.97,531.64c1.69,4,.12,6.28-3.14,9.06-3.59,3.07-5.66,7.84-8.78,11.55-1.61,1.92-3.95,4.19-6.16,4.41-3.21.33-4.02-2.74-3.85-5.67,2.86-7.75,8.04-13.4,15.51-16.9,2.07-.97,4.28-1.65,6.42-2.46Z"/>
  <path class="cls-10" d="M494.25,373.38c-.34,3.5-.26,6.7,2.46,9.64,1.23,1.33,1.3,3.97,1.44,6.04.44,6.89.5,13.81,1.04,20.7.24,3,1.3,5.94,1.98,8.91-3.44-1.36-5.5-3.53-5.97-7.52-1.16-9.7-2.71-19.35-4.16-29.02-.29-1.95-1.02-3.84-1.24-5.8-.13-1.18.34-2.42.54-3.63,1.3.23,2.61.45,3.91.68Z"/>
  <path class="cls-3" d="M758.96,369.57c1.67,1.92,3.33,3.84,5,5.76-5.42,1.23-11.21,1.64-16.14,3.93-4.7,2.18-8.5,6.31-13.27,10.03-.94-3.1-1.97-6.47-3.26-10.71,9.51-3.1,18.59-6.05,27.66-9.01Z"/>
  <path class="cls-25" d="M771.92,395.25c-.06,7.91-3.17,10.93-11.07,11.19-2.58.09-5.13,1.03-7.71,1.34-5.02.61-10.07,1.42-15.1,1.38-1.9-.01-3.77-2.14-5.66-3.31,1.2-1.43,2.39-2.85,3.59-4.28,4.11.96,8.31,2.98,12.33,2.66,8.58-.69,16.75-3.38,23.63-8.98Z"/>
  <path class="cls-26" d="M945.69,359.24c-3.22-2.26-1.91-10.48-8.83-6.42-4.78,2.81-5.05,8.43-.91,13.35-4.32,1.74-6.79-1.27-8.67-3.61-3.43-4.26.24-7.85,2.43-11.1,2.12-3.14,10.92-5.37,13.09-3.94,2.78,1.83,4.39,7.94,2.89,11.72Z"/>
  <path class="cls-25" d="M597.79,522.03c-.09,1.72.52,4.17-.38,5.02-4.27,4.02-8.88,7.7-13.54,11.29-2.07,1.59-4.54,2.67-6.83,3.99-3.52-3.51-1.36-6.49,1.43-8.57,4.32-3.22,9.07-5.86,13.68-8.68,1.82-1.11,3.75-2.04,5.63-3.05Z"/>
  <path class="cls-25" d="M607.13,557.25c3.32,2.55,3.18,4.41.17,7.77-2.01,2.24-1.54,6.7-2.19,10.17-2.24-.03-4.49-.05-6.73-.08.32-3.45-.25-7.34,1.19-10.23,1.52-3.04,4.96-5.13,7.56-7.63Z"/>
  <path class="cls-26" d="M750.17,387.23c3.4-4.07,9.57-6.6,12.27-4.42,1.99,1.61,4.31,5.6,3.57,7.15-1.18,2.48-4.77,3.82-8.08,5.28.56-6.42-2.15-8.67-7.76-8.02Z"/>
  <path class="cls-25" d="M954.46,357.33c4.48,2.84,1.72,5.6-.26,8.1-4.62,5.83-11.01,9.21-17.66,12.16-.98-.49-1.96-.98-4.44-2.21,10.73-3.29,19.48-7.38,22.36-18.06Z"/>
  <path class="cls-3" d="M914.91,368.71c-1.49-5.66-1.77-11.18,1.9-16.24,1.23-.14,2.46-.27,3.2-.35v14.96c-1.43.46-3.27,1.04-5.11,1.63Z"/>
  <path class="cls-27" d="M841.51,255.93c1.74-2.05,4.05-3.08,5.77-.68.93,1.3.84,4.05.12,5.66-1.52,3.41-3.75,6.51-5.7,9.73-.07-4.9-.13-9.81-.2-14.71Z"/>
  <path class="cls-15" d="M899.52,697.39c6.43,1.59,7.5,3.22,7.2,10.93-2.4-3.64-4.8-7.29-7.2-10.93Z"/>
  <path class="cls-21" d="M904.89,283.55c-.08-.3-.1-.61-.07-.91,4.82.27,9.65.55,14.47.82-4.8.03-9.6.06-14.41.09Z"/>
  <path class="cls-28" d="M1205.18,356.82c.52.47,1.03.94,1.55,1.4,0,0-.25.26-.25.26-.71-.27-1.42-.54-2.14-.81.28-.28.56-.57.84-.85Z"/>
  <path class="cls-16" d="M517.8,441.72c-.14-.65-.28-1.3-.42-1.95.47.29.95.58,1.42.86-.33.36-.67.72-1,1.09Z"/>
  <path class="cls-1" d="M797.26,264.88c-.69.32-1.39.63-2.08.95-.23-.27-.47-.53-.7-.8.67-.35,1.34-.69,2.01-1.04.26.3.51.59.77.89Z"/>
  <path class="cls-28" d="M1206.73,358.22c.43.22.85.44,1.28.66-.21.25-.42.49-.65.71-.29-.37-.59-.74-.88-1.12l.25-.26Z"/>
  <path class="cls-15" d="M950.11,289.17c.1.49.2.97.31,1.46-.38-.16-.76-.32-1.14-.48.28-.32.56-.65.84-.97Z"/>
  <path class="cls-1" d="M902.84,217.33c-.45.25-.89.5-1.34.75.45-.25.89-.5,1.34-.75Z"/>
  <path class="cls-15" d="M898.64,696.18c.3.41.6.82.9,1.23-.3-.41-.6-.82-.9-1.23Z"/>
  <path class="cls-21" d="M1117.63,841.86c-.67-.3-1.35-.6-2.02-.9.67.3,1.35.6,2.02.9Z"/>
  <path class="cls-22" d="M1081.35,496.36c6.63-8.31,12.3-15.61,18.2-22.71,2.64-3.18,5.53-6.25,8.73-8.84,3.07-2.48,6.49-4.76,10.11-6.26,15.19-6.29,30.61-12.07,45.78-18.41,13.16-5.5,25.96-11.85,39.19-17.16,5.87-2.36,12.33-4,18.62-4.39,11.27-.69,22.66-.75,33.93-.04,11.21.71,22.33,2.69,32.19,3.95,1.97,5.28,3.06,9.77,5.21,13.68,5.27,9.59,7.27,19.57,7.22,30.57-.09,20.85-1.22,41.46-5.23,62-2.03,10.37-1.83,21.18-2.57,31.8-1.14,16.24-2.22,32.48-3.33,48.73-.49,7.12-.13,14.44-1.72,21.31-2.66,11.43-6.58,22.56-10,33.91-10.63-3.48-18.93-8.96-26.12-16.83-7.49-8.2-16.54-14.98-24.05-23.17-14.24-15.54-27.89-31.62-41.75-47.51-4.8-5.51-9.38-11.23-14.28-16.64-6.67-7.36-13.62-14.47-20.33-21.8-2.35-2.56-4.99-5.14-6.39-8.22-5.01-11-15.05-14.73-25.19-18.68-4.86-1.9-9.92-3.91-14.02-7.01-6.84-5.17-13.73-9.37-24.18-8.27ZM1242.71,491.69c1.04,1.13,1.91,2.75,3.18,3.19.66.23,2.23-1.5,3.05-2.6,1.38-1.85,2.75-3.8,3.63-5.91.55-1.34.79-3.52.05-4.47-.6-.78-2.84-.29-4.35-.37-1.79.35-4.71.18-5.17,1.16-1.27,2.73-4.69,5.88-.4,9ZM1198.2,495.29c-3.83-4.06-6.83-1.57-9.84,1.21-1.11,1.02-2.34,1.9-3.52,2.85,1.27,1.05,2.54,2.09,3.81,3.14-2.28,1.48-4.72,3.94-.95,5.23,2.94,1.01,8.2.45,9.94-1.57,2.12-2.46,1.64-7.16,2.29-10.89-.57,0-1.15.02-1.72.03ZM1241.63,578.34c1.35-2.03,2.94-3.72,2.66-4.12-1.13-1.64-2.71-3.08-4.41-4.12-.36-.22-2.92,2.16-2.82,2.33,1.12,1.82,2.57,3.45,4.57,5.91ZM1241.27,446.85c-2.26-1.49-3.53-3.01-4.67-2.91-1.43.12-2.76,1.57-4.13,2.44,1.15,1.31,2.16,3.5,3.47,3.69,1.29.19,2.88-1.64,5.32-3.22Z"/>
  <path class="cls-22" d="M1306.49,430.75c8.75,5.02,17.66,9.78,26.13,15.24,2.07,1.34,3.39,4.84,3.82,7.55,1.55,9.65,3.78,19.41,3.58,29.08-.65,30.9-1.21,61.88-3.98,92.64-1.35,14.96-6.44,29.9-11.81,44.11-6.45,17.04-10.68,34.02-9.66,52.35.65,11.65-3.51,22.21-10.24,31.69-3.47,4.88-6.49,10.32-10.85,14.25-4.4,3.97-9.99,6.9-15.49,9.29-3.54,1.53-6.81-.71-9.47-3.81-7-8.16-13.93-16.45-21.56-23.99-12.18-12.03-24.86-23.55-37.43-35.18-8.66-8.01-17.11-16.31-26.32-23.65-11.09-8.84-21.28-18.32-30.31-29.37-9.36-11.44-20.57-21.14-33.56-28.69-5.4-3.14-9.96-7.73-14.87-11.7-10.47-8.44-20.82-17.04-31.43-25.29-3.22-2.5-7.14-4.1-11.31-6.43,3.16-5.7,6.28-11.14,9.2-16.68,2.77-5.26,5.33-10.63,7.99-15.95,3.31,1.5,6.61,3.01,9.93,4.49,5.43,2.42,10.66,5.62,16.34,7.07,10.6,2.71,20.14,6.58,26.62,15.98,1.1,1.59,3.03,2.57,4.42,3.99,4.24,4.36,9.34,8.23,12.39,13.32,7.35,12.27,15.53,23.49,27.66,31.54,2.72,1.8,6.33,4.02,4.62,8.75-.26.72.88,2.06,1.56,2.98,5.72,7.72,11.28,15.57,17.35,23.01,2.45,3.01,5.68,5.98,9.19,7.39,6.14,2.48,9.98,6.94,13.4,12.09,5.49,8.27,11.77,15.69,20.85,20.27,1.02.51,2,1.25,2.75,2.11,7.9,9.01,18.67,13.68,28.95,19.04,3.44,1.8,9.81.39,11.2-2.7,3.66-8.16,7.47-16.33,10.21-24.81,4.26-13.22,5.07-27.06,4.82-40.85-.36-20.3.41-40.45,4.03-60.49,2.32-12.86,5.01-25.78,5.83-38.77,1.67-26.73.15-53.41-4.53-79.84Z"/>
  <path class="cls-20" d="M1306.49,430.75c4.69,26.43,6.2,53.11,4.53,79.84-.81,13-3.5,25.91-5.83,38.77-3.62,20.03-4.39,40.19-4.03,60.49.25,13.78-.56,27.63-4.82,40.85-2.74,8.49-6.55,16.65-10.21,24.81-1.39,3.09-7.76,4.5-11.2,2.7-10.28-5.37-21.05-10.03-28.95-19.04-.75-.85-1.73-1.59-2.75-2.11-9.08-4.58-15.36-12-20.85-20.27-3.42-5.15-7.26-9.61-13.4-12.09-3.51-1.41-6.74-4.39-9.19-7.39-6.06-7.44-11.62-15.29-17.35-23.01-.68-.92-1.82-2.26-1.56-2.98,1.7-4.73-1.91-6.95-4.62-8.75-12.13-8.05-20.31-19.27-27.66-31.54-3.05-5.09-8.15-8.96-12.39-13.32-1.38-1.42-3.32-2.4-4.42-3.99-6.48-9.4-16.01-13.27-26.62-15.98-5.68-1.45-10.91-4.64-16.34-7.07-3.32-1.48-6.62-2.99-9.93-4.49.17-1.41.33-2.81.49-4.19,4.18.69,8.22.54,11.48,2.07,5.04,2.37,9.44,6.05,14.3,8.84,3.41,1.96,7.02,3.8,10.77,4.91,9.99,2.95,18.83,7.06,23.7,17.19,1.54,3.2,4.45,5.75,6.85,8.51,14.81,17.01,29.74,33.91,44.41,51.03,4.78,5.58,8.46,12.15,13.46,17.5,6.38,6.83,13.66,12.81,20.42,19.29,8.52,8.16,17.03,16.34,25.31,24.74,7.82,7.93,17.66,12.28,27.79,16,1.31.48,4.79-1.32,5.24-2.71,4.23-13.27,9.04-26.48,11.66-40.1,2.46-12.82,2.65-26.09,3.53-39.18,1.24-18.57,1.83-37.19,3.4-55.73,1.09-12.89,4.03-25.64,4.88-38.53.92-13.92,1.2-28,.09-41.87-.57-7.15-4.72-14.03-7.35-20.99-.86-2.29-2.05-4.45-2.46-7.49,3.2,1.76,6.4,3.52,9.61,5.28Z"/>
  <path class="cls-2" d="M798.99,490.28c-2.09,3.8-2.55,8.73-7.81,10.25-4.62,1.34-6.3.29-6.24-4.47,0-.83-.16-1.92.28-2.44,4.32-5.12,2.44-11.9,4.71-17.35,2.18-5.22,6.13-9.71,10.03-15.62-3.18-5.05-10.34-6.35-16.69-9.2-8.45-3.8-14.2.46-19.86,5.57-2.1,1.89-4.55,3.21-6.19.42-.69-1.18.7-4.25,1.98-5.77,1.54-1.83,4.29-2.62,5.95-4.39,3.76-4.04,7.1-8.42,6.07-14.56-.16-.96-.21-2.16.23-2.95.87-1.58,2.12-2.95,3.21-4.41,1.11,1.62,2.62,3.1,3.23,4.89.55,1.62.12,3.57.12,5.44,10.94,2.57,18.88-2.58,26.06-9.71,1.06-1.05,2.07-2.17,2.99-3.35q5.28-6.74-.53-12.39c-.18-1.3-.35-2.6-.53-3.9,0,0-.12.12-.12.12.35-.04.7-.07,1.05-.11,1.94.17,3.88.34,5.82.51,7.67,5.42,15.72,6.54,24.38,2.43,9.27-4.4,18.92-8.12,27.86-13.11,11.55-6.43,23.23-5.15,35.21-2.54,1.29.28,2.6.57,3.91.7,4.34.45,8.21.37,8.95-5.49.21-1.66,2.09-3.1,3.24-4.69,5.22,4.56,4.06,10.55-3.17,19.18-1.89-4.44-3.86-4.51-7.64-.23-.59-.55-1.18-1.1-1.77-1.64-1.86-.39-3.84-1.38-5.54-1.03-3.5.72-6.86,2.13-10.25,3.32-5.33,1.87-10.18,4.43-13.17,9.55-1.35,1.29-2.71,2.57-4.06,3.86-.86.32-2.39.51-2.48.98-.66,3.47-1.07,6.99-1.46,10.5-.03.25.69.58,1.06.87-5.65,4.74-11.22,9.59-16.98,14.19-6.29,5.03-12.76,9.83-19.98,15.36,2.32.16,3.97-.09,5.27.47,1.35.58,2.36,1.96,3.53,2.98-1.03,1.04-1.89,2.61-3.13,3.01-3.14,1.01-6.45,1.49-9.7,2.18-2.46.18-4.92.45-7.39.53-7.92.27-13.46,5.57-18.66,10.25-2.28,2.05-1.29,7.74-1.79,11.77ZM810.85,466.15c1.62-.28,3.53-.11,4.82-.93,4.75-3,9.35-6.25,13.87-9.59,1.18-.87,1.88-2.4,2.8-3.63-1.49-.58-2.98-1.16-4.47-1.74-7.81,1.06-15.65,1.92-23.39,3.34-1.35.25-3.22,2.87-3.17,4.33.1,2.71,1.45,5.36,2.28,8.04l.91-1.29c1.5.61,2.97,1.29,4.51,1.77.53.17,1.22-.19,1.84-.31Z"/>
  <path class="cls-4" d="M771.67,501.01c1.77,9.24,6.71,11.17,15.42,8.39,7.45-2.38,10-8.72,14.36-13.62,5.45-6.12,10.74-12.42,18.6-15.46,6.48-2.5,13.15-4.52,19.82-6.47.94-.28,2.36,1.07,3.56,1.66-.82,1.42-1.3,3.58-2.51,4.11-5,2.23-10.13,4.26-15.38,5.8-7.83,2.3-13,7.83-17.82,13.81-2.58,3.2-4.58,6.87-7.06,10.16-.95,1.26-2.34,2.46-3.79,3.03-5.1,1.99-10.24,4.8-15.49,5.13-3.82.24-9.39-1.87-11.52-4.84-6.99-9.75-10.94-20.48-4.6-32.59,1.25-2.38.51-5.83.6-8.79.06-1.83-.49-3.8.04-5.45.62-1.95,2.11-3.63,3.22-5.42,1.28,1.63,2.55,3.26,3.83,4.88-.11,1.81-.12,3.64-.34,5.43-.59,4.82-.31,10.04-2.14,14.35-2.5,5.88-2.05,10.79,1.19,15.87Z"/>
  <path class="cls-4" d="M788.96,420.67c-3.45-3.07-1.83-6.28.37-8.8,9.56-10.98,20.35-20.08,35.78-21.26.83-.06,1.78-.45,2.46-.17,10.57,4.3,16.53-4.24,24.35-8.2,7.14-3.63,15.04-6.15,22.89-7.88,5.16-1.14,10.86-.35,16.23.3,1.92.23,3.58,2.58,5.35,3.97-1.72.87-3.41,2.4-5.17,2.49-5.43.29-10.88.03-16.33-.02-1.77.33-3.7.32-5.28,1.06-8.05,3.77-16.05,7.65-23.97,11.7-1.23.63-1.9,2.33-2.83,3.54-.42,2.73-1.41,4.87-4.73,4.62-11.2-7.18-21.46-4.28-31.31,2.93-.3.5-.61,1.01-.91,1.51,0,0,.12-.12.12-.12-2.53,1.97-5.14,3.87-7.58,5.94-3.21,2.72-6.3,5.59-9.44,8.4Z"/>
  <path class="cls-25" d="M1045.38,365.89c1.51-1.15,3.01-2.3,4.52-3.45,1.24,1.73,3.08,3.32,3.54,5.24.46,1.93-.52,4.19-.76,6.31-1.2,10.66,2.75,19.63,8.9,28.01,1.72,2.35,2.95,5.23,3.74,8.05,1,3.56-1.07,5.22-4.56,5.3-6.96-15.92-16.15-31.14-15.38-49.46Z"/>
  <path class="cls-7" d="M1045.38,365.89c-.77,18.32,8.41,33.55,15.38,49.46,2.06,1.85,4.22,3.61,6.14,5.59,1.26,1.3,2.19,2.93,2.6,4.99-5.68-.83-9.94-3.63-12.21-8.36-4.93-10.26-9.98-20.54-13.77-31.23-2.03-5.73-1.78-12.33-2.13-18.57-.14-2.55,1.22-4.32,4-1.88Z"/>
  <path class="cls-8" d="M870.7,417.17c1.35-1.29,2.71-2.57,4.06-3.86,1.47-.25,3.11-.17,4.37-.83,2.87-1.49,5.4-3.71,8.34-4.97,5.3-2.27,10.82-4.05,16.24-6.04.59.55,1.18,1.09,1.77,1.64,3.78-4.29,5.75-4.21,7.64.23-.59,1-1.19,2-1.78,2.99-.5.71-.99,1.41-1.49,2.12,0,0,.04-.04.04-.04-2.99.29-5.97.58-8.96.86-2.46-1.41-4.23-1-6.36,1.18-2.18,2.22-5.05,4.29-7.99,5.14-5.57,1.61-11.8,1.66-13.63,8.85-.75-2.43-1.5-4.85-2.25-7.28Z"/>
  <path class="cls-25" d="M771.67,501.01c-3.25-5.08-3.69-9.99-1.19-15.87,1.83-4.31,1.55-9.53,2.14-14.35.22-1.8.23-3.62.34-5.43,6.05.03,7.76,1.82,8.01,7.93.43,10.45-4.81,18.95-9.3,27.72Z"/>
  <path class="cls-7" d="M900.93,409.28c2.99-.29,5.97-.58,8.96-.86-5.27,11.55-1.31,22.23,2.99,32.92.68,1.7,1.06,3.65.98,5.45-.02.52-2.7,1.67-3.18,1.29-1.43-1.14-3.06-2.75-3.38-4.42-1.68-8.58-2.92-17.25-4.42-25.87-.5-2.86-1.29-5.67-1.95-8.5Z"/>
  <path class="cls-25" d="M798.99,490.28c.5-4.03-.49-9.72,1.79-11.77,5.2-4.68,10.74-9.98,18.66-10.25,2.47-.09,4.93-.35,7.39-.53,1.8,3.56.99,5.63-3.26,5.88-1.79.11-3.63.91-5.32.63-6.96-1.17-10.05,4.56-14.4,7.92-.8.62-.42,2.58-1.08,3.61-1.04,1.64-2.5,3.02-3.78,4.51Z"/>
  <path class="cls-7" d="M938.4,572.09c-1.12.98-2.12,2.17-3.39,2.86-1.25.68-2.78.84-4.19,1.22.39-1.46.31-3.42,1.24-4.31,6.39-6.08,7.71-13.57,6.96-21.91-.13-1.48,1.14-3.08,1.77-4.63.93.63,1.86,1.25,2.79,1.88-.16.95-.63,1.98-.42,2.85,1.94,8.13-.85,15.19-4.76,22.04Z"/>
  <path class="cls-25" d="M938.4,572.09c3.91-6.84,6.7-13.91,4.76-22.04-.21-.87.26-1.9.42-2.85,4.24.16,6.29,2.46,6.2,6.6-.12,5.6,1.2,11.41-3.37,16.25-2.44,2.58-4.61,4.15-8,2.04Z"/>
  <path class="cls-13" d="M842.82,397.38c.93-1.21,1.61-2.91,2.83-3.54,7.91-4.05,15.91-7.94,23.97-11.7,1.58-.74,3.51-.72,5.28-1.06-.24,4.17-3.32,5.6-6.63,6.2-6.98,1.26-13.32,3.8-18.35,8.83-2.28,2.28-4.48,2.25-7.09,1.27Z"/>
  <path class="cls-3" d="M806.77,404.93c9.85-7.21,20.11-10.11,31.31-2.93-3.86-.08-7.75.1-11.57-.29-5.54-.57-10.37.25-13.78,5.14-1.94-.17-3.88-.34-5.82-.51-.05-.47-.09-.94-.14-1.4Z"/>
  <path class="cls-7" d="M786.74,390.27c.53.66,2.33,2.15,2.08,2.7-1.61,3.5-3.59,6.85-5.73,10.06-.17.25-2.97-.5-3.59-1.43-1.88-2.83,3.06-11.28,7.24-11.34Z"/>
  <path class="cls-25" d="M788.96,420.67c3.14-2.81,6.23-5.68,9.44-8.4,2.45-2.08,5.05-3.97,7.58-5.94.18,1.3.35,2.6.53,3.9-3.58,3.59-7.01,7.36-10.82,10.69-1.96,1.71-4.71,4.92-6.73-.25Z"/>
  <path class="cls-17" d="M870.7,417.17c.75,2.43,1.5,4.85,2.25,7.28-1.71,1.69-3.42,3.38-5.13,5.07-.37-.29-1.08-.62-1.06-.87.39-3.51.79-7.03,1.46-10.5.09-.47,1.62-.66,2.48-.98Z"/>
  <path class="cls-7" d="M909.85,408.46c.5-.71.99-1.41,1.49-2.12-.5.71-.99,1.41-1.49,2.12Z"/>
  <path class="cls-6" d="M1206.48,358.48c.29.37.59.74.88,1.12,1.4,1.93,2.8,3.86,4.2,5.78,0,0-.06.07-.06.07-3.83-2.68-7.66-5.35-11.48-8.03.13-.27.26-.53.38-.8,1.32.34,2.63.69,3.95,1.04.71.27,1.42.54,2.14.81Z"/>
  <path class="cls-6" d="M1213.53,366.4c-.68-.31-1.36-.63-2.04-.94,0,0,.06-.07.06-.07.64.35,1.28.71,1.93,1.06l.05-.05Z"/>
  <path class="cls-6" d="M1213.48,366.44c.13.06.27.13.4.19-.12-.08-.23-.16-.35-.24,0,0-.05.05-.05.05Z"/>
  <path class="cls-19" d="M1188.65,502.49c-1.27-1.05-2.54-2.09-3.81-3.14,1.18-.95,2.42-1.83,3.52-2.85,3.01-2.79,6.01-5.28,9.84-1.21.02,5.88-1.32,6.89-9.55,7.2Z"/>
  <path class="cls-9" d="M1188.65,502.49c8.23-.31,9.58-1.32,9.55-7.2.57-.01,1.15-.02,1.72-.03-.65,3.73-.17,8.44-2.29,10.89-1.74,2.01-7,2.57-9.94,1.57-3.76-1.29-1.33-3.75.95-5.23Z"/>
  <path class="cls-27" d="M1248.27,481.53c1.51.08,3.75-.41,4.35.37.73.95.5,3.13-.05,4.47-.87,2.11-2.24,4.06-3.63,5.91-.82,1.1-2.39,2.82-3.05,2.6-1.28-.44-2.15-2.06-3.19-3.19,4.9-1.72,5.49-5.8,5.57-10.16Z"/>
  <path class="cls-19" d="M1248.27,481.53c-.08,4.36-.67,8.44-5.57,10.16-4.29-3.12-.87-6.26.4-9,.45-.98,3.37-.81,5.17-1.16Z"/>
  <path class="cls-19" d="M1241.63,578.34c-2-2.46-3.45-4.08-4.57-5.91-.1-.17,2.45-2.55,2.82-2.33,1.7,1.04,3.29,2.48,4.41,4.12.28.4-1.31,2.09-2.66,4.12Z"/>
  <path class="cls-19" d="M1241.27,446.85c-2.44,1.58-4.03,3.41-5.32,3.22-1.31-.19-2.33-2.38-3.47-3.69,1.37-.87,2.69-2.32,4.13-2.44,1.14-.1,2.41,1.42,4.67,2.91Z"/>
  <path class="cls-8" d="M827.87,450.26c1.49.58,2.98,1.16,4.47,1.74-.92,1.23-1.62,2.76-2.8,3.63-4.52,3.34-9.12,6.59-13.87,9.59-1.29.81-3.19.64-4.82.93-.48-1.47-.53-3.37-1.51-4.32-2.5-2.43-2.58-5.68.44-7.08,1.12-.52,2.64-.1,3.9-.44,4.75-1.27,9.47-2.68,14.19-4.04Z"/>
  <path class="cls-17" d="M827.87,450.26c-4.73,1.36-9.44,2.77-14.19,4.04-1.25.34-2.77-.08-3.9.44-3.01,1.4-2.94,4.65-.44,7.08.98.95,1.03,2.86,1.51,4.32-.62.12-1.31.47-1.84.31-1.54-.48-3.01-1.17-4.51-1.77l-.91,1.29c-.83-2.68-2.18-5.34-2.28-8.04-.05-1.46,1.82-4.08,3.17-4.33,7.74-1.42,15.58-2.29,23.39-3.34Z"/>
  <path class="cls-17" d="M903.71,401.47c-5.42,1.99-10.94,3.77-16.24,6.04-2.95,1.26-5.47,3.48-8.34,4.97-1.26.65-2.9.57-4.37.83,2.99-5.11,7.84-7.67,13.17-9.55,3.39-1.19,6.75-2.6,10.25-3.32,1.7-.35,3.68.64,5.54,1.03Z"/>
  <path class="cls-25" d="M806.77,404.93c.05.47.09.94.14,1.4-.35.04-.7.07-1.05.11.3-.5.61-1.01.91-1.51Z"/>
</svg>