<?xml version="1.0" encoding="UTF-8"?>
<svg id="Ebene_2" data-name="Ebene 2" xmlns="http://www.w3.org/2000/svg" version="1.1" viewBox="0 0 1616.98 516.86">
  <defs>
    <style>
      .cls-1 {
        fill: #d89330;
      }

      .cls-1, .cls-2, .cls-3, .cls-4, .cls-5, .cls-6 {
        stroke-width: 0px;
      }

      .cls-2 {
        fill: #000;
      }

      .cls-7 {
        fill: none;
        stroke: #fff6e9;
        stroke-linecap: round;
        stroke-linejoin: round;
        stroke-width: 8px;
      }

      .cls-3 {
        fill: #fbd992;
      }

      .cls-4 {
        fill: #d70211;
      }

      .cls-5 {
        fill: #fff;
      }

      .cls-6 {
        fill: #e3855f;
      }
    </style>
  </defs>
  <path class="cls-2" d="M1136.66,240.36c-30.03,22.26-71.87,32.9-135.68,34.49-3.69.09-6.67,3.03-6.82,6.71-.06,1.36-5.64,136.17-6.15,165-.02.9-.04,1.77-.05,2.64-20.03,8.84-38.32,9.26-57.27,1.41-21-8.71-23.95-34.11-24.24-44.62-.43-15.43-8.67-18.27-11.92-18.79,3.24-11.46,6.13-23,8.16-34.54,1.99,1.85,4.48,3.04,7.65,3.57,1.37.23,2.77.52,4.12.79,9.21,1.9,23.13,4.76,28.38-17.41.99-4.14,5.19-19.2,17.98-38.77,12.8-19.57,29.65-36.91,50.07-51.52,42.69-30.56,117.81-45.38,142.17-48.22,1.03,8.94.53,26.71-16.4,39.26Z"/>
  <path class="cls-2" d="M869.09,271.14c.48-14.11.5-26.8.02-37.46l-.03-.64c-.19-4.36-.42-9.47-.58-15.17,5.63,13.93,9.96,26.08,15.61,52.31l-15.02.96Z"/>
  <path class="cls-1" d="M1017.83,8.88c-15.07,9.26-20.85,11.51-28.49,3.53-2.35-2.98-4.62-7.27-6.78-12.41h32.32c.99,3.21,1.98,6.2,2.95,8.88Z"/>
  <path class="cls-1" d="M1289.07,129.07c-122.38,12.19-302.66,4.87-407.88-9.34,5.96-16.22,14.54-31.56,26.85-44.33,35.94-37.27,64.61-48.02,73.9-50.71,14.13,12.33,27.91,5.58,44.22-4.5.99-.61,2.08-1.28,3.28-1.99.42-.2.82-.43,1.19-.7,13.84-7.94,42.09-19.8,117.74-14.82,25.84,1.7,90.42,14.7,131.86,98.43,2.49,5.05,4.41,9.86,5.87,14.69.05.17.1.33.16.5,1.24,4.18,2.15,8.38,2.81,12.77Z"/>
  <path class="cls-4" d="M1029.57,0h5.09c-1.55.66-3.02,1.33-4.42,2-.22-.65-.45-1.32-.67-2Z"/>
  <path class="cls-4" d="M1431.28,355.36c-5.91-9.44-15.6-23.76-28.86-39.59-20.61-24.62-53.95-57.45-96.94-76.07-.41-4.06-.68-8.12-.78-12.17-.54-20.59-.33-36.97-.15-51.43.12-9.44.22-17.76.09-25.37,5.59-3.28,13.6-9.36,13.64-18.54.05-10.5-10.47-18-19.57-22.99-1.56-4.67-3.5-9.38-5.94-14.3-6.9-13.94-22.2-40.76-47.19-63.76-14.79-13.6-30.79-24-47.88-31.14h241.75c8.33,28.13,16.79,60.2,21.54,88.09,10.74,63.07,25.32,148.7-29.71,267.27Z"/>
  <path class="cls-6" d="M1601.26,516.86h-169.38c.11-.99.21-1.97.32-2.94.75-6.83,1.55-13.38,2.38-19.62.23-1.78.47-3.54.71-5.27.62-4.43,1.24-8.68,1.87-12.76.24-1.51.47-3.01.7-4.48.25-1.54.5-3.06.74-4.56.42-2.49.83-4.9,1.24-7.23.2-1.16.4-2.29.6-3.4.24-1.32.48-2.62.71-3.88.72-3.88,1.42-7.48,2.08-10.79,2.87-14.27,5.48-24.99,7.17-31.47,47.12,16.68,82.57,30.73,118.1,64.66.62.59,1.23,1.18,1.83,1.77.98.95,1.94,1.91,2.86,2.85.35.35.68.69,1.02,1.03,2.67,2.76,5.16,5.48,7.47,8.13.25.31.52.61.77.91,1.25,1.45,2.44,2.89,3.57,4.3.29.36.57.71.84,1.06.29.35.56.7.83,1.05s.54.7.8,1.04c.24.31.46.61.69.91.29.38.58.77.86,1.15.5.67.99,1.33,1.46,1.99,1.04,1.44,2.02,2.86,2.94,4.25.23.34.46.68.68,1.02.98,1.48,1.89,2.93,2.74,4.34.32.52.63,1.04.93,1.55.89,1.51,1.71,2.97,2.47,4.39Z"/>
  <path class="cls-6" d="M827.46,516.86h-217.69c.03-.09.06-.17.09-.26.01-.04.02-.07.04-.11.13-.41.28-.8.42-1.21.01-.04.03-.07.04-.11.09-.25.18-.49.27-.74.17-.46.34-.91.52-1.37.21-.55.42-1.1.65-1.65.18-.47.37-.93.57-1.39.18-.43.36-.86.55-1.29.04-.09.08-.18.12-.27.2-.46.4-.91.61-1.37.29-.64.59-1.29.89-1.93.91-1.92,1.88-3.83,2.91-5.73.27-.51.54-1.01.82-1.51.03-.06.07-.12.1-.18,1.59-2.86,3.29-5.67,5.09-8.45.34-.53.69-1.06,1.03-1.58.05-.07.1-.15.15-.22.61-.92,1.23-1.83,1.87-2.73.68-.98,1.38-1.96,2.08-2.93.45-.63.91-1.25,1.38-1.88.46-.62.93-1.24,1.41-1.86,1.89-2.47,3.84-4.9,5.85-7.28.49-.59,1-1.19,1.51-1.78.02-.03.04-.06.07-.09,1-1.14,1.99-2.28,3-3.4.52-.58,1.03-1.15,1.56-1.72.51-.57,1.04-1.14,1.57-1.7.53-.56,1.05-1.12,1.58-1.68.53-.56,1.06-1.11,1.59-1.66.53-.55,1.06-1.1,1.6-1.64.54-.54,1.07-1.08,1.61-1.61.54-.54,1.08-1.07,1.62-1.6.54-.53,1.08-1.06,1.62-1.57.54-.53,1.08-1.04,1.62-1.55.54-.52,1.09-1.03,1.63-1.53.54-.51,1.08-1.01,1.62-1.5.55-.5,1.1-1,1.65-1.5,1.08-.97,2.15-1.92,3.23-2.86l.05-.05c1.06-.92,2.12-1.83,3.18-2.73,1.66-1.41,3.3-2.77,4.93-4.08.48-.39.96-.78,1.43-1.15.53-.43,1.05-.84,1.57-1.24.85-.67,1.7-1.33,2.54-1.98.72-.55,1.44-1.1,2.14-1.63.48-.35.95-.71,1.42-1.06.69-.51,1.36-1.01,2.03-1.49.8-.57,1.58-1.14,2.36-1.69,1.07-.76,2.11-1.48,3.14-2.18.49-.34.98-.67,1.47-1,.35-.24.7-.47,1.05-.7.83-.55,1.65-1.09,2.45-1.6,18.74-12.02,49.68-27.04,98.31-39.02.94,2.18,1.85,4.32,2.74,6.42.26.6.51,1.2.76,1.79,1.07,2.53,2.11,5,3.11,7.42.35.83.69,1.66,1.03,2.48.34.82.67,1.64,1,2.45.33.81.66,1.61.98,2.41.33.8.65,1.6.96,2.38.32.79.63,1.58.95,2.36.1.25.2.5.3.75.95,2.4,1.87,4.75,2.75,7.06.17.44.33.88.5,1.32.29.74.57,1.48.84,2.21.7,1.87,1.38,3.7,2.03,5.51.27.74.54,1.47.79,2.2.43,1.22.86,2.43,1.27,3.62.34.96.66,1.91.98,2.85.08.24.16.48.24.72.4,1.17.78,2.34,1.16,3.49.45,1.39.89,2.78,1.31,4.15.33,1.06.64,2.11.96,3.16.7,2.35,1.36,4.67,1.99,6.98.01.05.03.11.04.16.34,1.28.68,2.55,1,3.82.5,1.98.97,3.96,1.43,5.93.42,1.87.83,3.73,1.2,5.6.02.1.04.19.06.29.19.97.38,1.94.56,2.91.07.34.13.67.19,1.01.04.21.08.43.12.64.16.92.33,1.85.48,2.77.43,2.55.81,5.1,1.15,7.68.17,1.29.33,2.58.48,3.88.07.65.15,1.3.22,1.95.14,1.31.27,2.62.39,3.94.12,1.32.23,2.65.33,3.98.05.67.09,1.34.14,2.02.05.67.09,1.35.13,2.03.15,2.38.26,4.78.34,7.23.09,2.45.15,4.94.17,7.47Z"/>
  <path class="cls-6" d="M1437.14,405.79c-.07.26-.14.52-.21.8-.07.28-.15.56-.22.85-.05.2-.11.4-.16.61-.05.2-.11.4-.16.61-.11.41-.22.84-.33,1.29-.06.22-.11.45-.17.68-.14.55-.28,1.12-.43,1.72-.27,1.09-.55,2.25-.85,3.47-.14.56-.27,1.13-.41,1.72-.97,4.1-2.05,8.87-3.2,14.25-.16.76-.32,1.54-.49,2.32-.43,2.1-.88,4.29-1.33,6.56-.22,1.08-.43,2.18-.65,3.3-.7,3.61-1.41,7.43-2.12,11.43-.17.9-.33,1.82-.49,2.75-.86,4.94-1.72,10.16-2.57,15.64-.21,1.36-.42,2.73-.63,4.13-.87,5.82-1.72,11.92-2.54,18.29-.12.9-.23,1.81-.35,2.72-.71,5.77-1.4,11.75-2.05,17.93h-576.34v-.16c-.02-1.35-.04-2.68-.07-4-.04-1.57-.09-3.12-.15-4.66-.02-.72-.05-1.44-.09-2.15-.05-1.28-.12-2.55-.2-3.81-.08-1.56-.18-3.11-.3-4.64-.07-.96-.15-1.92-.23-2.87-.06-.71-.12-1.42-.19-2.12-.1-1.08-.21-2.16-.32-3.23-.13-1.23-.27-2.46-.42-3.68-.06-.48-.11-.97-.18-1.45-.07-.62-.15-1.23-.24-1.84-.05-.36-.1-.73-.15-1.09-.09-.66-.18-1.33-.28-1.99-.17-1.11-.34-2.21-.51-3.31-.15-.9-.3-1.8-.46-2.7-.07-.46-.15-.92-.24-1.38-.17-.97-.35-1.94-.53-2.9-.11-.53-.21-1.06-.32-1.59-.12-.66-.26-1.31-.4-1.97-.28-1.41-.59-2.82-.9-4.22-.03-.14-.07-.29-.1-.43-.24-1.05-.48-2.1-.73-3.15-.02-.04-.02-.08-.03-.11-.32-1.32-.65-2.65-.99-3.98-.85-3.33-1.78-6.68-2.78-10.07-.16-.54-.32-1.08-.49-1.63-.01-.04-.02-.08-.03-.12-1.85-6.16-3.95-12.47-6.31-19.05-.42-1.16-.84-2.32-1.27-3.5-.15-.4-.3-.81-.45-1.21-.27-.74-.55-1.49-.84-2.25-.45-1.2-.91-2.41-1.38-3.63-.25-.68-.51-1.36-.78-2.04-.97-2.51-1.97-5.06-3.01-7.66-.67-1.65-1.34-3.32-2.03-5.02-2.42-5.93-5.02-12.13-7.81-18.65,12.37-2.71,25.76-5.21,40.27-7.43-1.34,10.13-2.87,19.79-4.24,28.44-2.31,14.6-4.3,27.21-4.53,36.49-.12,4.95-.5,20.02,11.71,22.05,17.23,2.87,30.76-22.44,36.54-42.27l1.34-4.38c.43-1.42.86-2.84,1.29-4.27,1.14-2.66,2.37-4.32,3.28-5.25.26.95.51,2.38.56,4.4.37,13.24,4.31,45.31,32.88,57.16,21,8.71,41.19,8.98,62.83.72.6,8.29,2.43,14.76,7.4,19.4,4.6,4.31,10.97,6.27,21.02,6.27,2.76,0,5.79-.15,9.15-.44,27.71-2.38,62.93-12.08,132.49-66.37,46.82-36.54,75.21-86.9,87.79-113.16,6.63,18.28,19.42,46.55,40.35,67.06,27.59,27.03,56.84,43.59,75.96,43.59,2.5,0,4.83-.29,6.96-.87,6.02-1.64,9.74-4.71,11.07-9.14,2.37-7.88-4-15.13-11.38-23.53-1.38-1.58-2.81-3.21-4.17-4.82-1.04-1.25-2.63-3.35-4.62-6.19,17.86,7.5,45.44,18.65,76.58,29.6l.38.13Z"/>
  <path class="cls-1" d="M875.35,402.72c-.73,1.85-1.38,3.81-1.9,5.92-.26,1.01-.52,1.99-.8,2.96l-.47,1.54c-.04.14-.06.27-.1.4-5.76,18.97-15.36,30.22-19.67,30.81-.41-1.15-1.07-4.33-.45-12.35.62-7.98,2.24-18.28,4.13-30.2,1.58-9.98,3.36-21.28,4.85-33.2,3.68-29.38,6.25-58.14,7.55-83.4l18.45-1.17c1.57,8.1,2.78,15.3,3.8,21.75,3.97,31.19-5.53,64.48-15.39,96.94Z"/>
  <path class="cls-1" d="M1366.23,406.05c-.19.06-.4.12-.63.19-2,.54-9.82,1.66-26.45-6.88-13.73-7.05-28.59-18.23-42.99-32.34-29.85-29.24-42.16-78.13-42.28-78.61-.73-2.98-3.31-5.14-6.37-5.32-3.07-.19-5.89,1.64-6.97,4.51-.29.76-29.43,76.49-90.93,124.49-66.68,52.04-99.53,61.25-125.09,63.46-10.56.91-16.91.21-19.4-2.12-2.81-2.61-3.26-10.3-3.21-19.36.01-.23.01-.47,0-.7.01-2.13.05-4.33.09-6.56.45-25.01,4.75-130.73,5.88-158.16,63.23-2.24,105.7-13.75,137.12-37.04,30.94-22.94,20.92-58.48,20.48-59.98-.9-3.05-3.74-5.11-6.91-5.02-15.45.43-105.31,15.17-155.83,51.32-58.76,42.05-72.18,92.81-73.52,98.46-1.02,4.32-2.42,7.21-3.73,7.72-1.49.58-4.91-.12-8.21-.8-1.48-.3-3-.62-4.64-.89-2.42-.4-4.24-12.9-6-24.98-.6-4.12-1.26-8.63-2.03-13.57-.34-2.65-.77-5.28-1.29-7.92-1.05-6.23-2.3-13.09-3.84-20.69-7.59-37.23-12.73-49.78-20.5-68.78-2.85-6.96-6.06-14.8-9.89-25.12,1.03-15.35,3.28-31.91,7.76-48.09,68.7,9.44,170.3,15.95,267.17,15.95,52.12,0,102.86-1.88,146.37-6.21.05,1.16.1,2.34.14,3.53,0,.22,0,.43.02.65.26,8.3.14,17.64,0,28.74-.18,14.58-.39,31.1.15,51.97,1.93,74.76,53.33,151.35,63.37,163.34,1.46,1.74,2.95,3.43,4.38,5.07,2.61,2.97,6.31,7.18,7.78,9.74Z"/>
  <ellipse class="cls-5" cx="881.98" cy="250.48" rx="10.3" ry="17.4"/>
  <path class="cls-5" d="M1075.89,214.16c3.9,15.85,17.41,35.08,29.89,32.49s20.27-25.47,13.25-40.54l-6.76,1.54s6.59,29.03-8.32,30.16-21.05-26.25-21.05-26.25l-7.02,2.6Z"/>
  <path class="cls-2" d="M1578.17,465c-18.71-17.87-38.61-31.68-62.63-43.46-21.81-10.69-45.04-18.86-71.94-28.32l-2.2-.77c-46.71-16.43-85.32-33.28-94.49-37.35-14.06-24.12-31.85-60.76-39.03-98.88,73.87,36.18,117.42,116.44,117.87,117.28,1.22,2.29,3.6,3.71,6.18,3.71h.11c2.62-.04,5-1.55,6.16-3.9,27.87-56.38,42.98-110.44,46.22-165.25,2.88-48.82-4.35-91.3-9.63-122.32-4.62-27.15-12.67-58.13-20.75-85.74h-14.59c8.33,28.13,16.79,60.2,21.54,88.09,10.74,63.07,25.32,148.7-29.71,267.27-5.91-9.44-15.6-23.76-28.86-39.59-20.61-24.62-53.95-57.45-96.94-76.07-.41-4.06-.68-8.12-.78-12.17-.54-20.59-.33-36.97-.15-51.43.12-9.44.22-17.76.09-25.37,5.59-3.28,13.6-9.36,13.64-18.54.05-10.5-10.47-18-19.57-22.99-1.56-4.67-3.5-9.38-5.94-14.3-6.9-13.94-22.2-40.76-47.19-63.76-14.79-13.6-30.79-24-47.88-31.14h-163.04c-1.55.66-3.02,1.33-4.42,2-.22-.65-.45-1.32-.67-2h-14.69c.99,3.21,1.98,6.2,2.95,8.88-15.07,9.26-20.85,11.51-28.49,3.53-2.35-2.98-4.62-7.27-6.78-12.41h-15.03c1.84,4.9,3.7,9.17,5.6,12.8-14.01,4.93-41.76,18.24-75.17,52.88-15.78,16.37-25.98,36.25-32.52,56.83-.25.54-.44,1.12-.55,1.73-5.9,19.2-8.67,38.93-9.83,56.92-.08.45-.11.91-.09,1.37-1.25,20.57-.43,38.76.12,51.14l.03.64c.55,12.16.42,27.09-.31,43.8-.01.14-.01.27-.01.41-1.04,23.43-3.26,50.36-6.52,78.23-16.12,2.38-34.09,5.59-52.64,9.92-.5.06-.99.18-1.48.35-37.15,8.78-76.45,22.04-107.65,42.03-19.17,12.29-39.09,29.25-54.64,46.53-18.59,20.66-30.94,41.25-36.79,61.28h14.69c.03-.09.06-.17.09-.26.01-.04.02-.07.04-.11.13-.41.28-.8.42-1.21.01-.04.03-.07.04-.11.09-.25.18-.49.27-.74.17-.46.34-.91.52-1.37.21-.55.42-1.1.65-1.65.18-.47.37-.93.57-1.39.18-.43.36-.86.55-1.29.04-.09.08-.18.12-.27.2-.46.4-.91.61-1.37.29-.64.59-1.29.89-1.93.91-1.92,1.88-3.83,2.91-5.73.27-.51.54-1.01.82-1.51.03-.06.07-.12.1-.18,1.59-2.86,3.29-5.67,5.09-8.45.34-.53.69-1.06,1.03-1.58.05-.07.1-.15.15-.22.61-.92,1.23-1.83,1.87-2.73.68-.98,1.38-1.96,2.08-2.93.45-.63.91-1.25,1.38-1.88.46-.62.93-1.24,1.41-1.86,1.89-2.47,3.84-4.9,5.85-7.28.49-.59,1-1.19,1.51-1.78.02-.03.04-.06.07-.09.99-1.14,1.99-2.28,3-3.4.52-.58,1.03-1.15,1.56-1.72.51-.57,1.04-1.14,1.57-1.7.52-.57,1.04-1.12,1.58-1.68.53-.56,1.06-1.11,1.59-1.66.53-.55,1.06-1.1,1.6-1.64.54-.54,1.07-1.08,1.61-1.61.54-.55,1.08-1.08,1.62-1.6.54-.53,1.08-1.06,1.62-1.57.54-.53,1.08-1.04,1.62-1.55.54-.52,1.09-1.03,1.63-1.53.54-.51,1.08-1.01,1.62-1.5.55-.5,1.1-1,1.65-1.5,1.08-.97,2.16-1.93,3.23-2.86l.05-.05c1.06-.93,2.12-1.84,3.18-2.73,1.66-1.41,3.3-2.77,4.93-4.08.48-.39.96-.78,1.43-1.15.53-.43,1.05-.84,1.57-1.24.85-.68,1.7-1.34,2.54-1.98.72-.55,1.44-1.1,2.14-1.63.48-.36.95-.71,1.42-1.06.69-.51,1.36-1.01,2.03-1.49.8-.58,1.58-1.14,2.36-1.69,1.07-.76,2.11-1.48,3.14-2.18.49-.34.98-.67,1.47-1,.35-.24.7-.47,1.05-.7.83-.55,1.65-1.09,2.45-1.6,18.74-12.02,49.68-27.04,98.31-39.02.94,2.18,1.85,4.32,2.74,6.42.26.6.51,1.2.76,1.79,1.07,2.53,2.11,5,3.11,7.42.35.83.69,1.66,1.03,2.48.34.82.67,1.64,1,2.45.33.81.66,1.61.98,2.41.33.8.65,1.6.96,2.38.32.79.63,1.58.95,2.36.1.25.2.5.3.75.94,2.4,1.86,4.75,2.75,7.06.17.44.33.88.5,1.32.29.74.57,1.48.84,2.21.7,1.87,1.38,3.7,2.03,5.51.27.74.54,1.47.79,2.2.43,1.22.86,2.43,1.27,3.62.34.96.66,1.91.98,2.85.08.24.16.48.24.72.4,1.17.78,2.34,1.16,3.49.45,1.39.89,2.78,1.31,4.15.33,1.06.64,2.11.96,3.16.7,2.35,1.36,4.67,1.99,6.98.01.05.03.11.04.16.34,1.28.68,2.55,1,3.82.5,1.98.97,3.96,1.43,5.93.42,1.87.82,3.73,1.2,5.6.02.1.04.19.06.29.19.97.38,1.94.56,2.91.07.34.13.67.19,1.01.04.21.08.43.12.64.16.92.33,1.85.48,2.77.42,2.55.8,5.11,1.15,7.68.17,1.29.33,2.58.48,3.88.07.65.15,1.3.22,1.95.14,1.31.27,2.62.39,3.94.12,1.32.23,2.65.33,3.98.05.67.09,1.34.14,2.02.05.67.09,1.35.13,2.03.14,2.38.25,4.78.34,7.23.03.83.05,1.67.07,2.51.04,1.01.06,2.02.07,3.04.01.63.02,1.27.03,1.92h13.98v-.16c-.02-1.35-.05-2.68-.07-4-.04-1.57-.09-3.12-.15-4.66-.03-.72-.06-1.44-.09-2.15-.06-1.28-.12-2.55-.2-3.81-.08-1.56-.18-3.11-.3-4.64-.07-.96-.15-1.92-.23-2.87-.06-.71-.12-1.42-.19-2.12-.1-1.08-.21-2.16-.32-3.23-.13-1.23-.27-2.46-.42-3.68-.06-.48-.11-.97-.18-1.45-.07-.62-.15-1.23-.24-1.84-.05-.36-.1-.73-.15-1.09-.09-.66-.19-1.33-.28-1.99-.17-1.11-.34-2.21-.51-3.31-.15-.9-.3-1.8-.46-2.7-.07-.46-.15-.92-.24-1.38-.17-.97-.35-1.94-.53-2.9-.11-.53-.21-1.06-.32-1.59-.13-.66-.26-1.32-.4-1.97-.28-1.41-.59-2.82-.9-4.22-.03-.14-.07-.29-.1-.43-.24-1.05-.48-2.1-.73-3.15-.02-.04-.02-.08-.03-.11-.32-1.33-.65-2.65-.99-3.98-.85-3.33-1.78-6.68-2.78-10.07-.16-.54-.32-1.08-.49-1.63-.01-.04-.02-.08-.03-.12-1.85-6.16-3.95-12.47-6.31-19.05-.42-1.16-.84-2.32-1.27-3.5-.15-.4-.3-.81-.45-1.21-.28-.75-.56-1.5-.84-2.25-.45-1.2-.91-2.41-1.38-3.63-.25-.68-.51-1.36-.78-2.04-.97-2.51-1.97-5.06-3.01-7.66-.67-1.65-1.34-3.32-2.03-5.02-2.42-5.93-5.02-12.13-7.81-18.65,12.37-2.71,25.76-5.21,40.27-7.43-1.34,10.13-2.87,19.79-4.24,28.44-2.31,14.6-4.3,27.21-4.53,36.49-.12,4.95-.5,20.02,11.71,22.05,17.23,2.87,30.76-22.44,36.54-42.27l1.34-4.38c.43-1.42.86-2.84,1.29-4.27,1.14-2.66,2.37-4.32,3.28-5.25.26.95.51,2.38.56,4.4.37,13.24,4.31,45.31,32.88,57.16,21,8.71,41.19,8.98,62.83.72.6,8.29,2.43,14.76,7.4,19.4,4.6,4.31,10.97,6.27,21.02,6.27,2.76,0,5.79-.15,9.15-.44,27.71-2.38,62.93-12.08,132.49-66.37,46.82-36.54,75.21-86.9,87.79-113.16,6.63,18.28,19.42,46.55,40.35,67.06,27.59,27.03,56.84,43.59,75.96,43.59,2.5,0,4.83-.29,6.96-.87,6.02-1.64,9.74-4.71,11.07-9.14,2.37-7.88-4-15.13-11.38-23.53-1.38-1.58-2.81-3.21-4.17-4.82-1.04-1.25-2.63-3.35-4.62-6.19,17.86,7.5,45.44,18.65,76.58,29.6l.38.13c-.07.26-.14.53-.21.8-.07.28-.15.56-.22.85-.05.2-.11.4-.16.61-.05.2-.11.4-.16.61-.11.42-.22.85-.33,1.29-.06.22-.11.45-.17.68-.14.55-.28,1.13-.43,1.72-.27,1.09-.55,2.25-.85,3.47-.13.56-.27,1.13-.41,1.72-.97,4.1-2.05,8.87-3.2,14.25-.16.76-.32,1.54-.49,2.32-.43,2.1-.88,4.29-1.33,6.56-.22,1.08-.43,2.18-.65,3.3-.7,3.61-1.41,7.43-2.12,11.43-.17.9-.33,1.82-.49,2.75-.86,4.94-1.72,10.16-2.57,15.64-.21,1.36-.42,2.73-.63,4.13-.87,5.82-1.72,11.92-2.54,18.29-.12.9-.23,1.81-.35,2.72-.71,5.77-1.4,11.75-2.05,17.93h14.1c.11-.99.21-1.97.32-2.94.75-6.83,1.55-13.38,2.38-19.62.23-1.78.47-3.54.71-5.27.62-4.43,1.24-8.68,1.87-12.76.24-1.51.47-3.01.7-4.48.25-1.54.5-3.06.74-4.56.42-2.49.83-4.9,1.24-7.23.2-1.16.4-2.29.6-3.4.24-1.32.48-2.62.71-3.88.72-3.88,1.42-7.48,2.08-10.79,2.87-14.27,5.48-24.99,7.17-31.47,47.12,16.68,82.57,30.73,118.1,64.66.62.59,1.23,1.18,1.83,1.77.98.95,1.94,1.91,2.86,2.85.35.35.68.69,1.02,1.03,2.67,2.76,5.16,5.48,7.47,8.13.25.31.52.61.77.91,1.25,1.45,2.44,2.89,3.57,4.3.29.36.57.71.84,1.06.29.35.56.7.83,1.05s.54.7.8,1.04c.24.31.46.61.69.91.29.38.58.77.86,1.15.5.67.99,1.33,1.46,1.99,1.04,1.44,2.02,2.86,2.94,4.25.23.34.46.68.68,1.02.98,1.48,1.89,2.93,2.74,4.34.32.52.63,1.04.93,1.55.89,1.51,1.71,2.97,2.47,4.39h15.72c-6.23-13.34-17.72-31.72-38.81-51.86ZM908.04,75.4c35.94-37.27,64.61-48.02,73.9-50.71,14.13,12.33,27.91,5.58,44.22-4.5.99-.61,2.08-1.28,3.28-1.99.42-.2.82-.43,1.19-.7,13.84-7.94,42.09-19.8,117.74-14.82,25.84,1.7,90.42,14.7,131.86,98.43,2.49,5.05,4.41,9.86,5.87,14.69.05.17.1.33.16.5,1.24,4.18,2.15,8.38,2.81,12.77-122.38,12.19-302.66,4.87-407.88-9.34,5.96-16.22,14.54-31.56,26.85-44.33ZM869.02,219.17c.18.44.35.87.52,1.3.18.43.34.86.51,1.29.34.86.68,1.72,1,2.57.35.9.69,1.81,1.04,2.73.14.39.29.78.43,1.18.36.96.71,1.92,1.05,2.9.13.37.26.74.38,1.11.25.71.49,1.42.73,2.14.28.84.56,1.69.84,2.56.1.32.2.64.31.97.22.7.44,1.4.66,2.12.01.05.02.09.04.13.15.51.31,1.03.47,1.55.07.26.15.53.23.79.16.53.32,1.06.47,1.61.15.54.31,1.09.47,1.65.09.32.18.65.27.97.15.53.29,1.07.44,1.61.08.29.16.58.24.88.16.59.32,1.19.48,1.8.27,1.06.55,2.15.83,3.26.28,1.14.57,2.32.87,3.53.05.21.1.42.15.63.25,1.08.51,2.18.78,3.31.02.1.04.2.07.3.41,1.79.83,3.66,1.26,5.61.19.82.37,1.66.55,2.51l-15.02.96c.48-14.11.5-26.8.02-37.46l-.03-.64c-.19-4.36-.42-9.47-.58-15.17.18.44.35.87.52,1.3ZM875.35,402.72c-.73,1.85-1.38,3.81-1.9,5.92-.26,1.01-.52,1.99-.8,2.96l-.47,1.54c-.04.14-.06.27-.1.4-5.76,18.97-15.36,30.22-19.67,30.81-.41-1.15-1.07-4.33-.45-12.35.62-7.98,2.24-18.28,4.13-30.2,1.58-9.98,3.36-21.28,4.85-33.2,3.68-29.38,6.25-58.14,7.55-83.4l18.45-1.17c1.57,8.1,2.78,15.3,3.8,21.75,3.97,31.19-5.53,64.48-15.39,96.94ZM994.16,281.56s-.01.16-.02.37c0,.11-.01.24-.01.39-.01.05-.01.1-.01.15,0,.07,0,.15-.01.22,0,.08,0,.17-.01.25-.01.37-.03.81-.05,1.31-.01.31-.03.65-.04,1.01-.02.26-.03.53-.04.82,0,.17,0,.34-.02.52s-.02.36-.02.55c-.01.23-.02.47-.03.71s-.02.49-.03.74l-.03.78c-.02.25-.03.51-.04.77v.05c-.02.56-.04,1.14-.07,1.75-.02.6-.05,1.23-.08,1.88-.01.32-.02.65-.04.99-.01.33-.03.67-.04,1.02-.02.6-.05,1.22-.08,1.85,0,.1,0,.2-.01.3-.03.71-.06,1.45-.09,2.21-.02.51-.04,1.03-.06,1.56,0,.05-.01.11-.01.16-.02.63-.05,1.28-.07,1.94-.01.12-.02.25-.02.37-.04.93-.08,1.88-.12,2.85-.02.49-.04.98-.06,1.48-.03.7-.06,1.42-.08,2.15-.03.64-.05,1.29-.08,1.95,0,.07-.01.13-.01.2-.12,2.99-.25,6.14-.38,9.4-.03.81-.07,1.63-.1,2.46s-.07,1.66-.1,2.5c-.06,1.53-.12,3.08-.18,4.65l-.09,2.31c-.04.79-.07,1.58-.1,2.38-.04,1.11-.08,2.23-.13,3.36-.03.85-.07,1.71-.1,2.56-.08,2-.16,4.01-.24,6.04-.04,1.16-.09,2.32-.14,3.49-.05,1.46-.11,2.93-.17,4.39-.05,1.47-.11,2.94-.17,4.42-.03.8-.06,1.6-.09,2.4h0c-.02.39-.03.77-.05,1.15-.09,2.23-.17,4.46-.26,6.69-.02.73-.05,1.45-.08,2.18-.01.24-.02.49-.03.73,0,.35-.03.69-.04,1.04-.03.91-.07,1.81-.1,2.72-.04.86-.07,1.71-.1,2.56-.04.98-.07,1.94-.11,2.91-.03.78-.06,1.56-.09,2.33-.04,1.12-.09,2.23-.13,3.34h0c-.02.62-.04,1.23-.06,1.83-.05,1.14-.09,2.28-.13,3.41-.02.56-.04,1.12-.06,1.68-.04,1.12-.08,2.23-.12,3.34-.02.55-.04,1.1-.06,1.65-.06,1.64-.12,3.27-.18,4.87v.05c-.04,1.05-.07,2.08-.11,3.11-.05,1.22-.09,2.43-.13,3.61-.03.85-.06,1.68-.09,2.51-.03,1-.07,1.98-.1,2.95-.02.49-.03.97-.05,1.44-.02.78-.05,1.56-.08,2.32-.01.42-.03.83-.04,1.25-.08,2.5-.16,4.88-.23,7.13-.01.42-.03.82-.04,1.23-.01.29-.02.59-.03.88-.06,1.89-.11,3.67-.16,5.33-.01.52-.03,1.03-.04,1.53-.02.56-.03,1.11-.04,1.63-.02.53-.03,1.04-.04,1.54-.02.67-.03,1.3-.05,1.9-.01.21-.01.42-.01.62-.01.2-.01.4-.01.6-.01.45-.02.87-.03,1.28-.02.9-.04,1.77-.05,2.64-20.03,8.84-38.32,9.26-57.27,1.41-21-8.71-23.95-34.11-24.24-44.62-.43-15.43-8.67-18.27-11.92-18.79,3.24-11.46,6.13-23,8.16-34.54,1.99,1.85,4.48,3.04,7.65,3.57,1.37.23,2.77.52,4.12.79,9.21,1.9,23.13,4.76,28.38-17.41.99-4.14,5.19-19.2,17.98-38.77,12.8-19.57,29.65-36.91,50.07-51.52,1.14-.82,2.31-1.63,3.5-2.42.42-.28.83-.56,1.26-.83.11-.07.22-.15.33-.22.85-.56,1.72-1.11,2.6-1.66.43-.27.86-.53,1.3-.8.67-.41,1.36-.82,2.04-1.22.04-.03.07-.05.11-.07.94-.55,1.89-1.1,2.86-1.65.06-.03.11-.06.17-.09.67-.38,1.36-.76,2.05-1.14.82-.45,1.65-.9,2.49-1.34.67-.36,1.34-.71,2.02-1.06.56-.29,1.12-.58,1.69-.86.56-.29,1.14-.57,1.71-.85.46-.23.92-.46,1.39-.68.65-.32,1.3-.63,1.96-.94.81-.39,1.63-.77,2.46-1.15.61-.29,1.23-.57,1.86-.85.94-.43,1.88-.85,2.83-1.26.72-.31,1.44-.62,2.17-.93.99-.43,1.98-.84,2.98-1.26.09-.04.19-.08.28-.11,1.06-.44,2.12-.87,3.19-1.29.46-.19.92-.37,1.38-.55.64-.25,1.28-.51,1.93-.75.64-.25,1.28-.5,1.93-.74,1.21-.46,2.43-.92,3.65-1.36.01-.01.03-.01.05-.02.57-.21,1.14-.41,1.71-.62.04-.02.09-.03.13-.04.55-.2,1.09-.4,1.64-.59.55-.19,1.1-.39,1.65-.58.31-.11.63-.22.94-.33.19-.07.38-.13.57-.19.49-.17.99-.35,1.49-.51.5-.17,1-.34,1.49-.5.67-.23,1.33-.45,2-.66.75-.26,1.51-.5,2.26-.74.06-.02.12-.04.18-.06.61-.2,1.22-.39,1.82-.58.74-.24,1.47-.47,2.2-.69,1.03-.32,2.05-.63,3.07-.94.79-.24,1.58-.48,2.36-.71.75-.23,1.51-.45,2.26-.66.85-.25,1.7-.49,2.54-.73,3.37-.96,6.71-1.86,9.98-2.71.82-.22,1.64-.43,2.45-.63,1.79-.46,3.56-.9,5.31-1.32,1.13-.27,2.25-.54,3.36-.8,1.05-.25,2.1-.49,3.13-.73,1.3-.29,2.58-.58,3.84-.85.45-.1.89-.2,1.33-.29.57-.12,1.13-.24,1.68-.36,1.18-.26,2.34-.5,3.48-.73.44-.09.87-.18,1.29-.26.84-.18,1.66-.34,2.47-.5.81-.16,1.61-.31,2.4-.46,1.62-.31,3.19-.6,4.7-.87,1.44-.26,2.83-.5,4.16-.72.6-.1,1.18-.2,1.76-.29,1.73-.28,3.36-.53,4.88-.75.28-.04.57-.08.85-.12,1.69-.24,3.22-.44,4.6-.6,1.03,8.94.53,26.71-16.4,39.26-30.03,22.26-71.87,32.9-135.68,34.49-3.69.09-6.67,3.03-6.82,6.71ZM1366.23,406.05c-.19.06-.4.12-.63.19-2,.54-9.82,1.66-26.45-6.88-13.73-7.05-28.59-18.23-42.99-32.34-29.85-29.24-42.16-78.13-42.28-78.61-.73-2.98-3.31-5.14-6.37-5.32-3.07-.19-5.89,1.64-6.97,4.51-.29.76-29.43,76.49-90.93,124.49-66.68,52.04-99.53,61.25-125.09,63.46-10.56.91-16.91.21-19.4-2.12-2.81-2.61-3.26-10.3-3.21-19.36.01-.23.01-.47,0-.7.01-2.13.05-4.33.09-6.56.45-25.01,4.75-130.73,5.88-158.16,63.23-2.24,105.7-13.75,137.12-37.04,30.94-22.94,20.92-58.48,20.48-59.98-.9-3.05-3.74-5.11-6.91-5.02-15.45.43-105.31,15.17-155.83,51.32-58.76,42.05-72.18,92.81-73.52,98.46-1.02,4.32-2.42,7.21-3.73,7.72-1.49.58-4.91-.12-8.21-.8-1.48-.3-3-.62-4.64-.89-2.42-.4-4.24-12.9-6-24.98-.6-4.12-1.26-8.63-2.03-13.57-.34-2.65-.77-5.28-1.29-7.92-1.05-6.23-2.3-13.09-3.84-20.69-7.59-37.23-12.73-49.78-20.5-68.78-2.85-6.96-6.06-14.8-9.89-25.12,1.03-15.35,3.28-31.91,7.76-48.09,68.7,9.44,170.3,15.95,267.17,15.95,52.12,0,102.86-1.88,146.37-6.21.05,1.16.1,2.34.14,3.53,0,.22,0,.43.02.65.26,8.3.14,17.64,0,28.74-.18,14.58-.39,31.1.15,51.97,1.93,74.76,53.33,151.35,63.37,163.34,1.46,1.74,2.95,3.43,4.38,5.07,2.61,2.97,6.31,7.18,7.78,9.74Z"/>
  <path class="cls-6" d="M909.6,366.79c.39,20.41,1.16,46.98,16.56,61.61,15.4,14.63,43.9,18.87,67.39,0v-32.73s-10-25.51-38.89-31.48c-28.89-5.97-45.05,2.6-45.05,2.6Z"/>
  <path class="cls-6" d="M948.1,352.93s38.89,9.65,48.13,28.89v-14.44s-21.95-19.07-44.67-19.84l-3.47,5.39Z"/>
  <polygon class="cls-6" points="974.67 317.89 1000.86 331.75 1000.86 304.6 974.67 317.89"/>
  <line class="cls-7" x1="1190.15" y1="24.34" x2="1199.71" y2="29.99"/>
  <line class="cls-7" x1="1211.01" y1="36.08" x2="1221" y2="42.59"/>
  <path class="cls-7" d="M1231.15,50.87s35.87,35.87,44.83,69.62"/>
  <line class="cls-7" x1="1279.53" y1="154.84" x2="1279.53" y2="159.46"/>
  <line class="cls-7" x1="1279.53" y1="170.25" x2="1279.53" y2="175.64"/>
  <line class="cls-7" x1="1279.53" y1="186.04" x2="1279.53" y2="190.28"/>
  <path class="cls-7" d="M1279.53,202.99c1.16,19.26.01,87.12,41.4,152.37"/>
  <line class="cls-7" x1="1415.49" y1="407.58" x2="1423.1" y2="410.46"/>
  <path class="cls-7" d="M1458.05,422.11s80.28,27.34,113.5,73.01"/>
  <path class="cls-2" d="M882.07,473.4c-5.64-.91-9.9,8.83-2.9,9.13s2.9-9.13,2.9-9.13Z"/>
  <path class="cls-2" d="M1020.5,505.23c-5.64-.91-9.9,8.83-2.9,9.13s2.9-9.13,2.9-9.13Z"/>
  <path class="cls-2" d="M1073.21,498.94c-5.64-.91-9.9,8.83-2.9,9.13s2.9-9.13,2.9-9.13Z"/>
  <path class="cls-2" d="M1250.37,493.14c-5.64-.91-9.9,8.83-2.9,9.13s2.9-9.13,2.9-9.13Z"/>
  <path class="cls-2" d="M981.77,496.74c-5.64-.91-9.9,8.83-2.9,9.13s2.9-9.13,2.9-9.13Z"/>
  <path class="cls-2" d="M930.63,482.99c-2.25-5.25-12.76-3.64-9.27,2.44,3.49,6.08,9.27-2.44,9.27-2.44Z"/>
  <path class="cls-2" d="M928.29,506.64c-2.25-5.25-12.76-3.64-9.27,2.44,3.49,6.08,9.27-2.44,9.27-2.44Z"/>
  <path class="cls-2" d="M874.07,493.05c-2.25-5.25-12.76-3.64-9.27,2.44,3.49,6.08,9.27-2.44,9.27-2.44Z"/>
  <path class="cls-2" d="M959.18,505.14c-2.25-5.25-12.76-3.64-9.27,2.44,3.49,6.08,9.27-2.44,9.27-2.44Z"/>
  <path class="cls-2" d="M1104.81,484.56c-2.25-5.25-12.76-3.64-9.27,2.44,3.49,6.08,9.27-2.44,9.27-2.44Z"/>
  <path class="cls-2" d="M1168.42,489.16c-2.25-5.25-12.76-3.64-9.27,2.44s9.27-2.44,9.27-2.44Z"/>
  <path class="cls-2" d="M1114.78,500.54c-2.25-5.25-12.76-3.64-9.27,2.44,3.49,6.08,9.27-2.44,9.27-2.44Z"/>
  <path class="cls-2" d="M1187.23,453.88c-2.25-5.25-12.76-3.64-9.27,2.44,3.49,6.08,9.27-2.44,9.27-2.44Z"/>
  <path class="cls-2" d="M956,481.49c-3.53,4.49,2.94,12.93,6.59,6.95,3.65-5.98-6.59-6.95-6.59-6.95Z"/>
  <path class="cls-2" d="M1129.19,466.91c-3.53,4.49,2.94,12.93,6.59,6.95s-6.59-6.95-6.59-6.95Z"/>
  <path class="cls-2" d="M1194.82,488.66c-3.53,4.49,2.94,12.93,6.59,6.95,3.65-5.98-6.59-6.95-6.59-6.95Z"/>
  <path class="cls-2" d="M895.8,488.66c-3.53,4.49,2.94,12.93,6.59,6.95,3.65-5.98-6.59-6.95-6.59-6.95Z"/>
  <path class="cls-2" d="M1370.05,481c-2.25-5.25-12.76-3.64-9.27,2.44s9.27-2.44,9.27-2.44Z"/>
  <path class="cls-2" d="M1315.84,467.41c-2.25-5.25-12.76-3.64-9.27,2.44s9.27-2.44,9.27-2.44Z"/>
  <path class="cls-2" d="M1337.57,463.02c-3.53,4.49,2.94,12.93,6.59,6.95,3.65-5.98-6.59-6.95-6.59-6.95Z"/>
  <path class="cls-2" d="M1239.93,473.59c-2.25-5.25-12.76-3.64-9.27,2.44,3.49,6.08,9.27-2.44,9.27-2.44Z"/>
  <path class="cls-2" d="M1248.49,456.23c-3.53,4.49,2.94,12.93,6.59,6.95,3.65-5.98-6.59-6.95-6.59-6.95Z"/>
  <path class="cls-2" d="M1207.44,455.61c-3.53,4.49,2.94,12.93,6.59,6.95,3.65-5.98-6.59-6.95-6.59-6.95Z"/>
  <path class="cls-2" d="M1322.02,510.16c-2.25-5.25-12.76-3.64-9.27,2.44,3.49,6.08,9.27-2.44,9.27-2.44Z"/>
  <path class="cls-2" d="M1330.58,492.79c-3.53,4.49,2.94,12.93,6.59,6.95,3.65-5.98-6.59-6.95-6.59-6.95Z"/>
  <path class="cls-2" d="M1289.53,492.17c-3.53,4.49,2.94,12.93,6.59,6.95,3.65-5.98-6.59-6.95-6.59-6.95Z"/>
  <path class="cls-2" d="M884.28,505.26c-3.53,4.49,2.94,12.93,6.59,6.95,3.65-5.98-6.59-6.95-6.59-6.95Z"/>
  <g>
    <g>
      <path class="cls-3" d="M31.75,210.05l25.11-29.98h-20.33l-20.07,26.11v-26.11H0v63.32h16.46v-27.47l21.42,27.47h21.33l-27.46-33.34Z"/>
      <path class="cls-3" d="M107.67,222.81c0-3.75-.54-7.12-1.6-10.12-1.06-2.99-2.6-5.53-4.62-7.6-2.01-2.07-4.48-3.65-7.39-4.74-2.91-1.1-6.19-1.64-9.82-1.64s-7.02.54-9.96,1.64c-2.93,1.09-5.44,2.64-7.51,4.66-2.07,2.01-3.67,4.46-4.79,7.35-1.12,2.88-1.68,6.11-1.68,9.7s.59,6.6,1.77,9.4c1.17,2.8,2.84,5.21,4.99,7.22,2.16,2.02,4.75,3.57,7.77,4.66,3.02,1.1,6.35,1.64,9.99,1.64,11.87,0,19.29-4.92,22.26-14.78h-14.7c-1.68,2.69-4.17,4.03-7.47,4.03-6.16,0-9.24-3.27-9.24-9.82h32v-1.6ZM76.09,215.59c.39-2.24,1.33-3.98,2.81-5.21,1.49-1.23,3.4-1.85,5.76-1.85,2.23,0,4.14.65,5.71,1.94,1.56,1.28,2.6,2.99,3.1,5.12h-17.38Z"/>
      <path class="cls-3" d="M161.08,209.88c-.45-1.79-1.29-3.42-2.52-4.87-1.51-1.79-3.35-3.18-5.5-4.16-2.16-.98-4.75-1.47-7.77-1.47-2.86,0-5.35.43-7.48,1.3-2.12.87-4.22,2.56-6.29,5.08v-5.46h-15.2v43.09h15.2v-23.01c0-2.86.68-5.06,2.05-6.6,1.38-1.54,3.35-2.31,5.92-2.31.96,0,1.85.14,2.69.42s1.6.76,2.27,1.43c.78.79,1.33,1.84,1.64,3.15.3,1.32.46,3.04.46,5.17v21.75h15.2v-27.38c0-2.3-.22-4.34-.67-6.13Z"/>
      <path class="cls-3" d="M205.08,200.3v4.54c-3.47-3.81-7.75-5.71-12.85-5.71-3.13,0-6.03.6-8.69,1.8-2.66,1.21-4.95,2.86-6.89,4.96-1.93,2.1-3.45,4.56-4.57,7.39-1.12,2.83-1.68,5.89-1.68,9.2s.51,6.2,1.55,8.86c1.04,2.65,2.49,4.94,4.37,6.84,1.87,1.9,4.1,3.39,6.67,4.45,2.58,1.06,5.41,1.6,8.49,1.6,1.4,0,2.68-.1,3.86-.3,1.18-.19,2.29-.52,3.36-.96,1.06-.45,2.11-1.02,3.15-1.72,1.03-.7,2.11-1.59,3.23-2.65v4.11c0,3.2-.85,5.69-2.56,7.48-1.71,1.79-4.16,2.69-7.35,2.69-3.75,0-6.16-1.43-7.22-4.29h-17.13c.44,2.35,1.34,4.52,2.69,6.51,1.34,1.99,3.06,3.72,5.16,5.21,2.1,1.48,4.55,2.64,7.35,3.48,2.8.84,5.88,1.26,9.24,1.26,2.96,0,5.72-.33,8.27-1,2.54-.68,4.83-1.6,6.84-2.78,2.02-1.17,3.74-2.56,5.17-4.15,1.42-1.6,2.47-3.32,3.15-5.17.5-1.45.89-3.13,1.17-5.04.28-1.9.42-4.05.42-6.46v-40.15h-15.2ZM205.04,225.54c-.53,1.2-1.23,2.26-2.1,3.15-.87.9-1.9,1.6-3.11,2.1-1.2.5-2.47.76-3.82.76s-2.7-.26-3.9-.76c-1.21-.5-2.24-1.2-3.11-2.1-.87-.89-1.55-1.95-2.06-3.15-.5-1.2-.75-2.5-.75-3.9s.26-2.61.79-3.78c.54-1.18,1.25-2.2,2.15-3.07.89-.87,1.93-1.57,3.1-2.1,1.18-.53,2.44-.8,3.78-.8s2.53.26,3.74.76c1.2.5,2.25,1.2,3.15,2.1.89.89,1.61,1.93,2.14,3.11.53,1.17.8,2.46.8,3.86s-.27,2.62-.8,3.82Z"/>
      <path class="cls-3" d="M277.05,229.45v-49.38h-16.46v63.32h36.2v-13.94h-19.74Z"/>
      <path class="cls-3" d="M349.53,222.81c0-3.75-.54-7.12-1.6-10.12-1.06-2.99-2.6-5.53-4.62-7.6-2.01-2.07-4.48-3.65-7.39-4.74-2.91-1.1-6.19-1.64-9.82-1.64s-7.02.54-9.96,1.64c-2.93,1.09-5.44,2.64-7.51,4.66-2.07,2.01-3.67,4.46-4.79,7.35-1.12,2.88-1.68,6.11-1.68,9.7s.59,6.6,1.77,9.4c1.17,2.8,2.84,5.21,4.99,7.22,2.16,2.02,4.75,3.57,7.77,4.66,3.02,1.1,6.35,1.64,9.99,1.64,11.87,0,19.29-4.92,22.26-14.78h-14.7c-1.68,2.69-4.17,4.03-7.47,4.03-6.16,0-9.24-3.27-9.24-9.82h32v-1.6ZM317.95,215.59c.39-2.24,1.33-3.98,2.81-5.21,1.49-1.23,3.4-1.85,5.76-1.85,2.23,0,4.14.65,5.71,1.94,1.56,1.28,2.6,2.99,3.1,5.12h-17.38Z"/>
      <path class="cls-3" d="M388.87,199.38h-1.3c-3.14,0-5.88.69-8.23,2.06-2.35,1.37-4.34,3.34-5.96,5.92v-7.06h-15.2v43.09h15.2v-18.48c0-4.03.88-7.1,2.64-9.2,1.76-2.1,4.41-3.14,7.94-3.14,2.35,0,4.53.5,6.55,1.51v-14.53c-.62-.11-1.16-.17-1.64-.17Z"/>
      <path class="cls-3" d="M442.07,209.88c-.45-1.79-1.29-3.42-2.52-4.87-1.51-1.79-3.34-3.18-5.5-4.16-2.15-.98-4.74-1.47-7.77-1.47-2.85,0-5.34.43-7.47,1.3-2.13.87-4.23,2.56-6.3,5.08v-5.46h-15.2v43.09h15.2v-23.01c0-2.86.69-5.06,2.06-6.6,1.37-1.54,3.34-2.31,5.92-2.31.95,0,1.85.14,2.69.42s1.59.76,2.26,1.43c.79.79,1.33,1.84,1.64,3.15.31,1.32.46,3.04.46,5.17v21.75h15.2v-27.38c0-2.3-.22-4.34-.67-6.13Z"/>
      <path class="cls-3" d="M468.52,180.44c-.45-1.03-1.06-1.94-1.84-2.73-.79-.78-1.7-1.39-2.73-1.84-1.04-.45-2.15-.68-3.32-.68s-2.28.23-3.32.68c-1.03.45-1.94,1.06-2.73,1.84-.78.79-1.4,1.7-1.84,2.73-.45,1.04-.68,2.14-.68,3.32s.23,2.28.68,3.32c.44,1.03,1.06,1.94,1.84,2.73.79.78,1.7,1.4,2.73,1.84,1.04.45,2.14.68,3.32.68s2.28-.23,3.32-.68c1.03-.44,1.94-1.06,2.73-1.84.78-.79,1.39-1.7,1.84-2.73.45-1.04.68-2.14.68-3.32s-.23-2.28-.68-3.32ZM453.07,200.3v43.09h15.2v-43.09h-15.2Z"/>
      <path class="cls-3" d="M495.65,200.3v-12.93h-15.2v12.93h-5.04v12.69h5.04v30.4h15.2v-30.4h8.65v-12.69h-8.65Z"/>
      <path class="cls-3" d="M544.1,200.3v4.29c-3.52-3.75-7.97-5.63-13.35-5.63-3.19,0-6.1.6-8.73,1.81-2.64,1.2-4.9,2.84-6.81,4.91-1.9,2.07-3.38,4.49-4.45,7.26-1.06,2.77-1.59,5.7-1.59,8.78,0,3.3.54,6.35,1.64,9.15,1.09,2.8,2.61,5.24,4.57,7.31,1.96,2.07,4.26,3.68,6.89,4.83s5.51,1.72,8.65,1.72c5.54,0,9.94-2.04,13.18-6.13v4.79h15.29v-43.09h-15.29ZM543.81,225.67c-.53,1.17-1.23,2.21-2.1,3.1-.87.9-1.9,1.6-3.11,2.1-1.2.51-2.47.76-3.82.76s-2.7-.25-3.9-.76c-1.21-.5-2.24-1.2-3.11-2.1-.87-.89-1.55-1.94-2.06-3.15-.5-1.2-.75-2.5-.75-3.9s.25-2.59.75-3.74c.51-1.14,1.19-2.17,2.06-3.06.87-.9,1.9-1.6,3.11-2.1,1.2-.51,2.5-.76,3.9-.76s2.62.25,3.82.76c1.21.5,2.24,1.2,3.11,2.1.87.89,1.57,1.94,2.1,3.15.53,1.2.8,2.47.8,3.82s-.27,2.6-.8,3.78Z"/>
      <path class="cls-3" d="M601.63,220.5c-2.07-2.15-5.21-3.65-9.41-4.49-1.51-.34-2.73-.62-3.65-.84-.92-.22-1.62-.48-2.1-.76-.48-.28-.78-.57-.92-.88-.14-.31-.21-.71-.21-1.22,0-.95.43-1.7,1.3-2.26.87-.56,2-.84,3.4-.84,2.69,0,5.43.72,8.23,2.18l5.12-9.91c-4.48-1.85-9.1-2.77-13.85-2.77-2.92,0-5.56.36-7.94,1.09s-4.41,1.76-6.09,3.11c-1.68,1.34-2.97,2.98-3.86,4.91-.9,1.93-1.35,4.1-1.35,6.51,0,3.3.94,5.89,2.82,7.77s5.16,3.29,9.87,4.24c1.39.28,2.53.54,3.4.8.86.25,1.52.53,1.97.84.45.3.74.64.88,1,.14.37.21.83.21,1.39,0,.95-.45,1.74-1.34,2.35-.9.62-2.05.92-3.44.92-3.81,0-7.84-1.45-12.1-4.36l-5.54,10.75c5.65,3.3,11.39,4.95,17.22,4.95,3.02,0,5.79-.38,8.31-1.13,2.52-.76,4.67-1.82,6.47-3.19,1.79-1.37,3.19-3.07,4.19-5.08,1.01-2.02,1.52-4.29,1.52-6.81,0-3.36-1.04-6.11-3.11-8.27Z"/>
    </g>
    <rect class="cls-3" y="310.83" width="222.46" height="12"/>
    <g>
      <path class="cls-3" d="M278.42,296.08v-7.38h-28.71v52.02h28.71v-7.38h-20.86v-17.39h20.25v-7.38h-20.25v-12.49h20.86Z"/>
      <path class="cls-3" d="M309.81,321.68l14.26-13.78h-10.18l-10.68,10.61v-34.7h-7.58v56.91h7.58v-12.64l1.21-1.21,10.85,13.85h9.84l-15.3-19.04Z"/>
      <path class="cls-3" d="M365.36,312.01c-3.41-3.35-7.57-5.02-12.46-5.02s-9.01,1.66-12.4,4.99c-3.39,3.32-5.09,7.35-5.09,12.09,0,5.03,1.66,9.21,4.99,12.54,3.32,3.36,7.44,5.05,12.36,5.05s9.16-1.65,12.57-4.95c3.39-3.33,5.09-7.45,5.09-12.37s-1.69-8.98-5.06-12.33ZM360.01,332.02c-1.78,1.91-4.15,2.87-7.11,2.87s-5.31-.97-7.11-2.9c-1.75-1.91-2.63-4.5-2.63-7.78,0-3.06.9-5.55,2.7-7.48,1.79-1.93,4.14-2.9,7.04-2.9s5.31.97,7.11,2.9c1.77,1.91,2.66,4.46,2.66,7.65s-.89,5.73-2.66,7.64Z"/>
      <path class="cls-3" d="M405.89,324.78c-1.39-1.46-4.1-3.05-8.12-4.78-2.92-1.24-4.38-2.49-4.38-3.74,0-.72.25-1.31.74-1.77.49-.46,1.09-.69,1.79-.69,1.46,0,2.68,1.01,3.67,3.03l6.26-3.34c-2.04-4.33-5.16-6.5-9.36-6.5-2.85,0-5.28.93-7.28,2.8-1.95,1.86-2.93,4.22-2.93,7.07,0,2.16.57,3.92,1.72,5.29.9,1.08,2.45,2.16,4.65,3.24.78.38,1.56.75,2.32,1.11.77.36,1.53.73,2.29,1.11,1.98,1.17,2.97,2.43,2.97,3.77,0,2.34-1.28,3.51-3.84,3.51-1.28,0-2.38-.43-3.3-1.28-.48-.43-1.16-1.43-2.06-3l-6.47,3c2.29,5.37,6.19,8.05,11.69,8.05,3.21,0,5.95-1.01,8.22-3.03,2.34-2.14,3.51-4.79,3.51-7.95,0-2.47-.7-4.44-2.09-5.9Z"/>
      <path class="cls-3" d="M430.41,290.82c-.97-.97-2.13-1.45-3.5-1.45s-2.51.48-3.47,1.45c-.97.97-1.45,2.11-1.45,3.44s.48,2.57,1.45,3.53c.96.97,2.13,1.45,3.5,1.45s2.53-.48,3.47-1.45c.96-.96,1.45-2.13,1.45-3.5s-.49-2.53-1.45-3.47ZM423.13,307.9v32.82h7.58v-32.82h-7.58Z"/>
      <path class="cls-3" d="M467.77,324.78c-1.4-1.46-4.1-3.05-8.12-4.78-2.92-1.24-4.38-2.49-4.38-3.74,0-.72.24-1.31.74-1.77.49-.46,1.09-.69,1.78-.69,1.46,0,2.69,1.01,3.68,3.03l6.26-3.34c-2.04-4.33-5.16-6.5-9.36-6.5-2.86,0-5.28.93-7.28,2.8-1.95,1.86-2.93,4.22-2.93,7.07,0,2.16.57,3.92,1.72,5.29.89,1.08,2.44,2.16,4.65,3.24.78.38,1.56.75,2.32,1.11s1.53.73,2.29,1.11c1.98,1.17,2.97,2.43,2.97,3.77,0,2.34-1.28,3.51-3.84,3.51-1.28,0-2.38-.43-3.31-1.28-.47-.43-1.15-1.43-2.05-3l-6.47,3c2.29,5.37,6.19,8.05,11.69,8.05,3.21,0,5.95-1.01,8.22-3.03,2.34-2.14,3.51-4.79,3.51-7.95,0-2.47-.7-4.44-2.09-5.9Z"/>
      <path class="cls-3" d="M492.83,307.9v-12.03h-7.58v12.03h-3.24v7.08h3.24v25.74h7.58v-25.74h5.89v-7.08h-5.89Z"/>
      <path class="cls-3" d="M536.62,328.55c-1.55,2.43-2.93,4.09-4.15,4.99-1.23.9-2.79,1.35-4.68,1.35-2.42,0-4.41-.79-5.96-2.36-1.55-1.6-2.43-3.74-2.63-6.44h23.52l.03-1.78c0-5.41-1.39-9.65-4.18-12.7-2.8-3.08-6.62-4.62-11.45-4.62s-8.63,1.58-11.52,4.75c-2.88,3.21-4.32,7.41-4.32,12.6s1.49,9.44,4.45,12.6c2.97,3.15,6.9,4.72,11.79,4.72,1.71,0,3.29-.18,4.75-.54,1.46-.36,2.82-.93,4.08-1.7,1.26-.78,2.44-1.76,3.54-2.97,1.1-1.2,2.14-2.64,3.13-4.33l-6.4-3.57ZM520.78,317.37c.48-.74,1.04-1.38,1.71-1.91.66-.52,1.39-.93,2.2-1.21.81-.28,1.68-.42,2.6-.42,4.04,0,6.59,2.02,7.64,6.06h-15.22c.24-.94.6-1.78,1.07-2.52Z"/>
      <path class="cls-3" d="M593.28,306.99c-4.06,0-7.29,1.62-9.67,4.85-2.15-3.23-5.09-4.85-8.79-4.85-1.66,0-3.05.28-4.15.84-1.03.54-2.28,1.58-3.74,3.1v-3.03h-7.58v32.82h7.58v-16.95c0-3.44.49-5.95,1.47-7.55.98-1.59,2.53-2.39,4.67-2.39,3.37,0,5.05,2.92,5.05,8.76v18.13h7.61v-16.95c0-3.48.48-6.01,1.44-7.58.95-1.57,2.47-2.36,4.56-2.36,1.8,0,3.09.66,3.88,1.99.76,1.3,1.14,3.53,1.14,6.67v18.23h7.62v-20.29c0-8.96-3.7-13.44-11.09-13.44Z"/>
    </g>
  </g>
</svg>