<?xml version="1.0" encoding="UTF-8"?>
<svg id="Layer_1" data-name="Layer 1" xmlns="http://www.w3.org/2000/svg" version="1.1" viewBox="0 0 1920 1080">
  <defs>
    <style>
      .cls-1 {
        fill: #e67171;
      }

      .cls-1, .cls-2, .cls-3, .cls-4, .cls-5, .cls-6, .cls-7, .cls-8, .cls-9, .cls-10, .cls-11, .cls-12, .cls-13, .cls-14, .cls-15, .cls-16, .cls-17, .cls-18, .cls-19, .cls-20, .cls-21, .cls-22, .cls-23, .cls-24, .cls-25 {
        stroke-width: 0px;
      }

      .cls-2 {
        fill: #d19d78;
      }

      .cls-3 {
        fill: #c52727;
      }

      .cls-4 {
        fill: #130e0b;
      }

      .cls-5 {
        fill: #8b8b8b;
      }

      .cls-6 {
        fill: #9d7d55;
      }

      .cls-7 {
        fill: #f9edae;
      }

      .cls-8 {
        fill: #dda67f;
      }

      .cls-9 {
        fill: #090803;
      }

      .cls-10 {
        fill: #d9bf42;
      }

      .cls-11 {
        fill: #f6eaaa;
      }

      .cls-12 {
        fill: #f1f1f1;
      }

      .cls-13 {
        fill: #e0a880;
      }

      .cls-14 {
        fill: #e6bda1;
      }

      .cls-15 {
        fill: #dbc142;
      }

      .cls-16 {
        fill: #090806;
      }

      .cls-17 {
        fill: #7b5f3c;
      }

      .cls-18 {
        fill: #eec4a7;
      }

      .cls-19 {
        fill: #c2c2c2;
      }

      .cls-20 {
        fill: #e1a981;
      }

      .cls-21 {
        fill: #f8ecad;
      }

      .cls-22 {
        fill: #c22626;
      }

      .cls-23 {
        fill: #dbc042;
      }

      .cls-24 {
        fill: #ebc2a5;
      }

      .cls-25 {
        fill: #fefefe;
      }
    </style>
  </defs>
  <path class="cls-16" d="M873.48,288.93c4.54,2.3,5.37,1.56,5.9-5.28-1.31-.31-2.63-.63-3.94-.95,3.7-.71,7.46-.96,6.69-6.98-1.19.06-2.5.12-3.81.18l-.09.17c3.77.2,5.06-1.98,6.24-5.29,2.48-6.99,5.6-13.74,8.67-21.09-2.9-.22-5.12-.39-7.33-.56,3.31-2.04,9.22.56,9.62-6.12.24-4.11,6.06-7.4,1.39-12.29,4.13.69,8.19-4.61,7.34-8.76-.49-2.35-.68-4.76.01-7.33.46,1.5.92,3,1.84,5.98,1.98-4.56,3.26-8.08,4.97-11.36,6.6-12.64,13.24-25.26,20.08-37.77,1.87-3.41,3.96-6.38,1.63-10.45-.72-1.26-.33-3.15-.45-4.74.46-.12.93-.24,1.39-.37.69,2.2,1.37,4.4,2.06,6.6,4.18-7.5,13.49-11.61,13.8-21.85.53,1.05,1.05,2.1,1.61,3.22.37-.25.8-.49,1.17-.79,6.38-5.28,12.66-10.68,19.16-15.8,3.9-3.07,8.78-5.23,7.33-12.17.52.2,1.05.41,1.57.61.41,1.3.81,2.61,1.48,4.75,5.14-3.77,10.1-7.41,15.8-11.58,3.8,1.13,7.2-2.75,10.48-5.51,2.54-2.14,4.56-4.66,7.96-5.58,1.22-.33,2.26-1.35,3.45-2.1-.41-2.32-.81-4.56-1.21-6.81.51-.14,1.03-.28,1.54-.42.7,1.86,1.4,3.72,2.19,5.82,6.83-4.31,13.66-8.62,20.75-13.09-.49-1.12-1.01-2.31-2.09-4.77,2.47,1.4,3.77,2.14,5.22,2.97,4.1-3.28,10.66-4.21,11.19-11.52.54,1.19,1.08,2.39,1.32,2.94,9.69-4.28,19.41-8.44,28.98-12.92,1.43-.67,2.18-2.79,3.24-4.23,1.81,2.25,12.27,3.52,20.68,2.13,1.19-.2,2.11-2.01,3.28-3.21,3.78,6.11,11.05,2.15,16.3,4.89,0,0,.17-.16.17-.16-.08.14-.26.31-.23.42.07.26.24.5.38.74,1.31.94,2.61,1.89,3.92,2.83,7.8.32,15.6.86,23.4.81,2.37-.01,4.73-1.63,7.58-2.7-.28,1.24-.55,2.41-.79,3.46,4.67,1.18,9.4,2.17,13.99,3.61,3.89,1.22,7.04,1.39,9.05-2.96.45-.97,1.73-1.55,2.63-2.3.35.28.71.56,1.06.84-1.24,1.93-2.49,3.86-3.65,5.66,6.83,5.47,11.17-.64,16.2-3.53l1.08,1.31c-1.9,1.68-3.81,3.36-6.29,5.55,2.79,1.07,5.3,2,7.8,2.98,6.33,2.48,7.31,6.12,3.1,11.48-1.12,1.42-2.29,2.8-3.55,4.34,2.69,2.71,6.96,4.33,6,9.77-2.56-2.8-4.78-5.22-6.99-7.65-.63.05-1.26.11-1.89.16-1.13,3.85-2.26,7.71-3.45,11.76-.55-.64-1.2-1.39-2.02-2.33-2.27,4.07-4.59,8.21-7.12,12.76,3.84.99,6.57,2.97,6.67,7.09-2.91-1.58-6.5-4.74-7.75-3.99-4.56,2.73-4.49,7.57-1.82,12.53-.51.06-1.02.11-1.53.17-.74-1.05-1.48-2.1-2.67-3.8-2.42,4.94-4.72,9.63-7.04,14.35,1.82.71,3.31,1.29,5.81,2.27-8.02,2-9.88,5.05-10.36,15.66,1.17-.7,2.09-1.24,3-1.78l1.37.61c-8.35,10.39-12.5,22.24-13.51,35.5,1.26.32,2.66.9,4.09,1,11.07.73,20.93,4.07,29.73,11.26,7.13,5.83,15.72,9.92,22.68,15.91,11.79,10.15,19.76,23.25,24.86,37.91,3.4,9.76,8.62,18.36,15.34,26.03,9.25,10.56,13.48,23.05,15.21,36.67.11.89.37,2.15.98,2.51,3.73,2.19,3.11,5.79,2.69,8.94-2.41,18.22-7.6,35.68-15.24,52.37-3.65,7.99-7.28,16.08-11.89,23.51-11.04,17.77-26.95,27.97-48.26,28.78-.95.04-2.79-.88-2.75-1.1.24-1.35.7-2.75,1.44-3.9,5.47-8.49,11.04-16.91,16.54-25.38.42-.64.58-1.45.86-2.19-.5-.17-.99-.42-1.04-.35-4.71,6.68-12.34,4.01-18.58,5.69-8.81,2.39-17.94.57-26.89,1.27-5.65.45-11.26,1.48-16.85,2.48-5.31.96-10.57,2.2-15.83,3.37-1.6.35-3.21.75-4.72,1.35-.55.22-.83,1.11-1.23,1.69.05,0,.09-.01.14-.02-.47-.39-1.15-1.22-1.38-1.11-4.75,2.3-9.48,4.65-14.12,7.16-.52.28-.49,1.58-.7,2.41-.02.1.01.21.02.31-.01-.16,0-.33-.05-.47-.05-.14-.17-.34-.28-.36-4.02-.76-7.43,1.78-8.14,6.04l-.09.16c.25-1.1.5-2.2.75-3.31-.44-.41-.87-.81-1.31-1.22-2.97,1.75-5.87,3.64-8.94,5.17-1.14.57-3.03-.21-4.03.45-5.93,3.93-11.74,8.04-17.43,12.31-.6.45-.37,2.41-.09,3.56.68,2.8,1.62,5.53,2.45,8.29-.46.52-.92,1.05-1.38,1.57-10.32-4.22-20.83-8.06-30.88-12.85-4.54-2.16-7.61-2.78-10.65,2.41,10.05,6.26,20.07,12.6,30.18,18.77,7.37,4.5,14.82,8.87,22.34,13.11,4.75,2.68,9.62,5.21,14.58,7.47,16.6,7.58,33.9,13.73,48.92,24.46.95.68,2.13,1.18,2.8,2.06,7.11,9.38,17.71,12.65,28.1,16.41,15.04,5.45,28.06,14.35,40.19,24.57,2.35,1.98,3.97,4.82,5.94,7.28,3.94-8.42,8.23-16.6,11.67-25.12,7.41-18.4,19.61-32.16,37.56-40.75,9.69-4.64,18.05-12.1,29.08-13.86,4.55-.73,9.15-1.07,14.58-1.68-.34-7.51-1.13-15.33,6.51-21,6.48-4.8,12.14-10.53,21.75-7.14,0-8.89-.47-17.2.09-25.43,1.5-21.86,4.1-43.67,5.08-65.55,1.33-29.9,1.58-59.85,2.27-89.78.06-2.49-.37-5.03-.05-7.48,1.21-9.3-3.54-14.91-11.32-18.54-3.56-1.66-3.31-4.39-2.39-7.12,3.86-11.49,7.87-22.94,11.91-34.37,3.15-8.9,6.37-17.78,9.71-26.61.44-1.16,1.76-1.98,2.67-2.96.82.91,2.06,1.68,2.41,2.75,4.37,13.23,9.05,26.38,12.75,39.8,2.44,8.84,3.55,18.06,4.94,27.17.24,1.57-.72,3.73-1.82,5.03-3.18,3.78-5.21,7.49-5.03,12.88.67,20.27,1.31,40.57.91,60.84-.46,23.41-2.07,46.8-3.1,70.2-.41,9.3-.56,18.62-.96,27.92-.59,13.93-1.35,27.85-1.85,41.79-.05,1.32.93,3.16,2.02,3.96,4.83,3.55,8.66,7.5,9.29,13.93.25,2.57,1.88,4.97,2.47,7.54.43,1.87,1.02,4.51.1,5.72-2.94,3.89-2.42,8.01-2.02,12.27.09.99.32,2.13-.05,2.97-2.65,6.06-4.36,12.2-3.97,18.98.07,1.26-3.02,3.49-4.95,3.9-3.94.84-5.74,2.12-6.15,6.69-1.4,15.85-2.81,31.77-5.55,47.42-2.53,14.44-1.23,28.84-1.96,43.25-1.19,23.59-2.69,47.16-4.19,70.73-.13,2.09-1.39,4.08-1.78,6.17-.78,4.22-1.54,8.46-1.92,12.73-1.19,13.39-2.42,26.79-3.23,40.21-.98,16.26-1.67,32.54-2.26,48.83-.45,12.41-8.75,19.87-19.95,17.66-4.45-.88-6.44-3.09-6.15-7.96.53-8.96.15-17.98.69-26.94,1.63-27.22,3.63-54.41,5.28-81.62,1.03-17.11,2.05-34.23,2.43-51.35.45-20.3.4-40.62.19-60.93-.2-20.2,1.78-40.16,5.66-59.95.09-.47-.04-.98-.1-2.08-2.29,1.96-4.61,3.39-6.21,5.39-7.59,9.5-15.72,18.43-18.32,31.24-2.03,9.95-6.34,19.44-9.86,29.06-2.05,5.61-4.48,11.08-6.82,16.58-5.96,14.04-15.61,24.14-30.46,28.87-1.66.53-3.72,1.89-4.29,3.37-3.38,8.81-10.37,13.42-18.79,15.67-14.04,3.75-28,4.18-40.76-4.49-3.98-2.71-7.72-5.78-11.58-8.66-1.25-.93-2.56-1.8-4.89-3.44.24,25.58-16.54,41.87-29.53,60.22-1.82-.54-6.36,2.88-6.76,5.62-.36,2.46-.76,5.34-2.24,7.14-5.59,6.81-9.48,14.26-11.83,22.81-1.29,4.69-4,9.15-6.75,13.25-4.18,6.22-7.75,12.18-8.86,20.12-.74,5.29-5.98,9.96-9.65,15.59,1.41,2.2,3.01,5.54,5.36,8.24,11.4,13.1,14.29,29.23,15.22,45.53.73,12.8,1.67,25.29,4.34,37.94,2.22,10.53,1.72,21.96.53,32.78-1.21,10.97-4.36,21.79-7.41,32.47-1.43,5.01-4.66,9.49-7,14.25-5.17,10.52-8.4,22.1-17,30.71-7.02,7.03-14.29,13.6-25.28,12.8-8.7-.64-15.59-4.24-14.82-15.12,1.3-18.34,1.83-36.74,2.62-55.12.09-1.98.47-4.36-.42-5.91-6.19-10.79-5.13-23.64-10.03-34.65-1.79-4.01-5.68-7.17-8.9-10.43-3.26-3.3-6.61-6.66-10.46-9.19-2.18-1.44-5.42-1.67-8.19-1.72-3.62-.07-7.24.64-10.87.91-12.15.92-24.36,1.37-36.43,2.92-3.76.48-7.84,3.24-10.57,6.1-9.66,10.13-16.48,21.88-18.4,36.11-3.93,29.07-17.83,51.79-43.18,67.14-1.55.94-2.98,2.12-4.38,3.28-4.9,4.09-10.27,4.9-16.34,2.99-11.72-3.68-15.75-16.77-7.82-26.24,5.19-6.2,9.66-12.73,11.1-20.85,1.16-6.48,2.1-13,3.07-19.15-10.44,6.36-21.19,12.3-31.18,19.32-3.39,2.38-5.76,7.21-7.08,11.4-5.16,16.36-16.08,25.9-32.24,31.06-16.42,5.24-33.05,6.9-50.12,6.93-21.12.03-42.24.79-63.36,1.11-32.6.5-65.21.47-97.79,1.55-14.39.48-28.68,3.96-43.08,4.56-20.89.88-41.84.47-62.76.4-3.76-.01-7.34-1.42-8.55-5.63-1.27-4.43.53-8.1,4.07-10.43,4.71-3.09,9.66-5.92,14.81-8.2,15.19-6.72,30.41-13.39,45.83-19.54,9.91-3.95,13.81-13,19.37-20.72,1.43-1.99,2.52-4.22,3.53-5.93-7.21-6.61-15.01-12.66-21.48-19.91-13.91-15.58-24.55-33.5-33.92-52.08-10.41-20.64-13.6-43.26-17.14-65.79-4.94-31.41-4.7-63.03-3.89-94.63.24-9.31,2.52-18.87,5.53-27.75,6.17-18.24,13-36.29,20.43-54.06,8.05-19.26,23.42-33.02,38.46-46.59,10.46-9.43,22.03-17.7,33.59-25.81,16.41-11.5,35.52-16.27,54.81-20.17,7.48-1.51,15.11-2.38,22.69-3.33,3.27-.41,4.54-2.08,5.82-5.04,1.93-4.49,4.57-8.8,7.57-12.67,3.83-4.94,8.16-9.54,12.58-13.98,4.81-4.81,9.59-9.8,15.1-13.71,5.76-4.09,12.38-6.97,18.61-10.42,11.01-6.09,22.08-12.08,32.96-18.37,7.91-4.58,15.87-9.17,23.28-14.49,15.19-10.89,32.42-18.69,46.32-31.62,8.95-8.32,15.37-18.26,21.86-28.29,8.76-13.52,17.83-26.88,21.86-43.14-2.38-1.39-4.84-2.83-6.59-3.85-1.56-3.13-2.71-6.21-4.51-8.86-2.6-3.83-5.45-7.56-8.67-10.87-1.07-1.1-3.61-.76-5.02-1,1.31-3.77,3.22-8.14,4.15-12.7.27-1.31-2.28-3.2-3.91-5.29,1.83.46,3.43.86,5.13,1.29,1.31-3.58-.24-5.53-3.59-6.52l.04-.05ZM996.42,338.86l.06.02c-.7-.65-1.41-1.3-2.11-1.95l.05.05c-.27-.22-.54-.44-.8-.66-5.18-7.52-11.02-14.68-15.36-22.66-5.19-9.54-9.22-19.98-5.64-31.06,3.09-9.58,9.23-17.5,16.42-24.57,3.08-3.02,6.3-3.12,10.03-1.56,10.23,4.29,20.37,8.88,30.8,12.62,13.75,4.93,27.79,9.06,41.63,13.75,15.97,5.41,32.17,8.55,49.12,6.32,2.06-.27,5.03-.36,6.22.83,4.68,4.64,9.18,9.57,12.94,14.96,1.19,1.71-.16,5.16-.28,7.82-.04.82.1,1.65.17,2.48.5,6.11.8,12.25,1.64,18.31.28,2,1.48,4.52,3.07,5.57,7,4.58,14.3,8.71,21.99,13.3.68-.77,1.86-2.09,3.04-3.42,3.06-1.71,6.11-3.41,9.26-5.17-4.01-22.58-4.94-45.62,2.2-68.43,1.5-4.78,3.29-9.27,8.4-11.35l-.11.11c16.33.88,30.3-5.11,44.26-14.99-4.92-5.57-9.67-10.38-13.76-15.7-9.24-11.99-22.42-18.39-35.09-25.57-.33-.19-.88,0-1.32.01,0,0,.09.1.09.1-.42-.3-.84-.6-1.26-.9-6.54-2.27-13.08-4.54-20.05-6.96-1.15,5.47-2.04,9.84-2.99,14.2-.71,3.22-2.06,5.12-5.93,3.65-14.9-5.66-29.74-11.52-44.84-16.58-7.94-2.66-16.24-4.45-24.93-2.69-5.81,1.18-11.81,1.51-17.74,1.98-4.47.35-9.05-.17-13.44.54-23.6,3.78-46.09,11.51-68.15,20.38-8.11,3.26-17.62,6.29-17.64,18.03,0,.94-.69,1.86-.94,2.82-.98,3.85-1.98,7.7-2.84,11.58-1.38,6.27-2.12,12.73-4.11,18.8-2.76,8.44-6.41,16.58-9.68,24.84,2.82,1.13,5.85,2.08,8.63,3.52,5.82,3.02,10.22,7.79,9.99,14.42-.58,16.6-1.7,33.19-3.24,49.72-.33,3.58.17,5.77,2.38,8.38,20.07,23.72,44.24,42.72,69.69,60.13,8.14,5.57,17.45,9.44,26.23,14.09,2.19,1.26,4.39,2.53,6.91,3.98.06-1.25.25-1.95.09-2.54-.3-1.11-.88-2.15-1.23-3.25-3.5-11.05-7.65-21.93-7.24-33.86.37-10.47.3-20.95.56-31.42.09-3.65-.76-6.33-4.45-7.97-8.63-3.85-17.23-7.82-25.67-12.08-8.12-4.1-16.01-8.64-24.01-12.98,0,0,.03.02.03.02-.32-.34-.63-.68-.95-1.02-2.99-2.36-5.98-4.73-8.98-7.09l-.07.15c-.35-.35-.7-.69-1.05-1.04ZM1026.27,474.8s.04-.04.04-.04c-3.67,3.67-7.35,7.34-11.02,11h0c-7.63,5.74-14.96,11.69-15.43,22.71,1.3.15,2.4.28,3.5.41,10.82,2.9,22.09,5.74,27.83,16.43,4.8,8.93,12.11,8.83,20.18,8.25.83-.06,1.65-.19,2.47-.3,11.33-1.45,22.63-3.35,34.01-4.24,19.49-1.52,39.03-2.41,58.55-3.56,3.06.41,6.11.81,10.67,1.42-3.03-2.43-4.74-4.3-6.85-5.42-13.04-6.9-25.78-14.57-39.36-20.2-20.27-8.4-38.48-20.11-56.82-31.8-4.69-2.99-9.91-5.17-14.93-7.62-.61-.3-1.9-.33-2.23.06-2.96,3.56-5.78,7.24-8.64,10.88l.04-.04c-.67.69-1.34,1.38-2.02,2.06ZM1384.97,506.98c-6.99.31-13.97.63-20.96.94-6.04-1.86-8.33-.19-8.98,6.1-.47,4.54.9,6.96,5.83,6.58,5.71-.44,11.47-.42,17.12-1.21,5.79-.81,7.84-3.88,7.42-9.66,0-.65,0-1.31,0-1.96.08-.13.23-.36.22-.37-.2-.15-.43-.27-.65-.4ZM1360.82,492.44c-.22.46-.44.92-.66,1.38l.24,2.87c-1.22,3.73.32,5.91,4.04,5.99,5.73.12,11.54.28,17.18-.51,4.66-.65,6.97-5.29,5.75-9.5-1.21-.64-2.45-1.89-3.63-1.83-7.65.37-15.29,1.03-22.93,1.59ZM1381.95,528.77v-4.64c-6.26.6-12.08,1.16-17.91,1.72-2.37-.7-4.72-1.85-7.11-1.93-1.27-.04-3.31,1.55-3.7,2.81-.38,1.21.55,3.91,1.54,4.3,8.2,3.17,16.65,3.94,25.09.94.95-.34,1.4-2.1,2.09-3.2ZM1365.73,476.07c.06-.41.12-.83.18-1.24.78-4.06-1.29-5.87-4.93-7.12-3.41-1.17-7.14-2.5-9.69-4.88-3.59-3.35-6.56-3.93-10.24-.75-3.85,3.53-9.35,6.35-11.22,10.72-4.22,9.88,7.18,23.54,18.69,22.91-1.01-5.92,2.38-12.29-3.72-18.41,3.04.46,4.85,1.1,6.57.92,4.79-.5,9.55-1.35,14.32-2.06l.03-.09ZM1382.08,478.66c-1.97-1.84-3.7-4.75-5.97-5.27-3.38-.78-5.62,1.86-6.29,5.37-4.63,5.32-11.35,2.94-17.31,4.3.9,4.34,3.15,5.79,7.16,4.98,2.4-.48,4.88-.65,7.34-.81,4.29-.29,8.66-.07,12.86-.81,6.51-1.14,6.81-2.62,2.21-7.76ZM1261.07,341.96l.03-.05c-5.77,8.33-13.66,13.79-23.06,17.35-1.15.43-2.32,2.19-2.53,3.49-1.22,7.5-2.32,15.03-3.17,22.58-1.63,14.46-6.36,27.7-14.93,39.53-1,1.38-1.74,2.95-3.23,5.5,3.42-1.3,5.69-2.15,7.96-3.01,7.58-1.76,13.06-6.23,16.84-12.96,1.54-2.75,3.35-5.35,4.86-8.12,8.43-15.42,17.94-30.34,21.68-47.9,1.27-5.96,3.09-11.8,4.37-17.76.36-1.66-.31-3.55-.51-5.33-1.74.61-3.6,1.01-5.17,1.91-.9.51-1.34,1.84-1.99,2.79-.38.66-.76,1.31-1.14,1.97ZM1315.13,493.78c2.32,16.29,7.74,31.28,18.23,44.67,2.65-2.09,4.88-3.84,6.83-5.38-2.91-2.22-5.42-3.82-7.5-5.87-.78-.77-.55-2.58-.77-3.91,1.37.36,3.19.29,4.01,1.16,2.82,2.98,5.93,4.01,10.15,2.68.8-7.59,1.74-15.16,2.24-22.75.07-1.04-1.94-3.11-3.1-3.2-6.99-.49-12.31-3.45-15.92-9.46-.91-.97-1.84-2.78-2.72-2.76-3.75.1-7.48.74-11.65,1.24.06,1.09.12,2.33.18,3.57ZM1367.92,198.07c-5.77,15.27-11.54,30.55-17.22,45.57,3.11,2.32,6.18,4.05,8.52,6.48,3.99,4.14,7.53,8.72,11.26,13.12,1.83,2.16,3.58,2.21,5.19-.24,2.83-4.28,5.65-8.56,8.47-12.84.62-1.47,2.03-3.13,1.74-4.39-2.81-12.17-5.74-24.33-9-36.39-1.67-6.17-4.07-12.13-6.61-19.54-1.03,3.59-1.7,5.91-2.36,8.23ZM1079.3,719.2l1.97-.05c8.77-.73,17.53-1.62,26.32-2.14,13.5-.8,26.86-2.43,39.57-7.25,13.95-5.29,22.12-15.71,25.28-30.19,2.95-12.55,2.91-25.17.95-37.84-.06-.99,0-2-.19-2.96-3.71-18.19-6.75-36.57-11.42-54.51-3.48-13.35-6.83-27.14-16.51-37.98-5.45-6.1-10.82-12.27-19.98-12.3-17.37,1.59-34.73,3.17-52.1,4.76-10.89.99-21.78,1.99-32.3,2.95-1.44,6.4-2.37,13.23-4.61,19.6-1.59,4.53-4.05,9.59-7.68,12.4-10.15,7.84-22.16,8.59-34.12,5.09-6.15-1.8-12.37-4.51-17.56-8.21-8.84-6.3-19.45-11.48-21.18-24.54-15.56,11.85-30.82,23.47-45.75,34.84,1.37,1.59,3.08,3.21,4.36,5.12,6.31,9.33,14.2,18.05,18.38,28.28,7.52,18.38,13.19,37.57,18.83,56.66,3.18,10.79,5.31,21.98,6.88,33.14,1.5,10.67,1.62,21.53,2.43,32.3,1.54,20.56,3.44,41.11.55,61.72-.45,3.19-.06,6.49-.06,9.23,11.21-.53,21.97-.95,32.72-1.57,9.14-.53,18.31-.97,27.4-2.01,13.48-1.54,26.91-3.59,40.36-5.36,1.29-.17,2.66-.02,3.96.2,15.94,2.71,30.41-.96,43.11-10.71,3.08-2.37,6.62-6.39,6.81-9.82.46-8.28,4.75-14.27,8.79-20.77,3.03-4.88,5.25-10.26,7.88-15.39,3.23-6.32,6.41-12.68,9.83-18.91,1.15-2.1,2.97-3.83,4.86-6.2-2.13,0-3.43-.17-4.68.03-10.83,1.66-21.59,3.96-32.48,4.93-14.87,1.33-29.87,2.64-44.75,2.13-13.59-.46-26.53-4.84-34.97-16.76-3.02-4.27-5-9.38-6.85-14.33-1.41-3.78-1.88-7.91-3.03-13.01,5.45,7.94,9.8,14.69,14.56,21.13,9,12.2,20.96,18.75,36.4,18.2,2.68.03,5.37.06,8.05.1ZM985.86,566.73c9.54,6.44,20.01,7.76,30.88,4.8,3.33-.91,7.82-2.85,8.97-5.52,3.15-7.36,5.67-15.26,6.67-23.16.44-3.45-2.86-7.96-5.53-11.07-3.93-4.6-8.17-10.2-13.45-12.08-7.73-2.75-16.49-2.57-24.81-3.64-11.12-.08-22.96,10.95-24.51,23.74-.48,3.97-.2,9.63,2.21,12.05,5.73,5.75,12.95,10.02,19.56,14.89ZM1368.95,468.93c4.14.79,5.01-1.28,5.09-5.03.25-12.26.84-24.51,1.3-36.76.36-9.78.57-19.58,1.08-29.35,1.07-20.35,2.62-40.68,3.34-61.04.55-15.6.28-31.23.1-46.84-.08-7.21-.8-14.41-1.26-22.08-1.44.84-2.54,1.49-3.63,2.13-3.16-.88-6.32-1.77-9.8-2.74,0,1.11,0,2.73,0,4.34,0,19.8.37,39.61-.13,59.4-.36,14.26-1.79,28.5-2.87,42.74-1.38,18.36-3.03,36.7-4.28,55.07-.63,9.26-.8,18.57-.82,27.86,0,2.25.76,5.23,2.31,6.6,2.73,2.42,6.34,3.86,9.58,5.71ZM1269.15,513.71c-3.35,23.03,21.9,50.74,46.37,46.92,5.38-7.29,10.26-13.9,15.35-20.79-1.08-1-2.29-2.11-3.49-3.22-2.86-5.59-6.39-10.95-8.43-16.83-3.25-9.36-5.52-19.06-8.28-28.91-.14.02-1.03-.06-1.71.29-9.3,4.68-18.67,9.24-27.8,14.23-4.25,2.32-8.02,5.51-12.01,8.31ZM1178.5,677.94c.92-2.05,1.8-4.12,2.77-6.14.67-1.42,1.11-3.25,2.24-4.08,3.8-2.78,4.9-6.52,4.77-10.91-.11-3.62-.65-7.3-.21-10.86,3.06-24.62,6.3-49.3-1.13-73.65-3.34-10.96-4.33-22.69-15.59-30.71-6.63-4.73-13.23-6.19-20.34-7.77-3.87-.86-7.91-.95-11.87-1.39,1.6,2.76,3.43,4.38,5.22,6.04,13.61,12.71,18.02,29.98,22.48,46.96,3.67,13.94,5.8,28.28,8.85,42.39,3.54,16.38,4.93,32.8,2.11,49.43-.02.38-.04.76-.06,1.14.25-.16.5-.31.75-.47ZM980.21,860.49c-8.68-5.68-13.13-16.59-24.18-19.82-3.3,8.46-6.04,16.84-9.79,24.75-5.31,11.19-10.81,22.37-17.29,32.89-4.31,6.99-10.44,12.87-15.82,19.19-2.29,2.69-5.47,4.85-2.62,9.19.71,1.07-.06,3.22-.37,4.83-.91,4.72-2.58,9.38-2.8,14.12-.59,12.76-5.96,23.25-13.94,32.79-1.13,1.35-1.52,3.33-2.25,5.02.38.18.77.37,1.15.55,1.01-1.06,1.9-2.29,3.07-3.14,1.03-.75,2.35-1.1,3.55-1.62-.08,1.48.3,3.21-.35,4.37-1.06,1.89-2.79,3.41-4.23,5.09.16.43.32.87.48,1.3,2.51-.15,5.56.58,7.42-.6,5.7-3.61,10.94-7.95,16.36-12.01,13.2-9.22,21.7-21.67,25.67-37.25,2.52-9.9,4.47-19.99,7.64-29.68,4.65-14.18,12.53-26.25,25.92-33.98,1.23-.71,2.63-2.35,2.7-3.62.21-4.11-.16-8.25-.3-12.37ZM1345.08,821.97c3.64-2.14,4.34-5.62,4.35-9.45.04-8.15-.51-16.37.31-24.45,2.95-29.22,5.2-58.5,9.06-87.66,2.86-21.54,3.16-43.43,4.36-65.18.83-15.06-.81-30.15,1.83-45.25,2.51-14.36,3.29-29.01,4.88-43.53.27-2.42.83-4.8,1.36-7.8-1.76,0-3.02,0-4.29,0-3.07-.63-6.13-1.31-9.22-1.87-8.52-1.55-8.94-1.59-10.23,6.99-2.1,13.93-5.03,27.95-5.08,41.94-.17,52.01.09,104.03-4.66,155.87-2.35,25.68-4.15,51.32-3.75,77.1.03,1.76,0,3.52,0,5.49,4.34.58,8.08,1.2,11.06-2.2ZM1109.54,981.46c1.96-4.33,3.83-8.7,5.91-12.97,2.97-6.1,6.98-11.86,8.95-18.26,3.07-9.95,5.69-20.21,6.83-30.52,1.08-9.82,1.68-20.28-.53-29.75-3.02-12.94-4.65-25.7-4.44-38.89.08-4.86-1.17-9.73-1.82-14.59h-11.19c-28.47,2.11-48.01,8.13-59.68,42.01,1.46,1.39,2.86,3.06,4.56,4.29,11.07,7.98,15.3,19.4,16.64,32.37.23,2.28.3,4.78,1.28,6.75,8.21,16.46,5.89,33.52,3.4,50.68-.74,5.13-.64,10.38-.98,16.64,1.36-1.16,1.67-1.45,2-1.71,1.14-.89,2.29-1.78,3.44-2.66.16,1.62.81,3.38.4,4.84-1.08,3.8-2.63,7.46-3.99,11.18,6.26,3.06,9.36,1.59,10.77-4.73.42-1.9,1.84-3.59,2.8-5.37.49,1.9.97,3.8,1.48,5.69.11.4.31.76.73,1.79,5.76-4.94,10.48-10.12,13.42-16.78ZM1265.94,521.73v-6.35c-1.61,1.26-2.65,1.82-3.33,2.66-10.81,13.31-17.4,28.89-23.78,44.57-1.9,5.44-3.8,10.89-5.7,16.33-1.5-2.45-2.99-4.9-4.52-7.33-2.01-3.2-3.37-7.33-6.22-9.38-10.45-7.51-21.27-14.55-32.24-21.27-4.11-2.52-9.03-3.69-13.58-5.48-.18.28-.36.57-.54.85,1.19,1.54,2.38,3.09,3.58,4.63,7.75,11.56,12.33,24.35,14.7,37.99.65,3.74,2.02,7.51,1.85,11.21-.81,17.58-2.13,35.13-2.99,52.71-.09,1.89,1.05,4.57,2.52,5.67,4.9,3.63,10.25,6.65,15.36,10.01,14.93,9.85,38.54,9.33,51.19-9.29,3.38-4.98,7.82-7.76,13.21-9.97,3.89-1.6,8.21-3.7,10.68-6.87,5.16-6.63,10.41-13.65,13.49-21.36,5.96-14.91,10.45-30.41,15.52-45.68.14-.44.02-.96.02-1.97-2.08,0-4.1.28-6-.06-4.88-.87-10.35-.89-14.44-3.24-14.96-8.56-26.26-20.3-28.76-38.4ZM1078.28,380.92c3.1.12,6.21.11,9.29.39,5.44.49,5.43.57,5.57-3.44.7.35,1.39.7,2.09,1.05.92,1.13,1.99,3.33,2.72,3.22,5.62-.83,11.07-2.44,15.09-6.83.89-.98,1.23-2.46,1.41-2.84,1.5.08,3.17.37,4.79.21,5.04-.5,9.61-3.03,14.97-2.71,6.1.36,12.4-1.31,18.38-.44,4.11.6,7.74,4.17,11.73,6.12,3.53,1.72,7.04,5.4,11.24.83.48-.52,2.38.28,3.62.46,2.36.59,4.73,1.18,7.09,1.77,5.69-.9,11.11-2.48,14.32-4.41,3.42-.72,5.84-.6,7.34-1.72,1.64-1.23,2.44-3.6,3.6-5.47l-1.01-.6c.21,1.49.42,2.99.6,4.23,5.24-2.05,10.35-3.85,15.25-6.13.98-.46,1.62-2.76,1.54-4.17-.23-4.23,1.88-6.23,5.54-7.74,4.57-1.88,9.49-3.64,13.2-6.72,5.69-4.73,10.47-10.55,15.64-15.91,1.52-1.13,3.04-2.27,4.75-3.54-2.93-.9-5.28-1.53-7.57-2.33-5.76-2.03-11.43-4.39-17.27-6.14-5.52-1.66-10.06-4.12-12.37-9.77-.41-1.01-1.79-1.63-2.73-2.42-.11-.12-.23-.22-.32-.35-.03-.04.04-.15.09-.22.56-.83,1.57-1.64,1.6-2.47.09-3.29-.13-6.6-.23-9.89.66-1.26,1.31-2.53,1.97-3.79.7-.9,1.21-2.21,2.13-2.64,5.31-2.44,7.07-7.51,9.41-12.18v3.62c.53-.04,1.05-.09,1.58-.13-.23-1.4-.47-2.8-.7-4.19-2.24-5.5-4.47-11-6.7-16.47-.64.19-.99.22-1.25.4-1.1.74-2.14,1.58-3.26,2.29-10.97,6.98-22.91,11.35-35.92,11.84-4.37.16-6.52,1.59-7.32,5.51-1.46,7.13-3.37,14.22-4.06,21.43-1.6,16.57-2.28,33.16,4.79,48.95,1.5,3.36.06,5.54-3.48,6.09-1.78.28-3.83.54-5.44-.06-3.3-1.24-4.93.68-6.7,2.7-4.46,5.09-8.97,5.18-14.55,1.16-5.46-3.94-11.53-7.02-17.03-10.91-2.99-2.11-7.21-4.84-7.66-7.78-1.44-9.47-1.67-19.16-1.79-28.77-.08-6.31-7.54-13.76-13.67-13.05-14.58,1.67-28.82-.5-42.73-4.71-11.59-3.51-23.12-7.25-34.51-11.36-14.81-5.34-29.44-11.18-44.18-16.71-1.04-.39-2.95-.55-3.48.05-7.69,8.7-16.38,17.25-14.14,30.28,1.02,5.93,3.54,11.75,6.18,17.24,8.78,18.27,24.19,29.62,41.69,38.49,12.13,6.15,24.56,11.72,36.65,17.95,2.24,1.15,4.72,4.13,4.91,6.46.33,3.92,1.74,5.36,5.33,5.4,1.32.3,2.65.6,3.97.9ZM751.57,481.94c-2.33,1.54-4.66,3.08-6.67,4.41-3.74-3.8-6.57-.84-8.68,1.13-8.71,8.13-17.34,16.37-25.54,25-3.44,3.62-5.77,8.31-9.23,13.45,19.84-2.58,38.08-5.03,56.33-7.28,8.88-1.09,17.8-1.96,26.72-2.65,21.62-1.66,41.35,5.26,59.11,16.29,19.82,12.31,40.96,23.02,57.37,40.28,1.88,1.98,3.54,2.33,5.95.49,10.57-8.05,21.29-15.91,31.97-23.82,1.86-1.38,3.62-3.01,5.69-4,8.11-3.87,13.9-9.88,18.14-17.76,2.42-4.5,5.7-8.53,8.59-12.77.08-2.06.94-4.56.08-6.09-2-3.59-4.4-7.17-7.39-9.94-18.28-16.92-39.91-28.97-62.47-38.57-24.76-10.54-51.28-14.59-78.41-14.07-8.44.16-15.91,2.2-22.99,6.49-16.18,9.83-32.38,19.61-48.58,29.41ZM964.29,488.16c2.39,2.29,4.93,4.45,7.13,6.92,1.96,2.2,4.06,4.51,5.18,7.16,2.91,6.91,2.69,6.81,10.06,6.23,2.97-.23,4.4-1.24,5.22-4.07.69-2.36,1.75-4.75,3.21-6.71,8.79-11.85,17.57-23.72,26.71-35.29,5-6.33,10.72-12.1,15.68-17.64-13.88-10.64-27.79-21.15-41.54-31.87-14.76-11.51-27.53-25.05-39.31-39.53-.98-1.2-1.78-3.46-1.33-4.78,5.02-14.93,4.91-30.4,5.09-45.82.12-10.02-3.95-14.55-13.91-16.01-3.98-.58-7.02-1.53-6.91-7.14-6.35,4.34-12.03,9.01-17.69,13.7-8.73,7.24-15.38,15.64-18.54,26.98-3.39,12.19-8.75,23.67-16.56,33.85-5.55,7.23-10.77,14.72-16.39,21.9-4.59,5.86-9.29,11.68-14.44,17.04-3.77,3.92-8.06,7.51-12.64,10.42-6.25,3.98-13,7.17-19.53,10.71-1,.54-1.96,1.17-2.94,1.75.21.67.42,1.34.63,2.01,2.37.21,4.75.41,7.12.62,17.48.18,34.59,2.57,51.61,6.77,16.61,4.1,32.24,10.18,46.74,19.15,12.54,7.75,24.92,15.76,37.37,23.65ZM934.29,189.19c.24,1.49.49,2.99.89,5.43-1.48-.98-2.28-1.5-3.07-2.02-.39-1.49-.78-2.97-1.17-4.46l-1.51-.27c-6.18,13.3-12.36,26.61-18.66,40.19,1.21.55,2.32,1.05,3.62,1.64-6.12,1.15-10.24,8.28-8.61,12.64-1.49,1.55-2.92,2.39-3.38,3.6-5.27,13.73-10.59,27.44-15.39,41.34-.9,2.6.47,5.98.78,9.01.04.44,0,.89,0,1.6-1.05-.72-1.88-1.28-2.76-1.88-.64,2.23-.78,4.38-1.79,5.97-2.52,3.99-1.18,6.75,2.19,9.18,3.48,4.96,7,9.9,10.43,14.89,1.43,2.08,2.74,2.8,4.62.48,4.03-5,7.72-10.38,12.32-14.8,8.43-8.11,16.17-17.43,28.58-20.03,1.03-.22,2.14-1.65,2.58-2.77,3.02-7.69,6.32-15.32,8.64-23.23,2.03-6.94,3.03-14.2,4.22-21.36.54-3.25.28-6.62.66-9.91.18-1.54.74-3.16,1.55-4.48,4.93-8.01,13.25-11.89,21.3-14.91,17.7-6.64,35.81-12.2,53.87-17.83,21.14-6.59,43.24-3.53,64.85-5.52,7.22-.67,14.98,3.69,22.38,6.11,10.2,3.34,20.28,7.02,31.55,10.95,5.69-45.3,20.33-86.7,47.36-123.21,1.16-1.32,2.32-2.63,3.81-4.32-1.29-.59-1.99-.98-2.73-1.23-1.88-.65-3.77-1.31-5.68-1.86-19.36-5.5-39.1-9.12-59.12-10.82-13.88-1.17-27.84-1.44-41.77-1.82-3.23-.09-6.75.41-9.7,1.67-6.85,2.91-13.58,6.17-20.09,9.78-8.13,4.5-16.08,9.34-23.94,14.3-18.95,11.98-37.83,24.06-56.65,36.25-4.61,2.99-8.87,6.53-14.22,10.51,3.79,1.28,6.41,2.17,9.03,3.05.29.73.57,1.46.86,2.19l-4.54-.22c-2.19-1.15-4.38-2.31-6.79-3.57-1.47,1.03-3.02,1.99-4.44,3.12-12.59,10.01-21.32,23.05-29.12,36.87-1.82,3.22-4.05,6.18-.92,9.77ZM524.12,695.29c-.51,2.27-1.45,4.53-1.47,6.8-.2,20.96-1.23,41.97-.04,62.85,1.07,18.88,3.85,37.76,7.33,56.37,2.46,13.13,6.26,26.25,11.46,38.54,5.01,11.85,12.36,22.74,19.09,33.82,9.7,15.98,21.69,30.16,38.11,39.42,19.97,11.27,40.25,22.07,60.95,31.93,17.52,8.34,36.16,13.11,55.96,12.48,19.95-.63,39.93-.33,59.88-.94,13.86-.43,27.65-2.54,40.38-8.17,17.77-7.86,35.38-16.18,52.57-25.22,9.31-4.9,17.61-11.73,26.37-17.68,3.53-3.49,7.17-6.87,10.58-10.48,13.54-14.34,25.79-29.55,32.63-48.43,3.56-9.84,8.57-19.33,10.75-29.45,3.03-14.1,4.95-28.59,5.63-42.99.8-17.05.28-34.21-.59-51.28-.97-19.05-2.09-38.05-6.13-56.9-5.14-24-12.52-47.24-22.01-69.71-8.77-20.74-25-36.18-42.63-49.23-16.75-12.4-35.04-22.81-53.14-33.26-11.26-6.5-24.08-9.99-37.06-9.82-15.72.2-31.49,1.62-47.1,3.6-23.26,2.94-46.4,6.8-69.58,10.32-17.02,2.59-33.92,6.52-49,14.66-20.69,11.16-39.02,25.96-55.21,43.1-6.92,7.33-14.4,14.75-19.03,23.5-7.74,14.62-13.83,30.18-19.76,45.67-3.78,9.87-6,20.32-8.93,30.52ZM1121.69,825.48c-1.55-2.97-2.86-5.99-4.62-8.73-2.42-3.77-5.56-7.11-7.67-11.03-2.15-3.99-4.55-3.9-8.14-2.32-10.01,4.42-20.7,7.55-31.43,5.42-6.76-1.34-11.33,1.28-16.7,3.51-2.28.95-5.83,1.99-7.39.93-4.01-2.73-7.81-1.42-11.87-1.32-13.1.33-25.41,5.74-39.09,3.96-11.53-1.49-23.56.9-35.57,1.58-.73,5.27-1.39,9.97-2.05,14.68,9.02.7,12.34,2.8,18.08,10.26,2.15,2.79,4.93,5.27,7.86,7.25,4.83,3.26,7.48,7.36,7.26,13.28-.13,3.42-.02,6.86-.02,11.77,7.99-1.41,15.15-3.14,22.41-3.83,9.39-.89,18.92-1.72,28.28-1.08,5.24.36,6.79-1.4,8.36-5.49,7.68-20.01,23.41-30.36,43.43-34.81,9.16-2.04,18.64-2.65,28.88-4.02ZM852.54,959.87c-5.99,3.02-10.87,5.49-15.76,7.94-19.12,9.57-39.32,15.5-60.69,16.34-20.93.82-41.9.49-62.84,1.05-16.13.43-31.6-3.16-46.19-9.03-16.14-6.49-31.42-15.14-47.04-22.91-6.78-3.37-13.47-6.92-20.31-10.44-1.2,2.16-1.98,3.82-2.98,5.33-6.95,10.46-12.82,21.59-25.94,26.48-15.24,5.68-30.01,12.64-44.93,19.15-3.39,1.48-6.58,3.4-11.19,5.81,2.38.42,3.14.62,3.91.68,20.63,1.72,41.26,1.28,61.71-1.68,18.97-2.74,37.91-4.31,57.09-4.27,25.6.06,51.2-.59,76.8-1.07,24.1-.45,48.2-1.32,72.31-1.53,14.96-.14,29.38-2.45,43.47-7.42,11.46-4.04,18.99-11.56,22.59-24.43ZM1263.53,305.4c-.95-1.82-2.65-3.04-5.74-.82-2.84,2.04-8.57-.16-9.6-3.44-1.45-4.64.31-10.18,4.44-13.5-1.77-2.28-3.53-4.55-5.08-6.55-7.92,7.13-10.37,15.61-8.59,24.5,3.31,2.65,5.94,5.1,8.9,7.03,2.55,1.66,5.42,2.96,8.32,3.87.8.25,2.62-1.22,3.26-2.31,1.42-2.4,2.39-5.07,4.07-8.78ZM1132.65,387.37c-.02-.54-.05-1.07-.07-1.61,2.62,0,5.25.19,7.84-.08,1.38-.14,2.68-1.05,4.01-1.62-1.03-1.09-1.88-2.77-3.13-3.16-4.44-1.38-8.99-1.39-12.8,1.71-1.65,1.34-4.12,4.04-3.7,5.06.79,1.88,3.41,4.12,5.33,4.19,6.59.24,13.21-.33,19.81-.8.8-.06,1.5-1.42,2.25-2.17-.87-.84-1.62-2.14-2.64-2.4-1.36-.35-2.93.15-4.41.23-4.17.23-8.34.43-12.51.65ZM1353.14,503.47c3.3-6.57,2.74-11.33-1.05-13.06.37,4.54.71,8.8,1.05,13.06Z"/>
  <path class="cls-17" d="M1135.14,61.35c-1.31-.94-2.61-1.89-3.92-2.83.26-.3.52-.61.78-.91-.31-.08-.61-.17-.92-.25,0,0-.17.16-.17.16.38-1.79.77-3.58,1.15-5.37l1.69-.2c.46,3.13.93,6.27,1.39,9.4Z"/>
  <path class="cls-16" d="M1163.94,416.93c.28-.45.55-.9.37-.6.23-.35-.03.04-.28.43l-.09.17Z"/>
  <polygon class="cls-16" points="873.44 288.99 873.35 288.88 873.48 288.94 873.44 288.99"/>
  <path class="cls-16" d="M1164.03,416.76l.17.24s-.25-.09-.25-.08c0,.01.08-.16.08-.16Z"/>
  <path class="cls-16" d="M878.32,275.91l.16.23s-.24-.09-.25-.08c0,.01.08-.16.08-.16Z"/>
  <path class="cls-16" d="M1110.11,434.79l.14.2s-.23-.07-.23-.05c0,.01.09-.15.09-.15Z"/>
  <path class="cls-20" d="M1071.25,719.11c-15.44.55-27.4-6-36.4-18.2-4.76-6.45-9.11-13.19-14.56-21.13,1.14,5.1,1.61,9.23,3.03,13.01,1.85,4.95,3.83,10.06,6.85,14.33,8.44,11.92,21.38,16.3,34.97,16.76,14.88.51,29.88-.8,44.75-2.13,10.89-.97,21.65-3.28,32.48-4.93,1.25-.19,2.56-.03,4.68-.03-1.89,2.37-3.71,4.1-4.86,6.2-3.42,6.22-6.59,12.58-9.83,18.91-2.62,5.13-4.84,10.51-7.88,15.39-4.04,6.49-8.33,12.48-8.79,20.77-.19,3.43-3.73,7.45-6.81,9.82-12.71,9.76-27.17,13.42-43.11,10.71-1.3-.22-2.67-.37-3.96-.2-13.46,1.77-26.88,3.82-40.36,5.36-9.09,1.04-18.26,1.48-27.4,2.01-10.75.62-21.5,1.04-32.72,1.57,0-2.74-.38-6.04.06-9.23,2.89-20.61.99-41.16-.55-61.72-.81-10.77-.93-21.63-2.43-32.3-1.57-11.16-3.69-22.35-6.88-33.14-5.63-19.09-11.31-38.27-18.83-56.66-4.18-10.22-12.07-18.94-18.38-28.28-1.29-1.9-2.99-3.52-4.36-5.12,14.94-11.37,30.19-22.99,45.75-34.84,1.73,13.05,12.34,18.23,21.18,24.54,5.19,3.7,11.41,6.4,17.56,8.21,11.96,3.5,23.98,2.75,34.12-5.09,3.63-2.81,6.09-7.87,7.68-12.4,2.24-6.37,3.17-13.2,4.61-19.6,10.52-.96,21.41-1.95,32.3-2.95,17.37-1.59,34.73-3.17,52.1-4.76.7,1.29,1.08,3.12,2.16,3.78,7.68,4.67,12.01,12.15,16.63,19.37,2.56,3.99,5.34,7.99,7.02,12.36,2.66,6.92,4.43,14.18,6.67,21.26,3.44,10.87,7.03,21.68,10.41,32.57,1.89,6.09,3.49,12.26,5.21,18.4,1.96,12.67,2,25.29-.95,37.84-2.61,1.05-5.69,1.55-7.72,3.28-3.5,2.98-6.17,6.9-9.53,10.07-1.81,1.71-4.17,3.32-6.55,3.88-8.17,1.94-16.49,3.22-24.68,5.09-5.58,1.28-10.95,3.79-16.57,4.56-10.93,1.49-21.98,2.1-32.96,3.16-3.34.32-4.45,2.53-4.02,5.63.18,1.3.56,2.57.85,3.85ZM1013.48,741.13c-.97,1.04-2.71,2.08-2.72,3.13-.01,1.25,1.47,2.51,2.3,3.76,1.99-1.43,3.98-2.86,5.97-4.29,3.46-.55,4.92-2.86,4.18-5.97-.37-1.56-2.9-4.11-3.31-3.91-2.16,1.06-4.05,2.76-5.8,4.47-.57.56-.43,1.84-.61,2.8ZM1026.22,769.76c-2.05-.92-5.53-2.49-5.09,1.01.51,4.11-2.16,4.84-3.9,6.9-1.06,1.25-1.5,3.03-2.22,4.57,1.75-.16,3.53-.21,5.25-.54.73-.14,1.35-.86,2.02-1.31,2.35-.15,6.04.55,6.77-.61,1.49-2.36,1.55-5.72,1.72-8.7.02-.35-2.96-.87-4.55-1.32ZM1045.87,766.39c2.12-.09,5.03.64,6.16-.46,1.44-1.41,2.66-4.95,1.86-6.41-2.49-4.53-5.72-8.75-9.21-12.6-1.54-1.7-4.53-2.77-5.76,1.12-1.29-.37-2.99-1.4-3.76-.93-1,.61-2.1,2.82-1.71,3.67,2.37,5.14,5.01,10.19,7.95,15.02.49.8,2.93.42,4.46.58ZM1003.37,700.09c1.55-3.26,4.53-6.84,4.74-10.58.33-5.98-1.25-12.05-1.89-18.1-.22-2.05-.15-4.15-.06-6.22.16-3.56,1.39-7.37.49-10.62-2.54-9.21-5.87-18.2-9-27.24-1.51-4.37-3.15-8.7-4.91-12.98-2.53-6.13-5.24-12.18-7.87-18.27-.77.24-1.54.48-2.32.72,2.78,13.62,5.27,27.3,8.41,40.83,2.72,11.72,7.29,23.11,4.45,35.53-.35,1.54.17,3.29.28,4.94.22,3.46,1.48,7.27.45,10.31-2.19,6.51-.83,10.3,7.23,11.66ZM1013.09,677.08c-.52.03-1.03.06-1.55.09,0,5.15.12,10.31-.02,15.46-.34,12.23-6.24,21.84-14.68,30.14-.85.83-2.3,1.12-3.52,1.5-10.24,3.13-20.49,6.22-31.03,9.41.14,1.99.28,3.87.48,6.65,10.67-3.27,20.49-6.64,30.51-9.16,4.48-1.13,7.65-3.17,10.67-6.5,3.65-4.02,6.01-9.85,12.6-10.59.2-.02.45-3.26-.08-4.73-.28-.79-2.17-1.01-3.38-1.51v-30.74Z"/>
  <path class="cls-23" d="M894.69,925.47c-8.76,5.96-17.06,12.78-26.37,17.68-17.19,9.05-34.8,17.36-52.57,25.22-12.73,5.63-26.52,7.75-40.38,8.17-19.95.61-39.93.31-59.88.94-19.8.63-38.44-4.13-55.96-12.48-20.69-9.86-40.98-20.65-60.95-31.93-16.41-9.27-28.4-23.44-38.11-39.42-6.72-11.07-14.07-21.97-19.09-33.82-5.2-12.28-9.01-25.41-11.46-38.54-3.48-18.61-6.26-37.49-7.33-56.37-1.19-20.88-.16-41.9.04-62.85.02-2.27.96-4.53,1.47-6.79,6.98,1.73,9.73-.37,10.76-7.47.66-4.57,1.81-9.12,3.22-13.52,2.43-7.58,5.28-15.02,7.87-22.55,5.16-14.96,10.81-29.76,20.32-42.55,4.31-5.8,10.55-10.16,14.88-15.95,6.99-9.36,14.93-17.44,25.24-22.94,8.92-4.76,17.63-10.52,27.17-13.4,15.66-4.74,31.89-7.6,47.91-11.07,11.64-2.53,23.27-5.32,35.05-7.02,15.4-2.22,30.92-3.74,46.43-5.07,7.54-.65,15.19-.36,22.78-.16,7.13.19,14.25.92,21.38,1.2,2.4.1,5.22-1.36,7.17-.52,5.31,2.3,10.52,5.06,15.3,8.32,10.83,7.38,21.21,15.43,32.1,22.71,11.17,7.47,23.14,13.84,31.67,24.66,4.62,5.86,8.87,12.02,13.75,17.64,12.37,14.28,18.24,31.22,21.53,49.46,2,11.09,4.11,22.24,7.36,33.01,5.32,17.61,7.44,35.76,9.03,53.83,1.68,19,1.17,38.21,1.12,57.32-.01,6.57-.85,13.31-2.47,19.67-2.37,9.3-5.72,18.35-8.81,27.46-2.34,6.9-4.19,14.11-7.59,20.47-4.76,8.88-10.6,17.21-16.28,25.57-5.03,7.4-10.44,14.54-15.74,21.76-2.22,3.02-2.44,6.08-.58,9.31ZM598.69,603.65c.93-1.49,1.85-2.98,2.78-4.47-.95-.53-2.47-1.72-2.74-1.49-1.16,1.02-1.95,2.46-2.88,3.74-.92,1.1-1.85,2.19-2.77,3.29.86.65,2.09,2.01,2.5,1.8,1.21-.62,2.09-1.88,3.11-2.88ZM647.79,559.69c.88,1.33,1.53,3.49,2.68,3.79,1.4.37,3.21-.82,4.84-1.33-.58-1.29-1.15-2.57-1.73-3.86-1.19-1.12-2.37-2.24-3.56-3.36-.75,1.58-1.49,3.17-2.24,4.75ZM554.69,842.43c-1.22.96-2.44,1.93-3.66,2.89,1.69,1.86,3.18,4.04,5.21,5.4.61.41,2.74-1.41,4.14-2.27.03-.02-.41-.79-.64-1.21.48-1.03,1.54-2.2,1.33-3.07-.46-1.98-1.53-3.82-2.36-5.72-1.34,1.32-2.68,2.65-4.02,3.97ZM727.76,936.91c20.66-1.25,45.51,3.1,69.56-4.73,12.64-4.11,25.71-7.29,37.76-12.72,14.63-6.6,29.18-13.74,41.87-23.97,9.89-7.97,19.44-16.3,25.39-27.74,4.44-8.53,7.91-17.55,12.14-26.19,8.44-17.28,14.85-35.22,17.05-54.39,3.98-34.73,3-70.37-9.94-104.56-1.69-4.48-2.47-9.29-3.82-13.91-5.82-19.94-14.85-38.05-29.93-52.76-16.63-16.22-34.14-31.09-56.17-39.76-6.74-2.65-13.04-6.4-19.57-9.57-1.62-.79-3.33-1.45-5.07-1.95-21.38-6.17-43.2-5.54-64.91-3.15-26.26,2.89-52.38,6.97-78.59,10.32-19.27,2.46-36.33,10.04-50.52,23-21.94,20.04-35.87,45.53-47.16,72.64-7.07,16.97-8.86,35.04-11.4,52.98-2.42,17.11-2.28,34.17,1.11,51.11,1.79,8.95,4.52,17.72,6.23,26.69,3.92,20.61,7.93,41.15,17.42,60.15,7.79,15.61,14.42,32.01,28.17,43.67,9.48,8.03,18.81,16.48,29.29,23.02,14.55,9.08,31.24,11.82,48.31,11.82,12.99,0,25.97,0,42.78,0ZM753.61,550.64c-.88,2.08-2.12,3.62-1.75,4.4.67,1.39,2.16,2.83,3.59,3.23.67.19,2-2.01,3.03-3.13-1.37-1.27-2.75-2.54-4.88-4.5ZM824.6,545.09c-2.22-1.25-3.39-2.45-4.39-2.33-1.02.13-1.87,1.57-2.8,2.44.95.82,1.85,2.2,2.86,2.29,1.02.08,2.16-1.12,4.34-2.4Z"/>
  <path class="cls-3" d="M975.57,143.01l4.54.22c-.29-.73-.57-1.46-.86-2.19,1.78-1.47,3.46-3.08,5.34-4.4,3.93-2.76,8.04-5.27,11.95-8.06,11.74-8.36,22.09-18.64,35.39-24.83,6.61-3.07,13.07-6.52,19.33-10.24,14.27-8.46,28.2-17.26,45.14-20,19.52-3.16,38.81-4.71,58.02,1.5,2.03.66,4.21.91,6.34,1.21,13.46,1.94,27.03,3.35,39.54,9.3-27.04,36.51-41.67,77.91-47.36,123.21-11.27-3.93-21.35-7.61-31.55-10.95-7.4-2.42-15.16-6.77-22.38-6.11-21.61,1.99-43.71-1.07-64.85,5.52-18.06,5.63-36.17,11.19-53.87,17.83-8.06,3.02-16.37,6.9-21.3,14.91-.81,1.32-1.38,2.94-1.55,4.48-.38,3.29-.12,6.66-.66,9.91-1.18,7.16-2.18,14.42-4.22,21.36-2.32,7.91-5.62,15.54-8.64,23.23-.44,1.12-1.56,2.55-2.58,2.77-12.41,2.6-20.14,11.92-28.58,20.03-4.6,4.42-8.28,9.8-12.32,14.8-1.87,2.32-3.19,1.61-4.62-.48-3.43-5-6.94-9.93-10.43-14.89,1.33-1.77,3.17-3.36,3.89-5.36,3.16-8.7,5.8-17.59,8.99-26.28,7.59-20.66,15.26-41.29,23.14-61.85,3.25-8.48,7.1-16.73,10.67-25.08.79.52,1.58,1.04,3.07,2.02-.4-2.44-.64-3.93-.88-5.43,11.65-17.28,24.65-33.35,41.27-46.18Z"/>
  <path class="cls-15" d="M1169.4,349c-1.18,1.33-2.36,2.66-3.04,3.42-7.69-4.59-14.99-8.72-21.99-13.3-1.59-1.04-2.8-3.57-3.07-5.57-.84-6.06-1.13-12.2-1.64-18.31-.07-.83-.21-1.66-.17-2.48.13-2.66,1.48-6.12.28-7.82-3.76-5.39-8.26-10.32-12.94-14.96-1.2-1.19-4.17-1.1-6.22-.83-16.95,2.23-33.15-.91-49.12-6.32-13.84-4.69-27.88-8.81-41.63-13.75-10.43-3.74-20.57-8.33-30.8-12.62-3.73-1.57-6.96-1.47-10.03,1.56-7.19,7.07-13.33,15-16.42,24.57-3.58,11.07.46,21.52,5.64,31.06,4.34,7.98,10.18,15.14,15.36,22.66.27.22.54.44.8.66,0,0-.05-.05-.05-.05.7.65,1.41,1.3,2.11,1.95,0,0-.06-.02-.06-.02.35.35.7.69,1.05,1.04,0,0,.07-.15.07-.15,2.46,2.42,4.92,4.84,7.39,7.25.85.29,1.69.57,2.54.86,0,0-.03-.02-.03-.02,1.15,1.24,2.13,2.7,3.47,3.68,3.34,2.45,7.31,4.21,10.2,7.08,8.58,8.51,19.22,13.4,29.96,18.24-.72,23.37-3.54,29.52,7.39,54.29,2.29,5.19,2.72,11.2,4.01,16.84-8.78-4.65-18.08-8.52-26.23-14.09-25.45-17.41-49.62-36.41-69.69-60.13-2.21-2.61-2.71-4.8-2.38-8.38,1.54-16.54,2.66-33.13,3.24-49.72.23-6.63-4.18-11.4-9.99-14.42-2.78-1.44-5.81-2.39-8.63-3.52,3.26-8.26,6.92-16.4,9.68-24.84,1.98-6.06,2.72-12.53,4.11-18.8.86-3.88,1.86-7.73,2.84-11.58.24-.96.94-1.88.94-2.82.02-11.74,9.53-14.77,17.64-18.03,22.06-8.87,44.55-16.6,68.15-20.38,4.39-.7,8.97-.19,13.44-.54,5.93-.47,11.93-.8,17.74-1.98,8.69-1.76,16.99.03,24.93,2.69,15.11,5.05,29.95,10.92,44.84,16.58,3.86,1.47,5.22-.43,5.93-3.65.96-4.36,1.85-8.73,2.99-14.2,6.97,2.42,13.51,4.69,20.05,6.96.42.3.84.6,1.26.9,0,0-.09-.1-.09-.1,7.27,7.01,14.41,14.15,21.85,20.97,5.39,4.94,11.17,9.45,17.15,14.46-11.82,7.44-22.46,14.13-33.09,20.82,0,0,.11-.11.11-.11-1.3-.12-2.69,0-3.89-.41-4.43-1.51-7.79.4-9.71,3.91-2.28,4.17-4.57,8.73-5.16,13.33-1.58,12.42-2.39,24.95-3.25,37.45-.58,8.51-.91,17.04-.91,25.56,0,1.7,1.99,3.4,3.06,5.1ZM1037.49,234.72c1.78-2.1,2.77-3.27,3.77-4.45-1.57-1.27-3-2.84-4.79-3.59-.46-.19-2.92,2.3-2.82,3.39.13,1.35,1.99,2.54,3.84,4.64ZM1051.01,252.5c1.99,1.13,3.13,2.24,3.68,2,1.61-.7,2.99-1.94,4.45-2.97-1.07-.52-2.2-1.54-3.19-1.42-1.35.16-2.6,1.2-4.95,2.39Z"/>
  <path class="cls-20" d="M828.57,438.59c-2.37-.21-4.75-.41-7.12-.62-.21-.67-.42-1.34-.63-2.01.98-.59,1.94-1.21,2.94-1.75,6.53-3.54,13.28-6.73,19.53-10.71,4.58-2.91,8.87-6.51,12.64-10.42,5.15-5.36,9.85-11.18,14.44-17.04,5.62-7.18,10.83-14.67,16.39-21.9,7.82-10.18,13.17-21.67,16.56-33.85,3.16-11.35,9.81-19.75,18.54-26.98,5.66-4.69,11.35-9.36,17.69-13.7-.12,5.61,2.93,6.56,6.91,7.14,9.97,1.46,14.04,5.99,13.91,16.01-.19,15.42-.07,30.89-5.09,45.82-.44,1.32.35,3.58,1.33,4.78,11.78,14.48,24.55,28.02,39.31,39.53,13.75,10.72,27.66,21.23,41.54,31.87-4.96,5.54-10.68,11.31-15.68,17.64-9.14,11.58-17.92,23.44-26.71,35.29-1.46,1.96-2.52,4.36-3.21,6.71-.82,2.82-2.25,3.83-5.22,4.07-7.37.58-7.15.69-10.06-6.23-1.11-2.65-3.22-4.96-5.18-7.16-2.2-2.47-4.74-4.63-7.13-6.92.91-6.74-3.87-10.54-8.2-13.75-11.81-8.75-23.33-18.16-37.55-22.97-13.58-4.59-26.16-12.11-40.67-13.91-2.7-.33-5.48.05-8.21-.13-12.02-.8-24.04-1.83-36.07-2.35-1.62-.07-3.34,2.3-5.02,3.54Z"/>
  <path class="cls-3" d="M971.32,514.71c-2.89,4.24-6.17,8.27-8.59,12.77-4.24,7.89-10.03,13.89-18.14,17.76-2.06.98-3.82,2.62-5.69,4-10.67,7.92-21.39,15.78-31.97,23.82-2.42,1.84-4.07,1.49-5.95-.49-16.41-17.26-37.55-27.97-57.37-40.28-17.75-11.03-37.48-17.95-59.11-16.29-8.92.69-17.84,1.56-26.72,2.65-18.26,2.25-36.49,4.7-56.33,7.28,3.46-5.14,5.78-9.83,9.23-13.45,8.21-8.63,16.84-16.87,25.54-25,2.11-1.97,4.94-4.93,8.68-1.13,2.01-1.33,4.34-2.87,6.67-4.41,1.92,2.98,4.16,1.45,6.55.65,13.89-4.67,24.93-14.13,37-21.85,4.3-2.75,8.46-6.69,13.17-7.64,13.35-2.7,26.93-2.72,40.56-1.22,29.75,3.27,55.97,16.07,81.42,30.47,11.33,6.41,21.47,14.98,31.9,22.9,3.45,2.62,6.12,6.29,9.14,9.47Z"/>
  <path class="cls-13" d="M1262.28,330.07c-5.17,5.36-9.95,11.18-15.64,15.91-3.71,3.09-8.63,4.84-13.2,6.72-3.67,1.51-5.77,3.51-5.54,7.74.08,1.4-.56,3.71-1.54,4.17-4.89,2.28-10.01,4.08-15.25,6.13-.18-1.24-.39-2.74-.6-4.23l1.01.6c-1.16,1.87-1.96,4.24-3.6,5.47-1.49,1.12-3.91,1-7.34,1.72-3.21,1.93-8.63,3.51-14.32,4.41.2-2.08.4-4.15.59-6.23-.35-.04-.69-.08-1.04-.12-.57,1.3-1.14,2.61-1.87,4.26-.97-2.2-1.71-3.88-2.45-5.57-.88,2.23-1.61,4.06-2.33,5.89-1.24-.19-3.14-.98-3.62-.46-4.2,4.57-7.71.89-11.24-.83-3.99-1.94-7.61-5.52-11.73-6.12-5.97-.87-12.27.8-18.38.44-5.36-.32-9.93,2.21-14.97,2.71-1.63.16-3.3-.13-4.79-.21-.18.38-.51,1.86-1.41,2.84-4.02,4.39-9.47,6-15.09,6.83-.73.11-1.81-2.09-2.72-3.22.68-.33,1.35-.66,2.03-.99,1.34.7,2.68,3.5,4.02,0,.51-.41,1.02-.82,1.53-1.23-.11-.11-.22-.22-.33-.33-.41.51-.82,1.02-1.23,1.52-1.32,0-2.64,0-3.96,0l-4.09-3.83-.99.8c.31,1,.62,2,.92,3-.14,4.01-.14,3.93-5.57,3.44-3.08-.28-6.19-.27-9.29-.39-.76-3.14-1.52-6.28-2.28-9.42-.32-.07-.65-.15-.97-.22-.24,2.91-.48,5.83-.71,8.74-3.59-.03-4.99-1.48-5.33-5.4-.2-2.32-2.67-5.3-4.91-6.46-12.09-6.23-24.52-11.8-36.65-17.95-17.5-8.87-32.91-20.22-41.69-38.49-2.64-5.49-5.16-11.31-6.18-17.24-2.24-13.02,6.45-21.58,14.14-30.28.53-.6,2.43-.44,3.48-.05,14.74,5.53,29.37,11.37,44.18,16.71,11.39,4.11,22.92,7.86,34.51,11.36,13.91,4.21,28.15,6.39,42.73,4.71,6.14-.7,13.59,6.74,13.67,13.05.12,9.61.35,19.3,1.79,28.77.45,2.94,4.66,5.66,7.66,7.78,5.5,3.89,11.57,6.97,17.03,10.91,5.57,4.02,10.09,3.94,14.55-1.16,1.77-2.02,3.39-3.94,6.7-2.7,1.6.6,3.65.34,5.44.06,3.54-.55,4.98-2.73,3.48-6.09-7.06-15.79-6.39-32.38-4.79-48.95.7-7.21,2.61-14.31,4.06-21.43.8-3.91,2.95-5.34,7.32-5.51,13.01-.49,24.95-4.86,35.92-11.84,1.12-.71,2.16-1.55,3.26-2.29.26-.18.62-.2,1.25-.4,2.23,5.47,4.46,10.97,6.7,16.47-.29.24-.59.47-.88.71-2.35,4.66-4.11,9.73-9.41,12.17-.92.42-1.43,1.73-2.13,2.64-1.02-.71-2.03-1.41-3.05-2.12-.25-.41-.5-.83-.75-1.24-.28-.45-.56-.89-.84-1.34l-.54.43c.33.44.66.87.99,1.3.38.28.76.56,1.14.85-.09,2.45.44,5.5-4.72,3.01.24.63.47,1.26.71,1.88,1.7.34,3.4.67,5.1,1.01.1,3.3.32,6.6.23,9.9-.02.84-1.04,1.65-1.6,2.47-.04.07-.11.18-.09.22.09.13.21.24.32.35.26,9.81,5.49,16.49,14.71,18.87,6.83,1.76,13.65,3.56,20.47,5.34ZM1050.3,297.99c-3.42-2.39-6.91-4.17-10.86-1.05-1.15-.03-2.4.24-3.42-.14-10.28-3.73-20.7-6.65-31.78-6.31-2.06.06-4.11.37-6.17.57-2.86,3.58-2.14,6.62,1.96,8.25l.08.28c.28,1.52.07,3.41.9,4.5,8.34,10.87,16.33,22.08,25.47,32.25,8.93,9.94,21.16,14.47,34.18,16.91,8.34,1.56,14.91-1.65,18.09-9.29,1.59-3.83,3.76-7.53,4.61-11.52.87-4.08.46-8.44.6-12.68,1.4-5.3,3.06-10.61-.67-15.7.3-3.48-1.77-3.94-4.65-4.16-2.38-.18-4.7-1.22-7.02-1.88.2,3.25-3.18,4.54-5.24,2.44-2.53-2.57-4.75-1.06-7.06-1.49-1.98-.35-3.95-.69-5.93-1.04-1.07-3.15-2.08-1.37-3.09.04Z"/>
  <path class="cls-20" d="M1233.13,578.94c1.9-5.44,3.8-10.89,5.7-16.33,4.14.79,5.86-1.6,7.23-5.05,3.51-8.86,6.84-17.83,11.09-26.33,1.86-3.71,5.8-6.37,8.79-9.51,2.49,18.1,13.8,29.84,28.76,38.4,4.1,2.34,9.56,2.37,14.44,3.24,1.9.34,3.92.06,6,.06,0,1.01.13,1.53-.02,1.97-5.07,15.26-9.56,30.77-15.52,45.68-3.08,7.71-8.33,14.72-13.49,21.36-2.47,3.17-6.79,5.28-10.68,6.87-5.39,2.21-9.82,4.99-13.21,9.97-12.65,18.62-36.27,19.14-51.19,9.29-5.1-3.37-10.46-6.38-15.36-10.01-1.47-1.09-2.62-3.78-2.52-5.67.87-17.58,2.18-35.13,2.99-52.71.17-3.7-1.2-7.47-1.85-11.21-2.37-13.64-6.96-26.43-14.7-37.99,2.78.96,5.55,1.95,8.35,2.86,14.57,4.75,25.3,14.83,35.3,25.78,1.87,2.05,2.69,5.08,3.87,7.71.75,1.67,1.27,3.44,1.9,5.16,1.37-1.18,2.74-2.36,4.1-3.53Z"/>
  <path class="cls-7" d="M894.69,925.47c-1.86-3.23-1.64-6.29.58-9.31,5.3-7.22,10.71-14.36,15.74-21.76,5.68-8.36,11.52-16.68,16.28-25.57,3.4-6.36,5.25-13.57,7.59-20.47,3.09-9.1,6.43-18.16,8.81-27.46,1.63-6.36,2.46-13.1,2.47-19.67.04-19.12.56-38.33-1.12-57.32-1.6-18.07-3.71-36.22-9.03-53.83-3.25-10.76-5.36-21.92-7.36-33.01-3.29-18.24-9.16-35.18-21.53-49.46-4.88-5.63-9.13-11.79-13.75-17.64-8.53-10.82-20.5-17.19-31.67-24.66-10.89-7.28-21.27-15.33-32.1-22.71-4.78-3.26-9.99-6.03-15.3-8.32-1.94-.84-4.77.62-7.17.52-7.13-.28-14.25-1.01-21.38-1.2-7.59-.2-15.23-.48-22.78.16-15.51,1.33-31.03,2.84-46.43,5.07-11.78,1.7-23.4,4.49-35.05,7.02-16.03,3.48-32.26,6.34-47.91,11.07-9.54,2.89-18.25,8.64-27.17,13.4-10.31,5.5-18.25,13.59-25.24,22.94-4.32,5.79-10.57,10.15-14.88,15.95-9.51,12.79-15.15,27.59-20.32,42.55-2.6,7.53-5.44,14.97-7.87,22.55-1.41,4.4-2.55,8.95-3.22,13.52-1.03,7.1-3.77,9.2-10.76,7.47,2.92-10.2,5.15-20.65,8.93-30.52,5.93-15.49,12.02-31.05,19.76-45.67,4.63-8.75,12.1-16.17,19.03-23.5,16.19-17.14,34.51-31.94,55.21-43.1,15.08-8.13,31.98-12.07,49-14.66,23.18-3.52,46.33-7.38,69.58-10.32,15.61-1.97,31.38-3.39,47.1-3.6,12.98-.17,25.79,3.33,37.06,9.82,18.1,10.44,36.39,20.86,53.14,33.26,17.64,13.05,33.87,28.49,42.63,49.23,9.49,22.47,16.87,45.71,22.01,69.71,4.04,18.84,5.16,37.85,6.13,56.9.87,17.07,1.39,34.23.59,51.28-.68,14.4-2.6,28.89-5.63,42.99-2.17,10.12-7.18,19.61-10.75,29.45-6.84,18.88-19.09,34.09-32.63,48.43-3.41,3.61-7.05,6.99-10.58,10.48Z"/>
  <path class="cls-20" d="M1109.54,981.46c-2.94,6.67-7.66,11.84-13.42,16.78-.42-1.02-.63-1.39-.73-1.79-.51-1.89-.99-3.79-1.48-5.69-.96,1.78-2.37,3.47-2.8,5.37-1.41,6.32-4.51,7.79-10.77,4.73,1.36-3.72,2.91-7.38,3.99-11.18.41-1.46-.23-3.22-.4-4.84-1.15.89-2.3,1.77-3.44,2.66-.33.26-.64.55-2,1.71.34-6.26.23-11.52.98-16.64,2.49-17.16,4.81-34.22-3.4-50.68-.99-1.98-1.05-4.47-1.28-6.75-1.33-12.97-5.57-24.39-16.64-32.37-1.71-1.23-3.1-2.9-4.56-4.29,11.67-33.87,31.2-39.89,59.68-42.01.34,11.08.57,22.16,1.11,33.23.16,3.25.6,6.74,1.96,9.62,7.92,16.8,5.99,33.99,1.64,50.94-3.48,13.55-8.49,26.7-12.83,40.02-2.08,6.38-1.42,8.08,4.4,11.17Z"/>
  <path class="cls-17" d="M1121.69,825.48c-10.24,1.38-19.72,1.99-28.88,4.02-20.02,4.45-35.75,14.8-43.43,34.81-1.57,4.09-3.11,5.85-8.36,5.49-9.37-.64-18.89.18-28.28,1.08-7.26.69-14.42,2.42-22.41,3.83,0-4.91-.11-8.34.02-11.77.22-5.91-2.43-10.01-7.26-13.28-2.93-1.98-5.71-4.45-7.86-7.25-5.74-7.46-9.06-9.56-18.08-10.27.66-4.71,1.31-9.42,2.04-14.68,12.01-.68,24.05-3.08,35.57-1.58,13.68,1.77,25.99-3.64,39.09-3.96,4.07-.1,7.86-1.4,11.87,1.32,1.57,1.06,5.11.02,7.39-.93,5.37-2.23,9.94-4.85,16.7-3.51,10.73,2.13,21.42-1,31.43-5.42,3.58-1.58,5.99-1.67,8.14,2.32,2.11,3.92,5.25,7.26,7.67,11.03,1.75,2.73,3.07,5.75,4.62,8.73Z"/>
  <path class="cls-22" d="M852.54,959.87c-3.6,12.87-11.13,20.39-22.59,24.43-14.09,4.97-28.52,7.28-43.47,7.42-24.11.22-48.21,1.08-72.31,1.53-25.6.48-51.2,1.13-76.8,1.07-19.18-.04-38.12,1.53-57.09,4.27-20.45,2.95-41.08,3.39-61.71,1.68-.77-.06-1.53-.26-3.91-.68,4.61-2.41,7.8-4.34,11.19-5.81,14.93-6.51,29.69-13.47,44.93-19.15,13.12-4.89,18.99-16.02,25.94-26.48,1.01-1.51,1.79-3.18,2.98-5.33,6.85,3.53,13.54,7.07,20.31,10.44,15.62,7.78,30.9,16.42,47.04,22.91,14.59,5.87,30.06,9.46,46.19,9.03,20.94-.56,41.91-.24,62.84-1.05,21.37-.84,41.57-6.76,60.69-16.34,4.89-2.45,9.77-4.92,15.76-7.94Z"/>
  <path class="cls-3" d="M1146.41,525.45c-19.52,1.15-39.06,2.04-58.55,3.56-11.38.89-22.67,2.8-34.01,4.24-.82.11-1.64.24-2.47.3-8.06.58-15.38.68-20.18-8.25-5.74-10.68-17.01-13.53-27.83-16.43,3.28-6.16,6.57-12.32,9.82-18.5.79-1.5,1.41-3.09,2.11-4.63,0,0,0,.01,0,.01,5.63-1.71,10.11-4.57,11.02-11,0,0-.04.04-.04.04.67-.69,1.34-1.37,2.02-2.06,0,0-.04.04-.04.04,2.26-.97,4.45-2.29,6.81-2.82,2.46-.54,5.46-1.19,7.57-.27,8.06,3.5,15.96,7.42,23.74,11.53,18.48,9.78,36.9,19.66,55.24,29.7,8.4,4.6,16.54,9.68,24.8,14.54Z"/>
  <path class="cls-17" d="M1345.08,821.97c-2.98,3.39-6.72,2.77-11.06,2.2,0-1.97.02-3.73,0-5.49-.4-25.78,1.39-51.42,3.75-77.1,4.75-51.84,4.49-103.86,4.66-155.87.05-13.99,2.98-28.01,5.08-41.94,1.29-8.58,1.71-8.53,10.23-6.99,3.08.56,6.15,1.24,9.22,1.87-.03,1.99.12,4.01-.13,5.97-2.56,20.63-6.08,41.19-7.55,61.9-1.7,23.96-1.49,48.05-2.36,72.07-.28,7.75-1.27,15.47-2.14,23.19-1.5,13.43-3.19,26.84-4.73,40.27-.64,5.57-1.04,11.18-1.62,16.76-1.44,13.95-3.27,27.87-4.25,41.85-.49,7.05.55,14.21.89,21.32Z"/>
  <path class="cls-13" d="M918.58,977.39c-5.42,4.06-10.66,8.4-16.36,12.01-1.85,1.18-4.91.45-7.42.6-.16-.43-.32-.87-.48-1.3,1.44-1.68,3.17-3.19,4.23-5.09.65-1.16.27-2.89.35-4.37-1.19.53-2.52.87-3.55,1.62-1.16.86-2.06,2.08-3.07,3.14-.38-.18-.77-.37-1.15-.55.73-1.69,1.12-3.67,2.25-5.02,7.99-9.53,13.36-20.03,13.94-32.79.22-4.74,1.89-9.41,2.8-14.12.31-1.61,1.08-3.76.37-4.83-2.85-4.34.33-6.5,2.62-9.19,5.39-6.32,11.52-12.2,15.82-19.19,6.48-10.53,11.98-21.7,17.29-32.89,3.75-7.9,6.49-16.29,9.79-24.75,11.06,3.22,15.51,14.14,24.18,19.82-1.95,5.82-5.93,10.03-11.5,12.1-4.47,1.66-7.23,4.88-7.98,8.78-2.01,10.42-8.08,17.88-15.49,24.83-4.42,4.14-4.4,9.53-3.24,15.23.68,3.34,1.2,7.29.06,10.32-5.27,14.03-13.56,26.32-23.18,37.77-1.99,2.36-4.42,5.11-.3,7.89Z"/>
  <path class="cls-17" d="M1177.8,677.25c2.83-16.63,1.44-33.05-2.1-49.43-3.05-14.11-5.18-28.45-8.85-42.39-4.47-16.98-8.88-34.25-22.48-46.96-1.78-1.67-3.62-3.28-5.22-6.04,3.96.44,8,.53,11.87,1.39,7.11,1.58,13.7,3.04,20.34,7.77,11.26,8.02,12.25,19.74,15.59,30.71,7.42,24.35,4.18,49.03,1.13,73.65-.44,3.56.1,7.23.21,10.86.13,4.39-.97,8.13-4.77,10.91-1.14.83-1.57,2.67-2.24,4.08-.96,2.03-1.85,4.09-2.77,6.14-.23-.23-.46-.46-.69-.68Z"/>
  <path class="cls-23" d="M1327.39,536.62c1.21,1.11,2.41,2.22,3.49,3.22-5.09,6.89-9.97,13.5-15.35,20.79-24.48,3.83-49.73-23.89-46.37-46.92,2.19-.24,4.68.1,6.5-.85,4.39-2.28,8.38-5.33,12.7-7.77,5.52-3.12,11.21-5.94,16.95-8.95,3.85,10.36,7.03,19.6,10.76,28.62,1.61,3.89,4.14,7.47,6.71,10.86.72.95,3.03.7,4.62,1Z"/>
  <path class="cls-17" d="M1368.95,468.93c-3.24-1.85-6.84-3.29-9.58-5.71-1.54-1.37-2.31-4.35-2.31-6.6.02-9.29.19-18.59.82-27.86,1.25-18.37,2.89-36.71,4.28-55.07,1.07-14.24,2.51-28.48,2.87-42.74.49-19.79.12-39.6.13-59.4,0-1.61,0-3.22,0-4.34,3.49.97,6.64,1.86,9.8,2.74,3.4,66.49-3.24,132.68-6.01,198.98Z"/>
  <path class="cls-18" d="M1109.54,981.46c-5.81-3.09-6.48-4.79-4.4-11.17,4.34-13.32,9.35-26.48,12.83-40.02,4.35-16.96,6.28-34.15-1.64-50.94-1.36-2.88-1.81-6.38-1.96-9.62-.54-11.07-.76-22.15-1.11-33.23h11.19c.64,4.86,1.9,9.74,1.82,14.59-.22,13.2,1.42,25.96,4.44,38.89,2.21,9.47,1.61,19.92.53,29.75-1.13,10.31-3.76,20.57-6.83,30.52-1.97,6.4-5.98,12.15-8.95,18.26-2.08,4.27-3.95,8.65-5.91,12.97Z"/>
  <path class="cls-1" d="M1200.32,85.53c-12.51-5.95-26.09-7.37-39.54-9.3-2.13-.31-4.31-.56-6.34-1.21-19.21-6.21-38.49-4.65-58.02-1.5-16.95,2.74-30.88,11.54-45.14,20-6.27,3.72-12.73,7.17-19.33,10.24-13.3,6.19-23.66,16.47-35.39,24.83-3.91,2.79-8.02,5.3-11.95,8.06-1.88,1.32-3.57,2.92-5.34,4.4-2.62-.89-5.25-1.77-9.03-3.05,5.36-3.98,9.61-7.52,14.22-10.51,18.82-12.18,37.7-24.27,56.65-36.25,7.85-4.97,15.81-9.8,23.94-14.3,6.51-3.61,13.24-6.87,20.09-9.78,2.95-1.25,6.47-1.75,9.7-1.67,13.93.38,27.9.64,41.77,1.82,20.02,1.69,39.76,5.31,59.12,10.82,1.92.54,3.8,1.2,5.68,1.86.74.26,1.44.64,2.73,1.23-1.48,1.68-2.65,3-3.81,4.32Z"/>
  <path class="cls-10" d="M985.86,566.73c-6.62-4.87-13.83-9.14-19.56-14.89-2.41-2.42-2.69-8.08-2.21-12.05,1.55-12.78,13.39-23.82,24.51-23.74-.02.66-.04,1.32-.07,1.98-.6,3.21-1.37,6.39-1.76,9.62-1.06,8.71-2.5,17.38.1,26.15.81,2.74,1.91,3.71,4.44,2.94,12.49-3.8,24.03-9.24,32.9-19.24,4.2,5.83,2.65,20.77-4.46,24.38-6.56,3.33-12.9,6.72-20.59,5.93-4.42-.46-8.87-.74-13.3-1.09Z"/>
  <path class="cls-1" d="M971.32,514.71c-3.03-3.19-5.69-6.85-9.14-9.47-10.43-7.92-20.57-16.49-31.9-22.9-25.44-14.4-51.66-27.19-81.42-30.47-13.63-1.5-27.22-1.48-40.56,1.22-4.72.95-8.87,4.89-13.17,7.64-12.07,7.72-23.11,17.17-37,21.85-2.39.8-4.63,2.33-6.55-.65,16.19-9.8,32.4-19.59,48.58-29.41,7.07-4.3,14.54-6.33,22.99-6.49,27.13-.52,53.64,3.53,78.41,14.07,22.56,9.6,44.19,21.65,62.47,38.57,2.99,2.77,5.39,6.36,7.39,9.94.86,1.54,0,4.03-.08,6.09Z"/>
  <path class="cls-24" d="M1071.25,719.11c-.29-1.28-.67-2.55-.85-3.85-.43-3.11.68-5.31,4.02-5.63,10.99-1.06,22.04-1.67,32.96-3.16,5.62-.77,10.99-3.28,16.57-4.56,8.19-1.87,16.51-3.16,24.68-5.09,2.37-.56,4.73-2.17,6.55-3.88,3.36-3.17,6.03-7.09,9.53-10.07,2.03-1.73,5.11-2.23,7.72-3.28-3.16,14.48-11.33,24.89-25.28,30.19-12.71,4.82-26.07,6.44-39.57,7.25-8.78.52-17.54,1.42-26.32,2.14-.66.02-1.31.03-1.97.05-2.68-.03-5.37-.06-8.05-.1Z"/>
  <path class="cls-6" d="M1345.08,821.97c-.35-7.11-1.38-14.27-.89-21.32.97-13.98,2.8-27.9,4.25-41.85.58-5.58.98-11.18,1.62-16.76,1.54-13.43,3.23-26.84,4.73-40.27.86-7.71,1.85-15.44,2.14-23.19.88-24.02.66-48.11,2.36-72.07,1.47-20.71,4.99-41.27,7.55-61.9.24-1.97.09-3.98.13-5.97,1.27,0,2.53,0,4.29,0-.53,2.99-1.09,5.38-1.36,7.8-1.6,14.52-2.37,29.18-4.88,43.53-2.64,15.11-1,30.19-1.83,45.25-1.19,21.75-1.5,43.64-4.36,65.18-3.87,29.16-6.11,58.44-9.06,87.66-.82,8.08-.27,16.3-.31,24.45-.02,3.83-.71,7.31-4.35,9.45Z"/>
  <path class="cls-5" d="M1384.15,250.16c-2.82,4.28-5.65,8.56-8.47,12.84-1.62,2.45-3.36,2.4-5.19.24-3.73-4.4-7.27-8.98-11.26-13.12-2.34-2.43-5.41-4.16-8.52-6.48,5.68-15.02,11.45-30.29,17.22-45.57.71,1.97,1.59,3.89,2.09,5.91,3.39,13.75,6.59,27.55,10.15,41.26.48,1.86,2.62,3.29,4,4.93Z"/>
  <path class="cls-10" d="M1222.15,427.36c-2.27.86-4.54,1.72-7.96,3.01,1.48-2.55,2.23-4.12,3.23-5.5,8.56-11.83,13.3-25.07,14.93-39.53.85-7.55,1.94-15.08,3.17-22.58.21-1.3,1.38-3.06,2.53-3.49,9.4-3.56,17.29-9.02,23.06-17.35-1.4,6.4-2.24,13-4.34,19.17-3.61,10.63-7.79,21.07-12.14,31.43-1.84,4.38-4.52,8.44-7.15,12.43-4.98,7.55-10.2,14.95-15.32,22.41Z"/>
  <path class="cls-24" d="M828.57,438.59c1.68-1.24,3.4-3.61,5.02-3.54,12.03.52,24.05,1.55,36.07,2.35,2.73.18,5.51-.2,8.21.13,14.51,1.8,27.09,9.32,40.67,13.91,14.22,4.81,25.74,14.22,37.55,22.97,4.34,3.22,9.12,7.01,8.2,13.75-12.45-7.89-24.84-15.9-37.38-23.65-14.5-8.97-30.13-15.05-46.74-19.15-17.01-4.2-34.13-6.59-51.61-6.77Z"/>
  <path class="cls-8" d="M1329.31,491.73c3.61,6.01,8.93,8.97,15.92,9.46,1.15.08,3.17,2.15,3.1,3.2-.51,7.6-1.44,15.17-2.24,22.75-4.22,1.33-7.33.3-10.15-2.68-.83-.87-2.65-.8-4.01-1.16.23,1.33,0,3.14.77,3.91,2.07,2.05,4.59,3.65,7.5,5.87-1.95,1.54-4.18,3.29-6.83,5.38-10.49-13.39-15.91-28.38-18.23-44.67,4.73-.68,9.46-1.36,14.18-2.04Z"/>
  <path class="cls-1" d="M932.11,192.59c-3.58,8.35-7.42,16.6-10.67,25.08-7.87,20.55-15.55,41.19-23.14,61.85-3.19,8.69-5.83,17.58-8.99,26.28-.72,1.99-2.56,3.58-3.89,5.36-3.37-2.43-4.71-5.19-2.19-9.18,1.01-1.6,1.16-3.74,1.79-5.97.88.6,1.71,1.16,2.76,1.88,0-.71.04-1.16,0-1.6-.31-3.02-1.68-6.41-.78-9.01,4.8-13.9,10.12-27.61,15.39-41.34.46-1.21,1.88-2.05,3.38-3.6-1.62-4.36,2.49-11.49,8.61-12.64-1.3-.59-2.41-1.09-3.62-1.64,6.31-13.58,12.49-26.88,18.66-40.19l1.51.27c.39,1.49.78,2.97,1.17,4.46Z"/>
  <path class="cls-11" d="M1062.47,447.97c-1.29-5.63-1.72-11.64-4.01-16.84-10.93-24.77-8.11-30.92-7.39-54.29-10.75-4.84-21.39-9.73-29.96-18.24-2.89-2.87-6.85-4.63-10.2-7.08-1.34-.98-2.32-2.44-3.47-3.68,7.99,4.34,15.89,8.88,24.01,12.98,8.44,4.26,17.03,8.23,25.67,12.08,3.69,1.65,4.54,4.32,4.45,7.97-.26,10.47-.2,20.95-.56,31.42-.42,11.93,3.74,22.81,7.24,33.86.35,1.1.93,2.14,1.23,3.25.16.6-.03,1.3-.09,2.54-2.52-1.45-4.72-2.72-6.91-3.98Z"/>
  <path class="cls-24" d="M918.58,977.39c-4.12-2.78-1.69-5.53.3-7.89,9.62-11.44,17.91-23.74,23.18-37.77,1.14-3.03.62-6.98-.06-10.32-1.16-5.7-1.18-11.09,3.24-15.23,7.4-6.94,13.47-14.4,15.49-24.83.75-3.89,3.52-7.12,7.98-8.78,5.56-2.07,9.54-6.28,11.5-12.1.15,4.13.52,8.26.3,12.37-.07,1.27-1.47,2.91-2.7,3.62-13.39,7.73-21.27,19.79-25.92,33.98-3.18,9.69-5.12,19.78-7.64,29.68-3.96,15.58-12.47,28.03-25.67,37.25Z"/>
  <path class="cls-6" d="M1368.95,468.93c2.78-66.3,9.41-132.49,6.01-198.98,1.1-.64,2.19-1.28,3.63-2.13.46,7.67,1.18,14.88,1.26,22.08.18,15.61.45,31.24-.1,46.84-.72,20.36-2.28,40.69-3.34,61.04-.51,9.78-.72,19.57-1.08,29.35-.45,12.25-1.04,24.5-1.3,36.76-.08,3.74-.94,5.82-5.09,5.03Z"/>
  <path class="cls-11" d="M1169.4,349c-1.07-1.7-3.06-3.4-3.06-5.1,0-8.52.33-17.06.91-25.56.86-12.5,1.67-25.03,3.25-37.45.59-4.61,2.88-9.17,5.16-13.33,1.92-3.51,5.28-5.42,9.71-3.91,1.2.41,2.59.29,3.89.41-5.11,2.08-6.9,6.57-8.4,11.35-7.14,22.81-6.21,45.85-2.2,68.43-3.15,1.76-6.2,3.46-9.26,5.17Z"/>
  <path class="cls-21" d="M1222.15,427.36c5.12-7.46,10.34-14.86,15.32-22.41,2.63-3.99,5.31-8.05,7.15-12.43,4.35-10.35,8.54-20.8,12.14-31.43,2.09-6.17,2.93-12.77,4.34-19.17,0,0-.03.05-.03.05.38-.66.76-1.31,1.14-1.97.65-.96,1.09-2.28,1.99-2.79,1.58-.9,3.43-1.3,5.17-1.91.2,1.78.87,3.66.51,5.33-1.28,5.96-3.1,11.8-4.37,17.76-3.74,17.56-13.25,32.48-21.68,47.9-1.51,2.76-3.32,5.37-4.86,8.12-3.78,6.73-9.26,11.19-16.84,12.96Z"/>
  <path class="cls-11" d="M988.53,518.04c.02-.66.04-1.32.07-1.98,8.32,1.07,17.09.9,24.81,3.64,5.28,1.88,9.51,7.48,13.45,12.08,2.67,3.12,5.96,7.62,5.53,11.07-1,7.91-3.52,15.8-6.67,23.16-1.14,2.67-5.63,4.61-8.97,5.52-10.88,2.96-21.34,1.64-30.88-4.8,4.43.36,8.88.64,13.3,1.09,7.69.8,14.04-2.6,20.59-5.93,7.11-3.61,8.66-18.55,4.46-24.37-5.26-3.89-9.39.09-13.63,2.18-5.86,2.89-11.52,6.17-17.63,9.49-2.43-9.24-2.89-17.21-.75-25.29.4-1.5-.08-3.23-.16-4.85.72.08,1.43.16,2.15.24.24,2.08.66,4.15.69,6.23.09,5.86.03,11.73.03,17.93,9.43-3.81,18.03-7.27,26.92-10.86-.77-.98-1.72-2.27-2.74-3.51-6.41-7.78-15.68-9.23-24.73-11.15-1.21.12-2.43.25-3.64.37-.73-.08-1.47-.16-2.2-.24Z"/>
  <path class="cls-21" d="M1189.15,264.16c10.63-6.69,21.27-13.38,33.09-20.82-5.98-5.01-11.76-9.52-17.15-14.46-7.44-6.82-14.58-13.96-21.85-20.97.45-.01.99-.2,1.32-.01,12.67,7.18,25.85,13.58,35.09,25.57,4.1,5.32,8.85,10.13,13.76,15.7-13.97,9.88-27.93,15.87-44.26,14.99Z"/>
  <path class="cls-1" d="M1146.41,525.45c-8.26-4.86-16.4-9.94-24.8-14.54-18.33-10.04-36.76-19.92-55.24-29.7-7.78-4.11-15.68-8.03-23.74-11.53-2.11-.91-5.11-.27-7.57.27-2.36.52-4.55,1.84-6.81,2.82,2.86-3.64,5.68-7.32,8.64-10.88.32-.39,1.61-.36,2.23-.06,5.02,2.46,10.24,4.63,14.93,7.62,18.33,11.69,36.55,23.4,56.82,31.8,13.58,5.63,26.32,13.3,39.36,20.2,2.11,1.12,3.82,2.99,6.85,5.42-4.56-.61-7.61-1.01-10.67-1.42Z"/>
  <path class="cls-24" d="M1173.39,641.74c-1.73-6.14-3.32-12.32-5.21-18.4-3.38-10.88-6.98-21.7-10.41-32.57-2.24-7.08-4.01-14.34-6.67-21.26-1.68-4.38-4.46-8.37-7.02-12.36-4.62-7.22-8.95-14.71-16.63-19.37-1.08-.66-1.46-2.49-2.16-3.78,9.17.03,14.54,6.19,19.99,12.3,9.68,10.84,13.03,24.62,16.51,37.98,4.68,17.94,7.71,36.32,11.42,54.51.2.96.13,1.97.19,2.96Z"/>
  <path class="cls-8" d="M1365.7,476.16c-4.77.71-9.53,1.55-14.32,2.06-1.72.18-3.53-.46-6.57-.92,6.1,6.11,2.71,12.48,3.72,18.41-11.51.63-22.91-13.03-18.69-22.91,1.87-4.37,7.37-7.19,11.22-10.72.61,1.56.76,3.76,1.9,4.57,6.84,4.84,14.03,9.07,22.75,9.51Z"/>
  <path class="cls-11" d="M1327.39,536.62c-1.58-.3-3.9-.05-4.62-1-2.56-3.38-5.1-6.96-6.71-10.86-3.73-9.02-6.91-18.26-10.76-28.62-5.74,3.01-11.43,5.83-16.95,8.95-4.32,2.44-8.31,5.49-12.7,7.77-1.82.95-4.31.61-6.5.85,3.99-2.8,7.77-5.99,12.01-8.31,9.13-4.99,18.5-9.55,27.8-14.23.68-.34,1.57-.27,1.71-.29,2.76,9.85,5.03,19.55,8.28,28.91,2.04,5.88,5.57,11.24,8.43,16.83Z"/>
  <path class="cls-1" d="M975.57,143.01c-16.62,12.83-29.63,28.9-41.27,46.18-3.12-3.59-.9-6.55.92-9.77,7.8-13.81,16.54-26.86,29.12-36.87,1.42-1.13,2.97-2.09,4.44-3.12,2.41,1.27,4.6,2.42,6.79,3.57Z"/>
  <path class="cls-12" d="M1263.53,305.4c-1.68,3.71-2.65,6.38-4.07,8.78-.65,1.1-2.47,2.57-3.26,2.31-2.9-.91-5.76-2.22-8.32-3.87-2.97-1.92-5.59-4.37-8.9-7.03-1.79-8.89.67-17.37,8.59-24.5,1.55,2,3.31,4.27,5.08,6.55-4.14,3.32-5.9,8.86-4.44,13.5,1.03,3.28,6.77,5.48,9.6,3.44,3.08-2.22,4.79-1.01,5.74.82Z"/>
  <path class="cls-19" d="M1384.15,250.16c-1.37-1.63-3.51-3.06-4-4.93-3.56-13.71-6.76-27.51-10.15-41.26-.5-2.02-1.38-3.94-2.09-5.91.67-2.32,1.33-4.64,2.36-8.23,2.54,7.41,4.94,13.38,6.61,19.54,3.26,12.06,6.19,24.22,9,36.39.29,1.26-1.12,2.91-1.74,4.39Z"/>
  <path class="cls-8" d="M1385.39,509.72c.42,5.79-1.62,8.86-7.42,9.66-5.65.79-11.41.77-17.12,1.21-4.93.38-6.3-2.04-5.83-6.58.65-6.28,2.94-7.96,8.98-6.1-2.02,3.55-.39,5.18,3.07,4.77,6.13-.73,12.21-1.95,18.31-2.97Z"/>
  <path class="cls-14" d="M1233.13,578.94c-1.37,1.18-2.74,2.36-4.1,3.53-.63-1.72-1.15-3.49-1.9-5.16-1.18-2.63-2-5.66-3.87-7.71-10-10.95-20.73-21.03-35.3-25.78-2.8-.91-5.57-1.9-8.35-2.86-1.19-1.54-2.38-3.09-3.58-4.63.18-.28.36-.57.54-.85,4.55,1.79,9.48,2.96,13.58,5.48,10.98,6.73,21.79,13.77,32.24,21.27,2.85,2.05,4.2,6.18,6.22,9.38,1.53,2.43,3.01,4.89,4.52,7.33Z"/>
  <path class="cls-2" d="M1132.65,387.37c4.17-.21,8.34-.42,12.51-.65,1.48-.08,3.05-.57,4.41-.23,1.02.26,1.77,1.56,2.64,2.4-.75.76-1.45,2.12-2.25,2.17-6.6.47-13.22,1.04-19.81.8-1.93-.07-4.55-2.31-5.33-4.19-.43-1.02,2.04-3.72,3.7-5.06,3.81-3.09,8.36-3.09,12.8-1.71,1.25.39,2.1,2.07,3.13,3.16-1.33.56-2.63,1.48-4.01,1.62-2.59.26-5.23.08-7.84.08.02.54.05,1.07.07,1.61Z"/>
  <path class="cls-24" d="M1262.28,330.07c-6.82-1.78-13.64-3.58-20.47-5.34-9.23-2.38-14.45-9.06-14.71-18.87.93.8,2.31,1.41,2.73,2.42,2.31,5.65,6.85,8.11,12.37,9.77,5.84,1.75,11.51,4.11,17.27,6.14,2.29.81,4.64,1.44,7.57,2.33-1.72,1.28-3.23,2.41-4.75,3.54Z"/>
  <path class="cls-14" d="M1265.94,521.73c-2.99,3.14-6.94,5.8-8.79,9.51-4.25,8.5-7.59,17.47-11.09,26.33-1.36,3.44-3.09,5.84-7.23,5.05,6.38-15.68,12.97-31.26,23.78-44.57.69-.84,1.73-1.4,3.33-2.66v6.35Z"/>
  <path class="cls-8" d="M1382.08,478.66c4.6,5.14,4.31,6.62-2.21,7.76-4.21.74-8.57.51-12.86.81-2.45.17-4.93.33-7.34.81-4.01.8-6.26-.64-7.16-4.98,5.96-1.36,12.68,1.02,17.31-4.3,4.09-.03,8.17-.07,12.26-.1Z"/>
  <path class="cls-24" d="M1365.7,476.16c-8.72-.44-15.91-4.67-22.75-9.51-1.14-.81-1.29-3.01-1.9-4.57,3.68-3.18,6.64-2.6,10.24.75,2.55,2.38,6.27,3.71,9.69,4.88,3.64,1.25,5.71,3.06,4.93,7.12-.12.12-.33.23-.34.35,0,.3.09.6.15.89,0,0-.03.09-.03.09Z"/>
  <path class="cls-2" d="M1387.38,492.68c1.21,4.21-1.09,8.84-5.75,9.5-5.64.79-11.45.63-17.18.51-3.73-.08-5.27-2.26-4.04-5.99,3.45.05,6.91.09,10.36.16,5.92.12,11.9.5,16.62-4.18Z"/>
  <path class="cls-8" d="M1381.95,528.77c-.68,1.1-1.13,2.86-2.09,3.2-8.44,3-16.89,2.23-25.09-.94-.99-.38-1.92-3.08-1.54-4.3.39-1.26,2.43-2.85,3.7-2.81,2.39.08,4.74,1.23,7.11,1.93,1.4.98,2.74,2.68,4.21,2.8,4.54.36,9.13.12,13.7.12Z"/>
  <path class="cls-18" d="M1387.38,492.68c-4.71,4.67-10.69,4.3-16.62,4.18-3.45-.07-6.91-.11-10.36-.16-.08-.96-.16-1.91-.24-2.87.22-.46.44-.92.66-1.38,7.64-.56,15.28-1.22,22.93-1.59,1.18-.06,2.42,1.19,3.63,1.83Z"/>
  <path class="cls-1" d="M1015.3,485.75c-.7,1.55-1.33,3.13-2.11,4.63-3.25,6.18-6.54,12.33-9.82,18.5-1.1-.13-2.2-.26-3.5-.41.48-11.03,7.8-16.98,15.43-22.72Z"/>
  <path class="cls-24" d="M1385.39,509.72c-6.1,1.02-12.18,2.24-18.31,2.97-3.46.41-5.09-1.22-3.07-4.77,6.99-.31,13.97-.63,20.96-.94,0,.34.14.6.43.78,0,.65,0,1.31,0,1.96Z"/>
  <path class="cls-24" d="M1381.95,528.77c-4.57,0-9.16.25-13.7-.12-1.47-.12-2.81-1.82-4.21-2.8,5.83-.56,11.65-1.12,17.91-1.72v4.64Z"/>
  <path class="cls-14" d="M1382.08,478.66c-4.09.03-8.17.07-12.26.1.67-3.51,2.91-6.15,6.29-5.37,2.27.52,4,3.43,5.97,5.27Z"/>
  <path class="cls-24" d="M1329.31,491.73c-4.73.68-9.45,1.36-14.18,2.04-.06-1.24-.13-2.48-.18-3.57,4.17-.49,7.9-1.14,11.65-1.24.88-.02,1.81,1.79,2.72,2.76Z"/>
  <path class="cls-1" d="M1026.31,474.75c-.91,6.44-5.39,9.29-11.02,11,3.67-3.67,7.35-7.34,11.02-11Z"/>
  <path class="cls-6" d="M1179.17,376.94c.72-1.83,1.45-3.66,2.33-5.89.74,1.69,1.48,3.36,2.45,5.57.73-1.65,1.3-2.96,1.87-4.26.35.04.69.08,1.04.12-.2,2.08-.4,4.15-.59,6.23-2.36-.59-4.73-1.18-7.09-1.77Z"/>
  <path class="cls-17" d="M1353.14,503.47c-.34-4.26-.69-8.53-1.05-13.06,3.79,1.74,4.35,6.5,1.05,13.06Z"/>
  <path class="cls-17" d="M1074.31,380.02c.24-2.91.48-5.83.71-8.74.32.07.65.15.97.22.76,3.14,1.52,6.28,2.28,9.42-1.32-.3-2.65-.6-3.97-.9Z"/>
  <path class="cls-24" d="M1004.93,347.01c-2.46-2.42-4.92-4.84-7.39-7.25,2.99,2.36,5.98,4.73,8.98,7.09-.53.05-1.06.11-1.59.16Z"/>
  <path class="cls-17" d="M1227.14,287.01c1.02.71,2.03,1.41,3.05,2.12-.66,1.26-1.31,2.53-1.97,3.79-1.7-.34-3.4-.67-5.1-1.01-.24-.63-.47-1.26-.71-1.88,5.16,2.49,4.63-.56,4.72-3.01h0Z"/>
  <path class="cls-2" d="M1093.14,377.87c-.31-1-.62-2-.92-3l.99-.8,4.09,3.83-.03.03-2.03.99c-.7-.35-1.39-.7-2.09-1.05Z"/>
  <path class="cls-1" d="M1028.29,472.73c-.67.69-1.34,1.37-2.02,2.06.67-.69,1.34-1.37,2.02-2.06Z"/>
  <path class="cls-13" d="M1242.62,273.6c.23,1.4.47,2.8.7,4.19-.53.04-1.05.09-1.58.13,0-1.21,0-2.41,0-3.62.29-.24.59-.47.88-.71Z"/>
  <path class="cls-24" d="M996.48,338.88c-.7-.65-1.41-1.3-2.11-1.95.7.65,1.41,1.3,2.11,1.95Z"/>
  <path class="cls-20" d="M1079.3,719.2c.66-.02,1.31-.03,1.97-.05-.66.02-1.31.03-1.97.05Z"/>
  <path class="cls-10" d="M1262.22,339.99c-.38.66-.76,1.31-1.14,1.97.38-.66.76-1.31,1.14-1.97Z"/>
  <path class="cls-11" d="M1004.93,347.01c.53-.05,1.06-.11,1.59-.16.31.34.63.68.95,1.02-.85-.29-1.69-.57-2.54-.86Z"/>
  <path class="cls-21" d="M1183.33,208.02c-.42-.3-.84-.6-1.26-.9.42.3.84.6,1.26.9Z"/>
  <path class="cls-8" d="M1365.73,476.07c-.06-.3-.15-.6-.15-.89,0-.12.22-.23.34-.35-.06.41-.12.83-.18,1.24Z"/>
  <path class="cls-25" d="M1131.08,57.36c.31.08.61.17.92.25-.26.3-.52.6-.78.91-.13-.24-.3-.48-.38-.74-.03-.11.15-.28.23-.42Z"/>
  <path class="cls-24" d="M994.42,336.98c-.27-.22-.54-.44-.8-.66.27.22.54.44.8.66Z"/>
  <path class="cls-17" d="M1178.5,677.94c-.25.16-.5.31-.75.47.02-.38.04-.76.05-1.14.24.22.47.45.69.68Z"/>
  <path class="cls-8" d="M1385.4,507.76c-.29-.18-.43-.44-.43-.78.22.13.44.25.65.4.01.01-.14.24-.22.37Z"/>
  <path class="cls-24" d="M997.47,339.9c-.35-.35-.7-.69-1.05-1.04.35.35.7.69,1.05,1.04Z"/>
  <path class="cls-2" d="M1360.82,492.44c-.22.46-.44.92-.66,1.38.22-.46.44-.92.66-1.38Z"/>
  <path class="cls-18" d="M1003.37,700.09c-8.06-1.36-9.42-5.15-7.23-11.66,1.02-3.04-.23-6.85-.45-10.31-.11-1.65-.63-3.4-.28-4.94,2.85-12.42-1.73-23.81-4.45-35.53-3.14-13.53-5.64-27.22-8.41-40.83.77-.24,1.54-.48,2.32-.72,2.63,6.09,5.34,12.14,7.87,18.27,1.77,4.27,3.4,8.61,4.91,12.98,3.12,9.04,6.46,18.03,9,27.24.89,3.24-.33,7.06-.49,10.62-.09,2.07-.16,4.17.06,6.22.65,6.05,2.22,12.12,1.89,18.1-.2,3.74-3.19,7.32-4.74,10.58Z"/>
  <path class="cls-4" d="M1013.09,677.08v30.74c1.21.5,3.1.72,3.38,1.51.53,1.47.28,4.71.08,4.73-6.59.74-8.95,6.57-12.6,10.59-3.03,3.34-6.19,5.37-10.67,6.5-10.02,2.52-19.83,5.9-30.51,9.16-.2-2.79-.33-4.67-.48-6.65,10.54-3.19,20.79-6.28,31.03-9.41,1.22-.37,2.68-.66,3.52-1.5,8.44-8.3,14.33-17.91,14.68-30.14.14-5.15.02-10.31.02-15.46.52-.03,1.03-.06,1.55-.09Z"/>
  <path class="cls-18" d="M1038.92,748.04c1.23-3.89,4.21-2.82,5.76-1.12,3.49,3.84,6.72,8.06,9.21,12.6.8,1.46-.42,5-1.86,6.41-1.13,1.1-4.04.37-6.16.46-.43-1.46-.83-2.92-1.29-4.37-1.53-4.8-7.11-7.96-5.65-13.97Z"/>
  <path class="cls-4" d="M1038.92,748.04c-1.46,6.01,4.13,9.17,5.65,13.97.46,1.45.86,2.91,1.29,4.37-1.54-.16-3.97.22-4.46-.58-2.95-4.83-5.58-9.88-7.95-15.02-.39-.85.71-3.06,1.71-3.67.77-.47,2.47.56,3.76.93Z"/>
  <path class="cls-4" d="M1022.28,780.39c-.67.46-1.29,1.17-2.02,1.31-1.72.33-3.49.38-5.25.54.72-1.54,1.16-3.31,2.22-4.57,1.74-2.06,4.41-2.79,3.9-6.9-.44-3.5,3.04-1.93,5.09-1.01,3.7,5.4-1.52,7.5-3.94,10.63Z"/>
  <path class="cls-18" d="M1013.48,741.13c.18-.95.04-2.24.61-2.8,1.75-1.72,3.65-3.41,5.8-4.47.41-.2,2.94,2.34,3.31,3.91.75,3.11-.72,5.42-4.18,5.97-1.85-.87-3.7-1.74-5.55-2.61Z"/>
  <path class="cls-14" d="M1022.28,780.39c2.43-3.13,7.64-5.23,3.94-10.63,1.59.44,4.57.97,4.55,1.32-.17,2.98-.23,6.34-1.72,8.7-.73,1.16-4.42.47-6.77.61Z"/>
  <path class="cls-4" d="M1013.48,741.13c1.85.87,3.7,1.74,5.55,2.61-1.99,1.43-3.98,2.86-5.97,4.29-.83-1.25-2.31-2.52-2.3-3.76,0-1.05,1.75-2.09,2.72-3.13Z"/>
  <path class="cls-9" d="M727.76,936.91c-16.81,0-29.8,0-42.78,0-17.08,0-33.76-2.74-48.31-11.82-10.47-6.54-19.81-14.99-29.29-23.02-13.75-11.66-20.38-28.06-28.17-43.67-9.49-19.01-13.5-39.54-17.42-60.15-1.71-8.97-4.44-17.74-6.23-26.69-3.39-16.94-3.53-34-1.11-51.11,2.54-17.94,4.33-36,11.4-52.98,11.29-27.11,25.23-52.61,47.16-72.64,14.19-12.96,31.25-20.54,50.52-23,26.21-3.35,52.33-7.43,78.59-10.32,21.71-2.39,43.53-3.02,64.91,3.15,1.73.5,3.44,1.16,5.07,1.95,6.53,3.18,12.84,6.92,19.57,9.57,22.02,8.67,39.54,23.54,56.17,39.76,15.08,14.71,24.11,32.82,29.93,52.76,1.35,4.62,2.13,9.43,3.82,13.91,12.94,34.19,13.93,69.83,9.94,104.56-2.2,19.17-8.61,37.11-17.05,54.39-4.22,8.65-7.7,17.67-12.14,26.19-5.95,11.44-15.5,19.77-25.39,27.74-12.69,10.23-27.24,17.37-41.87,23.97-12.05,5.43-25.12,8.61-37.76,12.72-24.05,7.83-48.9,3.48-69.56,4.73ZM681.61,576.31c-9.28,1.7-18.56,3.39-28.16,5.14,0,9.17.31,17.99-.06,26.77-1.05,24.81.78,49.24,9.36,72.76,5.7,15.61,12.81,30.77,17.53,46.66,6.62,22.28,11.84,44.99,17.23,67.62,4.04,16.97,7.07,34.18,11.24,51.12,1.74,7.05,5.27,13.66,8.23,21.06,2.11-1.94,3.21-2.93,4.29-3.94,11.15-10.45,22.18-21.02,33.48-31.31,8.48-7.72,17.34-15.02,25.95-22.6,17.58-15.48,35.18-30.95,52.62-46.58,12.25-10.98,24.46-22.02,36.35-33.39,11.4-10.9,22.22-22.39,33.58-33.32,3.42-3.29,7.79-5.59,11.86-8.43-1.47-5.2-2.9-10.28-4.33-15.36-1.04-3.44-2.09-6.87-3.43-11.31-4.88,1.8-9.49,2.79-13.37,5.03-26.18,15.1-52.5,30-78.14,45.97-9.88,6.15-19.07,14.08-26.85,22.75-9.26,10.33-17.15,22.01-24.75,33.69-8.18,12.57-18.4,23.15-29.37,33.1-6.17,5.6-9.76,4.32-12.24-3.59-.15-.47-.29-.96-.51-1.4-7.51-15.28-12.09-31.49-16.56-47.88-6.56-24.05-8.84-48.67-11.83-73.22-1.45-11.86-2.24-23.8-3.03-35.73-.96-14.58-1.83-29.17-2.29-43.78-.22-7.06.58-14.15.94-21.63-2.65.61-5.2,1.2-7.74,1.79ZM646.32,583.67c-11.25,3.94-20.62,9.49-28.42,16.87-23.1,21.86-38.46,48.88-47.92,78.91-4.46,14.14-6.08,29.25-8.26,44.03-2.42,16.41-1.92,32.87,1.72,49.13,1.89,8.43,4.4,16.74,5.96,25.23,3.7,20.17,7.87,40.15,17.19,58.65,7.25,14.38,13.37,29.55,26.12,40.29,8.86,7.47,17.52,15.43,27.28,21.55,13.52,8.49,29.05,11.03,44.94,11.04,21.48.01,42.96-.08,64.43.03,15.99.08,31.96.35,47.41-4.83,11.66-3.91,23.8-6.73,34.91-11.81,14.3-6.54,28.6-13.44,41-23.49,8.95-7.25,17.72-14.74,23.05-25.18,4.82-9.45,8.93-19.27,13.48-28.87,8.03-16.95,14.26-34.62,15.15-53.36.94-19.7.53-39.52-.44-59.23-.45-9.06-3.66-17.98-5.95-28.46-7.75,6.4-14.82,11.42-20.9,17.45-12.52,12.41-23.9,26-36.84,37.92-18.82,17.34-38.67,33.56-57.94,50.42-8.01,7.01-15.53,14.57-23.49,21.63-13.18,11.7-26.63,23.09-39.78,34.83-6.69,5.97-12.9,12.47-19.46,18.59-2.67,2.49-5.68,2.6-7.32-1.1-3.95-8.95-8.72-17.74-11.12-27.12-5.64-22.05-10.45-44.34-14.94-66.66-6.09-30.29-15.44-59.5-27.27-87.99-11.67-28.09-14.97-57.41-12.68-87.57.5-6.59.07-13.25.07-20.93ZM904.03,653c-.03-.06-.58-1.4-1.14-2.73-4.76-11.21-12.15-20.59-20.6-29.16-11.83-11.98-24.44-23.07-39.49-30.9-10.75-5.59-21.74-10.73-32.62-16.07-1.49-.73-2.93-1.86-4.49-2.08-10.99-1.59-22.05-4.43-33.01-4.16-21.24.52-42.45,2.62-63.64,4.47-10.88.95-12.24,2.82-13.18,13.83-.14,1.65-.2,3.33-.11,4.99,1.13,19.4,1.98,38.83,3.53,58.2,1.5,18.71,3.12,37.45,5.82,56.02,2.41,16.57,5.97,33.01,9.76,49.34,3.3,14.2,8.26,27.91,15.36,41.19,1.5-1.38,2.65-2.55,3.91-3.58,16.94-13.87,27.1-33.15,39.53-50.5,10.6-14.8,23.45-26.75,38.53-36.36,17.8-11.35,35.89-22.26,54.18-32.8,12.14-7,24.85-13.03,37.68-19.7Z"/>
  <path class="cls-4" d="M554.69,842.43c1.34-1.32,2.68-2.65,4.02-3.97.82,1.9,1.9,3.74,2.36,5.72.2.87-.85,2.04-1.33,3.07-4.41,1.25-5.02-1.48-5.05-4.81Z"/>
  <path class="cls-11" d="M554.69,842.43c.03,3.34.64,6.07,5.05,4.81.22.42.66,1.19.64,1.2-1.4.86-3.53,2.69-4.14,2.27-2.03-1.36-3.51-3.54-5.21-5.4,1.22-.96,2.44-1.93,3.66-2.89Z"/>
  <path class="cls-17" d="M753.61,550.64c2.13,1.96,3.5,3.23,4.88,4.5-1.03,1.12-2.36,3.32-3.03,3.13-1.43-.39-2.93-1.83-3.59-3.23-.37-.78.86-2.33,1.75-4.4Z"/>
  <path class="cls-11" d="M653.58,558.3c.58,1.29,1.15,2.57,1.73,3.86-1.63.51-3.44,1.7-4.84,1.33-1.15-.31-1.81-2.46-2.68-3.79,2.43,1.63,4.42,1.38,5.79-1.39Z"/>
  <path class="cls-4" d="M824.6,545.09c-2.18,1.28-3.31,2.49-4.34,2.4-1.01-.08-1.91-1.47-2.86-2.29.93-.87,1.78-2.31,2.8-2.44,1-.13,2.18,1.08,4.39,2.33Z"/>
  <path class="cls-17" d="M653.58,558.3c-1.37,2.77-3.36,3.02-5.79,1.39.75-1.58,1.49-3.17,2.24-4.75,1.19,1.12,2.37,2.24,3.56,3.36Z"/>
  <path class="cls-17" d="M595.85,601.44c.93-1.29,1.72-2.73,2.88-3.74.27-.24,1.79.95,2.74,1.49-.93,1.49-1.85,2.98-2.78,4.47-.95-.74-1.89-1.47-2.84-2.21Z"/>
  <path class="cls-11" d="M595.85,601.44c.95.74,1.9,1.47,2.84,2.21-1.01,1.01-1.9,2.26-3.11,2.88-.42.21-1.65-1.16-2.5-1.8l2.77-3.29Z"/>
  <path class="cls-7" d="M1037.49,234.72c-1.85-2.1-3.71-3.29-3.84-4.64-.11-1.1,2.36-3.59,2.82-3.39,1.78.75,3.22,2.32,4.79,3.59-1,1.17-1.99,2.35-3.77,4.45Z"/>
  <path class="cls-11" d="M1051.01,252.5c2.34-1.2,3.59-2.23,4.95-2.39.99-.12,2.12.91,3.19,1.42-1.47,1.03-2.84,2.27-4.45,2.97-.55.24-1.69-.87-3.68-2Z"/>
  <path class="cls-16" d="M998.07,291.07c2.06-.2,4.11-.51,6.17-.57,11.07-.34,21.5,2.58,31.78,6.31,1.02.37,2.28.11,3.42.14,6.62,1.54,13.25,3.09,19.87,4.63,7.99.83,15.99,1.67,23.98,2.5,3.73,5.08,2.07,10.4.67,15.7-.68,1.68-1.42,3.34-2.04,5.04-5.02,13.75-15.77,21.21-30.25,19.7-4.64-.48-9.28-3.18-13.42-5.7-7.96-4.85-16.36-9.14-20.58-18.57-1.94-4.35-5.92-7.82-9.13-11.55-2.69-3.13-5.61-6.07-8.43-9.09,0,0-.08-.28-.08-.28-.66-2.75-1.31-5.5-1.96-8.25ZM1038.19,327.94c5.47,3.25,10.93,5.52,17.74,4.42,8.33-1.34,12.92-5.69,11.51-12.56-.54-2.65-1.22-5.26-1.84-7.89-.21.36-.43.72-.64,1.08-3.19-1.84-6.19-4.29-9.62-5.41-9.52-3.12-19.2-5.77-28.88-8.37-1.3-.35-3.89.32-4.3,1.23-.91,2.03-1.41,4.63-.98,6.77.49,2.44,2.29,4.6,3.33,6.96,2.18,4.92,4.94,9.32,9.87,11.95,1.27.6,2.54,1.2,3.81,1.8Z"/>
  <path class="cls-24" d="M1000.11,299.6c2.82,3.02,5.74,5.96,8.43,9.09,3.21,3.73,7.19,7.21,9.13,11.55,4.21,9.43,12.61,13.73,20.58,18.57,4.13,2.52,8.78,5.22,13.42,5.7,14.48,1.51,25.23-5.95,30.25-19.7.62-1.7,1.36-3.36,2.04-5.04-.15,4.24.27,8.6-.6,12.68-.85,3.99-3.02,7.69-4.61,11.52-3.17,7.64-9.75,10.85-18.09,9.29-13.02-2.44-25.25-6.97-34.18-16.91-9.14-10.17-17.13-21.38-25.47-32.25-.84-1.09-.63-2.98-.9-4.5Z"/>
  <path class="cls-14" d="M1083.29,304.07c-7.99-.83-15.99-1.67-23.98-2.5,0-.86,0-1.72,0-2.58,2.31.43,4.53-1.07,7.06,1.49,2.07,2.1,5.45.8,5.24-2.44,2.32.65,4.64,1.7,7.02,1.88,2.88.21,4.95.68,4.65,4.16Z"/>
  <path class="cls-24" d="M1059.32,298.99c0,.86,0,1.72,0,2.58-6.62-1.54-13.25-3.09-19.87-4.63,3.96-3.12,7.44-1.34,10.86,1.05,1.03-.01,2.06-.03,3.09-.04,1.98.35,3.95.69,5.93,1.04Z"/>
  <path class="cls-24" d="M998.07,291.07c.65,2.75,1.3,5.5,1.96,8.25-4.1-1.63-4.82-4.67-1.96-8.25Z"/>
  <path class="cls-2" d="M1097.29,377.9c1.32,0,2.64,0,3.96,0l.04.04c-1.34,3.49-2.68.69-4.02,0,0,0,.03-.03.03-.03Z"/>
  <path class="cls-14" d="M1053.39,297.95c-1.03.01-2.06.03-3.09.04,1.01-1.41,2.02-3.19,3.09-.04Z"/>
  <path class="cls-2" d="M1101.25,377.9c.41-.51.82-1.02,1.23-1.52.11.11.22.22.33.33-.51.41-1.02.82-1.53,1.23,0,0-.04-.04-.04-.04Z"/>
  <path class="cls-17" d="M1226,286.17c-.33-.44-.66-.87-.99-1.31l.54-.43c.28.45.56.89.84,1.34-.13.13-.26.26-.39.4Z"/>
  <path class="cls-17" d="M1227.14,287.01c-.38-.28-.76-.56-1.14-.85.13-.13.26-.26.39-.39.25.41.5.82.75,1.24h0Z"/>
  <path class="cls-16" d="M988.53,518.04c.73.08,1.47.16,2.2.24.44.25.88.51,1.32.76.08,1.62.56,3.35.16,4.85-2.14,8.08-1.68,16.05.75,25.29,6.11-3.32,11.77-6.6,17.63-9.49,4.24-2.09,8.36-6.06,13.63-2.18-8.87,10-20.41,15.43-32.9,19.23-2.54.77-3.63-.2-4.44-2.94-2.6-8.77-1.15-17.45-.1-26.15.39-3.23,1.16-6.42,1.76-9.62Z"/>
  <path class="cls-15" d="M994.37,517.91c9.05,1.93,18.33,3.38,24.73,11.15,1.02,1.24,1.97,2.53,2.74,3.51-8.89,3.59-17.49,7.06-26.92,10.86,0-6.2.06-12.07-.03-17.93-.03-2.08-.45-4.16-.69-6.24.06-.46.11-.91.17-1.36Z"/>
  <path class="cls-10" d="M994.37,517.91c-.06.45-.11.91-.17,1.36-.72-.08-1.43-.15-2.15-.23-.44-.25-.88-.51-1.32-.76,1.21-.12,2.43-.25,3.64-.37Z"/>
  <path class="cls-15" d="M646.32,583.67c0,7.67.43,14.33-.07,20.93-2.29,30.16,1.01,59.47,12.68,87.57,11.83,28.49,21.18,57.7,27.27,87.99,4.49,22.32,9.29,44.61,14.94,66.66,2.4,9.38,7.17,18.17,11.12,27.12,1.63,3.7,4.64,3.59,7.32,1.1,6.56-6.12,12.77-12.62,19.46-18.59,13.15-11.73,26.6-23.13,39.78-34.83,7.96-7.06,15.48-14.63,23.49-21.63,19.27-16.86,39.12-33.08,57.94-50.42,12.94-11.92,24.33-25.51,36.84-37.92,6.08-6.02,13.15-11.04,20.9-17.45,2.29,10.48,5.5,19.4,5.95,28.46.98,19.71,1.39,39.53.44,59.23-.9,18.73-7.13,36.4-15.15,53.36-4.55,9.6-8.66,19.42-13.48,28.87-5.32,10.44-14.1,17.93-23.05,25.18-12.4,10.04-26.7,16.94-41,23.49-11.11,5.09-23.26,7.9-34.91,11.81-15.45,5.18-31.42,4.91-47.41,4.83-21.48-.11-42.96-.02-64.43-.03-15.89,0-31.42-2.55-44.94-11.04-9.76-6.13-18.42-14.08-27.28-21.55-12.75-10.75-18.87-25.91-26.12-40.29-9.33-18.5-13.49-38.49-17.19-58.65-1.56-8.49-4.07-16.8-5.96-25.23-3.63-16.26-4.13-32.72-1.72-49.13,2.18-14.78,3.8-29.88,8.26-44.03,9.47-30.02,24.82-57.04,47.92-78.91,7.8-7.38,17.17-12.93,28.42-16.87ZM713.76,904.27c4.84-.28,5.81-1.88,4.93-8.17-.7-5.03-2.49-6.45-6.96-5.5-1.25,1.36-3.82,3.42-3.53,3.95,1.81,3.36-.87,8.64,4.35,10.41.29.1.8-.44,1.2-.69ZM845.06,838.21c-1.47,1.19-4.36,2.74-4.16,3.52.82,3.33,1.83,7.18,4.16,9.4,2.4,2.29,5.33.96,5.71-3.03.3-4.05.95-8.13.69-12.15-.09-1.37-2.28-2.91-3.85-3.76-.72-.39-3.14.58-3.23,1.17-.23,1.55.4,3.22.68,4.84ZM628.72,843.51c2.6.45,5.21,1.25,7.81,1.22,1.95-.02,3.9-1.1,5.85-1.7-1.46-1.48-2.71-3.84-4.43-4.27-4.77-1.18-9.75-1.54-14.64-2.23-1.42.7-3.26,1.07-4.17,2.19-1.3,1.59-1.93,3.74-2.84,5.65,2.71,1.06,5.35,2.48,8.16,3.06,2.64.55,4.45-.87,4.27-3.93ZM592.86,686.69l-.56,2.08c2.28.92,4.57,1.84,6.85,2.76.86-2.68,3.22-6.91,2.32-7.79-4.31-4.19-5.21,2.98-8.62,2.95ZM613.18,749.52c-.58.08-1.15.17-1.73.25-.62,1.48-2.15,3.44-1.67,4.33,1.01,1.9,3.06,3.23,4.69,4.8.84-1.25,2.63-2.8,2.34-3.67-.69-2.07-2.36-3.82-3.63-5.71ZM606.74,639.31c-1.91-1.62-3.25-3.55-4.2-3.37-1.36.25-3.22,1.92-3.4,3.2-.15,1.04,1.82,3.31,2.91,3.36,1.3.05,2.66-1.71,4.69-3.18ZM643.36,886.92c.56.72,1.13,1.45,1.69,2.17,1.91-1.23,3.81-2.45,5.72-3.68-.74-1.13-1.49-2.27-2.23-3.4-1.73,1.63-3.45,3.27-5.18,4.9ZM866.54,773.99c.29,1,.58,2,.88,3,1.9-.27,3.8-.54,5.7-.81-.35-1.6-.71-3.2-1.06-4.8-1.84.87-3.68,1.73-5.52,2.6ZM874.38,825.72c1.66-2.46,3-3.85,3.48-5.49.16-.54-1.9-1.73-2.95-2.62-1.04,1.3-2.48,2.47-2.97,3.96-.26.76,1.16,2.08,2.44,4.16ZM662.5,783.25c-2.12-1.28-3.37-2.61-4.61-2.6-.98.01-1.94,1.68-2.9,2.61,1.11,1.03,2.1,2.61,3.38,2.88.88.19,2.15-1.43,4.13-2.89ZM783.45,905.55c1.34-1.61,3.05-2.9,2.83-3.54-.43-1.24-1.93-2.12-2.98-3.15-.86,1.22-2.02,2.34-2.42,3.69-.16.55,1.32,1.59,2.58,2.99Z"/>
  <path class="cls-23" d="M904.03,653c-12.83,6.66-25.53,12.69-37.68,19.7-18.29,10.54-36.38,21.45-54.18,32.8-15.08,9.62-27.93,21.56-38.53,36.36-12.43,17.36-22.59,36.63-39.53,50.5-1.26,1.03-2.41,2.2-3.91,3.58-7.11-13.28-12.07-26.99-15.36-41.19-3.79-16.33-7.35-32.77-9.76-49.34-2.7-18.56-4.32-37.31-5.82-56.02-1.55-19.37-2.41-38.8-3.53-58.2-.1-1.66-.03-3.33.11-4.99.95-11.01,2.31-12.88,13.18-13.83,21.19-1.86,42.4-3.95,63.64-4.47,10.97-.27,22.02,2.56,33.01,4.16,1.57.23,3.01,1.35,4.49,2.08,10.88,5.34,21.87,10.48,32.62,16.07,15.06,7.82,27.66,18.92,39.49,30.9,8.45,8.56,15.85,17.95,20.6,29.16.57,1.33,1.12,2.67,1.14,2.73ZM868.59,646.6l-.07-.03c2.91,3.75,6.88,2.08,10.21,1.42,2.27-.44,2.18-2.56-.35-3.56,1.54-3.91.06-6.44-3.74-5.45-2.37.62-4.26,3.1-6.37,4.75-.51.63-1.02,1.27-1.53,1.9.61.32,1.23.64,1.84.97ZM731.54,742.55c1.99-1.44,3.89-3.35,1.23-5.27-.98-.71-3.59.85-5.46,1.38l-4.47,3.05c.96,1.19,1.73,3.08,2.93,3.42,2.27.64,5.16,1.16,5.77-2.57ZM824.17,616.94c-1.13.81-2.25,1.63-3.38,2.44,2.17,1.13,4.24,2.75,6.55,3.24,1.97.42,5.32,1.4,5.1-2.88-.67-1.93-.77-4.76-2.12-5.6-2.64-1.64-4.89.06-6.14,2.81ZM744.32,709.66c-.5.39-1.44.8-1.43,1.16.22,3.89-.02,7.96,1.09,11.61.95,3.1,3.44,3.43,5.11-.09,1.21-1.67,3.48-3.4,3.4-5-.15-3.03-1.46-6.1-2.84-8.88-.19-.38-3.48.76-5.33,1.2ZM757.57,631.7c.11-.1-.66.59-1.42,1.28,1.77,1.88,3.47,3.84,5.42,5.51.17.15,2.71-1.46,2.84-2.42.52-3.93-2.37-4.42-6.84-4.37ZM740,649.4c1.55,1.25,2.49,1.99,3.42,2.74.97-1.29,2.67-2.56,2.69-3.86.02-1.27-1.67-2.56-2.61-3.85-1,1.42-2,2.84-3.49,4.96ZM769.96,615.03c1.05-3.16,1.76-5.29,2.47-7.42-1.32-.06-2.96-.65-3.91-.08-2.98,1.79-1.95,3.95,1.44,7.5ZM797.37,684.26c1.46-1.69,3.09-2.74,3.04-3.71-.07-1.27-1.46-2.48-2.28-3.71-1.17.93-3.11,1.73-3.3,2.84-.2,1.12,1.33,2.54,2.55,4.59ZM748.82,592.74c-1.16,1.78-2.47,2.95-2.25,3.64.4,1.29,1.69,2.3,2.61,3.43.9-.78,2.65-1.76,2.53-2.3-.32-1.39-1.48-2.59-2.88-4.77Z"/>
  <path class="cls-23" d="M910.79,672.51c1.43,5.08,2.86,10.16,4.33,15.36-4.07,2.84-8.44,5.14-11.86,8.43-11.36,10.93-22.19,22.42-33.58,33.32-11.89,11.37-24.09,22.42-36.35,33.39-17.45,15.63-35.04,31.1-52.62,46.58-8.61,7.58-17.47,14.88-25.95,22.6-11.3,10.29-22.33,20.86-33.48,31.31-1.08,1.01-2.18,2-4.29,3.94-2.96-7.4-6.49-14.01-8.23-21.06-4.17-16.93-7.2-34.15-11.24-51.12-5.39-22.63-10.61-45.34-17.23-67.62-4.72-15.89-11.84-31.05-17.53-46.66-8.58-23.52-10.41-47.95-9.36-72.76.37-8.79.06-17.6.06-26.77,9.6-1.75,18.88-3.45,28.16-5.14.02,12.65.13,25.3.03,37.95-.06,8.13-.73,16.27-.6,24.4.21,13.1.06,26.28,1.53,39.26,1.5,13.29,4.8,26.38,7.23,39.57,1.38,7.48,2.01,15.16,4.04,22.46,3.99,14.37,8.27,28.69,13.29,42.73,3.1,8.68,6.66,17.61,12.04,24.96,6.78,9.26,10.16,12.22,17.53,3.31,8.35-10.09,16.27-20.54,24.52-30.72,8.78-10.83,17.25-21.96,26.7-32.18,12.34-13.34,26.38-24.82,42.06-34.16,15.4-9.18,30.51-18.95,46.36-27.27,10.94-5.74,22.93-9.47,34.45-14.1ZM794.38,779.33c1.64-1.36,3.59-2.51,4.82-4.17.79-1.07.53-2.91.75-4.4-1.49-.14-3.42-.96-4.38-.32-5.75,3.85-11.99,7.29-14.95,14.12-.82,1.2-1.65,2.39-2.47,3.59,1.18.78,2.28,2.03,3.56,2.26,5.14.92,11.94-5.16,12.67-11.07ZM819.53,737.89c-1.17-1.56-2.32-3.08-3.47-4.61-1.18,1.46-2.52,2.82-3.49,4.41-.75,1.22-1.36,2.71-1.43,4.11-.08,1.56.53,3.16.84,4.74,1.54-.56,3.62-.69,4.5-1.79,1.35-1.7,1.88-4.06,3.07-6.86Z"/>
  <path class="cls-21" d="M910.79,672.51c-11.52,4.63-23.52,8.36-34.45,14.1-15.86,8.33-30.96,18.09-46.36,27.27-15.68,9.34-29.72,20.83-42.06,34.16-9.45,10.22-17.93,21.35-26.7,32.18-8.25,10.18-16.16,20.63-24.52,30.72-7.37,8.9-10.76,5.95-17.53-3.31-5.37-7.34-8.93-16.28-12.04-24.96-5.02-14.04-9.3-28.36-13.29-42.73-2.02-7.3-2.66-14.97-4.04-22.46-2.44-13.19-5.73-26.28-7.23-39.57-1.47-12.98-1.32-26.16-1.53-39.26-.13-8.13.54-16.26.6-24.4.1-12.65,0-25.3-.03-37.95,2.55-.59,5.1-1.18,7.75-1.8-.36,7.48-1.16,14.57-.94,21.63.46,14.6,1.33,29.2,2.29,43.78.79,11.93,1.59,23.87,3.03,35.73,2.99,24.55,5.27,49.16,11.83,73.22,4.47,16.39,9.05,32.61,16.56,47.88.22.44.36.93.51,1.4,2.48,7.91,6.07,9.2,12.24,3.59,10.96-9.95,21.19-20.53,29.37-33.1,7.6-11.67,15.48-23.36,24.75-33.69,7.78-8.67,16.97-16.6,26.85-22.75,25.64-15.97,51.96-30.87,78.14-45.97,3.89-2.24,8.49-3.23,13.37-5.03,1.34,4.43,2.39,7.87,3.43,11.31Z"/>
  <path class="cls-12" d="M1034.39,326.13c-4.93-2.63-7.69-7.03-9.87-11.95-1.05-2.36-2.84-4.52-3.33-6.96-.43-2.14.07-4.74.98-6.77.41-.91,3-1.58,4.3-1.23,9.68,2.59,19.36,5.25,28.88,8.37,3.43,1.12,6.43,3.57,9.62,5.41.21-.36.43-.72.64-1.08.62,2.63,1.3,5.24,1.84,7.89,1.4,6.88-3.18,11.22-11.51,12.56-6.81,1.1-12.28-1.17-17.74-4.42,1.41-.32,2.82-.72,4.25-.96,4.1-.69,6.64-4.32,5.54-8.22-.96-3.39-2.39-6.68-3.11-10.11-.72-3.43-2.26-3.17-4.49-1.63-3.83,2.66-6.33,9.92-5.36,14.54.3,1.42-.39,3.04-.62,4.57Z"/>
  <path class="cls-4" d="M1034.39,326.13c.24-1.53.92-3.15.62-4.57-.97-4.62,1.53-11.88,5.36-14.54,2.23-1.54,3.77-1.8,4.49,1.63.72,3.44,2.15,6.72,3.11,10.11,1.1,3.9-1.44,7.53-5.54,8.22-1.43.24-2.83.63-4.25.96-1.27-.6-2.54-1.2-3.81-1.8Z"/>
  <path class="cls-4" d="M623.31,836.53c4.89.69,9.87,1.06,14.64,2.23,1.72.42,2.97,2.79,4.43,4.27-1.95.61-3.89,1.68-5.85,1.7-2.6.02-5.21-.78-7.81-1.22-.96-.06-1.96,0-2.88-.22-1.72-.43-3.39-1.03-5.08-1.57.85-1.73,1.7-3.46,2.55-5.19Z"/>
  <path class="cls-4" d="M845.06,838.21c-.29-1.62-.91-3.3-.68-4.84.09-.59,2.51-1.56,3.23-1.17,1.57.85,3.76,2.39,3.85,3.76.26,4.02-.4,8.09-.69,12.15-4.56,1.67-6.14.56-5.89-4.09.1-1.93.13-3.87.19-5.8Z"/>
  <path class="cls-4" d="M711.74,890.59c4.47-.94,6.25.47,6.96,5.5.88,6.29-.09,7.89-4.93,8.17-.67-4.56-1.35-9.12-2.02-13.67Z"/>
  <path class="cls-4" d="M592.86,686.69c3.41.03,4.31-7.14,8.62-2.95.9.88-1.46,5.11-2.32,7.79-2.28-.92-4.57-1.84-6.85-2.76l.56-2.08Z"/>
  <path class="cls-11" d="M623.31,836.53c-.85,1.73-1.7,3.46-2.55,5.19,1.69.53,3.36,1.14,5.08,1.57.92.23,1.92.16,2.88.22.17,3.05-1.63,4.48-4.27,3.93-2.81-.58-5.45-2-8.16-3.06.92-1.91,1.54-4.06,2.84-5.65.91-1.12,2.75-1.49,4.17-2.19Z"/>
  <path class="cls-11" d="M845.06,838.21c-.06,1.93-.08,3.87-.19,5.8-.25,4.65,1.33,5.76,5.89,4.09-.37,3.99-3.3,5.32-5.7,3.03-2.32-2.21-3.34-6.07-4.16-9.4-.19-.78,2.69-2.33,4.16-3.52Z"/>
  <path class="cls-4" d="M613.18,749.52c1.27,1.88,2.94,3.63,3.63,5.71.29.87-1.5,2.43-2.34,3.67-1.63-1.57-3.68-2.91-4.69-4.8-.48-.89,1.05-2.85,1.67-4.33.58-.08,1.15-.17,1.73-.25Z"/>
  <path class="cls-11" d="M711.74,890.59c.67,4.56,1.35,9.12,2.02,13.67-.41.24-.91.79-1.2.69-5.22-1.76-2.54-7.05-4.35-10.41-.29-.53,2.28-2.6,3.53-3.95Z"/>
  <path class="cls-17" d="M606.74,639.31c-2.03,1.48-3.39,3.23-4.69,3.18-1.09-.04-3.06-2.31-2.91-3.36.18-1.27,2.04-2.95,3.4-3.2.95-.17,2.29,1.75,4.2,3.37Z"/>
  <path class="cls-17" d="M643.36,886.92c1.73-1.63,3.45-3.27,5.18-4.9.74,1.13,1.49,2.27,2.23,3.4-1.91,1.23-3.81,2.45-5.72,3.68-.56-.72-1.13-1.45-1.69-2.17Z"/>
  <path class="cls-17" d="M866.54,773.99c1.84-.87,3.68-1.73,5.52-2.6.35,1.6.71,3.2,1.06,4.8-1.9.27-3.8.54-5.7.81-.29-1-.58-2-.88-3Z"/>
  <path class="cls-17" d="M874.38,825.72c-1.28-2.07-2.69-3.4-2.44-4.16.5-1.48,1.93-2.66,2.97-3.96,1.05.89,3.11,2.09,2.95,2.62-.49,1.65-1.82,3.04-3.48,5.49Z"/>
  <path class="cls-17" d="M662.5,783.25c-1.98,1.46-3.25,3.08-4.13,2.89-1.28-.28-2.27-1.86-3.38-2.88.97-.93,1.93-2.6,2.9-2.61,1.24-.01,2.49,1.32,4.61,2.6Z"/>
  <path class="cls-17" d="M783.45,905.55c-1.26-1.4-2.74-2.44-2.58-2.99.4-1.35,1.57-2.48,2.42-3.69,1.06,1.03,2.55,1.9,2.98,3.15.22.63-1.48,1.93-2.83,3.54Z"/>
  <path class="cls-4" d="M744.32,709.66c1.85-.44,5.14-1.58,5.33-1.2,1.37,2.78,2.68,5.85,2.84,8.88.08,1.61-2.19,3.33-3.4,5-1.59-4.23-3.18-8.45-4.77-12.68Z"/>
  <path class="cls-4" d="M868.28,643.73c2.11-1.65,3.99-4.14,6.37-4.75,3.8-.99,5.28,1.54,3.74,5.45-3.29.71-6.58,1.42-9.87,2.14,0,0,.07.03.07.03-.1-.96-.21-1.91-.31-2.87Z"/>
  <path class="cls-4" d="M824.17,616.94c1.25-2.75,3.51-4.45,6.14-2.81,1.35.84,1.45,3.67,2.12,5.6-5.03,2.55-6.26,2.13-8.27-2.79Z"/>
  <path class="cls-11" d="M757.57,631.7c4.47-.05,7.35.44,6.84,4.37-.13.96-2.66,2.57-2.84,2.42-1.95-1.67-3.65-3.63-5.42-5.51.77-.69,1.54-1.38,1.42-1.28Z"/>
  <path class="cls-11" d="M744.32,709.66c1.59,4.23,3.18,8.45,4.77,12.68-1.67,3.52-4.16,3.19-5.1.09-1.11-3.65-.88-7.72-1.09-11.61-.02-.36.93-.77,1.43-1.16Z"/>
  <path class="cls-4" d="M740,649.4c1.49-2.12,2.49-3.54,3.49-4.96.94,1.28,2.64,2.58,2.61,3.85-.02,1.3-1.72,2.57-2.69,3.86-.93-.75-1.86-1.49-3.42-2.74Z"/>
  <path class="cls-11" d="M731.54,742.55c-.61,3.74-3.5,3.21-5.77,2.57-1.2-.34-1.97-2.23-2.93-3.42,1.49-1.02,2.98-2.04,4.47-3.05,1.41,1.3,2.82,2.6,4.24,3.89Z"/>
  <path class="cls-4" d="M731.54,742.55c-1.41-1.3-2.82-2.6-4.24-3.89,1.87-.52,4.48-2.08,5.46-1.38,2.66,1.92.76,3.83-1.23,5.27Z"/>
  <path class="cls-4" d="M769.96,615.03c-3.39-3.55-4.41-5.71-1.44-7.5.94-.57,2.59.02,3.91.08-.71,2.13-1.42,4.27-2.47,7.42Z"/>
  <path class="cls-11" d="M797.37,684.26c-1.22-2.04-2.74-3.46-2.55-4.59.19-1.1,2.13-1.9,3.3-2.84.82,1.23,2.21,2.44,2.28,3.71.05.97-1.58,2.03-3.04,3.71Z"/>
  <path class="cls-11" d="M824.17,616.94c2.01,4.92,3.23,5.34,8.27,2.79.22,4.28-3.12,3.3-5.1,2.88-2.31-.49-4.38-2.11-6.55-3.24,1.13-.81,2.25-1.63,3.38-2.44Z"/>
  <path class="cls-11" d="M868.52,646.57c3.29-.71,6.58-1.42,9.87-2.14,2.53,1.01,2.62,3.12.35,3.56-3.33.65-7.31,2.33-10.21-1.42Z"/>
  <path class="cls-4" d="M748.82,592.74c1.41,2.18,2.56,3.38,2.88,4.77.13.54-1.63,1.52-2.53,2.3-.92-1.13-2.21-2.14-2.61-3.43-.22-.69,1.09-1.86,2.25-3.64Z"/>
  <path class="cls-11" d="M868.28,643.73c.1.96.21,1.91.31,2.87-.61-.32-1.23-.64-1.84-.97.51-.63,1.02-1.27,1.53-1.9Z"/>
  <path class="cls-4" d="M780.61,784.56c2.96-6.83,9.2-10.27,14.95-14.12.96-.64,2.9.17,4.38.32-.21,1.49.04,3.34-.75,4.4-1.23,1.67-3.18,2.81-4.82,4.17-2.28,2.04-4.7,3.94-6.8,6.14-2.97,3.1-4.63,2.98-6.97-.91Z"/>
  <path class="cls-4" d="M819.53,737.89c-1.18,2.8-1.71,5.16-3.07,6.86-.87,1.09-2.95,1.22-4.5,1.79-.31-1.58-.92-3.18-.84-4.74.07-1.4.68-2.89,1.43-4.11.97-1.59,2.31-2.95,3.49-4.41,1.15,1.53,2.3,3.05,3.47,4.61Z"/>
  <path class="cls-11" d="M780.61,784.56c2.33,3.89,3.99,4.02,6.97.91,2.11-2.2,4.53-4.1,6.8-6.14-.74,5.91-7.54,11.99-12.67,11.08-1.28-.23-2.38-1.48-3.56-2.26.82-1.2,1.65-2.39,2.47-3.59Z"/>
</svg>