<?xml version="1.0" encoding="UTF-8"?>
<svg id="Layer_1" data-name="Layer 1" xmlns="http://www.w3.org/2000/svg" version="1.1" viewBox="0 0 1920 1080">
  <defs>
    <style>
      .cls-1 {
        fill: #dca57e;
      }

      .cls-1, .cls-2, .cls-3, .cls-4, .cls-5, .cls-6, .cls-7, .cls-8, .cls-9, .cls-10, .cls-11, .cls-12, .cls-13, .cls-14, .cls-15, .cls-16, .cls-17, .cls-18, .cls-19, .cls-20, .cls-21, .cls-22, .cls-23, .cls-24, .cls-25, .cls-26, .cls-27, .cls-28, .cls-29 {
        stroke-width: 0px;
      }

      .cls-2 {
        fill: #d9a37d;
      }

      .cls-3 {
        fill: #120e0e;
      }

      .cls-4 {
        fill: #c52727;
      }

      .cls-5 {
        fill: #0d0d0d;
      }

      .cls-6 {
        fill: #e57171;
      }

      .cls-7 {
        fill: #b0b0b0;
      }

      .cls-8 {
        fill: #eee5a7;
      }

      .cls-9 {
        fill: #747474;
      }

      .cls-10 {
        fill: #735938;
      }

      .cls-11 {
        fill: #bf3030;
      }

      .cls-12 {
        fill: #7c5f3c;
      }

      .cls-13 {
        fill: #e67272;
      }

      .cls-14 {
        fill: #d84d4d;
      }

      .cls-15 {
        fill: #d9bf42;
      }

      .cls-16 {
        fill: #121212;
      }

      .cls-17 {
        fill: #7a5d3b;
      }

      .cls-18 {
        fill: #090808;
      }

      .cls-19 {
        fill: #dea780;
      }

      .cls-20 {
        fill: #e0a881;
      }

      .cls-21 {
        fill: #efefef;
      }

      .cls-22 {
        fill: #e0a880;
      }

      .cls-23 {
        fill: #e0a67f;
      }

      .cls-24 {
        fill: #e9c0a4;
      }

      .cls-25 {
        fill: #0b0807;
      }

      .cls-26 {
        fill: #e1a981;
      }

      .cls-27 {
        fill: #dbc042;
      }

      .cls-28 {
        fill: #f5eaab;
      }

      .cls-29 {
        fill: #fefefe;
      }
    </style>
  </defs>
  <path class="cls-25" d="M886.11,1001.55c-7.64.33-15.29.65-22.93.98-.66-.08-1.32-.16-1.97-.25-7.56-.66-12.14-4.61-14.7-11.85-1.39-3.92-4.41-7.26-6.68-10.88-1.56-2.5-3.08-5.02-4.62-7.54-.36-.2-.71-.41-1.07-.61-9.38,2.81-18.74,5.68-28.13,8.42-21.04,6.14-42.22,11.87-63.12,18.46-12.23,3.86-24.48,5.99-37.25,5.16-10.42-.68-20.85-1.31-31.27-1.97-2.33-.04-4.65-.08-6.98-.13-1-.25-2-.49-3-.74-.66-.08-1.33-.16-1.99-.25-10.66-.29-21.32-.58-31.97-.87-3.99-.05-7.98-.11-11.97-.16-2.67-.28-5.34-.55-8.01-.83-.66-.05-1.32-.11-1.98-.16-5.56-1.55-11.21-2.85-16.66-4.7-13.21-4.48-26.21-9.61-39.53-13.74-11.89-3.69-22.02-10.03-31.31-18-11.57-9.92-24.32-17.85-38.37-23.89-20.59-8.84-40.96-18.19-61.51-27.14-4.53-1.97-6.46-4.88-5.65-9.71.58-3.44.93-6.93,1.59-10.36,3.18-16.3,6.59-32.55,9.61-48.87,3.89-21.05,11.57-40.91,18.4-61.07,3.88-11.46,8.02-23.01,10.08-34.86,2.55-14.67,7.39-28.19,14.16-41.3,4.65-9,8.15-18.58,12.69-27.64,4.01-8.01,8.72-15.66,13.13-23.47,9.15-16.19,18.3-32.38,27.44-48.57,3.39-5.88,7.22-11.55,10.07-17.67,8.83-18.97,17.21-38.15,25.92-57.18,3.01-6.59,6.47-12.98,9.72-19.46,0,0-.05.08-.05.08.73-1.24,1.46-2.47,2.19-3.71,2.75-4.88,5.16-9.99,8.3-14.61,9.93-14.59,20.25-28.85,35.42-38.69,2.41-1.56,4.6-3.48,3.78-7.4-.29-1.4,2.19-3.75,3.84-5.15,8.99-7.6,18.27-14.86,27.16-22.58,15-13.01,29.86-26.19,44.63-39.46,9.26-8.33,15.86-18.52,20.67-30.04,6.12-14.66,13.75-28.75,15.57-45.28-1.11-.61-2.42-1.8-3.89-2.05-3.61-.61-4.09-4.27-6.45-6.13-3.76-2.96-6.77-6.85-10.37-10.05-.73-.65-2.64.03-3.49.07.64-5.75,1.31-11.77,2-18.02-1.38-.24-3.25-.58-5.13-.91.05-.27.1-.54.15-.8,1.77-.28,3.82-.13,5.2-1.02.77-.5.43-2.73.62-4.43-1.48-.11-2.67-.21-3.98-.31.24-.52.35-1,.49-1.02,3.56-.27,4.47-1.86,4.96-5.66,1.01-7.97,3.38-15.76,5.27-23.95-2,.14-3.82.27-5.64.39-.32-.42-.64-.83-.97-1.25,4.96-.18,8.2-1.92,8.24-6.84.03-3.53,4.02-7.88-2.46-10.76,1.3-.31,3.06-.22,3.78-1.04,1.25-1.42,3.05-4.18,2.51-5-1.67-2.57.24-2.94,1.27-4.49,1.61-2.39,2.26-5.44,3.24-8.24,4.04-11.56,7.95-23.18,12.15-34.68,1.29-3.54,2.66-6.69-.16-10.12-.65-.79-.47-2.25.32-3.74.94,1.73,1.88,3.46,3.43,6.3,3.27-7.65,6.09-14.22,8.95-20.91-.58-.38-.06-.12.36.26.3.27.47.69.64.96,6.41-6.74,12.85-13.24,18.9-20.08,1.41-1.6,1.47-4.38,2.24-6.88.58.8,1.29,1.79,1.85,2.57,6.68-2.53,9.28-9.57,15.45-13.03,5.8-3.25,9.58-9.49,14.95-13.71,5.72-4.49,11.19-9.29,16.77-13.96-.65-1.13-1.23-2.14-2.32-4.05,2.24.88,3.52,1.38,5.61,2.19,2.51-3.5,5.1-7.11,7.77-10.84-.03-.04.66.86,1.28,1.67,8.54-5.9,17.08-11.8,26.04-17.99,2.55,1.69,18.04-1.69,18.72-4.25,2.72.23,5.2.42,7.67.64,2.72.24,5.43.5,8.45.79-.28-1.71-.56-3.38-.84-5.06.45-.17.9-.33,1.34-.5.98,2.51,1.96,5.02,2.92,7.49,6.8-.6,13.73-.99,20.59-1.95,1.8-.25,3.35-2.26,5.42-3.75v3.88c6.05,0,12.27-.51,18.35.14,6.93.74,13.79,2.33,20.59,3.93,3.84.9,4.87,3.76,3.18,7.34-.85,1.79-1.97,3.45-3.21,5.57.7.96,1.52,2.1,1.98,2.73-.3,0-1.67-.33-1.9.05-1.3,2.09-2.47,4.29-3.38,6.58-.31.79.24,1.93.35,2.54-6.48,1.39-4.06,7.82-6.59,10.27,2.45,1.99,4.49,3.64,6.53,5.3-.23.23-.47.46-.7.7-2.38-.81-4.76-2.15-7.13-2.13-.84,0-2.28,3.27-2.33,5.08-.06,1.72,1.33,3.49,2.61,6.44-1.92-1.26-2.74-1.8-4.12-2.7-1.26,4.14-2.49,8.19-3.72,12.24,1.59.62,2.87,1.11,5.26,2.04-2.7.85-4.31,1.36-6.17,1.95-.46,3.82-.93,7.73-1.48,12.4,1.48-.8,2.42-1.31,3.35-1.82-5.04,10.36-6.92,21.1-5.73,32.77,2.33.16,4.63.21,6.9.5,18.28,2.33,34.16,9.86,49.43,20.19,11.74,7.95,18.03,19.39,25.61,30.33,3.72,5.37,8.16,10.45,13.08,14.72,9.01,7.82,14.15,17.71,17.65,28.75.2.63.06,1.64.45,1.89,8.2,5.22,4.48,13.52,4.09,20-1.24,20.23-5.05,40.26-13.57,58.74-7.13,15.45-19.32,25.92-36.79,28.93-.84.14-2.49-.2-2.56-.55-.19-.99.04-2.19.47-3.16,3.79-8.61,7.67-17.19,11.51-25.77.01-.39.02-.77.04-1.16-.29.17-.58.33-.86.5-1.57,1.8-3.13,3.6-4.81,5.53-5.86,1.07-12.23,1.98-18.45,3.51-1.79.44-3.15,2.65-4.7,4.05l-.09.17c-.53-.87-1.21-2.56-1.57-2.5-7.04,1.3-14.33,2.02-20.98,4.46-8.79,3.22-17.3,7.41-25.52,11.94-7.16,3.94-13.75,8.93-20.58,13.48-.22.15-.39.59-.35.86.03.2.43.34.67.51l-.1-.15c-.63-.06-1.48-.42-1.86-.14-3.78,2.84-7.68,5.57-11.16,8.75-4.09,3.75-6.21,8.09-1.62,13.1.29.32.28.94.32,1.43.03.31-.11.64-.42,2.22-9.58-2.33-19.23-4.33-28.64-7.11-4.2-1.24-6.6-.72-8.46,3.81,11.73,4.78,23.33,9.52,34.95,14.23,6.9,2.8,13.67,5.99,20.75,8.2,11.99,3.75,24.15,6.96,36.29,10.22,10.24,2.75,19.07,8.04,27.77,13.93,14.8,10.03,19.25,26.04,24.68,41.42,2.08,5.9,2.63,12.33,3.99,18.49.61,2.75,1.24,5.54,2.3,8.13,7.57,18.53,8.92,37.79,5.48,57.2-2,11.26-7.28,21.52-14.07,30.87-.85,1.18-1.13,2.78-1.52,3.8-1.75,1.27-3.5,2.54-5.22,3.79,10.91,20.49,15.25,41.77,13.87,64.68,7.34-2.73,14.22-5.3,21.12-7.84,1.18-.43,2.39-.86,3.62-1.05,12.21-1.86,23.45-6.2,34.25-12.21,5.1-2.84,11.16-3.91,16.7-6.01,14.27-5.4,28.47-10.96,42.75-16.34,1.48-.56,3.38.04,4.89-.47,11.81-4.02,23.93-6.22,36.4-6.55,1.11-.07,2.21-.14,3.32-.21,14.78-1.97,29.41-5.16,44.81-4.84-.18-1.87-.33-3.36-.48-4.84.66,4.22,3.17,5.26,7.14,4.93,18.59-1.55,36.62,3.26,54.93,4.86,10.62.93,21.48-.77,32.23-1.37,4.95-.27,9.91-1.19,14.81-.89,2.28.14,5.03,1.98,6.54,3.87,11.51,14.39,6.58,30.31-11.09,38.11-7.88,3.48-16.16,6.06-24.05,9.51-4.37,1.91-8.49,4.54-12.44,7.25-12.08,8.26-25.89,10.78-39.98,11.61-16.23.95-32.52,1-48.79,1.35-4.46.09-8.94-.17-13.4-.27-.81.05-1.62.1-2.44.15-2.85-.04-5.7-.08-8.54-.11-.81.02-1.62.04-2.43.06-6.3,1.38-12.64,2.63-18.87,4.31-.84.23-1.07,2.67-1.47,3.77-.18-.67-.49-1.86-.79-2.97-7.53-.15-11.48,4.99-15.67,9.56-6.94,7.57-13.56,15.43-20.59,22.92-3.1,3.3-6.99,5.85-10.29,8.99-1.73,1.64-2.97,3.81-4.28,5.55.07.15-.24-.54-1.08-2.37-3.86,3.36-7.34,6.74-11.21,9.6-1.68,1.24-4.17,1.33-6.26,2.04-8.24,2.79-14.82,7.94-20.66,14.25-1.44,1.55-3.53,2.47-5.12,3.91-1.18,1.07-2.04,2.51-3.24,4.02-4.85.92-7.43,5.45-10.5,9.36-.93.62-1.86,1.24-2.8,1.86-3.86,5.95-8.61,10.54-16.14,11.47-.9.11-1.54,2.37-2.31,3.64l.02-.05c-.96-.52-2.11-1.68-2.85-1.46-15.21,4.38-30.65,8.34-43.4,18.41-2.66,2.1-4.93,4.8-6.99,7.52-4.94,6.52-9.65,13.21-14.55,19.97,1.61.61,3.73,1.54,5.93,2.21,10.11,3.08,15.4,13.38,11.47,23.37-1.93,4.92-4.88,9.43-7.29,14.16-12.64,24.81-30.75,44.36-55.15,58.04-4.14,2.32-7.77,5.55-12.48,8.97,8.41,6.3,14.18,14.76,25.49,14.96,10.95.2,21.9.91,32.81,1.88,4.58.41,9.13,1.78,13.53,3.22,7.33,2.4,9.98,13.97,4.13,20.67-3.47,3.97-8.25,7.35-13.11,9.46-14.57,6.33-30.08,9.15-45.87,10.52-.66.08-1.31.16-1.97.24-2.67.27-5.34.54-8,.8-.66.05-1.32.11-1.98.16-2.01.27-4.01.55-6.02.82-.66.06-1.31.13-1.97.19-2.67.27-5.34.55-8.01.82-.66.07-1.32.15-1.98.22ZM626.32,449.03s.1-.09.1-.09c-.24.31-.47.63-.71.94-3.36,3.62-6.24,7.91-10.17,10.74-14.62,10.56-25.34,24.5-33.94,39.91-10.43,18.71-19.74,38.05-29.45,57.16-1.73,3.4-3.04,7.01-4.61,10.49-4.82,10.74-8.97,21.85-14.63,32.13-11.77,21.39-24.36,42.32-36.57,63.47-2.82,4.89-5.72,9.76-8.14,14.86-4.78,10.05-9,20.38-13.91,30.37-5.08,10.34-10.07,20.65-11.64,32.21-1.91,14.08-5.79,27.54-10.91,40.83-8.18,21.24-15.93,42.68-19.52,65.35-1.97,12.46-4.39,24.85-6.7,37.25-.97,5.21-2.11,10.39-3.35,15.54-.68,2.84.37,4.17,2.95,5.3,18.41,8.06,36.6,16.64,55.17,24.3,17.12,7.06,32.5,16.62,46.52,28.59,7.63,6.52,15.92,11.96,25.75,14.78,6.71,1.92,13.35,4.12,19.93,6.46,15.53,5.51,31.04,10.58,47.9,10.62,9.59.03,19.17,1.88,28.75,2.91,22.17,2.39,44.4,4.67,66.69,3.1,9.49-.67,18.95-3.21,28.2-5.73,16.19-4.41,31.95-10.78,48.35-13.96,29.18-5.66,55.74-17.7,81.75-31.08,11.74-6.04,21.82-15.21,33.33-21.78,24.05-13.71,41.98-32.88,54.32-57.48,1.78-3.54,3.57-7.08,5.36-10.61,2.45-5.32,1.5-13.37-2.67-15.12-4.85-2.03-10.27-2.68-15.44-3.93-9.8-3.64-19.51-7.53-29.4-10.87-22.7-7.68-43.85-18.54-63.62-31.84-18.33-12.34-35.58-26.15-51.83-41.28-10.43-9.71-22.09-18.16-33.61-26.62-24.4-17.91-40.12-42.73-54.4-68.47-5.48-9.88-9.93-20.76-10.14-32.63-.03-1.54-.78-3.06-1.62-6.13-1.43,3.41-2.81,5.4-3.06,7.52-1.17,9.82-2.07,19.68-2.99,29.53-.41,4.41-1.27,9.01,4.56,12.33-2.36.28-3.48.41-5.18.61,1.82,4.4-2.7,10.35,5.63,13.19-5.29.17-3.97,2.75-3.68,5.29.77,6.76,1.57,13.55,1.71,20.33.12,5.58,0,10.97,4.8,14.98,5.36-2.6,8.98-2.17,13.31,1.74,4.56,4.13,9.15,8.32,5.59,15.31-1.49,2.93-1.04,4.88,1.72,6.68,7.38,4.8,14.61,9.83,21.99,14.62,14.79,9.58,29.94,18.65,44.38,28.73,10.85,7.56,21.11,16.03,31.1,24.71,7.12,6.19,13.34,13.43,19.98,20.18,6.51,6.62,13.32,12.97,19.44,19.93,2.76,3.15,5.32,7.98,1.71,11.76-3.29,3.45-7.83,1.35-11.52-.74-7.5-4.26-14.63-9.23-22.39-12.93-23.69-11.3-47.11-23.47-71.62-32.66-16.09-6.03-31.84-12.39-46.87-20.54-4.62-2.5-9.22-5.63-12.68-9.5-2.42-2.7-4.79-4.49-8.06-5.57-3.7-1.22-7.19-2.71-8.14-7.2-.14-.66-1.38-1.19-2.19-1.59-3.56-1.77-7.07-3.67-10.75-5.14-2.84-1.14-5.89-2.26-8.89-2.41-7.87-.4-12.14-3.27-15.01-10.76-2.32-6.04-4.87-11.99-7.15-18.04-.91-2.42-2.02-5.04-1.9-7.52.47-10.29,1.37-20.55,2.12-30.82-.71-.74-1.42-1.48-2.13-2.22,1.04-.91,2.08-1.81,3.19-2.78-1.31-.99-2.24-1.69-3.48-2.63,6.82-2.52,3.46-7.82,4.93-12.95-3.37,1.05-5.67,1.76-7.97,2.48-.23-.51-.45-1.01-.68-1.52,2.83-1.35,5.66-2.7,9.31-4.44-.23-2.28.54-6.38-1.12-7.98-1.68-1.63-5.75-.81-8.91-1.08,2.25-4.68,6.56-2.36,10.31-1.96,3.6-13.64,2.92-26-8.79-36.03,2.42-3.57,1.91-6.38-1.12-8.42.13-4.26.49-7.76.3-11.23-.32-5.87-6.08-1.7-9.25-4.81,3.17-.69,5.56-1.21,7.6-1.65,0-10.73-.16-21.19.03-31.65.33-18.19,4.1-35.3,16.38-49.6,1.95-2.27,3.47-4.9,5.43-7.16,10.72-12.33,22.64-23.23,39.27-26.4,8.09-1.54,16.54-1.18,24.83-1.64,10.56-.59,19.42,3.29,27.2,10.2,10.38,9.22,12.4,9.13,23.45.38,7.42-5.87,14.93-11.64,22.62-17.14,6.86-4.9,11.76-11.1,14.59-19.02.36-1.02,1.31-2.64,1.95-2.62,3.85.11,3.75-3.15,4.96-5.3,1.62-2.88,3.27-5.75,4.9-8.62-.32-.68-.64-1.37-.96-2.05l.06.05c-1.91-6.6-7.33-10.17-12.78-12.84-11.87-5.83-24-11.2-36.32-16-7.97-3.1-16.34-5.85-24.77-6.97-12.43-1.65-25.07-2.36-37.62-2.24-10.2.1-20.39,1.88-30.55,3.25-2.32.31-4.73,1.66-6.62,3.14-9.89,7.81-19.78,15.63-29.32,23.84-4.41,3.8-8.03,8.52-12,12.82,0,0,.06-.03.06-.03-.35.36-.7.73-1.05,1.09ZM817.29,293.1c-1.31-.82-2.61-1.65-3.92-2.47-3.09-2.97-6.32-5.82-9.26-8.93-6.87-7.29-13.03-15.1-15.67-25.01-3.35-12.6,3.35-22.32,9.51-32.19,2.38-3.82,5.81-4.18,9.56-3.32,9.15,2.12,18.19,4.8,27.4,6.58,12.53,2.42,25.25,3.84,37.75,6.39,12.77,2.61,25.68,3.11,37.95-.44,9.12-2.64,14.58.66,20,6.44,1.76,1.88,3.85,4.03,4.38,6.38,1.64,7.21,2.47,14.61,3.93,21.87.3,1.47,1.73,3.26,3.11,3.88,6.72,3.02,13.6,5.7,20.88,8.68.58-.89,1.47-2.25,2.36-3.61,2.31-1.72,4.61-3.44,7.13-5.31-.52-1.62-1.19-3.83-1.95-6-5.41-15.56-7.51-31.61-6.02-47.95.46-5.04,3.11-9.89,4.75-14.83.29-.16.58-.32.86-.48,14.15-1.91,25.78-8.53,36.4-19.2-4.77-4.01-9.28-7.53-13.47-11.38-10.41-9.57-23.31-14.02-36.43-18.06l.1.16c-.52-.26-1.04-.52-1.56-.79-5.2-.66-10.4-1.31-15.98-2.01-.33,4.39-.55,8.5-.98,12.59-.26,2.53-1.03,4.37-4.45,3.57-11.15-2.57-22.3-5.3-33.58-7.14-7.44-1.22-15.17-1.79-22.66-1.23-5.98.44-11.7,3.62-17.7,4.53-11.45,1.74-22.35,4.86-32.7,10.06-9.33,4.69-18.78,9.11-28.14,13.75-2.82,1.4-5.38,3.36-8.25,4.64-13.55,6.05-14.77,18.2-15.44,30.67-.33,6.24-.19,12.55-1.1,18.7-1.06,7.13-3.05,14.12-4.66,21.25,2.58.7,5.33,1.29,7.96,2.2,5.57,1.93,9.79,5.61,10.49,11.56,1.61,13.69,3.22,27.42,3.63,41.18.14,4.6,1.76,6.73,4.69,9.28,15.9,13.82,33.77,24.71,52.47,34.06,12.37,6.19,25.65,10.56,38.53,15.75,2.26.76,4.51,1.52,7.39,2.5-7.89-12.46-13.46-24.86-15.07-38.79-.82-7.07-1.73-14.14-2.51-21.21-.39-3.55-2.12-5.52-5.67-6.55-10.31-2.97-20.55-6.2-30.78-9.46-4.07-1.3-8.04-2.95-12.05-4.44-3.74-1.99-7.48-3.98-11.22-5.97l-.02.11ZM859.09,405.05l.03-.07-7.06,10.02s.05-.06.05-.06c-3.6,4.81-7.59,9.41-10.5,14.6-.67,1.2-3.64,6.73,2.5,7.21,12.19.35,22.58,4.42,30.48,14.18,1.02,1.25,3.92,1.9,5.64,1.51,11.11-2.57,22.08-5.73,33.19-8.29,18.55-4.28,37.18-8.27,55.77-12.38h7.75c-4.27-3.29-8.73-6.24-13.63-7.78-11.85-3.71-24.07-6.27-35.83-10.21-13.31-4.46-26.28-9.94-39.41-14.95-6.13-2.34-12.26-4.69-18.45-6.85-1.02-.36-3.03-.22-3.46.43-2.22,3.41-4.08,7.06-6.07,10.62,0,0,.05-.06.05-.06-.35.69-.7,1.38-1.05,2.06ZM948.32,313.41c-.2-.23-.4-.47-.59-.71,1.42-3.01-.51-4.41-2.83-4.12-3.29.4-6.7,1.34-9.6,2.91-1.65.9-2.38,3.51-3.52,5.34,2.45,1.01,4.98,3,7.34,2.82,4.71-.37,9.35-1.85,13.97-3.05,1.09-.28,2-1.27,3-1.94-.15-.66-.29-1.33-.44-1.99-2.44.25-4.88.5-7.32.74ZM704.7,733.56c-3.2,7.51-3.84,15.43-3.11,23.39.66,7.16-3.01,11.92-7.63,16.4-1.12,1.08-2.5,1.89-4.4,3.31,2.44,1.03,4.19,1.77,6.01,2.54.8-.97,1.83-1.64,1.99-2.48,1.52-7.96,7.51-12.53,12.85-17.73,1.87-1.83,2.78-4.65,4.12-7.02,1.7-4.69,3.71-9.31,4.95-14.12.52-2,.13-5.11-1.15-6.48-1.9-2.03-5.1-4.27-7.5-4.03-2.59.26-6.84,1.49-6.12,6.22ZM1042.9,259.2l.03-.1c-4.31,7.84-10.02,14.25-18.19,18.28-.74.37-1.34,1.84-1.32,2.79.07,3.63.83,7.29.58,10.88-.8,11.16-1.47,22.36-3.16,33.4-.82,5.4-3.79,10.47-5.79,15.69-.12.04-.26.07-.36.14-.04.03,0,.17,0,.27.08-.16.17-.33.25-.49,2.01-.8,4.03-1.6,6.04-2.4,7.52-3.14,11.21-9.46,13.88-16.65,1.9-5.11,3.82-10.21,5.8-15.29,6.25-16.05,9.02-32.76,9.51-49.9.03-1.11-.92-2.26-1.41-3.39-1.11.49-2.4.78-3.29,1.54-.82.71-1.21,1.92-1.79,2.92-.26.77-.52,1.55-.78,2.32ZM720.03,244.95c.22.21.43.43.64.65-3.31,2.79-5.49,5.96-3.9,10.6.2.59-.3,1.48-.62,2.17-2.06,4.35-2.46,8.53,2.02,12.86-1.85-.3-2.75-.44-3.85-.61.58,4.52-4.19,9.89,2.94,12.53,4.12,4.32,8.24,8.64,12.22,12.83,4.18-6.23,7.39-12.06,11.61-17.02,5.53-6.51,11.51-12.75,18.02-18.25,2.48-2.1,4.59-3.66,5.71-6.86,4.83-13.86,3.21-28.46,5.23-42.63.05-.32.11-.75-.05-.98-4.41-6.49.54-10.6,4.55-13.6,8.45-6.32,17.4-12.08,26.57-17.33,17.48-10.01,35.53-18.75,55.84-21.62,5.41-.77,11-1.4,16.06-3.29,7.16-2.67,14.13-2.8,21.45-1.46,12.22,2.25,24.48,4.26,37.92,6.57-.47-3.56-.92-6.66-1.29-9.77-.17-1.37-.43-2.8-.23-4.14.35-2.38,1.23-4.68,1.53-7.06,1.7-13.49,1.74-27.42,5.33-40.38,4.75-17.16,12.24-33.55,18.56-50.28.87-1.31,1.75-2.62,3.34-5.01-7.73-.53-14.32-.87-20.88-1.45-24.09-2.13-48.09-1.82-71.87,2.95-4.81.96-10.2,1.84-13.98,4.59-12.45,9.07-24.49,18.75-36.3,28.66-11.18,9.38-21.91,19.29-32.75,29.05-5.7,5.13-11.23,10.45-16.84,15.68.21.5.42,1,.63,1.5,2.39.3,4.78.59,7.17.89,1.89,4.9-2.09,1.6-3.21,2.3-4.48-2.76-7.75-1.44-10.98,2.49-8.73,10.61-14.45,22.74-19.22,35.47-.97,2.59-1.24,4.6.76,6.61.21,1.47.43,2.94.64,4.41l-1.71-.76c-.59-1.06-1.19-2.12-2.35-4.19-2.37,7.1-4.59,13.08-6.35,19.19-1.74,6.02-3.03,12.17-4.56,18.41.92.25,1.98.55,3.31.92-5.31,1.87-7.86,7.81-5.56,12.31,0,0-.31.38-.31.38-.73.39-1.98.65-2.1,1.18-1.64,6.99-3.12,14.02-4.58,21.05-.01.05.95.3,1.45.45ZM932.88,989.38c.71-.15,1.41-.29,2.12-.44,3.42-.9,6.85-1.8,9.77-2.57-.58-2.28-1.03-4.03-1.48-5.78,1.77.67,3.54,1.37,5.33,1.99,1.51.52,3.28,1.65,4.55,1.25,4.76-1.49,9.36-3.5,14.02-5.31-.12-.57-.24-1.14-.36-1.7-2.54-.26-5.11-.36-7.59-.88-.83-.17-1.43-1.44-2.13-2.21.71-.6,1.4-1.66,2.14-1.7,2.13-.11,4.32.02,6.43.4,2.47.44,4.91.87,5.44-2.39.46-2.8.72-5.98-3.27-6.61-9.32-1.47-18.65-2.87-28.01-4.12-1.54-.21-3.47.06-4.77.85-8.82,5.37-18.08,20.7-15.42,30.23,4.5-.34,8.88-.68,13.25-1.01ZM835.6,488c8.98,4.49,18.13,4.71,27.43,1.12,4.92-1.9,8.74-5.1,9.59-10.46.83-5.22,1.02-10.56,1.2-15.86.05-1.53-.52-3.45-1.5-4.59-11.73-13.51-20.76-17.56-40.02-13.4-7.52,1.13-15.4,9.59-17.09,18.29-1.1,5.67-2.24,11.77,3.16,15.59,5.29,3.74,11.45,6.26,17.22,9.32ZM841.15,969.88c.6,1.19,1.2,2.39,1.8,3.58,2.34,2.97,4.44,6.17,7.1,8.82,1.56,1.56,3.97,3.1,6.04,3.16,11.45.3,22.91.1,34.37.16,5.33.03,9.23-2.36,11.91-6.8,4.07-6.76,8.03-13.58,12.13-20.54-5.87-4.73-11.83-9.72-18.05-14.37-1.05-.78-3.45-.62-4.79.02-4.04,1.91-7.8,4.41-11.79,6.44-12.88,6.57-25.81,13.03-38.72,19.53ZM719.69,757.65c-4.21,4.18-8.57,8.22-12.6,12.57-6.14,6.63-5.62,14.59,1.77,19.49,7.17,4.75,14.59,9.34,22.44,12.77,13.02,5.7,26.69,9.92,39.7,15.66,21.54,9.5,42.82,19.61,64.11,29.67,5.49,2.59,10.61,5.96,15.91,8.97,2.81,1.64,5.62,3.27,8.43,4.91.45-.55.9-1.1,1.36-1.65-1.98-2.51-3.74-5.24-5.98-7.49-7.95-8.01-15.92-15.99-24.13-23.72-9.64-9.09-18.87-18.82-29.48-26.62-14.83-10.9-30.8-20.24-46.24-30.3-11.2-7.3-22.35-14.69-33.96-22.33-.47,2.91-.89,5.49-1.31,8.08ZM1010.11,233.13c-1.06-4.61-2.12-9.22-3.17-13.83.51.43,1.03.86,1.54,1.29,2.75-3.44,5.72-6.72,8.15-10.37,1.16-1.73,2.41-4.71,1.69-6.15-2.47-4.91-5.79-9.39-8.79-14.04-10,9.42-21.01,16.06-34.39,18.47-1.3.23-2.85,2.57-3.19,4.17-3.13,14.47-.93,28.78,2.15,42.92,1.18,5.43,3.11,11.01,6.05,15.66,3.95,6.23,1.61,8.76-4.44,8.87-2.89.05-4.88.67-6.5,3.27-3.12,5-6.96,5.55-12.23,2.95-5.41-2.68-11.2-4.6-16.61-7.29-2.69-1.34-6.34-3.21-7.06-5.59-2.36-7.91-3.79-16.12-5.17-24.29-.74-4.38-7.61-10.67-11.78-9.69-14.73,3.44-29.39,3.98-44.34.92-21.74-4.45-43.6-8.28-65.43-12.27-1.2-.22-3.27.16-3.79.99-5.24,8.41-11.19,16.82-7.43,27.56,1.3,3.7,3.25,7.27,5.44,10.55,7.63,11.42,17.34,20.67,30.44,25.36,15.3,5.48,30.89,10.12,46.24,15.45,2.13.74,4.67,3.09,5.16,5.14.89,3.7,2.53,4.04,5.47,3.24v-3.23l-.07.07c2.47,4.66,6.45,3.91,10.88,3.93,4.48.02,5.77-1.05,4.91-5.18,3.95,5.1,4.34,5.14,8.21.77,1.57-.52,3.65-.58,4.63-1.65,4.02-4.34,9.06-6.63,14.27-9.15,2.52-1.22,4.75-.75,7.03-1.44,8.41-2.57,16.87-3.11,25.32.33,2.7,1.1,5.73,1.42,8.61,2.09,1.02-.6,2.05-1.2,3.07-1.81,1.45.24,3.07,1.02,4.33.63,4.33-1.34,8.74-2.69,12.73-4.78,7.99-4.18,15.77-8.78,23.5-13.44.84-.51,1.32-2.67,1.03-3.82-.93-3.65.81-5.63,3.62-7.33,2.7-1.62,5.85-2.94,7.82-5.23,4.93-5.75,9.3-11.98,13.89-18.02,1.43-.74,2.85-1.49,4.28-2.23-.47-.51-.95-1.03-1.42-1.54-4.79-.82-9.68-1.27-14.35-2.55-7.31-2-16.14-1.1-20.31-9.74ZM684.37,399.78c5.26-.61,10.51-1.69,15.77-1.74,10.38-.09,20.82-.14,31.15.78,8.68.78,17.61,1.87,25.75,4.76,16.76,5.95,33.07,13.18,49.56,19.89,5.12,4.01,11.89,6.03,14.75,12.8.61,1.45,3.21,3.51,3.96,3.18,2.82-1.25,6.57.12,8.38-4.55,4-10.28,8.69-20.35,13.94-30.06,5.25-9.71,11.51-18.86,17.16-27.99-10.21-5.32-20.58-10.48-30.72-16.06-16.76-9.21-32.55-19.88-46.68-32.82-1.56-1.43-3.04-4.25-2.78-6.18,1.84-13.54-.31-26.81-2.34-40.06-1.1-7.19-5.47-10.62-12.78-10.66-3.54-.02-7,.29-7.59-6.39-5.53,6.28-9.94,11.35-14.4,16.36-6.58,7.39-10.75,15.75-11.45,25.82-.27,3.92-1.43,7.83-2.59,11.63-6.12,20.14-16.8,38.03-28.1,55.55-2.66,4.13-6.18,7.86-9.87,11.13-4.66,4.12-9.95,7.53-14.88,11.35-.78.6-1.1,1.8-2.24,3.79,2.7-.24,4.35-.39,6.01-.53ZM649.07,707.77v5.39h-3.38c-.38,3.06-.99,5.86-1.02,8.67-.05,4.29-.55,8.83.65,12.82,2.14,7.12,5.08,14.06,8.38,20.73,1.22,2.46,4.5,5.67,6.69,5.56,7.41-.39,13.05,3.1,18.99,6.4,7.65,4.25,15.96-.67,15.84-9.47-.13-8.86.09-17.6,2.98-26.12.58-1.72.09-3.89-.2-5.81-.84-5.53-2.11-11.01-2.69-16.56-.55-5.25-.08-10.7-4.19-13.74,4.07-8.67,1.06-15.67-3.58-23.02,1.7.29,2.8.48,3.09.53v-21.84c1.99-1.57,2.76-7.83.08-14.99-1.31,2.52-2.25,4.32-3.18,6.12,1.96-6.44,4.68-12.02,7.38-17.61,5.13-10.62,10.1-21.31,15.45-31.81,1.47-2.89,3.97-5.3,6.21-7.74,7.5-8.18,15.88-15.7,22.44-24.57,7.47-10.1,13.53-21.27,19.84-32.18,2.94-5.08.13-15.4-3.94-17.44-2.64-1.32-5.34-2.73-7.55-4.64-9.44-8.11-19.47-14.73-32.67-13.16-9.68,1.15-20.47.51-28.71,4.71-19.25,9.81-32.91,26.05-42.36,45.57-1.07,2.21-1.86,4.7-2.13,7.14-2.53,23.54-5.37,47.11,2.31,70.33,1.88,5.67,3.72,11.36,5.62,17.03.89,2.67,2.6,5.31,2.63,7.97.04,3.73,1.65,5.75,4.51,7.55,1.23.77,1.99,2.27,2.97,3.44l-.92.81c-1.9-1.33-3.79-2.65-5.69-3.98.98,4.74-4.18,9.83.63,12.35-1.3,2.42-2.69,4.26-3.28,6.33-.52,1.85-.15,3.95-.16,5.94-.08.38-.16.77-.24,1.15l1.04-.3,3.13-1.35c.42.3.85.6,1.27.9-4.48,3.14-6.68,6.96-5.2,12.16.2.71-1.31,1.77-1.6,2.79-.56,2-2.18,4.63,1.9,4.93-1.89,3.17-3.77,6.35-5.66,9.52l.98.71c1.12-.41,2.25-.83,3.37-1.24ZM1004.35,520.13c-4.5-17.2-11.03-33.6-19-49.49-4.74-9.44-10.03-18.29-19-24.32-4.29-2.88-8.75-5.43-14.28-4.3-.82.11-1.65.15-2.45.34-23.01,5.75-46.02,11.51-69.34,17.35,0,3.26.09,6.88-.01,10.49-.5,17.92-13.07,30.69-30.56,28.02-16.72-2.55-34.36-5.93-41.93-25.34-4.97,9.09-13.52,13.84-21.58,19.1-2.47,1.62-3.47,3.16-3.35,6.38.92,26.04-3.65,50.47-19.72,72.11-10.18,13.72-19.23,28.32-28.3,42.83-4.44,7.11-9.74,12.96-16.86,17.3-1.28.78-2.17,2.18-3.24,3.3,1.44.88,2.79,2.29,4.34,2.55,11.47,1.94,22.93,3.94,34.47,5.34,11.21,1.36,22.12-.03,32.82-4.19,8.81-3.42,17.95-6.08,27.1-8.47,15.91-4.15,31.97-7.69,47.9-11.78,10.46-2.69,13.31-6.23,14.44-16.95.26-2.43-.21-4.94-.3-7.41-.05-1.39,0-2.78,0-4.18.67-.02,1.35-.04,2.02-.06.49,6,1.09,12,1.43,18.01.4,6.91-3.24,11.42-9.37,13.8-4.48,1.74-9.19,2.9-13.84,4.15-22.13,5.94-44.54,11.03-66.33,18.03-14.22,4.56-28.11,6.21-42.69,4.06-9.77-1.44-19.56-2.72-30.41-4.22,3,6.07,5.51,11.63,8.44,16.96,3.02,5.51,6.48,10.79,9.66,16.22,1.42,2.43,2.21,5.35,4,7.42,8.46,9.82,16.47,20.19,25.96,28.92,11.97,11.01,25.17,20.69,38.01,30.72,1.18.92,3.71.55,5.5.19,4.38-.9,8.65-2.9,13.03-3.1,11.47-.52,22.29-3.12,32.86-7.48,6.12-2.53,12.58-4.24,18.9-6.28,3.16-1.02,6.77-1.3,9.45-3.04,10.99-7.14,22.04-14.28,32.42-22.25,12.39-9.52,24.2-19.73,38.48-26.52,12.6-5.99,25.15-10.72,39.07-4.08,2.18,1.04,4.84,1.08,7.26,1.63,4.77,1.08,6.64-1.89,7.69-5.68,3.56-12.99,1.09-26.06.33-39.1-.09-1.47-.54-2.96-1.06-4.35-3.29-8.82-6.64-17.61-10.11-26.77-4.54,1.64-8.99,3.48-13.58,4.86-9.37,2.82-18.67,6.47-28.28,7.82-12.62,1.78-25.58,1.09-38.27,2.57-9.28,1.08-16.73-1.05-22.41-8.21-4.76-6-9.96-11.94-11.3-20.91,5.46,5.59,10.24,10.43,14.94,15.33,5.42,5.65,11.47,8.39,19.82,8.07,20.15-.77,40.3-.59,59.38-8.55,6.87-2.86,15.32-3.97,20.33-8.74,6.29-5.98,12.12-14.37,14-22.66,3.49-15.42.73-31.01-6.48-45.46ZM1014.42,779.25c2.55-.71,4.32-1.07,5.98-1.7,4.15-1.56,9.08-2.3,12.22-5.06,6.57-5.77,12.24-12.57,18.12-19.08.97-1.07,1.16-2.85,1.69-4.31.15-.4.22-.83.39-1.5.65,1.09,1.15,1.94,1.43,2.41,15.85-10.38,31.61-20.26,46.89-30.84,13.02-9.02,23.16-21.1,33.01-33.4,2.57-3.21,5.39-7.12,8.94-8.46,8.94-3.38,18.26-5.99,27.63-7.9,5.37-1.09,11.18-.58,16.73-.1,5.1.44,10.08-.55,15.2-.33,12.61.53,25.27-.07,37.91-.52,5.33-.19,10.72,1.37,15.37-4.44,3.23-4.04,9.77-5.3,14.54-8.28,6.4-3.99,15.3-5.68,15.13-16.13-.1-6.12.95-12.27.7-18.38-.09-2.18-2.19-5.83-3.87-6.15-11.89-2.27-23.9-3.89-35.89-5.54-1.02-.14-2.23,1.07-2.14,1.02-15.03-2.28-29.25-1.2-43.47.63-.83.11-1.54,1.21-2.43,1.96-.95-.26-2.57-1.28-3.92-.99-15.57,3.32-31.83,1.78-47.13,7.17-19.61,6.91-39.35,13.48-59.1,19.96-4.29,1.41-7.5,3.36-8.57,7.96-.08.32-.46.58-.63.78-.31-1.44-.59-2.77-.93-4.37-5.57,2.21-10.51,4.45-15.63,6.14-12.36,4.09-24.83,7.82-37.16,11.96-1.72.58-2.93,2.67-4.17,3.87-1.14-2.92-3.34-.8-4.88,1.05-4.59,5.48-8.96,11.15-13.36,16.79-9.62,12.34-17.26,25.73-20.24,41.26-.57,2.99.51,6.35,1.13,9.49.82,4.18,3.05,8.39,2.71,12.42-.83,9.68-2.64,19.3-4.36,28.88-1.13,6.3-2.81,12.5-4.02,17.78,9.27-3.82,18.73-8.22,28.56-11.52,4.3-1.44,7.29-2.82,7.81-7.55.02-.17.47-.29.73-.43-.25,1.57-.51,3.14-.88,5.44ZM997.98,679.04c-5.35-1.71-10.29-3.74-15.42-4.79-3.65-.75-7.89-1.16-11.31-.03-15.25,5.03-29.18,12.54-41.6,22.96-19.85,16.65-39.8,33.35-66.37,38.51-.96.19-1.84.75-2.77,1.1-10.38,3.97-20.58,8.36-31.96,9.05-6.14.37-12.22,1.76-19.46,2.86,1.62,1.53,2.15,2.1,2.75,2.58,9.17,7.42,18.41,14.75,27.5,22.27,3.68,3.05,7.38,5.24,12.45,5.39,5.6.16,11.22,1.11,16.76,2.1,8.5,1.53,17.46,2.6,23.95,8.88,5.95,5.74,10.91,12.49,16.45,18.67,3.06,3.42,5.86,7.72,9.75,9.6,8.19,3.96,16.99,6.67,25.62,9.69,1.54.54,3.94.76,5.05-.07,2.75-2.05,5.55-4.44,7.29-7.33,3.79-6.29,7.06-12.91,10.31-19.51,2.24-4.54,4.66-9.12,5.97-13.96,2.25-8.29,3.61-16.81,5.52-25.2,2.17-9.56,3.35-18.86-1.93-28.04-1.3-2.26-1.14-5.89-.53-8.64,2.98-13.56,7.59-26.48,16.27-37.62,2.03-2.6,3.71-5.47,5.72-8.48ZM763.77,509.42c1.19,6.06,2.61,11.68,3.33,17.39.8,6.44-3.81,10.59-7.38,15.09-.3.38-.42.91-.69,1.32-11.26,16.82-21.96,33.95-38.21,46.9-6.99,5.57-11.18,14.01-10.37,23.67.32,3.9,1.48,7.73,2.58,13.16,4.65-4.18,8.86-7.34,12.25-11.22,3.02-3.46,5.08-7.75,7.67-11.61,9.59-14.34,19.34-28.58,28.82-43.01,10.35-15.77,14.4-33.39,14.6-52.05.03-2.55,0-5.1,0-8.48-4.84,3.39-8.75,6.13-12.59,8.82ZM1015.88,551.11c.57-.03,1.15-.06,1.72-.08,0-11.02.78-22.1-.17-33.03-1.79-20.62-7.89-40.36-15.53-59.46-4.2-10.49-9.46-21.36-24.12-20.33-4.65.33-9.33.14-13.99.19-.01.51-.02,1.02-.03,1.53,10.41,6.15,18.52,14.43,23.34,25.61,6.1,14.14,12.51,28.17,17.9,42.58,3.93,10.51,6.57,21.52,9.5,32.38.92,3.41.94,7.07,1.38,10.61ZM1303.79,614.54c-1.03,6.6-2.07,12.62-2.86,18.67-.23,1.77.25,3.63.39,5.45.36,4.64,3.12,6.22,7.44,5.93,7.76-.53,14.95-2.86,21.46-7.08,1.44-.93,2.47-2.52,4.31-4.47-4.58.28-7.89.7-11.19.57-1.28-.05-2.5-1.35-3.75-2.09,1.2-.91,2.3-2.35,3.63-2.61,3.07-.6,6.32-.36,9.38-1.01,1.21-.26,2.81-1.9,2.98-3.09.28-1.97-.44-4.09-.75-6.15-1.63.37-3.39.46-4.85,1.16-3.72,1.8-7.21,4.11-11.01,5.7-1.3.54-3.23-.42-4.87-.7.98-1.23,1.74-2.76,2.97-3.62,3.3-2.3,6.79-4.31,10.21-6.44l-.62-1.99c-7.63.59-15.26,1.18-22.88,1.77ZM857.23,989.64c-.12.69-.24,1.38-.37,2.07,3.95.86,7.91,2.51,11.84,2.44,13.89-.25,27.76-1.13,41.64-1.7,3.56-.15,4.82-1.77,4.82-5.34,0-2.9.38-6.08,1.6-8.65,3.09-6.48,6.75-12.68,10.23-19.09-3.11-1.33-6.46-1.83-9.07,2.53-3.66,6.1-7.96,11.83-11.34,18.07-3.68,6.81-9.1,9.72-16.58,9.68-10.93-.06-21.85-.01-32.78-.01ZM1301.82,649.31c-5.73-5.47-6.77-12.22-5.27-19.86.9-4.58,1.14-9.28,1.68-14h-7.39c0,7.52.04,14.6-.02,21.69-.02,2.42,0,4.91-.54,7.24-.53,2.33-1.07,5.49-2.73,6.58-6.21,4.09-12.89,7.46-19.37,11.15-2.1,1.2-4.12,2.54-6.17,3.82.25.57.5,1.13.75,1.7,6.72-2.48,13.65-4.51,20.11-7.55,6.57-3.09,12.68-7.16,18.95-10.78ZM855.48,786.09c15.83,10.5,31.7,18.95,49.24,27.24-11.22-18.76-31.99-30.16-49.24-27.24ZM1040.06,227.03c-1.69.24-3.38.45-5.06.73-1.65.28-3.44,1.22-4.91.85-5.61-1.42-6.69-9.24-2.05-14.78-1.78-1.65-3.56-3.3-5.42-5.02-1.4,2.59-3.39,4.79-3.74,7.23-.67,4.63-.86,9.45-.25,14.05.19,1.44,3.62,2.43,5.53,3.67,1.11.72,2.06,1.79,3.25,2.26,2.4.95,4.89,1.83,7.42,2.26.78.13,2.3-1.09,2.66-2.01.96-2.46,1.47-5.1,2.58-9.22Z"/>
  <path class="cls-11" d="M568.25,510.74c-3.25,6.48-6.71,12.87-9.72,19.46-8.71,19.03-17.09,38.21-25.92,57.18-2.85,6.13-6.69,11.79-10.07,17.67,10.29-32.46,22.88-63.83,43.01-91.67.73-1.01,1.79-1.77,2.7-2.65Z"/>
  <path class="cls-9" d="M1042.82,771.34c.93-.62,1.86-1.24,2.8-1.86l-4.85,17.44c-.73-.26-1.46-.53-2.19-.79,1.41-3.42,2.97-6.78,4.16-10.28.46-1.35.08-2.99.08-4.51Z"/>
  <path class="cls-9" d="M1178.82,607.17c-1.11.07-2.21.14-3.32.21.38-4.09.75-8.17,1.14-12.33,3.41,3.25,1.58,7.98,2.18,12.11Z"/>
  <path class="cls-3" d="M618.44,999.34c3.99.05,7.98.11,11.97.16-3.99-.05-7.98-.11-11.97-.16Z"/>
  <path class="cls-7" d="M1186.61,676.6c.81-.05,1.62-.1,2.44-.15v8.02c-.35.08-.7.16-1.05.24-.46-2.7-.92-5.4-1.38-8.1Z"/>
  <path class="cls-3" d="M667.38,1001.37c2.33.04,4.65.08,6.98.13-2.33-.04-4.65-.08-6.98-.13Z"/>
  <path class="cls-11" d="M570.39,507.1c-.73,1.24-1.46,2.47-2.19,3.71.73-1.24,1.46-2.47,2.19-3.71Z"/>
  <path class="cls-7" d="M1175.63,676.54c.81-.02,1.62-.04,2.43-.06-.39.61-.78,1.21-1.17,1.82-.42-.59-.84-1.18-1.26-1.77Z"/>
  <path class="cls-25" d="M1024.37,786.45c.84-.19,1.69-.39,2.53-.58.03.22.07.44.1.66-.86-.06-1.72-.12-2.6-.15-.02.02-.03.07-.03.07Z"/>
  <path class="cls-16" d="M861.21,1002.29c.66.08,1.32.16,1.97.25-.66-.08-1.32-.16-1.97-.25Z"/>
  <path class="cls-3" d="M608.44,998.35c.66.05,1.32.11,1.98.16-.66-.05-1.32-.11-1.98-.16Z"/>
  <path class="cls-16" d="M914.08,998.54c.66-.08,1.31-.16,1.97-.24-.66.08-1.31.16-1.97.24Z"/>
  <path class="cls-16" d="M904.1,999.5c.66-.05,1.32-.11,1.98-.16-.66.05-1.32.11-1.98.16Z"/>
  <path class="cls-3" d="M662.38,1000.38c.66.08,1.33.16,1.99.25-.66-.08-1.33-.16-1.99-.25Z"/>
  <path class="cls-16" d="M896.1,1000.52c.66-.07,1.31-.13,1.97-.19-.66.07-1.31.13-1.97.19Z"/>
  <path class="cls-25" d="M1221.73,594.29c.27.41.55.81.8,1.23.02.03-.17.18-.26.28-.36-.39-.73-.78-1.09-1.17.18-.11.37-.22.55-.34Z"/>
  <path class="cls-16" d="M886.11,1001.55c.66-.07,1.32-.15,1.98-.22-.66.07-1.32.15-1.98.22Z"/>
  <polygon class="cls-25" points="954.27 341.54 954.27 341.64 953.88 341.59 954.27 341.54"/>
  <path class="cls-16" d="M834.14,971.41c.36.2.71.41,1.07.61-.36-.2-.71-.41-1.07-.61Z"/>
  <path class="cls-25" d="M918.45,360.98c-.09,0-.17,0-.26-.01.05-.05.1-.1.15-.15,0,0,.11.16.11.16Z"/>
  <path class="cls-25" d="M986.88,332.06l.15.19s-.23-.06-.23-.04c0,.02.09-.15.09-.15Z"/>
  <path class="cls-4" d="M640.37,700.74c-.74,10.27-1.65,20.54-2.12,30.82-.11,2.48.99,5.1,1.9,7.52,2.28,6.05,4.83,12,7.15,18.04,2.87,7.49,7.14,10.36,15.01,10.76,3,.15,6.05,1.27,8.89,2.41,3.68,1.47,7.19,3.37,10.75,5.14.82.41,2.05.93,2.19,1.59.95,4.49,4.44,5.98,8.14,7.2,3.27,1.08,5.64,2.86,8.06,5.57,3.46,3.87,8.06,6.99,12.68,9.5,15.04,8.15,30.79,14.51,46.87,20.54,24.51,9.19,47.93,21.36,71.62,32.66,7.75,3.7,14.89,8.67,22.39,12.93,3.69,2.09,8.22,4.19,11.52.74,3.6-3.77,1.05-8.61-1.71-11.76-6.12-6.96-12.93-13.32-19.44-19.93-6.64-6.75-12.86-13.99-19.98-20.18-9.99-8.68-20.26-17.15-31.1-24.71-14.45-10.07-29.59-19.14-44.38-28.73-7.39-4.79-14.61-9.82-21.99-14.62-2.77-1.8-3.21-3.75-1.72-6.68,3.56-6.99-1.03-11.19-5.59-15.31-4.33-3.91-7.95-4.35-13.31-1.74-4.8-4.01-4.69-9.4-4.8-14.98-.14-6.79-.93-13.58-1.71-20.33-.29-2.54-1.61-5.12,3.68-5.29-8.32-2.84-3.81-8.78-5.63-13.19,1.69-.2,2.82-.33,5.18-.61-5.83-3.33-4.98-7.93-4.56-12.33.92-9.85,1.82-19.7,2.99-29.53.25-2.12,1.63-4.12,3.06-7.52.84,3.07,1.59,4.6,1.62,6.13.21,11.87,4.66,22.75,10.14,32.63,14.27,25.75,30,50.57,54.4,68.47,11.52,8.46,23.18,16.91,33.61,26.62,16.25,15.13,33.5,28.94,51.83,41.28,19.77,13.3,40.92,24.17,63.62,31.84,9.9,3.35,19.61,7.23,29.4,10.87.43.64.74,1.66,1.32,1.85,8.57,2.85,14.11,8.61,16.79,17.19-1.79,3.54-3.59,7.07-5.36,10.61-12.35,24.61-30.27,43.77-54.32,57.48-11.51,6.56-21.59,15.74-33.33,21.78-26.01,13.38-52.57,25.42-81.75,31.08-16.4,3.18-32.16,9.55-48.35,13.96-9.25,2.52-18.7,5.06-28.2,5.73-22.29,1.58-44.52-.71-66.69-3.1-9.58-1.03-19.16-2.89-28.75-2.91-16.86-.05-32.36-5.11-47.9-10.62-6.58-2.33-13.22-4.54-19.93-6.46-9.84-2.82-18.12-8.26-25.75-14.78-14.02-11.98-29.4-21.54-46.52-28.59-18.57-7.66-36.76-16.24-55.17-24.3-2.58-1.13-3.63-2.46-2.95-5.3,1.24-5.15,2.38-10.33,3.35-15.54,2.32-12.4,4.73-24.79,6.7-37.25,3.59-22.67,11.34-44.11,19.52-65.35,5.12-13.29,9-26.75,10.91-40.83,1.57-11.57,6.57-21.88,11.64-32.21,4.91-9.99,9.13-20.31,13.91-30.37,2.42-5.09,5.32-9.97,8.14-14.86,12.21-21.15,24.8-42.08,36.57-63.47,5.66-10.28,9.82-21.39,14.63-32.13,1.56-3.49,2.88-7.09,4.61-10.49,9.71-19.11,19.02-38.45,29.45-57.16,8.59-15.41,19.31-29.34,33.94-39.91,3.93-2.84,6.81-7.12,10.17-10.74.24-.31.47-.63.71-.94,0,0-.1.09-.1.09.35-.36.7-.73,1.05-1.09,0,0-.06.03-.06.03,9.3-4.15,17.19-10.09,24.28-17.47,5.56-5.78,11.41-12.12,18.45-15.41,7.87-3.68,17.14-5.24,25.93-5.87,17.72-1.28,35.34-.41,52.66,4.81,17.46,5.26,34.87,10.32,50.64,19.88,5.73,3.47,11.99,6.06,18.01,9.05,0,0-.06-.05-.06-.05.32.68.64,1.37.96,2.05-1.64,2.87-3.28,5.74-4.9,8.62-1.21,2.15-1.11,5.41-4.96,5.3-.64-.02-1.59,1.6-1.95,2.62-2.83,7.92-7.73,14.12-14.59,19.02-7.7,5.5-15.21,11.27-22.62,17.14-11.06,8.75-13.08,8.84-23.45-.38-7.78-6.91-16.64-10.79-27.2-10.2-8.29.46-16.75.1-24.83,1.64-16.64,3.17-28.56,14.07-39.27,26.4-1.96,2.25-3.48,4.89-5.43,7.16-12.28,14.29-16.05,31.4-16.38,49.6-.19,10.46-.03,20.92-.03,31.65-2.04.44-4.42.96-7.6,1.65,3.17,3.11,8.93-1.05,9.25,4.81.19,3.47-.16,6.97-.3,11.23,3.03,2.04,3.54,4.85,1.12,8.42,11.71,10.03,12.39,22.39,8.79,36.03-3.75-.41-8.07-2.72-10.31,1.96,3.17.27,7.23-.56,8.91,1.08,1.65,1.6.89,5.7,1.12,7.98-3.65,1.74-6.48,3.09-9.31,4.44.23.51.45,1.01.68,1.52,2.3-.71,4.59-1.43,7.97-2.48-1.46,5.13,1.89,10.43-4.93,12.95,1.24.94,2.17,1.63,3.48,2.63-1.11.97-2.15,1.88-3.19,2.78-5.44,3.42-6.72,5.5-5.71,8.44,2.52-2,5.18-4.11,7.84-6.21ZM644.44,490.04c.34-.33.68-.65,1.02-.98,1.01-1.33,2.01-2.67,3.02-4,.12-.2.24-.39.36-.59l-.58.37c-1,1.34-2,2.68-3,4.03-.32.34-.65.68-.97,1.02-.33.33-.66.65-.99.98-.14.18-.28.36-.42.54.19-.13.38-.26.57-.4.33-.33.66-.66.99-.99ZM605.35,493.89c-.34.33-.68.65-1.02.98-1.65,1.28-3.3,2.57-4.95,3.85.5.47.99.95,1.49,1.42,1.22-1.69,2.44-3.39,3.65-5.08.32-.34.65-.68.97-1.03.33-.33.66-.65.99-.98,2.69-3.31,5.37-6.61,8.06-9.92.86-.32,1.73-.64,2.59-.96-.17-.34-.34-.68-.52-1.03-.77.57-1.54,1.15-2.3,1.72-2.66,3.35-5.32,6.69-7.97,10.04-.33.33-.66.66-.99.99ZM623.47,477.06c.93-.67,1.86-1.35,2.8-2.02-.41-.34-.82-.69-1.23-1.03-.58.96-1.16,1.93-1.73,2.89-.33.33-.65.67-.98,1-1.25.57-2.51,1.15-3.76,1.72.65.78,1.3,1.56,1.95,2.34.65-1.31,1.3-2.62,1.95-3.93.34-.32.67-.65,1.01-.97ZM596.29,503.83l-3.98,4c-8.46,9.78-13.76,30.11-8.9,37.29,0-2.97.15-5.09-.03-7.19-.51-5.95.77-11.34,3.73-16.61,2.32-4.13,3.68-8.79,5.46-13.22,1.32-1.36,2.64-2.71,3.95-4.07.24-.39.5-.78.72-1.18.01-.03-.23-.19-.36-.29-.2.43-.39.85-.59,1.28ZM635.53,500.09c1.43-1.59,2.86-3.18,4.29-4.77l-1.61-1.1c-.97,1.88-1.95,3.77-2.92,5.65-.35.65-.7,1.29-1.05,1.94-1.3,1.7-2.6,3.41-3.89,5.11.57.34,1.14.67,1.71,1.01.82-1.96,1.63-3.93,2.45-5.89.34-.65.69-1.3,1.03-1.95ZM729.44,876.44c-.91-1.91-1.82-3.82-2.73-5.73-.53.35-1.06.69-1.59,1.04,1.35,1.64,2.7,3.28,4.05,4.92,3.83,6,7.67,12.01,11.5,18.01.51-.35,1.02-.71,1.54-1.06-1.7-2.59-3.27-5.28-5.13-7.75-2.43-3.23-5.08-6.29-7.64-9.42ZM772.15,950.6c.67.91,1.35,1.81,2.02,2.72.34-.4.68-.8,1.02-1.2-.94-.58-1.87-1.17-2.81-1.75-.3-1.11-.4-2.32-.92-3.32-7.89-15.17-15.81-30.34-23.82-45.45-1.13-2.13-2.74-4-4.13-5.99,4.96,11.74,10.62,22.92,16.32,34.08.83,1.62,1.82,3.16,2.75,4.73,3.18,5.4,6.37,10.79,9.56,16.18ZM612.28,585.64c-.44-.13-.87-.27-1.31-.4-.49.97-1.17,1.89-1.45,2.93-4.65,17.1-9.38,34.17-13.82,51.32-4.55,17.56-7.25,35.41-6.21,53.6,1.11,19.49,2.61,38.95,3.99,58.42.04.58.65,1.13,1,1.69.54-.1,1.07-.2,1.61-.3-1.03-15.97-2.37-31.93-2.99-47.91-.54-13.85-2.13-28.03.07-41.53,3.37-20.66,9.57-40.86,14.63-61.24,1.38-5.56,2.99-11.06,4.49-16.58ZM504.03,850.9c.42-23.35.84-46.44,5.85-69.6,4.97-23,10.99-45.24,21.85-66.1-17.47,14.45-35.17,105.99-27.7,135.7ZM574.9,853.95c-.39.12-.78.23-1.17.35,0,.61-.13,1.25.02,1.82,3.16,12.16,6.43,24.3,9.51,36.48,3.71,14.63,6.69,29.34,6.25,44.62-.24,8.26.35,16.57,1.07,24.82.25,2.8,2.06,5.47,3.14,8.13-.79-8.93-1.77-17.53-2.24-26.15-.38-6.97.83-14.14-.36-20.92-3.13-17.91-7.01-35.69-10.94-53.44-1.19-5.36-3.49-10.48-5.29-15.7ZM693.46,439.52c22.6.38,44.39.68,63.47,14.91-6.4-4.89-12.08-10.83-20.22-12.32-10.54-1.93-21.14-3.68-31.78-4.78-3.71-.38-7.63,1.4-11.46,2.19ZM650.96,482.5c11.95-8.48,25.56-9.22,39.42-8.82-14.13-1.34-28.18-2.29-39.42,8.82ZM715.2,856.05c-.48.44-.96.89-1.44,1.33,3.59,3.93,7.18,7.87,10.78,11.8.41-.39.82-.77,1.24-1.16-3.52-3.99-7.05-7.98-10.57-11.97ZM656.27,455.27c-2.56-2.21-10.95,1.17-13.22,6.18,4.47-2.09,9.01-4.21,13.22-6.18ZM634.23,466.53c.4.49.81.97,1.21,1.46,1.97-1.59,3.95-3.17,5.92-4.76-.31-.4-.63-.8-.94-1.2-2.06,1.5-4.13,3-6.19,4.5ZM631.76,471.55c-.39-.46-.79-.91-1.18-1.37-.64.36-1.43.6-1.88,1.12-.48.57-.64,1.41-.95,2.13l1.3,1.03c.9-.97,1.81-1.94,2.71-2.92ZM600.56,973.56c.08-.46.16-.92.25-1.37l-4.57-.79c-.08.46-.16.91-.24,1.37,1.52.26,3.04.53,4.57.79Z"/>
  <path class="cls-26" d="M1004.35,520.13c7.2,14.44,9.97,30.04,6.48,45.46-1.88,8.29-7.7,16.68-14,22.66-5.01,4.77-13.46,5.87-20.33,8.74-19.08,7.95-39.23,7.78-59.38,8.55-8.35.32-14.4-2.42-19.82-8.07-4.71-4.9-9.49-9.74-14.94-15.33,1.34,8.97,6.54,14.91,11.3,20.91,5.68,7.16,13.14,9.29,22.41,8.21,12.69-1.48,25.64-.79,38.27-2.57,9.6-1.35,18.9-5,28.28-7.82,4.59-1.38,9.04-3.22,13.58-4.86,3.47,9.16,6.82,17.95,10.11,26.77.52,1.39.97,2.88,1.06,4.35.76,13.04,3.23,26.11-.33,39.1-1.04,3.79-2.91,6.76-7.69,5.68-2.43-.55-5.08-.59-7.26-1.63-13.92-6.64-26.47-1.91-39.07,4.08-14.28,6.79-26.09,17.01-38.48,26.52-10.38,7.98-21.43,15.11-32.42,22.25-2.68,1.74-6.29,2.02-9.45,3.04-6.32,2.04-12.78,3.75-18.9,6.28-10.57,4.36-21.4,6.96-32.86,7.48-4.38.2-8.65,2.2-13.03,3.1-1.78.37-4.31.74-5.5-.19-12.84-10.03-26.04-19.71-38.01-30.72-9.49-8.73-17.5-19.1-25.96-28.92-1.79-2.08-2.58-5-4-7.42-3.18-5.43-6.64-10.7-9.66-16.22-2.92-5.33-5.44-10.89-8.44-16.96,10.85,1.5,20.64,2.78,30.41,4.22,14.58,2.15,28.48.51,42.69-4.06,21.79-7,44.2-12.08,66.33-18.03,4.65-1.25,9.37-2.41,13.84-4.15,6.13-2.38,9.76-6.89,9.37-13.8-.34-6.01-.95-12-1.43-18.01-.67.02-1.35.04-2.02.06,0,1.39-.04,2.79,0,4.18.09,2.47.56,4.98.3,7.41-1.13,10.72-3.97,14.26-14.44,16.95-15.92,4.09-31.99,7.62-47.9,11.78-9.15,2.39-18.3,5.05-27.1,8.47-10.7,4.16-21.61,5.55-32.82,4.19-11.54-1.4-23.01-3.4-34.47-5.34-1.54-.26-2.89-1.67-4.34-2.55,1.07-1.12,1.97-2.52,3.24-3.3,7.12-4.34,12.42-10.2,16.86-17.3,9.06-14.51,18.11-29.11,28.3-42.83,16.06-21.64,20.63-46.07,19.72-72.11-.11-3.22.88-4.77,3.35-6.38,8.05-5.26,16.61-10.01,21.58-19.1,7.57,19.41,25.21,22.79,41.93,25.34,17.49,2.67,30.06-10.09,30.56-28.02.1-3.61.01-7.23.01-10.49,23.33-5.84,46.33-11.61,69.34-17.35.79-.2,1.63-.23,2.45-.34.43.85.67,2.23,1.33,2.48,9.56,3.57,14.6,12.25,21.4,18.9,1.9,1.85,2.97,4.59,4.26,7.01,2.95,5.53,5.76,11.13,8.7,16.67,1.7,3.2,3.66,6.26,5.26,9.5,3.85,7.81,7.56,15.7,11.33,23.55ZM909.84,651.06c.02-3.99-9.83-16.25-13.71-16.68-1.15-.13-2.45,1-3.68,1.56.65,1,1.18,2.11,1.97,2.98,3.09,3.39,6.42,6.58,9.28,10.16.63.78.19,3.34-.65,4.2-2.4,2.45-5.33,4.38-7.92,6.67-.75.67-1.56,2-1.37,2.79.18.75,1.63,1.66,2.54,1.69,3.93.12,13.51-9.5,13.53-13.36ZM839.33,514.84c9.29,17.81,18.58,35.61,27.87,53.42.54-.28,1.09-.57,1.63-.85-6.75-19.13-17.6-36.13-29.5-52.57ZM927.14,638.14c-1.12.78-2.3,1.39-3.2,2.28-6.09,6.02-5.26,15.14,1.95,19.59,1.49.92,3.72.62,5.6.89-.94-1.66-1.52-3.77-2.9-4.89-4.04-3.27-4.8-7.06-1.68-11.31.68-.92,1.78-1.58,2.3-2.56.39-.73.44-1.9.13-2.66-.23-.57-1.28-.82-2.21-1.35ZM921.49,680.69c-.7-1.42-.97-2-1.27-2.57-1.34-2.53-2.72-5.05-4.04-7.59-.92-1.76-1.52-3.8-2.79-5.24-.75-.86-2.54-.81-3.86-1.16-.15,1.28-.69,2.67-.36,3.81.76,2.67,1.67,5.38,3.03,7.78,1.26,2.2,3,4.26,4.96,5.87.66.54,2.61-.5,4.33-.89ZM996.43,580.29c-1.08-1.54-2.43-3.46-3.77-5.38-1.59,1.45-3.62,2.64-4.66,4.41-.93,1.59-1.31,3.92-.95,5.72.29,1.41,1.95,3.28,3.26,3.53,1.25.24,3.29-1.04,4.18-2.24,1.02-1.37,1.15-3.4,1.93-6.05ZM772.59,613.21c-2.03-1.39-3.24-2.85-4.15-2.69-1.28.23-2.34,1.67-3.49,2.59.94.9,1.87,2.51,2.83,2.53,1.26.03,2.54-1.2,4.81-2.43Z"/>
  <path class="cls-20" d="M1014.42,779.25c.37-2.29.63-3.86.87-5.44-.26.14-.71.26-.73.43-.51,4.73-3.51,6.11-7.81,7.55-9.83,3.3-19.28,7.7-28.56,11.52,1.21-5.28,2.89-11.48,4.02-17.78,1.73-9.59,3.54-19.2,4.36-28.88.34-4.03-1.88-8.24-2.71-12.42-.62-3.13-1.7-6.5-1.13-9.49,2.98-15.54,10.62-28.92,20.24-41.26,4.4-5.64,8.77-11.31,13.36-16.79,1.54-1.84,3.74-3.97,4.88-1.05,1.24-1.2,2.45-3.29,4.17-3.87,12.34-4.14,24.81-7.88,37.16-11.96,5.12-1.69,10.06-3.94,15.63-6.14.34,1.6.62,2.93.93,4.37.17-.21.55-.46.63-.78,1.07-4.6,4.27-6.55,8.57-7.96,19.76-6.48,39.49-13.05,59.1-19.96,15.3-5.39,31.56-3.85,47.13-7.17,1.35-.29,2.97.73,3.92.99.89-.75,1.6-1.85,2.43-1.96,14.22-1.83,28.45-2.91,43.47-.63-.09.05,1.12-1.16,2.14-1.02,12,1.64,24.01,3.27,35.89,5.54,1.69.32,3.79,3.97,3.87,6.15.25,6.1-.8,12.25-.7,18.38.16,10.46-8.73,12.14-15.13,16.13-4.77,2.97-11.3,4.24-14.54,8.28-4.65,5.81-10.03,4.25-15.37,4.44-12.63.46-25.3,1.06-37.91.52-5.12-.22-10.1.78-15.2.33-5.55-.48-11.36-.99-16.73.1-9.37,1.91-18.69,4.52-27.63,7.9-3.55,1.34-6.37,5.25-8.94,8.46-9.84,12.3-19.98,24.38-33.01,33.4-15.28,10.58-31.04,20.46-46.89,30.84-.28-.47-.78-1.32-1.43-2.41-.17.66-.24,1.09-.39,1.5-.53,1.46-.72,3.24-1.69,4.31-5.88,6.51-11.56,13.31-18.12,19.08-3.14,2.76-8.06,3.5-12.22,5.06-1.66.62-3.43.98-5.98,1.7ZM1164.38,666.76l-.08-.02v.33s.08-.31.08-.31Z"/>
  <path class="cls-4" d="M741.08,175.24l1.71.76c-.21-1.47-.43-2.94-.64-4.41,8.62-15.65,16.9-31.52,29.43-44.57,1.12-.7,5.1,2.61,3.21-2.3,4.46-4.43,8.89-8.88,13.39-13.27,8.53-8.33,16.94-16.79,25.73-24.85,3.88-3.55,8.75-5.99,12.81-9.37,12.85-10.69,25.28-21.57,41.9-26.78,14.34-4.49,28.63-6.93,43.57-5.99,5.63.35,11.27.45,16.89.9,9.07.73,18.12,1.66,27.18,2.5-6.31,16.72-13.81,33.12-18.56,50.28-3.58,12.96-3.62,26.89-5.33,40.38-.3,2.38-1.18,4.69-1.53,7.06-.2,1.34.07,2.76.23,4.14.37,3.11.81,6.21,1.29,9.77-13.43-2.31-25.7-4.33-37.92-6.57-7.32-1.34-14.29-1.22-21.45,1.46-5.06,1.89-10.65,2.52-16.06,3.29-20.31,2.87-38.36,11.61-55.84,21.62-9.17,5.25-18.12,11.01-26.57,17.33-4.01,3-8.96,7.11-4.55,13.6.16.23.09.66.05.98-2.02,14.17-.4,28.77-5.23,42.63-1.12,3.21-3.23,4.77-5.71,6.86-6.51,5.5-12.49,11.74-18.02,18.25-4.22,4.97-7.42,10.8-11.61,17.02-3.99-4.18-8.11-8.51-12.22-12.83.97-2.43,2.35-4.78,2.84-7.3,2.08-10.73,3.8-21.53,5.86-32.27,1.65-8.61,3.53-17.19,5.44-25.75,3.17-14.21,6.45-28.39,9.68-42.59Z"/>
  <path class="cls-27" d="M970.04,202.78c-.29.16-.58.32-.86.48-5.32-1.73-8.5.02-10.21,5.2-4.06,12.31-.16,24.69-.34,37.03-.13,9.28,1.62,18.62,2.92,27.88.21,1.47,2.43,2.66,3.72,3.98-.89,1.36-1.77,2.71-2.36,3.61-7.28-2.98-14.16-5.66-20.88-8.68-1.37-.62-2.81-2.4-3.11-3.88-1.47-7.26-2.29-14.66-3.93-21.87-.53-2.35-2.62-4.5-4.38-6.38-5.42-5.78-10.88-9.08-20-6.44-12.27,3.55-25.18,3.05-37.95.44-12.49-2.56-25.22-3.97-37.75-6.39-9.21-1.78-18.25-4.46-27.4-6.58-3.75-.87-7.18-.5-9.56,3.32-6.16,9.87-12.86,19.59-9.51,32.19,2.64,9.91,8.8,17.72,15.67,25.01,2.94,3.12,6.16,5.96,9.25,8.93,1.31.82,2.61,1.65,3.92,2.47,0,0,.02-.11.02-.11,3.24,2.07,6.47,4.14,9.71,6.2,13.08,6.9,25.53,15.21,40.24,18,.34,3.21.47,6.16.99,9.04,1.68,9.39,2.18,18.96,7.52,27.56,4.52,7.27,7.69,15.37,11.45,23.11-12.87-5.19-26.16-9.56-38.53-15.75-18.7-9.35-36.57-20.24-52.47-34.06-2.93-2.55-4.55-4.68-4.69-9.28-.41-13.75-2.02-27.49-3.63-41.18-.7-5.95-4.92-9.63-10.49-11.56-2.63-.91-5.38-1.5-7.96-2.2,1.6-7.12,3.59-14.11,4.66-21.25.92-6.15.77-12.46,1.1-18.7.67-12.47,1.9-24.62,15.44-30.67,2.87-1.28,5.43-3.24,8.25-4.64,9.35-4.63,18.81-9.06,28.14-13.75,10.35-5.2,21.25-8.33,32.7-10.06,6-.91,11.72-4.08,17.7-4.53,7.49-.55,15.22.01,22.66,1.23,11.28,1.85,22.43,4.57,33.58,7.14,3.43.79,4.19-1.05,4.45-3.57.43-4.09.65-8.19.98-12.59,5.58.7,10.78,1.36,15.98,2.01.52.26,1.04.52,1.56.79,0,0-.1-.16-.1-.16,12.92,8.72,25.84,17.45,39.13,26.43-8.77,7.6-17.2,14.91-25.63,22.22Z"/>
  <path class="cls-22" d="M650.07,678.49c.02-1.99-.36-4.09.17-5.94.58-2.07,1.98-3.92,3.28-6.33-4.81-2.52.35-7.61-.63-12.35,1.9,1.33,3.79,2.65,5.69,3.98l.92-.81c-.97-1.17-1.74-2.67-2.97-3.44-2.87-1.8-4.47-3.82-4.51-7.55-.03-2.67-1.74-5.3-2.63-7.97-1.89-5.67-3.74-11.36-5.62-17.03-7.68-23.21-4.84-46.78-2.31-70.33.26-2.43,1.05-4.93,2.13-7.14,9.46-19.52,23.11-35.76,42.36-45.57,8.24-4.2,19.03-3.56,28.71-4.71,13.2-1.57,23.24,5.05,32.67,13.16,2.22,1.9,4.92,3.31,7.55,4.64,4.07,2.04,6.87,12.36,3.94,17.44-6.31,10.91-12.37,22.08-19.84,32.18-6.56,8.87-14.94,16.38-22.44,24.57-2.24,2.44-4.73,4.85-6.21,7.74-5.36,10.5-10.33,21.2-15.45,31.81-2.7,5.59-5.42,11.17-7.38,17.61.94-1.8,1.87-3.6,3.18-6.12,2.68,7.16,1.91,13.42-.08,14.99v21.84c-.3-.05-1.39-.24-3.09-.53,4.65,7.34,7.66,14.35,3.58,23.02,4.11,3.04,3.64,8.49,4.19,13.74.59,5.55,1.85,11.03,2.69,16.56.29,1.92.78,4.09.2,5.81-2.89,8.53-3.1,17.27-2.98,26.12.13,8.81-8.19,13.72-15.84,9.47-5.94-3.3-11.58-6.79-18.99-6.4-2.18.11-5.47-3.1-6.69-5.56-3.3-6.67-6.24-13.61-8.38-20.73-1.2-3.98-.7-8.53-.65-12.82.03-2.81.64-5.61,1.02-8.67h3.38c0-1.82,0-3.6,0-5.39,1.18-1.65,2.14-4.42,3.6-4.71,2.61-.53,5.52.43,8.09.74-.97-3.72-3.69-5.19-10.38-5.02-4.07-.3-2.46-2.92-1.9-4.93.28-1.02,1.8-2.08,1.6-2.79-1.48-5.2.72-9.02,5.2-12.16-.42-.3-.85-.6-1.27-.9l-3.13,1.35-.8-.86Z"/>
  <path class="cls-12" d="M997.98,679.04c-2.01,3.01-3.69,5.88-5.72,8.48-8.68,11.14-13.29,24.07-16.27,37.62-.61,2.75-.77,6.38.53,8.64,5.28,9.18,4.11,18.48,1.93,28.04-1.91,8.39-3.27,16.91-5.52,25.2-1.32,4.84-3.74,9.42-5.97,13.96-3.25,6.6-6.51,13.22-10.31,19.51-1.74,2.88-4.54,5.28-7.29,7.33-1.11.83-3.51.61-5.05.07-8.62-3.02-17.43-5.73-25.62-9.69-3.89-1.88-6.69-6.19-9.75-9.6-5.54-6.18-10.5-12.93-16.45-18.67-6.5-6.28-15.46-7.35-23.95-8.88-5.54-1-11.15-1.94-16.76-2.1-5.08-.14-8.77-2.34-12.45-5.39-9.09-7.52-18.33-14.85-27.5-22.27-.6-.48-1.12-1.05-2.75-2.58,7.24-1.1,13.32-2.49,19.46-2.86,11.37-.69,21.58-5.08,31.96-9.05.93-.36,1.81-.92,2.77-1.1,26.58-5.16,46.52-21.86,66.37-38.51,12.43-10.42,26.35-17.94,41.6-22.96,3.42-1.13,7.66-.72,11.31.03,5.13,1.05,10.06,3.07,15.42,4.79Z"/>
  <path class="cls-26" d="M684.37,399.78c-1.66.15-3.31.29-6.01.53,1.14-1.99,1.46-3.18,2.24-3.79,4.93-3.83,10.22-7.24,14.88-11.35,3.7-3.26,7.21-7,9.87-11.13,11.3-17.52,21.98-35.41,28.1-55.55,1.15-3.79,2.31-7.71,2.59-11.63.7-10.07,4.87-18.43,11.45-25.82,4.47-5.01,8.88-10.08,14.4-16.36.59,6.68,4.05,6.36,7.59,6.39,7.31.04,11.67,3.47,12.78,10.66,2.03,13.26,4.19,26.52,2.34,40.06-.26,1.93,1.22,4.75,2.78,6.18,14.13,12.94,29.92,23.61,46.68,32.82,10.15,5.57,20.52,10.74,30.72,16.06-5.65,9.13-11.91,18.29-17.16,27.99-5.25,9.71-9.94,19.78-13.94,30.06-1.81,4.66-5.56,3.29-8.38,4.55-.75.33-3.35-1.73-3.96-3.18-2.86-6.77-9.64-8.79-14.75-12.8,2.86-2.57.31-4.44-1.26-5.54-11.02-7.76-22.81-14.17-35.86-17.73-9.38-2.56-18.96-4.42-28.51-6.3-4.82-.95-9.79-1.82-14.67-1.7-9.74.25-19.52.75-29.16,2.07-4.46.61-10.29-.34-12.78,5.5Z"/>
  <path class="cls-19" d="M888.12,313.19c0,.99,0,1.98,0,3.23-2.95.79-4.58.45-5.47-3.24-.5-2.05-3.03-4.4-5.16-5.14-15.35-5.33-30.94-9.97-46.24-15.45-13.09-4.69-22.81-13.94-30.44-25.36-2.19-3.27-4.14-6.85-5.44-10.55-3.76-10.74,2.19-19.15,7.43-27.56.51-.82,2.59-1.21,3.79-.99,21.83,3.98,43.69,7.81,65.43,12.27,14.95,3.06,29.61,2.52,44.34-.92,4.17-.98,11.04,5.32,11.78,9.69,1.38,8.17,2.81,16.38,5.17,24.29.71,2.38,4.37,4.25,7.06,5.59,5.41,2.69,11.2,4.61,16.61,7.29,5.27,2.6,9.11,2.05,12.23-2.95,1.62-2.59,3.61-3.22,6.5-3.27,6.05-.11,8.38-2.64,4.44-8.87-2.95-4.65-4.87-10.23-6.05-15.66-3.08-14.14-5.28-28.46-2.15-42.92.35-1.6,1.89-3.94,3.19-4.17,13.38-2.41,24.38-9.05,34.39-18.47,3,4.65,6.32,9.13,8.79,14.04.72,1.44-.53,4.42-1.69,6.15-2.43,3.65-5.4,6.93-8.15,10.37-.51-.43-1.03-.86-1.54-1.29,1.06,4.61,2.12,9.22,3.18,13.83-1.63,5.3,5.48,13.7,11.62,14.11,6.74.46,13.45,1.28,20.18,1.95-4.59,6.04-8.96,12.27-13.89,18.02-1.97,2.3-5.12,3.61-7.82,5.23-2.82,1.7-4.55,3.67-3.62,7.33.29,1.15-.18,3.31-1.03,3.82-7.73,4.66-15.51,9.26-23.5,13.44-3.99,2.09-8.41,3.43-12.73,4.78-1.26.39-2.88-.39-4.33-.63.67-1.13,1.33-2.25,2.2-3.72-4.94-.28-5.05,2.67-5.27,5.53-2.88-.67-5.9-.99-8.61-2.09-8.45-3.43-16.91-2.89-25.32-.33-2.28.7-4.51.23-7.03,1.44-5.21,2.51-10.25,4.81-14.27,9.15-.99,1.07-3.06,1.13-4.63,1.65-1.08-2.49-6.75-3.27-8.49-1.15-.02.03.18.25.28.37.86,4.13-.43,5.2-4.91,5.18-4.43-.02-8.41.73-10.87-3.93-.11-.54-.23-1.08-.11-.51-.21-.53-.02-.05.18.44ZM811.2,255.21h0c1.14,1.3,2.28,2.6,3.42,3.91.39-.05.61.12.66.51.24,1.27.03,3.03.79,3.72,9.32,8.39,18.34,17.23,28.37,24.71,7.63,5.69,17.39,6.86,26.79,8.08,5.59.72,14.65-3.82,15.33-10.57.28-2.76.99-5.59,2.08-8.14,1.96-4.59.78-8.87-.49-13.24-.03-4.71,1.42-9.75-3.07-13.44-1.28-.47-2.55-.97-3.84-1.4-2.18-.72-4.39-1.39-6.91-2.19-.13.15-.9,1.81-1.73,1.84-4.61.15-9.23-.2-13.85-.17-2.57.01-5.14.41-7.71.64-4.17.21-8.61,1.45-12.45.42-8.37-2.24-16.6-.34-24.87-.49-1.09-.02-2.2,1.2-3.3,1.85-1.87,1.75-1.96,3.14.79,3.97ZM970.14,296.87c-.38-.01-.76-.02-1.15-.03-.17,1.25-.33,2.49-.5,3.74.36.05.73.11,1.09.16.18-1.29.37-2.58.55-3.87Z"/>
  <path class="cls-4" d="M969.19,431.78c-18.59,4.11-37.22,8.09-55.77,12.38-11.11,2.56-22.08,5.72-33.19,8.29-1.72.4-4.62-.25-5.64-1.51-7.91-9.76-18.29-13.82-30.49-14.18,2.67-7.27,5.34-14.54,8-21.82,0,0-.05.06-.05.06,3.55-2.5,7.71-4.57,7.06-10.02,0,0-.03.07-.03.07.35-.69.7-1.37,1.05-2.06,0,0-.05.06-.05.06,4.73-2.59,8.53-7.51,15.17-4.87,6.14,2.44,12.62,4,18.83,6.28,7.32,2.69,14.44,5.89,21.75,8.59,17.69,6.51,36.53,9.75,53.35,18.73Z"/>
  <path class="cls-9" d="M851.02,856.77c-5.29-3.01-10.42-6.38-15.91-8.97-21.29-10.06-42.57-20.17-64.11-29.67-13.01-5.73-26.68-9.96-39.7-15.66-7.85-3.43-15.27-8.02-22.44-12.77-7.38-4.89-7.91-12.86-1.77-19.49,4.03-4.35,8.39-8.39,12.6-12.57,8.73,4.35,17.51,8.6,26.16,13.1,5.43,2.82,11,5.56,15.92,9.15,17.37,12.68,34.53,25.67,51.67,38.65,4.61,3.49,9.22,7.1,13.29,11.18,8.16,8.19,15.96,16.74,23.87,25.18.37.4.29,1.23.41,1.86ZM722.04,784.39c1.74-1.11,2.87-1.77,3.95-2.52,5.53-3.87,6.67-8.66,3.27-13.63-3.21-4.68-9.62-5.83-14.5-2.11-1.29.99-1.42,3.5-2.09,5.31,1.52-.17,3.22.02,4.54-.6,2.87-1.34,5.89-2.73,7.76.77,1.88,3.51-.81,5.69-3.74,6.83-2.43.94-5.22.93-7.7,1.77-1.21.41-2.5,1.66-2.93,2.83-.22.61,1.14,2.24,2.13,2.79,3.18,1.77,6.45,3.44,9.85,4.73,1.24.47,2.92-.24,4.4-.41-.71-1.41-1.29-2.9-2.17-4.2-.4-.59-1.36-.8-2.77-1.58ZM771.24,808.08c1.05-1.13,2.11-2.15,3.03-3.29,3.09-3.8,2.74-10.88-1.36-13.38-1.88-1.15-5.14-.38-7.67.1-.73.14-1.06,2.32-1.57,3.57,1.95.25,3.9.5,6,.77,2.28,2.73,1.67,5.17-1.21,6.98-1.48.93-3.39,1.16-4.99,1.93-1.1.52-2.89,1.55-2.81,2.15.16,1.21,1.15,2.62,2.22,3.32,2.2,1.44,4.56,2.94,7.06,3.52,2.09.48,4.47-.31,6.72-.54-1.39-1.33-2.78-2.66-4.17-3.98-.35-.33-.72-.66-1.24-1.14ZM756.18,795.78c-.63,2.41-1.43,4.42-1.6,6.48-.14,1.68.49,3.42.77,5.14,1.34-1.17,3.49-2.13,3.87-3.56,1.13-4.27,1.98-8.71,2.09-13.1.06-2.24-1.38-6.21-2.71-6.46-2.91-.56-6.61.03-9.15,1.55-1.7,1.02-2.91,4.6-2.54,6.72.23,1.32,3.76,2.16,5.89,3.03.83.34,1.87.14,3.37.21ZM736.15,782.83c-.49,5.22-.57,5.1-5.48,8.41-.67.45-.63,3.67,0,4.05,2.82,1.66,5.93,2.86,9.03,3.96.9.32,2.55.1,3.05-.52.5-.62.38-2.67-.16-3.03-3.72-2.43-1.98-5.51-1.22-8.42.58-2.23,2.12-4.38,2.09-6.56-.02-2.29-1.4-4.57-2.18-6.85-2.26,1.02-5.03,1.57-6.57,3.25-.73.8.88,3.74,1.43,5.71Z"/>
  <path class="cls-23" d="M841.15,969.88c12.91-6.5,25.84-12.96,38.72-19.53,3.99-2.03,7.75-4.53,11.79-6.44,1.34-.64,3.74-.8,4.79-.02,6.22,4.65,12.18,9.64,18.05,14.37-4.1,6.95-8.06,13.78-12.13,20.54-2.68,4.44-6.57,6.83-11.91,6.8-11.46-.06-22.92.14-34.37-.16-2.07-.05-4.48-1.6-6.04-3.16-2.66-2.65-4.76-5.85-7.1-8.82-.6-1.19-1.2-2.39-1.8-3.58Z"/>
  <path class="cls-17" d="M763.77,509.42c3.84-2.69,7.74-5.43,12.59-8.82,0,3.39.02,5.93,0,8.48-.19,18.66-4.25,36.28-14.6,52.05-9.47,14.42-19.22,28.66-28.82,43.01-2.58,3.86-4.64,8.15-7.67,11.61-3.39,3.88-7.61,7.04-12.25,11.22-1.1-5.44-2.26-9.27-2.58-13.16-.81-9.67,3.38-18.1,10.37-23.67,16.25-12.96,26.95-30.08,38.21-46.9.28-.41.39-.94.69-1.32,3.57-4.5,8.18-8.65,7.38-15.09-.71-5.71-2.14-11.34-3.33-17.39Z"/>
  <path class="cls-17" d="M1015.88,551.11c-.43-3.54-.45-7.2-1.38-10.61-2.94-10.86-5.57-21.87-9.5-32.38-5.39-14.41-11.8-28.44-17.9-42.58-4.82-11.18-12.93-19.46-23.34-25.61.01-.51.02-1.02.03-1.53,4.66-.05,9.35.14,13.99-.19,14.67-1.03,19.92,9.84,24.12,20.33,7.64,19.09,13.75,38.84,15.53,59.46.95,10.93.17,22.02.17,33.03-.57.03-1.15.06-1.72.08Z"/>
  <path class="cls-13" d="M956.28,47.87c-9.06-.84-18.11-1.77-27.18-2.5-5.62-.45-11.26-.55-16.89-.9-14.94-.94-29.22,1.5-43.57,5.99-16.62,5.2-29.06,16.09-41.9,26.78-4.06,3.38-8.94,5.82-12.81,9.37-8.79,8.05-17.2,16.52-25.73,24.85-4.5,4.39-8.93,8.85-13.39,13.27-2.39-.3-4.79-.6-7.18-.89-.21-.5-.42-1-.63-1.5,5.61-5.23,11.14-10.55,16.84-15.68,10.85-9.76,21.58-19.68,32.75-29.05,11.81-9.91,23.85-19.58,36.3-28.66,3.78-2.76,9.17-3.63,13.98-4.59,23.78-4.77,47.78-5.09,71.87-2.95,6.56.58,13.15.92,20.88,1.45-1.59,2.39-2.47,3.7-3.34,5.01Z"/>
  <path class="cls-15" d="M835.6,488c-5.78-3.06-11.93-5.58-17.22-9.32-5.4-3.82-4.26-9.92-3.16-15.59,1.68-8.7,9.56-17.16,17.08-18.29.3.59.61,1.18.91,1.77-1.84,10.93-.73,21.57,3.35,31.86.25.63,2.1,1.27,2.81.96,10.81-4.64,20.32-10.94,26.41-21.42,6.48,9.49,4.05,19.28-5.25,25.48-7.88,5.25-16.34,4.54-24.91,4.54Z"/>
  <path class="cls-1" d="M932.88,989.38c-4.38.33-8.75.67-13.25,1.01-2.66-9.53,6.6-24.87,15.42-30.23,1.3-.79,3.23-1.06,4.77-.85,9.35,1.25,18.69,2.65,28.01,4.12,4,.63,3.73,3.81,3.27,6.61-.53,3.26-2.97,2.83-5.44,2.39-2.11-.38-4.29-.5-6.43-.4-.74.04-1.43,1.1-2.14,1.7.7.77,1.3,2.04,2.13,2.21,2.48.52,5.06.62,7.59.88.12.57.24,1.14.36,1.7-4.66,1.81-9.26,3.82-14.02,5.31-1.26.4-3.04-.73-4.55-1.25-1.79-.61-3.55-1.32-5.33-1.99.45,1.75.9,3.5,1.48,5.78-2.92.77-6.35,1.67-9.77,2.57-.7.15-1.41.29-2.12.44Z"/>
  <path class="cls-6" d="M817.29,442.97c-6.02-2.99-12.29-5.58-18.01-9.05-15.77-9.56-33.18-14.62-50.64-19.88-17.32-5.22-34.95-6.09-52.66-4.81-8.79.63-18.06,2.19-25.93,5.87-7.03,3.29-12.89,9.63-18.45,15.41-7.09,7.37-14.98,13.32-24.28,17.47,3.98-4.3,7.59-9.02,12-12.82,9.54-8.22,19.44-16.03,29.32-23.84,1.88-1.49,4.3-2.83,6.62-3.14,10.15-1.37,20.35-3.15,30.55-3.25,12.54-.13,25.19.59,37.62,2.24,8.43,1.12,16.8,3.87,24.77,6.97,12.32,4.79,24.45,10.17,36.32,16,5.45,2.68,10.87,6.24,12.78,12.84Z"/>
  <path class="cls-7" d="M851.02,856.77c-.13-.63-.04-1.46-.41-1.86-7.9-8.44-15.71-16.99-23.87-25.18-4.07-4.09-8.68-7.69-13.29-11.18-17.15-12.99-34.3-25.97-51.67-38.65-4.91-3.59-10.49-6.33-15.92-9.15-8.65-4.5-17.43-8.74-26.16-13.1.42-2.59.84-5.17,1.31-8.08,11.61,7.64,22.76,15.03,33.96,22.33,15.44,10.06,31.41,19.4,46.24,30.3,10.62,7.8,19.84,17.54,29.48,26.62,8.21,7.74,16.19,15.72,24.13,23.72,2.24,2.26,4,4.98,5.98,7.49-.45.55-.9,1.1-1.36,1.65-2.81-1.64-5.62-3.27-8.43-4.91Z"/>
  <path class="cls-15" d="M1020.99,337.66c-2.01.8-4.03,1.6-6.04,2.4l.1.08c2-5.22,4.96-10.29,5.79-15.69,1.69-11.04,2.36-22.24,3.16-33.4.26-3.59-.51-7.25-.58-10.88-.02-.95.58-2.42,1.32-2.79,8.17-4.03,13.89-10.44,18.19-18.28-.56,5.91-.76,11.88-1.76,17.71-1.26,7.32-3.37,14.48-4.76,21.78-1.57,8.24-4.12,15.88-8.85,23.03-3.12,4.72-4.44,10.64-6.57,16.03Z"/>
  <path class="cls-2" d="M1303.79,614.54c7.62-.59,15.25-1.18,22.88-1.77l.62,1.99c-3.42,2.13-6.91,4.14-10.21,6.44-1.23.86-2,2.39-2.97,3.62,1.64.28,3.57,1.24,4.87.7,3.8-1.6,7.29-3.91,11.01-5.7,1.46-.71,3.22-.79,4.85-1.16.3,2.06,1.03,4.18.75,6.15-.17,1.19-1.77,2.83-2.98,3.09-3.06.66-6.3.41-9.38,1.01-1.33.26-2.43,1.71-3.63,2.61,1.25.73,2.47,2.04,3.75,2.09,3.29.13,6.61-.29,11.19-.57-1.84,1.95-2.87,3.53-4.31,4.47-6.52,4.21-13.7,6.55-21.46,7.08-4.32.29-7.07-1.29-7.44-5.93-.14-1.82-.63-3.68-.39-5.45.79-6.05,1.83-12.07,2.86-18.67Z"/>
  <path class="cls-24" d="M684.37,399.78c2.48-5.85,8.31-4.89,12.78-5.5,9.64-1.32,19.42-1.82,29.16-2.07,4.88-.12,9.84.75,14.67,1.7,9.55,1.88,19.13,3.74,28.51,6.3,13.05,3.56,24.84,9.97,35.86,17.73,1.56,1.1,4.12,2.97,1.26,5.54-16.49-6.7-32.8-13.94-49.56-19.89-8.14-2.89-17.07-3.98-25.75-4.76-10.33-.93-20.76-.88-31.15-.78-5.26.05-10.52,1.13-15.77,1.74Z"/>
  <path class="cls-28" d="M887.22,376.9c-3.77-7.73-6.94-15.84-11.45-23.11-5.34-8.6-5.84-18.17-7.52-27.56-.51-2.88-.65-5.84-.99-9.04-14.71-2.79-27.16-11.1-40.24-18,.51-.08,1.01-.15,1.51-.23,4.01,1.49,7.98,3.14,12.05,4.44,10.23,3.26,20.47,6.48,30.78,9.46,3.55,1.02,5.28,2.99,5.67,6.55.78,7.08,1.69,14.14,2.51,21.21,1.61,13.93,7.18,26.33,15.07,38.79-2.88-.97-5.14-1.73-7.39-2.5Z"/>
  <path class="cls-6" d="M741.08,175.24c-3.23,14.19-6.51,28.38-9.68,42.59-1.91,8.56-3.79,17.14-5.44,25.75-2.06,10.74-3.77,21.54-5.86,32.27-.49,2.52-1.87,4.87-2.84,7.3-7.14-2.65-2.36-8.02-2.94-12.53,1.1.18,2,.32,3.85.61-4.48-4.34-4.08-8.51-2.02-12.86.32-.68.82-1.58.62-2.17-1.59-4.64.58-7.81,3.9-10.6.26-.42.51-.83.77-1.25.61-1.03,1.21-2.05,1.82-3.08-.31-.15-.62-.31-.94-.46-.5.97-1,1.94-1.49,2.91-.26.41-.53.82-.8,1.24-.5-.16-1.46-.4-1.45-.45,1.45-7.03,2.94-14.06,4.58-21.05.12-.53,1.38-.79,2.1-1.18.26.41.52.82.77,1.24.26.57.52,1.14.78,1.71.24-.13.48-.26.73-.4-.36-.58-.72-1.17-1.08-1.75-.29-.4-.59-.79-.88-1.19-2.31-4.49.24-10.43,5.55-12.3-1.33-.37-2.39-.66-3.31-.92,1.52-6.24,2.82-12.39,4.56-18.41,1.77-6.11,3.98-12.09,6.35-19.19,1.16,2.08,1.76,3.13,2.35,4.19Z"/>
  <path class="cls-8" d="M835.6,488c8.57,0,17.03.71,24.91-4.54,9.3-6.19,11.73-15.99,5.25-25.48-2.04.18-4.38-.23-6.05.65-3.02,1.6-5.63,3.97-8.44,6-3.46,2.5-6.94,4.97-11.25,8.05-1.36-5.06-2.71-8.63-3.22-12.32-.6-4.32-.46-8.75-.65-13.13.99,1.8,2.45,3.5,2.87,5.43,1.03,4.74,1.57,9.58,2.37,14.8,7.86-4.65,14.81-8.76,21.7-12.83-6.41-8.23-18.8-10.03-28.95-8.07-.32.11-.63.12-.95.02-.3-.59-.61-1.18-.91-1.77,19.26-4.15,28.29-.11,40.02,13.4.99,1.14,1.55,3.06,1.5,4.59-.17,5.3-.36,10.64-1.2,15.86-.85,5.35-4.67,8.56-9.59,10.46-9.3,3.59-18.46,3.37-27.43-1.12Z"/>
  <path class="cls-28" d="M1020.99,337.66c2.13-5.38,3.44-11.3,6.57-16.03,4.73-7.15,7.28-14.79,8.85-23.03,1.39-7.3,3.5-14.47,4.76-21.78,1-5.83,1.2-11.8,1.76-17.71,0,0-.03.1-.03.09.26-.77.52-1.54.78-2.32.58-.99.97-2.21,1.79-2.92.88-.76,2.17-1.05,3.29-1.54.49,1.13,1.45,2.27,1.41,3.39-.5,17.13-3.27,33.85-9.51,49.9-1.98,5.08-3.9,10.18-5.8,15.29-2.67,7.19-6.35,13.52-13.88,16.65Z"/>
  <path class="cls-10" d="M857.23,989.64c10.93,0,21.85-.04,32.78.01,7.47.04,12.9-2.87,16.58-9.68,3.37-6.24,7.67-11.98,11.34-18.07,2.62-4.35,5.96-3.85,9.07-2.53-3.48,6.41-7.15,12.61-10.23,19.09-1.23,2.57-1.6,5.75-1.6,8.65,0,3.57-1.26,5.2-4.82,5.34-13.88.57-27.76,1.44-41.64,1.7-3.93.07-7.89-1.58-11.84-2.44.12-.69.24-1.38.37-2.07Z"/>
  <path class="cls-28" d="M965.27,277.35c-1.29-1.32-3.51-2.51-3.72-3.98-1.3-9.26-3.05-18.59-2.92-27.88.18-12.34-3.72-24.73.34-37.03,1.71-5.18,4.89-6.93,10.21-5.2-1.64,4.94-4.29,9.78-4.75,14.83-1.49,16.34.61,32.39,6.02,47.95.76,2.18,1.43,4.38,1.95,6-2.52,1.87-4.82,3.59-7.13,5.31Z"/>
  <path class="cls-28" d="M970.04,202.78c8.43-7.31,16.86-14.61,25.63-22.22-13.29-8.98-26.21-17.7-39.13-26.43,13.12,4.04,26.02,8.49,36.43,18.06,4.19,3.86,8.7,7.37,13.47,11.38-10.62,10.67-22.25,17.29-36.4,19.2Z"/>
  <path class="cls-6" d="M969.19,431.78c-16.82-8.99-35.66-12.22-53.35-18.73-7.31-2.69-14.44-5.9-21.75-8.59-6.21-2.28-12.69-3.84-18.83-6.28-6.64-2.64-10.44,2.28-15.17,4.87,1.99-3.56,3.85-7.21,6.07-10.62.42-.65,2.43-.79,3.46-.43,6.19,2.16,12.32,4.51,18.45,6.85,13.13,5.01,26.1,10.48,39.41,14.95,11.76,3.94,23.98,6.5,35.83,10.21,4.9,1.54,9.36,4.49,13.63,7.78h-7.75Z"/>
  <path class="cls-24" d="M1004.35,520.13c-3.77-7.86-7.47-15.74-11.33-23.55-1.6-3.24-3.57-6.3-5.26-9.5-2.94-5.54-5.75-11.14-8.7-16.67-1.29-2.42-2.37-5.16-4.26-7.01-6.8-6.65-11.84-15.33-21.4-18.9-.66-.25-.9-1.63-1.33-2.48,5.53-1.13,9.99,1.42,14.28,4.3,8.97,6.03,14.27,14.88,19,24.32,7.97,15.89,14.5,32.29,19,49.49Z"/>
  <path class="cls-9" d="M714.52,751.98c-1.35,2.37-2.25,5.19-4.12,7.02-5.33,5.2-11.33,9.77-12.85,17.73-.16.84-1.19,1.51-1.99,2.48-1.82-.77-3.57-1.51-6.01-2.54,1.91-1.42,3.29-2.23,4.4-3.31,4.62-4.48,8.29-9.24,7.63-16.4-.74-7.95-.09-15.88,3.11-23.39,1.65-.41,3.4-.61,4.94-1.28,3.19-1.39,4.94-.45,4.66,2.93-.33,4.08-1.1,8.14-1.29,12.22-.07,1.49.98,3.03,1.51,4.54Z"/>
  <path class="cls-10" d="M1301.82,649.31c-6.27,3.62-12.38,7.69-18.95,10.78-6.46,3.04-13.39,5.07-20.11,7.55-.25-.57-.5-1.13-.75-1.7,2.05-1.28,4.07-2.62,6.17-3.82,6.48-3.69,13.16-7.06,19.37-11.15,1.66-1.09,2.2-4.25,2.73-6.58.53-2.34.52-4.82.54-7.24.06-7.09.02-14.17.02-21.69h7.39c-.54,4.72-.78,9.43-1.68,14-1.5,7.63-.46,14.39,5.27,19.86Z"/>
  <path class="cls-2" d="M855.48,786.09c17.26-2.92,38.02,8.48,49.24,27.24-17.54-8.29-33.41-16.74-49.24-27.24Z"/>
  <path class="cls-13" d="M771.58,127.03c-12.54,13.06-20.81,28.93-29.43,44.57-2-2.01-1.73-4.02-.76-6.61,4.77-12.73,10.49-24.86,19.22-35.47,3.23-3.93,6.5-5.25,10.98-2.49Z"/>
  <path class="cls-21" d="M1040.06,227.03c-1.11,4.13-1.62,6.76-2.58,9.22-.36.92-1.88,2.15-2.66,2.01-2.53-.43-5.02-1.3-7.42-2.26-1.19-.47-2.14-1.54-3.25-2.26-1.91-1.24-5.34-2.23-5.53-3.67-.61-4.61-.42-9.43.25-14.05.35-2.44,2.34-4.64,3.74-7.23,1.86,1.72,3.64,3.37,5.42,5.02-4.64,5.54-3.56,13.37,2.05,14.78,1.47.37,3.26-.57,4.91-.85,1.68-.28,3.37-.49,5.06-.73Z"/>
  <path class="cls-2" d="M948.32,313.41c2.44-.25,4.88-.5,7.32-.74.15.66.29,1.33.44,1.99-1,.67-1.91,1.66-3,1.94-4.62,1.2-9.26,2.68-13.97,3.05-2.36.18-4.89-1.81-7.34-2.82,1.14-1.84,1.87-4.45,3.52-5.34,2.89-1.57,6.3-2.5,9.6-2.91,2.32-.29,4.25,1.11,2.84,4.12-3.15.36-6.31.73-9.46,1.09.1.62.2,1.24.3,1.86,3.25-.75,6.5-1.5,9.76-2.24Z"/>
  <path class="cls-24" d="M1041.91,249.19c-6.72-.67-13.44-1.49-20.18-1.95-6.15-.42-13.25-8.82-11.62-14.11,4.16,8.64,13,7.74,20.31,9.74,4.67,1.28,9.56,1.73,14.35,2.55.47.51.95,1.03,1.42,1.54-1.43.74-2.85,1.49-4.28,2.23Z"/>
  <path class="cls-7" d="M714.52,751.98c-.54-1.52-1.58-3.05-1.51-4.54.19-4.08.96-8.14,1.29-12.22.28-3.38-1.48-4.32-4.66-2.93-1.54.67-3.29.87-4.94,1.28-.72-4.73,3.54-5.96,6.12-6.22,2.4-.24,5.61,2,7.5,4.03,1.29,1.38,1.67,4.49,1.15,6.48-1.24,4.81-3.25,9.43-4.95,14.12Z"/>
  <path class="cls-14" d="M967.12,855.61c-2.68-8.58-8.22-14.34-16.79-17.19-.58-.19-.89-1.22-1.32-1.85,5.17,1.25,10.6,1.9,15.44,3.93,4.16,1.74,5.12,9.8,2.67,15.12Z"/>
  <path class="cls-6" d="M852.11,414.95c-2.67,7.27-5.34,14.54-8,21.82-6.14-.49-3.17-6.02-2.5-7.21,2.92-5.2,6.91-9.79,10.5-14.6Z"/>
  <path class="cls-16" d="M650.37,698.77c6.69-.16,9.41,1.3,10.38,5.02-2.57-.31-5.48-1.27-8.09-.74-1.46.3-2.42,3.06-3.6,4.71-1.12.41-2.25.83-3.37,1.24l-.98-.71c1.89-3.17,3.77-6.35,5.66-9.52Z"/>
  <path class="cls-2" d="M903.84,312.02c-.1-.13-.3-.35-.28-.37,1.75-2.12,7.42-1.34,8.49,1.15-3.87,4.36-4.26,4.33-8.21-.77Z"/>
  <path class="cls-3" d="M640.37,700.74c-2.66,2.11-5.32,4.22-7.84,6.21-1.01-2.94.27-5.02,5.71-8.44.71.74,1.42,1.48,2.13,2.22Z"/>
  <path class="cls-6" d="M859.12,404.98c.65,5.45-3.51,7.53-7.06,10.02,2.35-3.34,4.71-6.68,7.06-10.02Z"/>
  <path class="cls-24" d="M828.53,298.96c-.5.08-1.01.15-1.51.23-3.24-2.07-6.47-4.13-9.71-6.2,3.74,1.99,7.48,3.98,11.22,5.97Z"/>
  <path class="cls-12" d="M971.91,302.97c.22-2.86.33-5.81,5.27-5.53-.87,1.47-1.53,2.6-2.2,3.72-1.02.6-2.05,1.2-3.07,1.81Z"/>
  <path class="cls-24" d="M817.29,293.1c-1.31-.82-2.61-1.65-3.92-2.47,1.31.82,2.61,1.65,3.92,2.47Z"/>
  <path class="cls-16" d="M841.15,969.88c.6,1.19,1.2,2.39,1.8,3.58-.6-1.19-1.2-2.39-1.8-3.58Z"/>
  <path class="cls-6" d="M818.19,444.97c-.32-.68-.64-1.37-.96-2.05.32.68.64,1.37.96,2.05Z"/>
  <path class="cls-6" d="M860.14,402.99c-.35.69-.7,1.37-1.05,2.06.35-.69.7-1.37,1.05-2.06Z"/>
  <path class="cls-15" d="M1043.68,256.88c-.26.77-.52,1.54-.78,2.32.26-.77.52-1.54.78-2.32Z"/>
  <path class="cls-16" d="M932.88,989.38c.71-.15,1.41-.29,2.12-.44-.71.15-1.41.29-2.12.44Z"/>
  <path class="cls-15" d="M1014.94,340.06c-.08.16-.17.33-.25.49,0-.09-.05-.24,0-.27.1-.08.24-.1.36-.14,0,0-.1-.08-.1-.08Z"/>
  <path class="cls-6" d="M626.42,448.94c-.24.31-.47.63-.71.94.24-.31.47-.63.71-.94Z"/>
  <path class="cls-29" d="M1014.84,318.97c.29-.17.58-.33.86-.5-.01.39-.03.77-.04,1.16-.27-.22-.55-.44-.83-.66Z"/>
  <path class="cls-22" d="M650.87,679.35l-1.04.3c.08-.38.16-.77.24-1.15.27.29.53.57.8.86Z"/>
  <path class="cls-6" d="M627.38,447.94c-.35.36-.7.73-1.05,1.09.35-.36.7-.73,1.05-1.09Z"/>
  <path class="cls-28" d="M956.64,154.3c-.52-.26-1.04-.52-1.56-.79.52.26,1.04.52,1.56.79Z"/>
  <path class="cls-14" d="M612.28,585.64c-1.5,5.53-3.11,11.03-4.49,16.58-5.06,20.38-11.26,40.58-14.63,61.24-2.2,13.49-.61,27.68-.07,41.53.62,15.98,1.96,31.94,2.99,47.91-.54.1-1.07.2-1.61.3-.34-.56-.95-1.11-1-1.69-1.38-19.47-2.88-38.93-3.99-58.42-1.03-18.19,1.67-36.04,6.21-53.6,4.44-17.15,9.17-34.23,13.82-51.32.28-1.03.96-1.95,1.45-2.93.44.13.87.27,1.31.4Z"/>
  <path class="cls-14" d="M504.03,850.9c-7.47-29.72,10.23-121.25,27.7-135.7-10.86,20.86-16.87,43.1-21.85,66.1-5.01,23.17-5.43,46.26-5.85,69.6Z"/>
  <path class="cls-14" d="M574.9,853.95c1.79,5.23,4.1,10.34,5.29,15.7,3.93,17.76,7.82,35.54,10.94,53.44,1.18,6.78-.02,13.95.36,20.92.47,8.62,1.45,17.22,2.24,26.15-1.08-2.67-2.89-5.33-3.14-8.13-.73-8.24-1.31-16.56-1.07-24.82.43-15.27-2.55-29.98-6.25-44.62-3.09-12.18-6.35-24.32-9.51-36.48-.15-.57-.02-1.21-.02-1.82.39-.12.78-.23,1.17-.35Z"/>
  <path class="cls-14" d="M693.46,439.52c3.83-.79,7.76-2.58,11.46-2.19,10.65,1.1,21.25,2.85,31.78,4.78,8.14,1.49,13.82,7.44,20.22,12.32-19.08-14.23-40.87-14.53-63.47-14.91Z"/>
  <path class="cls-14" d="M772.15,950.61c-3.19-5.4-6.37-10.79-9.56-16.19-.93-1.57-1.92-3.11-2.75-4.73-5.7-11.16-11.36-22.34-16.32-34.08,1.39,1.99,3,3.86,4.13,5.99,8,15.12,15.92,30.28,23.82,45.45.52,1,.62,2.21.92,3.32l-.23.23Z"/>
  <path class="cls-14" d="M592.57,508.1c-1.79,4.42-3.15,9.09-5.46,13.21-2.96,5.27-4.24,10.66-3.73,16.61.18,2.1.03,4.23.03,7.19-4.87-7.18.44-27.51,8.9-37.29,0,0,.26.27.26.27Z"/>
  <path class="cls-14" d="M650.96,482.5c11.25-11.11,25.29-10.15,39.42-8.82-13.87-.4-27.47.34-39.42,8.82Z"/>
  <path class="cls-14" d="M729.45,876.44c2.56,3.13,5.21,6.2,7.64,9.43,1.86,2.47,3.43,5.16,5.13,7.75-.51.35-1.02.71-1.54,1.06-3.83-6-7.67-12.01-11.5-18.01,0,0,.27-.23.27-.23Z"/>
  <path class="cls-14" d="M715.2,856.05c3.52,3.99,7.05,7.98,10.57,11.97-.41.39-.82.77-1.24,1.16-3.59-3.93-7.18-7.87-10.78-11.8.48-.44.96-.89,1.44-1.33Z"/>
  <path class="cls-14" d="M656.27,455.27c-4.2,1.96-8.75,4.09-13.22,6.18,2.27-5.01,10.65-8.39,13.22-6.18Z"/>
  <path class="cls-14" d="M606.34,492.9c2.66-3.35,5.32-6.69,7.98-10.04l.24.27c-2.69,3.31-5.37,6.61-8.06,9.92l-.15-.15Z"/>
  <path class="cls-14" d="M634.23,466.53c2.06-1.5,4.13-3,6.19-4.5.31.4.63.8.94,1.2-1.97,1.59-3.95,3.17-5.92,4.76-.4-.49-.81-.97-1.21-1.46Z"/>
  <path class="cls-14" d="M634.5,502.04c-.82,1.96-1.63,3.93-2.45,5.89-.57-.34-1.14-.67-1.71-1.01,1.3-1.7,2.6-3.41,3.89-5.11,0,0,.27.23.27.23Z"/>
  <path class="cls-14" d="M604.53,495.06c-1.22,1.69-2.44,3.39-3.66,5.08-.5-.47-.99-.95-1.49-1.42,1.65-1.28,3.3-2.57,4.95-3.85,0,0,.2.19.2.19Z"/>
  <path class="cls-14" d="M635.28,499.87c.97-1.88,1.95-3.77,2.92-5.65l1.61,1.1c-1.43,1.59-2.86,3.18-4.29,4.76,0,0-.25-.21-.25-.21Z"/>
  <path class="cls-14" d="M729.18,876.67c-1.35-1.64-2.7-3.28-4.05-4.92.53-.35,1.06-.69,1.59-1.04.91,1.91,1.82,3.82,2.73,5.72,0,0-.27.23-.27.23Z"/>
  <path class="cls-14" d="M631.76,471.55c-.9.97-1.81,1.94-2.71,2.92l-1.3-1.03c.3-.72.46-1.56.95-2.13.45-.53,1.24-.76,1.88-1.12.39.46.79.91,1.18,1.37Z"/>
  <path class="cls-14" d="M596.52,504.03c-1.32,1.36-2.64,2.71-3.95,4.07,0,0-.26-.27-.26-.27,1.33-1.34,2.65-2.67,3.98-4,0,0,.23.2.23.2Z"/>
  <path class="cls-14" d="M600.56,973.56c-1.52-.26-3.04-.53-4.57-.79.08-.46.16-.91.24-1.37l4.57.79c-.08.46-.16.92-.25,1.37Z"/>
  <path class="cls-14" d="M648.48,485.06c-1.01,1.33-2.01,2.67-3.02,4l-.19-.19c1-1.34,2-2.68,3-4.02l.22.22Z"/>
  <path class="cls-14" d="M622.46,478.03c-.65,1.31-1.3,2.62-1.95,3.92-.65-.78-1.3-1.56-1.95-2.34,1.25-.57,2.51-1.15,3.76-1.72,0,0,.13.13.13.13Z"/>
  <path class="cls-14" d="M772.38,950.37c.94.58,1.87,1.17,2.81,1.75-.34.4-.68.8-1.02,1.2-.67-.91-1.35-1.81-2.02-2.72,0,0,.23-.23.23-.23Z"/>
  <path class="cls-14" d="M623.3,476.9c.58-.96,1.16-1.93,1.73-2.89.41.34.82.69,1.23,1.03-.93.67-1.86,1.35-2.8,2.02l-.16-.16Z"/>
  <path class="cls-14" d="M614.31,482.86c.77-.57,1.54-1.15,2.3-1.72.17.34.34.68.52,1.03-.86.32-1.73.64-2.59.96,0,0-.23-.27-.23-.27Z"/>
  <path class="cls-14" d="M596.29,503.83c.2-.43.39-.85.59-1.28.13.1.37.27.36.29-.22.41-.47.79-.71,1.18,0,0-.23-.2-.23-.2Z"/>
  <path class="cls-14" d="M634.23,501.81c.35-.65.7-1.29,1.05-1.94,0,0,.24.21.25.21-.34.65-.69,1.3-1.03,1.96,0,0-.27-.23-.27-.23Z"/>
  <path class="cls-14" d="M643.45,491.03c-.19.13-.38.26-.57.39.14-.18.28-.36.42-.54,0,0,.15.15.15.15Z"/>
  <path class="cls-14" d="M605.5,494.04c-.32.34-.65.68-.97,1.02,0,0-.19-.19-.2-.19.34-.33.68-.65,1.02-.98,0,0,.15.15.15.15Z"/>
  <path class="cls-14" d="M623.47,477.06c-.34.32-.67.65-1.01.97,0,0-.13-.13-.13-.13.32-.33.65-.67.98-1,0,0,.16.16.16.16Z"/>
  <path class="cls-14" d="M606.49,493.05c-.33.33-.66.65-.99.98,0,0-.14-.14-.15-.14.33-.33.66-.66.99-.99,0,0,.15.15.15.15Z"/>
  <path class="cls-14" d="M648.26,484.84c.19-.12.38-.25.58-.37-.12.2-.24.39-.36.59,0,0-.22-.22-.22-.22Z"/>
  <path class="cls-14" d="M645.46,489.06c-.34.33-.68.65-1.02.98,0,0-.15-.14-.15-.14.32-.34.65-.68.97-1.02,0,0,.19.19.19.19Z"/>
  <path class="cls-14" d="M643.3,490.88c.33-.33.66-.65.99-.98,0,0,.14.14.14.14-.33.33-.66.66-.99.99,0,0-.15-.15-.15-.15Z"/>
  <path class="cls-3" d="M909.84,651.06c-.02,3.86-9.6,13.48-13.53,13.36-.91-.03-2.36-.94-2.54-1.69-.19-.79.62-2.13,1.37-2.79,2.58-2.29,5.51-4.22,7.92-6.67.84-.86,1.28-3.42.65-4.2-2.86-3.57-6.19-6.76-9.28-10.16-.79-.87-1.32-1.98-1.97-2.98,1.23-.55,2.53-1.69,3.68-1.56,3.88.44,13.73,12.7,13.71,16.68Z"/>
  <path class="cls-24" d="M839.33,514.84c11.91,16.44,22.75,33.44,29.5,52.57-.54.28-1.09.57-1.63.85-9.29-17.81-18.58-35.61-27.87-53.42Z"/>
  <path class="cls-3" d="M927.14,638.14c.93.53,1.98.77,2.21,1.35.31.77.26,1.93-.13,2.66-.53.98-1.62,1.64-2.3,2.56-3.12,4.25-2.36,8.04,1.68,11.31,1.38,1.12,1.96,3.23,2.9,4.89-1.89-.26-4.12.03-5.6-.89-7.22-4.45-8.04-13.58-1.95-19.59.9-.89,2.09-1.5,3.2-2.28Z"/>
  <path class="cls-3" d="M921.49,680.69c-1.72.4-3.68,1.44-4.33.89-1.95-1.61-3.7-3.66-4.96-5.87-1.37-2.4-2.27-5.11-3.03-7.78-.33-1.14.21-2.53.36-3.81,1.32.36,3.1.31,3.86,1.16,1.27,1.45,1.87,3.48,2.79,5.24,1.33,2.54,2.7,5.06,4.04,7.59.3.57.57,1.15,1.27,2.57Z"/>
  <path class="cls-25" d="M996.43,580.29c-.78,2.64-.91,4.67-1.93,6.05-.89,1.2-2.93,2.48-4.18,2.24-1.32-.25-2.98-2.12-3.26-3.53-.37-1.8.01-4.13.95-5.72,1.04-1.77,3.06-2.97,4.66-4.41,1.35,1.92,2.69,3.84,3.77,5.38Z"/>
  <path class="cls-16" d="M772.59,613.21c-2.27,1.23-3.55,2.46-4.81,2.43-.96-.02-1.89-1.63-2.83-2.53,1.15-.92,2.21-2.36,3.49-2.59.92-.16,2.12,1.3,4.15,2.69Z"/>
  <polygon class="cls-25" points="1164.38 666.76 1164.3 667.07 1164.3 666.74 1164.38 666.76"/>
  <path class="cls-18" d="M810.41,251.24c1.1-.65,2.21-1.87,3.3-1.85,8.27.14,16.5-1.75,24.87.49,3.84,1.03,8.28-.21,12.45-.42,1.97.71,3.93,2.03,5.9,2.02,9.38-.05,18.77-.45,28.15-.73,4.49,3.69,3.04,8.73,3.07,13.44-.46,1.59-1.02,3.16-1.38,4.77-2.84,12.84-10.71,20.09-23.78,20.58-4.04.15-8.31-1.77-12.22-3.38-4.99-2.05-11.06-3.62-14.29-7.41-6.3-7.4-13.18-13.81-21.21-19.12-.05-.39-.27-.56-.66-.51-1.14-1.3-2.28-2.61-3.42-3.91,0,0,0,0,0,0-.26-1.32-.53-2.65-.79-3.97ZM846.15,276.1l4.8,1.09c5.06,3.01,10.31,2.88,15.66.92,7.14-2.61,9.21-6.06,7.16-11.99-.74-2.13-1.55-4.24-1.96-5.33-3.84-1.34-6.95-2.94-10.23-3.47-8.28-1.33-16.63-2.18-24.96-3.23-2.74-.35-3.95.5-4.59,3.55-.76,3.57,1.74,4.88,3.16,7.1,2.91,4.54,5.51,9.31,10.96,11.36Z"/>
  <path class="cls-24" d="M815.27,259.63c8.04,5.31,14.91,11.72,21.21,19.12,3.23,3.79,9.29,5.36,14.29,7.41,3.91,1.61,8.18,3.53,12.22,3.38,13.07-.49,20.94-7.74,23.78-20.58.36-1.61.91-3.18,1.38-4.77,1.27,4.37,2.45,8.65.49,13.24-1.09,2.55-1.8,5.38-2.08,8.14-.68,6.74-9.75,11.29-15.33,10.57-9.4-1.21-19.16-2.39-26.79-8.08-10.03-7.47-19.04-16.31-28.37-24.71-.76-.69-.55-2.45-.79-3.72Z"/>
  <path class="cls-24" d="M885.08,250.74c-9.38.28-18.76.68-28.15.73-1.96,0-3.93-1.31-5.9-2.02,2.57-.22,5.14-.62,7.71-.64,4.62-.02,9.24.32,13.85.17.82-.03,1.6-1.69,1.73-1.84,2.53.8,4.73,1.47,6.91,2.19,1.29.43,2.56.93,3.84,1.4Z"/>
  <path class="cls-12" d="M970.14,296.87c-.18,1.29-.37,2.58-.55,3.87-.36-.05-.73-.11-1.09-.16.17-1.25.33-2.49.5-3.74.38.01.76.02,1.15.03Z"/>
  <path class="cls-24" d="M811.2,255.21c1.14,1.3,2.28,2.61,3.42,3.91-1.14-1.3-2.28-2.61-3.42-3.91Z"/>
  <path class="cls-24" d="M810.41,251.24c.26,1.32.53,2.65.79,3.97-2.75-.83-2.66-2.22-.79-3.97Z"/>
  <path class="cls-25" d="M888.12,313.19c-.2-.49-.39-.97-.18-.44-.12-.57,0-.03.11.51,0,0,.07-.07.07-.07Z"/>
  <path class="cls-5" d="M722.04,784.39c1.42.77,2.38.98,2.77,1.58.87,1.3,1.46,2.79,2.17,4.2-1.48.17-3.17.88-4.4.41-3.4-1.29-6.66-2.97-9.85-4.73-.99-.55-2.36-2.17-2.13-2.79.43-1.17,1.72-2.42,2.93-2.83,2.48-.84,5.27-.83,7.7-1.77,2.93-1.14,5.62-3.31,3.74-6.83-1.87-3.5-4.89-2.11-7.76-.77-1.32.61-3.01.42-4.54.6.66-1.81.79-4.32,2.09-5.31,4.88-3.72,11.29-2.58,14.5,2.11,3.4,4.96,2.26,9.76-3.27,13.63-1.07.75-2.21,1.42-3.95,2.52Z"/>
  <path class="cls-5" d="M771.24,808.08c.53.48.89.8,1.24,1.14,1.39,1.33,2.78,2.65,4.17,3.98-2.25.23-4.63,1.03-6.72.54-2.5-.58-4.86-2.08-7.06-3.52-1.06-.7-2.05-2.11-2.22-3.32-.08-.59,1.72-1.62,2.81-2.15,1.61-.77,3.51-1,4.99-1.93,2.88-1.81,3.49-4.24,1.21-6.98-2.1-.27-4.05-.52-6-.77.51-1.25.84-3.43,1.57-3.57,2.52-.48,5.78-1.25,7.67-.1,4.1,2.5,4.45,9.58,1.36,13.38-.93,1.14-1.99,2.17-3.03,3.29Z"/>
  <path class="cls-18" d="M756.18,795.78c-1.49-.07-2.54.12-3.37-.21-2.13-.86-5.66-1.7-5.89-3.03-.37-2.12.84-5.7,2.54-6.72,2.54-1.52,6.24-2.11,9.15-1.55,1.32.25,2.76,4.22,2.71,6.46-.11,4.39-.96,8.84-2.09,13.1-.38,1.43-2.53,2.39-3.87,3.56-.29-1.72-.91-3.46-.77-5.14.17-2.06.97-4.07,1.6-6.48Z"/>
  <path class="cls-5" d="M736.15,782.83c-.55-1.97-2.16-4.91-1.43-5.71,1.54-1.68,4.3-2.23,6.57-3.25.78,2.28,2.15,4.56,2.18,6.85.02,2.18-1.51,4.33-2.09,6.56-.76,2.9-2.5,5.99,1.22,8.42.54.36.66,2.41.16,3.03-.5.62-2.15.84-3.05.52-3.1-1.1-6.21-2.31-9.03-3.96-.63-.37-.68-3.6,0-4.05,4.91-3.31,4.99-3.19,5.48-8.41Z"/>
  <path class="cls-5" d="M833.21,446.57c.32.09.64.09.95-.02.67.22,1.34.45,2.01.67.18,4.38.05,8.81.65,13.13.51,3.68,1.85,7.25,3.22,12.32,4.31-3.08,7.79-5.55,11.25-8.05,2.8-2.02,5.41-4.4,8.44-6,1.67-.88,4.01-.47,6.05-.65-6.09,10.48-15.6,16.78-26.41,21.42-.71.3-2.56-.34-2.81-.96-4.07-10.29-5.19-20.93-3.35-31.86Z"/>
  <path class="cls-25" d="M720.82,243.71c.5-.97,1-1.94,1.5-2.9.31.15.62.31.94.46-.61,1.03-1.21,2.05-1.82,3.08-.2-.22-.41-.43-.62-.64Z"/>
  <path class="cls-25" d="M726.47,223.07c.36.59.72,1.17,1.07,1.75-.24.13-.48.26-.73.4-.26-.57-.52-1.14-.78-1.71.14-.15.28-.3.43-.44Z"/>
  <path class="cls-25" d="M720.03,244.95c.27-.41.53-.82.8-1.24.21.21.41.42.61.64-.26.42-.51.83-.77,1.25-.21-.22-.42-.44-.64-.65Z"/>
  <path class="cls-25" d="M726.04,223.51c-.26-.41-.52-.82-.77-1.24,0,0,.31-.38.32-.39.3.39.59.79.89,1.19-.15.14-.29.29-.43.44Z"/>
  <path class="cls-15" d="M836.17,447.23c-.67-.22-1.34-.45-2.01-.67,10.16-1.95,22.55-.16,28.95,8.07-6.89,4.08-13.84,8.18-21.7,12.83-.8-5.22-1.35-10.06-2.37-14.8-.42-1.93-1.88-3.63-2.87-5.43Z"/>
  <path class="cls-25" d="M948.32,313.41c-3.25.75-6.5,1.5-9.76,2.24-.1-.62-.2-1.24-.3-1.86,3.15-.36,6.31-.73,9.46-1.09.19.24.39.48.59.71Z"/>
  <path class="cls-21" d="M846.15,276.1c-5.46-2.06-8.05-6.82-10.96-11.36-1.43-2.22-3.92-3.53-3.16-7.1.65-3.05,1.86-3.89,4.59-3.55,8.32,1.05,16.68,1.89,24.96,3.23,3.28.53,6.39,2.13,10.23,3.47.4,1.1,1.22,3.2,1.96,5.33,2.05,5.93-.02,9.38-7.16,11.99-5.35,1.96-10.6,2.09-15.66-.92,1.24-.66,2.9-1.02,3.62-2.05,1.29-1.84,3.2-4.41,2.74-6.09-1.14-4.11-3.49-7.89-5.36-11.82-6.06,3.23-8.01,9.16-5.52,14.99.45,1.06-.16,2.57-.28,3.87Z"/>
  <path class="cls-16" d="M846.15,276.1c.12-1.3.73-2.81.28-3.87-2.48-5.83-.54-11.76,5.52-14.99,1.87,3.93,4.21,7.71,5.36,11.82.47,1.68-1.45,4.25-2.74,6.09-.72,1.03-2.38,1.39-3.62,2.05-1.6-.36-3.2-.73-4.8-1.09Z"/>
</svg>