<?xml version="1.0" encoding="UTF-8"?>
<svg id="Layer_1" data-name="Layer 1" xmlns="http://www.w3.org/2000/svg" version="1.1" viewBox="0 0 1920 1080">
  <defs>
    <style>
      .cls-1 {
        fill: #f8ebac;
      }

      .cls-1, .cls-2, .cls-3, .cls-4, .cls-5, .cls-6, .cls-7, .cls-8, .cls-9, .cls-10, .cls-11, .cls-12, .cls-13, .cls-14, .cls-15, .cls-16, .cls-17, .cls-18, .cls-19, .cls-20, .cls-21, .cls-22, .cls-23, .cls-24, .cls-25, .cls-26, .cls-27, .cls-28 {
        stroke-width: 0px;
      }

      .cls-2 {
        fill: #ecc2a5;
      }

      .cls-3 {
        fill: #070606;
      }

      .cls-4 {
        fill: #9f7f56;
      }

      .cls-5 {
        fill: #c52727;
      }

      .cls-6 {
        fill: #d39f7b;
      }

      .cls-7 {
        fill: #0c0b06;
      }

      .cls-8 {
        fill: #c3c3c3;
      }

      .cls-9 {
        fill: #8b8b8b;
      }

      .cls-10 {
        fill: #080808;
      }

      .cls-11 {
        fill: #fdfdfd;
      }

      .cls-12 {
        fill: #e87373;
      }

      .cls-13 {
        fill: #e2a981;
      }

      .cls-14 {
        fill: #dda67f;
      }

      .cls-15 {
        fill: #e67272;
      }

      .cls-16 {
        fill: #efc4a7;
      }

      .cls-17 {
        fill: #060606;
      }

      .cls-18 {
        fill: #dabf42;
      }

      .cls-19 {
        fill: #f5e9ab;
      }

      .cls-20 {
        fill: #e0a880;
      }

      .cls-21 {
        fill: #dbc142;
      }

      .cls-22 {
        fill: #f3f3f3;
      }

      .cls-23 {
        fill: #7b5e3c;
      }

      .cls-24 {
        fill: #7c5f3d;
      }

      .cls-25 {
        fill: #e1a981;
      }

      .cls-26 {
        fill: #eac1a4;
      }

      .cls-27 {
        fill: #9c7c54;
      }

      .cls-28 {
        fill: #080605;
      }
    </style>
  </defs>
  <path class="cls-13" d="M1443.36,935.78c-29.95.03-59.91.09-89.86.1-59.75.02-119.49,0-179.24,0-2.16,0-4.32-.13-6.48-.2-5.03-8.52-10.84-16.6-13.24-26.49-2.01-8.24-4.36-16.28-1.26-24.85.9-2.5.15-5.58.23-8.4.25-8.38-.59-16.98,1.03-25.09,3.28-16.37,8.22-32.4,11.82-48.72,1.59-7.19,1.57-14.74,2.28-22.13-.59-.17-1.19-.34-1.78-.51-3.67,8.57-7.42,17.11-10.97,25.74-1,2.42-.96,5.32-2.16,7.59-6.69,12.53-10.92,25.98-14.43,39.6-1.3,5.04-1.26,10.88-.08,15.94.84,3.62,1.04,6.48-.07,9.94-1.5,4.68-3.05,9.55-3.29,14.39-.67,13.64,4.48,25.93,10.02,38.04.74,1.61,1.17,3.36,1.75,5.05-1.59.02-3.18.04-4.77.06-.12-.64-.04-1.43-.39-1.89-8.59-11.36-10.53-24.54-10.54-38.26,0-3.9,0-7.81,0-11.71-.42.02-.84.03-1.26.05-2.13,17.25-2.86,34.46,2.69,51.41-12.03.03-24.05.05-36.07.08,3.1-3.23,6.88-6.05,9.14-9.78,4.26-7.05,7.46-14.73,11.45-21.95,2.75-4.97,1.98-9.95,1.78-13.88-5.47,7.99-11.49,16.38-17.08,25.05-6.83,10.6-16.56,16.98-28.36,20.63-12.44.09-24.88.24-37.33.27-19.09.05-38.19.02-57.28,0-3.86,0-7.87.75-10.95-2.81-.68-.79-2.43-.66-3.69-.95-2.37-1.03-4.73-2.05-7.1-3.08-.35-.35-.71-.69-1.06-1.04-4.95-3.33-10.07-6.45-14.83-10.04-8.95-6.76-15.01-15.82-17.81-26.53-4.58-17.57-4.3-35.49-1.97-53.4,1.56-4.35,3.37-8.63,4.65-13.06,4.4-15.24,8.44-30.59,12.96-45.8,3.57-12,7.6-23.87,11.53-35.76.56-1.68,1.56-3.25,2.54-4.75,4.51-6.95,9.01-13.92,13.69-20.75,1.74-2.54,4-4.7,5.95-7.1,3.47-4.27,10.24-5.34,11.41-11.81,22.14,2,44.28,3.98,66.42,6.01,14.53,1.33,29.05,2.73,43.48,4.09,1.68,12.12,3.4,24.94,10.26,36.3,1.33,2.2,3.32,4.28,5.48,5.68,14.15,9.18,29.52,10.62,45.3,5.56,7.07-2.26,14.21-5.31,20.25-9.53,12.03-8.39,26.15-15.32,28.69-32.48.81.4,1.45.61,1.96.99,2.8,2.08,5.7,4.05,8.34,6.33,32.78,28.34,69.33,50.94,107.43,71.28,8.79,4.69,16.73,10.97,25.06,16.51,4.14,4.42,8.48,8.51,14.85,9.4h.02c.32.32.64.63.96.93,10.9,8.14,22.03,16.23,29.6,27.72,16.04,24.35,33.07,48.12,45.17,74.85,1.9,4.19,4.07,8.25,6.12,12.37-.31.26-.63.52-.94.78Z"/>
  <path class="cls-28" d="M922.2,838.03c-2.33,17.91-2.61,35.83,1.97,53.4,2.79,10.71,8.85,19.77,17.81,26.53,4.76,3.59,9.87,6.71,14.83,10.04l.1-.05c-1.02-.11-2.04-.22-3.06-.34-.02.53-.04,1.06-.06,1.59,1.38-.08,2.75-.17,4.13-.25l-.05.09c2.37,1.02,4.73,2.05,7.1,3.08.74,1.18,1.49,2.36,2.35,3.74-6.2,0-12.38.45-18.43-.21-2.58-.28-4.84-3.02-7.38-4.41-1.11-.61-2.55-.61-3.62-.84-2.58-3.57-5.33-7.36-8.07-11.17-6.78-9.43-14.83-18.22-19.96-28.47-4.88-9.75-6.75-21.02-9.83-31.65-.54-1.86-.56-3.87-.93-6.64-5.6,4.22-10.61,7.96-15.59,11.75-13.45,10.23-28.21,15.04-45.28,11.94-8.53-1.55-17.02-2.7-24.49-7.65-5.26-3.49-9.69-7.59-11.73-13.7-1.09-3.27-2.96-4.92-6.41-5.96-19.18-5.73-31.62-18.86-39.37-36.89-5.57-12.95-11.58-25.75-16.52-38.94-3.01-8.02-4.48-16.63-6.44-25.02-1.57-6.7-3.93-12.85-8.8-17.99-2.37-2.5-3.73-5.94-6.04-8.51-4.82-5.36-9.97-10.42-14.99-15.6-.31-.12-.63-.25-.94-.37.02.38.04.77.06,1.15,6.52,32.77,7.21,65.91,7.33,99.21.15,41.4,1.71,82.8,2.66,124.2.04,1.81,0,3.61,0,5.6-2.38,0-4.35,0-6.32,0-1.01-35.04-2.15-70.07-2.96-105.11-.36-15.63-.33-31.28,0-46.91.58-27.04-3.45-53.58-8.03-80.07-.21-1.2-2.59-3.07-3.7-2.9-6.87,1.05-13.67,2.6-20.49,3.98h-5.1c.16,2.07.09,3.39.38,4.65,2.51,11.21,4.55,22.44,4.09,34.04-.17,4.27.78,8.59,1.25,12.88,1.79,16.3,5.27,32.38,4.5,49-1.43,31.13,1.3,62.15,3.66,93.16.95,12.43,2.09,24.85,3.15,37.27h-6.43c-.76-8.49-1.6-17.03-2.29-25.58-2.84-35.17-6.01-70.35-4.51-105.67.64-15.14-2.74-29.72-4.18-44.57-.58-5.95-.95-11.91-1.61-17.85-1.1-9.88-2.36-19.74-3.55-29.61-.16-1.31-.56-2.63-.49-3.93.21-3.83-1.45-5.74-5.24-6.53-9.19-1.91-10.12-3.25-9.53-12.41.27-4.13-.52-7.68-2.31-11.69-2.08-4.67-1.38-10.57-2.01-15.91-.26-2.16-.33-4.61-1.4-6.37-2.46-4.02-2.98-7.82-1.27-12.3,1.52-3.98,1.51-8.7,3.56-12.29,2.88-5.03,6.66-9.74,10.85-13.76,2.21-2.13,3.87-3.37,3.41-6.81-.55-4.09,0-8.31-.24-12.46-.93-15.58-1.99-31.15-2.98-46.72-.19-2.99-.31-5.98-.39-8.97-.73-24.93-.31-49.95-2.45-74.75-2.5-28.94-1.49-57.84-1.81-86.76-.11-10.45.35-20.94,1.18-31.36.42-5.35-1.17-9.67-4.84-12.87-7.04-6.14-4.23-13.41-2.96-20.45,1.16-6.47,2.82-12.87,4.46-19.24,1.74-6.72,3.55-13.43,5.63-20.04,3.75-11.88,7.66-23.71,11.71-35.49.54-1.57,2.34-2.7,3.55-4.04,1.1,1.43,2.63,2.71,3.23,4.32,3.85,10.4,7.51,20.88,11.21,31.34,3.93,11.12,7.84,22.25,11.77,33.37,1.61,4.54,3.38,9.03,4.88,13.6,1.84,5.6.83,7.62-4.56,9.96-7.72,3.35-13.4,13.11-13.3,21.52.19,14.98-.07,29.96-.11,44.94-.1,36.29,1.98,72.44,5.41,108.58,2.73,28.76,6.21,57.54,4.54,86.55-.11,1.96-.01,3.93-.01,6.34,11.7-4.5,19.45,1.93,27.15,8.49.25.21.41.54.67.74,7.32,5.57,10.61,12.66,8.69,21.96-.94,4.57.9,6.38,5.88,6.15,12.49-.57,23.77,3.43,34.32,9.99,7.75,4.83,15.53,9.69,23.68,13.77,16.48,8.23,28.11,20.89,35.96,37.32,6.94,14.52,13.88,29.04,20.22,42.28,6.65-5.75,13.61-12.91,21.69-18.44,10.37-7.09,21.34-13.48,32.63-19,8.11-3.96,17.18-5.95,25.76-8.98,1.47-.52,2.8-1.71,3.92-2.86,12.66-13.04,27.1-23.26,44.1-30.16,16.15-6.56,32.03-13.86,47.63-21.63,9.33-4.65,17.86-10.89,26.83-16.27,4.55-2.73,9.41-4.95,13.92-7.74,11.53-7.14,22.94-14.47,34.41-21.73-5.17-6.91-6.5-6.91-13.57-3.04-5.2,2.86-10.84,4.94-16.39,7.12-7.96,3.14-16.01,6.06-24.02,9.07-.52-.39-1.05-.79-1.57-1.18.95-3.33,1.65-6.76,2.93-9.96,1.46-3.68,1.08-5.99-2.79-7.98-2.23-1.15-3.59-3.9-5.55-5.7-1.82-1.67-3.92-3.02-6.24-4.78-.8,1.36-1.42,2.41-1.48,2.51-1.85-6.45-6.94-7.29-13.27-5.79l.1.11c2.57-1.12,2.11-2.32-.08-3.16-3.36-1.29-6.8-2.36-10.59-3.66-.24,1.74-.41,2.99-.61,4.48.19-.15.07-.02.05-.04-.1-.06-.25-.19-.24-.27.64-3.75-1.48-5.1-4.68-6.21-2.88-1-5.36-3.12-8.2-4.31-8.84-3.71-17.72-7.33-26.69-10.71-1.76-.66-3.98-.1-6.32-.1-3.39-4.11-10.59-5.96-12.64-4.08-7.44-2.33-14.42-3.45-21.58-3.7-.77-.09-1.53-.18-2.3-.27-4.53.11-9.06.35-13.59.29-3.64-.05-7.28-.45-10.92-.7-2.71-.09-5.41-.18-8.12-.27-4.37-.67-8.74-1.34-13.12-2.02-2.55-.99-5.11-1.97-7.66-2.96-1.6-.95-3.2-1.91-4.8-2.86-.38-.1-.76-.2-1.15-.3.13.5.26,1,.4,1.5,7.3,11.61,14.63,23.2,21.85,34.85,1.04,1.68,1.56,3.69,2.32,5.54-1.78.35-3.7,1.3-5.33.95-9.38-2-18.82-3.88-27.99-6.63-11.03-3.3-17.84-12.48-25.45-20.26-8.46-8.65-13.32-19.62-18.61-30.36-9.16-18.6-15.26-38.25-20.74-58.08-2.19-7.92-2.58-16.34-3.53-24.57-.19-1.67.28-4.52,1.32-5.02,4.38-2.13,2.97-6.01,3.76-9.35,3.39-14.41,6.79-28.89,16.96-40.46,10.78-12.25,18.77-26.02,24.33-41.43,6.53-18.13,18-33.02,31.69-46.52,7.92-7.81,18.58-11,26.81-17.87,11.72-9.78,25-14.76,40.05-15.68,1.77-.11,3.52-.69,5.97-1.2-2.06-8.6-3.24-17.09-6.21-24.9-2.86-7.52-7.57-14.33-11.47-21.45.38-.26.76-.53,1.14-.79,1.03.87,2.07,1.73,3.37,2.83.28-.79.87-1.57.72-2.19-1.16-5.02-2.29-10.06-3.85-14.95-.33-1.02-2.37-1.77-3.75-2.11-1.43-.36-3.02-.08-4.54-.08l-.38-1.68c1.89-.7,3.77-1.4,6.34-2.35-2.82-5.95-5.76-12.13-9.03-19.03-1.38,2.23-2.32,3.74-3.26,5.26l-1.29-.32c.15-1.58-.26-3.57.54-4.67,3.74-5.07-1.18-7.91-2.97-11.35-.27-.52-4.39.42-6.3,1.47-1.37.75-2.02,2.82-3.08,4.43-2.67-4.24.03-7.98,7.11-10.06-3.13-5.64-6.21-11.2-9.41-16.98-.91,1.48-1.57,2.54-3,4.85-1.68-6.47,1.08-13.16-6.75-16.49-2.31,2.52-5.22,5.69-8.04,8.77-2.12-3.56-.47-6.39,7.28-11.73-2.07-2.58-4.28-5.04-6.16-7.72-3.45-4.95-2.12-9.81,3.42-12.24,3.79-1.66,7.77-2.91,12.2-4.54-3.02-2.6-5.75-4.96-8.49-7.32.41-.53.82-1.05,1.23-1.58,1.97,1.17,4.4,1.95,5.83,3.59,4.91,5.65,10.19,3.41,15.95,1.42-1.82-2.77-3.46-5.29-5.11-7.8l1.36-1.32c1.43,1.38,3.31,2.52,4.21,4.19,2.12,3.97,4.78,4.61,8.98,3.29,6.64-2.08,13.48-3.48,20.55-5.25-.65-1.22-1.32-2.49-2.51-4.75,1.95.48,3.35.39,3.82,1.01,2.99,3.93,6.8,2.71,10.83,2.51,8.93-.43,17.9-.13,26.61-.13.76-4.76,1.39-8.69,2.02-12.63.75.09,1.5.19,2.24.28-.14,2.75-.29,5.49-.42,7.98,3.43-1.07,6.67-2.49,10.05-3.02,3.22-.51,6.59-.11,9.63-.11,1.12-2.05,1.98-3.62,2.84-5.2.39.11.78.22,1.17.33.19,1.48.39,2.96.66,4.98h27.36c.31-.7.91-2.08,1.95-4.45,2.88,10.29,12.51,8.79,18.84,12.61,7.33,4.43,15.32,7.77,23.16,11.66.34-1.28.8-2.99,1.25-4.7.53-.25,1.05-.5,1.58-.76-.8,10.66,8.41,11.47,13.65,16.15,1.71-1.33,3.2-2.48,4.68-3.63.4.29.8.58,1.2.88-.71,1.55-1.42,3.11-2.1,4.57,9,5.87,18.04,11.76,27.07,17.65l3.24,1.82c3.5,1.65,7,3.3,11.39,5.36,1.67,7.09,10.49,7.49,16.24,12.99.52-1.29.94-2.36,1.88-4.7,3.41,11.22,13.38,11.93,19.53,18.03.67-2.6,1.15-4.45,1.87-7.22,1.12,1.45,1.83,1.94,1.81,2.41-.5,11.34,10.03,12.66,16.19,17.95,1.48,1.27,2.48,3.11,3.98,4.34,5.23,4.29,10.59,8.43,16,12.71.4-1.16.88-2.55,1.36-3.94.39-.05.79-.1,1.18-.16.35,1.36.6,2.76,1.08,4.07,1.07,2.97,1.79,6.22,3.5,8.79,3.66,5.5,7.86,10.63,12.35,16.6,1.03-3.58,1.9-6.59,3.09-10.72,2.93,3.76,1.81,6.84.58,9.38-1.68,3.47-.83,5.98.92,9.17,9.51,17.3,18.76,34.75,27.92,52.24,2.08,3.98,3.43,8.33,5.24,12.8,1.1-.69,1.68-1.05,2.28-1.43,1.56,5.76,3.14,11.58,4.73,17.4.65-.06,1.3-.12,1.95-.18.6-1.91,1.21-3.82,1.81-5.75,1.3.78,2.76,1.65,4.39,2.62,0-.04.07.46-.11.57-5.52,3.34-5.07,7.57-2.21,12.5,2.26,3.88,5.7,8,5.73,12.03.06,6.65,3.88,11.46,5.69,17.17,1.68,5.3,3.79,10.51,6.26,15.48.77,1.55,3.31,2.23,4.18,2.77.05,0-1.27.09-3.42.25.84,2.48.98,5.53,2.53,6.7,1.62,1.23,4.6.65,7.14,2.01-1.76.27-3.52.55-5.73.89.46,2.66.92,5.34,1.44,8.35,2.17.1,4.27.2,6.37.29.06.26.11.51.17.77-2.09.51-4.18,1.02-6.27,1.52.57,1.53,1.22,3.27,1.8,4.81,2.19-.66,4.27-1.28,6.35-1.9.16.39.32.77.48,1.16-.86.43-1.7.92-2.59,1.29-2.84,1.16-3.73,3.12-2.5,5.97.66,1.52,1.54,2.98,2.01,4.55,1.18,4,1.49,7.6-2.52,10.74-2.08,1.63-3.04,4.67-4.44,6.95-1.07.62-2.79,1.02-3.42,2.08-1.95,3.26-3.48,6.77-5.21,10.17-.19.38-.54.9-.87.95-5.29.76-3.37,3.96-2.52,5.79-3.52,1.9-6.7,3.62-11.11,6,4.93,10.84,8.96,22.36,15.12,32.59,10.17,16.92,21.55,33.13,32.79,49.38,2.78,4.02,6.83,7.24,10.57,10.5,12.43,10.83,25.69,20.39,40.2,28.45,14.57,8.09,28.28,17.72,42.48,26.48,16.25,10.02,32.38,20.28,49.06,29.52,7.39,4.09,11.24,8.61,9.35,17.06-6.28-3.66-12.58-7.28-18.83-10.98-10.72-6.34-21.45-12.67-32.1-19.12-7.82-4.74-15.33-10.04-23.36-14.37-6.46-3.48-12.66-7.94-20.65-7.85-16.6.2-33.25-.95-49.7,2.42-12.67,2.6-25.46,4.72-38,7.82-8.68,2.15-17.6,4.55-25.41,8.71-20.21,10.77-40.08,22.23-59.66,34.12-11.1,6.75-21.18,15.09-27.68,26.81-1.63,2.94-4.29,6.05-.07,9.11,3.63,5.34,7.78,10.4,10.77,16.07,5.53,10.48,13.08,18.51,23.97,23.43,2.52,1.13,4.7,3.11,6.86,4.91,4.07,3.41,7.69,7.48,12.07,10.41,20.25,13.57,40.49,27.19,61.14,40.13,21.12,13.23,43.15,25.02,63.95,38.7,14.39,9.47,28.29,20.26,37.97,34.93,16.56,25.09,33.98,49.69,46.41,77.28,2.38,5.28,5.1,10.42,7.67,15.62-3.63.06-7.25.13-10.88.19-.04-.3-.14-.58-.3-.84-2.05-4.12-4.22-8.18-6.12-12.37-12.1-26.73-29.14-50.51-45.17-74.85-7.56-11.48-18.7-19.58-29.6-27.72-.32-.31-.64-.61-.96-.92,0,0-.02-.01-.02-.01-4.95-3.13-9.9-6.27-14.85-9.4-8.33-5.55-16.27-11.82-25.06-16.51-38.1-20.34-74.65-42.95-107.43-71.28-2.64-2.28-5.54-4.25-8.34-6.33-.51-.38-1.15-.59-1.96-.99-2.55,17.16-16.67,24.09-28.69,32.48-6.04,4.22-13.18,7.27-20.25,9.53-15.78,5.06-31.15,3.62-45.3-5.56-2.16-1.4-4.15-3.47-5.48-5.68-6.85-11.36-8.58-24.18-10.26-36.3-14.43-1.36-28.95-2.76-43.48-4.09-22.14-2.03-44.28-4.01-66.42-6.01-3.16.64-6.63.68-9.44,2.04-12.75,6.17-21.07,17.06-26.55,29.41-5.43,12.23-9.5,25.25-12.55,38.3-5.38,22.95-9.52,46.19-14.19,69.3ZM1154.69,443.36c-.36.36-.73.71-1.09,1.07l.06-.07c-.36.34-.72.68-1.08,1.03,0,0,.03-.05.03-.05-13.48,8.7-26.61,18.01-40.53,25.93-12.23,6.96-25.26,12.56-38.11,18.37-4.8,2.17-6.78,5.2-6.57,10.33.44,10.63.94,21.28.82,31.91-.11,9.29.02,18.79-1.88,27.78-2.39,11.3-6.75,22.18-10.27,33.26,3.11-1.65,6.46-3.43,9.81-5.22,13.04-7.23,26.77-13.46,38.99-21.88,31-21.36,60.28-44.85,84.92-73.66,3.72-4.35,4.32-7.95,3.72-13.65-2.09-19.81-3.1-39.74-4.13-59.64-.56-10.87,5.08-18.24,14.82-22.59,3.27-1.46,6.65-2.68,9.58-3.86-4.32-10.88-8.9-21.51-12.74-32.41-2.35-6.66-3.7-13.7-5.21-20.63-1.08-4.99-1.49-10.13-2.56-15.12-1.18-5.49-2.64-10.94-4.29-16.3-.53-1.73-1.7-3.8-3.18-4.61-7.7-4.19-15.45-8.35-23.48-11.86-6.98-3.05-14.35-5.22-21.55-7.77-27-9.57-54.16-18.23-83.37-17.25-4.28.14-8.87.24-12.83-1.08-8.01-2.67-16.08-3.14-23.97-1.13-12.84,3.27-25.55,7.13-38.12,11.32-10.71,3.57-21.28,7.64-31.66,12.07-7.18,3.07-8.67,2.55-10.09-5.29-.96-5.3-2.38-10.52-3.61-15.87-7.83,2.07-14.98,3.95-22.14,5.84-.71.41-1.42.82-2.13,1.22,0,0,.08-.06.08-.06-.69.35-1.38.69-2.07,1.04l.03-.03c-26.97,12.35-49.15,30.25-65.5,55.52,9.9,7.12,19.51,13.04,30.77,15.29,9.19,1.83,18.53,2.89,27.8,4.29h-.14c1.8,1.86,4.49,3.43,5.24,5.66,3.33,9.85,7.86,19.75,8.69,29.91,1.41,17.14.6,34.49.21,51.74-.13,5.64-1.88,11.24-2.62,15.36,4.4,2.36,8.02,4.3,11.63,6.24,4.85,5.92,5.07,6.18,10.48,1.77,6.7-5.46,13.62-10.37,21.77-13.5,3.46-1.33,5.14-3.98,5.07-8.19-.1-6.44.87-12.89,1.06-19.35.11-3.85-.57-7.72-.58-11.59,0-2.06.02-4.59,1.13-6.08,4.56-6.09,9.36-12.05,14.51-17.64,1.46-1.58,4.41-2.41,6.7-2.46,4.61-.11,9.24.79,13.87.86,14.9.23,29.61-1.66,43.86-5.86,13.99-4.12,27.77-9.01,41.59-13.71,11.62-3.95,23.24-7.9,34.71-12.25,8.81-3.34,17.47-7.11,26.03-11.06,6.38-2.94,10.15-3.1,14.77,2.16,5.44,6.19,9.78,13.34,15.08,19.66,8.12,9.67,8.43,20.66,5.87,32.02-4.28,18.99-15.39,34.34-27.24,49.21l-1.04.95s.08-.12.08-.12ZM846.97,377.59c1.6,2.97,3.21,5.93,4.81,8.9-.13,2.98-.36,5.97-.34,8.95,0,1.7.42,3.39.65,5.09-1.06,2.01-2.27,3.95-3.16,6.03-2.22,5.2-5.94,8.85-11.21,10.7-12.08,4.25-24.21,8.32-36.81,12.63,2.21,1.65,4.41,3.29,6.6,4.92,11.1,12.86,22.17,25.69,39.65,30.28,3.47.91,4.43,4.08,4.53,7.54.2,7.16.6,7.5,8.25,8.7.55.13,1.1.25,1.65.38l1.01.53c1.55.87,3.1,1.73,4.65,2.6,2.89,1.7,5.79,3.41,9.38,5.53,0-2.25,0-3.24,0-3.01,2.21,1.65,4.79,3.57,8.22,6.13.37-2.96.54-4.35.57-4.57.39.84.86,3.82,2.08,4.16,6.4,1.82,12.98,2.97,19.5,4.35,1.1.12,2.2.25,3.3.37,15.45,2.67,27.09-6.04,39.43-12,.38.19,1.33,1.06,2.28,1.06,7.75.02,15.5.01,23.24-.34,1.58-.07,3.09-1.67,4.13-2.27-.43,1.96.88,3.2,4.06,3.56,3.6.4,7.11,1.6,10.69,2.28,1.34.26,2.78.04,4.16.04,2.03,2.88,4.03,6.43,8.84,6.53l-.08-.08c.5,4.3,4.13,3.41,6.81,4.11q7.73,2.57,12.04-3.92c.08-.11.29-.14.44-.2-.23,6.19.76,7.01,6.87,5.46-.24-1.52-.48-3.06-.62-3.98,1.01,1.26,2.28,2.84,3.55,4.43.88-.83,1.76-1.66,2.53-2.38,1.69,2.92,4.43,1.52,7.16.29,1.66-.34,3.32-.67,4.98-1.01,4.54-.32,7.56-1.82,6.82-7.31-.51-3.75,1.68-6.27,5.01-7.82,11.29-5.24,22.78-10.1,33.82-15.83,12.52-6.49,24.86-13.41,36.88-20.78,14.88-9.12,25.15-22.72,32.98-37.95,3.66-7.13,6.63-15.1,7.68-22.98,2.2-16.48-9.14-27.17-18.92-38.18-.55-.62-2.74-.24-3.95.23-15.58,6.13-30.98,12.75-46.72,18.46-14.03,5.09-28.47,9.05-42.65,13.77-13.55,4.5-27,9.41-41.46,9.9-9.58.32-19.18.1-28.77.31-2.03.04-4.71.2-5.95,1.44-5.38,5.38-12.11,10.29-9.61,19.68.4,1.52-.18,3.3-.31,4.95-.58,7.43-2.1,14.93-1.51,22.27.66,8.23-3.45,13-9.68,15.63-9.51,4.02-17.43,10.02-25.22,16.49-4.44,3.68-12.27,2.43-15.87-2.25-2.63-3.42-5.31-6.16-10.33-4.45-1.93.66-4.31.28-6.44,0-4.5-.59-6.01-3.7-4.42-7.96,1.73-4.63,3.66-9.28,4.61-14.1,5.18-26.39,3.92-52.53-3.87-78.3-1.2-3.98-3.48-6.35-8.34-6-10.69.76-20.68-2.91-30.36-6.66-7.96-3.09-15.31-7.76-23.35-11.95-2.67,7.26-5.5,14.93-8.33,22.6,1.16,7.82,7.01,13.9,14.41,15.01ZM647.31,665.24c0,.65,0,1.29,0,1.94-.64,7.55,1.97,11.87,9.27,12.67,7.44.82,14.58,3.59,22.52,1.82,7.37-1.64,9.87-4.57,7.01-12.01-2.61-6.79-3.33-7.13-10.05-4.68-8.89-.3-17.78-.59-26.68-.89-.64-.19-1.28-.38-1.91-.57-.06.57-.11,1.15-.17,1.72ZM680.21,646.28l.5-1.17-1.67-.13c-10.93-.84-21.85-1.68-32.78-2.52-3.83,5.17-3.83,8.42.97,12.06,8,6.06,17.31,5.37,26.48,3.9,6.82-1.09,6.78-1.39,6.12-8.27.13-1.29.25-2.59.38-3.88ZM1112.83,622.25l-1.05-2.04h.02c-4.03-4.95-8.01-9.94-12.15-14.82-.47-.56-1.95-.84-2.65-.53-5.43,2.35-11.05,4.43-16.1,7.46-8.93,5.37-17.26,11.77-26.28,16.96-14.22,8.19-28.58,16.19-43.3,23.44-19.78,9.74-40.92,16.79-58.99,29.9-2.57,1.86-4.96,3.97-7.43,5.97.19.3.38.59.57.89,3.78-.51,7.56-1.02,11.33-1.52,18.54,1.06,37.1,2.01,55.63,3.2,11.58.74,23.32.88,34.67,2.99,15.78,2.94,31.54,4.27,47.52,4.1,3.15-.03,5.38-.88,7-3.64,7.6-12.99,18.18-22.23,33.07-25.97,2.72-.68,5.41-1.46,8.11-2.19,1.57-.2,3.14-.4,5.65-.72-1.79-5.14-2.33-10.41-5.11-13.89-5.85-7.32-12.75-13.82-19.47-20.41-3.43-3.36-7.38-6.19-11.1-9.25l.04.06ZM675.14,688.24c-8.01,3.12-15.2-3.34-23.49-1.89,0,1.87,0,3.83,0,5.79.94,1.45,1.61,3.84,2.87,4.19,4.23,1.21,8.71,2.51,13.02,2.28,6.18-.34,12.27-2.15,18.45-3.04,3.69-.53,4.3-2.64,3.5-5.61-.77-2.85-1.96-5.47-5.81-4.31-2.85.85-5.69,1.73-8.54,2.6ZM650.8,628.14c-4.77,5.35-4.3,7.43,2.33,8.83,3.55.75,7.22.99,10.84,1.31,6.07.54,12.16.89,18.23,1.48,4.42.43,7.53-2.56,7.31-7.58-2.8,0-5.64.24-8.43-.05-4.87-.52-10.15-.15-13.47-4.97-4.15-9.27-9.12-9.91-14.96-1.89-.67.92-1.25,1.91-1.87,2.87ZM1165.66,741.24c.84-.35,1.68-.71,2.51-1.06,9.57-4.24,17.07-11.21,23.88-18.86,1.67-1.88,2.32-5.15,2.44-7.83.42-9.3-2.14-17.93-8.53-24.75-6.56-6.99-12.89-15.06-24.39-13.21-11.02-1.39-21.45,1.62-31.91,4.35-.93.24-1.83.82-2.62,1.41-8.66,6.45-15.28,14.75-21.02,23.78-.99,1.55-1.51,3.92-1.16,5.7,1.49,7.66,3.17,15.3,5.19,22.84,1.92,7.16,6.93,11.84,13.91,13.75,14.74,4.02,28.9,2.97,41.79-6.15l-.1.04ZM705.33,605.85c-7.41-4.59-7.39-4.52-13.93,1.28-3.55,3.15-7,6.18-12.45,6.13-4.67-.04-7.63,4.42-7.06,9.13,1.75,1.2,3.45,3.34,5.27,3.44,7.2.4,14.43.16,22.82.16-8.55,7.13-3.5,15.91-4.16,24.67,5.51-1.53,11.57-2.57,15.27-6.09,3.99-3.8,6.41-9.7,8.31-15.11,1.17-3.34,1.53-8.55-.3-11.01-3.65-4.9-9.07-8.48-13.76-12.61ZM1285.35,353.76c-4.23-10.85-8.46-21.7-12.69-32.55l-1.69-2.5c-2.3-4.69-4.6-9.39-6.9-14.07h-6.01c.01-.24.03-.48.04-.72,1.66-.54,3.33-1.08,4.92-1.59-8.91-17.54-14.37-36.44-26.08-53.28-.73,3.11-1.22,5.2-1.71,7.28-.92.69-1.83,1.38-3.96,2.99.7-3.7,1.13-5.93,1.55-8.16.38-2.57,1.94-5.82.93-7.6-5.57-9.79-11.44-19.45-17.85-28.71-6.9-9.97-15.13-18.88-25.26-25.72-1.36-.92-3.81-.8-5.58-.4-2.04.46-3.89,1.78-5.82,2.72-2.03.44-4.06.88-6.1,1.32-.18-.36-.37-.72-.55-1.08.79-.87,1.59-1.73,2.38-2.6,3.27-1.22,6.53-2.43,10.15-3.78-3.58-3.23-6.08-6.11-9.14-8.13-18.99-12.53-38.1-24.88-57.19-37.25-6.13-3.97-12.5-7.57-18.44-11.8-5.76-4.1-12.67-5.9-18.27-10.56-5.54-4.61-12.26-7.91-18.73-11.27-9.4-4.87-19.01-9.32-28.59-13.83-1.61-.76-3.53-1.23-5.31-1.23-15.45.01-30.92-.3-46.34.45-8.89.43-17.69,2.72-26.55,4.05-11.45,1.72-22.95,3.19-34.38,5.01-4.9.78-9.73,2.05-14.55,3.28-8.29,2.12-16.54,4.38-25.8,6.85,2.61,2.92,4.34,4.86,6.08,6.79,7.5,12.15,15.55,24.01,22.36,36.54,7.2,13.24,14.72,26.63,19.44,40.84,8.06,24.21,14.72,48.95,18.2,74.38.34,2.52,1.42,4.94,2.1,7.21,18.01-6.23,35.34-12.52,52.89-18.13,6.69-2.14,13.85-3.47,20.85-3.77,6.89-.29,13.84,1.58,20.79,1.81,15.74.53,31.58-.92,47.12,2.96,11.75,2.94,23.73,5.12,35.28,8.71,13.46,4.18,26.73,9.14,39.78,14.48,12.07,4.94,24.44,9.68,32.96,20.56,2.55,3.26,4.67,6.13,1.31,10.07-.47.55-.19,1.9.01,2.82,2.4,11.12,4.3,22.38,7.46,33.28,3.07,10.6,7.25,20.9,11.41,31.15.82,2.03,3.56,3.52,5.71,4.73,5.57,3.14,11.63,5.51,16.88,9.09,5.18,3.53,9.96,7.83,14.27,12.4,6.88,7.3,15.87,12.78,19.72,22.82,1.23,3.21,3.71,2.89,5.63.14,4.5-6.45,8.95-12.92,13.42-19.38,4.72-3.4,6.68-7.2,3.13-12.89-1.97-3.15-3.06-6.94-4.04-10.58-.95-3.51-1.03-7.25-1.91-10.79-.51-2.04-2.07-3.79-2.73-5.82-1.33-4.08-2.36-8.25-3.51-12.39-.36-1.38-.71-2.76-1.07-4.13ZM738.78,646.2c.09-1.42.19-2.85.29-4.41-5.82-.39-11.25-.76-17.28-1.17-.4.79-1.11,2.19-1.82,3.59-5.17,9.97-14.79,11.72-25.18,12.73,1.24,11.48,2.42,22.3,3.6,33.23,5.33,1.52,9.53.41,13.19-3.67,1.03-1.15,3.2-1.3,4.85-1.9-.22,1.92.27,4.56-.8,5.63-2.8,2.79-6.28,4.9-9.72,7.44,2.71,2.14,5.53,4.37,8.9,7.03,13.94-17.34,20.57-37.24,23.99-58.5ZM806.87,447.46c-.5-1.01-.75-2.43-1.56-2.95-2.21-1.41-5-3.8-6.94-3.32-3.83.96-2.02,4.36-1.27,7.07.93,3.35,1.38,6.82,2.36,10.15,3.35,11.39,5.72,23.24,10.52,34,7.08,15.87,15.74,31.05,24.08,46.33,5.58,10.23,12.44,19.36,24.96,21.81,3.01,1.14,6.01,2.27,9.02,3.41-.14-2.36-.98-3.72-1.82-5.09-3.46-5.65-7.5-11.03-10.27-17-5.17-11.13-8.71-22.82-10.01-35.16-1.04-9.85-2.89-19.62-3.94-29.47-.31-2.88-.92-4.25-3.8-5.3-9.45-3.46-18.09-8.37-24.78-16.14-2.31-2.68-4.38-5.57-6.56-8.36ZM648.94,330.77c3.73,5.65,7.44,11.3,11.19,16.93,1.61,2.42,3.76,2.85,5.83.81,4.35-4.31,9.48-8.24,12.5-13.37,3.42-5.84,8.13-9.27,13.72-11.9-3.75-10.83-7.27-21.48-11.14-32.01-3.41-9.28-7.21-18.41-10.84-27.6-.94-3.29-1.87-6.58-2.81-9.88-2.9,5.88-4.89,11.63-6.81,17.4-2.77,8.34-5.76,16.62-8.14,25.06-2.14,7.59-3.96,15.32-5.17,23.1-.57,3.71-3.77,8.4,1.66,11.46ZM660.44,356.18c-1.43-.92-2.85-1.83-5.2-3.34,0,8.02.05,14.8,0,21.59-.2,23.76-1.09,47.54-.48,71.28.78,30.21,2.8,60.38,4.24,90.57.25,5.15-.31,10.39.46,15.44,2.34,15.5,3.24,31.04,2.75,46.68-.11,3.49.25,7.01-.07,10.47-.43,4.62,1.45,6.48,5.94,5.97.93-.16,2.03-.06,2.75-.53,2.85-1.86,5.39-4.3,8.41-5.78,3.88-1.9,5.34-4.67,5.06-8.77-.39-5.62-1.26-11.27-.91-16.85,1.43-22.51-2.36-44.72-3.4-67.09-.23-4.97-.93-9.92-1.31-14.89-1.81-23.17-3.76-46.33-5.26-69.52-.46-7.09.62-14.26.58-21.39-.1-17.62-.45-35.25-.68-52.87-.03-1.9,0-3.81,0-7.12-3.69,5.53-7.92,6.75-12.86,6.13ZM722.74,701.92c-1.57,1.67-3.14,3.34-4.85,5.15.48.59.91,1.07,1.27,1.58,5.42,7.67,10.8,15.38,16.32,22.99.62.86,1.98,1.62,3.03,1.66,12.03.46,23.15-1.49,33.26-9.18,17.03-12.95,27.82-28.67,26.48-50.94-1.35-1.5-2.43-3.43-4.08-4.44-11.33-6.9-22.64-13.88-34.26-20.27-5.06-2.78-10.84-4.25-15.85-6.14-2.68,10.82-4.77,20.73-7.66,30.4-1.7,5.67-4.56,11.01-7.1,16.4-2.03,4.33-4.36,8.52-6.56,12.77ZM845.02,757.38c-.95-2.62-1.92-5.22-2.83-7.85-1.68-4.81-3.34-9.64-5-14.46-1.62-3.99-2.95-8.13-4.93-11.93-7.73-14.86-13.29-30.96-24.75-43.69-1.31-1.46-2.97-2.6-4.47-3.89-.36.26-.72.53-1.08.79.09,1.95.17,3.9.26,5.85-6.97,35.06-28.26,53.7-64.26,55.81.43,1.3.82,2.54,1.24,3.76,2.59,7.54,5.75,14.93,7.68,22.63,4.09,16.37,9.58,32.13,17.92,46.85,6.82,12.03,14.97,22.42,29.24,26.13,5.63,1.46,8.96,5.8,12.43,10.21,6.5,8.26,13.62,16.55,24.15,19.2,10.33,2.6,21.43,3.09,31.55-.69,11.46-4.28,22.14-10.46,31.67-18.43,2.45-2.05,3.5-3.83,3.22-7.07-1.64-19.04-2.84-38.12-4.59-57.14-1.56-17,4.18-32.77,8.42-48.6,2.5-9.34,8.63-17.71,13.13-26.52,1.7-2.2,3.4-4.39,5.79-7.49-2.32.61-3.56.86-4.75,1.27-18.83,6.51-35.56,16.7-51.18,28.94-6.43,5.04-11.28,10.94-13.91,18.79-.92,2.76-3.26,5.04-4.95,7.54ZM1369.47,575.18c.99.08,2.07.45,2.96.18,2.16-.66,4.23-1.62,6.33-2.45-1.77-1.55-3.37-3.41-5.36-4.59-3.27-1.93-6.87-3.29-10.2-5.13-4.18-2.31-8.24-4.85-12.34-7.31-1.7-1.02-3.57-1.88-5.04-3.18-11.64-10.19-22.53-21.05-31.36-33.9-6.1-8.87-12.7-17.41-19.34-25.9-11.68-14.95-18.46-32.29-24.25-50.03-3.14-9.61-7.72-17.84-15.85-24.13-4.05-3.13-7.25-7.34-11.2-10.62-5.78-4.8-10.91-10.71-19.36-12.71,1.84,7.17-2.5,8.27-7.64,8.58-.49.03-.98.18-1.47.26-10.69,1.69-16.65,8.08-16.61,18.89.04,10.62.4,21.28,1.36,31.86.8,8.7,2.09,17.47,4.35,25.89,1.22,4.53,1.16,7.49-1.84,11.18-23.46,28.94-51.79,52.51-81.61,74.44-7.58,5.58-15.42,10.82-22.95,16.08,23.09,25.76,47.48,50.37,62.35,82.67,2.62.29,5.81.35,8.87,1.04,4.49,1,5.82-1.28,7.38-5,1.94-4.6,4.71-9.01,7.88-12.89,3.02-3.69,7.01-6.58,10.57-9.83,20.1-15.09,41.9-27.32,64.04-39.1,21-11.18,43.92-16.17,66.81-20.67,14.2-2.79,29-2.53,43.52-3.64ZM915.71,886.14c.32-.11.63-.23.95-.34-.53-4.57-1.34-9.13-1.52-13.72-.64-15.63.4-31.01,3.42-46.53,4.92-25.25,8.69-50.74,16.71-75.27,4.48-13.71,8.49-27.77,18.76-38.73,4.22-4.51,8.43-9.02,13.46-14.41-3.31,0-5.78-.36-8.1.06-8.17,1.47-16.34,2.99-24.4,4.99-2.54.63-4.74,2.73-7.01,4.28-2.5,1.7-5.06,3.37-7.32,5.36-2.17,1.92-4.91,3.91-5.8,6.43-3.85,10.88-7.16,21.96-10.58,32.99-7.94,25.61-5.44,51.59-2.84,77.62.91,9.03.85,18.15,1.65,27.19.39,4.35.66,9.35,2.96,12.71,2.73,4,6.59,6.97,6.7,12.49.03,1.64,1.93,3.25,2.97,4.87ZM819.16,379.91c5.96,3.3,9.01,11.87,5.76,17.62-1.29,2.3-4.43,4.23-7.08,4.86-1.97.47-4.47-1.92-6.8-2.09-1.8-.14-3.79,1.06-5.48,2.02-.21.12.7,2.58,1.38,3.78,1.03,1.83,2.92,3.36,3.38,5.28,1.55,6.34,1.44,6.63,7.58,4.87,2.74-.79,5.31-2.53,7.67-4.24,3.8-2.75,7.36-5.82,11.79-9.37,3-11.87-2.08-22.4-11.11-31.94-2.42,3.14-4.74,6.15-7.09,9.2ZM976.22,506.65c-.06.66-.13,1.33-.19,1.99-1.31,0-2.63.07-3.93-.01-5.93-.38-11.86-1.02-17.79-1.07-1.48-.01-2.98,1.81-4.47,2.8,1.32,1.17,2.46,2.73,4,3.41,1.76.78,3.88,1.1,5.82,1.04,7.39-.24,14.93.1,22.09-1.36,5.22-1.07,5.47-5.87,1.26-9.39-5.86-4.91-12.58-5.83-19.62-3.52-1.48.48-2.31,2.92-3.44,4.46,1.68.55,3.33,1.47,5.04,1.58,3.73.24,7.49.08,11.24.08ZM689.75,662.55v-20.5c-4.91,3.03-5,13.19,0,20.5Z"/>
  <path class="cls-5" d="M1455.48,935.65c-2.56-5.2-5.28-10.33-7.67-15.62-12.43-27.59-29.85-52.19-46.41-77.28-9.69-14.68-23.58-25.47-37.97-34.93-20.8-13.68-42.84-25.48-63.95-38.7-20.66-12.94-40.89-26.56-61.14-40.13-4.38-2.93-7.99-7-12.07-10.41-2.15-1.81-4.34-3.78-6.86-4.91-10.89-4.91-18.44-12.94-23.97-23.43-2.99-5.67-7.14-10.73-10.77-16.07,1.96-2.78,3.47-6.09,5.97-8.23,6.04-5.17,12.71-9.59,18.82-14.68,26.59-22.13,57.76-35.99,89.5-48.3,14.04-5.44,29.47-7.48,44.4-10.42,7.09-1.4,14.49-1.9,21.72-1.73,9.07.21,18.13,1.47,27.17,2.42,2.42.25,5.42.27,7.07,1.68,9.75,8.28,22.21,12.3,31.68,21.28,5.46,5.18,13.44,7.69,20.27,11.44,9.57,5.25,19.13,10.53,28.69,15.79.09,1.66.26,3.31.26,4.97.01,94.02.01,188.03.01,282.05,0,1.62,0,3.24,0,5.2h-24.76Z"/>
  <path class="cls-24" d="M671.06,704.66c6.82-1.38,13.62-2.93,20.49-3.98,1.11-.17,3.49,1.7,3.7,2.9,4.58,26.49,8.6,53.04,8.03,80.07-.33,15.63-.36,31.28,0,46.91.81,35.04,1.95,70.07,2.96,105.11-5.34,0-10.67-.02-16.01-.03-1.34-6.63-3.3-13.2-3.9-19.89-1.68-18.77-3.54-37.58-3.98-56.4-.68-29.17.36-58.38-3.18-87.44-1.06-8.68-1.59-17.43-2.66-26.12-1.69-13.73-3.62-27.43-5.44-41.15Z"/>
  <path class="cls-17" d="M995.33,1054.84v-36.55c-7.04,3.16-13.24,6.29-19.69,8.74-6.13,2.33-12,.93-16.49-3.85-4.49-4.77-3.56-10.52-1.26-15.93,3.39-7.98,8.68-14.61,16.08-19.21,5.85-3.64,12.22-5,19.11-2.94,2.01.6,4.22.81,6.33.73,6.23-.24,10.3,2.94,9.03,8.85-3.94,18.32,1.31,36.4.63,54.59-.15,4.11-.28,8.42-1.57,12.24-2.36,6.98-9.15,9.42-15.17,5.23-5.54-3.86-10.6-8.56-15.19-13.52-1.16-1.25-.48-5.41.74-7.36,1.61-2.58,4.71-3.02,7.34-.59,3.41,3.14,6.75,6.36,10.13,9.57ZM968.54,1013.93c2.35.77,2.85,1.12,3.26,1.04,8.56-1.77,14.66-7.43,20.42-13.39,1.43-1.48.87-4.36-1.96-4.16-4.15.28-9.34.09-12.11,2.43-4,3.39-6.22,8.87-9.61,14.09Z"/>
  <path class="cls-12" d="M1479.97,643.43c-9.56-5.27-19.12-10.54-28.69-15.79-6.83-3.74-14.81-6.26-20.27-11.44-9.47-8.98-21.93-13-31.68-21.28-1.65-1.4-4.65-1.42-7.07-1.68-9.05-.95-18.1-2.21-27.17-2.42-7.23-.17-14.63.33-21.72,1.73-14.92,2.94-30.35,4.98-44.4,10.42-31.74,12.3-62.92,26.17-89.5,48.3-6.11,5.09-12.79,9.51-18.82,14.68-2.5,2.14-4.01,5.45-5.97,8.23-4.22-3.06-1.56-6.17.07-9.11,6.51-11.72,16.58-20.07,27.68-26.81,19.58-11.89,39.45-23.35,59.66-34.12,7.81-4.16,16.73-6.56,25.41-8.71,12.54-3.11,25.33-5.23,38-7.82,16.45-3.37,33.1-2.23,49.7-2.42,8-.09,14.19,4.37,20.65,7.85,8.04,4.32,15.54,9.63,23.36,14.37,10.65,6.45,21.38,12.78,32.1,19.12,6.25,3.7,12.55,7.32,18.83,10.98-.06,1.99-.12,3.97-.19,5.96Z"/>
  <path class="cls-16" d="M1147.62,935.79c-.57-1.69-1.01-3.43-1.75-5.05-5.54-12.11-10.69-24.4-10.02-38.04.24-4.85,1.79-9.71,3.29-14.39,1.1-3.46.91-6.32.07-9.94-1.18-5.07-1.22-10.9.08-15.94,3.51-13.62,7.74-27.07,14.43-39.6,1.21-2.27,1.17-5.17,2.16-7.59,3.55-8.62,7.3-17.16,10.97-25.74.59.17,1.19.34,1.78.51-.71,7.39-.69,14.93-2.28,22.13-3.6,16.32-8.54,32.35-11.82,48.72-1.62,8.11-.79,16.71-1.03,25.09-.08,2.81.68,5.9-.23,8.4-3.1,8.57-.74,16.61,1.26,24.85,2.41,9.89,8.22,17.97,13.24,26.49-6.72.04-13.44.08-20.16.12Z"/>
  <path class="cls-10" d="M787.54,1008.31c7.04,0,14.08-.07,21.12.03,3.82.06,7.67.17,11.44.71,3.46.5,6.77,1.88,5.92,6.36-.73,3.87-3.12,5.88-7.4,5.7-12.3-.53-24.62-.85-36.93-1.23-.98-.03-1.96.09-4.21.2.98,5.53,1.79,10.79,2.86,16,.71,3.44.31,6.53-2.95,8.18-3.07,1.56-6.07.61-7.53-2.61-1.54-3.42-3.47-7.07-3.59-10.67-.61-18.29-.69-36.6-.93-54.91-.02-1.16,0-2.34.23-3.47.62-3.12,2.48-5.66,5.7-4.95,2.15.47,4.98,2.55,5.54,4.48,1.04,3.56.73,7.55.8,11.36.1,5.11.02,10.23.02,16.2,4.29-2.65,7.78-5.12,11.54-7.05,7.51-3.85,15.08-7.63,22.83-10.96,2.92-1.25,6.74-2.07,8.37,2.42,1.62,4.43-.18,7.07-4.39,8.97-9.72,4.38-19.29,9.08-28.92,13.66.15.53.31,1.06.46,1.59Z"/>
  <path class="cls-17" d="M1109.02,1014.23c-.28,1.77-.96,4.48-1.11,7.22-.37,6.75,3.52,11.68,10.27,13.35,9.28,2.3,17.43-.23,24.69-6.03,2.29-1.83,4.25-2.95,7.03-.94,2.95,2.13,3.53,4.97,2.15,7.87-1.02,2.13-2.74,4.39-4.75,5.49-10.67,5.81-21.94,8.58-34.02,5.02-11.1-3.27-18.27-13.27-18.38-25.64-.11-12.65,10.4-35.01,29.51-38.94,6.76-1.39,15.54,2.47,18.43,8.7,3.13,6.72,1.48,13.15-5.73,17.52-5.75,3.49-12.1,6.24-18.52,8.26-2.63.83-6.13-1.13-9.59-1.9ZM1127.84,995.14c-8.41-.9-12.31,1.94-14.68,10.41,10.21-.95,14.82-4.11,14.68-10.41Z"/>
  <path class="cls-17" d="M846.26,1011.67c-.43,1.96-.73,3.09-.93,4.24-2.42,13.93,4.83,21.8,18.88,19.41,5.34-.91,10.44-3.94,15.32-6.61,2.48-1.35,4.78-3.4,6.9-.73,1.52,1.92,2.71,5.04,2.29,7.3-.42,2.24-2.65,4.78-4.77,5.94-10.5,5.75-21.66,8.48-33.58,5.12-11.24-3.17-18.11-12.49-18.63-24.92-.7-16.86,12.82-35.29,29.1-39.66,6.66-1.79,15.7,2.24,18.64,8.32,3.31,6.83,1.61,13.39-5.87,17.91-5.76,3.48-12.18,6-18.53,8.37-3.56,1.33-6.82-.14-8.83-4.69ZM849.87,1005.51c10.26-.76,15.36-4.4,14.45-10.32-7.93-1.06-12.16,1.96-14.45,10.32Z"/>
  <path class="cls-17" d="M910.23,1004.33c1.03-1.13,2.05-2.27,3.08-3.4,5.16-5.62,9.89-11.74,15.6-16.75,7.89-6.93,13.49-4.91,16.13,5.16.71,2.7.83,5.55,1.12,8.35,1.2,11.37,2.34,22.74,3.55,34.11.4,3.74-.79,6.69-4.4,7.98-4.04,1.44-6.16-1.33-6.8-4.59-1.44-7.31-2.63-14.7-3.36-22.11-.51-5.25-.1-10.59-.1-16.81-1.56,1.05-2.5,1.5-3.21,2.19-8.31,8.13-14.6,17.42-18.24,28.66-.84,2.6-4.85,4.97-7.84,5.76-1.57.41-5.06-2.45-5.97-4.57-1.61-3.71-2.8-8.04-2.59-12.03.65-12.58,1.68-25.18,3.28-37.67.8-6.25,3.17-7.6,7.76-6.53,5.17,1.21,4.82,4.99,4.15,9.06-1.23,7.47-2.23,14.98-3.33,22.47.39.24.78.48,1.18.72Z"/>
  <path class="cls-17" d="M1225.34,1006.39c3.65-4.58,6.29-8.38,9.42-11.72,3.96-4.23,7.97-8.56,12.6-11.99,6.25-4.64,10.92-2.93,13.31,4.41,1.06,3.26,1.49,6.78,1.86,10.22,1.25,11.53,2.32,23.09,3.5,34.63.38,3.75-.89,6.63-4.49,7.87-3.76,1.3-5.91-1.19-6.57-4.29-1.42-6.64-2.67-13.36-3.27-20.11-.54-6.08-.11-12.24-.81-18.59-6.8,5.48-12.44,11.59-16.22,19.19-1.75,3.53-2.34,7.76-4.57,10.89-1.93,2.7-5.2,5.08-8.34,5.99-1.43.41-4.47-2.75-5.88-4.89-1.3-1.96-1.76-4.69-1.98-7.13-1.31-14.53-.12-28.93,3.14-43.11.5-2.17,2.57-5.04,4.51-5.62,4.87-1.45,8,1.71,7.4,6.91-.78,6.77-1.87,13.51-2.8,20.26-.26,1.92-.44,3.86-.79,7.06Z"/>
  <path class="cls-17" d="M1311.37,982.86c-9.34.22-11.77-.67-11.86-5.4-.16-8.75,7.77-5.43,12.09-7.48.62-5.45,1.07-10.88,1.92-16.25.48-3.07,1.7-5.87,5.83-5.23,3.68.57,5.62,2.57,5.6,6.37-.02,4.79,0,9.58,0,14.28,5.12,1.02,9.87,1.7,14.45,2.98,3.07.86,6.19,2.55,4.97,6.7-1.19,4.06-3.91,5.9-8.36,4.94-3.88-.83-7.84-1.3-12.09-1.98-.18,1.15-.41,2.06-.44,2.97-.49,14.78-.94,29.57-1.43,44.35-.12,3.75.43,6.97,3.38,9.95,1.4,1.41,1.71,4.97,1.01,7.06-.64,1.9-3.09,3.99-5.11,4.49-5.51,1.35-10.16-1.3-11.53-6.82-1.09-4.43-1.41-9.2-1.19-13.78.71-15.1,1.82-30.18,2.76-45.27.04-.62,0-1.24,0-1.87Z"/>
  <path class="cls-17" d="M1392.57,1032.82c-1.36-2.49-2.12-4.03-3.01-5.48-5.11-8.34-10.31-16.63-15.36-25.01-1.1-1.83-1.83-3.92-2.48-5.96-3.91-12.33,1.33-21.01,14.14-22.35,4.99-.52,10.29.18,15.2,1.37,2.54.61,5.03,3.17,6.59,5.48.91,1.36.67,4.55-.38,5.87-.96,1.21-3.77,1.59-5.62,1.32-3.42-.5-6.71-1.86-10.1-2.65-4.31-1.01-7.84,1.32-7,5.62,1.07,5.53,3.25,10.99,5.81,16.04,2.07,4.09,5.8,7.31,8.06,11.33,2.23,3.99,4.29,8.36,5.1,12.8,1.8,9.86-5.89,17.15-15.81,15.66-4-.6-6.71-2.79-7.81-6.72-1.22-4.37,1.37-7.49,5.93-7.31,1.79.07,3.58.01,6.74.01Z"/>
  <path class="cls-3" d="M1176.14,992.37c7.78-4.17,15.57-5.92,23.83-3.44,3.88,1.17,6.53,3.45,5.24,8.07-.93,3.34-2.78,4.87-6.6,4.21-14.56-2.51-22.06,3.38-24,18.12-1.13,8.55-2.57,17.07-4.19,25.55-1.26,6.59-2.78,7.7-7.44,6.67-3.56-.79-6.56-5.86-5.18-10.04,5.46-16.41,4.38-33.42,5.03-50.28.09-2.31.18-4.65.66-6.9.73-3.43,3.61-4.59,6.47-3.94,1.79.41,3.72,2.36,4.58,4.11,1.05,2.15,1.04,4.81,1.6,7.85Z"/>
  <path class="cls-4" d="M671.06,704.66c1.83,13.71,3.76,27.41,5.44,41.15,1.07,8.68,1.6,17.43,2.66,26.12,3.53,29.07,2.5,58.28,3.18,87.44.44,18.82,2.3,37.63,3.98,56.4.6,6.69,2.56,13.26,3.9,19.89-2.41,0-4.83,0-7.24,0-1.05-12.42-2.2-24.84-3.15-37.27-2.36-31.01-5.09-62.03-3.66-93.16.76-16.61-2.71-32.7-4.5-49-.47-4.29-1.42-8.61-1.25-12.88.46-11.6-1.58-22.83-4.09-34.04-.28-1.25-.22-2.58-.38-4.65h5.1Z"/>
  <path class="cls-3" d="M1083.08,994.34c-.47,11.31-1.5,22.63-1.14,33.91.16,4.96,2.61,10.13,5.05,14.65,1.61,2.97,2.84,5.14.47,7.98-2.66,3.17-6.16,2.94-8.96,1.02-2.31-1.58-4.52-4.23-5.34-6.86-1.56-5.02-3.03-10.38-2.91-15.57.48-20.63,1.54-41.24,2.5-61.85.14-2.97.9-5.91,1.33-8.87.67-4.61,3.78-5.56,7.66-4.87,3.74.66,3.68,3.51,3.48,6.57-.73,11.29-1.31,22.6-1.94,33.9-.07,0-.14,0-.21-.01Z"/>
  <path class="cls-10" d="M1341.8,1012.21c1.99-7.68,3.58-14.96,5.84-22.03,1.21-3.81,4.11-6.47,8.68-6.13,4.74.35,6.45,3.63,4.53,7.99-2,4.53-4.31,9.09-5.22,13.88-1.93,10.17,1.45,19.08,8.56,26.48,2.72,2.83,3.55,5.82.97,8.75-2.76,3.13-6.68,2.98-9.34.24-3.05-3.15-5.75-6.94-7.55-10.92-2.63-5.83-4.32-12.07-6.45-18.25Z"/>
  <path class="cls-10" d="M1286.4,983.99c6.64.16,8.65,3.79,6.14,8.49-8.5,15.92-7.24,26.96,4.04,40.71,1.37,1.67,1.75,5.44.83,7.4-1.55,3.29-5.32,3.45-8.23,1.69-2.31-1.4-4.38-3.6-5.86-5.9-8.72-13.5-10.88-27.88-5.03-43.1.82-2.14,1.72-4.45,3.23-6.07,1.56-1.68,3.92-2.62,4.89-3.23Z"/>
  <path class="cls-7" d="M1074.21,935.6c11.8-3.65,21.52-10.03,28.36-20.63,5.59-8.67,11.61-17.06,17.08-25.05.2,3.93.97,8.91-1.78,13.88-4,7.22-7.19,14.9-11.45,21.95-2.26,3.74-6.04,6.55-9.14,9.78-7.69.03-15.38.05-23.06.07Z"/>
  <path class="cls-7" d="M1133.35,935.45c-5.55-16.96-4.81-34.16-2.69-51.41.42-.02.84-.03,1.26-.05,0,3.9,0,7.81,0,11.71.01,13.72,1.95,26.89,10.54,38.26.35.46.26,1.25.39,1.89-3.17-.13-6.33-.26-9.5-.39Z"/>
  <path class="cls-10" d="M1349.8,960.57c.52,4.04-2.28,5.88-5.56,5.86-3.39-.02-5.86-2.41-5.78-6.18.08-3.74,2.17-5.6,6-5.72,4.24-.14,5.55,2.12,5.34,6.04Z"/>
  <path class="cls-10" d="M1281.79,960.59c.54,4.06-2.32,5.87-5.57,5.85-3.37-.02-5.84-2.42-5.75-6.2.08-3.76,2.18-5.59,6.01-5.71,4.25-.13,5.54,2.15,5.32,6.06Z"/>
  <path class="cls-9" d="M888.99,539.31c2.71.09,5.41.18,8.12.27-1.52,2.3-3.05,4.6-4.57,6.89-.74-.12-1.49-.24-2.23-.36-.44-2.27-.88-4.53-1.32-6.8Z"/>
  <path class="cls-7" d="M1122.07,130.89c-1.08-.61-2.16-1.21-3.24-1.82.92-2.71,1.85-5.43,2.77-8.14.64.16,1.28.33,1.92.49-.48,3.16-.96,6.31-1.45,9.47Z"/>
  <path class="cls-24" d="M868.22,534.34c2.55.99,5.11,1.97,7.66,2.96-.48,1.51-.96,3.01-1.44,4.52-.51.16-1.02.33-1.53.49-1.57-2.66-3.13-5.31-4.7-7.97Z"/>
  <path class="cls-9" d="M921.62,539.99c.77.09,1.53.18,2.3.27-.8,2.62-1.6,5.23-2.4,7.85-.28-.35-.57-.69-.85-1.04l.96-7.08Z"/>
  <path class="cls-9" d="M921.51,548.11c-.92.64-1.84,1.28-2.76,1.92-.24-.35-.48-.71-.73-1.06.88-.63,1.75-1.26,2.63-1.9.28.35.57.69.85,1.04Z"/>
  <path class="cls-28" d="M1015.41,571.9c-.02.35-.04.71-.02.38-.24.36-.04.06.14-.25-.02-.02-.12-.12-.12-.12Z"/>
  <path class="cls-16" d="M1444.3,935c.16.26.26.54.3.84-.41-.02-.83-.04-1.24-.06.31-.26.63-.52.94-.78Z"/>
  <path class="cls-26" d="M922.2,838.03c4.66-23.12,8.81-46.35,14.19-69.3,3.06-13.05,7.13-26.07,12.55-38.3,5.48-12.35,13.79-23.23,26.55-29.41,2.82-1.36,6.28-1.39,9.44-2.04-1.17,6.48-7.94,7.55-11.41,11.81-1.95,2.4-4.22,4.57-5.95,7.1-4.68,6.84-9.17,13.8-13.69,20.75-.98,1.5-1.98,3.07-2.54,4.75-3.93,11.89-7.96,23.76-11.53,35.76-4.52,15.21-8.56,30.56-12.96,45.8-1.28,4.43-3.09,8.71-4.65,13.06Z"/>
  <path class="cls-22" d="M1347.58,809.72c4.95,3.13,9.9,6.27,14.85,9.4-6.37-.89-10.71-4.98-14.85-9.4Z"/>
  <path class="cls-22" d="M1362.45,819.14c.32.31.64.61.96.92-.32-.31-.64-.61-.96-.92Z"/>
  <path class="cls-28" d="M956.8,928c.35.35.71.69,1.06,1.04,0,0,.05-.09.05-.09-.34-.34-.68-.67-1.02-1.01l-.1.05Z"/>
  <path class="cls-5" d="M1295.48,410.36c-4.47,6.46-8.92,12.94-13.42,19.38-1.92,2.75-4.4,3.07-5.63-.14-3.85-10.04-12.84-15.51-19.72-22.82-4.31-4.57-9.09-8.87-14.27-12.4-5.25-3.58-11.31-5.95-16.88-9.09-2.15-1.21-4.89-2.7-5.71-4.73-4.15-10.25-8.34-20.55-11.41-31.15-3.16-10.9-5.05-22.17-7.46-33.28-.2-.92-.48-2.27-.01-2.82,3.37-3.94,1.25-6.81-1.31-10.07-8.51-10.88-20.88-15.62-32.96-20.56-13.06-5.34-26.32-10.3-39.78-14.48-11.55-3.59-23.53-5.77-35.28-8.71-15.54-3.88-31.38-2.43-47.12-2.96-6.95-.23-13.9-2.1-20.79-1.81-7,.3-14.16,1.63-20.85,3.77-17.55,5.61-34.88,11.9-52.89,18.13-.68-2.27-1.75-4.69-2.1-7.21-3.48-25.43-10.14-50.17-18.2-74.38-4.73-14.21-12.24-27.59-19.44-40.84-6.81-12.53-14.86-24.38-22.36-36.54,7.27-2.65,14.37-6.12,21.86-7.79,13.73-3.05,27.86-4.33,41.51-7.63,16.82-4.08,33.64-5.49,50.74-3.38,10.34,1.28,21.04,1.86,30.8,5.09,12.33,4.07,24.11,10.07,35.68,16.08,10.86,5.65,20.77,13.21,31.8,18.44,11.63,5.51,22.6,11.69,32.62,19.76,8.77,7.05,17.85,13.72,26.91,20.41,4.93,3.64,10.1,6.97,15.16,10.44-.79.87-1.59,1.73-2.38,2.6.18.36.37.72.55,1.08,2.03-.44,4.06-.88,6.1-1.32,1.92,1.82,3.86,3.62,5.75,5.46,8.17,7.97,16.86,15.5,24.36,24.07,8.38,9.57,15.69,20.08,23.47,30.18-.42,2.23-.85,4.46-1.55,8.16,2.13-1.61,3.04-2.3,3.96-2.99,1.19,2.13,2.67,4.15,3.53,6.41,7.38,19.34,14.59,38.76,21.99,58.09,4.44,11.61,9.43,23.02,13.66,34.71,5.36,14.79,10.08,29.82,15.38,44.63,1.29,3.61,3.76,6.81,5.69,10.19Z"/>
  <path class="cls-21" d="M914.98,272.37c7.15-1.89,14.31-3.77,22.14-5.84,1.23,5.35,2.65,10.57,3.61,15.87,1.41,7.84,2.9,8.36,10.09,5.29,10.38-4.44,20.95-8.51,31.66-12.07,12.57-4.19,25.29-8.05,38.12-11.32,7.89-2.01,15.96-1.54,23.97,1.13,3.97,1.32,8.55,1.22,12.83,1.08,29.2-.98,56.37,7.68,83.37,17.25,7.2,2.55,14.57,4.72,21.55,7.77,8.03,3.51,15.78,7.67,23.48,11.86,1.48.8,2.65,2.88,3.18,4.61,1.65,5.37,3.11,10.81,4.29,16.3,1.07,4.99,1.48,10.13,2.56,15.12,1.51,6.93,2.86,13.96,5.21,20.63,3.83,10.9,8.42,21.53,12.74,32.41-2.93,1.17-6.31,2.4-9.58,3.86-9.74,4.35-15.38,11.72-14.82,22.59,1.03,19.9,2.04,39.83,4.13,59.64.6,5.7,0,9.3-3.72,13.65-24.65,28.81-53.93,52.31-84.92,73.66-12.22,8.42-25.95,14.65-38.98,21.88,2.42-9.1,4.62-18.26,7.32-27.27,2.56-8.56,7.21-16.79,8.14-25.46,1.4-13.11.37-26.48.37-40.11,3.22-1.51,7.23-3.41,11.26-5.3,12-5.6,22.26-13.65,32.35-22.13,5.93-4.98,13.1-8.45,19.3-13.14,3.13-2.37,5.36-5.93,8-8.96,0,0-.03.05-.03.05.36-.34.72-.68,1.08-1.03,0,0-.06.07-.06.07.36-.36.73-.71,1.09-1.07,0,0-.08.12-.08.12.35-.32.69-.64,1.04-.95,11.85-14.87,22.96-30.22,27.24-49.21,2.56-11.35,2.25-22.35-5.87-32.02-5.31-6.32-9.64-13.47-15.08-19.66-4.63-5.26-8.39-5.1-14.77-2.16-8.56,3.94-17.22,7.71-26.03,11.06-11.47,4.35-23.1,8.3-34.71,12.25-13.82,4.7-27.59,9.58-41.59,13.71-14.26,4.2-28.96,6.09-43.86,5.86-4.63-.07-9.26-.96-13.87-.86-2.29.05-5.25.88-6.7,2.46-5.15,5.6-9.95,11.55-14.51,17.64-1.12,1.49-1.14,4.03-1.13,6.08.01,3.86.69,7.73.58,11.59-.19,6.46-1.16,12.91-1.06,19.35.07,4.2-1.61,6.86-5.07,8.19-8.15,3.13-15.07,8.04-21.77,13.5-5.41,4.41-5.62,4.14-10.48-1.78,4.58-1.47,5.97-4.6,4.23-9.1-.56-1.45-.88-3.07-.92-4.63-.33-12.71-.21-25.44-.95-38.12-.52-8.88-2.75-17.66-3.11-26.54-.31-7.54-1-14.67-4.09-21.72-4.3-9.84-8.42-12.16-18.32-8.81,0,0,.14.01.14.01-14.62-8.92-29.24-17.85-44.62-27.23,4.27-4.06,8.01-7.97,12.11-11.44,5.93-5.03,12.35-9.5,18.15-14.67,5.55-4.95,10.59-10.46,15.82-15.77,1.89-1.93,3.65-3.98,5.47-5.98,0,0-.03.03-.03.03.69-.35,1.38-.69,2.07-1.04,0,0-.08.06-.08.06.71-.41,1.42-.82,2.13-1.22Z"/>
  <path class="cls-25" d="M1195.1,638.6c-3.56,3.24-7.55,6.14-10.57,9.83-3.17,3.87-5.94,8.29-7.88,12.89-1.57,3.72-2.9,6-7.38,5-3.06-.68-6.25-.75-8.87-1.04-14.87-32.3-39.26-56.91-62.35-82.67,7.53-5.26,15.36-10.5,22.95-16.08,29.82-21.93,58.15-45.5,81.61-74.44,3-3.7,3.06-6.65,1.84-11.18-2.26-8.42-3.56-17.18-4.35-25.89-.97-10.57-1.32-21.23-1.36-31.86-.04-10.81,5.91-17.21,16.61-18.89.49-.08.98-.23,1.47-.26,5.14-.31,9.48-1.4,7.64-8.58,8.45,2,13.58,7.91,19.36,12.71,3.95,3.28,7.15,7.49,11.2,10.62,8.12,6.28,12.71,14.51,15.85,24.13,5.79,17.74,12.57,35.07,24.25,50.03,6.63,8.49,13.23,17.03,19.34,25.9,8.84,12.85,19.73,23.7,31.36,33.9,1.48,1.29,3.34,2.15,5.04,3.18,4.1,2.46,8.16,5,12.34,7.31,3.33,1.84,6.93,3.2,10.2,5.13,1.99,1.18,3.59,3.03,5.36,4.59-2.1.84-4.17,1.8-6.33,2.45-.88.27-1.97-.1-2.96-.18-.18-4.83-3.73-4.72-7.11-4.85-15.45-.6-30.76.64-46.04,2.98-6.92,1.06-14.19.51-20.89,2.25-7.63,1.99-14.7,6.01-22.19,8.65-21.03,7.4-41.66,15.53-58.91,30.25-6.26,5.34-12.54,10.67-18.51,16.32-2.1,2-3.73,4.92-.72,7.81Z"/>
  <path class="cls-20" d="M1007.12,496.67c-4.81-.1-6.81-3.65-8.84-6.53-1.39,0-2.82.22-4.16-.04-3.58-.68-7.08-1.88-10.69-2.28-3.18-.35-4.5-1.59-4.06-3.56-1.03.6-2.55,2.19-4.13,2.27-7.74.36-15.49.36-23.24.34-.95,0-1.9-.87-2.28-1.06-12.34,5.96-23.98,14.67-39.43,12,.92-3.24,1.83-6.49,2.75-9.73l-1.39-.4c-.93,2.47-1.86,4.95-3.21,8.54-.93-2.95-1.51-4.78-2.08-6.61-.47.14-.94.28-1.41.42.68,2.47,1.36,4.94,2.04,7.41-6.52-1.38-13.11-2.54-19.5-4.35-1.22-.35-1.69-3.32-2.08-4.16-.03.22-.2,1.61-.57,4.57-3.43-2.56-6.01-4.48-8.22-6.13,0-.23,0,.76,0,3.01-3.6-2.12-6.49-3.82-9.38-5.53-.33-4.75,3.28-6.9,6.46-9.5-1.31-.01-2.4.21-3.22.81-2.69,1.96-5.27,4.05-7.9,6.09-.34-.18-.68-.35-1.01-.53.53-3.36,1.06-6.71,1.58-10.02q-3.29,2.3-3.22,9.64c-7.65-1.2-8.05-1.54-8.25-8.7-.1-3.46-1.05-6.62-4.53-7.54-17.47-4.6-28.55-17.42-39.65-30.28,8.74-2.49,17.37-5.52,26.25-7.32,9.52-1.93,14.47-7.86,17.46-16.34,1.1-3.13,2.27-6.24,3.38-9.29-.77-.41-1.64-.87-2.51-1.34-.23-1.7-.64-3.39-.65-5.09-.01-2.98.22-5.97.34-8.95,2.94-.23,5.99-.28,6.71-4.78-1.77,1.11-3.14,1.97-4.52,2.83-.46-.25-.92-.5-1.39-.75.93-3,1.87-6,2.79-8.96-1.78,1-3.51,1.97-5.23,2.94-.14-.47-.14-1.09-.45-1.39-4.39-4.31-8.75-8.66-13.31-12.8-.87-.79-2.54-.69-3.84-1,2.83-7.67,5.66-15.35,8.33-22.6,8.05,4.19,15.39,8.87,23.35,11.95,9.68,3.75,19.66,7.42,30.36,6.66,4.86-.34,7.14,2.02,8.34,6,7.79,25.77,9.05,51.91,3.87,78.3-.95,4.82-2.88,9.47-4.61,14.1-1.59,4.26-.08,7.37,4.42,7.96,2.13.28,4.51.66,6.44,0,5.02-1.71,7.69,1.03,10.33,4.45,3.6,4.67,11.43,5.93,15.87,2.25,7.79-6.47,15.71-12.46,25.22-16.49,6.22-2.63,10.34-7.41,9.68-15.63-.59-7.33.92-14.84,1.51-22.27.13-1.66.71-3.44.31-4.95-2.5-9.39,4.22-14.3,9.61-19.68,1.24-1.24,3.92-1.4,5.95-1.44,9.59-.2,19.19.02,28.77-.31,14.46-.49,27.91-5.39,41.46-9.9,14.18-4.71,28.61-8.68,42.65-13.77,15.73-5.7,31.13-12.33,46.72-18.46,1.21-.47,3.39-.86,3.95-.23,9.78,11.01,21.12,21.7,18.92,38.18-1.05,7.89-4.02,15.86-7.68,22.98-7.83,15.23-18.1,28.83-32.98,37.95-12.03,7.37-24.36,14.28-36.88,20.78-11.04,5.72-22.53,10.59-33.82,15.83-3.33,1.55-5.52,4.07-5.01,7.82.74,5.49-2.28,6.99-6.82,7.31-.51-3.93,1.65-8.71-3.1-11.37,3.25,4.77-1.35,8.33-1.88,12.37-2.73,1.23-5.47,2.62-7.16-.29-.77.73-1.65,1.56-2.53,2.38-1.27-1.59-2.54-3.17-3.55-4.43.14.92.38,2.46.62,3.98-6.11,1.56-7.1.73-6.87-5.46.14-1.22.29-2.43.41-3.46-4.34.87-8.3,1.66-12.89,2.58v5c-2.67-.7-6.31.19-6.81-4.12.22-.77.44-1.53.66-2.3.21-.09.42-.18.42-.18,0,0-.17.13-.34.27-.22.77-.44,1.53-.66,2.3ZM1149.55,383.55c-1.88-.33-3.76-.93-5.64-.92-3.08,0-6.15.41-9.23.64-.7-3.77-3.62-3.03-5.9-2.53-12.03,2.64-23.98,5.63-36.02,8.24-10.85,2.35-21.74,4.51-32.67,6.39-1.99.34-4.27-1.04-6.79-1.73-.9,3.73-4.98,1.74-8.07,1.8-3.86.08-6.62.88-6.48,5.45-3.58,6.36-2.82,12.84-.54,19.37-.63,1.39-2.04,2.96-1.77,4.14,1.44,6.21,3.18,12.37,5.07,18.47,1.02,3.32,2.66,6.44,3.81,9.72,3.02,8.65,12.8,14.52,21.69,12.16,8.92-2.37,18.09-4.61,26.31-8.63,7.73-3.78,15.14-9.01,21.3-15.03,7.65-7.47,13.44-16.82,20.81-24.61,7.5-7.92,11.65-17.65,16.62-26.98,1.26-2.36,1.68-5.38-2.5-5.95Z"/>
  <path class="cls-25" d="M914.02,708.34c-4.5,8.81-10.63,17.18-13.13,26.52-4.24,15.83-9.98,31.6-8.42,48.6,1.75,19.03,2.95,38.11,4.59,57.14.28,3.24-.77,5.01-3.22,7.07-9.53,7.97-20.2,14.15-31.67,18.43-10.12,3.78-21.22,3.3-31.55.69-10.53-2.65-17.65-10.94-24.15-19.2-3.47-4.41-6.81-8.75-12.43-10.21-14.27-3.71-22.42-14.11-29.24-26.13-8.35-14.72-13.83-30.47-17.92-46.85-1.93-7.7-5.08-15.1-7.68-22.63-.42-1.22-.81-2.46-1.24-3.76,36-2.1,57.28-20.75,64.26-55.81,2.5,2.15,5.72,3.85,7.36,6.52,4.49,7.35,8.68,14.93,12.28,22.75,3.03,6.59,5,13.67,7.59,20.47,1.4,3.67,3.82,5.44,7.75,3.12,1.67,4.82,3.32,9.64,5,14.46.92,2.63,1.89,5.23,2.83,7.85.27.41.47.91.83,1.22,1.32,1.15,2.7,2.24,4.06,3.35.7-1.51,1.59-2.95,2.06-4.53.69-2.34.39-5.3,1.73-7.08,4.18-5.51,8.61-10.92,13.54-15.77,12.59-12.39,28.04-20.22,44.29-26.61.68-.27,1.66.23,2.49.38Z"/>
  <path class="cls-5" d="M1142.81,666.47c-2.7.73-5.39,1.51-8.11,2.19-14.89,3.74-25.47,12.98-33.07,25.97-1.62,2.76-3.85,3.6-7,3.64-15.98.17-31.74-1.16-47.52-4.1-11.35-2.11-23.09-2.25-34.67-2.99-18.54-1.19-37.09-2.15-55.63-3.2,3.86-2.86,7.44-6.24,11.64-8.47,9.09-4.82,18.65-8.74,27.72-13.57,20.05-10.68,39.88-21.75,59.87-32.54,10.08-5.44,20.44-10.37,30.42-15.98,7.61-4.28,14.45-3.75,21.3,1.36,1.09.82,2.67.99,4.03,1.45,0,0-.02-.01-.02-.01.35.68.7,1.36,1.05,2.04l-.04-.06c1.96,3.33,3.11,8.26,6,9.71,13.36,6.71,15.64,21.28,23.74,31.64.51.65.21,1.94.28,2.93Z"/>
  <path class="cls-23" d="M915.71,886.14c-1.04-1.62-2.94-3.23-2.97-4.87-.11-5.52-3.97-8.49-6.7-12.49-2.29-3.36-2.57-8.36-2.96-12.71-.8-9.04-.74-18.16-1.65-27.19-2.61-26.02-5.11-52,2.84-77.62,3.42-11.03,6.73-22.11,10.58-32.99.89-2.52,3.63-4.51,5.8-6.43,2.26-1.99,4.82-3.66,7.32-5.36,2.28-1.55,4.48-3.65,7.01-4.28,8.05-1.99,16.23-3.51,24.4-4.99,2.33-.42,4.79-.06,8.1-.06-5.03,5.38-9.24,9.9-13.46,14.41-10.27,10.96-14.28,25.02-18.76,38.73-8.01,24.53-11.78,50.01-16.71,75.27-3.03,15.52-4.06,30.9-3.42,46.53.19,4.58,1,9.14,1.52,13.72-.32.11-.63.23-.95.34Z"/>
  <path class="cls-21" d="M798.25,673.2c1.33,22.27-9.45,37.99-26.48,50.94-10.11,7.69-21.23,9.64-33.26,9.18-1.05-.04-2.41-.8-3.03-1.66-5.51-7.61-10.89-15.32-16.32-22.99-.37-.52-.79-.99-1.27-1.58,1.71-1.82,3.28-3.49,4.85-5.16,2.3,2.26,3.95.92,5.93-.74,7.32-6.15,8.96-15.28,12.3-23.43,3.62-8.82,6.43-17.98,9.65-27.16,9.35,3.06,18.08,6.94,25.91,13.21,6.2,4.96,12.76,10.29,21.72,9.41Z"/>
  <path class="cls-24" d="M660.44,356.18c4.93.62,9.17-.6,12.86-6.13,0,3.31-.02,5.22,0,7.12.24,17.62.58,35.25.68,52.87.04,7.13-1.04,14.3-.58,21.39,1.5,23.19,3.45,46.35,5.26,69.52.39,4.97,1.08,9.92,1.31,14.89,1.05,22.36,4.83,44.57,3.4,67.09-.35,5.58.52,11.24.91,16.85.28,4.1-1.18,6.87-5.06,8.77-3.02,1.48-5.56,3.92-8.41,5.78-.72.47-1.82.37-2.75.53-.3-3.62-.72-7.23-.89-10.85-1.02-21.68-1.95-43.37-2.99-65.04-.94-19.52-2.21-39.03-2.95-58.56-.89-23.38-1.71-46.77-1.91-70.16-.15-18.01.7-36.03,1.11-54.05Z"/>
  <path class="cls-12" d="M1174.98,189.08c-5.06-3.47-10.23-6.8-15.16-10.44-9.06-6.69-18.14-13.36-26.91-20.41-10.02-8.06-20.99-14.25-32.62-19.76-11.03-5.23-20.94-12.8-31.8-18.44-11.57-6.02-23.35-12.01-35.68-16.08-9.77-3.23-20.46-3.81-30.8-5.09-17.09-2.12-33.91-.7-50.74,3.38-13.65,3.31-27.78,4.59-41.51,7.63-7.49,1.66-14.59,5.13-21.86,7.79-1.73-1.94-3.46-3.87-6.08-6.79,9.26-2.47,17.51-4.73,25.8-6.85,4.82-1.23,9.65-2.5,14.55-3.28,11.44-1.82,22.93-3.29,34.38-5.01,8.86-1.33,17.66-3.61,26.55-4.05,15.42-.75,30.89-.44,46.34-.45,1.78,0,3.69.47,5.31,1.23,9.58,4.5,19.2,8.95,28.59,13.83,6.47,3.36,13.19,6.66,18.73,11.27,5.59,4.66,12.51,6.46,18.27,10.56,5.94,4.23,12.32,7.83,18.44,11.8,19.09,12.37,38.2,24.72,57.19,37.25,3.06,2.02,5.56,4.91,9.14,8.13-3.62,1.35-6.88,2.56-10.15,3.78Z"/>
  <path class="cls-18" d="M1161.57,675.53c11.5-1.85,17.83,6.21,24.39,13.21,6.39,6.82,8.95,15.45,8.53,24.75-.12,2.68-.77,5.95-2.44,7.83-6.81,7.66-14.31,14.62-23.88,18.86-.84.35-1.68.71-2.51,1.06l.1-.04c-1.47.19-2.93.46-4.4.55-8.69.54-17.4,3.03-26.05-.25-14.19-5.38-26.24-11.75-21.6-31.51.55-2.35,1.66-4.57,2.5-6.85,1.17,1.58,2.05,3.54,3.55,4.68,4.46,3.37,8.89,6.96,13.83,9.47,8.21,4.17,16.74,7.73,25.3,11.14,1.21.48,4.51-.97,4.8-2.06,1.29-4.94,2.69-10.11,2.5-15.14-.39-10.26-1.74-20.49-2.81-30.73-.08-.79-1.08-1.49-1.66-2.23-.05-.91-.1-1.83-.16-2.74Z"/>
  <path class="cls-9" d="M670.2,263.63c3.63,9.19,7.43,18.33,10.84,27.6,3.87,10.53,7.39,21.18,11.14,32.01-5.59,2.63-10.3,6.07-13.72,11.9-3.01,5.14-8.15,9.07-12.5,13.37-2.07,2.05-4.21,1.62-5.83-.81-3.75-5.63-7.46-11.29-11.19-16.93,1.46-1.08,3.71-1.86,4.25-3.29,2.28-6.03,4.48-12.14,5.93-18.41,3.26-14.17,6.03-28.45,9.1-42.67.22-1.02,1.3-1.86,1.99-2.78Z"/>
  <path class="cls-18" d="M806.87,447.46c2.18,2.79,4.25,5.68,6.56,8.36,6.68,7.76,15.33,12.68,24.78,16.14,2.88,1.05,3.49,2.42,3.8,5.3,1.06,9.85,2.9,19.61,3.94,29.47,1.3,12.34,4.85,24.03,10.01,35.16,2.77,5.97,6.8,11.35,10.27,17,.84,1.37,1.68,2.73,1.82,5.09-3.01-1.14-6.01-2.27-9.02-3.41-5.16-8.27-9.51-17.23-15.75-24.59-4.89-5.78-9.36-11.52-12.17-18.45-2.36-5.81-3.52-12.22-6.52-17.65-9.08-16.46-11.82-34.95-17.72-52.41Z"/>
  <path class="cls-2" d="M1195.1,638.6c-3.01-2.89-1.39-5.82.72-7.81,5.97-5.66,12.25-10.98,18.51-16.32,17.25-14.72,37.88-22.84,58.91-30.25,7.49-2.64,14.56-6.66,22.19-8.65,6.7-1.75,13.96-1.2,20.89-2.25,15.27-2.33,30.59-3.58,46.04-2.98,3.38.13,6.94.02,7.11,4.85-14.53,1.11-29.33.85-43.52,3.64-22.89,4.51-45.8,9.5-66.81,20.67-22.14,11.78-43.95,24.02-64.04,39.1Z"/>
  <path class="cls-14" d="M738.78,646.2c-3.41,21.26-10.04,41.16-23.99,58.5-3.36-2.66-6.19-4.89-8.9-7.03,3.44-2.55,6.92-4.65,9.72-7.44,1.07-1.07.58-3.71.8-5.63-1.65.61-3.81.75-4.85,1.9-3.66,4.08-7.86,5.2-13.19,3.67-1.19-10.93-2.36-21.75-3.6-33.23,10.39-1.01,20.02-2.77,25.18-12.73,6.27.66,12.54,1.33,18.81,1.99Z"/>
  <path class="cls-1" d="M1152.61,445.34c-2.64,3.02-4.86,6.59-8,8.96-6.2,4.69-13.38,8.16-19.3,13.14-10.08,8.48-20.35,16.53-32.35,22.13-4.03,1.88-8.05,3.78-11.26,5.3,0,13.63,1.03,27-.37,40.11-.93,8.67-5.57,16.91-8.14,25.46-2.7,9.01-4.9,18.18-7.32,27.27-3.35,1.78-6.71,3.57-9.81,5.22,3.52-11.09,7.88-21.97,10.27-33.26,1.9-9,1.77-18.5,1.88-27.78.12-10.63-.38-21.28-.82-31.91-.21-5.13,1.77-8.16,6.57-10.33,12.85-5.81,25.88-11.41,38.11-18.37,13.92-7.92,27.06-17.23,40.53-25.93Z"/>
  <path class="cls-15" d="M1295.48,410.36c-1.93-3.39-4.4-6.58-5.69-10.19-5.3-14.82-10.02-29.84-15.38-44.63-4.24-11.68-9.22-23.1-13.66-34.71-7.4-19.34-14.6-38.75-21.99-58.09-.86-2.25-2.34-4.27-3.53-6.41.49-2.09.98-4.17,1.71-7.28,11.71,16.84,17.17,35.74,26.08,53.28-1.6.52-3.26,1.05-4.92,1.59-.01.24-.03.48-.04.72h6.01c2.3,4.68,4.6,9.38,6.9,14.07-1.77,2.7-3.54,5.4-5.31,8.1.41.19.81.37,1.22.56,1.93-2.05,3.86-4.11,5.78-6.16,4.23,10.85,8.46,21.7,12.69,32.55-1.37-.48-2.97-.68-4.06-1.52-1.31-1.02-2.19-2.6-3.26-3.94-.33.32-.67.64-1,.97,1.71,4.34,4.51,7.56,9.39,8.63,1.15,4.13,2.18,8.31,3.51,12.39.66,2.02,2.22,3.78,2.73,5.82.88,3.54.96,7.27,1.91,10.79.98,3.64,2.07,7.43,4.04,10.58,3.55,5.69,1.59,9.49-3.13,12.89Z"/>
  <path class="cls-27" d="M660.44,356.18c-.41,18.02-1.26,36.04-1.11,54.05.2,23.39,1.03,46.78,1.91,70.16.74,19.53,2.01,39.04,2.95,58.56,1.05,21.68,1.97,43.36,2.99,65.04.17,3.62.58,7.24.89,10.85-4.49.5-6.37-1.35-5.94-5.97.32-3.46-.04-6.98.07-10.47.49-15.65-.41-31.19-2.75-46.68-.76-5.05-.21-10.3-.46-15.44-1.44-30.19-3.46-60.36-4.24-90.57-.62-23.74.28-47.52.48-71.28.06-6.78,0-13.57,0-21.59,2.35,1.51,3.78,2.43,5.2,3.34Z"/>
  <path class="cls-1" d="M806.87,447.46c5.9,17.46,8.65,35.95,17.72,52.41,2.99,5.43,4.16,11.84,6.52,17.65,2.81,6.93,7.28,12.67,12.17,18.45,6.23,7.36,10.58,16.32,15.75,24.59-12.52-2.45-19.38-11.58-24.96-21.81-8.34-15.28-17-30.46-24.08-46.33-4.8-10.76-7.18-22.61-10.52-34-.98-3.33-1.43-6.81-2.36-10.15-.75-2.71-2.56-6.1,1.27-7.07,1.94-.49,4.73,1.91,6.94,3.32.82.52,1.06,1.94,1.56,2.95Z"/>
  <path class="cls-1" d="M903.82,349.62c9.9-3.36,14.01-1.03,18.32,8.81,3.09,7.05,3.78,14.17,4.09,21.72.36,8.87,2.6,17.66,3.11,26.54.74,12.68.62,25.41.95,38.12.04,1.55.36,3.18.92,4.63,1.74,4.5.35,7.64-4.23,9.1-3.61-1.94-7.23-3.88-11.63-6.24.74-4.12,2.49-9.72,2.62-15.36.4-17.25,1.2-34.6-.21-51.74-.84-10.15-5.36-20.05-8.69-29.91-.75-2.23-3.44-3.8-5.24-5.67Z"/>
  <path class="cls-1" d="M910.88,274.53c-1.82,2-3.58,4.05-5.47,5.98-5.22,5.31-10.27,10.82-15.82,15.77-5.8,5.17-12.22,9.64-18.15,14.67-4.1,3.48-7.84,7.38-12.11,11.44,15.37,9.38,30,18.31,44.62,27.23-9.27-1.4-18.61-2.46-27.8-4.29-11.26-2.24-20.87-8.17-30.77-15.29,16.35-25.28,38.53-43.18,65.5-55.52Z"/>
  <path class="cls-15" d="M1111.8,620.23c-1.35-.47-2.93-.64-4.03-1.45-6.84-5.11-13.68-5.64-21.3-1.36-9.98,5.61-20.34,10.54-30.42,15.98-19.99,10.79-39.82,21.86-59.87,32.54-9.08,4.83-18.64,8.75-27.72,13.57-4.2,2.23-7.78,5.61-11.64,8.47-3.78.51-7.56,1.02-11.33,1.52-.19-.3-.38-.59-.57-.89,2.47-2,4.86-4.1,7.43-5.97,18.07-13.11,39.2-20.17,58.99-29.9,14.72-7.24,29.08-15.25,43.3-23.44,9.02-5.2,17.35-11.6,26.28-16.96,5.04-3.03,10.67-5.11,16.1-7.46.7-.3,2.18-.03,2.65.53,4.13,4.87,8.12,9.87,12.15,14.83Z"/>
  <path class="cls-14" d="M705.33,605.85c4.69,4.13,10.11,7.71,13.76,12.61,1.83,2.46,1.47,7.67.3,11.01-1.9,5.41-4.31,11.31-8.31,15.11-3.7,3.52-9.76,4.57-15.27,6.09.66-8.77-4.39-17.54,4.16-24.67-8.39,0-15.63.24-22.82-.16-1.81-.1-3.51-2.24-5.27-3.44,4.32-.32,8.95.22,12.9-1.17,5.54-1.95,10.5-5.49,15.84-8.07,3.21-1.55,4.94-3.7,4.71-7.3Z"/>
  <path class="cls-19" d="M1161.57,675.53c.05.91.1,1.83.16,2.74-.92.12-1.83.25-2.74.37-1.17-.37-2.48-1.3-3.49-1.03-7.2,1.87-14.66,3.24-21.39,6.23-7.25,3.22-13.3,8.52-16.35,16.38-.26.41-.53.81-.79,1.22-.25.57-.5,1.13-.75,1.7-.85,2.28-1.95,4.5-2.5,6.85-4.64,19.76,7.41,26.13,21.6,31.51,8.65,3.28,17.36.79,26.05.25,1.47-.09,2.93-.36,4.4-.55-12.89,9.12-27.06,10.17-41.79,6.15-6.99-1.9-12-6.59-13.91-13.75-2.02-7.54-3.7-15.18-5.19-22.84-.35-1.78.18-4.15,1.16-5.7,5.73-9.02,12.35-17.32,21.02-23.78.79-.59,1.68-1.17,2.62-1.41,10.46-2.72,20.89-5.73,31.91-4.35Z"/>
  <path class="cls-19" d="M798.25,673.2c-8.96.88-15.53-4.44-21.72-9.41-7.83-6.27-16.56-10.14-25.91-13.21-3.22,9.18-6.03,18.34-9.65,27.16-3.34,8.15-4.98,17.28-12.3,23.43-1.98,1.66-3.63,3-5.93.74,2.2-4.25,4.52-8.44,6.56-12.77,2.54-5.4,5.4-10.73,7.1-16.4,2.89-9.67,4.98-19.59,7.66-30.4,5.01,1.89,10.79,3.36,15.85,6.14,11.62,6.39,22.93,13.36,34.26,20.27,1.65,1,2.74,2.93,4.08,4.44Z"/>
  <path class="cls-22" d="M819.16,379.91c2.35-3.05,4.67-6.06,7.09-9.2,9.03,9.53,14.11,20.07,11.11,31.94-4.43,3.55-7.99,6.63-11.79,9.37-2.36,1.71-4.93,3.45-7.67,4.24-6.14,1.76-6.03,1.47-7.58-4.87-.47-1.92-2.35-3.45-3.38-5.28-.68-1.21-1.59-3.67-1.38-3.78,1.7-.96,3.68-2.16,5.48-2.02,2.33.18,4.83,2.56,6.8,2.09,2.65-.63,5.79-2.57,7.08-4.86,3.24-5.75.2-14.32-5.76-17.62Z"/>
  <path class="cls-12" d="M1232.82,251.16c-7.78-10.1-15.08-20.61-23.47-30.18-7.5-8.56-16.19-16.09-24.36-24.07-1.89-1.85-3.83-3.64-5.75-5.46,1.93-.94,3.77-2.26,5.81-2.72,1.77-.4,4.22-.52,5.58.4,10.14,6.84,18.36,15.75,25.26,25.72,6.41,9.26,12.28,18.92,17.85,28.71,1.01,1.78-.55,5.03-.93,7.6Z"/>
  <path class="cls-8" d="M670.2,263.63c-.68.92-1.77,1.76-1.99,2.78-3.07,14.22-5.84,28.5-9.1,42.67-1.44,6.27-3.64,12.39-5.93,18.41-.54,1.43-2.79,2.21-4.25,3.29-5.43-3.06-2.24-7.74-1.66-11.46,1.2-7.78,3.03-15.51,5.17-23.1,2.38-8.45,5.37-16.73,8.14-25.06,1.92-5.77,3.91-11.52,6.81-17.4.94,3.29,1.87,6.58,2.81,9.88Z"/>
  <path class="cls-14" d="M676.07,664.98c6.71-2.44,7.44-2.1,10.05,4.68,2.85,7.43.35,10.36-7.01,12.01-7.94,1.77-15.09-1-22.52-1.82-7.29-.8-9.91-5.12-9.27-12.67,8.34,1.35,16.65,3,25.05,3.9,4.1.44,5.09-1.75,3.71-6.11Z"/>
  <path class="cls-26" d="M914.02,708.34c-.84-.14-1.82-.64-2.49-.38-16.25,6.39-31.7,14.22-44.29,26.61-4.93,4.85-9.36,10.26-13.54,15.77-1.34,1.77-1.04,4.73-1.73,7.08-.47,1.57-1.36,3.02-2.06,4.53-1.36-1.11-2.74-2.2-4.06-3.35-.36-.31-.56-.81-.83-1.22,1.69-2.5,4.03-4.78,4.95-7.53,2.63-7.86,7.48-13.75,13.91-18.79,15.62-12.24,32.35-22.43,51.18-28.94,1.19-.41,2.43-.65,4.75-1.27-2.4,3.1-4.09,5.3-5.79,7.49Z"/>
  <path class="cls-26" d="M852.08,400.54c.87.47,1.74.93,2.51,1.34-1.11,3.05-2.28,6.16-3.38,9.29-2.99,8.48-7.94,14.41-17.46,16.34-8.88,1.8-17.51,4.83-26.25,7.32-2.2-1.64-4.39-3.27-6.6-4.92,12.6-4.31,24.73-8.39,36.81-12.63,5.27-1.85,8.99-5.5,11.21-10.7.89-2.08,2.1-4.02,3.16-6.03Z"/>
  <path class="cls-6" d="M976.22,506.65c-3.75,0-7.51.17-11.24-.08-1.71-.11-3.36-1.03-5.04-1.58,1.13-1.54,1.96-3.98,3.44-4.46,7.04-2.31,13.76-1.39,19.62,3.52,4.21,3.52,3.96,8.32-1.26,9.39-7.16,1.47-14.71,1.13-22.09,1.36-1.94.06-4.06-.26-5.82-1.04-1.54-.68-2.68-2.24-4-3.41,1.49-.98,2.99-2.81,4.47-2.8,5.93.05,11.86.69,17.79,1.07,1.31.08,2.62.01,3.93.01.06-.66.13-1.33.19-1.99Z"/>
  <path class="cls-14" d="M667.62,627.17c3.31,4.82,8.6,4.45,13.47,4.97,2.78.3,5.62.05,8.43.05.22,5.02-2.89,8.01-7.31,7.58-6.07-.59-12.16-.94-18.23-1.48-3.63-.32-7.29-.56-10.84-1.31-6.63-1.4-7.1-3.48-2.33-8.83,5.61-.33,11.21-.65,16.82-.98Z"/>
  <path class="cls-26" d="M837.18,735.08c-3.94,2.32-6.36.55-7.75-3.12-2.59-6.81-4.55-13.88-7.59-20.47-3.6-7.82-7.79-15.4-12.28-22.75-1.63-2.67-4.86-4.38-7.36-6.52-.09-1.95-.17-3.9-.26-5.85.36-.26.72-.53,1.08-.79,1.5,1.29,3.15,2.43,4.47,3.89,11.47,12.73,17.02,28.84,24.75,43.69,1.98,3.8,3.3,7.94,4.93,11.93Z"/>
  <path class="cls-2" d="M705.33,605.85c.23,3.6-1.5,5.75-4.71,7.3-5.34,2.58-10.3,6.11-15.84,8.07-3.95,1.39-8.57.85-12.9,1.17-.56-4.71,2.39-9.17,7.06-9.13,5.45.05,8.91-2.98,12.45-6.13,6.54-5.8,6.51-5.87,13.93-1.28Z"/>
  <path class="cls-6" d="M675.14,688.24c2.85-.87,5.69-1.74,8.54-2.6,3.85-1.15,5.04,1.47,5.81,4.31.8,2.97.19,5.08-3.5,5.61-6.17.89-12.26,2.7-18.45,3.04-4.3.24-8.79-1.07-13.02-2.28-1.25-.36-1.93-2.74-2.87-4.19,6.09.03,12.21.37,18.27-.08,1.83-.14,3.48-2.48,5.22-3.82Z"/>
  <path class="cls-6" d="M679.83,650.16c.66,6.88.71,7.18-6.12,8.27-9.17,1.47-18.48,2.16-26.48-3.9-4.8-3.64-4.8-6.89-.97-12.06-.82,5.36,3.48,7.15,6.91,7.42,8.84.68,17.77.26,26.66.28Z"/>
  <path class="cls-15" d="M1142.81,666.47c-.08-.99.23-2.28-.28-2.93-8.09-10.35-10.38-24.93-23.74-31.64-2.9-1.45-4.05-6.38-6-9.71,3.72,3.07,7.67,5.89,11.1,9.25,6.72,6.59,13.62,13.09,19.47,20.41,2.78,3.48,3.32,8.75,5.11,13.89-2.51.32-4.08.52-5.65.72Z"/>
  <path class="cls-16" d="M679.83,650.16c-8.89-.02-17.82.4-26.66-.28-3.43-.26-7.73-2.05-6.91-7.42,10.93.84,21.85,1.68,32.78,2.52.39.43.78.86,1.17,1.3-.13,1.29-.25,2.59-.38,3.88Z"/>
  <path class="cls-26" d="M676.07,664.98c1.38,4.36.39,6.55-3.71,6.11-8.39-.9-16.7-2.56-25.05-3.9,0-.65,0-1.29,0-1.94.69-.38,1.39-.77,2.08-1.15,8.89.3,17.78.59,26.68.89Z"/>
  <path class="cls-26" d="M675.14,688.24c-1.74,1.33-3.39,3.68-5.22,3.82-6.06.46-12.17.12-18.27.08,0-1.96,0-3.92,0-5.79,8.28-1.46,15.48,5.01,23.49,1.89Z"/>
  <path class="cls-26" d="M667.62,627.17c-5.61.33-11.22.65-16.82.98.62-.96,1.2-1.95,1.87-2.87,5.83-8.01,10.81-7.38,14.96,1.89Z"/>
  <path class="cls-26" d="M832.55,362.59c1.3.31,2.97.21,3.84,1,4.56,4.13,8.92,8.48,13.31,12.8.31.3.3.92.44,1.39-1.06-.06-2.12-.12-3.18-.18-7.41-1.11-13.26-7.19-14.41-15.01Z"/>
  <path class="cls-4" d="M1013.84,500.71v-5c4.59-.92,8.54-1.71,12.89-2.58-.12,1.03-.27,2.24-.41,3.46-.15.06-.36.09-.44.2q-4.31,6.49-12.04,3.92Z"/>
  <path class="cls-2" d="M738.78,646.2c-6.27-.66-12.54-1.33-18.81-1.99.71-1.4,1.42-2.8,1.82-3.59,6.03.41,11.46.78,17.28,1.17-.1,1.57-.19,2.99-.29,4.41Z"/>
  <path class="cls-23" d="M689.75,662.55c-5-7.31-4.91-17.48,0-20.5v20.5Z"/>
  <path class="cls-24" d="M846.97,377.59c1.06.06,2.12.12,3.18.18,1.73-.97,3.46-1.94,5.23-2.94-.92,2.96-1.86,5.96-2.79,8.96.46.25.92.5,1.39.75,1.37-.86,2.75-1.72,4.52-2.83-.73,4.51-3.78,4.56-6.71,4.78-1.6-2.97-3.21-5.93-4.81-8.9Z"/>
  <path class="cls-24" d="M1045.81,500.4c.53-4.04,5.13-7.61,1.88-12.37,4.75,2.66,2.59,7.44,3.1,11.37-1.66.34-3.32.67-4.98,1.01Z"/>
  <path class="cls-24" d="M906.99,497.44c-.68-2.47-1.36-4.94-2.04-7.41.47-.14.94-.28,1.41-.42.58,1.83,1.16,3.67,2.08,6.61,1.35-3.59,2.28-6.06,3.21-8.54l1.39.4c-.92,3.24-1.83,6.49-2.75,9.73-1.1-.12-2.2-.25-3.3-.37Z"/>
  <path class="cls-7" d="M1286.43,357.89c-4.88-1.07-7.68-4.29-9.39-8.63.33-.32.67-.64,1-.97,1.07,1.34,1.95,2.92,3.26,3.94,1.09.85,2.69,1.04,4.06,1.52.36,1.38.71,2.76,1.07,4.13Z"/>
  <path class="cls-24" d="M862.59,482.25c2.62-2.04,5.21-4.13,7.9-6.09.82-.6,1.9-.82,3.22-.81-3.18,2.6-6.79,4.75-6.46,9.5-1.55-.87-3.1-1.73-4.65-2.6Z"/>
  <path class="cls-7" d="M1272.67,321.21c-1.93,2.05-3.86,4.11-5.78,6.16-.41-.19-.81-.37-1.22-.56,1.77-2.7,3.54-5.4,5.31-8.1.57.83,1.13,1.67,1.69,2.5Z"/>
  <path class="cls-24" d="M859.93,481.34q-.06-7.34,3.22-9.64c-.52,3.3-1.05,6.66-1.58,10.02-.55-.13-1.1-.25-1.65-.38Z"/>
  <path class="cls-13" d="M956.9,927.95c.34.34.68.67,1.02,1.01-1.38.08-2.75.17-4.13.25.02-.53.04-1.06.06-1.59,1.02.11,2.04.22,3.06.34Z"/>
  <path class="cls-6" d="M680.21,646.28c-.39-.43-.78-.86-1.17-1.3.56.04,1.11.09,1.67.13l-.5,1.17Z"/>
  <path class="cls-14" d="M649.39,664.09c-.69.38-1.39.77-2.08,1.15.06-.57.11-1.15.17-1.72.64.19,1.28.38,1.91.57Z"/>
  <path class="cls-1" d="M912.93,273.53c-.69.35-1.38.69-2.07,1.04.69-.35,1.38-.69,2.07-1.04Z"/>
  <path class="cls-1" d="M914.98,272.37c-.71.41-1.42.82-2.13,1.22.71-.41,1.42-.82,2.13-1.22Z"/>
  <path class="cls-19" d="M1165.66,741.24c.84-.35,1.67-.71,2.51-1.06-.84.35-1.67.71-2.51,1.06Z"/>
  <path class="cls-15" d="M1112.83,622.25c-.35-.68-.7-1.36-1.05-2.04.35.68.7,1.36,1.05,2.04Z"/>
  <path class="cls-1" d="M1153.66,444.36c-.36.34-.72.68-1.08,1.03.36-.34.72-.68,1.08-1.03Z"/>
  <path class="cls-1" d="M1155.65,442.52c-.35.32-.69.64-1.04.95.35-.32.69-.64,1.04-.95Z"/>
  <path class="cls-11" d="M702.56,706.68c-.02-.38-.04-.77-.06-1.15.31.12.63.25.94.37-.29.26-.58.52-.88.78Z"/>
  <path class="cls-1" d="M1154.69,443.36c-.36.36-.73.71-1.09,1.07.36-.36.73-.71,1.09-1.07Z"/>
  <path class="cls-11" d="M862.66,532.68c-.13-.5-.26-1-.4-1.5.38.1.76.2,1.15.3-.25.4-.5.8-.75,1.2Z"/>
  <path class="cls-3" d="M1134.68,383.27c3.08-.23,6.15-.63,9.23-.64,1.88,0,3.76.59,5.64.92-.07,2.39.7,5.29-.37,7.06-2.73,4.49-5.74,9.08-9.63,12.53-8.19,7.29-14.63,15.68-19.61,25.39-1.31,2.55-3.38,5.07-5.74,6.65-7.14,4.78-14.62,9.05-21.93,13.58-11.23,6.97-22.49,7.6-33.79.21-7.59-4.96-14.66-10.32-16.9-19.93-.71-3.03-2.22-5.87-3.37-8.8-2.29-6.52-3.05-13.01.54-19.37,5.04-.75,10.07-1.6,15.13-2.21,11.02-1.32,22.16-1.99,33.07-3.89,16.13-2.81,30.88-11.49,47.71-11.52ZM1059.71,425.63c-1.34,3.12.83,5.93,3.83,7.41,3.9,1.93,8.22,3.1,12.46,4.21,6.5,1.7,12.16-.64,17.97-3.57,8.51-4.28,17.16-7.95,20.31-18.21,1.23-4.01,3.27-7.66,5.78-11.21,1.21-1.71-.24-5.92-1.52-8.48-.57-1.15-3.9-1.82-5.61-1.36-12.55,3.35-25.02,7.03-37.5,10.67-.72.21-1.55.77-1.9,1.4-2.01,3.64-5.25,4.12-8.96,4-1.09-.04-3.07.73-3.18,1.38-.75,4.26-1.11,8.6-1.68,13.75Z"/>
  <path class="cls-26" d="M1038.22,420.25c1.15,2.93,2.66,5.77,3.37,8.8,2.24,9.61,9.3,14.97,16.9,19.93,11.3,7.38,22.55,6.76,33.79-.21,7.31-4.54,14.78-8.81,21.93-13.58,2.36-1.58,4.44-4.1,5.74-6.65,4.98-9.71,11.41-18.11,19.61-25.39,3.88-3.45,6.9-8.04,9.63-12.53,1.08-1.77.3-4.67.37-7.06,4.18.57,3.76,3.59,2.5,5.95-4.97,9.32-9.12,19.05-16.62,26.98-7.37,7.8-13.16,17.14-20.81,24.61-6.16,6.02-13.57,11.25-21.3,15.03-8.22,4.02-17.38,6.26-26.31,8.63-8.89,2.36-18.67-3.51-21.69-12.16-1.15-3.28-2.79-6.4-3.81-9.72-1.89-6.1-3.63-12.25-5.07-18.47-.27-1.18,1.14-2.75,1.77-4.14Z"/>
  <path class="cls-26" d="M1134.68,383.27c-16.84.03-31.59,8.71-47.71,11.52-10.92,1.9-22.05,2.57-33.07,3.89-5.06.61-10.09,1.47-15.13,2.21-.14-4.57,2.61-5.37,6.48-5.44,3.09-.06,7.17,1.93,8.07-1.8,2.52.69,4.8,2.08,6.79,1.73,10.93-1.88,21.83-4.04,32.67-6.39,12.04-2.61,23.99-5.59,36.02-8.24,2.28-.5,5.2-1.24,5.9,2.53Z"/>
  <path class="cls-28" d="M1007.12,496.67c.22-.77.44-1.53.66-2.3l-.09-.09c-.22.76-.45,1.53-.66,2.3,0,0,.08.09.08.09Z"/>
  <path class="cls-28" d="M1007.78,494.38c.17-.13.34-.27.34-.27,0,0-.21.09-.42.18,0,0,.08.09.08.09Z"/>
  <path class="cls-7" d="M1158.98,678.64c.91-.12,1.83-.25,2.74-.37.57.74,1.57,1.44,1.66,2.23,1.07,10.23,2.42,20.46,2.81,30.73.19,5.03-1.21,10.19-2.5,15.14-.29,1.09-3.59,2.54-4.8,2.06-8.56-3.42-17.1-6.97-25.3-11.14-4.94-2.51-9.37-6.1-13.83-9.47-1.5-1.14-2.39-3.1-3.55-4.68.25-.57.5-1.13.75-1.7.3.07.54-.02.71-.28,5.57,1.85,11.31,3.3,16.66,5.66,7.57,3.34,13.88,9.47,23.3,10.48.5-6.57,1.41-12.8,1.3-19.02-.1-5.71-1.31-11.4-2.03-17.1.69-.84,1.38-1.69,2.08-2.53Z"/>
  <path class="cls-21" d="M1158.98,678.64c-.69.84-1.38,1.69-2.08,2.54-5.18.88-2.8,4.7-2.83,7.48-.08,7.45-.03,14.9-.03,23.02-9.37-4.06-17.26-7.89-25.46-10.85-3.28-1.19-7.24-.48-10.89-.64l.05.03c3.04-7.86,9.09-13.16,16.35-16.38,6.73-2.99,14.2-4.36,21.39-6.23,1.01-.26,2.32.66,3.49,1.03Z"/>
  <path class="cls-21" d="M1117.67,701.16c-.17.26-.41.35-.71.28.27-.41.53-.81.8-1.22,0,0-.05-.03-.05-.03-.05.32-.06.65-.03.98Z"/>
  <path class="cls-22" d="M1059.71,425.63c.58-5.15.93-9.49,1.68-13.75.12-.65,2.09-1.42,3.18-1.38,3.71.12,6.95-.36,8.96-4,.35-.63,1.18-1.19,1.9-1.4,12.48-3.63,24.95-7.31,37.5-10.67,1.72-.46,5.04.21,5.61,1.36,1.28,2.56,2.73,6.77,1.52,8.48-2.51,3.55-4.55,7.2-5.78,11.21-3.15,10.26-11.79,13.93-20.31,18.21-5.81,2.92-11.47,5.27-17.97,3.57-4.24-1.11-8.56-2.28-12.46-4.21-3.01-1.49-5.17-4.29-3.83-7.41ZM1102.84,418.74c-1.59-5.12-3.27-11.12-8.79-14.71-.95-.62-4.22.24-4.53,1.09-1.87,5.19-3.31,10.56-4.6,15.93-.33,1.39-.07,3.31.68,4.49,2.2,3.45,5.03,6.44,9.7,5.29,3.66-.9,7.44-6.85,7.53-12.09Z"/>
  <path class="cls-19" d="M1117.67,701.16c-.02-.33-.01-.65.03-.98,3.65.16,7.61-.55,10.89.64,8.2,2.96,16.09,6.79,25.46,10.85,0-8.11-.05-15.56.03-23.02.03-2.78-2.36-6.6,2.83-7.48.72,5.7,1.93,11.39,2.03,17.1.11,6.22-.81,12.46-1.3,19.02-9.42-1-15.73-7.14-23.3-10.48-5.35-2.36-11.09-3.81-16.66-5.66Z"/>
  <path class="cls-7" d="M1102.84,418.74c-.09,5.24-3.87,11.19-7.53,12.09-4.68,1.15-7.5-1.84-9.7-5.29-.76-1.18-1.02-3.1-.68-4.49,1.29-5.38,2.73-10.74,4.6-15.93.31-.86,3.58-1.71,4.53-1.09,5.52,3.59,7.2,9.59,8.79,14.71ZM1091.25,420.31h9.3c-1.18-2-2.37-3.99-4-6.76-1.98,2.53-3.14,4-5.3,6.76Z"/>
  <path class="cls-22" d="M1091.25,420.31c2.16-2.76,3.31-4.23,5.3-6.76,1.64,2.76,2.82,4.76,4,6.76h-9.3Z"/>
</svg>