<?xml version="1.0" encoding="UTF-8"?>
<svg id="Layer_1" data-name="Layer 1" xmlns="http://www.w3.org/2000/svg" version="1.1" viewBox="0 0 1920 1080">
  <defs>
    <style>
      .cls-1 {
        fill: #f4ac41;
      }

      .cls-1, .cls-2, .cls-3, .cls-4, .cls-5, .cls-6, .cls-7, .cls-8, .cls-9, .cls-10, .cls-11, .cls-12, .cls-13, .cls-14, .cls-15, .cls-16, .cls-17, .cls-18, .cls-19, .cls-20, .cls-21, .cls-22, .cls-23, .cls-24, .cls-25, .cls-26, .cls-27 {
        stroke-width: 0px;
      }

      .cls-2 {
        fill: #f7ae42;
      }

      .cls-3 {
        fill: #fcfcfc;
      }

      .cls-4 {
        fill: #55aee1;
      }

      .cls-5 {
        fill: #8ecdf1;
      }

      .cls-6 {
        fill: #76c4de;
      }

      .cls-7 {
        fill: #faaf42;
      }

      .cls-8 {
        fill: #8f8f8f;
      }

      .cls-9 {
        fill: #f9d39c;
      }

      .cls-10 {
        fill: #877662;
      }

      .cls-11 {
        fill: #8e8e8e;
      }

      .cls-12 {
        fill: silver;
      }

      .cls-13 {
        fill: #a07f56;
      }

      .cls-14 {
        fill: #f6ad41;
      }

      .cls-15 {
        fill: #0b0b0b;
      }

      .cls-16 {
        fill: #56afe2;
      }

      .cls-17 {
        fill: #080808;
      }

      .cls-18 {
        fill: #fdfdfd;
      }

      .cls-19 {
        fill: #050504;
      }

      .cls-20 {
        fill: #fafafa;
      }

      .cls-21 {
        fill: #c7c7c7;
      }

      .cls-22 {
        fill: #f3f3f3;
      }

      .cls-23 {
        fill: #8c8c8c;
      }

      .cls-24 {
        fill: #c5c5c5;
      }

      .cls-25 {
        fill: #7c5f3d;
      }

      .cls-26 {
        fill: #55aee0;
      }

      .cls-27 {
        fill: #a38f78;
      }
    </style>
  </defs>
  <path class="cls-17" d="M1212.76,816.52c-4.14,5.96-7.72,11.48-11.69,16.72-3.3,4.34-6.75,8.66-10.7,12.38-2.68,2.52-3.42,4.72-2.54,8.22,2.41,9.59,7.45,17.76,13.22,25.52,12.9,17.34,9.42,33.99-6.92,43.83-7.09,4.27-15.52,6.77-23.67,8.69-28.08,6.59-56.62,7.64-85.31,5.75-12.67-.84-26.22-10.47-29.42-21.19-.86-2.86-.65-6.05-.96-9.46-6.66,1.79-13.49,3.63-19.97,5.38,1.66,17.03-6.76,28.36-18.8,37.75-8.9,6.94-18.64,10.49-30.46,9.94-12.21-.57-24.54,1.65-36.81,1.67-9.6.01-19.32-.81-28.75-2.52-5.89-1.07-11.76-3.8-16.94-6.96-13.12-7.99-24.01-18.33-30.71-32.57-.59-1.26-2.65-2.29-4.18-2.58-5.39-1.02-10.83-1.83-16.28-2.42-13.64-1.49-25.91-7.11-38.01-12.95-9.47-4.57-16.4-12.24-22.83-20.45-6.76-8.62-13.93-16.92-21.39-25.92-3.35,9.87-10.34,15.29-19.78,18.09-2.31.68-4.55,2.22-6.33,3.9-4.96,4.66-10.75,5.01-17.16,4.8-19.12-.65-34.6-10.32-49.54-20.43-9.85-6.66-15.95-17.24-20.74-28.23-.52-1.2-.96-2.42-1.57-3.97-4.72,1.45-9.19,3.19-13.82,4.16-12.32,2.59-24.69,5.02-37.09,7.19-14.73,2.57-29.49,4.91-44.28,7.14-5.58.84-11.24,1.26-16.88,1.56-18.41.97-36.83,2.68-55.22,2.37-12.02-.2-23.99-3.37-35.96-5.29-1.28-.21-2.47-.94-3.71-1.43-3.52-1.38-5.01-4.5-4.17-7.61.6-2.22,3.01-5,5.15-5.59,29.93-8.32,59.84-16.88,90.93-19.91,23.76-2.31,45.84-10.95,68.25-18.26,15.33-5,30.16-11.24,43.92-20.61-6.86-4.96-11.62-11.2-8.82-19.83,2.8-8.62,10.72-5.86,17.26-6.09.5-2.4,1.25-4.63,1.41-6.9.95-13.82,6.63-25.85,14.95-36.41,11-13.97,21.73-28.46,34.62-40.54,14.65-13.73,27.14-29.04,40.24-44.05,14.94-17.11,32-32.35,47.81-48.72,2.97-3.07,4.96-7.44,6.4-11.57,5.38-15.5,10.26-31.17,15.5-46.71,2.39-7.1.49-13.38-2.89-19.5-4.39-7.96-9.53-14.8-16.82-20.99-14.95-12.7-31.39-23.3-46.69-35.46-8.5-6.75-18.29-11.98-27.82-17.3-12.68-7.08-23.56-15.59-31.12-28.5-5.35-9.13-12.23-17.42-18.96-25.65-7.24-8.86-10.93-18.78-9.25-29.99,1.51-10.05,3.14-20.39,6.9-29.71,3.79-9.39,9.86-17.99,15.72-26.39,5.98-8.57,6.85-8.56,1.33-17.17-13.35-20.83-10.6-42.24-1.01-62.78,4.24-9.09,12.52-16.7,20.14-23.71,12.74-11.71,28.43-18.92,44.35-25.27,8.61-3.44,17.58-5.97,26.39-8.91,8.3-2.77,16.53-5.82,24.93-8.23,8.74-2.51,17.6-4.65,26.51-6.51,11.18-2.34,22.39-5.36,33.71-6.04,17.04-1.02,34.19-.56,51.28-.13,7.24.18,15.01.5,21.54,3.19,13,5.37,25.77,11.66,37.8,18.95,20.31,12.31,38.14,27.81,53.64,45.92,7.07,8.26,9.43,18.57,13.07,28.35.86,2.3,1.6,4.77,3,6.73,8.4,11.77,16.9,23.49,25.62,35.03,1.11,1.46,3.75,2.59,5.63,2.52,35.05-1.27,70.11-2.62,105.15-4.24,15.69-.72,30.72,2.56,44.59,9.04,19.99,9.34,39.92,19.19,58.55,30.92,13.06,8.23,24.26,19.6,35.69,30.21,23.09,21.44,40.57,47.17,54.11,75.42,5.57,11.62,9.81,24.09,12.93,36.61,3.73,14.98,6.46,30.33,8.08,45.68,3.09,29.24,7.46,58.58,3.1,88.01-1.81,12.23-5.9,24.13-9.13,36.13-.95,3.51-2.21,7.02-3.9,10.22-1.34,2.54-3.15,5.19-5.45,6.8-5.87,4.11-7.37,7.74-4.32,14.11,10.16,21.21,14.26,43.9,16.34,67.04,3.26,36.11,4.01,72.15-4.08,107.85-2.95,13.01-7.72,25.29-13.73,37.22-8.8,17.48-18.83,34.04-32.24,48.41-3.31,3.54-7.1,5.82-12.19,5.77-10.99-.12-22.07.88-32.94-.23-19.4-1.98-38.78-5.81-54.27-18.49-5.72-4.69-9.08-12.97-12.02-20.22-5.81-14.32-10.54-29.08-15.83-43.61-.83-2.27-2.25-4.33-3.65-6.95ZM1160.92,871.86c-.67.33-1.34.67-2.01,1-11.09,4.29-22.04,9-33.3,12.77-17.61,5.91-35.44,11.16-53.17,16.75-6.42,2.02-9.99,10.9-6.24,15.71,6.07,7.78,13.71,12.16,24.04,11.6,13.76-.75,27.56-.91,41.34-1.4,9.63-.34,19.29-.42,28.87-1.34,12.59-1.21,24.58-4.67,34.31-13.29,2.42-2.14,4.78-5.36,5.34-8.42,1.66-9.04-1.86-16.49-7.52-23.78-5.56-7.16-9.44-15.63-14.13-23.66-4.63,3.82-10.14,8.36-15.64,12.91-.63.38-1.26.76-1.88,1.15ZM658.48,766.04c3.29,1.62,6.43,4.12,9.9,4.71,13.62,2.34,22.27,9.79,25.64,23.21,1.56,6.23,4.2,12.41,1.56,19.02-.16.39-.02.99.15,1.42,1.66,4.07,11.44,8.79,16.41,7.84-.27-5.12.22-10.45-1.02-15.35-1.26-4.97-3.69-9.89-6.63-14.11-2.68-3.86-6.78-6.73-10.19-10.09-7.28-7.18-14.53-14.4-21.79-21.61-6.62-2.93-12.75-8.71-21.95-2.71,2.79,2.7,5.35,5.19,7.91,7.67ZM1192.01,404.02c5.82,4.04,11.82,7.84,17.39,12.2,3.31,2.6,6.26,5.83,8.77,9.23,3.89,5.28,7.27,10.94,10.87,16.44,1.93,1.74,3.86,3.48,5.79,5.21,3.4,6.01,6.69,12.09,10.25,18,1.02,1.69,2.55,3.4,4.27,4.28,3.52,1.79,7.76,2.4,10.94,4.59,12.98,8.94,26.07,17.79,38.39,27.6,22.36,17.82,37.82,41.19,51.01,66.22,1.42,2.71,2.95,5.36,4.87,8.85.8-2.8,1.68-4.53,1.75-6.29.49-12.42,1.59-24.88.98-37.25-.69-14.07-2.72-28.1-4.62-42.09-1.79-13.17-3.79-26.33-6.36-39.37-3.46-17.5-11.5-33.24-20.25-48.59-8.03-14.09-13.9-29.57-26.01-41.08-4.36-4.86-8.72-9.72-13.08-14.57l.03-.36s-.33-.14-.33-.14c-.27-.29-.53-.58-.8-.87-1.63-1.7-3.27-3.39-4.9-5.09-11.54-13.14-24.99-23.96-40.8-31.39-8.96-4.21-18.33-8.33-27.96-10.16-17.92-3.4-36.1-5.84-54.28-7.3-20.03-1.61-40.09-.19-60.65,3.86,1.33,1.63,2.42,2.97,3.51,4.3.48.86.87,1.79,1.47,2.56,12.58,16.02,25.67,31.68,37.65,48.15,10.02,13.78,19.12,28.27,27.82,42.93,2.96,5,6.21,6.54,11.32,6.09,4.33,1.34,8.66,2.68,12.98,4.02ZM824.59,535.92c-2.43,6.34-4.77,12.71-7.33,18.99-1.15,2.83-.99,4.56,1.74,6.69,7.04,5.48,13.48,11.72,20.51,17.21,4.38,3.42,9.22,6.4,14.24,8.77,1.57.74,5.81-.58,6.35-1.94,1.8-4.55,2.48-9.54,3.58-14.36,1.18-2.52,2.36-5.04,3.97-8.49-18.83-4.56-31.44-16.81-40.75-33.11-.4.22-.81.45-1.21.67-.37,1.86-.74,3.71-1.1,5.57ZM772.24,385.63c-.34,1.73-.69,3.45-1.03,5.18-16.67.2-31.37,4.84-41.76,19.03,10.33,6.31,21.35,12.15,31.38,19.38,14.65,10.57,28.29,22.56,42.93,33.14,9.21,6.65,17.25,13.72,21.83,24.41,3.06,7.15,8.46,14.16,5.46,22.06-3.97,10.45.46,17.01,6.31,25.1,8.81,12.18,20.47,19.07,33.84,24.16.69.26,1.57.36,2.28.18,6.27-1.54,12.46-3.54,18.79-4.68,16.26-2.93,32.06-2.85,45.18,8.84,51.46-29.98,98.54-65.48,139.54-109.1-1.61-3.39-3.81-7.15-5.25-11.18-5.75-16.1-11.73-32.15-16.74-48.49-6.68-21.76-12.73-43.72-18.69-65.7-4.61-17.01-8.46-34.2-18.15-49.38-4.99-7.81-8.44-16.65-13.76-24.2-9.56-13.58-23.57-22.3-37.08-31.4-8.3-5.58-17.24-9.29-27.63-7.79-5.41.78-10.93.91-16.26,2.01-10.5,2.16-21.59,3.27-31.2,7.57-16.88,7.55-32.87,17.1-49.16,25.97-7.73,4.21-15.28,8.76-22.9,13.18-3.1,1.81-5.8,1.6-6.26-2.34-.51-4.35-1.78-7.97-5.21-10.85-.76-.64-1.19-2.1-1.16-3.17.28-14.15-9.92-23.6-16.57-34.15-6.15-9.75-16.79-15.39-29.53-14.27-3.63.32-7.43-.53-10.96.17-6.91,1.38-13.77,3.17-20.46,5.35-5.49,1.8-10.84,4.18-16.02,6.77-2.96,1.48-6.48,3.31-7.98,5.98-6.99,12.37-14.97,24.82-6.7,39.88.45.81.17,1.99.44,2.94.8,2.82,1.71,5.62,2.53,8.3,5.44-.67,5.38-.61,9.01,2.75,1.7,1.58,3.58,2.99,5.51,4.27,9.53,6.35,9.2,24.38-1.2,29.33-9.2,4.39-19.16,7.18-28.97,10.74.34.48.9,1.29,1.7,2.44-3.11.16-5.84.3-8.82.45-.97,5.48-2.4,10.66-2.67,15.89-.24,4.71-.71,10.4,1.51,14.08,7.68,12.68,16.49,24.66,25.65,38.04,2.45-7.63,4.33-13.7,6.36-19.72.78-2.3,1.89-4.48,2.86-6.72,1.31,1.27,3.95,2.9,3.72,3.75-1.74,6.44-1.6,13.55-6.82,18.87-3.5,3.57-3.23,8.15-.26,11.82,2.56,3.16,5.9,5.78,9.21,8.2,3.3,2.41,6.95,1.51,9.49-1.23,11.89-12.82,26.95-16.61,43.69-15.9ZM930.53,568.21c.98-5.5-3.75-6.15-6.89-7.18-15.17-5-30.11-2.52-44.07,2.03-1.36,2.68-2.53,4.76-3.5,6.94-1.69,3.8-3.25,7.66-4.87,11.5-.8,3.21-1.58,6.42-2.41,9.62-.56,2.16-1.55,4.28-1.7,6.46-.34,4.77,1.73,8.51,4.49,12.54,5.04,7.35,9.7,14.67,18.36,18.3,1.23.51,1.89,2.25,3.03,3.14,1.64,1.27,3.41,3.13,5.23,3.26,5.96.42,12.12,1.02,17.92-.03,6.39-1.15,13.8-1.11,16.94-9.39,3.97-10.49,8.8-20.66,13.49-31.53-6.01-1.21-6.54-4.56-6.37-8.6.09-2.05-.19-4.49-1.26-6.13-2.49-3.83-5.56-7.29-8.4-10.9ZM986,926.15c-20.99,4.53-42.2,2.96-63.38,2.22-12.93-2.81-25.86-5.62-38.8-8.43,3.26,5.51,6.96,10.58,11.38,14.91,14.1,13.83,31.76,17.96,50.79,17.43,13.28-.37,26.55-2.08,39.8-1.75,9.43.23,17.12-2.41,24.45-7.77,7.09-5.19,12.03-11.88,14.89-20.1,1.89-5.44.31-7.47-5.09-6.07-11.4,2.96-22.7,6.35-34.03,9.56ZM1083.24,267.32h-5.03c-.15.39-.3.78-.44,1.17,1.37,1.28,2.74,2.55,4.11,3.83.41.56.81,1.13,1.22,1.69,2.81,4.44,5.42,9.03,8.54,13.24.97,1.31,3.37,2.38,5.01,2.25,12.07-.97,24.09-2.48,36.16-3.41,16.67-1.28,33.09,1.37,49.52,3.65,11.99,1.67,24.29,2.19,35.9,5.29,22.42,5.99,42.28,17.18,58.75,33.89.64.56,1.28,1.11,1.92,1.67.5.48,1,.97,1.51,1.45,5.18,5.33,10.35,10.65,15.53,15.98,6.82,8.35,14.64,16.08,20.25,25.18,8.97,14.55,16.83,29.82,24.52,45.12,7.9,15.73,12.51,32.67,14.93,50.03,3,21.55,5.3,43.21,7.62,64.85,1.81,16.84,1.34,33.56-4.38,49.79-.35.99-.5,2.3-.16,3.25,4.59,12.76,9.29,25.48,13.91,38.11,5.75-2.92,8.61-8.2,11.21-14.4,7.03-16.82,11.43-34.24,10.84-52.32-.88-26.91-2.69-53.81-4.97-80.64-2.02-23.8-8.03-46.78-17.58-68.75-4.14-7.75-8.19-15.55-12.43-23.24-11.09-20.16-25.4-37.92-42.07-53.61-11.47-10.8-23.19-21.63-36.14-30.48-13.8-9.43-28.87-17.19-43.96-24.5-18.86-9.14-38.66-14.82-60.16-13.6-25.23,1.43-50.53,1.8-75.79,2.8-6.12.24-12.22,1.13-18.33,1.73ZM799.39,826.05c-12.32-2.23-24.65-4.47-36.97-6.7-.3.47-.61.94-.91,1.4,1.55,2.8,3.1,5.6,4.64,8.4,1.55,3.12,2.75,6.49,4.73,9.31,6.19,8.81,12.8,17.32,19.03,26.1,11.04,15.56,23.52,29.32,42.57,35.11,4.91,1.49,9.78,3.29,14.8,4.22,14.53,2.69,29.48,3.78,43.63,7.77,21.75,6.13,43.62,8.77,66.06,7.74,5.64-.26,11.5.42,16.89-.86,18.89-4.49,37.74-9.25,56.39-14.65,28.87-8.36,58.6-13.83,86.47-25.61,3.64-1.54,7.66-2.19,11.54-3.11,11.63-2.76,22.93-7.25,31.73-14.93,12.8-11.17,26.72-21.43,36.31-35.99,8.46-12.84,12.7-19.74,3.35-35.06-1.43-2.35-1.82-5.33-3.11-7.79-.77-1.48-2.19-3.29-3.62-3.61-3.85-.87-7.93-.73-11.81-1.52-10.2-2.08-20.34-4.43-30.33-6.64-.91,1.23-1.86,2.53-2.82,3.82-1.47,1.01-3.07,1.86-4.37,3.05-12.59,11.49-25.88,22.04-41.81,28.49-8.43,3.41-17.44,5.38-25.92,8.68-15.96,6.22-31.95,12.18-48.85,15.47-13.03,2.54-25.82,6.58-38.94,8.25-29.7,3.79-59.59,4.83-89.56,4.33-16.49-.27-32.91-.3-49.09-3.95-4.41-1.34-8.75-2.97-13.23-3.97-12.23-2.73-24.52-5.2-36.79-7.77ZM667.7,780.75c-3.72-2-7.53-1.85-10.87.48-14.34,10-30.21,16.73-46.76,21.86-18.54,5.75-37.08,11.66-55.94,16.15-14.01,3.33-28.63,3.97-42.79,6.77-13.45,2.66-26.66,6.56-39.98,9.91-3.4.69-6.8,1.38-10.21,2.06.03.66.05,1.32.08,1.99,12.55,1,25.08,2.48,37.65,2.84,8.41.24,16.86-1.17,25.3-1.74,8.63-.58,17.34-.47,25.88-1.64,18.76-2.56,37.45-5.67,56.14-8.7,9.49-1.54,18.98-3.14,28.37-5.19,7.76-1.7,15.42-3.94,23.03-6.26,8.55-2.61,17.04-5.45,25.45-8.49,1.64-.59,3.74-2.36,4.02-3.89,1.96-10.65-8.1-24-19.35-26.16ZM866.31,618c-1.22-2.66-2.44-5.32-3.24-7.08-15.09,4.59-29.6,9.77-44.5,13.32-13.42,3.19-26.08,7.41-37.1,15.87-4.63,2.72-9.89,4.39-11.89,10.48-2.53,7.71-6.02,15.1-8.75,22.75-3.98,11.13-8.44,22.16-9.13,34.56,3.18-2.45,5.94-4.79,8.9-6.83,10.64-7.34,21.31-14.64,32.05-21.83,5.21-3.49,10.26-7.5,15.95-9.93,17.53-7.5,35.34-14.36,53.03-21.47,7.72-3.1,15.43-6.21,22.19-8.93-5.93-7.08-11.72-14-17.51-20.91ZM1141.01,393.97c-3.6,4.55-7.77,8.76-10.71,13.7-9.49,15.92-21.45,29.61-35.72,41.34-7.84,6.44-15.97,12.57-23.48,19.37-11.34,10.27-21.8,21.54-33.47,31.39-13.7,11.57-27.97,22.55-42.61,32.92-15.44,10.94-31.62,20.85-47.43,31.28-1.64,1.08-2.93,2.69-4.38,4.05,4.39,5.46,9.85,10.34,9.23,19.04,4.12-3.54,7.12-7.14,10.95-9.19,8.54-4.57,17.6-8.14,26.24-12.52,9.9-5.02,19.2-11.38,29.42-15.54,22.72-9.25,42.86-22.56,62.33-37.13,6.12-4.58,12.16-9.28,18.27-13.89,13.38-10.09,27.16-19.71,40.07-30.37,12.89-10.65,24.23-22.88,30.09-39.11.69-1.92,1.53-4.51.81-6.11-5.73-12.68-11.81-25.21-17.85-37.75-.47-.97-1.45-1.68-2.56-2.92-3.22,3.99-6.21,7.71-9.21,11.43ZM692.26,765.45c6.73,7.54,11.77,16.73,21.12,21.72,7.21,11.14,8.57,23.64,7.94,36.42-.41,8.3-8.61,12.93-15.73,8.95-5.47-3.05-10.43-7-15.68-10.46-1.3-.85-3.12-2.2-4.23-1.84-7.18,2.32-14.22,5.04-22.56,8.09,4.48,6.78,7.95,13.73,12.96,19.28,9.66,10.71,21.35,18.87,35.66,22.26,6.27,1.49,12.74,2.16,19.15,2.97,1.35.17,2.95-.46,4.22-1.13,6.14-3.24,12.19-6.67,18.31-9.95,5.51-2.95,10.49-14.75,8.1-19.34-6.93-13.32-12.88-26.98-15.66-41.89-1.19-6.36-3.26-12.56-4.55-18.9-1.68-8.26-3.55-16.54-4.33-24.91-1.23-13.14.09-26.29,2.74-39.17,2.67-12.97,5.62-25.93,9.34-38.63,3.6-12.27,8.17-24.28,12.69-36.26,1.96-5.19,4.76-10.09,7.41-15,4.82-8.9,9.83-17.69,14.7-26.57.42-.76.29-1.83.63-4.3-10.22,11.26-19.55,21.38-28.7,31.67-7.39,8.31-14.32,17.04-21.87,25.19-7.67,8.3-16.03,15.96-23.75,24.22-5.55,5.94-10.3,12.63-15.86,18.56-13.59,14.48-23.04,30.87-24.54,51.08-.1,1.41,1.16,3.45,2.4,4.34,6.58,4.68,13.36,9.08,20.06,13.58ZM1108.1,707.99c-9.42-4.52-19.06-8.66-28.23-13.64-17.22-9.36-34.03-19.46-51.27-28.77-14.03-7.57-28.62-14.11-42.64-21.7-7.38-4-14.32-8.94-20.97-14.09-3.17-2.46-7.25-6.37-7.3-9.68-.08-6.15-5.15-6.67-8-11.4-.33,3.08-.5,4.66-.66,6.24-3.49,6.33-6.98,12.65-10.98,19.92,3.55,3.68,8,8.31,12.46,12.95,3.8,3.95,8.14,7.53,11.3,11.94,13.15,18.32,29.49,33.31,47.57,46.51,18.02,13.16,38.13,22.37,58.94,29.94,18.54,6.74,37.29,12.97,56.22,18.51,20.36,5.95,41,10.93,61.59,16.08,3.06.76,6.47.11,9.67.11.48-8.76.93-17.15,1.37-25.2-29.6-12.53-59.34-25.12-89.08-37.71ZM1200.18,738.86c.57-2.26,1.47-4.44,1.64-6.69.73-9.45,1.21-18.91,1.86-28.36.18-2.63.05-5.58,1.22-7.74.84-1.55,3.72-2.88,5.53-2.71,1.24.12,3.09,2.98,3.14,4.66.18,5.96-.05,11.96-.59,17.91-.65,7.28-.62,14.9-2.92,21.68-4.23,12.5-4.75,25.15-4.06,37.96.45,8.29,2.33,16.16,7.75,23.2,4.51,5.86,8.28,12.6,10.95,19.5,6.06,15.66,10.93,31.79,16.96,47.47,2.08,5.41,5.16,11.3,9.51,14.81,13.81,11.16,31.11,13.61,47.97,15.87,10.3,1.38,20.93.33,31.41.15,1.66-.03,3.77-.74,4.86-1.91,4.97-5.32,10.35-10.45,14.27-16.5,6.59-10.17,12.27-20.93,18.16-31.54,6.16-11.1,9.9-23.1,12.91-35.4,5.28-21.59,5.83-43.53,5.2-65.53-.43-15.12-.77-30.31-2.56-45.31-1.86-15.61-3.6-31.33-10.42-46.05-4.73-10.2-7.71-21.22-11.38-31.91-2.59-7.54-4.61-15.32-7.64-22.68-6.72-16.28-14.5-31.96-24.02-46.94-9.27-14.6-19.21-28.49-32.37-39.56-11.55-9.71-24.12-18.21-36.36-27.09-2.63-1.91-5.65-3.35-8.63-4.68-9.67-4.32-20.15-7.35-28.92-13.03-10.78-6.98-20.24-16.03-30.1-24.39-5.51-4.67-10.67-9.75-16.34-14.98-2.7,5.48-4.75,10.18-7.26,14.63-8.34,14.79-21.07,25.72-33.69,36.49-8.94,7.63-18.95,14.05-28.76,20.59-4.09,2.72-3.84,5.94-3.3,9.9,1.25,9.01,3.05,18.05,3.08,27.09.02,6.07-1.67,12.61-4.32,18.11-3.87,8.04-9.33,15.3-14.02,22.96-.91,1.49-1.95,3.25-1.96,4.89-.09,14.66-.58,29.36.29,43.97.72,11.98,4.98,23.17,13.43,32.11,10.29,10.87,20.76,21.59,31.43,32.08,8.75,8.59,17.52,17.25,26.99,25,12.03,9.84,26.04,16.44,41.04,21.99ZM1143.42,767.82c-24.46-7.98-48.48-15.26-72.08-23.68-21.13-7.54-42.2-15.77-60.35-29.32-13.29-9.92-26.38-20.37-38.1-32.04-13.97-13.91-26.35-29.4-39.53-44.11-.77-.86-2.88-1.56-3.73-1.12-8.4,4.42-17.43,3.77-26.4,3.67-5.8-.06-11.87-1.61-16.53,3.65-.58.65-1.85.66-2.78,1.03-7.72,3.08-15.44,6.18-23.15,9.28-14.94,6.01-29.98,11.82-44.78,18.16-6.34,2.71-12.45,6.15-18.21,9.96-7.89,5.22-15.01,11.65-23.07,16.54-7.58,4.6-15,9.14-20.88,15.9-1.47,1.69-4.39,2.75-4.86,4.57-1.38,5.26-2.15,10.73-2.63,16.17-1.68,18.82,1.35,37.09,6.77,55.08,1.82,6.04,3.11,12.25,4.59,18.39.66,2.72,1.96,3.77,5.09,4.11,11.54,1.24,23.14,2.49,34.48,4.86,19.85,4.14,39.53,9.14,59.29,13.73,16.76,3.89,33.81,2.17,50.75,2.57,31.17.74,62.18-.94,92.91-6.4,7.02-1.25,14.01-2.84,20.88-4.77,13.42-3.76,26.77-7.78,40.1-11.86,6.35-1.95,12.46-4.8,18.89-6.37,25.06-6.09,45.22-20.09,63.36-38ZM1081.19,449.8c.88.24,1.77.47,2.65.71,9.05-8.75,18.92-16.8,26.95-26.4,11.39-13.62,21.17-28.57,32.17-42.52,3.45-4.38,3.21-7.4-.03-11.18-6.16-7.18-12.5-14.22-18.29-21.68-9.08-11.7-18.04-23.51-26.57-35.62-12.82-18.2-25.12-36.76-37.83-55.03-7.12-10.24-14.7-20.15-21.87-30.35-1.67-2.38-2.51-5.36-3.67-8.09-3.36-7.93-5.4-16.8-10.33-23.58-6.59-9.07-14.84-17.16-23.38-24.51-14.01-12.06-29.86-21.47-45.84-30.87-14.49-8.53-29.65-11.69-45.68-11.71-18.21-.02-36.52-1.91-54.62,2.88-11,2.92-22.67,3.37-33.62,6.45-17.36,4.88-34.36,11.04-51.53,16.62-24.98,8.11-47.93,19.32-65.49,39.87-8.46,9.89-9.34,21.81-11.45,33.57,1.03-1.34,1.49-2.89,2.15-4.35,3.92-8.76,8.07-17.14,18.98-19.21,3.67-.7,7.37-2.37,10.54-4.41,15.01-9.65,31.51-7.76,47.93-6.64,1.63.11,3.35.48,4.81,1.19,12.85,6.28,22.68,15.58,28.02,29.08,4.54,11.48,8.85,23.04,13.45,35.03,2.52-1.47,4.35-2.56,6.2-3.62,6.06-3.46,12.13-6.92,18.2-10.37,9.22-5.23,18.39-10.54,27.67-15.66,7.84-4.32,15.44-9.43,23.78-12.39,17.64-6.26,36.11-8.62,54.83-7.87,4.16.17,8.46,1.74,12.29,3.54,4.93,2.31,9.65,5.23,14.12,8.37,11.82,8.32,24.39,16.09,32.58,28.32,7.18,10.72,13.21,22.23,19.42,33.57,10.7,19.54,13.82,41.61,20.07,62.6,6.17,20.7,10.72,41.87,19.44,61.77,1.32,3.01,1.84,6.36,2.89,9.51,3.65,11,7.36,21.99,11.04,32.98ZM952.4,595.84c2.4,6.51,3.8,12.61,9.91,15.9,1.28.69,2.31,2.56,2.71,4.08,2.84,10.99,11.35,16.26,20.52,21.07,20.45,10.71,41.08,21.13,61.17,32.48,28.85,16.3,58.6,30.65,89.07,43.58,3.64,1.54,7.46,2.65,11.19,3.96-4.84-6.17-10.08-11.61-15.42-16.94-8.94-8.93-17.7-18.07-26.99-26.63-17.75-16.35-25.62-36.37-23.93-60.38.37-5.31.56-10.72-.04-15.98-1.39-12.1,2.11-22.04,9.74-31.66,5-6.3,9.02-14.45,10.37-22.3,1.96-11.34.41-23.08-3.39-34.25-10.76,7.8-21.03,15.95-32.01,23.01-11.3,7.26-22.77,14.7-35.09,19.83-23.31,9.72-44.35,23.29-65.88,36.08-4.19,2.49-8.08,5.5-11.93,8.15ZM777.29,634.47c1.61-.77,3.17-1.22,4.36-2.14,11.57-8.94,25.09-12.55,39.18-14.77,3.92-.62,7.83-1.61,11.58-2.92,9.63-3.34,19.17-6.96,28.73-10.46.75-4.89-1.26-7.49-6.34-9.11-8.45-2.69-15.82-7.41-22.25-13.8-5.79-5.76-12.31-10.77-18.9-16.46-12.41,23.77-24.25,46.43-36.37,69.65ZM1237.34,466.12c.59-.62,1.18-1.25,1.77-1.87-1.53-2.47-2.83-5.12-4.63-7.37-4.53-5.65-10.16-10.6-13.76-16.76-5.89-10.05-11.73-19.71-22.84-24.79-.87-.4-1.48-1.33-2.28-1.92-6.39-4.75-13.5-7.31-22.21-6.82,1.55,4.03,3.07,8.18,5.91,11,11.07,10.98,22.2,21.97,34.03,32.11,7.32,6.27,15.96,11.01,24.01,16.43ZM704.76,271.74c-2.41,2.96-5.13,5.21-1.48,10,1.76,2.31.93,7.93-.68,11.03-1.22,2.34-5.31,4.92-8.81.91-1.49,1.29-2.72,2.35-3.17,2.74,1.38,3.68,2.4,6.38,3.47,9.22,9.05,2.75,11.52-8.39,18.77-9.08,2.06-9.86-.53-17.99-8.09-24.81Z"/>
  <path class="cls-18" d="M713.22,360.11c-.96,2.23-2.08,4.42-2.86,6.72-2.03,6.02-3.91,12.09-6.36,19.72-9.15-13.38-17.97-25.36-25.65-38.04-2.23-3.68-1.76-9.36-1.51-14.08.27-5.23,1.69-10.41,2.67-15.89,2.98-.15,5.71-.29,8.82-.45-.8-1.14-1.36-1.95-1.7-2.44,9.81-3.56,19.77-6.35,28.97-10.74,10.4-4.96,10.73-22.98,1.2-29.33-1.93-1.29-3.81-2.7-5.51-4.27-3.62-3.36-3.57-3.42-9.01-2.75-.83-2.68-1.73-5.47-2.53-8.3-.27-.95,0-2.13-.44-2.94-8.27-15.05-.29-27.5,6.7-39.88,1.51-2.67,5.02-4.5,7.98-5.98,5.18-2.59,10.52-4.97,16.02-6.77,6.69-2.19,13.56-3.98,20.46-5.35,3.52-.7,7.32.15,10.96-.17,12.74-1.13,23.39,4.52,29.53,14.27,6.65,10.55,16.86,20,16.57,34.15-.02,1.07.4,2.54,1.16,3.17,3.42,2.87,4.7,6.49,5.21,10.85.46,3.94,3.16,4.14,6.26,2.34,7.61-4.43,15.16-8.97,22.9-13.18,16.28-8.87,32.28-18.42,49.16-25.97,9.61-4.3,20.7-5.41,31.2-7.57,5.33-1.1,10.86-1.22,16.26-2.01,10.39-1.51,19.34,2.21,27.63,7.79,13.51,9.09,27.53,17.82,37.08,31.4,5.31,7.55,8.77,16.39,13.76,24.2,9.69,15.19,13.53,32.37,18.15,49.38,5.96,21.97,12.01,43.94,18.69,65.7,5.01,16.34,11,32.38,16.74,48.49,1.44,4.03,3.64,7.8,5.25,11.18-41,43.62-88.08,79.13-139.54,109.1-13.12-11.69-28.92-11.77-45.18-8.84-6.34,1.14-12.52,3.14-18.79,4.68-.71.17-1.59.08-2.28-.18-13.37-5.1-25.02-11.99-33.84-24.16-5.85-8.09-10.28-14.65-6.31-25.1,3-7.9-2.4-14.91-5.46-22.06-4.58-10.7-12.62-17.76-21.83-24.41-14.65-10.58-28.28-22.57-42.93-33.14-10.02-7.23-21.05-13.07-31.38-19.38,10.39-14.19,25.08-18.83,41.76-19.03,1.14,2.26,2.03,4.7,3.53,6.69.68.9,2.83,1.53,3.84,1.12.98-.4,2.01-2.35,1.9-3.51-.88-9.17-.58-18.66-6.12-26.77,10.98-5.22,21.96-10.44,32.94-15.66.14,1.95.27,3.91.41,5.86,1.53-1.06,2.98-2.3,4.62-3.16,3.35-1.76,6.81-3.32,10.23-4.96.23.58.47,1.16.7,1.74-.94.39-2.07.58-2.79,1.23-1.1.99-1.92,2.3-2.86,3.48,1.33.72,2.63,1.97,3.99,2.05,4.17.22,7.43-2.95,7.83-7.41.24-2.64.06-5.31.07-7.97,5.2-1.16,6.29-.27,5.98,4.93-.07,1.16-.29,2.3-.38,3.46-.57,7.23-1.26,14.45-1.58,21.69-.07,1.52,1.12,3.21,2.05,4.59.25.36,2.47.04,2.53-.23.35-1.62.6-3.35.38-4.98-1.5-11.15-2.81-22.07,7.09-30.74,3.68-3.22,6.51-7.4,9.73-11.15,4.28-6.99,2.28-13.17-4.57-14.12-.71-2.88-2.26-3.42-4.36-1.33-1.65,1.65-3.06,3.54-4.58,5.32-1.46-.99-2.92-1.97-4.38-2.96-1.17-1.7-2.06-3.75-3.6-5-1.3-1.05-3.42-1.03-5.07-1.72-9.61-4.06-19.41-2.36-28.79.06-7.65,1.98-14.63,7.66-22.82,1.88-.36-.25-.97-.14-1.47-.21-13.45-1.92-24.62,3.4-34.79,11.36-1.38,1.08-1.56,3.7-2.3,5.6-3.4,1.08-6.8,2.15-10.2,3.23-4.35-3.3-5.27.43-5.8,3.24-.88,4.7-2.91,8.45-7.03,10.84-2.55,1.48-5.52,2.28-7.91,3.95-1.15.8-1.39,2.91-2.04,4.43,1.56.21,3.14.64,4.69.55,1.22-.07,2.4-.77,3.6-1.19-.22,1.69-.44,3.38-.65,5.08ZM855.73,300.54c-6.13,0-6.61.79-4.47,5.9,2.34,5.57,7.15,8.12,12.3,10.16.88.35,2.55-.35,3.35-1.1.43-.41-.08-2.01-.42-2.97-.28-.8-.95-1.46-1.81-2.72,3.7-.53,6.82-.88,9.89-1.43,8.99-1.63,14.35-13.77,9.22-21.25-1.42-2.07-3.5-4.37-5.74-5.08-7.93-2.5-18.16,2.37-21.19,9.93-1,2.49-.75,5.47-1.12,8.56Z"/>
  <path class="cls-16" d="M1200.18,738.86c-15-5.55-29-12.15-41.04-21.99-9.48-7.75-18.25-16.4-26.99-25-10.68-10.49-21.15-21.2-31.43-32.08-8.45-8.94-12.71-20.13-13.43-32.11-.87-14.61-.38-29.31-.29-43.97.01-1.64,1.05-3.4,1.96-4.89,4.69-7.65,10.15-14.92,14.02-22.96,2.65-5.5,4.33-12.04,4.32-18.11-.02-9.03-1.83-18.08-3.08-27.09-.55-3.96-.8-7.18,3.3-9.9,9.81-6.53,19.82-12.96,28.76-20.59,12.62-10.77,25.34-21.69,33.69-36.49,2.51-4.45,4.56-9.15,7.26-14.63,5.68,5.23,10.84,10.31,16.34,14.98,9.86,8.36,19.32,17.41,30.1,24.39,8.77,5.68,19.25,8.7,28.92,13.03,2.98,1.33,6,2.78,8.63,4.68,12.23,8.88,24.81,17.38,36.36,27.09,13.16,11.07,23.1,24.97,32.37,39.56,9.51,14.98,17.3,30.66,24.02,46.94,3.04,7.36,5.05,15.13,7.64,22.68,3.67,10.69,6.65,21.71,11.38,31.91,6.82,14.72,8.56,30.44,10.42,46.05,1.79,14.99,2.13,30.19,2.56,45.31.62,22,.07,43.94-5.2,65.53-3.01,12.31-6.75,24.3-12.91,35.4-5.89,10.61-11.57,21.37-18.16,31.54-3.92,6.05-9.3,11.18-14.27,16.5-1.09,1.16-3.2,1.88-4.86,1.91-10.48.17-21.12,1.23-31.41-.15-16.86-2.27-34.16-4.72-47.97-15.87-4.36-3.52-7.43-9.4-9.51-14.81-6.03-15.68-10.9-31.8-16.96-47.47-2.67-6.9-6.45-13.64-10.95-19.5-5.42-7.04-7.3-14.91-7.75-23.2-.69-12.81-.18-25.46,4.06-37.96,2.3-6.78,2.27-14.4,2.92-21.68.53-5.95.77-11.95.59-17.91-.05-1.68-1.9-4.54-3.14-4.66-1.81-.18-4.68,1.16-5.53,2.71-1.18,2.16-1.04,5.11-1.22,7.74-.66,9.45-1.13,18.92-1.86,28.36-.17,2.25-1.07,4.43-1.64,6.69ZM1258.36,537.53c-7.71.39-13.28,3.57-15.47,9.2-2.68,6.89-1.53,13.98,4.93,18.28,5.68,3.77,9.2,7.87,11.9,14.28,1.77,4.22,3.15,7.95,3.23,12.44.26,14.84,11.04,23.6,25.71,21.75,2.54-.32,7.81,2.35,7.84,3.71.13,8.34,5.27,13.44,10.97,17.57,6.3,4.56,8.5,10.75,9.99,17.63.49,2.25.2,4.68.73,6.92,3.54,14.78,3.82,29.89,4.57,44.93.64,12.78,2.37,25.29,4.78,37.89,2.28,11.94,2.03,24.42,2.21,36.68.08,5.16-1.62,10.34-2.46,15.52-.85,5.22-2.09,10.43-2.34,15.68-.32,6.59,3.81,10.89,10.34,11.89,5.25.8,10.78-2.77,12.53-8.5,1.06-3.47,1.03-7.32,2.38-10.64,7.76-19.04,4.76-38.6,2.91-58.04-.59-6.2-3.54-12.18-4.09-18.38-1.19-13.38-1.51-26.83-2.22-40.26-.1-1.81-.32-3.63-.58-5.42-1.44-9.99-2.6-20.04-4.44-29.96-2.07-11.12-4.32-22.38-13.84-30.08-3.41-2.76-4.73-5.59-2.62-9.81.65-1.3.54-3.41-.04-4.8-1.89-4.54-3.93-9.05-6.34-13.33-2.11-3.75-3.93-6.82-2.47-11.8,2.15-7.36-2.89-23.23-13.29-27.25-11.76-4.55-23.39-9.46-35.16-13.97-3.04-1.16-6.43-1.43-9.65-2.1Z"/>
  <path class="cls-18" d="M1143.42,767.82c-18.14,17.91-38.31,31.91-63.36,38-6.43,1.56-12.53,4.42-18.89,6.37-13.33,4.09-26.68,8.1-40.1,11.86-6.87,1.92-13.85,3.52-20.88,4.77-30.73,5.46-61.74,7.13-92.91,6.4-16.94-.4-33.99,1.33-50.75-2.57-19.76-4.59-39.44-9.59-59.29-13.73-11.34-2.37-22.94-3.62-34.48-4.86-3.13-.34-4.43-1.38-5.09-4.11-1.49-6.14-2.77-12.35-4.59-18.39-5.42-17.99-8.45-36.26-6.77-55.08.48-5.44,1.25-10.91,2.63-16.17.48-1.82,3.39-2.88,4.86-4.57,5.88-6.76,13.3-11.3,20.88-15.9,8.07-4.89,15.18-11.32,23.07-16.54,5.76-3.81,11.87-7.25,18.21-9.96,14.81-6.34,29.84-12.15,44.78-18.16,7.71-3.1,15.43-6.2,23.15-9.28.93-.37,2.2-.38,2.78-1.03,4.67-5.27,10.73-3.72,16.53-3.65,8.97.1,18,.75,26.4-3.67.84-.45,2.96.26,3.73,1.12,13.18,14.71,25.57,30.2,39.53,44.11,11.72,11.68,24.81,22.13,38.1,32.04,18.16,13.55,39.22,21.78,60.35,29.32,23.61,8.42,47.63,15.7,72.08,23.68Z"/>
  <path class="cls-4" d="M1081.19,449.8c-3.69-10.99-7.4-21.97-11.04-32.98-1.04-3.15-1.57-6.5-2.89-9.51-8.72-19.9-13.27-41.07-19.44-61.77-6.25-20.99-9.37-43.06-20.07-62.6-6.21-11.34-12.24-22.85-19.42-33.57-8.19-12.24-20.76-20-32.58-28.32-4.47-3.14-9.19-6.06-14.12-8.37-3.83-1.8-8.14-3.37-12.29-3.54-18.72-.75-37.19,1.61-54.83,7.87-8.34,2.96-15.94,8.07-23.78,12.39-9.28,5.11-18.45,10.42-27.67,15.66-6.07,3.45-12.14,6.9-18.2,10.37-1.85,1.06-3.68,2.15-6.2,3.62-4.59-11.99-8.91-23.55-13.45-35.03-5.34-13.5-15.17-22.8-28.02-29.08-1.45-.71-3.18-1.08-4.81-1.19-16.42-1.12-32.92-3.01-47.93,6.64-3.17,2.04-6.87,3.71-10.54,4.41-10.91,2.08-15.06,10.45-18.98,19.21-.66,1.46-1.12,3.01-2.15,4.35,2.11-11.76,3-23.68,11.45-33.57,17.56-20.55,40.51-31.76,65.49-39.87,17.17-5.58,34.17-11.74,51.53-16.62,10.95-3.07,22.61-3.53,33.62-6.45,18.1-4.8,36.41-2.9,54.62-2.88,16.02.02,31.18,3.18,45.68,11.71,15.97,9.4,31.83,18.81,45.84,30.87,8.54,7.35,16.79,15.44,23.38,24.51,4.93,6.78,6.97,15.65,10.33,23.58,1.16,2.73,2,5.71,3.67,8.09,7.16,10.21,14.75,20.12,21.87,30.35,12.71,18.28,25.01,36.84,37.83,55.03,8.53,12.11,17.48,23.92,26.57,35.62,5.79,7.46,12.14,14.51,18.29,21.68,3.24,3.78,3.49,6.8.03,11.18-11,13.96-20.78,28.91-32.17,42.52-8.03,9.6-17.9,17.66-26.95,26.4-.88-.24-1.77-.47-2.65-.71ZM930.06,156.04c.03-.69.05-1.37.08-2.06-1.15-2.32-1.76-5.22-3.54-6.84-4.95-4.51-9.71-9.75-17.44-9.22-.84.06-1.79-.73-2.61-1.26-4.2-2.68-8.48-2.29-12.29.87-4.45,3.69-9.31,6.95-13.47,10.93-2.34,2.24-5.41,5.82-5.06,8.37.88,6.44,4.11,13.17,10.46,15.19,6.88,2.19,14.91,3.49,21.86,2.16,12.79-2.45,25.06.77,37.55.94,1.12.02,2.21,1.29,3.34,1.96,5.61,3.33,12.8-.37,13.34-6.86.75-9.13-3.71-14.05-12.98-14.18-6.41-.09-12.81-.02-19.22-.02Z"/>
  <path class="cls-10" d="M1147.95,773.44c.95-1.3,1.91-2.59,2.82-3.82,10,2.21,20.13,4.57,30.33,6.64,3.88.79,7.95.65,11.81,1.52,1.43.32,2.85,2.14,3.62,3.61,1.29,2.47,1.68,5.44,3.11,7.79,9.35,15.32,5.11,22.22-3.35,35.06-9.59,14.55-23.51,24.82-36.31,35.99-8.79,7.67-20.09,12.16-31.73,14.93-3.88.92-7.9,1.58-11.54,3.11-27.87,11.79-57.6,17.25-86.47,25.61-18.65,5.4-37.5,10.16-56.39,14.65-5.39,1.28-11.25.6-16.89.86-22.44,1.03-44.31-1.61-66.06-7.74-14.15-3.99-29.1-5.08-43.63-7.77-5.02-.93-9.89-2.73-14.8-4.22-19.05-5.79-31.53-19.54-42.57-35.11-6.23-8.78-12.84-17.29-19.03-26.1-1.98-2.82-3.18-6.19-4.73-9.31,2.78.24,5.7.02,8.32.79,13.48,3.96,26.89,8.18,40.33,12.31,14.32,4.4,28.91,7.2,43.95,6.71,28.82-.93,57.63-1.95,86.44-3,4.79-.17,9.57-.58,14.34-1.06,22.51-2.26,44.97-5.3,67.53-6.64,17.09-1.02,33.41-5.17,49.4-10.21,17.35-5.47,34.22-12.78,48.74-24.22,7.02-5.53,13.61-11.62,20.12-17.75,3.63-3.41,6.26-7.49,2.62-12.64Z"/>
  <path class="cls-8" d="M1286.66,346.9s.33.14.33.14c0,0-.03.36-.03.36,1.5,3.57,2.97,7.15,4.52,10.7,1.68,3.84,4.3,5.71,8.56,3.87,12.11,11.51,17.98,26.98,26.01,41.08,8.75,15.36,16.79,31.09,20.25,48.59,2.58,13.03,4.58,26.2,6.36,39.37,1.9,13.99,3.92,28.01,4.62,42.09.61,12.37-.49,24.83-.98,37.25-.07,1.76-.94,3.49-1.75,6.29-1.93-3.49-3.45-6.14-4.87-8.85-13.18-25.03-28.65-48.4-51.01-66.22-12.31-9.81-25.41-18.66-38.39-27.6-3.19-2.19-7.42-2.8-10.94-4.59-1.72-.87-3.25-2.58-4.27-4.28-3.56-5.92-6.86-11.99-10.25-18,3.78-.83,5.13-3.67,3.87-6.77-3.48-8.58-7.32-17.03-11.38-25.35-1.19-2.44-3.23-4.95-5.54-6.29-9.3-5.39-18.81-10.41-28.35-15.35-1.83-.94-4.17-1.14-6.29-1.2-6.19-.18-7.89,1.57-8.11,7.85-5.11.45-8.35-1.09-11.32-6.09-8.7-14.66-17.8-29.15-27.82-42.93-11.97-16.47-25.06-32.12-37.65-48.15-.6-.77-.98-1.7-1.47-2.56,11.24-.77,22.48-1.67,33.74-2.26,17.97-.94,35.86.46,53.59,3.17,10.77,1.64,21.89,3.13,31.91,7.1,20.08,7.95,38.96,18.5,56.48,31.32,1.19.87,2.96.92,4.47,1.35,1.63,1.7,3.27,3.39,4.9,5.09.27.29.53.58.8.87Z"/>
  <path class="cls-3" d="M952.4,595.84c3.86-2.65,7.74-5.66,11.93-8.15,21.53-12.79,42.57-26.36,65.88-36.08,12.32-5.14,23.79-12.57,35.09-19.83,10.98-7.05,21.25-15.21,32.01-23.01,3.8,11.16,5.35,22.91,3.39,34.25-1.36,7.86-5.38,16.01-10.37,22.3-7.63,9.62-11.13,19.56-9.74,31.66.61,5.26.42,10.67.04,15.98-1.69,24.01,6.18,44.03,23.93,60.38,9.29,8.56,18.04,17.7,26.99,26.63,5.34,5.33,10.58,10.76,15.42,16.94-3.74-1.31-7.56-2.42-11.19-3.96-30.47-12.93-60.22-27.27-89.07-43.58-20.09-11.36-40.72-21.77-61.17-32.48-9.18-4.81-17.68-10.08-20.52-21.07-.39-1.52-1.42-3.39-2.71-4.08-6.11-3.29-7.51-9.4-9.91-15.9Z"/>
  <path class="cls-11" d="M1276.97,328.93c-16.46-16.71-36.32-27.9-58.75-33.89-11.61-3.1-23.91-3.62-35.9-5.29-16.43-2.28-32.86-4.93-49.52-3.65-12.07.93-24.09,2.44-36.16,3.41-1.64.13-4.04-.94-5.01-2.25-3.12-4.21-5.73-8.8-8.54-13.24,12.74.13,25.5.6,38.23.28,10.91-.28,21.8-1.59,32.71-2.2,5.08-.28,10.23.41,15.29,0,15.11-1.19,29.71-1.2,44.61,3.93,17.03,5.87,33.87,11.72,48.53,22.33,9.39,6.79,17.92,14.75,27.18,21.74,6.74,5.09,14.54,8.85,20.95,14.29,7.94,6.75,15.59,14.07,22.16,22.13,9.31,11.41,17.71,23.58,26.11,35.69,3.99,5.75,6.4,12.67,13.26,16,9.55,21.97,15.56,44.95,17.58,68.75,2.28,26.83,4.09,53.73,4.97,80.64.59,18.08-3.8,35.51-10.84,52.32-2.6,6.2-5.46,11.49-11.21,14.4-4.63-12.63-9.32-25.35-13.91-38.11-.34-.95-.19-2.26.16-3.25,5.72-16.23,6.18-32.94,4.38-49.79-2.32-21.64-4.62-43.3-7.62-64.85-2.42-17.36-7.03-34.3-14.93-50.03-7.68-15.29-15.55-30.57-24.52-45.12-5.61-9.1-13.42-16.83-20.25-25.18-.62-6.77-8.71-15.1-15.53-15.97-.5-.48-1-.97-1.51-1.45-.64-.56-1.28-1.11-1.92-1.67Z"/>
  <path class="cls-25" d="M1108.1,707.99c29.74,12.59,59.48,25.18,89.08,37.71-.44,8.05-.89,16.44-1.37,25.2-3.2,0-6.62.66-9.67-.11-20.58-5.15-41.23-10.13-61.59-16.08-18.93-5.54-37.68-11.77-56.22-18.51-20.81-7.56-40.92-16.78-58.94-29.94-18.09-13.2-34.42-28.19-47.57-46.51-3.17-4.41-7.5-7.98-11.3-11.94-4.46-4.63-8.91-9.26-12.46-12.95,4.01-7.27,7.5-13.59,10.98-19.92,1.02,1.32,2.39,2.49,3.01,3.98,3.16,7.57,6.17,15.64,13.18,20.18,13.61,8.81,26.36,19.16,42.03,24.55,4.51,1.55,8.73,4.02,12.93,6.34,6.51,3.61,12.78,7.67,19.35,11.17,11.54,6.14,23.85,11.06,34.66,18.26,8.47,5.64,17.23,9.81,26.69,12.93,4.61,1.52,6.17.46,7.22-4.37Z"/>
  <path class="cls-26" d="M692.26,765.45c-6.71-4.5-13.48-8.9-20.06-13.58-1.24-.88-2.51-2.93-2.4-4.34,1.5-20.21,10.95-36.6,24.54-51.08,5.56-5.93,10.3-12.62,15.86-18.56,7.72-8.25,16.08-15.92,23.75-24.22,7.55-8.16,14.48-16.88,21.87-25.19,9.14-10.29,18.48-20.41,28.7-31.67-.34,2.47-.21,3.54-.63,4.3-4.86,8.88-9.88,17.67-14.7,26.57-2.65,4.9-5.45,9.8-7.41,15-4.53,11.98-9.09,23.99-12.69,36.26-3.73,12.7-6.67,25.66-9.34,38.63-2.65,12.89-3.97,26.03-2.74,39.17.78,8.37,2.65,16.65,4.33,24.91,1.29,6.35,3.36,12.54,4.55,18.9,2.78,14.91,8.74,28.57,15.66,41.89,2.39,4.59-2.59,16.39-8.1,19.34-6.12,3.28-12.17,6.71-18.31,9.95-1.27.67-2.87,1.3-4.22,1.13-6.41-.81-12.88-1.49-19.15-2.97-14.31-3.39-26-11.55-35.66-22.26-5.01-5.56-8.48-12.5-12.96-19.28,8.34-3.05,15.38-5.77,22.56-8.09,1.11-.36,2.93.99,4.23,1.84,5.25,3.45,10.21,7.4,15.68,10.46,7.12,3.98,15.32-.65,15.73-8.95.63-12.78-.73-25.28-7.94-36.43.38-1.37.96-2.72,1.11-4.12.6-5.43.79-10.92,1.65-16.3,1.62-10.13,4.22-20.13,5.29-30.3,1.33-12.61,5.97-23.64,12.74-34.11,2.32-3.59,3.94-7.7,5.46-11.73,1.59-4.19-.44-8.63-4.53-10.19-2.77-1.06-5.7-1.86-8.62-2.35-3.71-.61-6.79.58-9.03,3.91-2.96,4.41-6.76,8.35-9.14,13.03-3.72,7.35-7.91,14.88-9.47,22.81-3.08,15.7-4.5,31.73-6.6,47.63Z"/>
  <path class="cls-25" d="M1141.01,393.97c3-3.72,5.99-7.44,9.21-11.43,1.11,1.24,2.1,1.95,2.56,2.92,6.04,12.54,12.12,25.07,17.85,37.75.72,1.6-.12,4.19-.81,6.11-5.86,16.22-17.19,28.46-30.09,39.11-12.91,10.66-26.69,20.28-40.07,30.37-6.11,4.61-12.15,9.3-18.27,13.89-19.46,14.57-39.61,27.87-62.33,37.13-10.22,4.16-19.52,10.53-29.42,15.54-8.64,4.38-17.71,7.95-26.24,12.52-3.83,2.05-6.83,5.65-10.95,9.19.62-8.7-4.83-13.58-9.22-19.04,2.69-.68,5.71-.79,8.01-2.14,14.55-8.54,28.96-17.31,43.36-26.09,4.38-2.67,8.49-5.8,12.9-8.43,16.59-9.87,32.19-21.04,45.69-34.95,2.54-2.62,4.53-5.84,7.32-8.12,10.13-8.28,20.7-16.04,30.7-24.46,7.7-6.49,15.07-13.43,22.1-20.66,5.07-5.21,9.44-11.11,13.92-16.87,6.19-7.97,12.45-15.91,18.16-24.22,3.33-4.84,1.55-7.58-4.36-8.13Z"/>
  <path class="cls-7" d="M1162.81,870.71c5.51-4.54,11.01-9.09,15.64-12.9,4.69,8.02,8.57,16.5,14.13,23.66,5.66,7.28,9.18,14.74,7.52,23.78-.56,3.06-2.92,6.27-5.34,8.42-9.72,8.62-21.72,12.08-34.31,13.29-9.58.92-19.24,1-28.87,1.34-13.78.49-27.57.65-41.34,1.4-10.33.57-17.97-3.82-24.04-11.6-3.75-4.81-.18-13.69,6.24-15.71,17.72-5.59,35.55-10.84,53.17-16.75,11.26-3.78,22.21-8.48,33.3-12.77.15.16.31.32.46.48-8.26,12.21-5.38,25.11,6.85,30.75,9.82,4.53,17.97-.72,17.83-11.44-.01-1.15-.1-2.49.42-3.42,2.39-4.28.23-6.8-3.12-9.02-.96-.64-2.03-1.3-2.64-2.22-3.73-5.61-8.94-7.64-15.47-6.7-.15-.2-.29-.39-.45-.58Z"/>
  <path class="cls-25" d="M866.31,618c5.79,6.92,11.58,13.83,17.51,20.91-6.75,2.72-14.47,5.83-22.19,8.93-17.7,7.11-35.5,13.97-53.03,21.47-5.69,2.44-10.74,6.44-15.95,9.93-10.74,7.2-21.41,14.49-32.05,21.83-2.96,2.04-5.72,4.37-8.9,6.83.69-12.4,5.15-23.43,9.13-34.56,2.73-7.65,6.22-15.04,8.75-22.75,2-6.09,7.26-7.76,11.89-10.48.7,4.14,3.73,4.33,6.82,3.69,12.83-2.68,25.06-7.01,37.19-12.08,13.21-5.52,27.18-9.23,40.82-13.72Z"/>
  <path class="cls-11" d="M667.7,780.75c11.25,2.16,21.31,15.5,19.35,26.16-.28,1.52-2.38,3.3-4.02,3.89-8.41,3.04-16.9,5.88-25.45,8.49-7.61,2.32-15.27,4.56-23.03,6.26-9.38,2.06-18.88,3.65-28.37,5.19-18.69,3.03-37.38,6.13-56.14,8.7-8.54,1.17-17.25,1.06-25.88,1.64-8.44.57-16.89,1.98-25.3,1.74-12.57-.36-25.1-1.84-37.65-2.84-.03-.66-.05-1.32-.08-1.99,3.4-.69,6.8-1.38,10.21-2.06,2.58.59,5.22,1.84,7.73,1.62,4.59-.4,9.06-2.1,13.65-2.49,21.17-1.78,41.84-6.3,62.44-11.19,14.66-3.48,29.11-7.91,43.87-10.83,22.49-4.45,43.97-11.05,62.97-24.35,2.87-2,6.16-3.59,5.69-7.94Z"/>
  <path class="cls-27" d="M1147.95,773.44c3.64,5.14,1.01,9.23-2.62,12.64-6.52,6.12-13.11,12.22-20.12,17.75-14.52,11.44-31.39,18.75-48.74,24.22-15.99,5.04-32.3,9.19-49.4,10.21-22.56,1.34-45.02,4.38-67.53,6.64-4.77.48-9.56.89-14.34,1.06-28.81,1.05-57.62,2.08-86.44,3-15.05.48-29.63-2.31-43.95-6.71-13.43-4.13-26.84-8.34-40.33-12.31-2.63-.77-5.54-.55-8.32-.79-1.55-2.8-3.1-5.6-4.65-8.4.3-.47.61-.94.91-1.4,12.32,2.23,24.65,4.47,36.97,6.7,1.34,1.03,2.53,2.53,4.04,3.01,5.5,1.76,11.09,3.26,16.7,4.69,5.76,1.47,11.53,3.07,17.39,3.98,3.87.6,7.92.08,11.88.06,16.18,3.64,32.6,3.67,49.09,3.95,29.97.5,59.86-.55,89.56-4.33,13.12-1.67,25.91-5.71,38.94-8.25,16.9-3.3,32.88-9.26,48.85-15.47,8.48-3.3,17.49-5.27,25.92-8.68,15.93-6.45,29.22-17.01,41.81-28.49,1.3-1.19,2.91-2.04,4.37-3.05Z"/>
  <path class="cls-21" d="M1372.12,408.23c-6.86-3.33-9.27-10.25-13.26-16-8.4-12.12-16.8-24.29-26.11-35.69-6.57-8.06-14.22-15.39-22.16-22.13-6.4-5.44-14.21-9.2-20.95-14.29-9.25-6.99-17.79-14.95-27.18-21.74-14.66-10.6-31.49-16.46-48.53-22.33-14.9-5.13-29.5-5.12-44.61-3.93-5.07.4-10.21-.29-15.29,0-10.91.6-21.8,1.92-32.71,2.2-12.73.32-25.48-.15-38.23-.28-.41-.56-.81-1.13-1.22-1.69.45-1.67.91-3.33,1.36-5,6.11-.59,12.21-1.48,18.33-1.73,25.26-1,50.55-1.37,75.79-2.8,21.5-1.22,41.3,4.46,60.16,13.6,15.09,7.31,30.16,15.07,43.96,24.5,12.95,8.85,24.67,19.68,36.14,30.48,16.67,15.69,30.98,33.45,42.07,53.61,4.23,7.7,8.29,15.49,12.43,23.24Z"/>
  <path class="cls-5" d="M692.26,765.45c2.1-15.89,3.52-31.92,6.6-47.63,1.56-7.93,5.75-15.46,9.47-22.81,2.37-4.68,6.18-8.62,9.14-13.03,2.24-3.33,5.32-4.52,9.03-3.91,2.93.48,5.85,1.29,8.62,2.35,4.08,1.56,6.11,5.99,4.53,10.19-1.53,4.03-3.14,8.14-5.46,11.73-6.77,10.47-11.41,21.51-12.74,34.11-1.08,10.17-3.67,20.18-5.29,30.3-.86,5.38-1.05,10.87-1.65,16.3-.15,1.4-.73,2.75-1.11,4.12-9.35-4.99-14.39-14.18-21.12-21.72Z"/>
  <path class="cls-20" d="M777.29,634.47c12.12-23.22,23.96-45.88,36.37-69.65,6.6,5.69,13.12,10.71,18.9,16.46,6.42,6.39,13.79,11.11,22.25,13.8,5.07,1.61,7.09,4.21,6.34,9.11-9.56,3.5-19.1,7.11-28.73,10.46-3.75,1.3-7.66,2.3-11.58,2.92-14.1,2.22-27.62,5.83-39.18,14.77-1.19.92-2.75,1.36-4.36,2.14Z"/>
  <path class="cls-13" d="M1141.01,393.97c5.91.55,7.69,3.28,4.36,8.13-5.71,8.31-11.97,16.25-18.16,24.22-4.47,5.76-8.85,11.66-13.92,16.87-7.03,7.22-14.39,14.17-22.1,20.66-10,8.43-20.57,16.18-30.7,24.46-2.79,2.28-4.78,5.5-7.32,8.12-13.49,13.91-29.09,25.08-45.69,34.95-4.41,2.62-8.52,5.75-12.9,8.43-14.4,8.78-28.82,17.56-43.36,26.09-2.3,1.35-5.32,1.46-8.01,2.14,1.45-1.36,2.74-2.97,4.38-4.05,15.81-10.43,31.99-20.34,47.43-31.28,14.63-10.37,28.9-21.35,42.61-32.92,11.67-9.85,22.13-21.13,33.47-31.39,7.51-6.8,15.64-12.93,23.48-19.37,14.27-11.73,26.23-25.41,35.72-41.34,2.94-4.94,7.11-9.15,10.71-13.7Z"/>
  <path class="cls-2" d="M986,926.15c11.34-3.21,22.63-6.6,34.03-9.56,5.41-1.41,6.98.63,5.09,6.07-2.86,8.23-7.8,14.92-14.89,20.1-7.33,5.36-15.02,8-24.45,7.77-13.24-.32-26.52,1.39-39.8,1.75-19.03.52-36.69-3.6-50.79-17.43-4.42-4.33-8.12-9.41-11.38-14.91,12.93,2.81,25.86,5.62,38.79,8.43-.68.94-1.35,1.88-2.05,2.8-3.73,4.88-2.6,10.6,2.91,13.38,2.33,1.18,4.97,2.29,7.52,2.4,11.61.52,23.23.6,34.84,1,6.42.22,12.05-1.67,17.32-5.23,7.19-4.86,8.1-9.76,2.85-16.57Z"/>
  <path class="cls-23" d="M930.53,568.21c2.84,3.61,5.91,7.07,8.4,10.9,1.07,1.64,1.35,4.08,1.26,6.13-.17,4.04.36,7.39,6.37,8.6-4.7,10.87-9.52,21.04-13.49,31.53-3.14,8.29-10.55,8.24-16.94,9.39-5.8,1.05-11.96.45-17.92.03-1.82-.13-3.6-1.98-5.23-3.26-1.14-.89-1.8-2.62-3.03-3.14-8.67-3.62-13.32-10.94-18.36-18.3-2.76-4.03-4.83-7.77-4.49-12.54.16-2.18,1.15-4.3,1.7-6.46.83-3.2,1.61-6.41,2.41-9.62,1.16-1.09,2.67-1.98,3.41-3.31,2.95-5.28,6.98-9.12,12.79-11.13,14.54-5.04,28.9-4.58,43.13,1.16ZM907.72,627.04c10.68-1.17,16.11-4.33,19.42-13.14,2.62-6.96,4.96-14.07,6.75-21.28,2.92-11.79-4.25-21.25-12.44-23.86-16.47-5.24-28.5,1.47-39.31,12.36-7.06,7.11-8.82,16.39-7.22,25.94,1.22,7.29,7.74,9.83,13.78,12.41,1.98.85,3.77,2.15,5.78,2.92,4.37,1.67,8.82,3.12,13.24,4.66Z"/>
  <path class="cls-13" d="M1108.1,707.99c-1.05,4.83-2.61,5.88-7.22,4.37-9.46-3.11-18.23-7.29-26.69-12.93-10.81-7.2-23.12-12.13-34.66-18.26-6.57-3.5-12.84-7.56-19.35-11.17-4.2-2.33-8.42-4.79-12.93-6.34-15.67-5.39-28.42-15.74-42.03-24.55-7.01-4.54-10.02-12.61-13.18-20.18-.62-1.49-1.99-2.66-3.01-3.98.17-1.58.34-3.16.66-6.24,2.85,4.73,7.92,5.25,8,11.4.04,3.3,4.12,7.22,7.3,9.68,6.65,5.15,13.59,10.1,20.97,14.09,14.02,7.59,28.6,14.13,42.64,21.7,17.25,9.3,34.06,19.41,51.27,28.77,9.17,4.98,18.8,9.12,28.23,13.64Z"/>
  <path class="cls-12" d="M667.7,780.75c.47,4.35-2.83,5.93-5.69,7.94-19,13.29-40.48,19.9-62.97,24.35-14.76,2.92-29.21,7.35-43.87,10.83-20.6,4.89-41.27,9.4-62.44,11.19-4.59.39-9.06,2.09-13.65,2.49-2.51.22-5.15-1.03-7.73-1.62,13.32-3.35,26.53-7.25,39.98-9.91,14.16-2.8,28.78-3.44,42.79-6.77,18.86-4.48,37.4-10.4,55.94-16.15,16.55-5.13,32.42-11.87,46.76-21.86,3.34-2.33,7.15-2.48,10.87-.48Z"/>
  <path class="cls-9" d="M986,926.15c5.25,6.81,4.34,11.71-2.85,16.57-5.26,3.56-10.9,5.45-17.32,5.23-11.61-.4-23.24-.48-34.84-1-2.55-.11-5.18-1.22-7.52-2.4-5.51-2.78-6.64-8.5-2.91-13.38.7-.92,1.37-1.87,2.05-2.8,21.18.74,42.39,2.32,63.38-2.22Z"/>
  <path class="cls-14" d="M713.22,360.11c.22-1.69.44-3.38.65-5.08,4.4-3.64,8.77-3.52,13.17.05.49.4,1.3.38,1.83.75,4.77,3.27,10.22,5.92,12.31,12.5-7.7,1.88-11.79,6.61-14.08,13.39-.9,2.68-3.17,4.88-4.14,7.54-.93,2.54-.97,5.41-1.41,8.13,2.88-.56,6.73-.16,8.42-1.89,2.62-2.68,3.72-6.83,5.57-10.29.8-1.5,1.54-3.49,2.87-4.19,6.89-3.64,14.09-5.35,22.03-3.59,3.81.84,7.92.35,11.9.46-.03,2.58-.06,5.15-.09,7.73-16.74-.71-31.79,3.08-43.69,15.9-2.54,2.74-6.19,3.64-9.49,1.23-3.31-2.42-6.66-5.04-9.21-8.2-2.97-3.67-3.25-8.25.26-11.82,5.22-5.32,5.09-12.42,6.82-18.87.23-.85-2.41-2.48-3.72-3.75Z"/>
  <path class="cls-25" d="M863.69,571.29c-1.11,4.82-1.78,9.82-3.58,14.36-.54,1.36-4.78,2.68-6.35,1.94-5.01-2.37-9.85-5.35-14.24-8.77-7.03-5.49-13.48-11.73-20.51-17.21-2.73-2.13-2.9-3.86-1.74-6.69,2.56-6.28,4.9-12.65,7.33-18.99,1.81,1.14,3.91,1.99,5.35,3.48,2.73,2.83,4.94,6.15,7.6,9.04,3.33,3.61,6.9,7.02,10.39,10.48,4.77,4.73,8.67,10.58,15.75,12.35Z"/>
  <path class="cls-24" d="M1280.96,340.95c-1.5-.43-3.28-.49-4.47-1.35-17.52-12.82-36.4-23.38-56.48-31.32-10.01-3.96-21.14-5.45-31.91-7.1-17.73-2.71-35.62-4.11-53.59-3.17-11.25.59-22.49,1.5-33.74,2.26-1.09-1.33-2.18-2.67-3.51-4.3,20.56-4.05,40.62-5.47,60.65-3.86,18.18,1.46,36.36,3.9,54.28,7.3,9.63,1.83,19,5.95,27.96,10.16,15.81,7.42,29.26,18.25,40.8,31.39Z"/>
  <path class="cls-23" d="M1237.34,466.12c-8.05-5.43-16.69-10.16-24.01-16.43-11.83-10.13-22.96-21.12-34.03-32.11-2.84-2.82-4.35-6.97-5.91-11,8.71-.48,15.82,2.07,22.21,6.82.8.59,1.41,1.52,2.28,1.92,11.1,5.08,16.95,14.74,22.84,24.79,3.61,6.16,9.23,11.12,13.76,16.76,1.8,2.25,3.1,4.9,4.63,7.37-.59.62-1.18,1.25-1.77,1.87Z"/>
  <path class="cls-21" d="M1179.02,400c.21-6.28,1.92-8.04,8.11-7.85,2.12.06,4.46.26,6.29,1.2,9.55,4.93,19.06,9.96,28.35,15.35,2.31,1.34,4.35,3.85,5.54,6.29,4.06,8.32,7.91,16.77,11.38,25.35,1.26,3.1-.09,5.94-3.87,6.77-1.93-1.74-3.86-3.48-5.79-5.21-3.67-13.62-9.65-25.74-22.8-32.58-4.45-2.31-9.46-3.56-14.22-5.29-4.33-1.34-8.66-2.68-12.98-4.02Z"/>
  <path class="cls-13" d="M866.31,618c-13.64,4.5-27.61,8.2-40.82,13.72-12.14,5.08-24.36,9.4-37.19,12.08-3.1.65-6.12.45-6.82-3.69,11.02-8.46,23.68-12.68,37.1-15.87,14.9-3.55,29.41-8.73,44.5-13.32.8,1.76,2.02,4.42,3.24,7.08Z"/>
  <path class="cls-23" d="M672.52,761.08c7.26,7.21,14.5,14.43,21.79,21.61,3.41,3.36,7.5,6.23,10.19,10.09,2.94,4.23,5.36,9.14,6.63,14.11,1.24,4.89.75,10.23,1.02,15.35-4.96.95-14.74-3.77-16.41-7.84-.18-.43-.31-1.02-.15-1.42,2.64-6.61,0-12.79-1.56-19.02-3.37-13.42-12.02-20.87-25.64-23.21-3.47-.6-6.61-3.09-9.9-4.71,2.25.34,4.48.84,6.74.99,4.18.27,6.95-1.41,7.3-5.95Z"/>
  <path class="cls-6" d="M772.24,385.63c.03-2.58.06-5.15.09-7.73.64-5.29-5.94-2.78-6.4-6.17-1.29,1.48-2.27,3.21-3.75,4-.63.34-3.11-1.08-3.36-2.07-.81-3.11-2.71-2.93-5.22-3.02-1.54-.06-3.46-1.37-4.41-2.7-.77-1.09-.75-4.26-.39-4.37,1.89-.62,4.07-.96,6.01-.62,2.18.38,4.24,1.53,6.31,2.43,2.19.96,4.34,2.03,7.45,3.49.97-.09,3.38-.32,5.78-.54,5.54,8.11,5.24,17.6,6.12,26.77.11,1.16-.92,3.11-1.9,3.51-1.01.41-3.15-.22-3.84-1.12-1.5-1.99-2.39-4.43-3.53-6.69.34-1.73.69-3.45,1.03-5.18Z"/>
  <path class="cls-22" d="M704.76,271.74c7.56,6.82,10.15,14.95,8.09,24.81-7.25.69-9.72,11.83-18.77,9.08-1.07-2.84-2.09-5.54-3.47-9.22.45-.39,1.67-1.44,3.17-2.74,3.5,4.01,7.6,1.43,8.81-.91,1.61-3.1,2.44-8.72.68-11.03-3.65-4.79-.92-7.04,1.48-10Z"/>
  <path class="cls-24" d="M930.53,568.21c-14.23-5.74-28.59-6.19-43.13-1.16-5.81,2.01-9.83,5.85-12.79,11.13-.74,1.32-2.25,2.22-3.41,3.31,1.62-3.84,3.18-7.69,4.87-11.5.97-2.17,2.14-4.26,3.5-6.94,13.95-4.55,28.89-7.03,44.07-2.03,3.14,1.03,7.87,1.68,6.89,7.18Z"/>
  <path class="cls-13" d="M863.69,571.29c-7.08-1.78-10.98-7.62-15.75-12.35-3.49-3.47-7.05-6.87-10.39-10.48-2.67-2.89-4.88-6.21-7.6-9.04-1.44-1.49-3.55-2.34-5.35-3.48.37-1.86.74-3.71,1.1-5.57.4-.22.81-.45,1.21-.67,9.31,16.3,21.92,28.55,40.75,33.11-1.61,3.45-2.79,5.97-3.97,8.49Z"/>
  <path class="cls-24" d="M672.52,761.08c-.35,4.54-3.11,6.22-7.3,5.95-2.26-.15-4.49-.65-6.74-.99-2.56-2.48-5.12-4.97-7.91-7.67,9.2-6,15.33-.22,21.95,2.71Z"/>
  <path class="cls-23" d="M1192.01,404.02c4.76,1.73,9.77,2.98,14.22,5.29,13.16,6.84,19.14,18.95,22.8,32.58-3.6-5.5-6.97-11.16-10.87-16.44-2.51-3.4-5.46-6.63-8.77-9.23-5.56-4.37-11.57-8.17-17.39-12.2Z"/>
  <path class="cls-10" d="M849.41,837.79c-3.97.02-8.01.54-11.88-.06-5.86-.91-11.63-2.51-17.39-3.98-5.6-1.43-11.19-2.94-16.7-4.69-1.51-.48-2.71-1.98-4.04-3.01,12.27,2.57,24.56,5.04,36.79,7.77,4.48,1,8.82,2.63,13.23,3.97Z"/>
  <path class="cls-12" d="M1300.04,361.98c-4.26,1.84-6.89-.03-8.56-3.87-1.55-3.55-3.01-7.13-4.52-10.7,4.36,4.86,8.72,9.72,13.08,14.57Z"/>
  <path class="cls-12" d="M1280.39,332.05c6.82.88,14.91,9.21,15.53,15.97-5.18-5.32-10.35-10.65-15.53-15.97Z"/>
  <path class="cls-11" d="M1083.24,267.32c-.45,1.67-.91,3.33-1.36,5-1.37-1.28-2.74-2.55-4.11-3.83.15-.39.3-.78.44-1.17h5.03Z"/>
  <path class="cls-12" d="M1276.97,328.93c.64.56,1.28,1.11,1.92,1.67-.64-.56-1.28-1.11-1.92-1.67Z"/>
  <path class="cls-12" d="M1286.66,346.9c-.27-.29-.53-.58-.8-.87.27.29.53.58.8.87Z"/>
  <path class="cls-7" d="M1160.92,871.86c.63-.38,1.26-.76,1.88-1.15.15.19.3.38.45.58-.67.33-1.33.66-1.99,1-.11-.15-.22-.29-.33-.43Z"/>
  <path class="cls-7" d="M1158.92,872.86c.67-.33,1.34-.67,2.01-1,.11.14.23.29.33.43-.63.35-1.25.7-1.88,1.05-.15-.16-.31-.32-.46-.48Z"/>
  <path class="cls-19" d="M774.36,368.33c-2.41.22-4.82.45-5.78.54-3.1-1.46-5.25-2.53-7.45-3.49-2.07-.91-4.13-2.06-6.31-2.43-1.95-.34-4.13,0-6.01.62-.36.12-.38,3.29.39,4.37.94,1.33,2.86,2.64,4.41,2.7,2.51.09,4.41-.1,5.22,3.02.26.98,2.73,2.4,3.36,2.07,1.48-.79,2.46-2.52,3.75-4,.46,3.39,7.04.88,6.4,6.17-3.98-.11-8.08.38-11.9-.46-7.95-1.76-15.15-.05-22.03,3.59-1.33.7-2.07,2.68-2.87,4.19-1.85,3.47-2.95,7.62-5.57,10.29-1.69,1.72-5.54,1.33-8.42,1.89.43-2.72.48-5.59,1.41-8.13.97-2.67,3.24-4.87,4.14-7.54,2.29-6.78,6.38-11.51,14.08-13.39-2.08-6.57-7.53-9.23-12.31-12.5-.53-.36-1.34-.35-1.83-.75-4.4-3.57-8.77-3.68-13.17-.05-1.19.42-2.38,1.13-3.59,1.19-1.55.09-3.12-.35-4.69-.55.65-1.52.89-3.62,2.04-4.43,2.39-1.67,5.36-2.48,7.91-3.95,4.11-2.39,6.15-6.14,7.03-10.84.53-2.82,1.44-6.54,5.8-3.25-.29,2.75-.58,5.5-.97,9.26,5.16,0,10.45,1.08,15.02-.29,5.07-1.52,9.44-5.32,14.17-8.04,3.2-1.84,3.96-3.66.92-6.51-.95-.89-.92-2.84-1.34-4.3.42-.41.85-.82,1.27-1.22,2.64,1.67,5.49,3.08,7.86,5.06,3.93,3.27,8.06,5.11,13.28,4.16,12.72-2.31,25.43-4.65,38.19-6.67,2.61-.41,5.58.12,8.12.99,5.81,1.97,11.47,4.37,17.16,6.68,3.07,1.25,5.21,1.06,6.73-2.47.67-1.55,2.73-2.49,4.9-4.34.73,2.5,1.18,4.03,1.63,5.56-3.22,3.74-6.05,7.93-9.73,11.15-9.9,8.66-8.59,19.59-7.09,30.74.22,1.63-.03,3.36-.38,4.98-.06.28-2.28.6-2.53.23-.94-1.39-2.12-3.07-2.05-4.59.32-7.24,1.01-14.47,1.58-21.69.09-1.16.31-2.3.38-3.46.31-5.19-.79-6.09-5.98-4.93-7.05-4.2-14.35-3.18-19.24,2.99-1.38,1.74-1.99,4.09-2.96,6.16-10.98,5.22-21.96,10.44-32.94,15.66ZM840.06,336.64c-3.42-.15-6.08-.49-8.67-.24-.62.06-1.8,2.51-1.45,3.08,1.25,2.01,8.2.64,10.13-2.84Z"/>
  <path class="cls-1" d="M855.29,331.11c-.45-1.53-.89-3.05-1.63-5.56-2.17,1.85-4.23,2.79-4.9,4.34-1.52,3.52-3.66,3.72-6.73,2.47-5.69-2.31-11.35-4.71-17.16-6.68-2.54-.86-5.52-1.4-8.12-.99-12.76,2.01-25.48,4.35-38.19,6.67-5.21.95-9.35-.89-13.28-4.16-2.38-1.98-5.23-3.39-7.86-5.06-.42.41-.85.82-1.27,1.22.42,1.46.38,3.41,1.34,4.3,3.05,2.84,2.29,4.67-.92,6.51-4.73,2.71-9.1,6.52-14.17,8.04-4.57,1.37-9.86.29-15.02.29.39-3.77.68-6.52.97-9.26,3.4-1.08,6.8-2.15,10.2-3.23,1.58.01,3.45.57,4.68-.08,2.43-1.3,4.32-3.64,6.77-4.9,10.83-5.56,21.73-10.85,33.1-.83.9.79,4.63.27,4.84-.37,1.36-4.11,4.86-4.09,7.99-4.82,2.26-.53,4.74-.46,6.81-1.36,8.38-3.64,16.63-3.54,25.19-.52,2.9,1.02,6.29.65,9.46.92,1.46.99,2.92,1.97,4.38,2.96-.2,2.69-.41,5.38-.61,8.07.51.08,1.01.17,1.52.25,3.46-3.56,7.62-6.64,8.03-12.31,6.85.95,8.85,7.13,4.57,14.12Z"/>
  <path class="cls-15" d="M855.73,300.54c.36-3.09.12-6.07,1.12-8.56,3.03-7.57,13.26-12.43,21.19-9.93,2.24.71,4.32,3,5.74,5.08,5.13,7.47-.23,19.62-9.22,21.25-3.07.56-6.18.9-9.89,1.43.86,1.26,1.53,1.92,1.81,2.72.34.97.85,2.57.42,2.97-.79.75-2.46,1.45-3.35,1.1-5.15-2.04-9.96-4.59-12.3-10.16-2.14-5.1-1.66-5.9,4.47-5.9ZM868.29,302.86c-.34-2.32-1.58-5.04-.72-6.21,1.63-2.2,4.46-3.51,6.8-5.19,1.38,2.35,2.76,4.7,4.36,7.42,2.15-3.52,1.8-8.09-.75-9.73-2.6-1.67-7.49-1.5-10.55-.2-3.06,1.3-7.02,4.25-5.24,8.87,1.01,2.6,2.5,6,6.1,5.03Z"/>
  <path class="cls-15" d="M837.39,318.02c-3.17-.27-6.56.11-9.46-.92-8.56-3.02-16.81-3.11-25.19.52-2.08.9-4.56.84-6.81,1.36-3.13.73-6.63.71-7.99,4.82-.21.64-3.94,1.16-4.84.37-11.38-10.02-22.27-4.73-33.1.83-2.45,1.26-4.33,3.6-6.77,4.9-1.22.65-3.1.09-4.68.08.74-1.91.92-4.52,2.3-5.6,10.17-7.96,21.34-13.28,34.79-11.36.49.07,1.11-.04,1.47.21,8.2,5.78,15.18.1,22.82-1.88,9.38-2.43,19.18-4.13,28.79-.06,1.65.7,3.77.67,5.07,1.72,1.54,1.24,2.43,3.3,3.6,5Z"/>
  <path class="cls-6" d="M807.3,352.68c.97-2.07,1.58-4.42,2.96-6.16,4.89-6.17,12.19-7.18,19.24-2.99-.01,2.66.16,5.33-.07,7.97-.4,4.46-3.67,7.62-7.83,7.41-1.36-.07-2.66-1.33-3.99-2.05.94-1.18,1.76-2.48,2.86-3.48.72-.65,1.85-.83,2.79-1.23-.23-.58-.47-1.16-.7-1.74-3.42,1.64-6.87,3.2-10.23,4.96-1.64.86-3.08,2.09-4.62,3.16-.14-1.95-.27-3.91-.41-5.86Z"/>
  <path class="cls-15" d="M850.72,316.99c-.41,5.67-4.57,8.75-8.03,12.31-.51-.08-1.01-.17-1.52-.25.2-2.69.4-5.38.61-8.07,1.52-1.78,2.93-3.68,4.58-5.32,2.1-2.09,3.65-1.54,4.36,1.33Z"/>
  <path class="cls-5" d="M1258.36,537.53c3.23.68,6.61.94,9.65,2.1,11.78,4.51,23.4,9.42,35.16,13.97,10.4,4.03,15.44,19.89,13.29,27.25-1.46,4.99.36,8.05,2.47,11.8,2.41,4.28,4.45,8.79,6.34,13.33.58,1.4.69,3.5.04,4.8-2.11,4.23-.79,7.06,2.62,9.81,9.52,7.7,11.77,18.96,13.84,30.08,1.84,9.92,3.01,19.96,4.44,29.96.26,1.8.48,3.61.58,5.42.71,13.42,1.03,26.88,2.22,40.26.55,6.2,3.5,12.18,4.09,18.38,1.85,19.44,4.85,39-2.91,58.04-1.35,3.32-1.32,7.17-2.38,10.64-1.75,5.73-7.28,9.3-12.53,8.5-6.53-1-10.66-5.3-10.34-11.89.25-5.25,1.49-10.46,2.34-15.68.84-5.18,2.54-10.36,2.46-15.52-.18-12.25.07-24.74-2.21-36.68-2.41-12.6-4.14-25.11-4.78-37.89-.75-15.04-1.03-30.15-4.57-44.93-.54-2.24-.24-4.66-.73-6.92-1.49-6.88-3.69-13.07-9.99-17.63-5.7-4.13-10.84-9.23-10.97-17.57-.02-1.35-5.29-4.03-7.84-3.71-14.67,1.85-25.45-6.92-25.71-21.75-.08-4.48-1.45-8.22-3.23-12.44-2.7-6.41-6.23-10.51-11.9-14.28-6.46-4.29-7.61-11.38-4.93-18.28,2.18-5.63,7.76-8.8,15.47-9.2Z"/>
  <path class="cls-5" d="M930.06,156.04c6.41,0,12.81-.07,19.22.02,9.28.12,13.74,5.05,12.98,14.18-.53,6.49-7.72,10.19-13.34,6.86-1.12-.67-2.22-1.94-3.34-1.96-12.49-.18-24.76-3.39-37.55-.94-6.95,1.33-14.98.03-21.86-2.16-6.35-2.02-9.58-8.75-10.46-15.19-.35-2.55,2.72-6.13,5.06-8.37,4.16-3.99,9.02-7.24,13.47-10.93,3.81-3.16,8.09-3.54,12.29-.87.82.52,1.77,1.31,2.61,1.26,7.73-.52,12.49,4.72,17.44,9.22,1.78,1.62,2.4,4.52,3.54,6.84-.03.69-.05,1.37-.08,2.06Z"/>
  <path class="cls-9" d="M1159.38,873.35c.63-.35,1.25-.7,1.88-1.05.67-.33,1.33-.66,2-1,6.53-.94,11.73,1.09,15.47,6.7.61.92,1.69,1.58,2.64,2.22,3.34,2.23,5.5,4.74,3.12,9.02-.52.93-.43,2.27-.42,3.42.14,10.72-8.02,15.97-17.83,11.44-12.23-5.64-15.1-18.55-6.85-30.75Z"/>
  <path class="cls-15" d="M907.72,627.04c-4.42-1.54-8.87-3-13.24-4.66-2-.76-3.8-2.07-5.78-2.92-6.04-2.58-12.55-5.12-13.78-12.41-1.6-9.55.15-18.83,7.22-25.94,10.81-10.89,22.84-17.6,39.31-12.36,8.19,2.61,15.36,12.06,12.44,23.86-1.79,7.21-4.13,14.33-6.75,21.28-3.31,8.81-8.74,11.97-19.42,13.14ZM907.91,620.57c8.47-.95,12.16-3.94,14.41-11.96,1.29-4.6,3.52-9.01,4.24-13.68.72-4.69,1.27-10.01-.23-14.31-2.08-5.98-14.63-9.22-21.96-6.76-5.76,1.93-9.9,6.14-14.65,9.68-7.03,5.24-8.5,11.47-8.77,19.19-.17,4.87,2.55,7.23,6.23,9.13,3.38,1.74,6.78,3.49,10.29,4.96,3.4,1.43,6.95,2.52,10.44,3.76Z"/>
  <path class="cls-26" d="M840.06,336.64c-1.92,3.48-8.88,4.85-10.13,2.84-.35-.56.83-3.02,1.45-3.08,2.6-.25,5.25.08,8.67.24Z"/>
  <path class="cls-22" d="M868.29,302.86c-3.6.97-5.09-2.43-6.1-5.03-1.79-4.62,2.17-7.57,5.24-8.87,3.06-1.3,7.95-1.46,10.55.2,2.55,1.63,2.9,6.2.75,9.73-1.6-2.72-2.98-5.07-4.36-7.42-2.33,1.68-5.17,2.99-6.8,5.19-.86,1.16.38,3.88.72,6.21Z"/>
  <path class="cls-20" d="M907.91,620.57c-3.48-1.24-7.03-2.33-10.44-3.76-3.51-1.47-6.91-3.22-10.29-4.96-3.68-1.9-6.4-4.25-6.23-9.13.27-7.72,1.74-13.95,8.77-19.19,4.75-3.54,8.89-7.74,14.65-9.68,7.33-2.46,19.88.78,21.96,6.76,1.5,4.3.95,9.62.23,14.31-.72,4.66-2.95,9.08-4.24,13.68-2.25,8.02-5.94,11.01-14.41,11.96Z"/>
</svg>