<?xml version="1.0" encoding="UTF-8"?>
<svg id="Layer_1" data-name="Layer 1" xmlns="http://www.w3.org/2000/svg" version="1.1" viewBox="0 0 1920 1080">
  <defs>
    <style>
      .cls-1 {
        fill: #a29580;
      }

      .cls-1, .cls-2, .cls-3, .cls-4, .cls-5, .cls-6, .cls-7, .cls-8, .cls-9, .cls-10, .cls-11, .cls-12, .cls-13, .cls-14, .cls-15, .cls-16, .cls-17, .cls-18, .cls-19, .cls-20, .cls-21, .cls-22, .cls-23, .cls-24, .cls-25, .cls-26, .cls-27, .cls-28, .cls-29 {
        stroke-width: 0px;
      }

      .cls-2 {
        fill: #efe8e4;
      }

      .cls-3 {
        fill: #2e2b25;
      }

      .cls-4 {
        fill: #f0eae6;
      }

      .cls-5 {
        fill: #cfbca4;
      }

      .cls-6 {
        fill: #ccb9a1;
      }

      .cls-7 {
        fill: #898888;
      }

      .cls-8 {
        fill: #f6f5f5;
      }

      .cls-9 {
        fill: #ddcfbe;
      }

      .cls-10 {
        fill: #906e55;
      }

      .cls-11 {
        fill: #cdbba2;
      }

      .cls-12 {
        fill: #070707;
      }

      .cls-13 {
        fill: #100c09;
      }

      .cls-14 {
        fill: #e0dad5;
      }

      .cls-15 {
        fill: #050504;
      }

      .cls-16 {
        fill: #906d55;
      }

      .cls-17 {
        fill: #f1f1f1;
      }

      .cls-18 {
        fill: #e3d8c9;
      }

      .cls-19 {
        fill: #a19480;
      }

      .cls-20 {
        fill: #f1ebe6;
      }

      .cls-21 {
        fill: #858483;
      }

      .cls-22 {
        fill: #8e6c54;
      }

      .cls-23 {
        fill: #eee8e3;
      }

      .cls-24 {
        fill: #f8f8f8;
      }

      .cls-25 {
        fill: #c4b29a;
      }

      .cls-26 {
        fill: #050404;
      }

      .cls-27 {
        fill: #414141;
      }

      .cls-28 {
        fill: #fefefe;
      }

      .cls-29 {
        fill: #0a0a09;
      }
    </style>
  </defs>
  <path class="cls-5" d="M1346.55,901.72c-.9.12-1.8.24-2.7.36-4.44,1.48-8.88,2.96-13.32,4.45-7.62.42-15.25,1.17-22.87,1.19-37.27.13-74.55-.41-111.8.24-25.04.44-50.05,2.29-75.06,3.84-28.99,1.79-57.9,5.65-87.02,3.97-14.22-.82-28.48-2.03-41.77-8-.3-.57-.46-1.34-.92-1.68-8.28-6.01-15.46-12.93-19.95-22.37-.34-.72-2.84-.42-4.34-.6-16.94,5.41-33.95,10.6-50.79,16.29-20.31,6.85-40.47,14.14-60.71,21.2-11.98,4.18-24.17,5.91-36.67,2.52-16.59-4.49-27.71-15.08-34.2-30.8-.43-1.03-.9-2.05-1.64-3.72-5.64,2.61-10.98,5.17-16.4,7.55-7.59,3.33-15.21,6.58-22.88,9.72-1.65.67-3.56.7-5.35,1.03-.78-.66-1.51-1.81-2.36-1.9-3.94-.44-7.92-.73-11.89-.83-13.47-.35-23.87-6.6-31.96-16.91-2.39-3.04-4.66-5.48-8.76-5.34-2.96-.72-5.92-1.44-8.89-2.15-1.22-1.55-2.14-3.93-3.72-4.52-12.39-4.57-20.47-13.37-25.26-25.33-1.8-4.5-2.78-9.33-4.13-14.01,4.62-4.97,9.59-9.65,13.77-14.97,7.45-9.49,14.05-18.99,26.02-24.45,15.44-7.03,29.66-16.77,45.85-26.18.36.57,1.23,2.2,2.34,3.66,3.81,5.03,7.54,10.14,11.61,14.96,2.84,3.36,5.8,7.22,11.27,4.93,3.94,1.15,6.54-.58,6.8-4.82.24-3.89.83-7.94.06-11.67-.98-4.74-2.26-9.92-5.07-13.67-4.95-6.62-11.15-12.31-16.83-18.39,6.67-9.53,14.72-17.37,25.56-22.23,8.01-3.59,14.64-9.56,17.01-17.95,3.04-10.8,9.73-18.42,17.57-25.58,1.22-1.11,2.15-2.54,3.32-3.71,5.13-5.1,11.29-8.35,18.1-10.4,2.9,10.13,5.32,20.14,16.62,23.51,18.75,5.58,33.94,17.22,49.04,28.84,6.87,5.28,12.56,12.09,18.79,18.2.44.66.88,1.31,1.31,1.97l-.19-.21c4.44,12.95,13,22.55,24.36,29.81.87.55,2.24.33,3.37.46,5.69,4.31,11.23,8.85,17.12,12.86,5.78,3.94,12.05,6.52,19.19,3.23,6.03-2.79,12.09-5.52,18.13-8.28,8.17-3.72,16.04-7.48,21.67-15.25,4.37-6.03,9.92-11.47,15.8-16.06,6.77-5.28,14.48-9.36,21.8-13.91,4.94-3.07,9.9-6.11,14.89-9.09,12.24-7.31,24.72-14.25,36.67-22.01,4.47-2.9,8.7-7.07,11.4-11.64,10.36-17.57,19.97-35.58,30.03-53.32,6.87-12.12,13.63-24.33,21.17-36.03,7.12-11.05,7.88-19.9,1.56-30.6-4.72-7.99-4.05-16.64-2.9-24.44h45.45c12.45,3.21,24.91,6.42,37.36,9.63,3.6,1.67,7.07,3.77,10.83,4.92,15.41,4.71,31,8.86,46.36,13.75,11.36,3.62,23.18,6.74,33.52,12.4,19.06,10.43,37.03,22.84,55.75,33.93,28.76,17.03,53.44,38.84,75.8,63.44,1.38,1.52,2.58,4.11,2.35,6.03-.56,4.68,1.14,6.6,5.64,6.5,1.16,3.6,2.39,7.19,3.48,10.81,6.15,20.37,3.2,38.66-12.69,53.78-3.27,3.11-5,6.51-6.03,10.99-5.04,22.05-17.76,37.66-39.89,44.28-5.29,1.58-11.11,1.51-16.7,1.91-4.94.35-6.78,1.96-7.14,6.94-1.16,15.77-4.11,30.95-14.41,43.72-.47.58-.43,1.57-.62,2.37-1.26.97-2.74,1.75-3.75,2.93-6.46,7.52-12.73,15.2-19.26,22.65-2.34,2.67-5.25,4.86-7.9,7.27ZM1180.5,789.91c7.23-.78,14.1-2.16,17.23-10.01.39-.3.75-.63,1.16-.88,18.18-10.89,36.01-22.13,46.34-41.78,1.45-2.77,3.85-5.02,5.47-7.72,4.44-7.36,9.49-14.49,12.86-22.33,7.51-17.48,14.14-35.34,21.15-53.03.3-.76.74-1.49,1.19-2.17,5.3-8.05,10.45-16.2,15.99-24.08,3.71-5.28,5.89-10.74,4.57-17.24.7-1.5,1.43-2.99,2.11-4.5,4.34-9.65,1.21-20.36-7.19-24.64-9.36-4.76-18.24-1.41-24.25,8.51-4.11,6.8-8.73,13.32-13.48,19.69-5.27,7.06-10.81,13.88-13.18,22.64-1.6,5.92-3.4,11.79-5.27,17.63-4.6,14.37-9.68,28.59-13.8,43.09-3.1,10.92-10.33,18.97-17.68,26.61-6.58,6.85-15.43,11.46-22.54,17.89-7.7,6.97-15.19,14.38-21.57,22.54-6.31,8.06-5.14,16.28,1.42,24.04-3.15,1.74-6.65,3.08-9.34,5.37-1.62,1.38-3.18,4.61-2.65,6.37,1.02,3.37,4.18,2.97,7,1.49,4.81-2.52,9.63-5,14.45-7.49Z"/>
  <path class="cls-26" d="M903.01,735.99c-6.23-6.11-11.92-12.92-18.79-18.2-15.1-11.62-30.29-23.26-49.04-28.84-11.31-3.36-13.72-13.38-16.62-23.51-6.82,2.06-12.97,5.31-18.1,10.4-1.18,1.17-2.1,2.6-3.32,3.71-7.85,7.16-14.53,14.78-17.57,25.58-2.36,8.39-9,14.36-17.01,17.95-10.84,4.86-18.89,12.69-25.56,22.23-4.73,2.3-7.11,6.41-9.29,11.19,8.71.05,9.91.97,9.65,6.9-.91.85-1.82,1.7-2.89,2.69,3.06,3.5,5.87,6.71,8.68,9.93,2.48,3.26,4.64,6.83,7.52,9.68,2.68,2.65,3.63,4.98,1.37,8.17-5.46,2.29-8.42-1.57-11.26-4.93-4.07-4.81-7.8-9.92-11.61-14.96-1.11-1.46-1.98-3.1-2.34-3.66-16.19,9.41-30.4,19.14-45.85,26.18-11.98,5.46-18.58,14.96-26.02,24.45-4.17,5.32-9.15,10-13.77,14.97-1.75,1.6-3.51,3.21-5.26,4.81-4.38,3.26-8.74,6.56-13.15,9.78-2.79,2.04-7.47,1.62-9.03-.91-1.73-2.8-.9-5.35,1.86-6.74,17.18-8.66,29.25-22.74,40.08-38.02,5.18-7.3,12.05-11.75,19.94-15.82,13.83-7.12,26.97-15.58,40.37-23.53,2.06-1.22,3.08-2.59,2.45-5.61-1.42-6.83,2.38-12.32,6.64-17.02,5.9-6.51,12.14-12.78,18.71-18.61,3.79-3.36,8.31-6.09,12.88-8.33,9.13-4.49,14.87-11.26,16.93-21.33.58-2.81,1.95-5.81,3.85-7.93,5.98-6.69,12.01-13.43,18.74-19.33,4.29-3.76,9.75-6.25,14.87-8.96,3.25-1.72,7.11-2.15,8.12-6.88.31-1.43,3.24-3.02,5.12-3.26,7.54-.94,15.15-1.37,22.73-1.99h16.09c.02-.47.05-.94.07-1.41-5.42-.11-10.84-.23-16.25-.34-8.34-.54-11.11-3.99-8.97-12,1.93-7.19,6.2-12.65,13.97-14,6.03-1.05,12.18-1.44,18.83-2.19-3.02-4.99-5.69-10.3-12.16-12.35-3.47-1.1-6.77-2.74-10.21-3.96-.95-.34-2.14-.03-3.22-.02.03,1.05-.06,2.12.13,3.15.28,1.5.75,2.96,1.14,4.44-.63.22-1.27.44-1.9.67-.93-2.49-1.85-4.98-2.9-7.81-1.55-.44-3.6-1.03-6.49-1.85-.22,3.66-.44,7.17-.73,11.99-5.21-6.15-.14-17.18-11.24-18.49-.87,3-1.68,5.81-2.5,8.62-.47,0-.93.01-1.4.02,0-2.05-.54-4.3.12-6.11,1.22-3.35.45-4.94-2.73-6.63-5.09-2.7-9.8-6.13-14.32-9.03-2.33,3.55-4.49,6.96-6.84,10.23-.29.4-1.62.05-2.77.05,6.11-10.49,4.76-15.51-4.52-20.62-1.62,4.48-3.19,9.09-5.05,13.58-.17.41-2.17.05-3.57-1.09,1.17-.93,2.34-1.85,3.86-3.06-5.44-4.77-10.65-9.51-9.96-17.23h-13.67c.34,4.73.64,8.88.94,13.03-.68.12-1.37.24-2.05.35-.74-4.04-1.49-8.08-2.33-12.66-5.32.47-1.08,6.22-4.87,8.03-.51-2.45-.98-4.75-1.54-7.41-1.75,2.34-2.98,4.54-4.76,6.13-.95.85-2.83.66-4.29.93.51-1.34,1-2.69,1.55-4.01.18-.42.54-.76.82-1.13-.18-.44-.36-.88-.54-1.32-1.19.5-2.54.79-3.54,1.55-2.5,1.9-4.73,4.17-7.3,5.95-.71.49-2.24-.2-3.39-.34.36-.99.45-2.27,1.13-2.9,1.76-1.64,3.79-3,5.63-4.41-3.21-1.06-5.97-1.96-9.5-3.13-1.79,4.43-3.88,9.61-5.97,14.79-.45-.16-.9-.33-1.36-.49-.64-5.26,2.5-9.71,4.24-15.4-3.18-.34-6.16-.79-9.15-.96-6.76-.37-13.53-.49-20.28-.94-2.95-.19-6.94,3.39-7.44,7.23-.18,1.39-.16,2.8-.25,4.49-4.27-3.16-3.74-5.8,2.42-13.74-5.92-2.63-11.69-5.33-17.6-7.67-.92-.37-2.56.78-3.75,1.45-2.95,1.65-5.82,3.44-8.72,5.17-.35-.58-.71-1.16-1.06-1.74,3.05-2.26,6.11-4.51,9.37-6.93-7.45-3.42-14.48-6.66-21.32-9.8-2.33,3.66-4.6,7.21-6.86,10.76l-1.88-1.1c1.79-3.5,3.59-7,5.37-10.48-6.31-3.73-12.24-7.24-18.54-10.98-.49,2.42-.95,4.68-1.41,6.94l-1.33.09c-.29-1.37-1.18-2.96-.77-4.08,1.9-5.18-1.2-7.58-4.9-9.82-.85-.51-1.61-1.17-2.41-1.75-.96-.8-1.91-1.59-2.87-2.39-.4.66-.79,1.32-1.19,1.99,0,0,0-.13,0-.13-.85-1.1-1.71-2.19-2.54-3.3-.71-.94-1.39-1.9-2.09-2.87-1.9,1.54-3.33,2.69-4.75,3.84-.42-.34-.83-.68-1.25-1.02.99-1.68,1.99-3.36,3.08-5.21-2.32-2.12-4.75-4.34-7.3-6.68-3.08,4.16-5.45,10.28-14.55,9.08,6.03-4.23,14.08-6.2,9.92-15.96-1.98,3.52-3.57,6.34-5.15,9.15-.58-.26-1.16-.52-1.74-.79.98-2.59,1.73-5.31,3.02-7.73,1.22-2.3.98-3.7-.91-5.56-3.02-2.97-5.6-6.38-8.81-10.11-1.38,3.09-2.55,5.69-3.78,8.43q-2.1-2.89,2.17-11.73c-1.43-1.65-2.93-3.39-5.45-6.31-.64,1.86-1.18,3.4-1.71,4.95-.67-.3-1.33-.61-2-.91.67-4.36,3.94-9.21-2.24-12.7-2.07,2.17-4.48,4.71-6.89,7.24-1.16-5.05,2.81-7.3,5.64-10.1-2.18-4.11-4.27-8.07-6.37-12.03-1.11-1.5-2.23-3-3.34-4.5-.56-1.81-1.12-3.62-1.76-5.7-1.85,1.76-3.27,3.1-4.68,4.45l-1.35-.54c1.16-4.44,7.54-8.78,1.13-13.37-.85-1.92-1.7-3.85-2.56-5.77-.84-1.73-1.68-3.45-2.52-5.18-.83-1.26-1.66-2.52-2.48-3.78-.81-1.42-1.63-2.85-2.44-4.27-.49-1.62-.98-3.24-1.46-4.86.1-1.27.19-2.54.29-3.82.17-1.33.34-2.65.51-3.98-.38-6.03-.21-11.77,3.26-17.27,1.8-2.86,1.89-6.8,2.56-9.51,3.44-2.84,6.6-5.44,9.71-8.01-.82-1.9-1.37-3.19-2.37-5.52,1.94,1.2,2.92,1.8,4.16,2.57,1.16-3.13,6.62-4.18,3.91-8.94,6.34-.37,7.64-4.12,4.62-12.56,1.39,1.83,2.77,3.65,4.32,5.69,2.89-5.14,5.4-9.42,4.36-16.44-1.8-12.16,1.65-24.01,10.15-33.63,1.47-1.66,3.72-3.33,5.79-3.6,4.2-.54,5.48-3.52,7.52-6.4,6.12-8.63,11.59-18.07,19.18-25.21,15.59-14.67,32.18-28.31,48.78-41.86,7.9-6.45,17.41-10.14,27.61-11.85,5.73-.96,11.43-2.18,17.07-3.6,3.69-.93,4.48-3.79,4.16-7.4-.15-1.65.85-3.4,1.33-5.11,1.12,1.72,2.58,3.32,3.26,5.19.53,1.46.11,3.26.11,5.4,6.07-.81,11.77-1.57,16.7-2.23.8-3.01,1.43-5.35,2.06-7.7,1.7,1.91,3.41,3.81,4.58,5.12,19.69,0,39.5.86,59.17-.41,8.19-.53,15.82,2.61,24.21,1.14.32-2.11.5-4.4,1.1-6.58.25-.9,1.38-1.56,2.11-2.33.79.89,2.16,1.72,2.27,2.69.22,2.1-.2,4.27-.4,6.88,5.55.83,11.04,1.65,14.95,2.24,3.51-1.95,5.84-3.24,8.16-4.54.13,1.83.26,3.66.43,6.18,6.62,1.54,14.24,3.31,21.29,4.94,1.38-1.56,2.89-3.28,4.4-5,.79,2.37,1.58,4.75,2.83,8.5,3.06,1.74,7.61,4.43,12.28,6.88,1.01.53,2.52-.02,3.74.22,1.01.2,2.82,1.01,2.77,1.26-1.03,5.39,4.52,5.35,6.37,8.25,1.4-.94,2.61-1.75,3.82-2.57.57,1.41,1.15,2.83,1.72,4.24.56,1.4,1.11,2.81,1.31,3.32,3.49-.92,6.22-1.63,8.95-2.35-1.18,2.06-2.35,4.12-4.07,7.13.54.43,1.62,1.29,2.8,2.23,2.35-1.8,4.3-3.63,6.57-4.89,1.18-.65,2.92-.3,4.41-.4-.68,1.26-1.12,2.74-2.09,3.71-1.61,1.63-3.56,2.93-5.51,4.48,4.84,5.57,9.43,10.85,14.74,16.95.4-2.56.49-4.43,1.04-6.15.38-1.2,1.39-2.19,2.13-3.28.65,1.17,1.93,2.38,1.84,3.49-.23,3.03-1.04,6.02-1.83,10.13.69.89,2.18,2.81,3.42,4.4,1.44-1.33,2.59-2.39,3.75-3.45.6,1.74,2.16,3.89,1.62,5.15-1.62,3.77.37,6.14,1.93,9.11,3.6,6.87,8.11,12.54,14.16,17.68,4.6,3.91,6.76,10.69,10.12,16.4,1.85-2.56,3.73-5.44,5.92-8.06.68-.82,2.17-.96,3.29-1.41-.01,1.3.43,2.86-.12,3.86-1.43,2.59-3.31,4.92-5.65,8.28,1.87-.51,2.72-.96,3.52-.9,1,.08,1.96.59,2.94.91-.46.96-.75,2.62-1.39,2.77-7.8,1.75-6.78,7.51-6.2,13.12.82,7.93.36,15.62-2.56,23.25-.81,2.13,1.1,5.3,2.1,9.4,2.26-3.61,3.68-6.15,5.4-8.46.54-.73,1.89-.86,2.87-1.26.24,1.03.92,2.22.63,3.07-.58,1.7-1.4,3.51-2.63,4.76-5.41,5.48-4.23,8.28,1.94,13.68,1.62-1.57,3.2-3.1,4.78-4.63,0,2.27-.58,4.75.13,6.77.91,2.62,2.85,4.89,4.61,7.74,2.41-2.66,4-4.41,5.58-6.16.35.25.7.49,1.05.74-1.16,1.79-2.32,3.57-3.55,5.46,4.62,7.04,10.62.4,17.14,2.1-2.54.99-4.02,1.57-5.49,2.14-1.99,5.88,3.89,6.53,6.3,9.5,1.11,1.19,2.22,2.37,3.32,3.56,3.01,3.76,6.02,7.52,9.44,11.81,3.46-2.98,6.72-5.94,10.17-8.67,1.11-.88,2.7-1.15,4.06-1.69-.28,1.43-.1,3.72-.92,4.16-5.18,2.79-3.59,9.16-7.31,12.72,1.56,2.08,3.04,4.05,4.61,6.15,2.06-1.47,4.71-2.92,4.63,1.09-.14,6.44,3.5,10.86,6.87,15.57,1.52,2.12,2.93,4.32,4.41,6.5.37-.33.66-.47.75-.7.8-2.06,1.57-4.13,2.34-6.19.63,2.02,1.3,4.02,1.86,6.06.96,3.47,1.84,6.97,2.72,10.36,1.45-1.24,2.67-2.28,4.48-3.83.46,2.45.73,3.85.93,4.91,1.77.45,3.39.86,5,1.27-.76,1.55-1.47,3.12-2.28,4.64-.76,1.44-1.61,2.82-3.01,5.25,4.3.28,7.71.51,11.88.78,1.09,5.44,6.56,3.63,11.2,4.21,7.36.91,14.86,1.65,21.92,3.72,9.87,2.9,13.29,10.05,11.55,21.22-.41,2.61-.7,5.24-1.12,8.45,5.84,0,11.24-.01,16.65,0,10.46.03,20.14,8.72,21.31,19.17.39,3.43.69,6.87,1.17,11.72,12.88,0,25.47.17,38.05-.05,13.8-.24,27.15,1.85,40.07,6.67.62.23,1.31.38,1.85.73,16.63,10.86,35.66,15.45,54.56,19.64,23.35,5.18,43.98,15.6,63.82,28.33,15.1,9.69,30.97,18.24,45.6,28.56,15.03,10.6,29.27,22.41,43.3,34.33,7.56,6.43,14.26,13.96,20.77,21.5,3,3.48,5.1,7.98,6.68,12.36,1.09,3.05-.27,6.26-3.65,7.9-4.5.1-6.2-1.82-5.64-6.5.23-1.91-.97-4.5-2.35-6.03-22.36-24.6-47.05-46.41-75.8-63.44-18.72-11.09-36.69-23.5-55.75-33.93-10.35-5.66-22.16-8.79-33.52-12.4-15.36-4.89-30.94-9.04-46.36-13.75-3.76-1.15-7.23-3.26-10.83-4.92-11.27-7.82-24.13-9.44-37.36-9.63h-45.45c-1.15,7.8-1.82,16.46,2.9,24.44,6.32,10.7,5.56,19.55-1.56,30.6-7.54,11.7-14.3,23.91-21.17,36.03-10.06,17.75-19.67,35.76-30.03,53.32-2.69,4.57-6.93,8.74-11.4,11.64-11.95,7.76-24.42,14.71-36.67,22.01-4.99,2.98-9.95,6.02-14.89,9.09-7.33,4.56-15.04,8.64-21.8,13.91-5.89,4.59-11.44,10.03-15.8,16.06-5.63,7.77-13.5,11.53-21.67,15.25-6.05,2.75-12.1,5.49-18.13,8.28-7.14,3.3-13.41.71-19.19-3.23-5.89-4.01-11.43-8.55-17.12-12.86-9.24-10.09-18.49-20.18-27.73-30.27,0,0,.19.21.19.21-.44-.66-.88-1.31-1.31-1.97ZM917.83,740.02c.37.52.75,1.04,1.12,1.56,4.88,4.96,9.49,10.21,14.7,14.8,7.09,6.24,14.45,12.24,22.12,17.74,2.19,1.57,6.33,2.22,8.79,1.26,8.97-3.49,17.78-7.51,26.27-12.04,3.6-1.92,6.41-5.48,9.3-8.55,2.14-2.27,3.4-5.53,5.81-7.35,9.37-7.07,18.93-13.92,28.65-20.51,7.15-4.85,14.59-9.27,22.01-13.71,11.38-6.82,23.06-13.16,34.18-20.38,4.31-2.8,8.3-6.94,10.92-11.36,9.02-15.27,17.36-30.93,25.96-46.44,2.77-5.56,5.53-11.12,8.3-16.68,5.94-9.36,11.86-18.74,17.82-28.08,4.21-6.6,3.27-12.72-1.17-18.89-1.58-2.2-2.88-5.05-3.11-7.71-.7-8.34-1.61-16.51.48-25.1,2.06-8.49,2.66-17.98-6.25-24.29l-.03-.02c-.64-.38-1.28-.76-1.91-1.13-1.95-.03-3.9-.06-5.85-.09-5.38-.24-10.77-.47-16.24-.71.39,2.28.84,4.04.96,5.82.39,5.59.55,11.19,1,16.77.65,8.17,5.35,15.56,3.85,24.29-1.26,7.32-1.7,14.92-1.36,22.34.43,9.36-3.2,16.38-8.89,23.47-4.22,5.27-8.23,11.93-9.11,18.41-1.91,14.03-7.74,26.07-15.21,37.52-3.13,4.8-6.87,9.88-11.59,12.83-13.91,8.71-28.4,16.54-44.63,20.3-1.05.24-3.15-.31-3.37-.96-.39-1.15-.11-3,.65-3.93.85-1.04,2.48-1.73,3.88-2,14.01-2.68,25.62-10.76,38.08-16.9,1.18-.58,2.35-1.35,3.24-2.3,12.04-12.74,20.3-27.3,22.63-45.04.55-4.2,3.3-8.11,5.03-12.15.96-2.23,1.91-4.47,2.86-6.71.64-.77,1.38-1.47,1.89-2.31,2.77-4.62,6.52-8.99,7.92-14.01,1.53-5.46.57-11.56,1.18-17.34,1.55-14.58-.61-28.86-3.25-43.09-1.12-6.05-.12-12.82-5.45-17.69-.45-.41.47-2.32.75-3.53.53-.25,1.5-.47,1.52-.76.46-5.69,1-11.39,1.06-17.09.01-1.31-1.68-2.63-2.59-3.95-3.62-1.46-7.24-2.92-10.86-4.38l-3.1-.71h-15.08c.97,2.19,1.87,4.21,2.76,6.23.56,3.47.93,6.98,1.71,10.4,3.18,14.1,6.81,28.1,9.62,42.27,1.89,9.54,3.31,19.26,3.8,28.96.68,13.47-3.9,25.07-14.86,33.73-1.65,1.3-3.32,3.73-3.37,5.68-.22,8.38-.01,16.78.37,25.16.33,7.08-2.82,12.36-8.34,16.02-5.35,3.55-11.47,5.93-16.83,9.46-10.44,6.89-21.9,9.97-34.19,9.67-4.48-.11-9.04-1.63-13.34-3.14-12.34-4.34-24.32-9.89-36.91-13.23-8.18-2.17-17.16-1.74-25.78-1.74-21.86,0-41.77-6.49-60.52-17.24-3.05-1.75-5.98-4.96-9.09-5.12-7.58-.4-15.25.33-22.83,1.14-3.95.42-6.15,3.4-6.71,6.46,8.05,1.55,15.84,2.87,23.54,4.59,3.94.88,6.24,3.57,6.36,7.88.1,3.87,1.74,6.63,5.75,7.73,1.74.48,3.35,1.43,5.02,2.16,6.02,4.01,11.93,8.2,18.1,11.98,10.38,6.36,21.53,10.95,33.66,12.56,7.36.98,14.81,1.27,22.22,1.86.79.2,1.7.21,2.34.64,1.91,1.28,4.43,2.38,5.3,4.22.52,1.09-1.21,4.42-2.65,5.02-2.61,1.09-7.42,2.2-8.36,1-2.72-3.48-5.87-3.11-9.27-3.2-3.65-.09-7.36.11-10.93-.47-19.03-3.11-35.74-11.49-51.3-22.63-5.88-4.21-12.39-7.54-18.64-11.21-.52-.31-1.29-.27-1.95-.26-9.13.1-18.25.22-27.38.33h-11.31c.32,3.62.55,6.22.78,8.83.86,7.92,3.91,14.09,12.37,16.36,3.79,1.02,7.43,2.58,11.14,3.89,3.77,2.08,7.77,3.84,11.28,6.29,18.91,13.19,38.71,25.37,52.21,44.86l.42-.08-.42.07c.8,1.29,1.59,2.58,2.39,3.87l-.05-.2ZM1082.66,515.23c-3.2-19.17-15.17-33.65-25.9-48.24-2.15.45-4.2.88-6.25,1.31.76-2.08,1.52-4.15,2.43-6.66-3.2-5.18-6.74-10.91-10.06-16.29-1.1.52-2.24,1.06-3.37,1.59-.58-1.3-1.67-2.6-1.66-3.89.05-4.46-.56-8.57-3.97-11.81-.58-.33-1.16-.66-1.74-.99-2.99-4.55-5.98-9.11-8.96-13.66-.63.1-1.25.21-1.88.31-1.36,2.52-2.62,5.11-4.12,7.54-.61.99-1.75,1.66-2.64,2.47-.47-1.25-1.57-2.68-1.28-3.71.89-3.18,2.52-6.15,3.42-9.33.41-1.44.27-3.51-.51-4.71-1.87-2.9-4.27-5.47-6.45-8.17q-4.44,3.63-6.77-5.04c-1.33-.28-2.64-.56-3.95-.83l-2.66-1.94c-.3-1.21-.2-2.96-.97-3.55-2.83-2.16-5.96-3.93-8.98-5.85-.37-.08-.74-.17-1.11-.25.1.37.2.73.3,1.1-.47,2.27-.93,4.54-1.4,6.81-3.45-8.54-5.99-16.97-13.28-22.76-.64-.45-1.27-.91-1.91-1.36-.97-3.14-2.27-6.22-2.84-9.43-1.53-8.61-5.13-14.09-14.91-15.66-13.44-2.16-26.6-6.08-39.89-9.25-.35-.09-.69-.18-1.04-.27.2.24.39.47.59.71,3.95,3.5,8.15,6.76,11.8,10.55,4.96,5.14,9.42,10.75,14.24,16.03,4.14,4.53,9.21,8.38,12.55,13.41,4.01,6.02,6.18,13.25,9.95,19.46,7.98,13.13,12.85,27.92,21.92,40.44.75,1.04.99,2.45,1.51,3.67,3.47,8.03,5.86,16.79,10.65,23.93,12.47,18.58,26.07,36.41,39.08,54.63,7.24,10.14,14.13,20.54,21.32,30.71,1.98,2.79,5.51,4.85,6.56,7.87,3.45,9.84,5.85,20.05,9.12,29.96,1.77,5.36,4.48,10.4,6.88,15.85,3.48-3.4,5.99-6.05,8.71-8.48,6.78-6.04,7.69-14.35,8.11-22.47.32-6.22-.95-12.53-1.52-18.8-.18-2.45.07-5.02-.6-7.33-2.7-9.25-5.68-18.41-8.56-27.6ZM612.12,265.29c-1.78,2.33-3.56,4.66-5.34,6.99-.88,1.12-1.76,2.24-2.65,3.38,19.47-2.65,38.67-5.05,57.79-7.95,10.5-1.59,20.8-4.77,31.33-5.93,23.94-2.64,47.93-5.67,71.96-6.3,23.71-.62,47.53,1.07,71.24,2.64,13.9.92,27.64,3.94,41.52,5.36,19.3,1.97,37.88,6.75,56.19,12.9,2.46.83,4.94,1.6,7.42,2.4-7.88-14.12-16.96-26.6-28.41-37.05-8.68-7.92-17.49-15.86-27.15-22.46-11.42-7.8-23.45-15.25-38.65-11.21-3.68.98-6.89.09-5.17-5.3-5.47-.77-10.54-1.6-15.65-2.16-6.28-.68-12.66-.73-18.87-1.78-6-1.01-11.72.88-17.79.58-21.38-1.05-42.92-1.36-64.17,2.72-12.39,2.38-24.94,4.11-37.17,7.11-7.45,1.83-15.23,4.34-21.5,8.56-20.17,13.58-37.85,30.24-54.93,47.51ZM1019.86,657.67c7.55-.56,15.25.13,22.38-3.53,6.5-3.35,13.31-6.1,19.76-9.54,4.29-2.29,9.02-4.63,10.35-9.92.86-3.42.96-7.04,1.21-10.59.55-7.74-.41-14.76-5.13-21.7-4.07-5.98-5.95-13.5-8.45-20.47-1.39-3.89-1.94-8.07-3.07-12.07-1.88-6.65-5.59-12.13-10.01-17.49-5.36-6.5-9.51-13.99-14.45-20.85-6.1-8.46-12.56-16.67-18.71-25.1-4.6-6.3-9.16-12.65-13.39-19.21-6.92-10.73-13.51-21.68-20.36-32.45-1.22-1.91-3.04-3.45-4.58-5.16-.44.23-.88.45-1.32.68-.3,2.22-.59,4.44-.8,6.01-1.85-.11-3.84-.23-5.82-.35.52,1.86,1.04,3.73,1.66,5.98-1.49-.54-3.03-1.1-5.06-1.84.29,6.17-3.3,2.63-6.77,2.02.91,3.45,1.6,6.09,2.69,10.23-2.1-2.27-3.22-3.48-5.49-5.94-.93,4.11-1.64,7.24-2.63,11.65-.69-2.93-1.05-4.44-1.41-5.96-.5,0-1,0-1.49.01.16,2.14.32,4.28.39,5.35-2.33-.42-4.58-1.56-5.83-.88-1.66.91-2.53,3.24-3.85,5.12-.36-.77-.89-1.93-1.64-3.54-3.09,2.29-5.89,4.37-8.37,6.2.44,3.63.86,7.1,1.29,10.57-.65.14-1.3.28-1.95.41-1.34-2.99-2.02-7.66-4.19-8.51-2.28-.89-5.99,1.88-8.57,2.86.73,2.68,1.18,4.31,2.05,7.47-5.33-3.65-9.16-4.29-12.63.14,2.61,2.84,4.73,5.71,2.22,9.33-4.44.14-2.41-10.03-8.87-5.23-3.07,2.28-5.17,5.88-8.21,9.46,2.94,1.14,4.53,1.75,6.12,2.37.14.5.28,1,.42,1.5-1.57.55-3.29,1.78-4.66,1.47-1.78-.4-3.28-2.04-4.9-3.14-.37,1.33-.07,1.86.14,2.42.26.71.43,1.45.45,1.52-2.74,1.53-5.07,2.84-7.4,4.14l-.3,1.29c6.63-.29,6.67,3.08,5.47,7.55-.5,1.86-.14,3.97-.03,5.96.34,6.21,3.53,8.64,9.62,7.55.97-.17,2.05.24,3.61.46-.96,1.42-1.53,2.27-2.36,3.5,2.93,1.55,5.6,2.97,8.25,4.37,1.06-1.99,1.75-3.31,2.4-4.54,2.31,2.65,4.23,4.85,5.87,6.73,2.43-.85,4.12-1.45,7.2-2.53-1.59,2.58-2.32,3.77-3.28,5.32,1.36.86,2.65,1.68,3.45,2.19,2.43-1.91,4.31-3.38,6.18-4.86.37.44.74.89,1.12,1.33-1.05,1.53-2.11,3.06-3.21,4.66,9.51,6.61,16.63,1.25,23.44-4.48q3.1,4.26-1.61,10.22c3.29,4.07,6.09,8.28,12.81,6.68,7.01-1.66,9.27,3.96,9.1,11.43-.06,2.49-.93,4.53,1.4,6.5.71.6.4,2.4.55,3.65-1.32,0-2.64,0-3.96.01-1.94-1.43-3.89-2.85-5.83-4.28-.3.35-.61.7-.91,1.05.47,1.33.94,2.65,1.39,3.94,1.38-.28,2.49-.5,3.61-.72.46,4.91,3.57,8.74,6.73,8.66,1.57-.04,3.15.62,4.73.97-1.1,1.23-2.16,2.5-3.33,3.67-.5.5-1.22.77-2.62,1.61,3.42.78,5.98,1.29,8.5,1.98,1.49.41,2.9,1.12,4.34,1.7-.89,1.42-1.77,2.84-2.77,4.44.62.82,1.58,1.78,2.17,2.94.7,1.37,1.07,2.91,1.59,4.37-1.7-.69-3.44-1.29-5.08-2.1-1.54-.75-2.99-1.71-4.47-2.58-.14.35-.29.71-.43,1.06,1.53,3.01,3.06,6.01,4.63,9.08.53,0,1.19-.05,1.85.01,1.51.15,3.02.36,4.52.55-.42,1.3-.74,2.64-1.28,3.9-2.27,5.33,1.52,10.91,7.9,11.34,0-1.98-.21-3.99.08-5.92.17-1.1,1.17-2.07,1.8-3.1.75,1.07,1.8,2.05,2.2,3.24.66,1.99.9,4.13,1.31,6.2.6,1.26.9,3.27,1.86,3.66,6.82,2.8,13.78,5.28,20.69,7.85ZM596.42,396.28c-.34.02-.68.04-1.03.06-.23,1.39-.46,2.78-.65,3.91-3.13,1.07-6.05,2.06-8.87,3.02.38,1.41.65,2.42.88,3.3h-9.79c.44,2.83.69,4.46.95,6.1-.37.18-.74.36-1.12.54-1.21-1.55-2.43-3.1-3.77-4.81-2.28.46-5.2.29-6.99,1.63-1.54,1.16-1.8,4.04-2.94,6.98-1.44-2.03-2.49-3.51-3.54-4.98-3.68-.1-5.73,2.38-5.01,5.32,1.54,6.32,3.61,12.6,6.22,18.56,2.73,6.2,5.72,6.91,11.49,4.41,2.5,1.86,4.78,3.55,7.84,5.83v-5.41l1.27-1.04c-.19,8.99,6.5,8.61,11.26,10.55.86-2.63,1.6-4.89,2.62-8q4.96,7.84,7.62,7.37c.17-1.63.31-3.07.46-4.51,1.32.42,2.77.63,3.93,1.32,1.61.97,3.01,2.3,4.55,3.53,1.15-1.96,2.02-3.43,3.41-5.8.76,2.77,1.18,4.27,1.59,5.77.34-.07.67-.14,1.01-.21.29-5.49.58-10.98.87-16.48l1.68-.03c.5,2.32,1,4.64,1.5,6.96.51.06,1.03.13,1.54.19.91-3.48,1.81-6.96,2.3-8.83,4.06-2.59,7.4-4.42,10.39-6.69,4.73-3.6-2.19-5.76-1.58-9.77,1.91,1.01,3.61,1.45,4.63,2.53,3.26,3.46,5.51-.13,7.78-1.25.95-.46,1.08-3.28.98-4.99-.13-2.26-.85-4.49-1.32-6.74.42-.1.84-.19,1.27-.29.75,1.9,1.51,3.8,2.57,6.48,1-2.57,1.65-4.22,2.48-6.33.84,1.03,1.4,1.72,1.29,1.57,2.72-1.88,5.46-3.56,7.92-5.59.84-.69,1.06-2.22,1.36-3.42.26-1.05.24-2.16.48-4.6,1.34,2.84,2.01,4.27,3.02,6.42,2.04-1.63,3.68-2.94,5.5-4.39.37,1.58.71,3.06,1.13,4.89,1.9-1.54,3.44-2.78,4.97-4.02.32.24.65.48.97.72-.83,2.15-1.66,4.31-2.67,6.92,1.54-.51,2.63-.86,3.68-1.21.24.5.4.68.36.78-.56,1.32-1.15,2.62-1.72,3.92,7.89,4.85,10.73,5.92,13.18,4.01,2.23-1.74,6.77-2.31,4.44-6.4,6.17-3.04,11.95-5.89,17.81-8.78.49,1.58.9,2.91,1.5,4.85.86-1.17,1.35-1.85,2.48-3.39,6.36,4.72,12.69,9.42,18.65,13.84,2.26-1.53,3.92-2.65,5.58-3.77-.14.59-.29,1.17-.43,1.76,1.5,1.31,3.01,2.61,4.49,3.94,1.52,1.37,3.01,2.77,4.52,4.15,1.42,1.29,2.85,2.57,4.87,4.38.35,1.56.39,4.63,1.78,6.86.73,1.17,3.81.87,5.55,1.18-.4,1.7-.82,3.51-1.25,5.32.33.09.66.18.99.27.9-1.12,1.79-2.24,3.18-3.96q-.97,9.31,3.64,9.87c.44,4.32.85,8.29,1.3,12.67,2.79-.49,4.72-.48,6.33-1.19,3.91-1.73,6.6,0,6.84,5.02-1.49-.4-2.87-.76-4.4-1.17.79,6.21,4.5,8.03,9.98,8.12.1-1.16.07-1.99.25-2.77.37-1.61.86-3.19,1.3-4.78.82,1.72,1.76,3.4,2.42,5.18.76,2.06.61,5.17,2.02,6.16,4.37,3.07,9.29,5.35,14,7.93.44-.38.87-.75,1.31-1.13-.4-3.21-.77-6.43-1.23-9.64-.2-1.36-.61-2.7-.93-4.05,1.45.84,3.48,1.34,4.22,2.59,1.03,1.75,1.24,4.05,1.53,6.16.28,2.07.22,4.18.32,6.41,5.09,0,9.58-.2,14.04.06,3.65.21,7.09.65,7.62-5.21,3.06,6.63,7.82,4.29,12.09,3.35,4.07-.89,9.51,2.36,11.58-3.94,6.79,3.6,9.49,3.44,11.92-.53,1.58.38,3.19,1.13,4.74,1.04,1.54-.09,3.01-1.42,4.55-1.5,9.15-.5,9.44-.75,8.45-9.15-.03-.3.57-.67,1.91-2.12.65,3.62,1.13,6.25,1.7,9.39,7.43-3.97,14.85-7.81,22.12-11.91,1.86-1.05,3.23-2.96,5.25-4.87.68.05,2.65.79,3.97.17,4.47-2.11,8.69-4.72,13.03-7.1.74-.41,1.59-.63,2.29-.9-1.74-2.02-2.6-3.01-3.45-4,.2-.25.4-.5.6-.75,1.66.83,3.33,1.66,4.16,2.08,6.41.06,3.82-7.33,9.27-8.67,3.87-.95,6.9-5.27,10.66-8.37.33.12,1.47.55,4.09,1.52-2.77-5.25-4.56-9.46-7.04-13.22-9.7-14.68-14.02-32.59-28.08-44.73-9.12-7.88-16.99-17.2-25.7-25.58-4.06-3.91-8.69-7.24-13.25-10.58-1.5-1.1-3.54-1.69-5.42-1.99-5.23-.85-10.49-1.5-15.76-2.09-9.53-1.07-19.06-2.72-28.61-2.9-22.47-.43-44.95-.05-67.43-.21-4.45-.03-9.05-.4-13.3-1.6-12.85-3.64-25.92-5.34-39.22-5.38-7.8-.02-15.67,1.01-23.39.27-16.59-1.6-32.93.45-49.08,3.15-18.15,3.03-36.06,7.52-53.97,11.86-4.01.97-9.15,1.4-10.74,6.84-.73,2.51-1.73,4.95-2.7,7.68.81.21,1.75.42,2.66.71,9.19,2.87,13.17,7.9,13.35,17.32.11,5.82-.35,11.66-.1,17.47.19,4.37,1.21,8.7,1.66,13.06.24,2.31.04,4.67.04,7.01-.49.09-.97.17-1.46.26-.67-1.92-1.35-3.83-2.02-5.75ZM680.49,270.62l.1,1.66c1.84.29,3.84.23,5.5.94,2.93,1.25,6.73,2.29,8.23,4.65,2.32,3.65,3.81,8.26,4.22,12.6.79,8.49-2.44,11.18-10.74,11.58-6.6.32-13.15,1.9-19.75,2.21-5.64.27-11.36-.13-16.97-.85-3.81-.49-5.39-3.65-5.52-7.32-.14-3.83.05-7.66-.16-11.48-.06-1.05-.92-2.1-1.55-3.07-.97-1.47-2.06-2.87-3.5-4.86-4.84.75-10.7,1.93-16.62,2.51-10.85,1.07-21.38,2.95-30.74,9.05-1.64,1.07-3.54,1.95-5.44,2.38-4.74,1.08-7.58,4.17-9.01,8.45-1.42,4.23-1.76,8.86-3.46,12.95-1.97,4.74-.42,7.92,2.8,11.1,3.44,3.4,7.18,2.69,11.06,1.13,1.23-.49,2.42-1.2,3.69-1.49,15.38-3.44,30.7-7.14,46.17-10.1,12.03-2.31,24.2-4.63,36.39-5.23,17.94-.88,35.97-.68,53.92-.05,10.03.35,20.01,2.44,29.99,3.87,6.36.91,12.67,2.78,19.03,2.91,19.3.39,38.62.37,57.93.07,14.02-.22,27.74,1.66,41.43,4.3,1.61.31,3.38-.3,5.08-.41,2.31-.16,4.72-.71,6.92-.26,3.86.8,7.54,2.45,11.39,3.37,15.31,3.63,30.65,7.12,45.98,10.67,4.04.93,8.03,2.39,12.11,2.71,3.56.28,7.22-.68,10.37-1.04.9-14.35-1.1-27.57-9.99-40.13-1.82,3.35-3.25,6.15-4.85,8.86-.45.76-1.38,1.76-2.04,1.72-.67-.04-1.88-1.3-1.8-1.88.3-2.16.63-4.5,1.71-6.32,1.03-1.72,3.02-2.88,5.06-4.71-2.14-1.1-3.77-2.27-5.58-2.81-17.98-5.37-35.88-11.1-54.05-15.74-9.11-2.32-18.8-2.25-28.13-3.86-31.41-5.41-63.15-7.58-94.9-7.34-23.54.18-47.07,3.14-70.57,5.25-7.97.72-15.83,2.63-23.74,4ZM668.11,476.99c-.83,2.1-2.55,4.63-1.98,5.34,2.04,2.57,3.79,6.85,8.05,4.27.89,1.38,1.77,3.67,2.43,3.6,1.51-.15,3.04-1.27,4.3-2.31,1.17-.97,2.02-2.33,3.01-3.52.26.24.52.49.79.73-.73,1.55-1.46,3.11-2.43,5.16,1.18-.18,1.89-.11,2.38-.4,8.04-4.78,15.85-4.14,23.68.66,2.99,1.83,5.16.82,5.24-1.87,2.75,1.72,5.58,3.49,9.05,5.66.51-3.46.81-5.47,1.29-8.69,1.61,2.95,2.59,4.76,4.3,7.89,1.73-2.27,2.77-3.98,4.15-5.34,1.06-1.05,2.47-2.09,3.88-2.37,3.21-.64,6.51-.81,10.06-1.21-.85-2.33-1.3-3.54-1.98-5.41,1.85.98,2.96,1.57,4.75,2.52.27-2.58.48-4.6.72-6.91.66.12,1.45.27,3.37.62-1.52-2.64-2.63-4.57-3.54-6.16.93-.72,1.77-1.36,2.6-2-1.59-1.82-3.18-3.64-4.77-5.46-.7-1.86-1.4-4.42-3-5.26-6.45-3.39-13.19-6.25-20.04-9.41-.36,1.56-.66,2.82-.95,4.08-.45-.04-.89-.08-1.34-.12,0-2.08.48-4.31-.12-6.2-.86-2.7-4.23-1.64-6.35,1.99-2.81-4.68-4.63-4.69-7.54-.14-.92-1.11-1.74-3.11-2.82-3.26-6.47-.93-12.99-1.56-19.52-1.96-1.12-.07-2.67,1.22-3.45,2.29-1.44,1.97-2.47,4.24-3.67,6.39-.28-.13-.57-.25-.85-.38.13-1.71.27-3.42.4-5.13-.42-.24-.84-.49-1.27-.73-1.85,2.48-3.7,4.96-5.65,7.58-.08-.05-1.12-.65-1.65-.96-1.61,2.23-3,4.03-4.25,5.93-1.34,2.03-3.55,4.1-3.63,6.22-.21,5.13.6,10.3,1.02,15.62,2.7-.68,4.09-1.02,5.36-1.34ZM576.44,350.06c-2.8,4.5-3.77,6.81-1.55,10.22,2.8,4.31,4.12,9.22,2.34,14.68-2.31,7.05-8.12,9.58-14.65,6.32-1.67-.83-5.04-.85-6.1.24-2.27,2.35-4.32,5.53-4.86,8.65-.23,1.32,3.4,3.65,5.6,4.97,6.38,3.81,12.88,1.1,19.33-.07,5.12-.93,12.03-11.87,12.12-17.07.13-6.8-3.77-11.81-6.15-17.49-1.38-3.3-3.59-6.26-6.08-10.47ZM684.17,296.58c.09-.58.18-1.16.27-1.75-3.44-1.2-7.54-1.61-10.18-3.79-3.6-2.97-6.21-1.69-9.26.04-3.02,1.71-7.19,2.14-7.87,7.34,9.44,3.53,17.98-3,27.04-1.84ZM659.28,276.68c4.93,6.94,14.79,7.6,21.56,1.85-6.72-4.81-13.91-2.68-21.56-1.85ZM687.15,279.02c-2.81,3.14-5.09,5.67-7.06,7.87,4.12,2.17,8.26,4.34,12.54,6.59.9-7.12-1.77-13.01-5.48-14.46ZM659.8,286.93c-2.25-2.59-4.77-5.51-8.01-9.25v16.55c2.61-2.38,5.68-5.18,8.01-7.3ZM956.12,577.87c-.09,6.85.22,7.15,7.58,7.55.5-8.05-.32-8.91-7.58-7.55ZM782.45,572.3c1.98-7.33,1.37-8.31-5.86-10.09,2.27,3.91,4.06,7,5.86,10.09ZM574.17,364.99c-1.87-1.55-3.19-3.43-4.17-3.27-1.25.21-2.9,1.96-3.11,3.25-.16,1,1.83,3.41,2.5,3.28,1.49-.29,2.76-1.77,4.79-3.25Z"/>
  <path class="cls-18" d="M635.91,840.72c1.75-1.6,3.51-3.21,5.26-4.81,1.35,4.68,2.33,9.51,4.13,14.01,4.79,11.96,12.87,20.76,25.26,25.33,1.58.58,2.49,2.97,3.72,4.52-4.72-1.86-9.95-2.97-14.06-5.74-9.94-6.69-17.7-15.4-21.24-27.29-.63-2.13-2.03-4.02-3.08-6.03Z"/>
  <path class="cls-18" d="M683.18,881.93c4.1-.14,6.37,2.3,8.76,5.34,8.09,10.31,18.49,16.56,31.96,16.91,3.97.1,7.94.39,11.89.83.85.1,1.57,1.24,2.36,1.9-8.83,2.58-17.66,1.77-26.15-1.05-12.6-4.19-22.24-12.31-28.82-23.93Z"/>
  <path class="cls-9" d="M1346.55,901.72c2.65-2.41,5.55-4.59,7.9-7.27,6.53-7.45,12.8-15.14,19.26-22.65,1.01-1.18,2.49-1.96,3.75-2.93-1.86,4.16-3.18,8.68-5.69,12.4-6.28,9.3-14.43,16.57-25.22,20.45Z"/>
  <path class="cls-18" d="M966.79,883.12c1.5.18,3.99-.12,4.34.6,4.48,9.44,11.67,16.36,19.95,22.37.47.34.62,1.11.92,1.68-11.77-4.77-20.16-12.99-25.21-24.65Z"/>
  <path class="cls-3" d="M536.88,409.31c.83,1.26,1.66,2.52,2.48,3.78-4.65-.66-13.12,4.27-15.09,8.76-.31.7-.68,1.36-1.13,2.26-3.92-2.36-2.03-4.98-.11-6.35,4.39-3.14,9.2-5.67,13.85-8.45Z"/>
  <path class="cls-3" d="M609.35,512.15c.96.8,1.91,1.59,2.87,2.39-1.31,4.73-1.34,9.24,2.87,12.97-3.82,1.03-5.18.51-5.91-2.94-.73-3.44-.71-7.04-1.02-10.57,0,0,0,.13,0,.13.4-.66.79-1.32,1.19-1.99Z"/>
  <path class="cls-27" d="M1017.08,395.43c-1.11-1.19-2.22-2.37-3.32-3.56,2.33-2.86,4.67-5.73,7-8.59.34.25.69.5,1.03.74.12-1.37.23-2.74.38-4.45,3.57,4.28,3.27,5.94-1.08,7.31-4.5,1.43-4.11,5.02-4.01,8.54Z"/>
  <path class="cls-27" d="M551.11,439.21c1.11,1.5,2.23,3,3.34,4.5-3.85,1.76-5.5,4.54-3.24,9.22-2.09.21-3.4.34-5.11.5,1.81-5.13,3.41-9.68,5.01-14.23Z"/>
  <path class="cls-3" d="M541.89,418.27c.85,1.92,1.7,3.85,2.56,5.77-2.04,2.22-4.08,4.44-6.13,6.66-.43-.19-.87-.39-1.3-.58.65-1.78,1.23-3.58,1.96-5.32.91-2.2,1.94-4.36,2.92-6.53Z"/>
  <path class="cls-25" d="M846.95,644.51c5.42.11,10.84.23,16.25.34-.02.47-.05.94-.07,1.41h-16.09c-.03-.58-.06-1.17-.09-1.75Z"/>
  <path class="cls-27" d="M533.77,392.38c-.17,1.33-.34,2.65-.51,3.98-3.79-4.11-8.26-7.78-9.63-14.73,3.85,4.08,6.99,7.41,10.14,10.75Z"/>
  <path class="cls-9" d="M1330.53,906.53c4.44-1.48,8.88-2.96,13.32-4.45-4.44,1.48-8.88,2.96-13.32,4.45Z"/>
  <path class="cls-27" d="M532.98,400.18c.49,1.62.98,3.24,1.46,4.86-1.22-.41-2.45-.81-4.37-1.45.77-.9,1.84-2.15,2.91-3.41Z"/>
  <path class="cls-4" d="M1171.04,784.17c-6.57-7.76-7.73-15.98-1.42-24.04,6.38-8.16,13.87-15.57,21.57-22.54,7.1-6.43,15.95-11.04,22.54-17.89,7.34-7.64,14.57-15.69,17.68-26.61,4.12-14.5,9.21-28.72,13.8-43.09,1.87-5.84,3.67-11.71,5.27-17.63,2.36-8.76,7.9-15.58,13.18-22.64,4.76-6.37,9.37-12.89,13.48-19.69,6-9.92,14.89-13.27,24.25-8.51,8.41,4.28,11.54,14.99,7.19,24.64-.68,1.51-1.4,3-2.11,4.5-1.83-1.58-3.48-4.1-5.54-4.48-2.11-.39-4.61,1.29-6.94,2.07.74,1.95,1.53,3.89,2.21,5.87.42,1.21,1.25,2.71.87,3.67-.84,2.12-2.31,4-3.57,5.95-8.33,12.9-18.79,24.67-21.29,40.65-.24,1.56-1.46,2.95-2.17,4.45-3.66,7.81-8.67,15.29-10.66,23.5-4.9,20.19-19.23,34.66-29.34,51.67-.74,1.24-2.1,2.11-3.15,3.17-16.12,16.09-36.31,26.04-55.84,37Z"/>
  <path class="cls-12" d="M1171.04,784.17c19.53-10.95,39.71-20.91,55.84-37,1.06-1.06,2.42-1.93,3.15-3.17,10.11-17.01,24.43-31.47,29.34-51.67,1.99-8.21,7.01-15.69,10.66-23.5.7-1.5,1.92-2.89,2.17-4.45,2.5-15.98,12.96-27.75,21.29-40.65,1.26-1.95,2.73-3.83,3.57-5.95.38-.96-.45-2.46-.87-3.67-.68-1.98-1.47-3.91-2.21-5.87,2.33-.78,4.83-2.46,6.94-2.07,2.05.38,3.71,2.9,5.54,4.48,1.32,6.5-.87,11.96-4.57,17.24-5.53,7.88-10.69,16.04-15.99,24.08-.45.69-.89,1.41-1.19,2.17-7.01,17.7-13.64,35.55-21.15,53.03-3.37,7.84-8.42,14.97-12.86,22.33-1.62,2.69-4.02,4.95-5.47,7.72-10.32,19.65-28.16,30.89-46.34,41.78-.41.25-.78.59-1.16.88-5.74,3.34-11.49,6.67-17.23,10.01-4.82,2.5-9.64,4.98-14.45,7.49-2.82,1.48-5.98,1.88-7-1.49-.53-1.76,1.03-4.98,2.65-6.37,2.68-2.29,6.18-3.63,9.34-5.37Z"/>
  <path class="cls-23" d="M737.35,763.4c.27-5.92-.94-6.85-9.65-6.9,2.18-4.79,4.56-8.9,9.29-11.19,5.68,6.08,11.88,11.77,16.83,18.39,2.8,3.75,4.08,8.93,5.07,13.67.77,3.73.18,7.78-.06,11.67-.26,4.24-2.86,5.97-6.8,4.82,2.26-3.19,1.31-5.52-1.37-8.17-2.88-2.85-5.04-6.42-7.52-9.68,3.5.2,3.07-1.65,1.65-3.54-2.36-3.12-4.95-6.06-7.44-9.08Z"/>
  <path class="cls-14" d="M904.13,737.75c9.24,10.09,18.49,20.18,27.73,30.27-1.14-.14-2.5.09-3.37-.46-11.37-7.26-19.93-16.86-24.36-29.81Z"/>
  <path class="cls-2" d="M1203.85,543.47c13.23.19,26.1,1.8,37.36,9.63-12.45-3.21-24.91-6.42-37.36-9.63Z"/>
  <path class="cls-18" d="M1180.5,789.91c5.74-3.34,11.49-6.67,17.23-10.01-3.12,7.85-10,9.23-17.23,10.01Z"/>
  <path class="cls-14" d="M903.01,735.99c.44.66.87,1.31,1.31,1.97-.44-.66-.87-1.31-1.31-1.97Z"/>
  <path class="cls-10" d="M596.42,396.28c.67,1.92,1.35,3.83,2.02,5.75.49-.09.97-.17,1.46-.26,0-2.34.2-4.7-.04-7.01-.45-4.37-1.47-8.69-1.66-13.06-.25-5.81.21-11.65.1-17.47-.18-9.41-4.16-14.44-13.35-17.32-.91-.28-1.85-.49-2.66-.71.97-2.73,1.97-5.17,2.7-7.68,1.59-5.44,6.73-5.87,10.74-6.84,17.9-4.33,35.82-8.83,53.97-11.86,16.15-2.7,32.49-4.75,49.08-3.15,7.72.74,15.59-.29,23.39-.27,13.3.04,26.37,1.74,39.22,5.38,4.25,1.2,8.85,1.57,13.3,1.6,22.48.15,44.96-.22,67.43.21,9.55.18,19.08,1.83,28.61,2.9,5.27.59,10.53,1.24,15.76,2.09,1.88.3,3.92.89,5.42,1.99,4.56,3.34,9.19,6.68,13.25,10.58,8.71,8.38,16.58,17.7,25.7,25.58,14.05,12.14,18.38,30.06,28.08,44.73,2.48,3.76,4.28,7.97,7.04,13.22-2.63-.98-3.76-1.4-4.09-1.52-3.75,3.1-6.79,7.42-10.66,8.37-5.46,1.34-2.86,8.74-9.27,8.67-.84-.42-2.5-1.25-4.16-2.08-.2.25-.4.5-.6.75.85.99,1.71,1.98,3.45,4-.7.27-1.55.49-2.29.9-4.34,2.38-8.57,4.99-13.03,7.1-1.32.62-3.29-.12-3.97-.17-2.02,1.91-3.39,3.82-5.25,4.87-7.27,4.11-14.69,7.94-22.12,11.91-.57-3.14-1.04-5.77-1.7-9.39-1.34,1.46-1.95,1.83-1.91,2.12.99,8.41.7,8.65-8.45,9.15-1.54.08-3.01,1.42-4.55,1.5-1.56.09-3.16-.66-4.74-1.04-2.43,3.97-5.13,4.13-11.92.53-2.08,6.3-7.51,3.05-11.58,3.94-4.27.94-9.03,3.27-12.09-3.35-.53,5.86-3.98,5.42-7.62,5.21-4.46-.26-8.95-.06-14.04-.06-.1-2.23-.04-4.34-.32-6.41-.29-2.1-.5-4.4-1.53-6.16-.74-1.26-2.77-1.76-4.22-2.59.32,1.35.73,2.68.93,4.05.47,3.2.83,6.42,1.23,9.64-.44.38-.87.75-1.31,1.13-4.71-2.58-9.63-4.86-14-7.93-1.41-.99-1.25-4.1-2.02-6.16-.66-1.78-1.6-3.46-2.42-5.18-.44,1.59-.93,3.17-1.3,4.78-.18.78-.15,1.61-.25,2.77-5.48-.09-9.19-1.91-9.98-8.12,1.53.41,2.9.77,4.4,1.17-.24-5.03-2.93-6.75-6.84-5.02-1.61.71-3.54.7-6.33,1.19-.45-4.37-.86-8.35-1.3-12.67q-4.6-.56-3.64-9.87c-1.38,1.73-2.28,2.84-3.18,3.96-.33-.09-.66-.18-.99-.27.42-1.81.85-3.61,1.25-5.32-1.73-.31-4.82,0-5.55-1.18-1.39-2.23-1.43-5.29-1.78-6.86-2.02-1.82-3.45-3.09-4.87-4.38-1.51-1.38-3-2.78-4.52-4.15-1.48-1.33-2.99-2.63-4.49-3.94.14-.59.29-1.17.43-1.76-1.66,1.12-3.32,2.24-5.58,3.77-5.96-4.42-12.29-9.12-18.65-13.84-1.13,1.54-1.62,2.22-2.48,3.39-.6-1.94-1.01-3.27-1.5-4.85-5.86,2.89-11.64,5.74-17.81,8.78,2.33,4.09-2.21,4.66-4.44,6.4-2.44,1.91-5.29.84-13.18-4.01.58-1.3,1.16-2.6,1.72-3.92.04-.1-.12-.28-.36-.78-1.04.34-2.13.7-3.68,1.21,1.01-2.61,1.84-4.77,2.67-6.92-.32-.24-.65-.48-.97-.72-1.53,1.24-3.07,2.48-4.97,4.02-.42-1.83-.76-3.3-1.13-4.89-1.81,1.45-3.45,2.76-5.5,4.39-1.01-2.15-1.68-3.58-3.02-6.42-.23,2.43-.21,3.55-.48,4.6-.3,1.2-.53,2.73-1.36,3.42-2.46,2.03-5.2,3.71-7.92,5.59.12.14-.45-.55-1.29-1.57-.83,2.11-1.47,3.76-2.48,6.33-1.06-2.68-1.82-4.58-2.57-6.48-.42.1-.84.19-1.27.29.47,2.24,1.19,4.47,1.32,6.74.1,1.71-.04,4.53-.98,4.99-2.27,1.12-4.52,4.71-7.78,1.25-1.02-1.08-2.72-1.53-4.63-2.53-.61,4.01,6.31,6.17,1.58,9.77-2.99,2.28-6.32,4.1-10.39,6.69-.49,1.87-1.4,5.35-2.3,8.83-.51-.06-1.03-.13-1.54-.19-.5-2.32-1-4.64-1.5-6.96l-1.68.03c-.29,5.49-.58,10.98-.87,16.48-.34.07-.67.14-1.01.21-.41-1.5-.83-3.01-1.59-5.77-1.39,2.37-2.26,3.84-3.41,5.8-1.55-1.23-2.94-2.56-4.55-3.53-1.16-.7-2.61-.9-3.93-1.32-.15,1.44-.29,2.87-.46,4.51q-2.66.46-7.62-7.37c-1.02,3.11-1.76,5.37-2.62,8-4.76-1.93-11.44-1.55-11.26-10.55l-1.27,1.04v5.41c-3.06-2.28-5.34-3.97-7.84-5.83-5.77,2.5-8.76,1.79-11.49-4.41-2.62-5.96-4.69-12.23-6.22-18.56-.71-2.94,1.33-5.42,5.01-5.33,1.05,1.48,2.1,2.96,3.54,4.98,1.14-2.94,1.4-5.82,2.94-6.98,1.79-1.34,4.71-1.17,6.99-1.63,1.34,1.71,2.56,3.26,3.77,4.81.37-.18.74-.36,1.12-.54-.25-1.63-.51-3.27-.95-6.1h9.79c-.24-.88-.51-1.9-.88-3.3,2.82-.96,5.74-1.96,8.87-3.02.19-1.13.42-2.52.65-3.91.34-.02.68-.04,1.03-.06ZM867.57,439.45c.38-6.24,7.3-5.07,10.48-8.75,1.73,2.67,3.08,4.75,4.44,6.83.49-.27.99-.54,1.48-.81-.74-2.61-1.47-5.21-2.22-7.85,3.88-2.71,7.49-5.62,12.76-1.8.07-.56.14-1.12.21-1.68-1.08-1.25-2.16-2.5-3.1-3.58,2.9-3.22,5.77-6.4,8.64-9.58,1.45,1.11,2.67,2.04,3.88,2.97.33-.2.65-.4.98-.59-.6-1.7-1.2-3.4-1.88-5.33,1.2-1.29,2.51-2.71,3.86-4.17,2.45,2,4.64,3.77,6.82,5.55l1.2-1.03c-.65-1.12-1.02-2.66-1.98-3.29-5.1-3.35-2.98-6.64.07-9.67,1.4-1.39,3.45-2.11,4.36-2.64,1.27-6.62,2.44-12.7,3.7-19.25-.4.07.1.09.49-.1,1.6-.77,3.16-1.61,4.74-2.43-1.39-1.17-2.7-3.23-4.17-3.35-3.83-.33-7.8-.18-11.6.45-5.71.95-11.32,2.52-16.99,3.74-9.05,1.96-18.12,3.8-27.16,5.79-3.23.71-6.37,2.15-9.62,2.45-12.56,1.14-25.15,1.94-37.72,2.88-4.45.33-8.81,1.18-10.98,5.61-2.18,4.44-5.65,9.11.18,13.61.51.4.44,1.54.66,2.33,1.14,4.14,2.29,8.27,3.41,12.4,1.41,5.2,5.6,10.4-.05,15.63-.37.35-.05,1.45-.05,2.2.52.42,1.04.85,1.56,1.27.84-2.18,1.68-4.36,2.13-5.53,8.49,3.09,8.59,9.96,10.68,15.54.47-.14.95-.28,1.42-.42.09-1.79.17-3.58.21-4.48,5.97,0,11.71-.11,17.45.04,3.41.09,6.82.58,9.54.82,1.75-1.77,3.28-4.27,5.47-5.2,1.56-.66,4.02.78,6.7,1.43Z"/>
  <path class="cls-11" d="M1127.66,635.03c-8.6,15.51-16.95,31.17-25.96,46.44-2.62,4.43-6.61,8.56-10.92,11.36-11.11,7.22-22.79,13.56-34.18,20.38-7.42,4.44-14.86,8.86-22.01,13.71-9.72,6.59-19.28,13.44-28.65,20.51-2.41,1.82-3.67,5.08-5.81,7.35-2.89,3.07-5.7,6.63-9.3,8.55-8.49,4.53-17.3,8.54-26.27,12.04-2.46.96-6.6.31-8.79-1.26-7.67-5.5-15.03-11.5-22.12-17.74-5.21-4.58-9.82-9.84-14.7-14.8-.37-.52-.75-1.04-1.12-1.56,0,0,.05.2.05.2-.8-1.29-1.59-2.58-2.39-3.86l.42-.07s-.42.08-.41.08c-.52-1.95-.5-4.36-1.67-5.79-10.58-12.9-20.73-26.26-32.32-38.2-9.19-9.47-20.26-17.12-30.44-25.64-4.1-3.44-8.05-7.06-12.06-10.6,9.13-.11,18.25-.24,27.38-.33.65,0,1.43-.05,1.95.26,6.25,3.68,12.76,7.01,18.64,11.21,15.56,11.14,32.27,19.52,51.3,22.63,3.58.58,7.28.38,10.93.47,3.41.09,6.56-.28,9.27,3.2.94,1.2,5.75.1,8.36-1,1.44-.6,3.17-3.92,2.65-5.02-.87-1.84-3.38-2.94-5.3-4.22-.64-.43-1.55-.44-2.34-.64.32-9.02-.94-10.17-9.96-10.66-4.07-.22-8.23-.91-12.12-2.13-14.67-4.61-29.21-9.66-43.91-14.19-2.38-.73-5.32.34-8,.57-1.67-.73-3.28-1.68-5.02-2.16-4.01-1.1-5.65-3.86-5.75-7.73-.11-4.3-2.41-7-6.36-7.88-7.7-1.71-15.49-3.04-23.54-4.59.56-3.06,2.76-6.04,6.71-6.46,7.58-.81,15.26-1.54,22.83-1.14,3.11.16,6.04,3.37,9.09,5.12,18.74,10.75,38.65,17.24,60.52,17.24,8.62,0,17.6-.43,25.78,1.74,12.58,3.34,24.57,8.89,36.91,13.23,4.3,1.51,8.86,3.03,13.34,3.14,12.28.3,23.75-2.79,34.19-9.67,5.36-3.54,11.48-5.92,16.83-9.46,5.52-3.66,8.67-8.94,8.34-16.02-.39-8.38-.6-16.78-.37-25.16.05-1.95,1.73-4.38,3.37-5.68,10.97-8.66,15.54-20.26,14.86-33.73-.49-9.7-1.91-19.42-3.8-28.96-2.81-14.17-6.44-28.17-9.62-42.27-.77-3.42-1.15-6.93-1.71-10.4,4.11-2.08,8.21-4.16,12.32-6.23,1.03.24,2.07.47,3.1.71-3.21,8.59-4.24,17.29-1.58,26.25.99,3.32,2.01,6.68,2.52,10.09,1.36,9.1,2.45,18.24,3.64,27.37,1.1,8.47,2.38,16.92,3.22,25.41.84,8.5-1.18,16.34-5.81,23.66-4.16,6.59-1.85,10.73,5.83,11.36-.95,2.24-1.9,4.47-2.86,6.71-1.73,4.04-4.48,7.95-5.03,12.15-2.33,17.74-10.59,32.3-22.63,45.04-.89.95-2.07,1.72-3.24,2.3-12.47,6.14-24.07,14.22-38.08,16.9-1.4.27-3.04.95-3.88,2-.76.94-1.03,2.78-.65,3.93.22.65,2.31,1.21,3.37.96,16.23-3.76,30.72-11.59,44.63-20.3,4.71-2.95,8.46-8.03,11.59-12.83,7.46-11.45,13.3-23.49,15.21-37.52.88-6.48,4.88-13.14,9.11-18.41,5.69-7.1,9.32-14.11,8.89-23.47-.34-7.42.1-15.02,1.36-22.34,1.5-8.73-3.2-16.12-3.85-24.29-.45-5.58-.61-11.18-1-16.77-.12-1.78-.58-3.54-.96-5.82,5.47.24,10.85.48,16.24.71-1.25,2.84-3.45,5.63-3.61,8.53-.84,15.8-6,30.88-2.27,47.6,4.07,18.24-1.53,36.66-9.93,53.7-1.38,2.79-1.95,6.84-1.02,9.69,1.18,3.6,5.1,3.56,8.55,2.47Z"/>
  <path class="cls-16" d="M966.7,594.13c1.32,0,2.64,0,3.96-.01-.15-1.25.16-3.05-.55-3.65-2.32-1.97-1.46-4.01-1.4-6.5.18-7.47-2.09-13.09-9.1-11.43-6.72,1.59-9.52-2.61-12.81-6.68q4.71-5.96,1.61-10.22c-6.81,5.73-13.93,11.09-23.44,4.48,1.1-1.6,2.15-3.13,3.21-4.66-.37-.44-.74-.89-1.12-1.33-1.88,1.47-3.75,2.95-6.18,4.86-.8-.51-2.09-1.33-3.45-2.19.96-1.55,1.69-2.74,3.28-5.32-3.08,1.08-4.77,1.67-7.2,2.53-1.64-1.88-3.56-4.09-5.87-6.73-.65,1.23-1.35,2.54-2.4,4.54-2.65-1.41-5.33-2.82-8.25-4.37.83-1.23,1.4-2.08,2.36-3.5-1.56-.22-2.64-.63-3.61-.46-6.09,1.09-9.28-1.34-9.62-7.55-.11-1.99-.47-4.11.03-5.96,1.2-4.47,1.16-7.84-5.47-7.55l.3-1.29c2.33-1.3,4.66-2.61,7.4-4.14-.02-.08-.2-.82-.45-1.52-.21-.57-.51-1.09-.14-2.42,1.62,1.11,3.12,2.74,4.9,3.14,1.37.31,3.09-.92,4.66-1.47-.14-.5-.28-1-.42-1.5-1.59-.61-3.18-1.23-6.12-2.37,3.04-3.59,5.14-7.18,8.21-9.46,6.46-4.8,4.43,5.36,8.87,5.23,2.51-3.63.39-6.5-2.22-9.33,3.47-4.43,7.3-3.79,12.63-.14-.86-3.16-1.31-4.79-2.05-7.47,2.58-.98,6.29-3.75,8.57-2.86,2.17.85,2.86,5.52,4.19,8.51.65-.14,1.3-.28,1.95-.41-.42-3.47-.84-6.94-1.29-10.57,2.47-1.83,5.28-3.91,8.37-6.2.75,1.61,1.28,2.77,1.64,3.54,1.32-1.88,2.19-4.21,3.85-5.12,1.24-.68,3.49.45,5.83.88-.08-1.06-.24-3.2-.39-5.35.5,0,1,0,1.49-.01.36,1.52.72,3.04,1.41,5.96,1-4.41,1.71-7.55,2.63-11.65,2.28,2.46,3.4,3.67,5.49,5.94-1.09-4.14-1.78-6.79-2.69-10.23,3.47.6,7.06,4.14,6.77-2.02,2.03.74,3.58,1.3,5.06,1.84-.63-2.26-1.14-4.12-1.66-5.98,1.99.12,3.97.24,5.82.35.21-1.58.51-3.8.8-6.01.44-.23.88-.45,1.32-.68,1.54,1.71,3.36,3.24,4.58,5.16,6.85,10.78,13.44,21.72,20.36,32.45,4.23,6.55,8.79,12.91,13.39,19.21,6.15,8.43,12.61,16.63,18.71,25.1,4.94,6.86,9.09,14.35,14.45,20.85,4.42,5.35,8.13,10.84,10.01,17.49,1.13,3.99,1.68,8.18,3.07,12.07,2.49,6.97,4.38,14.49,8.45,20.47,4.72,6.94,5.68,13.96,5.13,21.7-.25,3.55-.36,7.17-1.21,10.59-1.32,5.29-6.06,7.64-10.35,9.92-6.45,3.44-13.26,6.19-19.76,9.54-7.12,3.67-14.82,2.98-22.38,3.53-.68-.87-1.17-2.13-2.05-2.53-6.79-3.09-13.65-6.01-20.49-8.98-.42-2.07-.66-4.21-1.31-6.2-.39-1.19-1.44-2.17-2.2-3.24-.63,1.03-1.63,2-1.8,3.1-.3,1.93-.08,3.94-.08,5.92-6.38-.42-10.17-6-7.9-11.34.53-1.25.86-2.6,1.28-3.9-1.51-.19-3.01-.4-4.52-.55-.65-.07-1.32-.01-1.85-.01-1.56-3.07-3.1-6.07-4.63-9.08.14-.35.29-.71.43-1.06,1.49.87,2.93,1.83,4.47,2.58,1.64.8,3.38,1.41,5.08,2.1-.51-1.46-.89-3-1.59-4.37-.59-1.16-1.55-2.13-2.17-2.94,1-1.6,1.89-3.02,2.77-4.44-1.44-.58-2.85-1.29-4.34-1.7-2.51-.69-5.08-1.2-8.5-1.98,1.4-.84,2.12-1.11,2.62-1.61,1.17-1.17,2.22-2.44,3.33-3.67-1.58-.34-3.16-1.01-4.73-.97-3.15.08-6.27-3.75-6.73-8.66.58,0,1.17,0,1.75,0ZM1009.81,636.82c.47.11.96.19,1.42.33,1.43.46,2.84.99,4.3,1.33.09.02.91-1.71.7-1.92-1.2-1.18-2.55-2.25-3.99-3.12-.62-.37-1.58-.17-2.39-.23-1.41-2.21-2.74-4.49-4.29-6.6-.49-.67-1.71-1.38-2.34-1.2-.64.18-1.28,1.42-1.38,2.25-.4,3.57,3.88,8.38,7.97,9.14ZM1022.1,579.26c-.41-1.1-.43-1.55-.65-1.68-4.18-2.53-8.35-5.07-12.61-7.45-.41-.23-1.67.39-2.02.94-.31.49-.17,1.85.23,2.12,3.83,2.51,7.7,4.99,11.72,7.17.7.38,2.19-.69,3.32-1.09ZM993.89,577.09c3.3-1.68,7.46-2.91,5.06-7.28-.63-1.15-5.29-1.53-6.85-.45-4.59,3.14,2.36,4.61,1.79,7.73ZM991.82,599.52c1.41-.42,2.93-.48,3.79-1.26.69-.63.59-2.14.84-3.27-3.09-.07-6.18-.13-9.28-.2.2,1.1.02,2.65.68,3.2,1.03.86,2.63,1.05,3.97,1.52ZM1009.18,592.37c-2.28-2.73-4.13-4.99-6.12-7.12-.09-.1-1.51,1.05-2.32,1.62,1.77,2.38,3.49,4.8,5.41,7.06.14.17,1.68-.86,3.02-1.56ZM987.92,566.85c1.96-1.37,3.33-2.31,4.69-3.26-1.55-.81-3.07-2.17-4.67-2.27-1.45-.09-2.99,1.18-4.5,1.85,1.35,1.11,2.71,2.22,4.48,3.67ZM1014.65,617.91c-1.37-1.7-2.44-3.05-3.52-4.39-.69,1.31-2.03,2.69-1.89,3.9.17,1.43,1.63,2.7,2.53,4.04.8-.99,1.61-1.99,2.87-3.55ZM1042.75,579.03c-2.02,3.96,1.14,4.88,3.13,6.15.62.39,1.9-.26,2.88-.43-1.1-1.46-2.1-3.02-3.34-4.35-.59-.63-1.62-.85-2.67-1.36ZM980.35,597.22c-2.36-1.63-4.11-2.97-6.01-4.03-.29-.16-1.29.98-1.97,1.52,1.65,1.42,3.23,2.93,5.01,4.16.31.21,1.45-.78,2.97-1.65Z"/>
  <path class="cls-1" d="M612.12,265.29c17.08-17.27,34.76-33.93,54.93-47.51,6.27-4.22,14.05-6.74,21.5-8.56,12.24-3,24.78-4.73,37.17-7.11,21.25-4.08,42.79-3.77,64.17-2.72,6.07.3,11.78-1.59,17.79-.58,6.21,1.05,12.59,1.1,18.87,1.78,5.1.55,10.18,1.39,15.65,2.16-1.73,5.39,1.49,6.28,5.17,5.3,15.2-4.05,27.23,3.41,38.65,11.21,9.66,6.6,18.48,14.55,27.15,22.46,11.45,10.45,20.53,22.93,28.41,37.05-2.47-.8-4.95-1.58-7.42-2.4-18.31-6.14-36.89-10.93-56.19-12.9-13.88-1.41-27.62-4.44-41.52-5.36-23.71-1.57-47.52-3.26-71.24-2.64-24.03.63-48.03,3.66-71.96,6.3-10.53,1.16-20.82,4.34-31.33,5.93-19.12,2.9-38.32,5.3-57.79,7.95.9-1.14,1.78-2.26,2.65-3.38,5.46-1.17,6.73-2.83,5.34-6.99Z"/>
  <path class="cls-19" d="M680.49,270.62c7.91-1.37,15.77-3.29,23.74-4,23.5-2.11,47.03-5.07,70.57-5.25,31.74-.25,63.48,1.93,94.9,7.34,9.33,1.61,19.02,1.53,28.13,3.86,18.17,4.63,36.07,10.37,54.05,15.74,1.82.54,3.44,1.71,5.58,2.81-2.04,1.83-4.03,2.98-5.06,4.71-1.08,1.82-1.42,4.16-1.71,6.32-.08.58,1.13,1.84,1.8,1.88.66.04,1.59-.96,2.04-1.72,1.59-2.71,3.03-5.51,4.85-8.86,8.89,12.56,10.89,25.77,9.99,40.13-3.15.36-6.81,1.33-10.37,1.04-4.08-.33-8.07-1.78-12.11-2.71-15.33-3.55-30.68-7.03-45.98-10.67-3.85-.91-7.53-2.57-11.39-3.37-2.19-.45-4.61.1-6.92.26-1.7.11-3.47.72-5.08.41-13.69-2.64-27.41-4.52-41.43-4.3-19.31.31-38.63.32-57.93-.07-6.36-.13-12.67-2.01-19.03-2.91-9.98-1.42-19.96-3.51-29.99-3.87-17.96-.63-35.99-.83-53.92.05-12.19.6-24.36,2.92-36.39,5.23-15.47,2.96-30.8,6.66-46.17,10.1-1.28.29-2.46.99-3.69,1.49-3.88,1.56-7.62,2.27-11.06-1.13-3.22-3.18-4.77-6.36-2.8-11.1,1.7-4.09,2.04-8.72,3.46-12.95,1.43-4.28,4.28-7.38,9.01-8.45,1.9-.43,3.8-1.31,5.44-2.38,9.36-6.1,19.89-7.98,30.74-9.05,5.92-.59,11.78-1.76,16.62-2.51,1.45,1.99,2.54,3.39,3.5,4.86.63.96,1.49,2.02,1.55,3.07.2,3.82.02,7.66.16,11.48.13,3.66,1.71,6.83,5.52,7.32,5.61.72,11.34,1.12,16.97.85,6.6-.32,13.15-1.89,19.75-2.21,8.3-.41,11.53-3.1,10.74-11.58-.41-4.34-1.9-8.95-4.22-12.6-1.5-2.36-5.3-3.4-8.23-4.65-1.66-.71-3.66-.65-5.5-.94l-.1-1.66ZM878.61,309.83c4.32,0,8.64,0,12.96,0,4.04-.01,5.69-1.85,4.97-6-1.25-7.31-2.04-14.72-3.56-21.97-.36-1.71-2.61-3.77-4.39-4.3-4.57-1.36-9.33-2.39-14.07-2.73-6.97-.5-14.36-2.41-20.44,3.08-1.35,1.22-2.25,2.94-3.35,4.42,1.58.89,3.1,2.36,4.76,2.54,3.54.37,5.05,1.77,4.58,5.4-.5,3.78-.73,7.59-1.1,11.38-.55,5.69,1.4,8,7.18,8.17,4.15.12,8.31.02,12.46.01ZM784.16,297.1c6.88,1.43,11.86-2.32,14.86-9.47.38-.91,1.29-1.71,1.38-2.62.28-2.93,1.52-6.91.12-8.59-2.02-2.43-6.05-4.47-9.2-4.43-7.23.07-14.45,1.43-21.65,2.45-1.13.16-2.49,1.03-3.05,1.98-.35.6.5,2,.95,2.97,1.15,2.48,3,4.8,3.47,7.39,1.83,10.13,1.85,10.32,13.11,10.33ZM601.82,287.29c-.83.33-2.57.64-3.82,1.59-3.32,2.51-6.37,5-11.01,4.95-2.64-.03-2.93,2.3-2.26,4.88,1.52,5.76,5.23,9.75,9.58,13.45,3.15,2.67,6.09,2.53,7.79-1,2.71-5.64,6.54-8.42,12.95-7.99,1.08.07,3.43-2.64,3.31-3.89-.31-3.3-12.32-11.96-16.55-11.98Z"/>
  <path class="cls-1" d="M911.37,332.96c13.28,3.17,26.44,7.09,39.88,9.25,9.79,1.57,13.39,7.05,14.91,15.66.57,3.21,1.87,6.29,2.84,9.43-1.43,3.37-2.85,6.73-4.28,10.1.58.25,1.17.49,1.75.74,1.48-3.16,2.96-6.32,4.44-9.47,7.29,5.79,9.83,14.22,13.28,22.76.47-2.27.93-4.54,1.4-6.81.27-.28.54-.57.81-.85,3.01,1.92,6.14,3.69,8.97,5.85.78.59.67,2.33.97,3.55-3.77,1.56-7.55,3.12-11.33,4.68.23.56.45,1.12.68,1.68,4.43-1.47,8.87-2.94,13.3-4.42,1.31.28,2.62.55,3.95.83q2.32,8.67,6.77,5.04c2.18,2.7,4.58,5.27,6.45,8.17.78,1.21.92,3.27.51,4.71-.9,3.18-2.53,6.15-3.42,9.33-.29,1.04.81,2.47,1.28,3.71.9-.81,2.03-1.48,2.64-2.47,1.5-2.43,2.76-5.02,4.12-7.54.63-.1,1.25-.21,1.88-.31,2.99,4.55,5.98,9.11,8.96,13.66-5.81,6.04-5.71,11.25,1.17,13.6-4.55-4.91-2.53-8.83.57-12.61,3.41,3.24,4.03,7.35,3.97,11.81-.01,1.29,1.07,2.59,1.66,3.89,1.14-.54,2.27-1.07,3.37-1.59,3.32,5.38,6.86,11.11,10.06,16.29-.92,2.51-1.67,4.59-2.43,6.66,2.05-.43,4.09-.86,6.25-1.31,10.73,14.59,22.69,29.07,25.9,48.24-.8,2.74-1.77,5.45-2.32,8.24-.26,1.3.02,2.89.55,4.14,2.6,6.19,5.3,12.34,8.1,18.44.68,1.49,1.88,2.74,2.83,4.1.57,6.27,1.84,12.58,1.52,18.8-.42,8.12-1.34,16.43-8.11,22.47-2.72,2.42-5.24,5.08-8.71,8.48-2.4-5.45-5.12-10.49-6.88-15.85-3.27-9.91-5.67-20.12-9.12-29.96-1.06-3.01-4.59-5.07-6.56-7.87-7.19-10.18-14.08-20.57-21.32-30.71-13.01-18.23-26.61-36.05-39.08-54.63-4.79-7.14-7.18-15.9-10.65-23.93-.53-1.22-.76-2.63-1.51-3.67-9.07-12.52-13.94-27.32-21.92-40.44-3.78-6.21-5.94-13.44-9.95-19.46-3.35-5.02-8.41-8.88-12.55-13.41-4.82-5.27-9.28-10.89-14.24-16.03-3.65-3.79-7.85-7.05-11.8-10.55.16-.15.31-.3.46-.44ZM1056.14,471.39c-.52-.04-1.03-.08-1.55-.12-1.19,6.49-2.39,12.98-3.58,19.46.6.11,1.19.21,1.79.32,1.59-6.47,4.24-12.76,3.34-19.67Z"/>
  <path class="cls-22" d="M668.11,476.99c-1.27.32-2.66.66-5.36,1.34-.41-5.32-1.22-10.49-1.02-15.62.09-2.12,2.29-4.19,3.63-6.22,1.26-1.89,2.65-3.7,4.25-5.93.53.31,1.57.91,1.65.96,1.95-2.62,3.8-5.1,5.65-7.58.42.24.84.49,1.27.73-.13,1.71-.27,3.42-.4,5.13.28.13.57.25.85.38,1.2-2.15,2.23-4.42,3.67-6.39.79-1.07,2.33-2.36,3.45-2.29,6.53.4,13.05,1.03,19.52,1.96,1.08.16,1.9,2.15,2.82,3.26,2.91-4.55,4.73-4.54,7.54.14,2.12-3.64,5.49-4.7,6.35-1.99.6,1.89.12,4.12.12,6.2.45.04.89.08,1.34.12.29-1.26.59-2.52.95-4.08,6.85,3.16,13.59,6.02,20.04,9.41,1.6.84,2.3,3.4,3,5.26,1.59,1.82,3.18,3.64,4.77,5.46-.83.64-1.66,1.28-2.6,2,.91,1.59,2.02,3.52,3.54,6.16-1.92-.35-2.71-.5-3.37-.62-.24,2.31-.45,4.33-.72,6.91-1.78-.95-2.89-1.54-4.75-2.52.68,1.87,1.13,3.08,1.98,5.41-3.55.39-6.85.57-10.06,1.21-1.41.28-2.82,1.32-3.88,2.37-1.38,1.36-2.42,3.07-4.15,5.34-1.7-3.13-2.69-4.93-4.3-7.89-.48,3.21-.78,5.23-1.29,8.69-3.47-2.17-6.3-3.94-9.05-5.66-.08,2.69-2.25,3.7-5.24,1.87-7.83-4.8-15.63-5.44-23.68-.66-.49.29-1.2.22-2.38.4.97-2.06,1.7-3.61,2.43-5.16-.26-.24-.52-.49-.79-.73-.99,1.19-1.83,2.56-3.01,3.52-1.27,1.04-2.8,2.17-4.3,2.31-.66.06-1.54-2.22-2.43-3.6-4.26,2.59-6.01-1.69-8.05-4.27-.57-.71,1.15-3.24,1.98-5.34ZM717.95,460.54c-1.86-1.52-2.81-2.97-3.76-2.96-8.12.03-16.69-2.44-23.89,3.39-1.36,1.1-1.85,3.26-2.74,4.93,2.04.05,4.15.45,6.11.09,3.47-.64,6.81-2.03,10.29-2.56,2.91-.44,5.97.14,8.91-.22,1.49-.18,2.84-1.44,5.07-2.66Z"/>
  <path class="cls-23" d="M1107.74,604.08c-7.68-.63-10-4.77-5.83-11.36,4.63-7.32,6.65-15.17,5.81-23.66-.84-8.49-2.12-16.95-3.22-25.41-1.19-9.13-2.28-18.27-3.64-27.37-.51-3.41-1.54-6.77-2.52-10.09-2.66-8.96-1.62-17.66,1.58-26.25,3.62,1.46,7.24,2.92,10.86,4.38-1.55,7.27-2.31,14.54.01,21.8-.28,1.21-1.2,3.12-.75,3.53,5.33,4.87,4.32,11.64,5.45,17.69,2.64,14.23,4.8,28.5,3.25,43.09-.61,5.77.34,11.88-1.18,17.34-1.4,5.02-5.16,9.38-7.92,14.01-.51.85-1.25,1.55-1.89,2.31Z"/>
  <path class="cls-20" d="M1127.66,635.03c-3.45,1.09-7.37,1.13-8.55-2.47-.93-2.85-.36-6.9,1.02-9.69,8.4-17.05,14-35.46,9.93-53.7-3.73-16.73,1.43-31.8,2.27-47.6.15-2.9,2.35-5.69,3.61-8.53,1.95.03,3.9.06,5.85.09.64.38,1.27.76,1.91,1.13,0,0,.03.02.03.02.34,2.11,1.2,4.29.92,6.32-1.36,10.15-3.12,20.25-4.49,30.41-.39,2.91-.61,6.15.23,8.88,3.96,12.75,3.24,25.5.56,38.26-1.43,6.79-3.31,13.48-4.99,20.21-2.77,5.56-5.53,11.12-8.3,16.68Z"/>
  <path class="cls-2" d="M839.01,656.13c4.02,3.54,7.96,7.16,12.06,10.6,10.18,8.53,21.25,16.17,30.44,25.64,11.59,11.94,21.73,25.3,32.32,38.2,1.17,1.43,1.14,3.84,1.67,5.79-13.51-19.49-33.31-31.67-52.22-44.86-3.51-2.45-7.51-4.21-11.28-6.29-7.84-6.75-15.67-13.5-23.51-20.25-.23-2.61-.46-5.21-.78-8.83h11.31Z"/>
  <path class="cls-6" d="M1135.96,618.35c1.68-6.73,3.56-13.43,4.99-20.21,2.68-12.76,3.41-25.51-.56-38.26-.85-2.73-.63-5.96-.23-8.88,1.37-10.15,3.13-20.25,4.49-30.41.27-2.03-.59-4.21-.92-6.32,8.91,6.31,8.31,15.81,6.25,24.29-2.09,8.59-1.17,16.76-.48,25.1.22,2.66,1.52,5.51,3.11,7.71,4.44,6.17,5.38,12.29,1.17,18.89-5.96,9.35-11.88,18.72-17.82,28.08Z"/>
  <path class="cls-2" d="M887.88,656.29c2.68-.24,5.62-1.31,8-.57,14.7,4.53,29.23,9.58,43.91,14.19,3.89,1.22,8.04,1.9,12.12,2.13,9.02.5,10.28,1.65,9.96,10.66-7.41-.6-14.86-.89-22.22-1.86-12.13-1.61-23.28-6.2-33.66-12.56-6.16-3.78-12.07-7.97-18.1-11.98Z"/>
  <path class="cls-8" d="M576.44,350.06c2.49,4.21,4.7,7.17,6.08,10.47,2.38,5.68,6.28,10.69,6.15,17.49-.1,5.19-7.01,16.13-12.12,17.07-6.44,1.17-12.95,3.87-19.33.07-2.21-1.32-5.83-3.65-5.6-4.97.54-3.12,2.59-6.3,4.86-8.65,1.06-1.09,4.43-1.08,6.1-.24,6.53,3.26,12.34.73,14.65-6.32,1.79-5.46.46-10.37-2.34-14.68-2.21-3.41-1.24-5.72,1.55-10.22Z"/>
  <path class="cls-21" d="M684.17,296.58c-9.05-1.16-17.59,5.37-27.04,1.84.68-5.2,4.85-5.63,7.87-7.34,3.04-1.73,5.66-3.01,9.26-.04,2.64,2.18,6.73,2.59,10.18,3.79-.09.58-.18,1.16-.27,1.75Z"/>
  <path class="cls-6" d="M828.48,664.96c7.84,6.75,15.67,13.5,23.51,20.25-3.71-1.31-7.35-2.87-11.14-3.89-8.47-2.27-11.52-8.44-12.37-16.36Z"/>
  <path class="cls-25" d="M1091.82,550.16c-.96-1.36-2.15-2.61-2.83-4.1-2.8-6.1-5.5-12.25-8.1-18.44-.53-1.25-.8-2.84-.55-4.14.55-2.79,1.52-5.5,2.32-8.24,2.88,9.19,5.86,18.36,8.56,27.6.67,2.3.43,4.88.6,7.33Z"/>
  <path class="cls-21" d="M659.28,276.68c7.66-.84,14.84-2.96,21.56,1.85-6.77,5.75-16.63,5.09-21.56-1.85Z"/>
  <path class="cls-21" d="M687.15,279.02c3.71,1.45,6.38,7.34,5.48,14.46-4.28-2.25-8.42-4.43-12.54-6.59,1.97-2.2,4.25-4.73,7.06-7.87Z"/>
  <path class="cls-21" d="M659.8,286.93c-2.33,2.12-5.4,4.93-8.01,7.3v-16.55c3.24,3.74,5.77,6.65,8.01,9.25Z"/>
  <path class="cls-19" d="M997.32,646.15c6.84,2.97,13.7,5.89,20.49,8.98.89.4,1.38,1.67,2.05,2.53-6.91-2.58-13.87-5.05-20.69-7.85-.96-.39-1.25-2.4-1.86-3.66Z"/>
  <path class="cls-25" d="M1110.79,506.11c-2.32-7.27-1.56-14.53-.01-21.8.91,1.32,2.61,2.64,2.59,3.95-.06,5.7-.59,11.4-1.06,17.09-.02.29-.99.51-1.52.76Z"/>
  <path class="cls-22" d="M956.12,577.87c7.26-1.36,8.09-.5,7.58,7.55-7.36-.4-7.68-.7-7.58-7.55Z"/>
  <path class="cls-25" d="M737.35,763.4c2.49,3.02,5.08,5.96,7.44,9.08,1.43,1.89,1.85,3.74-1.65,3.54-2.81-3.21-5.62-6.42-8.68-9.92,1.07-1,1.98-1.84,2.89-2.69Z"/>
  <path class="cls-8" d="M1096.81,479.22c-4.11,2.08-8.21,4.16-12.32,6.23-.9-2.02-1.8-4.05-2.77-6.23h15.08Z"/>
  <path class="cls-14" d="M782.45,572.3c-1.79-3.09-3.59-6.18-5.86-10.09,7.23,1.78,7.84,2.75,5.86,10.09Z"/>
  <path class="cls-3" d="M1033.88,431.24c-3.1,3.79-5.12,7.7-.57,12.61-6.88-2.35-6.98-7.56-1.17-13.6.58.33,1.16.66,1.74.99Z"/>
  <path class="cls-14" d="M574.17,364.99c-2.03,1.49-3.3,2.97-4.79,3.25-.67.13-2.66-2.28-2.5-3.28.21-1.29,1.86-3.04,3.11-3.25.98-.16,2.3,1.72,4.17,3.27Z"/>
  <path class="cls-3" d="M999,395.1c-4.43,1.47-8.87,2.94-13.3,4.42-.23-.56-.45-1.12-.68-1.68,3.78-1.56,7.55-3.12,11.33-4.68.88.65,1.77,1.3,2.66,1.94Z"/>
  <path class="cls-3" d="M970.91,368.66c-1.48,3.16-2.96,6.32-4.44,9.47-.58-.25-1.17-.49-1.75-.74,1.43-3.37,2.85-6.73,4.28-10.1.64.45,1.27.91,1.91,1.36Z"/>
  <path class="cls-22" d="M966.7,594.13c-.58,0-1.17,0-1.75,0-1.11.22-2.23.44-3.61.72-.46-1.29-.92-2.62-1.39-3.94.3-.35.61-.7.91-1.05,1.94,1.43,3.89,2.85,5.83,4.28Z"/>
  <path class="cls-25" d="M612.12,265.29c1.39,4.15.12,5.82-5.34,6.99,1.78-2.33,3.56-4.66,5.34-6.99Z"/>
  <path class="cls-2" d="M915.49,736.35c.8,1.29,1.59,2.58,2.39,3.86-.8-1.29-1.59-2.58-2.39-3.86Z"/>
  <path class="cls-6" d="M1143.7,514.26c-.64-.38-1.27-.76-1.91-1.13.64.38,1.27.76,1.91,1.13Z"/>
  <path class="cls-28" d="M609.35,512.15c-.4.66-.79,1.32-1.19,1.99.4-.66.79-1.32,1.19-1.99Z"/>
  <path class="cls-1" d="M910.91,333.4c-.2-.24-.39-.47-.59-.71.35.09.69.18,1.05.27-.15.15-.3.29-.46.44Z"/>
  <path class="cls-1" d="M985.59,384.61c-.1-.37-.2-.73-.3-1.1.37.08.74.17,1.11.25-.27.28-.54.57-.81.85Z"/>
  <path class="cls-2" d="M917.83,740.02c.37.52.75,1.04,1.12,1.56-.37-.52-.75-1.04-1.12-1.56Z"/>
  <path class="cls-15" d="M867.57,439.45c-2.68-.65-5.13-2.1-6.7-1.43-2.19.93-3.72,3.43-5.47,5.2-2.72-.25-6.12-.74-9.54-.82-5.74-.15-11.48-.04-17.45-.04-.04.9-.13,2.69-.21,4.48-.47.14-.95.28-1.42.42-2.09-5.57-2.18-12.45-10.68-15.54-.45,1.17-1.29,3.35-2.13,5.53-.52-.42-1.04-.85-1.56-1.27,0-.75-.33-1.86.05-2.2,5.66-5.23,1.47-10.43.05-15.63-1.12-4.14-2.28-8.27-3.41-12.4-.22-.79-.15-1.93-.66-2.33-5.82-4.49-2.35-9.17-.18-13.61,2.18-4.44,6.54-5.28,10.98-5.61,12.58-.94,25.16-1.74,37.72-2.88,3.25-.29,6.39-1.74,9.62-2.45,9.04-1.98,18.11-3.83,27.16-5.79,5.67-1.23,11.27-2.79,16.99-3.74,3.8-.63,7.77-.78,11.6-.45,1.48.13,2.79,2.18,4.17,3.35-1.58.82-3.14,1.65-4.74,2.43-.39.19-.89.17-.49.1-1.26,6.55-2.43,12.63-3.7,19.25-.9.53-2.96,1.25-4.36,2.64-3.05,3.03-5.17,6.32-.07,9.67.96.63,1.34,2.17,1.98,3.29l-1.2,1.03c-2.18-1.77-4.37-3.55-6.82-5.55-1.36,1.47-2.67,2.88-3.86,4.17.68,1.94,1.28,3.63,1.88,5.33-.33.2-.65.4-.98.59-1.22-.93-2.43-1.86-3.88-2.97-2.87,3.19-5.74,6.37-8.64,9.58.94,1.08,2.02,2.33,3.1,3.58-.07.56-.14,1.12-.21,1.68-5.27-3.82-8.88-.91-12.76,1.8.74,2.64,1.48,5.24,2.22,7.85-.49.27-.99.54-1.48.81-1.35-2.08-2.7-4.17-4.44-6.83-3.18,3.68-10.1,2.51-10.48,8.75ZM876,412.18c-10.39,4.61-13.15,3.08-17.42-10.09-1.28-3.95.95-6.18,3.26-8.62,1.16-1.23,2.06-2.71,3.76-4.99-11.13,3.89-21.56,4.26-31.04,8.32-2.28.97-3.06,1.78-3.78,4.18-1.7,5.71.11,10.24,2.4,15.39,3.08,6.93,5.43,9.56,12.97,8.77,11-1.15,21.48-3.96,29.9-11.79,1.09-.38,2.15-.91,3.28-1.1,6.93-1.19,9.54-7.45,11.81-12.3,2.6-5.54,2.26-12.47,3.3-19.45-7.18,1.36-14.56,2.76-23.24,4.4,2.26,1.94,3.01,3.11,4,3.35,5.5,1.34,6.33,5.91,6.17,10.12-.2,4.99.56,10.85-5.37,13.82ZM866.3,402.84c3.29,1.06,5.74,1.84,8.19,2.63.45-1.59,1.79-3.87,1.19-4.66-2.69-3.53-5.39-1.2-9.37,2.03Z"/>
  <path class="cls-13" d="M1022.1,579.26c-1.14.4-2.62,1.47-3.32,1.09-4.02-2.18-7.89-4.65-11.72-7.17-.41-.27-.54-1.62-.23-2.12.35-.55,1.61-1.16,2.02-.94,4.26,2.38,8.43,4.92,12.61,7.45.22.13.24.59.65,1.68Z"/>
  <path class="cls-13" d="M993.89,577.09c.57-3.12-6.38-4.58-1.79-7.73,1.57-1.08,6.22-.7,6.85.45,2.4,4.37-1.76,5.6-5.06,7.28Z"/>
  <path class="cls-13" d="M1009.81,636.82c-4.09-.76-8.38-5.57-7.97-9.14.09-.84.74-2.07,1.38-2.25.63-.18,1.85.53,2.34,1.2,1.55,2.11,2.88,4.39,4.29,6.6-.01,1.2-.02,2.4-.04,3.6Z"/>
  <path class="cls-13" d="M991.82,599.52c-1.34-.47-2.94-.66-3.97-1.52-.66-.55-.48-2.1-.68-3.2,3.09.07,6.18.13,9.28.2-.25,1.12-.14,2.63-.84,3.27-.86.78-2.38.84-3.79,1.26Z"/>
  <path class="cls-13" d="M1009.18,592.37c-1.34.71-2.88,1.73-3.02,1.56-1.92-2.26-3.64-4.68-5.41-7.06.8-.57,2.22-1.72,2.32-1.62,1.99,2.13,3.84,4.39,6.12,7.12Z"/>
  <path class="cls-13" d="M987.92,566.85c-1.77-1.45-3.12-2.56-4.48-3.67,1.5-.67,3.04-1.95,4.5-1.85,1.6.1,3.11,1.46,4.67,2.27-1.36.95-2.72,1.89-4.69,3.26Z"/>
  <path class="cls-13" d="M1014.65,617.91c-1.26,1.56-2.07,2.56-2.87,3.55-.9-1.34-2.36-2.61-2.53-4.04-.15-1.21,1.2-2.59,1.89-3.9,1.08,1.34,2.15,2.68,3.52,4.39Z"/>
  <path class="cls-13" d="M1042.75,579.03c1.05.51,2.08.73,2.67,1.36,1.24,1.34,2.24,2.89,3.34,4.35-.98.17-2.26.83-2.88.43-2-1.27-5.15-2.2-3.13-6.15Z"/>
  <path class="cls-13" d="M980.35,597.22c-1.51.87-2.66,1.86-2.97,1.65-1.78-1.23-3.36-2.74-5.01-4.16.67-.54,1.68-1.68,1.97-1.52,1.91,1.06,3.66,2.4,6.01,4.03Z"/>
  <path class="cls-3" d="M1009.81,636.82c.01-1.2.02-2.4.04-3.6.81.06,1.77-.14,2.39.23,1.44.87,2.79,1.94,3.99,3.12.21.21-.61,1.94-.7,1.92-1.46-.34-2.87-.87-4.3-1.33-.46-.15-.95-.22-1.42-.33Z"/>
  <path class="cls-12" d="M878.61,309.84c-4.15,0-8.31.11-12.46-.02-5.78-.17-7.74-2.48-7.18-8.17.37-3.79.6-7.61,1.1-11.38.48-3.63-1.03-5.03-4.58-5.4-1.66-.17-3.18-1.65-4.76-2.54,1.11-1.49,2-3.2,3.35-4.42,6.08-5.49,13.46-3.59,20.44-3.08,4.74.34,9.51,1.38,14.07,2.73,1.78.53,4.03,2.59,4.39,4.3,1.52,7.25,2.3,14.66,3.56,21.97.71,4.15-.93,5.99-4.97,6-4.32.01-8.64,0-12.96,0ZM868.32,303.89h21.89c-3.53-4.3-6.57-8.01-9.28-11.31-4.68,4.2-8.67,7.77-12.62,11.31ZM865,279.51c-.05.33-.11.66-.16.99,2.75,1.37,5.48,2.78,8.26,4.11,3.39,1.62,3.85,1.33,5.02-3.63-4.43-.5-8.77-.99-13.11-1.47ZM865.65,286.85v8.91c2.01-1.96,3.82-3.73,5.96-5.81-1.82-.95-3.58-1.86-5.96-3.1ZM882.81,285.61c2.56,2.95,4.63,5.33,7.02,8.09-.7-2.54-1.22-4.6-1.84-6.62-.45-1.45-1.05-2.86-1.58-4.28-1.4,1.09-2.8,2.19-3.6,2.81Z"/>
  <path class="cls-29" d="M784.16,297.1c-11.26,0-11.29-.19-13.11-10.33-.47-2.59-2.32-4.91-3.47-7.39-.45-.97-1.3-2.37-.95-2.97.56-.95,1.92-1.83,3.05-1.98,7.2-1.01,14.42-2.37,21.65-2.45,3.15-.03,7.18,2,9.2,4.43,1.4,1.68.16,5.66-.12,8.59-.09.91-1,1.71-1.38,2.62-3,7.15-7.99,10.9-14.86,9.47ZM775.51,280.36c.56,3.04.84,5.72,1.62,8.23.34,1.1,1.61,2.52,2.65,2.7,8.73,1.48,11.1.29,15-7.54.71-1.43,1.29-3.88.57-4.81-.85-1.08-3.24-1.56-4.84-1.35-4.92.65-9.78,1.76-15,2.76Z"/>
  <path class="cls-29" d="M601.82,287.29c4.22.03,16.23,8.68,16.55,11.98.12,1.25-2.23,3.97-3.31,3.89-6.42-.43-10.24,2.35-12.95,7.99-1.7,3.53-4.65,3.67-7.79,1-4.35-3.7-8.07-7.68-9.58-13.45-.68-2.58-.38-4.91,2.26-4.88,4.64.05,7.7-2.44,11.01-4.95,1.26-.95,3-1.26,3.82-1.59ZM596.59,307.03c4.62-3.88,8.34-7.01,12.01-10.1q-6.37-5.18-18.36,4.34c2.36,2.14,4.61,4.17,6.36,5.76Z"/>
  <path class="cls-3" d="M1056.14,471.39c.9,6.9-1.75,13.19-3.34,19.67-.6-.11-1.19-.21-1.79-.32,1.19-6.49,2.39-12.98,3.58-19.46.52.04,1.03.08,1.55.12Z"/>
  <path class="cls-12" d="M717.95,460.54c-2.23,1.22-3.58,2.48-5.07,2.66-2.94.36-6-.23-8.91.22-3.48.53-6.82,1.92-10.29,2.56-1.97.36-4.07-.03-6.11-.09.89-1.67,1.39-3.83,2.74-4.93,7.2-5.82,15.77-3.36,23.89-3.39.95,0,1.9,1.45,3.76,2.96Z"/>
  <path class="cls-24" d="M876.05,413.34c-8.43,7.83-18.91,10.64-29.9,11.79-7.54.79-9.89-1.84-12.97-8.77-2.29-5.15-4.1-9.67-2.4-15.39.71-2.4,1.5-3.21,3.78-4.18,9.48-4.05,19.91-4.43,31.04-8.32-1.7,2.29-2.6,3.76-3.76,4.99-2.31,2.45-4.54,4.67-3.26,8.62,4.27,13.17,7.03,14.7,17.42,10.09.02.39.04.77.05,1.16Z"/>
  <path class="cls-17" d="M876.05,413.34c-.02-.39-.04-.77-.05-1.16,5.93-2.96,5.17-8.83,5.37-13.82.17-4.21-.67-8.78-6.17-10.12-.98-.24-1.74-1.41-4-3.35,8.68-1.64,16.06-3.04,23.24-4.4-1.04,6.99-.7,13.91-3.3,19.45-2.27,4.84-4.89,11.11-11.81,12.3-1.12.19-2.19.73-3.28,1.1Z"/>
  <path class="cls-14" d="M866.3,402.84c3.99-3.23,6.68-5.56,9.37-2.03.6.79-.74,3.07-1.19,4.66-2.45-.79-4.9-1.57-8.19-2.63Z"/>
  <path class="cls-21" d="M868.32,303.89c3.95-3.54,7.94-7.12,12.62-11.31,2.71,3.31,5.75,7.01,9.28,11.31h-21.89Z"/>
  <path class="cls-21" d="M865,279.51c4.34.49,8.69.98,13.11,1.47-1.17,4.96-1.62,5.25-5.02,3.63-2.77-1.33-5.51-2.74-8.26-4.11.05-.33.11-.66.16-.99Z"/>
  <path class="cls-21" d="M865.65,286.85c2.38,1.24,4.14,2.15,5.96,3.1-2.14,2.09-3.95,3.86-5.96,5.81v-8.91Z"/>
  <path class="cls-21" d="M882.81,285.61c.8-.62,2.2-1.72,3.6-2.81.53,1.43,1.13,2.83,1.58,4.28.63,2.02,1.14,4.08,1.84,6.62-2.4-2.76-4.46-5.14-7.02-8.09Z"/>
  <path class="cls-7" d="M775.51,280.36c5.22-1,10.08-2.1,15-2.76,1.6-.21,4,.26,4.84,1.35.72.92.14,3.38-.57,4.81-3.9,7.83-6.27,9.01-15,7.54-1.04-.18-2.31-1.6-2.65-2.7-.78-2.52-1.06-5.19-1.62-8.23Z"/>
  <path class="cls-21" d="M596.59,307.03c-1.75-1.59-4-3.62-6.36-5.76q12-9.51,18.36-4.34c-3.67,3.08-7.39,6.21-12.01,10.1Z"/>
</svg>