<?xml version="1.0" encoding="UTF-8"?>
<svg id="Layer_1" data-name="Layer 1" xmlns="http://www.w3.org/2000/svg" version="1.1" viewBox="0 0 1920 1080">
  <defs>
    <style>
      .cls-1 {
        fill: #ab927f;
      }

      .cls-1, .cls-2, .cls-3, .cls-4, .cls-5, .cls-6, .cls-7, .cls-8, .cls-9, .cls-10, .cls-11, .cls-12, .cls-13, .cls-14, .cls-15, .cls-16, .cls-17, .cls-18, .cls-19, .cls-20, .cls-21, .cls-22, .cls-23, .cls-24, .cls-25, .cls-26, .cls-27 {
        stroke-width: 0px;
      }

      .cls-2 {
        fill: #ede19f;
      }

      .cls-3 {
        fill: #d3b8a6;
      }

      .cls-4 {
        fill: #b09988;
      }

      .cls-5 {
        fill: #a48a76;
      }

      .cls-6 {
        fill: #342d25;
      }

      .cls-7 {
        fill: #b09989;
      }

      .cls-8 {
        fill: #cdbfb4;
      }

      .cls-9 {
        fill: #050505;
      }

      .cls-10 {
        fill: #f7f6f6;
      }

      .cls-11 {
        fill: #b7a292;
      }

      .cls-12 {
        fill: #c0aea1;
      }

      .cls-13 {
        fill: #d5bb41;
      }

      .cls-14 {
        fill: #b19a89;
      }

      .cls-15 {
        fill: #ceb53e;
      }

      .cls-16 {
        fill: #b09a89;
      }

      .cls-17 {
        fill: #f6e9a8;
      }

      .cls-18 {
        fill: #060606;
      }

      .cls-19 {
        fill: #dabf42;
      }

      .cls-20 {
        fill: #d9be42;
      }

      .cls-21 {
        fill: #e6d482;
      }

      .cls-22 {
        fill: #100f0c;
      }

      .cls-23 {
        fill: #17150e;
      }

      .cls-24 {
        fill: #c5ad3d;
      }

      .cls-25 {
        fill: #d1b840;
      }

      .cls-26 {
        fill: #0c0b0b;
      }

      .cls-27 {
        fill: #f2e5a5;
      }
    </style>
  </defs>
  <path class="cls-14" d="M784.74,889.05c-2.26-.07-4.53-.15-6.79-.22-1.89-.34-3.78-.98-5.66-.98-40.08-.06-80.16-.05-120.23-.05-.06-2.06.44-4.33-.27-6.13-3.24-8.23-2.87-16.78-2.64-25.3.09-3.27,1.36-6.17,5.37-6.49-.04.98-.11,1.97-.13,2.95-.08,3.61.21,7.22,4.45,8.3,4.23,1.09,5.62-2.31,7.12-5.26.63.15,1.35.16,1.89.47,6.95,3.99,12.01,1.36,13.28-6.5.78-4.86,2-9.73,3.7-14.35,3.19-8.68,7.67-16.96,10.16-25.81,3.21-11.41,8.49-21.36,15.76-30.6,3.09-3.92,4.92-8.83,7.33-13.29,13.16,7.66,27.82,9.72,42.56,10.3,17.45.69,34.95.12,52.43.18,8.99.03,17.96.37,26.55-3.19,1.9-.79,4.27-.71,6.4-.64,9.77.35,19.55,1.25,29.32,1.18,17.12-.12,34.24-.78,51.35-1.28,2.15-.06,4.33-.4,6.41-.95,8.47-2.22,16.82-4.94,25.37-6.79,11.95-2.58,23.48-5.98,33.81-12.79,1.11-.73,3.15-.91,4.41-.43,24.26,9.07,45.18,1.4,63.99-13.64,6.28-5.02,12.06-11.46,14.55-19.83.36-1.22,1.77-2.46,3-3.05,5.37-2.57,10.82-4.98,16.3-7.31,17.23-7.3,33.1-17.15,47.73-28.51,12.53-9.73,26.59-16.28,40.17-23.93,5.47-3.08,10.84-6.55,15.61-10.6,12.93-10.96,23.25-24.11,31.19-39.11,1.22-2.31,2.8-4.43,4.51-7.08,1.62,1.97,2.85,3.5,4.1,5,5.64,6.77,10.96,13.84,17,20.23,7.25,7.68,15.51,14.42,22.6,22.23,10.26,11.31,20.46,22.77,29.56,35,8.29,11.16,15.95,22.98,22.32,35.33,9.95,19.3,19.24,39.01,27.57,59.06,7.7,18.53,13.75,37.75,20.53,56.66-.35.72-.96,1.41-1.01,2.15-1.75,26.99-24.81,48.18-50.52,47.95-1.99-.02-3.96,1.43-6.01,1.86-2.75.58-5.58.79-8.36,1.27-.99.17-1.92.67-3.37,1.2,1.39,1.25,2.24,2.03,3.09,2.79-8.14,9.67-14.38,13.38-27.83,16.71,1.6-1.28,3.03-2.9,4.83-3.79,6.22-3.06,10.74-7.86,15.72-13.75-2.53-.18-3.95-.38-5.38-.38-169.58-.02-339.17-.02-508.75.03-1.69,0-3.38.78-5.07,1.19Z"/>
  <path class="cls-22" d="M1377.41,831.82c-6.78-18.92-12.84-38.13-20.53-56.66-8.33-20.05-17.62-39.76-27.57-59.06-6.37-12.34-14.03-24.17-22.32-35.33-9.09-12.24-19.3-23.69-29.56-35-7.09-7.81-15.35-14.55-22.6-22.23-6.04-6.39-11.36-13.46-17-20.23-1.25-1.5-2.48-3.03-4.1-5-1.7,2.66-3.29,4.78-4.51,7.08-7.95,15-18.26,28.16-31.19,39.11-4.78,4.05-10.14,7.52-15.61,10.6-13.58,7.65-27.64,14.21-40.17,23.93-14.63,11.36-30.51,21.2-47.73,28.51-5.48,2.32-10.93,4.74-16.3,7.31-1.23.59-2.64,1.82-3,3.05-2.5,8.38-8.27,14.82-14.55,19.83-18.82,15.04-39.74,22.71-63.99,13.64-1.27-.47-3.3-.3-4.41.43-10.34,6.8-21.86,10.21-33.81,12.79-8.55,1.85-16.9,4.57-25.37,6.79-2.08.54-4.26.88-6.41.95-17.11.51-34.23,1.17-51.35,1.28-9.77.07-19.54-.83-29.32-1.18-2.14-.08-4.5-.15-6.4.64-8.59,3.57-17.56,3.22-26.55,3.19-17.48-.06-34.98.51-52.43-.18-14.74-.58-29.4-2.63-42.56-10.3-2.87-1.88-5.74-3.76-9.16-6-4.69,7.22-8.59,14.4-13.6,20.7-9.67,12.15-16.6,25.54-20.8,40.44-1.71,6.06-3.77,12.03-5.28,18.13-1.37,5.54-2.21,11.2-3.28,16.81-1.5,2.95-2.89,6.34-7.12,5.26-4.24-1.09-4.52-4.7-4.45-8.3.02-.98.08-1.97.13-2.95.23-2.97.47-5.95.71-8.92,4.4-12.27,8.04-24.89,13.44-36.71,4.64-10.17,11.15-19.51,17.07-29.07,4.19-6.77,8.88-13.22,13.07-19.98.76-1.23.8-3.56.15-4.89-4.39-9-4.44-18.83-4.51-28.3-.07-9.53,8.73-25.14,21.43-28.75,6.11-1.73,11.94-4.48,19.42-7.35-3.2-2.02-5.12-3.97-7.38-4.52-11.81-2.87-23.19-17.96-18.51-32.8,3.94-12.51,10.12-23.52,20.69-31.58,9.23-7.04,18.53-14.02,28.11-20.58,7.22-4.94,14.94-9.17,22.43-13.73,2.26-1.38,4.5-2.81,6.74-4.21,1.76-1.33,3.53-2.67,5.08-3.84-.14-.73-.12-.94-.21-1.03-2.75-2.52-5.51-5.02-8.27-7.53-7.34-10.08-17.23-16.94-28.42-22-7.07-3.19-14.74-5.24-21.47-9-11.1-6.21-22.73-8.72-35.34-10.02-14.95-1.54-29.64-5.65-44.43-8.7-8.58-1.77-17.2-3.42-25.69-5.57-5.27-1.34-10.34-3.51-15.49-5.33-9.35-3.29-18.49-7.53-28.1-9.65-10.31-2.27-19.66-6.32-28.34-11.79-8.5-5.35-17.2-10.57-23.74-18.67-9.6-11.89-19.51-23.55-29.6-35.03-6.33-7.2-9.58-15.79-13.04-24.47-4.1-10.27-8.64-20.41-13.68-30.26-3.76-7.35-7.31-14.53-6.77-23.06.1-1.49.19-3.02-.02-4.49-3.01-21.45,5.01-40.69,13.12-59.51,3.99-9.25,11.09-17.28,17.4-25.39,7.24-9.3,15.71-17.66,22.6-27.18,5.79-8.01,9.92-17.21,15.07-25.71,3.26-5.38,6.99-10.49,10.61-15.65,6.96-9.93,13.61-20.12,21.16-29.59,3.82-4.79,9.14-8.48,14.13-12.21,1.96-1.47,3.34-2.26,3.48-5.15.08-1.62,3.58-4.71,4.44-4.37,6.66,2.63,11.29-2.03,15.81-4.68,13.64-7.98,28.49-12.02,43.74-14.34,12.44-1.88,25.15-1.91,37.73-2.91,1.45-.12,2.96-1.05,4.21-1.93,3.38-2.38,6.4-3.1,9.77.26,1.17,1.16,3.46,1.66,5.25,1.67,18.81.12,37.63.32,56.44.02,39.15-.63,73.24,13.24,103.71,36.62,13.4,10.29,26.33,21.44,38.05,33.58,10.1,10.46,18.31,22.77,27.09,34.46,4.07,5.42,8,11.06,11.13,17.04,3.91,7.48,6.82,15.48,10.37,23.16,7.38,15.98,14.16,32.29,22.58,47.7,6.67,12.21,18.32,20.41,28.58,29.63,10.87,9.77,21.78,19.58,31.82,30.18,6,6.33,10.53,14.1,15.46,21.4,5.77,8.54,11.05,17.41,16.92,25.88,5.86,8.47,12.1,16.69,18.39,24.85.77,1,2.93,1.43,4.37,1.28,1.75-.17,3.44-1.18,5.11-1.91,28.11-12.34,57.12-10.58,86.21-5.1,6.2,1.17,12.26,3.91,17.92,6.82,6.23,3.2,9.67,8.64,10.23,16.03,1.5,19.6-2.53,38-11.18,55.51-.71,1.45-1.29,2.96-1.53,3.51,7.11,2.12,14.4,3.29,20.7,6.45,6.25,3.14,11.95,7.83,17,12.76,2.6,2.54,3.61,6.97,4.7,10.73,3.2,11.07,4.01,22.24-1.04,33.02-1.22,2.6-.91,4.15.84,6.13,10.04,11.32,19.85,22.84,30.01,34.06,11.47,12.66,23.68,24.69,34.71,37.72,8.22,9.72,15.76,20.18,22.36,31.07,8.77,14.48,16.79,29.46,24.25,44.66,5.91,12.05,10.68,24.67,15.59,37.18,5.64,14.39,10.87,28.93,16.27,43.41,3.24,8.69,6.58,17.35,9.65,26.1,1.25,3.55,1.24,7.33-3.34,8.47-4.44,1.11-6.09-2.2-7.35-5.72-1.34-3.74-2.82-7.44-4.23-11.15-.92-1.71-1.83-3.41-2.75-5.12ZM779.03,480.1c-.2-.12-.39-.23-.59-.35.12.19.24.39.36.58.35.32.7.64,1.05.96.65.35,1.3.71,1.95,1.06,1.6,1.61,3.21,3.21,4.81,4.82,3.07,2.32,6.13,4.63,9.2,6.95.69.39,1.39.78,2.08,1.17l-.06-.03c.67.37,1.34.74,2.01,1.11h-.08c9.54,10.52,19.68,20.03,33.83,24.28,12.42,3.72,24.73,7.5,37.92,7.31,13.97-.2,27.97.44,41.91-.28,6.08-.31,12.71-1.95,17.92-5,13.44-7.87,26.2-16.9,39.28-25.39,24.34-15.8,37-39.43,41.93-66.88,2.55-14.2,1.71-29.21.72-43.74-.48-7.07-4.82-13.87-7.42-20.8-.63-1.49-1.26-2.97-1.89-4.46-.72,7.48-.55,14.78-.79,22.06-.12,3.61-.55,7.32-1.58,10.76-4.16,13.83-7.97,27.81-13.15,41.26-4.81,12.49-10.44,24.81-17.16,36.36-4.4,7.56-10.26,15.35-17.43,20.03-21.77,14.21-44.58,26.71-72,25.44-5.31-.44-10.63-.89-15.94-1.33l.04.08c-1.04-.64-2-1.62-3.13-1.87-21.62-4.77-41.91-13.15-61.88-22.48-4.16-1.94-8.63-3.22-12.96-4.81-1.99-1.6-3.98-3.2-5.97-4.8-.66-.33-1.33-.66-1.99-.99-.32-.34-.65-.69-.98-1.03ZM1213.45,542.27s-.08-.07-.08-.07c.36.35.73.69,1.09,1.04l-.18.07c2.72,4.3,5.43,8.6,8.15,12.9,0,0-.04-.08-.04-.08.07,1.33.14,2.66.21,4-.51,1.91-1.36,3.81-1.48,5.75-.58,9.26.27,18.69-4.35,27.36-1.26,2.36-1.65,5.18-2.44,7.79l.04-.07c-.67,1.03-1.35,2.07-2.02,3.1l.12-.06c-.44.37-.87.74-1.31,1.12-1.57,2.13-3.14,4.27-4.7,6.4-3.03,2.58-5.98,5.26-9.11,7.72-23.11,18.17-46.94,35.3-72.75,49.5-15.63,8.6-31.38,17-47.28,25.59.25.94.75,2.82,1.25,4.71.52.58,1.27,1.77,1.54,1.67,14.98-5.62,29.75-11.62,42.46-21.74,4.84-3.85,10.05-7.24,15.09-10.84l-.04.03c.39-.3.79-.6,1.18-.9l-.05.05c.91-.82,1.82-1.65,2.73-2.47,7.33-4.24,14.66-8.49,21.99-12.73.44-.27.88-.55,1.32-.82l-.09.06c.68-.37,1.35-.73,2.03-1.1v.04c5.18-2.57,10.76-4.57,15.45-7.84,10.36-7.21,19.77-15.53,26.95-26.16,4.97-7.37,10.81-14.16,15.62-21.63,2.55-3.97,3.11-9.23,5.69-13.16,3.03-4.62,3.32-9.15,3.3-14.43-.06-11.88-3.94-20.9-14.53-27.36-9.21-5.62-18.63-5.19-28.64-3.86,1.6,2.08,2.12,5.54,6.03,3.84,4.63.19,9.25.38,13.88.57,0,0-.09-.02-.09-.02.68.38,1.36.76,2.03,1.14,0,0-.09-.14-.09-.14.37.35.74.69,1.11,1.04ZM774.87,477.29c.17.13.34.25.51.38-.13-.17-.26-.34-.39-.51-.37-.24-.74-.48-1.12-.69-.02-.01-.18.23-.28.35.43.16.85.32,1.28.47ZM842.94,269.39c-.99-.36-1.99-.73-2.98-1.09l-4.04-1.96c-5.99-5.18-13.29-7.92-20.85-8.11-20.3-.52-40.62-.16-60.93-.22-2.52,0-3.4.84-2.49,3.26-.14,1.4-.27,2.8-.27,2.77,10.98.7,21.63.6,32.01,2.23,15.75,2.47,31.32,6.07,46.93,9.35,7.31,1.53,14.91,2.52,21.72,5.35,12.57,5.23,23.94,12.62,34.42,21.56,8.92,7.62,18.33,14.93,28.42,20.86,14.07,8.27,29.49,7.53,44.76,3.07,3.36-.98,6.51-2.64,9.95-4.07-2-3.09-2.42-6.69-6.98-5.81-13.73,2.64-27.27.66-40.3-3.49-7.95-2.54-16.47-5.73-22.6-11.07-14.1-12.28-29.19-22.37-46.81-28.62-3.34-1.35-6.68-2.7-10.02-4.06,0,0,.07.06.07.06ZM706.06,180.54c-1.3-1.05-2.61-2.11-3.91-3.16-4.39-3.59-8.3-2.59-11.63,3-1.16,4.5-4.52,8.73-1.62,13.71,3.19,1.67,6.23,3.9,9.63,4.83,3.03.84,6.45.25,8.03-3.44.14-.14.28-.27.42-.41,4.81-6.9,5.92-9.04-1-14.6,0,0,.08.08.08.08ZM574.92,265.18c-4.13,2.67-3.68,5.89-1.13,9.37,2.24.84,4.45,2.19,6.73,2.33,1.21.08,3.29-1.7,3.71-3.04,1.62-5.13-3.88-10.08-9.31-8.66ZM622.89,277.23c-6.72,3.34-13.45,6.68-20.53,10.2.2.49.75,1.78,1.86,4.45,6.88-4.85,13.22-9.31,19.55-13.78,3.79-3.04,7.57-6.08,11.36-9.12-.16-.52-.32-1.04-.48-1.56-2.88-.67-5.76-1.33-7.57-1.75-1.54,4.24-2.86,7.9-4.19,11.57ZM557.32,261.04c-8.6-4.18-17.2-8.33-25.78-12.54-2.38-1.17-4.11-.9-5.01,1.83-.88,1.08-1.76,2.17-2.8,3.44,8.36,5.59,17.32,7.34,26.44,8.59,2.31.04,4.63.09,6.94.13,3.57,1.94,7.14,3.89,10.79,5.88,2.35-2.49,1.24-3.85-1.63-4.69-2.99-.86-5.96-1.76-8.94-2.65ZM612.66,375.25c-.52,1.38-1.04,2.75-1.63,4.3,3.6-.23,6.35-.52,9.11-.54,1.58-.01,4.32.99,4.54.55.92-1.85,1.99-4.43,1.34-6.1-1.41-3.63-3.84-6.86-5.85-10.25-1.31-2.17-2.63-4.34-3.94-6.51-.58-1.52-.98-3.13-1.76-4.54-2.9-5.19-6.55-10.05-8.77-15.5-4.23-10.4-7.8-21.07-11.34-31.73-1.05-3.15-2.68-3.92-5.78-3.98-3.95-.07-7.95-.6-11.8-1.46-4.06-.91-5.91-3.74-4.41-7.89,1.22-3.36,2.83-6.57,4.12-9.52-2.34-1.89-4.27-3.67-6.41-5.12-4.36-2.94-8.58-6.28-13.34-8.34-3.48-1.51-7.81-.9-11.62-1.84-7.66-1.88-15.22-4.16-22.6-6.22-.57,1.56-1.07,3.63-2.05,5.43-1.01,1.86-2.49,3.45-3.76,5.17-2.7,3.9-.14,8.12,1.73,10.09,7.02,7.39,15,13.87,22.62,20.69q6.91,7.21,3.75,12.57c.18,3.43.19,6.87-.77,10.02-1.24,4.06-3.25,7.88-4.94,11.81-5.58,3.19-11.12,6.44-16.74,9.56-9.76,5.41-19.63,10.43-31.22,10.62-4.32.07-8.12,5.3-6.83,8.79.55,1.35.96,2.77,1.66,4.03,6,10.89,12.81,21.32,15.44,33.87,1.1,5.23,3.4,10.71,6.68,14.88,10.24,13.04,21.19,25.51,31.87,38.21,5.45,6.72,10.32,14.09,19.19,16.94,3.79,2.03,7.43,4.47,11.41,6.01,6.31,2.43,12.88,4.19,19.3,6.37,10.01,3.41,20,6.89,29.97,10.44,3.41,1.21,6.6,3.19,10.08,4.02,9.81,2.34,19.67,4.48,29.59,6.29,15.82,2.88,31.74,5.16,47.52,8.21,8.74,1.69,17.5,3.82,25.87,6.82,8.17,2.92,15.83,7.23,23.75,10.85,11.99,5.48,23.5,11.29,31.95,22.22,4.81,6.22,11.08,11.6,17.5,16.22,7.35,5.28,7.94,5.55,2.65,12.19,3.38,3.58,6.88,7.11,10.17,10.83,4.4,4.97,9.57,8.19,16.43,7.77,12.6-.78,25.25-1.19,37.78-2.65,10.67-1.25,21.33-3.19,31.72-5.87,9.91-2.56,19.45-6.55,29.2-9.78,11.67-3.86,23.37-7.65,35.1-11.35,8.87-2.8,17.81-5.41,26.71-8.13,14.39-4.41,29.6-7.18,42.93-13.77,12.55-6.2,23.35-16.12,34.42-25.03,4.72-3.79,8.18-9.16,12.19-13.83,7.99-9.29,12.74-20.05,8.75-32-3.15-9.44-7.37-19.27-13.68-26.77-13.12-15.63-23.91-32.72-35.22-49.55-9.25-13.75-18.34-27.79-32.01-37.87-.42-.35-.84-.71-1.26-1.06.12.62.25,1.25.37,1.87,2.2,6.94,5.94,13.81,6.28,20.84.74,14.9,1.17,30.1-1.05,44.76-1.8,11.92-6.77,23.64-11.97,34.68-4.71,9.99-11.02,19.51-20.26,26.22-14.23,10.34-28.57,20.54-43.08,30.48-11.27,7.73-23.67,11.66-37.63,10.5-7.6-.63-15.31-.35-22.96-.07-16.26.6-32.15-.98-47.45-6.88-9.43-3.63-18.79-7.02-26.51-14.23-10.77-10.05-22.32-19.27-33.52-28.85-2.18-1.86-3.85-1.12-6.18.22-3.05,1.75-6.64,3.38-10.05,3.52-11.09.46-16.65-6.39-19.95-17.85-.42-1.48-1.59-3.2-2.89-3.88-3.21-1.66-6.71-2.75-10.08-4.11-15.19-6.14-30.5-12.02-45.5-18.62-4.05-1.78-7.47-5.43-10.57-8.79-3.82-4.13-6.89-8.93-10.47-13.3-4.94-6.03-10.38-11.67-14.98-17.94-4.78-6.52-8.82-13.6-12.56-19.45-4.99.83-9.57,1.59-14.7,2.44-.02.34-.12,1.8-.16,3.27-.16,6.16-2.47,10.85-7.42,11.68-6.37,1.07-13.23,2.64-19.02-2.37-.37-.32-.63-.77-.88-1.2-4.9-8.35-1.15-19.45,6.93-24.78,5.32-3.51,12.82-3.24,16.41-9.59.14-.25,1.24.04,1.89.08-.46,4.27-.92,8.54-1.37,12.81ZM610.07,392.27c-4.13-.2-9.77,1.22-12.08-.94-4.84-4.51,0-9.87,2.5-16.21-2.67,1.4-4.44,1.84-5.47,2.96-3.57,3.9-5.04,8.33-3.34,13.73.92,2.91,2.11,5.25,5.3,4.6,4.52-.93,10.53,3.01,13.33-3.82.03-.08-.18-.26-.27-.39.25,0,.5.01.75.02-.01-.16-.02-.32-.04-.48-.22.18-.45.35-.67.53ZM1110.07,456.52c.87,2.22,2.07,2.92,4.55,1.86,11.03-4.71,22.53-7.18,34.6-6.48.37.97.74,1.93,1.11,2.9-1.38.29-2.79.91-4.14.81-11.39-.87-21.72,2.57-32.25,7.03,4.48,7.74,6.26,15.56,6.07,23.87-.06,2.63.25,5.28.39,7.91-.83,2.57.36,2.47,2.52,2.43,11.76-.23,23.53-.2,35.29-.26.55,1.09,1.09,2.18,1.64,3.27-1.33.36-2.67,1.06-3.99,1.03-8.14-.19-16.27-.76-24.4-.78-7.34-.02-13.01,1.2-15.8,10.37-2.46,8.11-8.82,15.05-13.45,22.5-1.04,1.13-2.09,2.27-3.43,3.73,11.39,5.05,22.09,9.78,32.78,14.52.84,1.4,1.68,2.79,2.53,4.19-1.77.17-3.54.35-5.32.47-.29.02-.6-.25-.9-.39-10.37-4.75-20.72-9.57-31.16-14.17-1.2-.53-3.14-.26-4.38.35-9.18,4.56-18.3,9.24-27.36,14.04-2.75,1.45-5.25,3.39-7.86,5.1-2.11,1.09-4.22,2.17-6.66,3.43,13.96,6.09,14.27,5.87,19.76,13.62,4.07,5.74,7.21,12.15,10.77,18.25-2.52,3.32-3.96,2.7-6.37-1.38-3.75-6.38-7.72-12.7-12.24-18.54-1.86-2.41-5.25-3.88-8.23-5.12-3.19-1.33-6.71-1.87-9.68-2.65-17.78,6.82-35.86,13.75-53.93,20.68-3.79-.61-4.79,1.27-5.02,4.79-.48,7.58,3.23,13.62,6.3,20.03,2.42,5.04,6.68,9.69,4.64,16.07-1.3-.68-3.41-1.08-3.76-2.09-4.17-12.07-13.87-22.14-12.4-36.72-18.52,5.29-36.16,10.33-53.81,15.37-1.23.73-3.33,1.27-3.54,2.23-1.47,6.81-2.57,13.9,1.11,20.23,3.1,5.33,7.21,10.08,10.88,15.09-.21,3.08-1.15,5.43-4.41,2.5-8.59-7.75-14.1-17.04-13.88-29.09.05-2.87-.59-5.75-.95-9.01-20.15,5.3-39.43,11.66-59.82,12.52-3.97-1.11-5.88.37-7.88,4.18-4.45,8.5-8.54,16.9-7.87,26.82-.08.49-.06,1.02-.26,1.45-.82,1.72-1.7,3.41-2.57,5.11-.82-1.75-2.27-3.46-2.37-5.25-.6-10.39,2.35-19.92,7.66-28.79.71-1.18,1.18-2.51,1.86-3.99-4.86-.93-9.14-1.45-13.25-2.6-8.53-2.4-16.97-5.13-25.44-7.72-1.27-.87-2.54-1.74-3.81-2.62l-4.14-4.31c-3.14-4.03-6.27-8.06-9.99-12.83-7.4,4.68-14.94,9.15-22.15,14.1-8.21,5.63-16,11.87-24.2,17.51-10.26,7.06-17.41,16.27-20.91,28.26-2.38,8.17.55,16.9,7.74,19.42,11.86,4.16,23.92,7.98,36.68,8.46,6.97.26,13.94.71,20.92.78,24.29.22,48.57.37,72.86.39,5.14,0,10.35-.24,15.41-1.07,18.37-3.03,36.72-6.18,55.01-9.65,12.06-2.28,24.1-4.65,35.15-10.61,7.29-3.93,14.72-7.94,22.57-10.42,23.81-7.54,47.06-16.38,69.37-27.63,8.89-4.49,17.74-9.1,26.4-14.02,11.97-6.8,23.75-13.96,35.62-20.94,11.3-6.65,23.47-12.18,33.73-20.15,17-13.21,28.22-31.65,38.92-49.95,8.78-15.03,12.11-31.84,11.07-49.41-.26-4.49-1.74-7.92-5.82-9.56-5.79-2.32-11.64-5.1-17.72-5.97-9.62-1.39-19.44-1.36-29.17-1.93-4.18.2-8.35.4-12.53.61-1.01-.36-2.01-.96-3.04-1.03-9.31-.64-17.67,2.65-26.51,6.33,1.25,1.09,2.07,1.82,2.9,2.54ZM642.3,268.34c-.09.32-.18.64-.26.95-.17.23-.37.45-.49.71-.05.11.07.42.14.43,2.45.34,4.95.44,7.34,1.02,10.55,2.59,20.99,5.69,31.61,7.89,10.03,2.08,19.87,1.08,29.68-4.88-3.15-1.42-2.66-6.67-7.47-4.66-1.31.07-2.61.25-3.92.21-8.08-.26-16.56.88-24.15-1.2-10.63-2.91-21.08-3.84-31.88-3.17-.2.9-.4,1.8-.6,2.7ZM613.34,178.23l-1.28-.73c-6.87-4.33-11.18-10.3-13.46-18.26-1.22-4.26-1.84-9.56-7.41-12.38.16,2.33.16,4.09.43,5.81,2.06,13.46,10.07,23.31,21.32,29.5,9.01,4.95,19.42,7.48,29.38,10.51,4.33,1.32,9.09,1.21,13.66,1.76,7.78.27,15.56.64,23.35.74,2.78.04,5.51-.64,3.62-4.92-2.37.14-4.7.1-6.97.45-10.03,1.55-19.86.86-29.54-2.18-11.03-3.46-22.08-6.89-33.12-10.33l-.22.19.24-.16ZM694.23,158.61c1.74-8.87,3.48-17.74,5.22-26.61.45-2.27,1.29-4.56,1.21-6.81-.06-1.68-1.3-3.31-2.01-4.97-1.54.98-3.61,1.62-4.48,3.02-1.19,1.89-1.85,4.32-2.05,6.58-.6,6.52-.85,13.07-1.24,19.6-.24,1.37-.48,2.75-.72,4.12.01,1.61.02,3.22.03,4.83v13.95c.49.07.98.14,1.48.21,3.31-4.02,2.13-9.17,2.57-13.92ZM742.93,258.34c-10.19-5.3-18.7-6.76-21.83-.02,1.16.2,2.27.39,3.39.58,1.96.19,3.93.29,5.88.58,4.46.65,7.65,4.44,7.31,8.59-.49,5.95-2.11,7.55-7.96,7.68-2.72.06-5.45.01-8.17.01.61,1.38,1.35,1.62,1.98,2.02,10.78,6.94,22.53-2.48,22.58-15.33,0-1.37-2.06-2.74-3.17-4.11ZM745.65,473.08c.87,5.47,4.75,7.68,9.61,8.49,6.09,1.02,10.14-1.05,13.33-6.4,2.82-4.73,1.9-9.09-1.33-13.21-2.8-.07-5.86-.91-8.33-.05-5.22,1.81-10.14,4.5-15.64,7.05.46.8,1.41,2.46,2.36,4.12ZM1055.09,556.34c10.3-5.36,20.75-10.46,30.87-16.13,19.74-11.06,34.21-37.75,28.98-62.39-1.42-6.69-5.76-12.85-9.22-18.99-1.73-3.06-5.4-4.22-7.82-1.37-1.23,1.46-.48,5.1.18,7.55,1.06,3.94,3.38,7.59,4.13,11.55,2.68,14.26,1.14,28.58-7.36,40.13-8.55,11.61-17.98,23.05-30.78,30.8-3.67,2.22-6.97,5.05-10.44,7.6-1.91,1.09-3.82,2.19-5.73,3.28.3.53.59,1.06.89,1.59,2.1-1.21,4.2-2.41,6.29-3.62ZM718.97,451.38c-2.1-1.33-4.03-3.26-6.32-3.89-12.05-3.34-21.84-10.54-31.11-18.38-6.56-5.54-13.59-11.26-18.07-18.38-9.62-15.31-17.63-31.63-26.47-47.43-5.59-9.98-11.81-19.62-17.17-29.72-7.53-14.2-14.93-28.51-21.54-43.15-2.56-5.68-5.84-10.18-10.14-13.91-1.57,1.31-2.94,2.45-4.77,3.97,1.56,1.13,2.62,2.52,3.85,2.68,4.09.53,5.34,3.57,6.59,6.69,1.91,4.76,3.75,9.56,5.64,14.33.78,1.98,1.71,3.91,2.43,5.92,3.42,9.49,6,19.38,10.36,28.4,5.98,12.37,13.21,24.14,20.09,36.06,4.48,7.76,8.86,15.63,14.09,22.88,5.52,7.65,12.47,14.28,17.91,21.98,6.93,9.82,14.34,18.67,26.04,22.95,9.48,3.47,18.89,7.14,28.33,10.72,6.28,2.5,12.56,5,18.84,7.49.21-.54.42-1.07.63-1.61-5.85-3.81-12.37-6.07-19.22-7.61ZM1053.84,686.92c-2.31-1.45-4.5-3.86-6.96-4.19-13.42-1.79-26.12.36-37.27,8.63-1.29.95-2.58,2.23-3.24,3.65-4.45,9.5-10.82,18.14-12.86,28.75-.27,1.43-1.8,2.66-2.84,3.9-1.34,1.58-2.79,3.08-4.19,4.61,2.33,1.41,4.66,2.82,6.99,4.23,1.06.46,2.39.65,3.15,1.41,5.74,5.74,13.15,6.05,20.43,6.02,15.68-.06,28.6-7.03,39.23-17.9,4.27-4.37,7.39-10.15,10.01-15.77,3.86-8.27-1.09-16.42-12.46-23.33ZM723.6,743.81c-.31-.53-.51-1.18-.94-1.57-8.21-7.43-9.79-16.05-4.8-25.92.37-.73.59-1.54.87-2.31,2.85-4.02,5.71-8.03,8.56-12.05-.28-.56-.57-1.12-.85-1.68-2.28.54-4.83.6-6.78,1.72-6.02,3.46-10.12,8.35-12.95,15.07-5.65,13.42-.12,30.45,12.82,37.25,7.11,3.73,14.2,6.97,22.36,7.74,7.38.7,14.67,2.8,22.04,3,16.97.46,33.96.04,50.94.19,7.53.07,14.9-.2,22.07-2.96,2.55-.98,5.56-1.17,8.34-1.08,11.6.34,23.2,1.36,34.79,1.3,15.95-.09,31.9-.89,47.84-1.48,1.8-.07,3.6-.61,5.38-1.06,8.96-2.27,17.98-4.35,26.85-6.93,7.6-2.21,15.03-5.01,22.4-7.5-3.31-4.64-6.11-8.57-9.16-12.84-.98.4-2.49,1.02-4.01,1.64-14.63,3.67-29.15,7.89-43.93,10.83-10.18,2.02-20.7,2.33-31.08,3.3-3.97.37-7.98.31-11.95.68-20.16,1.89-40.29,4.4-60.49,5.63-14.76.9-29.63.06-44.44.21-17.14.17-33.87-1.43-49.23-9.99-1.36-.76-3.11-.81-4.67-1.19h.02ZM1193.68,554.11c-3.33-2.68-6.66-5.35-10.33-8.29-1.16,1.83-2.2,3.46-3.23,5.09-6.3,7.03-11.74,15.18-19.1,20.81-10.48,8.02-22.22,14.47-33.7,21.1-18.97,10.95-38.2,21.43-57.25,32.23-23.97,13.59-49.65,23.06-75.64,31.88-7.66,2.6-14.84,6.56-22.37,9.56-9.52,3.78-18.97,7.96-28.82,10.6-11.52,3.1-23.41,4.93-35.2,6.94-13.26,2.26-26.55,5.37-39.91,5.88-25.74.97-51.55.52-77.32.37-11.29-.07-22.57-.84-33.86-1.3-3.65-.91-7.3-1.82-10.84-2.7-6.26,12.53-12.29,24.66-18.38,36.75-3.91,7.76-3.5,8.86,4.75,11.75.78.27,1.59.48,2.38.71,9.74,6.81,21.27,8.14,32.37,8.32,25.93.43,51.89-.24,77.82-1.16,11.08-.39,22.09-2.52,33.13-3.85,4.11-.5,8.22-1.1,12.34-1.47,8.89-.8,17.8-1.41,26.69-2.21,19.35-1.73,37.77-7.31,55.94-13.82.97-.35,2.34-1.09,2.51-1.88,1-4.49,4.23-4.99,8.09-4.62,3.51-7.27,6.63-14.6,10.53-21.48,2.31-4.07,5.23-8.32,8.96-10.96,11.23-7.94,23.7-12.03,37.88-11.2,7.66.45,14.4,2.09,20.46,6.61,3.04,2.27,5.95,4.72,9.15,7.28,9.08-4.84,18.27-10,27.7-14.72,33.48-16.75,64.3-37.59,93.5-60.87,11.59-9.24,17.98-21.6,19.86-36.25.18-1.43-.32-3.52-1.31-4.44-5.47-5.04-11.19-9.81-16.82-14.67ZM606.01,297.35c1.72,3.18,3.97,7.4,6.28,11.58,6.48,11.77,12.94,23.56,19.49,35.3,4.13,7.4,8.45,14.68,12.59,22.07,6,10.72,11.91,21.5,17.88,32.25,1.94,3.49,3.48,7.31,5.99,10.33,9.42,11.34,20.47,21.21,33.41,28.03,14.02,7.39,28.92,13.16,43.68,19.03,3.2,1.27,6.44,3.94,11.15,1.53,9.53-4.88,16.68-1.94,18.38,8.56.13.82.19,1.71.56,2.42.84,1.64,1.53,3.56,2.85,4.72,11.38,9.99,25.59,14.83,39.25,20.29,15.55,6.21,31.77,10.72,47.66,16.09,11.89,4.02,23.97,3.51,35.93,1.11,14.33-2.87,27.11-9.82,40-16.41,13.62-6.97,23.08-17.83,29.38-31.42,5.57-12.02,10.46-24.36,15.58-36.59,8.58-20.47,14.59-41.57,11.73-63.97-.82-6.38-4.14-12.92-7.85-18.32-3.87-5.63-9.51-10.08-14.59-14.82-1.03-.97-3.34-1.74-4.47-1.25-11.95,5.2-24.37,7.8-37.33,6.4-5.65-.61-11.77-1.47-16.6-4.15-9.63-5.35-18.68-11.8-27.65-18.24-7.13-5.12-13.46-11.38-20.74-16.25-6.15-4.11-12.82-8.07-19.84-10.08-12.75-3.66-25.92-5.86-38.93-8.59-16.25-3.41-32.26-8.42-49.18-7.4-3.5.21-7.02.03-10.67.03-.89,5.56-4,9.12-8.58,12.27-8.28,5.69-15.92,3.24-23.36-.94-2.96-1.66-5.09-1.57-7.81-.24-9.75,4.78-20.13,6.1-30.62,3.93-10.68-2.22-21.16-5.42-31.74-8.16-.96-.25-2-.21-2.95-.47-2.37-.66-4.71-1.42-6.85-2.08-10.21,7.47-20.63,15.1-32.05,23.45ZM962.7,310.94c-3.68-8.13-7.14-16.18-10.92-24.08-8.5-17.74-12.89-37.39-26.18-52.93-9.26-10.83-17.17-22.81-26.02-34.02-2.87-3.63-6.79-6.42-11.06-10.36.73,5.48.13,10.27-5.03,9.18-5.88-1.24-7.74,5.42-12.72,4.74-2.33,6.17-7.76,5.68-12.87,6.15-4.37.41-8.69,1.8-13.03,1.77-4.75-.03-9.5-1.12-14.22-1.92-1.77-.3-4.09-2.09-5.08-1.47-4.74,2.96-9.31.78-13.98.43-2.12-.16-4.3.7-6.46.81-1.4.07-3.3.12-4.16-.69-4.61-4.32-9.65-3.54-15.21-2.52-4.38.8-9.13,1.73-13.29-1.98-1.17-1.04-4.22-.98-5.89-.25-6.24,2.71-7.8,2.26-9.71-2.63-4.35,0-10.09,1.47-11.43-.33-2.21-2.96-4.89-3.79-7.6-5.16-5.64-2.86-10.89-6.83-17.57-6.95-1.74-.03-4.25.2-5.09,1.31-1.55,2.04-3.53,4.37-1.5,7.62,3.24,5.19,6.11,10.62,9.04,16,1.56,2.86,2.46,6.2,4.48,8.65,6.61,8,11.19,16.5,8.9,27.44,3.92,1.5,7.75,2.97,11.59,4.44,1.33-.52,2.79-1.59,4.24-1.59,19.3,0,38.62-.25,57.89.49,7.28.28,14.68,2.33,21.62,4.74,7,2.43,13.29,6.9,20.27,9.45,18.32,6.68,34.9,16.03,49.41,29.15,3.37,3.05,7.46,5.66,11.68,7.34,7.21,2.89,14.64,5.5,22.21,7.09,9.03,1.9,18.31,2.94,27.69.08ZM589.23,269.29c.88-.3,1.55-.4,2.07-.74,3.59-2.28,6.88-5.61,10.79-6.71,7.43-2.09,15.1-3.94,23.03-1.8,2.82.76,5.85,1,8.79,1.03,10.06.1,20.17-.57,30.19.16,9.68.71,19.23,2.96,28.88,4.23,13.46,1.76,20.58-8.58,29.22-15.88.66-.56.78-2.27.54-3.3-1.38-5.91-2.48-11.95-4.62-17.59-1.39-3.67-4.27-6.81-6.7-10.03-2.84-3.76-5.86-7.39-8.89-11-1.2-1.43-2.4-3.31-3.99-3.87-7.06-2.45-13.78-5.28-21.91-4.52-17.69,1.66-35.03-1.3-52.02-6.66-13.27-4.18-23.57-11.96-31.11-23.52-1.39-2.14-2.42-4.52-3.6-6.77-10.4,5-41.84,49.42-57.84,81.48,11.94,5.03,23.87,9.97,35.72,15.09,7.31,3.16,16.46,2.41,21.45,10.39ZM697.42,168.99c3.59,2.36,6.42,4.57,9.56,6.16,1.58.8,4.23,1.3,5.5.51,2.51-1.57,4.12-1.25,6.2.47,1.01.84,2.56,1.12,3.92,1.45,2.87.69,5.82,1.1,8.67,1.89,4.97,1.38,8.52,6.68,14.55,5.31.35-.08.86.43,1.26.71,2.58,1.81,4.92,4.39,7.78,5.25,3.73,1.12,7.86.89,11.82,1.21,2.78.22,5.57.38,8.35.59,1.85.14,3.69.45,5.54.5,4.12.1,8.26-.13,12.36.2,2.8.22,5.46,1.99,8.17-.77.58-.6,3.43.07,4.43,1,4.28,3.99,8.76,5.41,14.61,3.63,3.43-1.05,7.78-1.89,10.88-.67,6.61,2.59,12.4,3.31,18.5-1.03,1.27-.9,3.76-.03,5.68-.1,1.52-.05,3.26.15,4.51-.5,4.5-2.34,8.2-7.6,13.19-3.61,3.94-2.31,7.17-4.19,11.01-6.44-5.42-4.04-10.97-8.16-16.51-12.3-7.68-5.74-15.1-11.87-23.07-17.17-24.54-16.35-51.93-22.97-81.18-22.86-17.13.06-34.27.01-51.4,0-8.64,0-9.73.73-11.88,9.13-.73,2.87-1,5.89-1.24,8.86-.5,6.45-.84,12.92-1.2,18.59ZM688.02,132.4c-31.85-.52-61.5,6.18-88.45,23.48,1.72,5.7,4.07,10.94,9.4,13.74,7.15,3.76,14.27,7.94,21.91,10.29,16.34,5.01,32.89,10.11,50.38,5.89,1.25-.3,3.25-1.17,3.35-1.96.75-6.39,1.1-12.82,1.61-19.24.58-7.27,1.28-14.53,1.76-21.81.22-3.26.04-6.54.04-10.4ZM484.49,312.63c-1.19.95-1.88,1.24-1.91,1.57-.43,6.1-.87,12.19-1.04,18.3-.02.81,1.26,1.89,2.18,2.45,12.31,7.59,32.15,3.21,40.14-8.8,1.38-2.07,2.45-4.57,4.32-6.06,3.74-2.99,3.44-6.55,1.38-9.69-4.9-7.46-10.1-14.75-15.65-21.73-2.19-2.75-5.38-5.04-8.57-6.6-4.97-2.44-6.25-1.21-8.17,4.02-1.9,5.17.17,8.18,4.51,9.9,4.58,1.81,7.8,4.84,10.19,8.95,2.82,4.84,1.37,9.32-1.41,13.54-2.44,3.7-5.84,5.09-10.34,4.21-2.02-.39-4.27-.25-6.31.17-5.33,1.11-6.77.15-7.71-5.39-.26-1.53-.98-2.98-1.62-4.85ZM829.49,612.91c1.72.53,4.04,1.53,6.46,1.95,16.31,2.8,32.48,1.78,48.43-2.39,28.62-7.48,57.16-15.32,85.81-22.69,20.32-5.22,40.35-11.22,59.42-20.09,4.37-2.03,8.57-4.4,12.85-6.62-.29-.68-.58-1.35-.88-2.03-4.89,1.59-9.76,3.23-14.67,4.76-11.38,3.53-22.78,6.98-34.16,10.52-9.99,3.11-19.94,6.37-29.95,9.43-14.6,4.46-29.6,7.85-43.75,13.43-18.23,7.18-36.65,11.63-56.28,10.95-3.61-.13-7.25.92-10.9,1.21-7.69.61-15.4,1.09-22.38,1.57ZM792.82,588.41c6.2,14.68,17.91,20.65,32.18,23.06-12.7-4.95-19.42-16.53-28.6-25.74-1.29.96-2.44,1.83-3.59,2.69ZM709.62,199.71c-4.13,4.28-4.35,6.95-.2,11.39,3.47,3.72,7.45,6.96,11.2,10.41.31-.17.62-.34.93-.51-3.89-6.94-7.78-13.89-11.93-21.29ZM721.92,224.16c.39,1.93.57,3.05.84,4.15,1.41,5.89,2.67,11.81,4.37,17.61.39,1.34,2.3,2.23,3.93,3.7,2.46-9.25-1.41-19.79-9.14-25.47ZM601.1,282.77c6.88-3.93,14.72-5.76,19.94-11.79-.29-.6-.57-1.2-.86-1.8-7.29,3.19-14.57,6.37-22.33,9.77,1.11,1.31,2.11,2.49,3.25,3.82ZM720.34,270.61c4.17,0,6.8.15,9.39-.08.89-.08,2.15-.95,2.43-1.75.31-.87-.13-2.89-.56-2.99-2.94-.65-6-1.3-8.94-1.06-.79.07-1.33,3.24-2.32,5.88ZM606.89,378.58l-1.9-.64c-1.6,3.22-3.2,6.43-4.8,9.65.46.48.91.95,1.37,1.43,1.97-.37,4.4-.15,5.83-1.23,4.19-3.18-1.67-5.97-.5-9.21ZM615.27,265.72c-.34-.79-.67-1.58-1.01-2.37-6.02,2.6-12.03,5.2-18.05,7.81.32.76.64,1.52.96,2.29,6.03-2.58,12.06-5.15,18.09-7.73ZM494.74,310.76c.36.24.73.48,1.09.72,2.22-1.62,4.44-3.24,7.32-5.34-2.86-1.6-4.8-2.69-7.37-4.13-.41,3.45-.73,6.1-1.04,8.74ZM589.09,292.34c-3.37-1.55-5.88-3.33-8.56-3.64-1.05-.12-2.49,3.01-3.75,4.66.34.45.67.9,1.01,1.35,3.24-.68,6.49-1.36,11.3-2.37ZM864.14,198.58c-.65-.33-1.3-.66-1.96-.99-.66,1.33-2,2.78-1.79,3.94.22,1.2,1.96,2.11,3.04,3.15.84-1.04,2.12-1.99,2.36-3.15.17-.84-1.05-1.96-1.65-2.96ZM784.96,201.8c.17-.34.35-.69.53-1.03-1.29-.98-2.66-2.81-3.85-2.7-1.32.13-2.47,2.02-4.33,3.73h7.65ZM1047.52,559.49c-.13-.13-.24-.24-.36-.36-.11.22-.26.44-.31.67-.02.08.2.22.31.33.12-.22.24-.43.36-.64ZM1043.52,561.49c-.13-.13-.24-.24-.36-.36-.11.22-.26.44-.31.67-.02.08.2.22.31.33.12-.22.24-.43.36-.64ZM1045.52,560.49c-.13-.13-.24-.24-.36-.36-.11.22-.26.44-.31.67-.02.08.2.22.31.33.12-.22.24-.43.36-.64Z"/>
  <path class="cls-5" d="M784.74,889.05c1.69-.42,3.38-1.19,5.07-1.19,169.58-.05,339.17-.05,508.75-.03,1.43,0,2.85.19,5.38.38-4.99,5.89-9.51,10.69-15.72,13.75-1.8.88-3.23,2.5-4.83,3.79-.71.45-1.43.91-2.14,1.36-4.98.2-9.96.3-14.92.62-25.03,1.64-50.16,2.51-75.05,5.36-13.25,1.52-26.05,6.95-39.76,5.86-6.11-.49-12.17-1.54-18.26-2.23-14.99-1.7-29.97-4.37-45-4.77-28.94-.78-57.93-.74-86.87-.09-14.74.33-29.41,3.31-44.17,4.04-29.58,1.46-59.13,1.8-88.64-2.34-28.72-4.02-56.34-11.4-82.62-23.7-.43-.2-.81-.54-1.21-.81Z"/>
  <path class="cls-5" d="M652.05,887.8c40.08,0,80.16,0,120.23.05,1.89,0,3.78.64,5.66.98-6.88,6.39-13.75,12.79-20.63,19.18-7.04,1.62-14.23,2.81-21.06,5.06-3.47,1.15-6.3,4.22-9.43,6.43-.61.07-1.23.14-1.84.2-1.99-.3-3.99-.6-5.98-.9-1.26-.22-2.54-.71-3.77-.6-4.6.42-9.17,1.36-13.77,1.51-14.21.47-26.78-4.07-37.41-13.49-5.62-4.98-10.21-10.83-12-18.4v-.02Z"/>
  <path class="cls-18" d="M959.45,1018.7c8.91,0,17.83-.09,26.74.04,3.64.05,7.31.38,10.91.94,3.8.59,6.61,2.4,6.06,6.95-.47,3.87-3.85,6.61-8.01,6.47-13.47-.46-26.94-.93-40.41-1.38-1.62-.05-3.24,0-6.26,0,1.11,6.45,2.06,12.34,3.16,18.21.7,3.72.48,7.32-3.12,9.16-3.53,1.8-7.16.86-8.77-3-1.75-4.2-3.77-8.69-3.91-13.11-.68-20.12-.76-40.26-.98-60.39-.02-1.96-.16-4.33.84-5.78,1.25-1.82,3.56-3.89,5.5-3.99,1.95-.1,4.68,1.66,5.85,3.42,1.26,1.89,1.45,4.71,1.5,7.14.17,8.29.06,16.58.06,25.66,3.97-2.49,7.33-4.81,10.88-6.78,7.25-4.03,14.53-8.05,21.96-11.72,2.77-1.37,5.99-1.94,9.07-2.54,2.83-.54,5.55.09,6.23,3.4.66,3.18,1.71,6.71-2.44,8.65-3.01,1.41-6.02,2.79-9.01,4.24-8.77,4.27-17.52,8.57-26.27,12.85.14.51.29,1.03.43,1.54Z"/>
  <path class="cls-9" d="M1071.74,1024.52c-.26,1.7-.86,4.63-1.13,7.58-.83,8.91,3.53,14.69,12.2,16.59,10.21,2.24,19.15-.62,27-7,2.88-2.34,5.24-3.12,8.34-.75,3.25,2.49,3.37,5.87,1.88,8.94-1.16,2.39-3.26,4.82-5.57,6.08-10.78,5.91-22.33,8.67-34.6,6.26-16.24-3.18-26.64-18.05-23.53-34.45,3.44-18.16,12.14-32.6,30.97-38.65,9.7-3.12,20.94,2.74,23.5,12.04,1.53,5.54.23,10.27-3.82,14.13-7.21,6.86-16.24,10.43-25.7,12.45-2.73.58-6.12-1.98-9.54-3.23ZM1076.13,1015.56c11.27-.83,17.26-4.98,16.79-11.44-8.35-2-13.24,1.25-16.79,11.44Z"/>
  <path class="cls-9" d="M1142.44,1022.18c-.69,4.38-1.5,7.79-1.71,11.24-.46,7.66,4.01,13.3,11.68,15.15,10.53,2.53,19.74-.45,27.96-7,2.24-1.78,4.14-3.14,7.05-1.28,3.09,1.97,4.72,4.72,3.26,7.97-1.29,2.86-3.24,6.1-5.81,7.56-10.84,6.15-22.58,8.89-35.02,6.33-14.7-3.02-23.88-14.93-23.69-30.24.22-18.13,14.16-37.18,31.25-42.72,6.98-2.26,16.09.4,20.74,6.06,5.03,6.12,4.69,14.81-1.13,20.28-7.11,6.69-16.05,9.94-25.25,12.37-4.04,1.07-6.57-.68-9.32-5.72ZM1146.64,1015.46c10.89-.45,17.42-5.08,16.33-11.57-8.74-1.33-13.88,2.31-16.33,11.57Z"/>
  <path class="cls-18" d="M787.16,1005.97c-6.06-1.03-12.08-2.37-18.18-3.01-5.27-.55-10.66-.01-15.94-.53-2.12-.21-5.1-1.45-5.89-3.09-1.35-2.8-1.2-6.43,2.07-8.38,1.9-1.13,4.39-2.29,6.42-2.02,12.33,1.63,24.6,3.64,36.88,5.62,1.61.26,3.14,1.05,4.68,1.67,7.04,2.83,11.19,10.75,3.24,17.18-7.32,5.92-15.41,10.91-23.22,16.22-3.96,2.7-8.06,5.19-12.05,7.83-.62.41-1.01,1.15-2.35,2.73,12.03-1.48,22.8-2.98,33.62-3.98,2.2-.2,5.38.82,6.71,2.43,3.98,4.82,2.93,8.12-3.09,9.92-4.58,1.36-9.42,1.9-14.18,2.56-8.89,1.23-17.8,2.35-26.71,3.4-5.22.61-8.83-1.88-11.58-6.19-2.62-4.1-2.13-8.22.5-11.65,3.4-4.43,7.07-8.98,11.53-12.22,7.5-5.43,15.72-9.88,23.65-14.72,1.23-.75,2.52-1.42,3.78-2.13.03-.54.06-1.08.09-1.62Z"/>
  <path class="cls-9" d="M862.15,1016.22c0,19.17-18.18,34.14-34.49,29.73-10.45-2.82-14.63-9.04-14.08-22.11.62-14.68,7.48-27.09,15.5-38.85,1.04-1.52,4.66-2.39,6.68-1.9,4.09.99,8.54,2.34,11.72,4.92,9.22,7.49,15.85,16.67,14.67,28.21ZM836.62,998.38c-4.8,8.74-8.04,17.69-8.57,27.45-.3,5.57,5.34,9.02,10.29,6.34,6.83-3.7,10.54-9.29,10.23-17.38-.32-8.11-4.63-13.07-11.95-16.41Z"/>
  <path class="cls-18" d="M1217.78,978.98c4.03.88,8.22,1.34,12.04,2.78,2.47.93,5.13,2.88,6.37,5.12,1.09,1.95,1.27,5.6.1,7.27-1.02,1.46-4.56,1.83-6.86,1.56-3.42-.39-6.69-1.88-10.08-2.7-6.16-1.49-9.13,1.02-9.01,7.46.14,7.01,3.6,12.67,7.52,18.11,2.72,3.77,6.01,7.2,8.26,11.22,2.49,4.44,4.84,9.2,5.92,14.12,2.54,11.55-8.05,20.94-19.48,17.81-4.53-1.24-7.47-4.96-7.45-9.43.02-4.07,2.62-6.43,6.67-6.04.66.06,1.34.35,1.97.26,1.56-.23,3.09-.61,4.64-.94-.46-1.48-.61-3.15-1.41-4.41-4.56-7.14-9.48-14.05-13.85-21.3-2.64-4.38-4.92-9.08-6.63-13.89-5.22-14.65,1.22-24.6,16.7-26.29,1.48-.16,2.98-.2,4.47-.29.04-.13.08-.27.12-.4Z"/>
  <path class="cls-9" d="M1031.35,978.93c4.19.93,8.65,1.27,12.49,2.98,2.77,1.23,5.27,3.97,6.82,6.65.85,1.48.15,4.78-1.06,6.25-.99,1.2-3.9,1.45-5.78,1.13-3.74-.65-7.34-2.11-11.05-2.99-5.72-1.36-9,1.37-8.78,7.34.3,7.89,4.46,14.09,8.98,20.16,3.17,4.26,6.51,8.47,9.02,13.11,1.93,3.57,3.31,7.69,3.85,11.71,1.51,11.22-9.1,19.76-19.95,16.34-4.43-1.39-6.88-4.56-7.09-9.22-.17-3.95,2.67-6.51,6.59-6.16.99.09,2.01.48,2.96.33,1.38-.22,2.71-.8,4.05-1.23-.4-1.2-.58-2.56-1.25-3.58-3.93-5.97-8.19-11.73-11.92-17.82-3.03-4.94-5.87-10.08-8.1-15.41-7.32-17.45,1.09-29.46,20.2-29.58Z"/>
  <path class="cls-18" d="M892.77,1000.86c8.69-4.9,17.32-6.69,26.46-4.15,3.63,1.01,6.92,2.65,6.6,7.42-.35,5.29-3.15,7.77-8.22,6.35-13.84-3.88-22.62,2.41-26.02,18.33-2.22,10.39-3.35,21.01-5.37,31.45-1.43,7.35-2.74,8.16-8.12,7.13-4.06-.78-7.61-6.43-5.94-11.17,5.96-16.87,4.62-34.45,5.7-51.79.21-3.32-.06-6.66.11-9.98.23-4.37,2.24-7.08,7-7.47,4.85-.4,5.88,2.83,6.65,6.39.48,2.26.72,4.57,1.15,7.49Z"/>
  <path class="cls-11" d="M719.01,918.81c1.99.3,3.99.6,5.98.9-.83.77-1.56,1.69-2.51,2.27-10.75,6.7-22.21,9.44-35.02,7.94-21.67-2.53-40.78-19.71-44.41-41.03-.85-4.99-1.31-10.04-1.94-15.06,2.45-11.92,6.07-23.35,14.1-32.88-.24,2.97-.47,5.95-.71,8.92-4.01.32-5.28,3.22-5.37,6.49-.23,8.52-.6,17.07,2.64,25.3.71,1.8.21,4.08.27,6.13,0,0,.01.02.01.02-1.88,0-3.77,0-6.38,0,2.62,8.64,6.6,15.31,11.96,20.93,13.05,13.67,29.18,19.12,47.8,15.78,4.72-.85,9.06-3.76,13.58-5.72Z"/>
  <path class="cls-12" d="M1281.25,907.11c.71-.45,1.43-.91,2.14-1.36,13.46-3.33,19.7-7.05,27.83-16.71-.85-.77-1.7-1.54-3.09-2.79,1.44-.53,2.38-1.02,3.37-1.2,2.78-.48,5.61-.69,8.36-1.27,2.05-.43,4.02-1.88,6.01-1.86,25.71.23,48.77-20.96,50.52-47.95.05-.73.66-1.43,1.01-2.15.92,1.71,1.83,3.41,2.75,5.12-.58,1.67-1.48,3.31-1.7,5.02-3.24,25.79-25.78,46.08-51.73,45.38-5.99-.16-9.33,1.83-13.1,5.59-8.89,8.86-19.64,13.9-32.38,14.17Z"/>
  <path class="cls-8" d="M641.11,873.83c.64,5.02,1.09,10.07,1.94,15.06,3.63,21.32,22.74,38.5,44.41,41.03,12.81,1.5,24.27-1.24,35.02-7.94.94-.59,1.68-1.51,2.51-2.27.61-.07,1.23-.14,1.84-.2.67.07,1.34.14,2.01.21-7.48,8.75-17.4,13.11-28.41,14.93-15.99,2.63-30.06-2.05-42.67-12.02-13.22-10.45-21.67-34.77-16.66-48.79Z"/>
  <path class="cls-11" d="M728.85,919.71c-.67-.07-1.34-.13-2.01-.21,3.12-2.21,5.95-5.28,9.42-6.43,6.83-2.25,14.02-3.44,21.06-5.06-6.95,3.22-13.85,6.54-20.86,9.6-2.39,1.04-5.06,1.41-7.61,2.09Z"/>
  <path class="cls-11" d="M783.97,566.1c2.76,2.51,5.52,5.01,8.27,7.53.09.09.07.3.21,1.03-1.55,1.17-3.31,2.51-5.08,3.84-1.13-4.13-2.27-8.26-3.4-12.4Z"/>
  <path class="cls-3" d="M665.95,855.87c1.07-5.61,1.91-11.28,3.28-16.81,1.51-6.11,3.57-12.07,5.28-18.13,4.2-14.9,11.13-28.29,20.8-40.44,5.01-6.3,8.91-13.48,13.6-20.7,3.42,2.24,6.29,4.12,9.16,6-2.4,4.46-4.24,9.37-7.33,13.29-7.27,9.24-12.54,19.2-15.76,30.6-2.49,8.85-6.97,17.13-10.16,25.81-1.7,4.62-2.91,9.49-3.7,14.35-1.27,7.86-6.33,10.49-13.28,6.5-.54-.31-1.26-.32-1.89-.47Z"/>
  <path class="cls-14" d="M606.01,297.35c11.42-8.36,21.84-15.99,32.05-23.45,2.14.66,4.48,1.42,6.85,2.08.95.27,1.99.22,2.95.47,10.57,2.74,21.05,5.94,31.74,8.16,10.49,2.18,20.87.85,30.62-3.93,2.72-1.33,4.86-1.42,7.81.24,7.44,4.18,15.07,6.63,23.36.94,4.58-3.14,7.68-6.71,8.58-12.27,3.64,0,7.17.18,10.67-.03,16.93-1.01,32.94,3.99,49.18,7.4,13.01,2.73,26.18,4.93,38.93,8.59,7.02,2.01,13.69,5.98,19.84,10.08,7.28,4.87,13.61,11.13,20.74,16.25,8.97,6.44,18.02,12.89,27.65,18.24,4.83,2.68,10.95,3.54,16.6,4.15,12.96,1.4,25.38-1.21,37.33-6.4,1.13-.49,3.44.28,4.47,1.25,5.08,4.74,10.72,9.19,14.59,14.82,3.71,5.41,7.04,11.94,7.85,18.32,2.86,22.4-3.15,43.5-11.73,63.97-5.12,12.23-10.01,24.57-15.58,36.59-6.3,13.59-15.75,24.45-29.38,31.42-12.89,6.6-25.67,13.54-40,16.41-11.97,2.4-24.04,2.91-35.93-1.11-15.89-5.37-32.11-9.88-47.66-16.09-13.65-5.45-27.87-10.3-39.25-20.29-1.32-1.16-2.01-3.08-2.85-4.72-.37-.71-.42-1.6-.56-2.42-1.7-10.5-8.85-13.44-18.38-8.56-4.71,2.41-7.94-.26-11.15-1.53-14.76-5.87-29.66-11.64-43.68-19.03-12.94-6.82-23.99-16.69-33.41-28.03-2.51-3.02-4.05-6.85-5.99-10.33-5.97-10.74-11.87-21.52-17.88-32.25-4.14-7.39-8.46-14.68-12.59-22.07-6.55-11.74-13.01-23.52-19.49-35.3-2.3-4.18-4.55-8.4-6.28-11.58ZM941.88,360.51c-.88-.6-2.45-1.81-2.53-1.72-2.26,2.6-4.38,5.33-6.51,8.05,1.37.82,2.73,1.63,4.1,2.45,4.74.39,6.1-3.13,7.3-6.58.14-.41-1.53-1.45-2.36-2.2ZM962.77,387.35c-2.63,2.79-3.19,5.75.02,8.32,2.6,2.08,8,1.22,9.39-1.1,1.76-2.94.46-6.68-2.87-8.24-.57-2.9-1.47-5.78-1.61-8.7-.12-2.66-2.04-5.75,1.78-7.88,5.93-3.31,7.13-7.44,5.14-15.36-1.54-6.15-4.88-9.34-11.1-9.41-5.45-.06-10.93.53-16.35,1.22-2.94.38-5.04,2-3.35,5.54q-.02,6.66,6.51,6.6c2.8-.03,5.63.25,8.38-.13,3.83-.54,8.2-.76,8.31-6.34.92,1.71,2.5,3.39,2.59,5.15.12,2.42-.88,4.9-1.4,7.35-2.5-.98-4.99-1.96-7.49-2.91-.28-.11-.62-.04-1.25-.08-.13,1.34-.27,2.66-.44,4.38-2.45-.2-4.81-.82-6.99-.43-1.38.25-3.7,2.3-3.52,3.05.99,4.19-1.68,5.16-4.54,6.45-2.52,1.14-4.94,2.57-7.23,4.13-.55.38-.79,1.94-.47,2.65.31.69,1.82,1.6,2.26,1.38,4.76-2.48,10.59-4.2,13.74-8.07,3.06-3.76,5.55-4.28,10.49-3.25,0,5.11,0,10.4,0,15.68ZM774.39,358.06c-3.73,1.22-7.41,2.54-7.43,7.43-.02,4.98,3.36,6.64,7.48,7.92,2.83.88,5.87,1.97,8.04,3.86,6.35,5.53,13.96,7.89,21.74,10.39,16.63,5.35,33.02,9.12,49.07-1.53.41-.27.89-.45,1.35-.63,10.01-4,16.98-11.4,22.13-20.53.96-1.69-.09-4.52-.21-6.82,4.74-9.86,9.52-19.7,14.18-29.59,1.56-3.3.44-5.48-3.29-6.08-1.31-.21-2.63-.48-3.95-.53-10.98-.44-20.31-5.53-29.7-10.48,3.52-.22,7.04-.44,10.57-.67l.5-1.2c-2.3-1.26-4.77-2.29-6.87-3.82-10.71-7.76-22.36-11.5-35.8-10.57-11.84.83-21.68,3.91-26.8,15.76-.85,1.96-2.48,3.58-3.75,5.36,1.5.63,2.01.62,2.43.41.74-.36,1.56-.71,2.11-1.29,7.87-8.34,17.59-12.53,28.93-13.71,9.15-.95,17.29.5,23.73,7.62-2.42-.5-4.83-1.04-7.26-1.5-14.41-2.75-28.32-3.03-40.53,7.15-5.21,4.34-11.16,7.82-16.21,12.32-8.27,7.36-17.14,10.98-28.26,7.63-1.43-.43-3.53,1.38-5.32,2.16,1.15,1.44,2.02,3.71,3.49,4.19,8.91,2.91,12.69,11.65,19.62,16.74Z"/>
  <path class="cls-16" d="M614.03,362.45c-.65-.04-1.75-.33-1.89-.08-3.59,6.35-11.09,6.08-16.41,9.59-8.08,5.33-11.83,16.43-6.93,24.78.25.43.52.88.88,1.2,5.79,5.01,12.64,3.44,19.02,2.37,4.94-.83,7.26-5.53,7.42-11.68.04-1.46.14-2.93.16-3.27,5.13-.85,9.71-1.61,14.7-2.44,3.74,5.85,7.77,12.93,12.56,19.45,4.6,6.27,10.04,11.91,14.98,17.94,3.58,4.37,6.65,9.17,10.47,13.3,3.1,3.36,6.53,7.01,10.57,8.79,14.99,6.6,30.3,12.48,45.5,18.62,3.37,1.36,6.87,2.45,10.08,4.11,1.31.68,2.47,2.4,2.89,3.88,3.29,11.47,8.86,18.31,19.95,17.85,3.42-.14,7.01-1.76,10.05-3.52,2.33-1.34,4-2.09,6.18-.22,11.2,9.59,22.75,18.8,33.52,28.85,7.72,7.21,17.08,10.6,26.51,14.23,15.3,5.89,31.2,7.47,47.45,6.88,7.65-.28,15.35-.57,22.96.07,13.96,1.16,26.36-2.77,37.63-10.5,14.51-9.95,28.85-20.15,43.08-30.48,9.25-6.72,15.56-16.23,20.26-26.22,5.2-11.04,10.17-22.76,11.97-34.68,2.22-14.66,1.79-29.87,1.05-44.76-.35-7.03-4.08-13.9-6.28-20.84l.9-.82c13.67,10.08,22.76,24.12,32,37.87,11.32,16.83,22.1,33.91,35.22,49.55,6.3,7.51,10.52,17.33,13.68,26.77,3.99,11.95-.76,22.71-8.75,32-4.01,4.67-7.47,10.03-12.19,13.83-11.07,8.9-21.88,18.83-34.42,25.03-13.33,6.58-28.54,9.35-42.93,13.77-8.9,2.73-17.84,5.33-26.71,8.13-11.72,3.7-23.43,7.48-35.1,11.35-9.75,3.23-19.29,7.22-29.2,9.78-10.39,2.68-21.06,4.62-31.72,5.87-12.52,1.46-25.18,1.87-37.78,2.65-6.86.42-12.03-2.8-16.43-7.77-3.29-3.72-6.79-7.24-10.17-10.83,5.3-6.63,4.7-6.9-2.65-12.19-6.43-4.62-12.69-10-17.5-16.22-8.45-10.92-19.96-16.74-31.95-22.22-7.92-3.62-15.58-7.93-23.75-10.85-8.37-2.99-17.12-5.13-25.87-6.82-15.78-3.04-31.71-5.33-47.52-8.21-9.92-1.81-19.78-3.95-29.59-6.29-3.48-.83-6.67-2.8-10.08-4.02-9.96-3.55-19.95-7.03-29.97-10.44-6.41-2.18-12.99-3.93-19.3-6.37-3.98-1.54-7.62-3.98-11.41-6.01-5.02-4.86-10-9.76-15.11-14.53-1.13-1.05-2.71-1.62-4.08-2.41-10.68-12.69-21.64-25.16-31.87-38.21-3.28-4.17-5.58-9.65-6.68-14.88-2.63-12.55-9.44-22.98-15.44-33.87-.7-1.26-1.11-2.68-1.66-4.03,7.07,3.14,13.71,2.16,20.14-1.88,1.07-.67,2.55-.63,3.78-1.08,8.47-3.07,17.17-5.64,25.25-9.52,3.54-1.7,6.14-5.87,8.5-9.37,2.1-3.12,1.25-6.03-2.88-7.12,1.68-3.93,3.7-7.75,4.94-11.81.96-3.14.94-6.58.77-10.02q3.16-5.37-3.75-12.58c1.39-.22,2.85-.8,4.17-.59,2.83.45,5.59,1.32,9.2,2.22-1.62-6.24-6.11-8.01-10.18-10.3-2.4-1.35-4.9-2.74-6.86-4.62-3.89-3.73-7.4-7.86-11.15-11.74-2.65-2.75-4.69-6.62-9.54-5.75,1.27-1.71,2.75-3.31,3.76-5.17.98-1.81,1.48-3.87,2.05-5.43,7.38,2.05,14.94,4.34,22.6,6.22,3.81.93,8.14.33,11.62,1.84,4.76,2.06,8.99,5.4,13.34,8.34,2.15,1.45,4.07,3.23,6.41,5.12-1.29,2.94-2.91,6.16-4.12,9.52-1.5,4.14.34,6.97,4.41,7.89,3.86.87,7.85,1.39,11.8,1.46,3.1.06,4.73.83,5.78,3.98,3.54,10.66,7.12,21.34,11.34,31.73,2.22,5.45,5.87,10.32,8.77,15.5.78,1.4,1.18,3.02,1.76,4.54-.73,1.92-1.46,3.83-2.19,5.75ZM641.04,417.38c1.46-.7,2.92-1.41,4.37-2.11-1.38-.88-2.65-2.19-4.16-2.57-8.91-2.26-17.89-3.21-26.8.02-1.37.5-2.53,1.56-3.79,2.36,1.3.7,2.56,1.53,3.93,2.06.72.28,1.64.05,2.46.05,1.58,1.34,3.06,3.67,4.76,3.85,5.09.53,10.26.17,15.4.24,2.71.04,4.03-1.14,3.82-3.9Z"/>
  <path class="cls-19" d="M1149.25,448.07c9.73.57,19.55.55,29.17,1.93,6.07.88,11.93,3.65,17.72,5.97,4.08,1.64,5.56,5.06,5.82,9.56,1.03,17.58-2.29,34.38-11.07,49.41-10.7,18.31-21.92,36.75-38.92,49.95-10.27,7.98-22.43,13.5-33.73,20.15-11.87,6.98-23.64,14.14-35.62,20.94-8.66,4.92-17.5,9.54-26.4,14.02-22.3,11.25-45.55,20.09-69.37,27.63-7.84,2.48-15.28,6.49-22.57,10.42-11.04,5.96-23.09,8.33-35.15,10.61-18.29,3.46-36.64,6.62-55.01,9.65-5.06.84-10.27,1.08-15.41,1.07-24.29-.02-48.57-.17-72.86-.39-6.97-.06-13.94-.51-20.92-.78-12.76-.48-24.82-4.3-36.68-8.46-7.19-2.52-10.12-11.24-7.74-19.42,3.5-11.99,10.65-21.2,20.91-28.26,8.2-5.64,15.99-11.88,24.2-17.51,7.21-4.95,14.76-9.42,22.15-14.1,3.71,4.77,6.85,8.8,9.99,12.83-.64,1.1-1.13,2.32-1.94,3.27-5.95,6.93-12.2,13.61-17.89,20.74-4.95,6.2-9.39,12.81-13.85,19.38-.95,1.4-1.04,3.4-1.53,5.12,1.71-.4,3.41-.81,5.12-1.21.86,1.43,1.71,2.87,2.57,4.3,1.4-.9,2.87-1.72,4.18-2.75.62-.48.87-1.39,1.39-2.03,6.42-8.08,12.98-16.05,19.23-24.26,3.81-5.02,7.13-10.4,10.68-15.63,8.48,2.59,16.91,5.33,25.44,7.72,4.11,1.15,8.39,1.67,13.25,2.6-.68,1.48-1.15,2.8-1.86,3.99-5.31,8.87-8.26,18.4-7.66,28.79.1,1.79,1.55,3.5,2.37,5.25.86-1.7,1.75-3.39,2.57-5.11.2-.43.18-.97.26-1.45.28,2.09.19,4.32.95,6.22.6,1.49,2.24,2.57,3.43,3.83,1.11-1.33,2.76-2.5,3.19-4.02.46-1.61-.25-3.55-.43-5.35-.51-5.26-.69-10.22,2.17-15.28,2.86-5.06,4.35-10.9,6.44-16.4,20.39-.86,39.67-7.22,59.82-12.52.36,3.26,1,6.14.95,9.01-.21,12.05,5.29,21.34,13.88,29.09,3.26,2.94,4.2.58,4.41-2.5,4.76-1.56,2.76-4.55,1.19-6.95-4.95-7.56-8.87-15.27-7.51-24.8.26-1.79-1.37-3.85-2.13-5.79,17.64-5.04,35.29-10.08,53.81-15.37-1.47,14.58,8.23,24.65,12.4,36.72.35,1.01,2.47,1.41,3.76,2.09,1.01,2.79,2.59,1.81,3.39.15.65-1.35.8-3.29.37-4.74-3.53-12.02-8.59-23.62-9.69-36.29,18.08-6.93,36.16-13.87,53.93-20.68,2.97.78,6.49,1.32,9.68,2.65,2.97,1.23,6.36,2.71,8.23,5.12,4.52,5.84,8.49,12.16,12.24,18.54,2.41,4.09,3.85,4.7,6.37,1.38.29-1.49,1.16-3.15.78-4.45-4.01-13.6-13.49-22.91-24.65-30.86,2.61-1.71,5.11-3.65,7.86-5.1,9.06-4.8,18.18-9.48,27.36-14.04,1.24-.62,3.18-.88,4.38-.35,10.44,4.6,20.79,9.42,31.16,14.17.3.14.61.41.9.39,1.78-.12,3.55-.31,5.32-.47-.84-1.4-1.68-2.79-2.53-4.19-1.35-1.39-2.48-3.17-4.1-4.1-8.35-4.83-16.82-9.45-25.25-14.15,4.64-7.45,10.99-14.39,13.45-22.5,2.78-9.18,8.45-10.39,15.8-10.37,8.13.02,16.27.59,24.4.78,1.32.03,2.66-.67,3.99-1.03-.55-1.09-1.09-2.18-1.64-3.27,1.52-2.26,1.71-3.86-1.68-4.41-12.23-1.99-24.25-1.03-36.13,2.24-.14-2.64-.45-5.28-.39-7.91.19-8.32-1.59-16.13-6.07-23.87,10.53-4.46,20.87-7.9,32.25-7.03,1.35.1,2.76-.52,4.14-.81-.37-.97-.74-1.93-1.1-2.9.01-1.28.02-2.55.03-3.83Z"/>
  <path class="cls-7" d="M756.96,688.97c11.29.45,22.57,1.23,33.86,1.3,25.78.15,51.58.61,77.32-.37,13.36-.51,26.65-3.61,39.91-5.88,11.79-2.01,23.67-3.84,35.2-6.94,9.85-2.64,19.3-6.82,28.82-10.6,7.53-2.99,14.71-6.96,22.37-9.56,25.99-8.82,51.66-18.29,75.64-31.88,19.05-10.8,38.28-21.29,57.25-32.23,11.49-6.63,23.22-13.08,33.7-21.1,7.36-5.64,12.8-13.79,19.1-20.81,4.52,1.07,9.04,2.14,13.56,3.2,5.63,4.86,11.35,9.63,16.82,14.67.99.91,1.49,3.01,1.31,4.44-1.88,14.64-8.27,27.01-19.86,36.25-29.21,23.28-60.02,44.12-93.5,60.87-9.43,4.72-18.62,9.88-27.7,14.72-3.2-2.56-6.11-5.01-9.15-7.28-6.06-4.52-12.8-6.17-20.46-6.61-14.18-.82-26.64,3.26-37.88,11.2-3.73,2.64-6.65,6.89-8.96,10.96-3.9,6.88-7.02,14.2-10.53,21.48-3.86-.38-7.09.12-8.09,4.62-.18.79-1.55,1.53-2.51,1.88-18.18,6.51-36.59,12.08-55.94,13.82-8.89.8-17.8,1.41-26.69,2.21-4.12.37-8.23.97-12.34,1.47-11.04,1.34-22.06,3.46-33.13,3.85-25.92.92-51.89,1.59-77.82,1.16-11.09-.18-22.63-1.51-32.37-8.32,2.14-3.12,4.16-6.33,6.45-9.34,8.41-11.06,12.52-23.9,15.64-37.18Z"/>
  <path class="cls-4" d="M962.7,310.94c-9.38,2.86-18.66,1.82-27.69-.08-7.58-1.6-15.01-4.21-22.21-7.09-4.21-1.69-8.3-4.3-11.68-7.34-14.51-13.12-31.09-22.47-49.41-29.15-6.98-2.54-13.26-7.01-20.27-9.45-6.94-2.41-14.35-4.46-21.62-4.74-19.28-.75-38.59-.49-57.89-.49-1.46,0-2.92,1.07-4.24,1.59-3.84-1.47-7.67-2.94-11.59-4.44,2.3-10.94-2.29-19.43-8.9-27.44-2.02-2.45-2.92-5.8-4.48-8.65-2.94-5.38-5.8-10.81-9.04-16-2.02-3.24-.04-5.57,1.5-7.62.84-1.11,3.34-1.34,5.09-1.31,6.68.12,11.93,4.08,17.57,6.95,2.7,1.37,5.39,2.2,7.6,5.16,1.35,1.81,7.09.33,11.43.33,1.91,4.88,3.47,5.33,9.71,2.63,1.68-.73,4.73-.79,5.89.25,4.16,3.71,8.91,2.78,13.29,1.98,5.56-1.02,10.61-1.8,15.21,2.52.86.81,2.76.76,4.16.69,2.17-.11,4.34-.97,6.46-.81,4.67.36,9.24,2.53,13.98-.43.99-.62,3.31,1.17,5.08,1.47,4.72.8,9.47,1.89,14.22,1.92,4.34.03,8.66-1.36,13.03-1.77,5.11-.48,10.54.02,12.87-6.15,4.98.68,6.84-5.98,12.72-4.74,5.16,1.09,5.75-3.69,5.03-9.18,4.27,3.94,8.19,6.73,11.06,10.36,8.85,11.2,16.76,23.19,26.02,34.02,13.28,15.53,17.68,35.19,26.18,52.93,3.78,7.9,7.25,15.95,10.92,24.08Z"/>
  <path class="cls-4" d="M589.23,269.29c-4.98-7.98-14.13-7.23-21.45-10.39-11.85-5.12-23.78-10.06-35.72-15.09,15.99-32.06,47.44-76.48,57.84-81.48,1.18,2.25,2.21,4.63,3.6,6.77,7.53,11.57,17.84,19.34,31.11,23.52,16.99,5.36,34.33,8.32,52.02,6.66,8.13-.76,14.84,2.07,21.91,4.52,1.59.55,2.79,2.44,3.99,3.87,3.03,3.61,6.06,7.23,8.89,11,2.43,3.22,5.31,6.36,6.7,10.03,2.14,5.64,3.24,11.68,4.62,17.59.24,1.03.12,2.74-.54,3.3-8.63,7.3-15.75,17.64-29.22,15.88-9.65-1.26-19.2-3.52-28.88-4.23-10.01-.73-20.12-.06-30.19-.16-2.94-.03-5.97-.26-8.79-1.03-7.93-2.14-15.6-.29-23.03,1.8-3.91,1.1-7.2,4.43-10.79,6.71-.52.33-1.19.43-2.07.74Z"/>
  <path class="cls-4" d="M697.42,168.99c.36-5.67.7-12.14,1.2-18.59.23-2.97.5-5.99,1.24-8.86,2.15-8.4,3.24-9.13,11.88-9.13,17.13,0,34.27.06,51.4,0,29.25-.11,56.63,6.51,81.18,22.86,7.97,5.31,15.39,11.43,23.07,17.17,5.54,4.14,11.09,8.27,16.51,12.3-3.84,2.24-7.06,4.13-11.01,6.44-4.99-3.99-8.68,1.27-13.19,3.61-1.26.65-2.99.45-4.51.5-1.92.06-4.41-.81-5.68.1-6.1,4.34-11.89,3.62-18.5,1.03-3.1-1.21-7.45-.38-10.88.67-5.85,1.78-10.33.36-14.61-3.63-1-.94-3.85-1.6-4.43-1-2.7,2.76-5.37.99-8.17.77-4.1-.33-8.24-.09-12.36-.2-1.85-.05-3.69-.35-5.54-.5-2.78-.22-5.57-.37-8.35-.59-3.96-.32-8.1-.09-11.82-1.21-2.86-.86-5.2-3.44-7.78-5.25-.4-.28-.91-.79-1.26-.71-6.02,1.38-9.57-3.93-14.55-5.31-2.84-.79-5.79-1.2-8.67-1.89-1.36-.33-2.9-.61-3.92-1.45-2.08-1.72-3.69-2.04-6.2-.47-1.27.79-3.92.29-5.5-.51-3.14-1.59-5.97-3.79-9.56-6.16Z"/>
  <path class="cls-4" d="M688.02,132.4c0,3.86.18,7.14-.04,10.4-.48,7.28-1.18,14.54-1.76,21.81-.51,6.42-.87,12.85-1.61,19.24-.09.79-2.1,1.65-3.35,1.96-17.49,4.22-34.04-.88-50.38-5.89-7.64-2.34-14.77-6.53-21.91-10.29-5.33-2.8-7.68-8.04-9.4-13.74,26.96-17.3,56.6-24,88.45-23.48Z"/>
  <path class="cls-20" d="M1005.84,365.87c2.59,6.92,6.94,13.73,7.42,20.8.99,14.53,1.83,29.55-.72,43.74-4.93,27.45-17.59,51.08-41.93,66.88-13.08,8.49-25.84,17.52-39.28,25.39-5.2,3.05-11.83,4.68-17.92,5-13.94.72-27.94.08-41.91.28-13.19.19-25.49-3.59-37.92-7.31-14.16-4.24-24.3-13.76-33.83-24.27,1.75.32,3.6.37,5.22,1.01,10.29,3.99,20.61,7.94,30.78,12.24,9.69,4.1,19.61,6.67,30.18,6.44,0,0-.04-.08-.04-.08,1.58.71,3.13,1.94,4.75,2.04,8.71.5,17.44.72,26.17,1.03,3.77-.5,7.56-.93,11.32-1.52,14.86-2.35,27-10.75,39.81-17.76,10.94-5.99,19.61-13.99,25.73-24.93,6.56-11.73,13.88-23.05,20.19-34.91,6.93-13.03,10-27.47,12.43-41.86,1.21-7.19.17-14.77.06-22.17-.05-3.35-.33-6.69-.5-10.04Z"/>
  <path class="cls-19" d="M969.38,734.34c1.51-.62,3.03-1.24,4.01-1.64,3.05,4.28,5.85,8.2,9.16,12.84-7.37,2.49-14.8,5.29-22.4,7.5-8.87,2.58-17.89,4.67-26.85,6.93-1.77.45-3.57.99-5.38,1.06-15.94.58-31.89,1.39-47.84,1.48-11.59.06-23.19-.96-34.79-1.3-2.78-.08-5.79.1-8.34,1.08-7.18,2.76-14.54,3.03-22.07,2.96-16.98-.15-33.97.27-50.94-.19-7.37-.2-14.66-2.3-22.04-3-8.16-.77-15.25-4.01-22.36-7.74-12.94-6.8-18.47-23.83-12.82-37.25,2.83-6.72,6.93-11.61,12.95-15.07,1.95-1.12,4.5-1.18,6.78-1.72.28.56.57,1.12.85,1.68-2.85,4.02-5.71,8.03-8.56,12.05-.8.51-1.87.84-2.36,1.56-5.69,8.31-3.77,20.88,4.16,27.27.78.63,2.03.66,3.07.96,0,0-.02-.01-.02-.01,1.25,1.58,2.18,3.84,3.82,4.64,10.33,5.09,21.13,9.09,32.75,9.39,15.79.41,31.6.31,47.4.19,6.79-.05,13.57-.72,20.35-1.11.75-.27,1.49-.55,2.24-.82,1.58-.06,3.17-.11,4.75-.17,2.29-.08,4.58-.16,6.87-.24,10.58.08,21.18.59,31.74.13,10.89-.47,21.74-1.81,32.6-2.9,20.18-2.03,39.74-6.96,59.12-12.71,1.26-.37,3.01-.6,3.57-1.5.71-1.13.44-2.88.59-4.36Z"/>
  <path class="cls-20" d="M1053.84,686.92c11.36,6.9,16.32,15.06,12.46,23.33-2.62,5.62-5.74,11.4-10.01,15.77-10.64,10.87-23.56,17.85-39.23,17.9-7.28.03-14.69-.28-20.43-6.02-.76-.76-2.09-.95-3.15-1.41.5-10.85,5.83-19.54,12.43-27.65.29,1.99.58,3.98.88,5.96.26,3.76,2.73,4.56,5.87,4.18,5.75-.7,7.2-4.09,4.83-11.08,2.62-.06,6.4,1.72,6.94-2.45.54-4.19-3.29-4.86-6.44-5.32-2.12-.31-4.31-.14-6.47-.19,7.42-7.55,15.22-14.45,26.79-14.01,5.19.19,10.37.66,15.56,1ZM1031.95,694.65c-.01,1.69-.71,4.22.11,4.9,1.88,1.55,4.76,3.3,6.76,2.85,1.63-.36,2.57-3.8,3.81-5.88.79.13,1.75.02,2.36.43,2.51,1.68,5.36,3.45,6.86-.54,1.28-3.4-1.26-5.89-4.37-6.61-3.16-.74-6.56-.65-9.85-.63-3.46.03-5.63,1.74-5.67,5.48ZM1037.54,718.81c2.37,1.02,4.95,4.29,7.2.54,2.22-3.71-.97-5.89-3.69-7.45-7.06-4.06-15.41-.9-18.17,6.69-.51,1.39-.77,2.87-1.14,4.32-3.42,1.34-2.12,2.86.06,3.87,8.26,3.82,13.35,1.19,15.74-7.96Z"/>
  <path class="cls-13" d="M835.93,266.34c1.35.65,2.69,1.31,4.03,1.96.99.36,1.99.73,2.98,1.09,0,0-.07-.06-.07-.06,1.76,1.57,3.33,3.52,5.36,4.57,1.16.6,3.08-.29,4.66-.51,17.62,6.25,32.71,16.34,46.81,28.62,6.13,5.34,14.65,8.53,22.6,11.07,13.02,4.15,26.57,6.13,40.3,3.49,4.56-.88,4.98,2.72,6.98,5.81-3.44,1.43-6.59,3.09-9.95,4.07-15.27,4.46-30.69,5.2-44.76-3.07-10.09-5.93-19.5-13.24-28.42-20.86-10.47-8.94-21.85-16.32-34.42-21.56-6.81-2.83-14.41-3.82-21.72-5.35-15.61-3.28-31.19-6.87-46.93-9.35-10.38-1.63-21.03-1.53-32.01-2.23,0,.03.13-1.37.27-2.77,7.53-.22,15.05-.45,22.58-.65,1.82-.05,3.64-.08,5.45,0,4.78.21,9.65,1.2,14.32.58,10.58-1.4,20.7-.05,30.8,2.96,3.61,1.07,7.42,1.47,11.13,2.18Z"/>
  <path class="cls-25" d="M718.72,453.1c-9.44-3.58-18.85-7.25-28.33-10.72-11.7-4.28-19.11-13.14-26.04-22.95-5.44-7.7-12.39-14.32-17.91-21.98-5.22-7.25-9.61-15.12-14.09-22.88-6.88-11.92-14.11-23.69-20.09-36.06-4.37-9.03-6.95-18.91-10.36-28.4-.72-2-1.64-3.94-2.43-5.92-1.89-4.77-3.72-9.57-5.64-14.33-1.25-3.12-2.5-6.16-6.59-6.69-1.23-.16-2.29-1.55-3.85-2.68,1.83-1.53,3.2-2.66,4.77-3.97,4.29,3.73,7.57,8.23,10.14,13.91,6.61,14.64,14.01,28.95,21.54,43.15,5.36,10.1,11.58,19.74,17.17,29.72,8.84,15.81,16.86,32.12,26.47,47.43,4.47,7.12,11.51,12.84,18.07,18.38,9.26,7.83,19.05,15.04,31.11,18.38,2.29.63,4.22,2.56,6.32,3.89-.08.58-.17,1.15-.25,1.73Z"/>
  <path class="cls-10" d="M484.49,312.63c.64,1.87,1.36,3.32,1.62,4.85.94,5.54,2.38,6.49,7.71,5.39,2.04-.42,4.29-.57,6.31-.17,4.49.87,7.9-.52,10.34-4.21,2.79-4.22,4.23-8.7,1.41-13.54-2.4-4.11-5.61-7.14-10.19-8.95-4.35-1.72-6.41-4.73-4.51-9.9,1.92-5.23,3.2-6.46,8.17-4.02,3.19,1.56,6.38,3.85,8.57,6.6,5.55,6.98,10.75,14.27,15.65,21.73,2.06,3.14,2.37,6.7-1.38,9.69-1.86,1.49-2.94,3.98-4.32,6.06-8,12.01-27.83,16.39-40.14,8.8-.92-.57-2.2-1.65-2.18-2.45.17-6.11.61-12.2,1.04-18.3.02-.33.72-.61,1.91-1.57Z"/>
  <path class="cls-13" d="M1053.63,555.09c3.47-2.55,6.77-5.38,10.44-7.6,12.81-7.74,22.23-19.18,30.78-30.8,8.5-11.55,10.05-25.87,7.36-40.13-.75-3.97-3.07-7.62-4.13-11.55-.66-2.44-1.42-6.09-.18-7.55,2.42-2.85,6.09-1.69,7.82,1.37,3.46,6.14,7.8,12.3,9.22,18.99,5.23,24.64-9.23,51.34-28.98,62.39-10.13,5.67-20.57,10.77-30.87,16.13-.49-.42-.97-.84-1.46-1.26Z"/>
  <path class="cls-15" d="M829.49,612.91c6.98-.48,14.68-.95,22.38-1.57,3.65-.29,7.29-1.33,10.9-1.21,19.63.68,38.05-3.77,56.28-10.95,14.15-5.58,29.16-8.97,43.75-13.43,10.01-3.06,19.96-6.32,29.95-9.43,11.38-3.54,22.78-6.98,34.16-10.52,4.91-1.52,9.78-3.17,14.67-4.76.29.68.58,1.35.88,2.03-4.28,2.21-8.49,4.59-12.85,6.62-19.06,8.87-39.09,14.87-59.42,20.09-28.66,7.36-57.19,15.2-85.81,22.69-15.94,4.17-32.12,5.18-48.43,2.39-2.42-.42-4.74-1.42-6.46-1.95Z"/>
  <path class="cls-27" d="M1005.84,365.87c.17,3.35.45,6.69.5,10.04.11,7.4,1.15,14.98-.06,22.17-2.42,14.39-5.5,28.82-12.43,41.86-6.31,11.86-13.63,23.18-20.19,34.91-6.12,10.95-14.79,18.94-25.73,24.93-12.8,7.01-24.95,15.41-39.81,17.76-3.76.59-7.54,1.02-11.32,1.53-1.91-.29-3.81-.66-5.73-.87-3.07-.34-6.16-.58-9.24-.87,27.42,1.26,50.23-11.23,72-25.44,7.17-4.68,13.03-12.47,17.43-20.03,6.72-11.55,12.35-23.87,17.16-36.36,5.18-13.45,8.99-27.43,13.15-41.26,1.04-3.44,1.46-7.16,1.58-10.76.24-7.28.07-14.57.79-22.06.63,1.49,1.26,2.97,1.89,4.46Z"/>
  <path class="cls-17" d="M834.89,755.92c-1.58.06-3.17.11-4.76.17-.75.27-1.49.55-2.24.82-6.78.39-13.56,1.06-20.35,1.11-15.8.13-31.61.23-47.4-.19-11.62-.3-22.42-4.3-32.75-9.39-1.64-.81-2.56-3.06-3.82-4.64,1.57.38,3.32.44,4.67,1.19,15.37,8.56,32.09,10.16,49.23,9.99,14.82-.15,29.68.7,44.44-.21,20.2-1.24,40.32-3.74,60.49-5.63,3.97-.37,7.98-.31,11.95-.68,10.38-.97,20.9-1.28,31.08-3.3,14.78-2.94,29.3-7.16,43.93-10.83-.15,1.48.12,3.23-.59,4.36-.56.9-2.31,1.12-3.57,1.5-19.38,5.75-38.94,10.68-59.12,12.71-10.86,1.09-21.71,2.43-32.6,2.9-10.56.46-21.16-.05-31.74-.13-2.29.08-4.58.16-6.87.24Z"/>
  <path class="cls-13" d="M1206.47,611.52c1.57-2.13,3.14-4.27,4.7-6.4.44-.37.87-.74,1.31-1.12,0,0-.12.06-.12.06.67-1.04,1.35-2.07,2.02-3.1,0,0-.04.07-.04.07,2.3-4.24,5.84-8.27,6.63-12.77,1.62-9.24,1.76-18.73,2.51-28.12l-1.08-4s.04.08.04.08c-.88-5.46-1.99-10.78-8.15-12.9,0,0,.18-.07.18-.07-.36-.35-.73-.69-1.09-1.04,0,0,.08.07.08.07-.37-.35-.74-.7-1.11-1.04,0,0,.09.14.09.14-.68-.38-1.35-.76-2.03-1.14,0,0,.09.02.09.02-4.53-2.5-9.15-2.89-13.87-.57-3.91,1.71-4.43-1.75-6.03-3.84,10-1.33,19.43-1.76,28.64,3.86,10.59,6.46,14.47,15.47,14.53,27.36.03,5.27-.26,9.8-3.3,14.43-2.58,3.94-3.14,9.2-5.69,13.16-4.81,7.47-10.64,14.26-15.62,21.63-7.18,10.64-16.59,18.95-26.95,26.16-4.69,3.27-10.27,5.27-15.45,7.84,1.29-1.2,2.44-2.59,3.88-3.57,6.25-4.28,12.66-8.34,18.87-12.68,8.06-5.65,12.69-13.97,16.98-22.51Z"/>
  <path class="cls-27" d="M1206.47,611.52c-4.29,8.54-8.92,16.86-16.98,22.51-6.2,4.35-12.61,8.4-18.87,12.68-1.43.98-2.59,2.37-3.88,3.57,0,0,0-.04,0-.04-.68.37-1.35.73-2.03,1.1,0,0,.09-.06.09-.06-.44.27-.88.55-1.32.82-7.33,4.24-14.66,8.49-21.99,12.73-.91.83-1.82,1.65-2.73,2.47,0,0,.05-.05.05-.05-.39.3-.79.6-1.18.9,0,0,.04-.03.04-.03-1.36.44-2.82.69-4.07,1.34-7.22,3.73-14.43,7.47-21.56,11.37-8.84,4.84-17.58,9.87-26.4,14.76-2.29,1.27-4.7,2.3-7.06,3.45-.5-1.88-1-3.77-1.25-4.71,15.9-8.6,31.65-16.99,47.28-25.59,25.81-14.2,49.63-31.33,72.75-49.5,3.13-2.46,6.08-5.14,9.11-7.72Z"/>
  <path class="cls-3" d="M756.96,688.97c-3.12,13.27-7.23,26.11-15.64,37.18-2.29,3.01-4.31,6.22-6.45,9.34-.79-.24-1.6-.44-2.38-.71-8.24-2.88-8.66-3.98-4.75-11.75,6.09-12.1,12.12-24.22,18.38-36.75,3.54.88,7.19,1.79,10.84,2.7Z"/>
  <path class="cls-3" d="M539.1,336.34c4.13,1.09,4.98,4,2.88,7.12-2.36,3.5-4.96,7.67-8.5,9.37-8.08,3.88-16.79,6.45-25.25,9.52-1.23.45-2.72.41-3.78,1.08-6.43,4.04-13.08,5.02-20.14,1.88-1.29-3.49,2.51-8.72,6.83-8.79,11.59-.19,21.46-5.21,31.22-10.62,5.62-3.12,11.16-6.37,16.74-9.56Z"/>
  <path class="cls-27" d="M1053.84,686.92c-5.19-.34-10.37-.8-15.56-1-11.56-.43-19.36,6.46-26.79,14.01-1.86,2.97-3.73,5.93-5.6,8.9-6.6,8.12-11.93,16.8-12.43,27.65-2.33-1.41-4.66-2.82-6.99-4.23,1.4-1.53,2.84-3.03,4.19-4.61,1.05-1.24,2.57-2.46,2.84-3.9,2.04-10.61,8.41-19.25,12.86-28.75.66-1.42,1.95-2.7,3.24-3.65,11.15-8.27,23.85-10.42,37.27-8.63,2.46.33,4.65,2.74,6.96,4.19Z"/>
  <path class="cls-13" d="M702.85,269.81c4.82-2.01,4.32,3.25,7.47,4.66-9.81,5.96-19.65,6.96-29.68,4.88-10.63-2.2-21.06-5.3-31.61-7.89-2.39-.59-4.89-.68-7.34-1.02-.07,0-.19-.33-.14-.43.12-.26.32-.47.49-.71,10.55.63,21.1,1.17,31.64,1.93,7.89.57,15.75,1.68,23.65,1.98,1.79.07,3.68-2.2,5.52-3.4Z"/>
  <path class="cls-3" d="M516.7,271.15c4.85-.87,6.89,3,9.54,5.75,3.75,3.88,7.26,8.01,11.15,11.74,1.96,1.88,4.46,3.28,6.86,4.62,4.07,2.28,8.56,4.06,10.18,10.3-3.61-.9-6.37-1.76-9.2-2.22-1.33-.21-2.78.37-4.17.59-7.62-6.82-15.6-13.3-22.62-20.69-1.87-1.97-4.43-6.19-1.73-10.09Z"/>
  <path class="cls-17" d="M805.72,610.24c-3.54,5.22-6.86,10.61-10.68,15.63-6.24,8.21-12.81,16.18-19.23,24.26-.51.64-.77,1.55-1.39,2.03-1.31,1.02-2.78,1.84-4.18,2.75-.86-1.43-1.71-2.87-2.57-4.3,2.15-2.72,4.3-5.45,6.47-8.16,9.25-11.61,18.51-23.21,27.77-34.82,1.27.87,2.54,1.74,3.81,2.62Z"/>
  <path class="cls-23" d="M801.91,607.63c-9.26,11.61-18.51,23.21-27.77,34.82-2.16,2.71-4.31,5.44-6.47,8.16-1.7.4-3.41.81-5.12,1.21.49-1.72.57-3.71,1.53-5.12,4.46-6.57,8.9-13.19,13.85-19.38,5.7-7.13,11.94-13.81,17.89-20.74.81-.95,1.3-2.17,1.94-3.27,1.38,1.44,2.76,2.88,4.14,4.31Z"/>
  <path class="cls-21" d="M655.97,194.43c-4.57-.54-9.33-.44-13.66-1.76-9.96-3.04-20.37-5.56-29.38-10.51-11.25-6.18-19.25-16.04-21.32-29.5-.26-1.72-.26-3.48-.43-5.81,5.57,2.82,6.19,8.12,7.41,12.38,2.29,7.96,6.59,13.93,13.46,18.26.43.24.85.48,1.28.73l-.24.16s.22-.19.22-.19c3.61,2.03,6.99,4.81,10.86,5.96,9.56,2.82,19.37,4.83,29.02,7.37,1.1.29,1.85,1.91,2.77,2.91Z"/>
  <path class="cls-17" d="M855.83,621.04c-2.09,5.5-3.58,11.34-6.44,16.4-2.86,5.06-2.67,10.02-2.17,15.28.17,1.8.89,3.74.43,5.35-.43,1.52-2.08,2.69-3.19,4.02-1.18-1.26-2.82-2.34-3.43-3.83-.76-1.89-.67-4.13-.95-6.22-.68-9.92,3.42-18.31,7.87-26.81,2-3.82,3.9-5.29,7.88-4.18Z"/>
  <path class="cls-2" d="M865.94,516.08c-10.57.23-20.5-2.34-30.18-6.44-10.16-4.3-20.48-8.25-30.78-12.24-1.63-.63-3.48-.68-5.22-1.01,0,0,.08-.01.08-.01-.67-.37-1.34-.74-2.01-1.11,0,0,.06.03.06.03-.7-.39-1.39-.78-2.08-1.17-3.07-2.32-6.13-4.63-9.2-6.95.45-.08.91-.17,1.36-.25,4.33,1.59,8.8,2.87,12.96,4.81,19.97,9.33,40.26,17.7,61.88,22.48,1.13.25,2.09,1.23,3.13,1.87Z"/>
  <path class="cls-20" d="M767.26,461.96c3.23,4.12,4.16,8.48,1.33,13.21-3.19,5.35-7.24,7.41-13.33,6.4-4.86-.81-8.74-3.02-9.61-8.49,2.95-.86,6.15-1.26,8.78-2.71,4.47-2.46,8.57-5.57,12.83-8.41Z"/>
  <path class="cls-17" d="M835.93,266.34c-3.72-.71-7.53-1.1-11.13-2.18-10.1-3-20.22-4.36-30.8-2.96-4.66.62-9.54-.37-14.32-.58-1.81-.08-3.64-.05-5.45,0-7.53.2-15.05.43-22.58.65-.91-2.42-.03-3.27,2.49-3.26,20.31.06,40.63-.3,60.93.22,7.57.19,14.87,2.93,20.85,8.11Z"/>
  <path class="cls-17" d="M926.44,606.59c.76,1.94,2.38,4,2.13,5.79-1.36,9.53,2.56,17.25,7.51,24.8,1.57,2.4,3.57,5.39-1.19,6.95-3.66-5.01-7.77-9.75-10.87-15.09-3.68-6.33-2.58-13.42-1.11-20.23.21-.95,2.31-1.5,3.54-2.23Z"/>
  <path class="cls-13" d="M1078.59,699.03c2.36-1.14,4.77-2.18,7.06-3.45,8.82-4.89,17.56-9.92,26.4-14.76,7.12-3.9,14.34-7.64,21.56-11.37,1.25-.65,2.71-.9,4.07-1.34-5.04,3.6-10.25,6.99-15.09,10.84-12.71,10.12-27.48,16.12-42.46,21.74-.27.1-1.02-1.08-1.54-1.67Z"/>
  <path class="cls-15" d="M742.93,258.34c1.11,1.37,3.17,2.74,3.17,4.11-.05,12.85-11.8,22.27-22.58,15.33-.63-.4-1.37-.64-1.98-2.02,2.72,0,5.45.05,8.17-.01,5.85-.13,7.47-1.73,7.96-7.68.34-4.15-2.84-7.94-7.31-8.59-1.95-.28-3.92-.39-5.87-.58,3.63-2.19,7.3-2.07,11.3-.8,2.19.69,4.75.2,7.14.25Z"/>
  <path class="cls-21" d="M690.88,149.42c.39-6.54.64-13.08,1.24-19.6.21-2.26.87-4.69,2.05-6.58.88-1.39,2.94-2.04,4.48-3.02.71,1.65,1.96,3.29,2.01,4.97.07,2.26-.77,4.54-1.21,6.81-1.74,8.87-3.48,17.74-5.22,26.61-1.35-.08-2.7-.16-4.04-.25-.01-1.61-.02-3.22-.03-4.82.24-1.37.48-2.75.72-4.12Z"/>
  <path class="cls-27" d="M990.49,589.14c1.1,12.67,6.16,24.27,9.69,36.29.43,1.45.28,3.39-.37,4.74-.8,1.66-2.38,2.64-3.39-.15,2.04-6.38-2.22-11.03-4.64-16.07-3.07-6.41-6.78-12.45-6.3-20.03.22-3.52,1.22-5.4,5.02-4.79Z"/>
  <path class="cls-24" d="M655.97,194.43c-.91-1-1.67-2.62-2.77-2.91-9.65-2.54-19.46-4.55-29.02-7.37-3.87-1.14-7.26-3.92-10.86-5.96,11.04,3.44,22.08,6.87,33.12,10.33,9.68,3.03,19.51,3.72,29.54,2.18,2.27-.35,4.6-.31,6.97-.45,1.89,4.28-.83,4.96-3.62,4.92-7.79-.1-15.57-.47-23.35-.74Z"/>
  <path class="cls-15" d="M792.82,588.41c1.15-.86,2.3-1.72,3.59-2.69,9.17,9.21,15.9,20.79,28.6,25.74-14.28-2.4-25.99-8.38-32.18-23.06Z"/>
  <path class="cls-27" d="M702.85,269.81c-1.84,1.19-3.72,3.47-5.52,3.4-7.9-.3-15.76-1.41-23.65-1.98-10.54-.76-21.09-1.3-31.64-1.93.09-.32.18-.64.26-.95.2-.9.4-1.8.6-2.7,10.8-.67,21.25.26,31.88,3.17,7.59,2.08,16.07.95,24.15,1.2,1.3.04,2.61-.13,3.92-.21Z"/>
  <path class="cls-2" d="M1120.39,494.42c11.89-3.27,23.91-4.22,36.13-2.24,3.38.55,3.19,2.15,1.68,4.41-11.77.06-23.53.03-35.29.25-2.15.04-3.34.14-2.52-2.43Z"/>
  <path class="cls-2" d="M1057.08,560.83c11.15,7.94,20.64,17.25,24.65,30.86.38,1.29-.49,2.96-.78,4.45-3.56-6.11-6.7-12.51-10.77-18.25-5.49-7.75-5.8-7.53-19.76-13.62,2.44-1.26,4.55-2.34,6.66-3.43Z"/>
  <path class="cls-23" d="M706.98,195.06c-.14.14-.28.28-.42.41-.82.03-1.63.05-2.45.09q-10.22.5-11.34-9.08c-.1-1.93-.2-3.86-.3-5.8,2.18-.21,4.36-.43,6.55-.64,2.35.16,4.7.33,7.05.49,0,0-.08-.08-.08-.08.33,4.87.67,9.73,1,14.6ZM697.56,191.2h4.85v-6.78c-1.96.15-3.5.27-5.18.4.12,2.32.21,4.11.33,6.38Z"/>
  <path class="cls-2" d="M1149.25,448.07c0,1.28-.02,2.55-.03,3.83-12.07-.7-23.57,1.77-34.6,6.48-2.48,1.06-3.69.36-4.55-1.86,5.59-1.75,11.16-3.55,16.78-5.23,3.26-.97,6.58-1.75,9.88-2.61,4.18-.2,8.35-.4,12.53-.61Z"/>
  <path class="cls-21" d="M610.03,392.2c.1.13.31.32.28.4-2.8,6.83-8.81,2.89-13.33,3.82-3.19.66-4.38-1.69-5.3-4.6-1.7-5.4-.23-9.83,3.34-13.73,1.03-1.12,2.8-1.56,5.47-2.96-2.49,6.34-7.33,11.7-2.5,16.21,2.31,2.15,7.95.74,12.08.94,0,0-.05-.08-.05-.08Z"/>
  <path class="cls-27" d="M1102.19,532.99c8.43,4.69,16.9,9.31,25.25,14.15,1.62.94,2.74,2.71,4.1,4.1-10.69-4.74-21.39-9.47-32.78-14.52,1.35-1.46,2.39-2.6,3.43-3.73Z"/>
  <path class="cls-1" d="M620.16,363.21c2.01,3.39,4.44,6.62,5.85,10.25.65,1.67-.42,4.25-1.34,6.1-.22.44-2.96-.56-4.54-.55-2.75.02-5.51.31-9.11.54.59-1.55,1.11-2.93,1.63-4.3,3.08.32,4.93-1.06,5.62-4.06.61-2.66,1.25-5.32,1.88-7.98Z"/>
  <path class="cls-17" d="M767.26,461.96c-4.26,2.84-8.36,5.96-12.83,8.41-2.63,1.44-5.83,1.84-8.78,2.71-.95-1.66-1.9-3.32-2.36-4.12,5.5-2.54,10.42-5.24,15.64-7.05,2.48-.86,5.54-.02,8.33.05Z"/>
  <path class="cls-24" d="M709.62,199.71c4.15,7.4,8.04,14.34,11.93,21.29-.31.17-.62.34-.93.51-3.75-3.45-7.73-6.69-11.2-10.41-4.15-4.44-3.92-7.11.2-11.39Z"/>
  <path class="cls-13" d="M550.17,262.37c-9.12-1.25-18.08-3-26.44-8.59,1.04-1.28,1.92-2.36,2.8-3.44,7.84,3.85,15.68,7.7,23.51,11.56.1.05.09.31.13.47Z"/>
  <path class="cls-24" d="M721.92,224.16c7.73,5.68,11.6,16.22,9.14,25.47-1.63-1.47-3.54-2.36-3.93-3.7-1.7-5.8-2.96-11.73-4.37-17.61-.26-1.1-.45-2.22-.84-4.15Z"/>
  <path class="cls-5" d="M601.1,282.77c-1.14-1.34-2.14-2.52-3.25-3.82,7.76-3.39,15.05-6.58,22.33-9.77.29.6.57,1.2.86,1.8-5.21,6.04-13.05,7.86-19.94,11.79Z"/>
  <path class="cls-21" d="M550.17,262.37c-.04-.16-.03-.42-.13-.47-7.83-3.86-15.67-7.71-23.51-11.56.9-2.73,2.63-3,5.01-1.83,8.58,4.21,17.19,8.36,25.79,12.54-.07.49-.14.97-.22,1.45-2.31-.04-4.63-.09-6.94-.13Z"/>
  <path class="cls-2" d="M1223.48,560.14c-.75,9.39-.89,18.88-2.51,28.12-.79,4.51-4.33,8.53-6.63,12.77.79-2.61,1.18-5.43,2.44-7.79,4.62-8.67,3.77-18.1,4.35-27.36.12-1.94.97-3.83,1.48-5.75,0,0,.44,0,.44,0h.44Z"/>
  <path class="cls-19" d="M1136.72,448.68c-3.29.86-6.62,1.64-9.88,2.61-5.61,1.68-11.19,3.48-16.78,5.23-.83-.72-1.65-1.45-2.9-2.54,8.84-3.69,17.2-6.97,26.51-6.33,1.03.07,2.03.67,3.04,1.03Z"/>
  <path class="cls-3" d="M620.16,363.21c-.63,2.66-1.27,5.32-1.88,7.98-.69,3-2.54,4.38-5.62,4.06.46-4.27.92-8.54,1.37-12.81.73-1.92,1.46-3.83,2.19-5.75,1.31,2.17,2.63,4.34,3.94,6.51Z"/>
  <path class="cls-24" d="M623.78,278.1c-6.34,4.47-12.68,8.93-19.56,13.78-1.11-2.66-1.66-3.96-1.86-4.45,7.08-3.52,13.8-6.86,20.53-10.2.3.29.6.58.89.87Z"/>
  <path class="cls-25" d="M574.92,265.18c5.43-1.43,10.93,3.53,9.31,8.66-.42,1.34-2.5,3.11-3.71,3.04-2.28-.14-4.49-1.48-6.73-2.33,2.06-1.41,4.12-2.82,7.3-5-2.31-1.64-4.24-3.01-6.17-4.37Z"/>
  <path class="cls-24" d="M622.89,277.23c1.33-3.66,2.66-7.33,4.19-11.57,1.81.42,4.69,1.08,7.57,1.75.16.52.32,1.04.48,1.56-3.79,3.04-7.57,6.08-11.36,9.12-.29-.29-.59-.58-.89-.87Z"/>
  <path class="cls-2" d="M723.6,743.81c-1.03-.31-2.29-.34-3.07-.96-7.94-6.39-9.85-18.96-4.16-27.27.49-.72,1.56-1.05,2.36-1.56-.29.77-.5,1.58-.87,2.31-4.99,9.87-3.41,18.49,4.8,25.92.43.39.63,1.04.94,1.57Z"/>
  <path class="cls-24" d="M692.76,186.48q1.12,9.58,11.34,9.08c.82-.04,1.63-.06,2.45-.09-1.58,3.69-5.01,4.28-8.03,3.44-3.4-.94-6.44-3.17-9.63-4.83,1.29-2.53,2.58-5.07,3.87-7.6Z"/>
  <path class="cls-2" d="M742.93,258.34c-2.39-.04-4.95.44-7.14-.25-4-1.26-7.66-1.39-11.3.8-1.12-.19-2.23-.38-3.39-.58,3.12-6.73,11.64-5.28,21.83.02Z"/>
  <path class="cls-1" d="M720.34,270.61c.99-2.64,1.53-5.81,2.32-5.88,2.95-.25,6,.41,8.94,1.06.43.09.87,2.12.56,2.99-.29.8-1.54,1.67-2.43,1.75-2.6.23-5.23.08-9.39.08Z"/>
  <path class="cls-5" d="M606.89,378.58c-1.17,3.24,4.69,6.03.5,9.21-1.43,1.09-3.86.86-5.83,1.23-.46-.48-.91-.95-1.37-1.43,1.6-3.22,3.2-6.43,4.8-9.65l1.9.64Z"/>
  <path class="cls-24" d="M718.72,453.1c.08-.58.17-1.15.25-1.73,6.84,1.54,13.37,3.8,19.22,7.61-.21.54-.42,1.07-.63,1.61-6.28-2.5-12.56-5-18.84-7.49Z"/>
  <path class="cls-20" d="M615.27,265.72c-6.03,2.58-12.06,5.15-18.09,7.73-.32-.76-.64-1.52-.96-2.29,6.02-2.6,12.03-5.2,18.05-7.81.34.79.67,1.58,1.01,2.37Z"/>
  <path class="cls-10" d="M1193.68,554.11c-4.52-1.07-9.04-2.14-13.56-3.2,1.03-1.63,2.07-3.26,3.23-5.09,3.66,2.94,6.99,5.62,10.33,8.29Z"/>
  <path class="cls-12" d="M539.96,456.29c1.37.79,2.96,1.35,4.08,2.41,5.11,4.77,10.08,9.67,15.11,14.53-8.87-2.85-13.74-10.22-19.19-16.94Z"/>
  <path class="cls-24" d="M690.19,158.37c1.35.08,2.7.16,4.04.25-.43,4.75.75,9.9-2.57,13.92-.49-.07-.98-.14-1.48-.21v-13.95Z"/>
  <path class="cls-27" d="M574.92,265.18c1.93,1.37,3.86,2.73,6.17,4.37-3.18,2.18-5.24,3.59-7.3,5-2.56-3.48-3.01-6.7,1.13-9.37Z"/>
  <path class="cls-10" d="M494.74,310.76c.31-2.64.63-5.29,1.04-8.74,2.58,1.44,4.52,2.53,7.37,4.13-2.88,2.1-5.1,3.72-7.32,5.34-.36-.24-.73-.48-1.09-.72Z"/>
  <path class="cls-24" d="M589.09,292.34c-4.82,1.01-8.06,1.69-11.3,2.37-.34-.45-.67-.9-1.01-1.35,1.26-1.65,2.7-4.78,3.75-4.66,2.68.32,5.19,2.09,8.56,3.64Z"/>
  <path class="cls-27" d="M699.01,180.05c-2.18.21-4.36.43-6.55.64-.65-.1-1.3-.21-1.95-.31,3.33-5.58,7.24-6.59,11.63-3-1.05.89-2.09,1.78-3.14,2.67Z"/>
  <path class="cls-2" d="M690.51,180.38c.65.1,1.3.21,1.95.31.1,1.93.2,3.86.3,5.8-1.29,2.53-2.58,5.07-3.87,7.6-2.9-4.98.46-9.21,1.62-13.71Z"/>
  <path class="cls-24" d="M706.98,195.06c-.33-4.87-.67-9.73-1-14.6,6.92,5.56,5.81,7.7,1,14.6Z"/>
  <path class="cls-24" d="M557.11,262.5c.07-.48.14-.97.22-1.45,2.98.88,5.96,1.78,8.94,2.65,2.87.83,3.98,2.19,1.63,4.69-3.65-1.99-7.22-3.93-10.79-5.88Z"/>
  <path class="cls-21" d="M881.84,517.33c3.08.28,6.17.53,9.24.87,1.92.21,3.82.58,5.73.87-8.72-.32-17.46-.53-26.17-1.03-1.62-.09-3.17-1.33-4.75-2.04,5.31.44,10.63.89,15.94,1.33Z"/>
  <path class="cls-21" d="M1214.28,543.32c6.16,2.13,7.27,7.44,8.15,12.9-2.72-4.3-5.43-8.6-8.15-12.9Z"/>
  <path class="cls-24" d="M864.14,198.58c.6,1,1.82,2.12,1.65,2.96-.24,1.16-1.52,2.11-2.36,3.15-1.08-1.04-2.82-1.96-3.04-3.15-.21-1.17,1.13-2.62,1.79-3.94.65.33,1.3.66,1.96.99Z"/>
  <path class="cls-24" d="M784.96,201.8h-7.65c1.86-1.71,3.01-3.6,4.33-3.73,1.19-.11,2.56,1.72,3.85,2.7-.18.34-.35.69-.53,1.03Z"/>
  <path class="cls-21" d="M1196.61,539.68c4.73-2.32,9.34-1.94,13.87.57-4.62-.19-9.25-.38-13.87-.57Z"/>
  <path class="cls-21" d="M852.9,273.39c-1.58.22-3.5,1.11-4.66.51-2.03-1.04-3.6-3-5.36-4.57,3.34,1.35,6.68,2.7,10.02,4.06Z"/>
  <path class="cls-6" d="M787.97,486.92c-.45.08-.91.17-1.36.25-1.6-1.61-3.21-3.21-4.81-4.82,0,0,.2-.23.2-.23,1.99,1.6,3.98,3.2,5.97,4.8Z"/>
  <path class="cls-24" d="M699.01,180.05c1.04-.89,2.09-1.78,3.14-2.67,1.31,1.05,2.61,2.11,3.91,3.16-2.35-.16-4.7-.33-7.05-.49Z"/>
  <path class="cls-15" d="M1053.63,555.09c.49.42.97.84,1.46,1.26-2.1,1.21-4.2,2.41-6.29,3.62-.3-.53-.59-1.06-.89-1.59,1.91-1.09,3.82-2.19,5.73-3.28Z"/>
  <path class="cls-2" d="M1214.38,600.96c-.67,1.03-1.35,2.07-2.02,3.1.67-1.03,1.35-2.07,2.02-3.1Z"/>
  <path class="cls-13" d="M1138.76,667.3c.91-.82,1.82-1.65,2.73-2.47-.91.82-1.82,1.65-2.73,2.47Z"/>
  <path class="cls-24" d="M690.88,149.42c-.24,1.37-.48,2.75-.72,4.12.24-1.37.48-2.75.72-4.12Z"/>
  <path class="cls-21" d="M1223.48,560.14h-.44s-.44,0-.44,0c-.07-1.33-.14-2.66-.21-4,.36,1.33.72,2.67,1.08,4Z"/>
  <path class="cls-21" d="M842.94,269.39c-.99-.36-1.99-.73-2.98-1.09.99.36,1.99.73,2.98,1.09Z"/>
  <path class="cls-13" d="M642.9,265.64c-.2.9-.4,1.8-.6,2.7.2-.9.4-1.8.6-2.7Z"/>
  <path class="cls-20" d="M797.83,495.26c.67.37,1.34.74,2.01,1.11-.67-.37-1.34-.74-2.01-1.11Z"/>
  <path class="cls-20" d="M795.8,494.12c.69.39,1.39.78,2.08,1.17-.69-.39-1.39-.78-2.08-1.17Z"/>
  <path class="cls-6" d="M781.8,482.35c-.65-.35-1.3-.71-1.95-1.07,0,0,.16-.16.16-.16.66.33,1.33.66,1.99,1,0,0-.2.23-.2.23Z"/>
  <path class="cls-16" d="M1012.34,365.66c-.12-.62-.25-1.25-.37-1.87.42.35.84.71,1.26,1.06-.3.27-.6.54-.89.81Z"/>
  <path class="cls-6" d="M774.87,477.29c-.43-.16-.85-.32-1.28-.48.1-.12.26-.36.28-.35.39.21.75.46,1.12.69l-.13.13Z"/>
  <path class="cls-21" d="M1210.39,540.23c.68.38,1.35.76,2.03,1.14-.68-.38-1.35-.76-2.03-1.14Z"/>
  <path class="cls-13" d="M1164.71,651.34c.68-.37,1.35-.73,2.03-1.1-.68.37-1.35.73-2.03,1.1Z"/>
  <path class="cls-21" d="M1213.37,542.2c.36.35.72.69,1.09,1.04-.36-.35-.72-.69-1.09-1.04Z"/>
  <path class="cls-24" d="M613.34,178.23c-.43-.24-.85-.48-1.28-.73.43.24.85.48,1.28.73Z"/>
  <path class="cls-21" d="M1212.34,541.23c.37.35.74.7,1.11,1.04-.37-.35-.74-.7-1.11-1.04Z"/>
  <path class="cls-13" d="M1163.48,652.1c.44-.27.88-.55,1.32-.82-.44.27-.88.55-1.32.82Z"/>
  <path class="cls-2" d="M1212.48,604c-.44.37-.87.74-1.31,1.12.44-.37.87-.74,1.31-1.12Z"/>
  <path class="cls-15" d="M1047.52,559.49c-.12.21-.24.43-.36.64-.11-.11-.33-.25-.31-.33.05-.24.2-.45.31-.67.11.11.22.22.36.36Z"/>
  <path class="cls-13" d="M1137.63,668.15c.39-.3.79-.6,1.18-.9-.39.3-.79.6-1.18.9Z"/>
  <path class="cls-6" d="M779.03,480.09c.32.34.65.69.98,1.03,0,0-.16.16-.16.16-.35-.32-.7-.64-1.05-.96l.23-.23Z"/>
  <path class="cls-6" d="M778.8,480.33c-.12-.19-.24-.39-.36-.58.2.12.39.23.59.35,0,0-.23.23-.23.23Z"/>
  <path class="cls-21" d="M610.07,392.27c.22-.18.45-.35.67-.53.01.16.02.32.04.48-.25,0-.5-.01-.75-.02,0,0,.05.07.05.07Z"/>
  <path class="cls-15" d="M1043.52,561.49c-.12.21-.24.43-.36.64-.11-.11-.33-.25-.31-.33.05-.24.2-.45.31-.67.11.11.22.22.36.36Z"/>
  <path class="cls-6" d="M775,477.17c.13.17.26.34.39.51-.17-.13-.34-.25-.51-.38,0,0,.13-.13.13-.13Z"/>
  <path class="cls-15" d="M1045.52,560.49c-.12.21-.24.43-.36.64-.11-.11-.33-.25-.31-.33.05-.24.2-.45.31-.67.11.11.22.22.36.36Z"/>
  <path class="cls-1" d="M719.01,918.81c-4.52,1.96-8.86,4.87-13.58,5.72-18.62,3.34-34.75-2.1-47.8-15.78-5.36-5.62-9.34-12.29-11.96-20.93,2.61,0,4.5,0,6.38,0,1.79,7.58,6.39,13.42,12,18.4,10.63,9.43,23.2,13.96,37.41,13.49,4.6-.15,9.17-1.09,13.77-1.51,1.23-.11,2.51.39,3.77.6Z"/>
  <path class="cls-26" d="M853.82,311.47c9.38,4.95,18.71,10.04,29.7,10.48,1.32.05,2.64.32,3.95.53,3.72.6,4.84,2.78,3.29,6.08-4.66,9.9-9.45,19.73-14.18,29.59-3.47,2.95-6.73,6.2-10.44,8.81-18.34,12.95-38.96,15.11-60.52,12.33-1.77-.23-3.66-.82-5.13-1.8-9.07-5.97-19.74-9.81-26.09-19.44-6.93-5.09-10.71-13.83-19.62-16.74-1.46-.48-2.34-2.75-3.49-4.19,1.79-.77,3.9-2.59,5.32-2.16,11.12,3.35,20-.26,28.26-7.63,5.05-4.5,11-7.98,16.21-12.32,12.21-10.18,26.12-9.91,40.53-7.15,2.43.46,4.84,1,7.26,1.5,1.65.7,3.31,1.4,4.96,2.1ZM875.64,328.92c-3.79-1.43-6.81-2.34-9.62-3.69-5.8-2.78-11.6-3.63-17.85-1.5-6.54,2.23-13.19,4.18-19.83,6.09-4.38,1.25-8.81,2.39-13.29,3.21-1.82.33-3.84-.28-5.75-.58-3-.47-5.38-.12-7.06,3.01-4.01,7.46-3.01,14.68.73,21.72,1.01,1.91,2.79,3.78,4.68,4.79,14.55,7.74,28.94,3.77,43.18-1.14,15.16-5.23,18.63-19.48,24.8-31.9Z"/>
  <path class="cls-3" d="M774.39,358.06c6.34,9.63,17.02,13.46,26.09,19.44,1.47.97,3.36,1.57,5.13,1.8,21.57,2.79,42.19.63,60.52-12.33,3.71-2.62,6.97-5.86,10.44-8.81.12,2.3,1.16,5.12.21,6.82-5.15,9.13-12.11,16.53-22.13,20.53-.46.18-.94.36-1.35.63-16.05,10.65-32.45,6.88-49.07,1.53-7.78-2.5-15.39-4.86-21.74-10.39-2.17-1.89-5.22-2.98-8.04-3.86-4.12-1.28-7.49-2.94-7.48-7.92.02-4.89,3.7-6.2,7.43-7.43Z"/>
  <path class="cls-23" d="M943.83,351.74c-1.69-3.54.42-5.17,3.35-5.54,5.42-.69,10.9-1.28,16.35-1.22,6.22.07,9.56,3.26,11.1,9.41,1.98,7.92.78,12.05-5.14,15.36-3.82,2.13-1.91,5.22-1.78,7.88.14,2.92,1.04,5.8,1.61,8.7-1.24-2.2-2.47-4.39-3.71-6.59-.22.08-.44.15-.66.23.24,2.72.49,5.44.73,8.15-.62.4-1.24.79-1.87,1.19-.35-.65-.69-1.3-1.04-1.95v-15.68c-4.94-1.03-7.43-.5-10.49,3.25-3.16,3.87-8.99,5.59-13.74,8.07-.44.23-1.95-.68-2.26-1.38-.31-.71-.08-2.27.47-2.65,2.29-1.56,4.71-2.99,7.23-4.13,2.86-1.29,5.54-2.26,4.54-6.45-.18-.75,2.14-2.8,3.52-3.05,2.18-.4,4.55.22,6.99.43.17-1.72.3-3.04.44-4.38.64.03.98-.03,1.25.08,2.5.95,5,1.94,7.49,2.91.52-2.45,1.52-4.93,1.4-7.35-.09-1.76-1.67-3.44-2.59-5.15-2-.57-4.03-1.7-6.01-1.62-5.74.24-11.46.96-17.19,1.49ZM964.04,374.77c.39.02.78.04,1.16.07.04-.97.09-1.93.13-2.9-.38-.02-.76-.04-1.14-.06-.05.96-.1,1.93-.15,2.89Z"/>
  <path class="cls-3" d="M853.82,311.47c-1.65-.7-3.31-1.4-4.96-2.1-6.44-7.12-14.58-8.57-23.73-7.62-11.34,1.18-21.06,5.37-28.93,13.71-.55.58-1.37.93-2.11,1.29-.42.2-.93.22-2.43-.41,1.27-1.78,2.91-3.4,3.75-5.36,5.12-11.85,14.96-14.93,26.8-15.76,13.44-.94,25.09,2.81,35.8,10.57,2.11,1.53,4.57,2.56,6.87,3.82l-.5,1.2c-3.52.22-7.04.44-10.57.67Z"/>
  <path class="cls-3" d="M943.83,351.74c5.73-.53,11.45-1.25,17.19-1.49,1.98-.08,4,1.04,6.01,1.62-.11,5.58-4.49,5.81-8.31,6.34-2.74.39-5.58.1-8.38.13q-6.52.07-6.51-6.6Z"/>
  <path class="cls-6" d="M965.68,388.11c-.24-2.72-.49-5.44-.73-8.15.22-.08.44-.15.66-.23,1.24,2.2,2.47,4.39,3.71,6.59,3.32,1.56,4.63,5.3,2.87,8.24-1.39,2.33-6.79,3.18-9.39,1.1-3.21-2.57-2.65-5.54-.02-8.32.35.65.69,1.3,1.04,1.95-.29,2.24-.5,4.6,2.67,4.66,1.09.02,2.2-.97,3.3-1.5-1.22-1.38-2.43-2.75-3.66-4.12-.1-.11-.29-.15-.44-.23Z"/>
  <path class="cls-3" d="M936.94,369.29c-1.37-.82-2.73-1.63-4.1-2.45,2.14-2.71,4.25-5.44,6.51-8.05.08-.09,1.65,1.12,2.53,1.72-1.47,2.11-3.01,4.17-4.38,6.34-.42.67-.39,1.62-.56,2.44Z"/>
  <path class="cls-6" d="M936.94,369.29c.17-.82.14-1.77.56-2.44,1.37-2.17,2.91-4.23,4.38-6.34.83.75,2.5,1.79,2.36,2.2-1.2,3.45-2.56,6.98-7.3,6.58Z"/>
  <path class="cls-23" d="M617.06,417.19c-.83,0-1.74.23-2.46-.05-1.37-.53-2.63-1.36-3.93-2.06,1.26-.8,2.42-1.86,3.79-2.36,8.91-3.23,17.89-2.27,26.8-.02,1.51.38,2.78,1.69,4.16,2.57-1.46.7-2.92,1.41-4.37,2.11-7.98-1.63-15.96-4.13-23.98-.19Z"/>
  <path class="cls-3" d="M617.06,417.19c8.03-3.94,16-1.44,23.98.19.21,2.76-1.11,3.93-3.82,3.9-5.14-.07-10.31.29-15.4-.24-1.7-.18-3.18-2.5-4.76-3.85Z"/>
  <path class="cls-2" d="M834.89,755.92c2.29-.08,4.58-.16,6.87-.24-2.29.08-4.58.16-6.87.24Z"/>
  <path class="cls-2" d="M827.9,756.9c.74-.27,1.49-.55,2.24-.82-.74.27-1.49.55-2.24.82Z"/>
  <path class="cls-23" d="M1021.74,722.9c.37-1.44.63-2.92,1.14-4.32,2.77-7.59,11.11-10.75,18.17-6.69,2.71,1.56,5.91,3.74,3.69,7.45-2.25,3.76-4.83.48-7.2-.53-4.04-1.95-6.62-1.17-8.35,3.39-1.76,4.64-4.03,4.66-7.46.7Z"/>
  <path class="cls-23" d="M1005.91,708.83c1.87-2.97,3.73-5.93,5.6-8.9,2.16.05,4.35-.12,6.47.19,3.16.46,6.99,1.13,6.44,5.32-.54,4.16-4.32,2.38-6.93,2.45-3.13-1.05-3.76.94-4.04,3.34-.51,4.41-2.48,6.06-6.67,3.56-.29-1.99-.58-3.98-.88-5.96Z"/>
  <path class="cls-23" d="M1031.95,694.65c.04-3.74,2.21-5.45,5.67-5.48,3.29-.03,6.68-.11,9.85.63,3.1.72,5.65,3.21,4.37,6.61-1.5,3.99-4.35,2.22-6.86.54-.61-.41-1.56-.3-2.36-.42-4.15,2.75-8.19,4.87-10.68-1.87Z"/>
  <path class="cls-2" d="M1021.74,722.9c3.43,3.97,5.7,3.94,7.46-.7,1.73-4.56,4.31-5.34,8.35-3.39-2.39,9.14-7.48,11.77-15.74,7.96-2.18-1.01-3.48-2.53-.06-3.87Z"/>
  <path class="cls-27" d="M1006.78,714.8c4.19,2.49,6.16.84,6.67-3.56.28-2.4.91-4.38,4.04-3.34,2.36,7,.91,10.38-4.84,11.08-3.13.38-5.6-.42-5.87-4.18Z"/>
  <path class="cls-21" d="M1031.95,694.65c2.48,6.75,6.53,4.62,10.68,1.87-1.25,2.07-2.19,5.51-3.81,5.87-2,.45-4.88-1.3-6.76-2.85-.82-.68-.12-3.21-.11-4.9Z"/>
  <path class="cls-5" d="M697.56,191.2c-.12-2.27-.21-4.06-.33-6.38,1.68-.13,3.22-.25,5.18-.4v6.78h-4.85Z"/>
  <path class="cls-10" d="M875.64,328.92c-6.17,12.43-9.63,26.67-24.8,31.9-14.25,4.91-28.63,8.88-43.18,1.14-1.89-1.01-3.67-2.88-4.68-4.79-3.74-7.04-4.74-14.26-.73-21.72,1.68-3.13,4.05-3.48,7.06-3.01,1.91.3,3.92.91,5.75.58,4.48-.81,8.91-1.95,13.29-3.21,6.65-1.9,13.29-3.86,19.83-6.09,6.25-2.13,12.05-1.27,17.85,1.5,2.81,1.34,5.83,2.25,9.62,3.69ZM842.5,329.29c-7.62.08-12.8,5.09-12.63,12.21.19,8.14,7.95,18.63,13.9,18.64,8.08.02,13.75-8.32,14.07-15.38.4-8.81-6.72-15.56-15.33-15.47Z"/>
  <path class="cls-20" d="M965.68,388.11c.15.07.33.11.44.23,1.23,1.37,2.44,2.75,3.66,4.12-1.1.53-2.21,1.52-3.3,1.5-3.17-.06-2.96-2.42-2.67-4.66.62-.4,1.24-.79,1.87-1.19Z"/>
  <path class="cls-6" d="M964.04,374.77c.05-.96.1-1.93.15-2.89.38.02.76.04,1.14.06-.04.97-.09,1.93-.13,2.9-.39-.02-.78-.04-1.16-.07Z"/>
  <path class="cls-22" d="M842.5,329.29c8.62-.09,15.73,6.66,15.33,15.47-.32,7.06-5.99,15.39-14.07,15.38-5.94-.01-13.7-10.5-13.9-18.64-.17-7.12,5.01-12.12,12.63-12.21ZM850.22,345.61l1.44-1.15c-1.99-2.49-3.84-5.12-6.09-7.34-.41-.4-3.5.77-3.54,1.34-.17,2.57.31,5.19.54,7.55,3.22-.17,5.44-.29,7.66-.4Z"/>
  <path class="cls-10" d="M850.22,345.61c-2.22.12-4.44.23-7.66.4-.22-2.36-.7-4.98-.54-7.55.04-.57,3.13-1.74,3.54-1.34,2.25,2.23,4.1,4.85,6.09,7.34l-1.44,1.15Z"/>
</svg>